<svg xmlns="http://www.w3.org/2000/svg" xmlns:xlink="http://www.w3.org/1999/xlink" width="1000" zoomAndPan="magnify" viewBox="0 0 750 749.999995" height="1000" preserveAspectRatio="xMidYMid meet" version="1.0"><path fill="#000000" d="M 693.867188 493.5 C 693.128906 502.769531 691.613281 511.914062 689.328125 520.925781 C 687.042969 529.941406 684.015625 538.703125 680.25 547.207031 C 683.726562 545.753906 687.054688 544.011719 690.230469 541.980469 C 693.40625 539.945312 696.382812 537.65625 699.160156 535.109375 C 701.9375 532.558594 704.476562 529.789062 706.773438 526.796875 C 709.066406 523.808594 711.089844 520.640625 712.835938 517.300781 C 713.386719 516.28125 714.023438 515.320312 714.753906 514.421875 C 715.484375 513.523438 716.289062 512.699219 717.171875 511.949219 C 718.054688 511.199219 719 510.539062 720.003906 509.964844 C 721.011719 509.394531 722.0625 508.917969 723.15625 508.542969 C 724.25 508.167969 725.371094 507.894531 726.515625 507.726562 C 727.664062 507.558594 728.8125 507.5 729.96875 507.546875 C 731.125 507.597656 732.269531 507.75 733.398438 508.011719 C 734.523438 508.273438 735.617188 508.636719 736.679688 509.101562 C 737.738281 509.566406 738.746094 510.125 739.703125 510.777344 C 740.65625 511.429688 741.546875 512.167969 742.363281 512.988281 C 743.183594 513.804688 743.917969 514.695312 744.570312 515.648438 C 745.222656 516.605469 745.78125 517.613281 746.246094 518.675781 C 746.710938 519.734375 747.074219 520.832031 747.332031 521.957031 C 747.59375 523.085938 747.746094 524.230469 747.792969 525.386719 C 747.84375 526.542969 747.78125 527.695312 747.613281 528.839844 C 747.445312 529.988281 747.175781 531.109375 746.796875 532.203125 C 731.507812 576.652344 699.808594 603.703125 653.144531 610.332031 C 651.699219 610.558594 650.242188 610.609375 648.785156 610.480469 C 647.324219 610.355469 645.902344 610.058594 644.511719 609.589844 C 643.125 609.121094 641.8125 608.496094 640.574219 607.710938 C 639.339844 606.925781 638.210938 606.007812 637.195312 604.949219 C 628.03125 613.027344 618.265625 620.292969 607.894531 626.746094 C 567.792969 651.960938 515.652344 664.402344 463.511719 669.425781 C 463.734375 672.476562 463.242188 675.410156 462.03125 678.222656 C 461.136719 680.335938 460.09375 682.378906 458.90625 684.34375 C 457.71875 686.308594 456.398438 688.179688 454.941406 689.957031 C 453.484375 691.734375 451.910156 693.398438 450.214844 694.949219 C 448.519531 696.5 446.722656 697.921875 444.824219 699.214844 C 442.925781 700.507812 440.945312 701.660156 438.882812 702.667969 C 436.820312 703.675781 434.695312 704.535156 432.507812 705.238281 C 430.324219 705.941406 428.097656 706.488281 425.832031 706.871094 C 423.570312 707.257812 421.289062 707.480469 418.992188 707.539062 C 416.699219 707.597656 414.410156 707.492188 412.128906 707.222656 C 409.847656 706.953125 407.597656 706.523438 405.378906 705.929688 C 403.160156 705.335938 400.996094 704.589844 398.882812 703.6875 C 396.769531 702.785156 394.734375 701.738281 392.773438 700.542969 C 390.8125 699.347656 388.945312 698.019531 387.171875 696.558594 C 385.402344 695.09375 383.742188 693.511719 382.199219 691.8125 C 380.652344 690.113281 379.238281 688.3125 377.949219 686.410156 C 376.664062 684.507812 375.519531 682.519531 374.515625 680.453125 C 373.164062 677.746094 372.519531 674.878906 372.582031 671.851562 L 358.632812 671.230469 C 267.214844 666.238281 68.027344 642.339844 33.769531 537.457031 C 12.441406 471.996094 10.800781 403.453125 34.589844 338.484375 C 43.925781 313.242188 56.460938 289.703125 72.195312 267.871094 C 13.425781 231.039062 1.414062 172.507812 42.433594 115.253906 C 79.742188 63.222656 136.90625 41.71875 195.875 70.410156 C 199.207031 72.09375 202.433594 73.960938 205.550781 76.019531 C 208.671875 78.074219 211.660156 80.304688 214.519531 82.707031 C 217.378906 85.113281 220.089844 87.671875 222.652344 90.390625 C 225.214844 93.105469 227.613281 95.960938 229.84375 98.957031 C 232.078125 101.953125 234.128906 105.066406 236 108.300781 C 237.871094 111.535156 239.550781 114.863281 241.035156 118.292969 C 242.519531 121.71875 243.804688 125.222656 244.882812 128.796875 C 245.960938 132.375 246.832031 136 247.492188 139.679688 C 318.632812 118.273438 396.175781 123 466.496094 149.265625 C 466.871094 148.3125 467.328125 147.40625 467.875 146.539062 C 501.542969 90.730469 552.503906 65.058594 616.261719 85.019531 C 671.457031 102.253906 709.355469 157.570312 701.1875 215.511719 C 696.691406 247.453125 672.636719 274.601562 649.960938 295.710938 C 649.046875 296.589844 648.050781 297.367188 646.976562 298.039062 C 649.753906 302.855469 652.445312 307.789062 655.046875 312.847656 C 683.792969 368.652344 699.21875 430.699219 693.867188 493.597656 Z M 693.867188 493.5 " fill-opacity="1" fill-rule="evenodd"/><path fill="#ffffff" d="M 675.296875 491.921875 C 680.742188 427.972656 663.089844 369.046875 638.511719 321.21875 C 610.976562 267.707031 573.175781 227.691406 518.574219 194.863281 C 413.042969 131.40625 277.453125 124.972656 175.59375 194.105469 C 54.179688 276.441406 9.125 401.480469 51.589844 531.742188 C 76.070312 606.886719 213.234375 644.703125 359.71875 652.679688 C 455.632812 657.902344 543.28125 645.394531 597.984375 610.988281 C 642.152344 583.25 670.832031 544.578125 675.296875 491.921875 Z M 675.296875 491.921875 " fill-opacity="1" fill-rule="evenodd"/><path fill="#ffffff" d="M 83.484375 252.96875 C 35.214844 223.421875 20.742188 177.464844 57.5625 126.085938 C 94.378906 74.710938 143.339844 65.550781 187.703125 87.152344 C 190.480469 88.570312 193.160156 90.144531 195.746094 91.878906 C 198.335938 93.613281 200.8125 95.496094 203.175781 97.527344 C 205.535156 99.558594 207.769531 101.722656 209.875 104.019531 C 211.980469 106.316406 213.941406 108.730469 215.761719 111.257812 C 217.578125 113.789062 219.238281 116.421875 220.742188 119.148438 C 222.246094 121.878906 223.582031 124.6875 224.75 127.574219 C 225.921875 130.464844 226.914062 133.414062 227.730469 136.417969 C 228.550781 139.425781 229.1875 142.472656 229.640625 145.554688 C 206.769531 153.988281 185.246094 165.039062 165.0625 178.710938 C 149.703125 189 135.1875 200.363281 121.515625 212.808594 C 107.847656 225.253906 95.167969 238.640625 83.484375 252.96875 Z M 83.484375 252.96875 " fill-opacity="1" fill-rule="evenodd"/><path fill="#ffffff" d="M 682.777344 212.851562 C 679.496094 236.71875 661.546875 259.238281 637.230469 282.054688 C 609.371094 239.375 573.636719 206.21875 528.15625 178.875 C 513.871094 170.300781 499.082031 162.703125 483.789062 156.09375 C 514.699219 104.945312 557.359375 85.972656 610.714844 102.679688 C 657.542969 117.320312 689.472656 164.199219 682.90625 212.820312 Z M 682.777344 212.851562 " fill-opacity="1" fill-rule="evenodd"/><path fill="#f5cad3" d="M 201.585938 157.570312 C 188.902344 163.742188 176.730469 170.789062 165.0625 178.710938 C 147.964844 190.296875 131.863281 203.132812 116.757812 217.21875 C 115.722656 216.621094 114.703125 215.992188 113.707031 215.332031 C 112.710938 214.671875 111.734375 213.980469 110.78125 213.257812 C 109.824219 212.539062 108.894531 211.785156 107.988281 211.007812 C 107.082031 210.226562 106.199219 209.417969 105.34375 208.582031 C 104.488281 207.746094 103.65625 206.886719 102.855469 206 C 102.054688 205.109375 101.28125 204.199219 100.535156 203.261719 C 99.789062 202.328125 99.074219 201.367188 98.390625 200.386719 C 97.703125 199.40625 97.050781 198.40625 96.429688 197.382812 C 95.808594 196.363281 95.21875 195.320312 94.660156 194.261719 C 94.101562 193.203125 93.582031 192.128906 93.089844 191.035156 C 92.601562 189.945312 92.144531 188.839844 91.726562 187.71875 C 91.304688 186.597656 90.921875 185.464844 90.574219 184.320312 C 90.222656 183.175781 89.910156 182.023438 89.632812 180.859375 C 89.355469 179.695312 89.117188 178.523438 88.914062 177.34375 C 88.710938 176.164062 88.542969 174.980469 88.414062 173.789062 C 88.285156 172.601562 88.195312 171.40625 88.140625 170.210938 C 88.085938 169.015625 88.070312 167.820312 88.089844 166.625 C 88.109375 165.429688 88.167969 164.234375 88.265625 163.039062 C 88.359375 161.847656 88.492188 160.660156 88.664062 159.476562 C 88.835938 158.289062 89.042969 157.113281 89.285156 155.941406 C 89.53125 154.769531 89.808594 153.605469 90.128906 152.453125 C 90.445312 151.300781 90.796875 150.15625 91.1875 149.023438 C 91.574219 147.894531 92 146.773438 92.457031 145.671875 C 92.914062 144.566406 93.410156 143.476562 93.9375 142.402344 C 94.464844 141.328125 95.023438 140.269531 95.617188 139.230469 C 96.210938 138.191406 96.835938 137.171875 97.492188 136.175781 C 98.148438 135.175781 98.839844 134.195312 99.558594 133.238281 C 100.273438 132.28125 101.023438 131.351562 101.800781 130.441406 C 102.578125 129.53125 103.382812 128.648438 104.214844 127.789062 C 105.046875 126.929688 105.90625 126.097656 106.792969 125.292969 C 107.675781 124.484375 108.585938 123.710938 109.519531 122.960938 C 110.453125 122.214844 111.410156 121.496094 112.386719 120.808594 C 113.367188 120.117188 114.363281 119.460938 115.382812 118.835938 C 116.402344 118.210938 117.441406 117.617188 118.5 117.058594 C 119.554688 116.5 120.628906 115.972656 121.71875 115.480469 C 122.808594 114.984375 123.914062 114.527344 125.03125 114.105469 C 126.152344 113.679688 127.28125 113.292969 128.425781 112.941406 C 129.566406 112.585938 130.71875 112.269531 131.882812 111.992188 C 133.046875 111.710938 134.214844 111.46875 135.394531 111.261719 C 136.574219 111.054688 137.757812 110.882812 138.945312 110.75 C 140.132812 110.617188 141.324219 110.523438 142.519531 110.464844 C 143.714844 110.410156 144.910156 110.386719 146.105469 110.40625 C 147.300781 110.421875 148.496094 110.476562 149.6875 110.570312 C 150.882812 110.664062 152.070312 110.792969 153.253906 110.960938 C 154.4375 111.125 155.617188 111.328125 156.789062 111.570312 C 157.960938 111.8125 159.121094 112.089844 160.277344 112.402344 C 161.429688 112.714844 162.574219 113.066406 163.707031 113.453125 C 164.839844 113.835938 165.957031 114.257812 167.0625 114.714844 C 168.171875 115.167969 169.261719 115.660156 170.335938 116.183594 C 171.410156 116.707031 172.46875 117.265625 173.507812 117.855469 C 174.550781 118.445312 175.570312 119.070312 176.570312 119.722656 C 177.574219 120.378906 178.550781 121.0625 179.511719 121.78125 C 180.46875 122.496094 181.402344 123.242188 182.316406 124.015625 C 183.226562 124.792969 184.113281 125.59375 184.972656 126.425781 C 185.835938 127.253906 186.667969 128.113281 187.476562 128.996094 C 188.285156 129.878906 189.0625 130.785156 189.8125 131.714844 C 190.5625 132.648438 191.285156 133.601562 191.976562 134.578125 C 192.664062 135.554688 193.324219 136.554688 193.953125 137.574219 C 194.582031 138.589844 195.175781 139.628906 195.738281 140.683594 C 196.300781 141.738281 196.832031 142.8125 197.328125 143.902344 C 197.824219 144.988281 198.285156 146.09375 198.710938 147.210938 C 199.136719 148.328125 199.527344 149.457031 199.886719 150.601562 C 200.242188 151.742188 200.558594 152.894531 200.84375 154.058594 C 201.128906 155.222656 201.375 156.390625 201.585938 157.570312 Z M 201.585938 157.570312 " fill-opacity="1" fill-rule="evenodd"/><path fill="#f5cad3" d="M 614.621094 251.589844 C 602.335938 237.128906 588.933594 223.800781 574.410156 211.59375 C 559.882812 199.390625 544.445312 188.484375 528.089844 178.875 L 525.398438 177.265625 C 525.882812 176.234375 526.398438 175.214844 526.941406 174.210938 C 527.484375 173.207031 528.058594 172.222656 528.65625 171.25 C 529.257812 170.28125 529.886719 169.328125 530.539062 168.390625 C 531.195312 167.457031 531.875 166.542969 532.582031 165.644531 C 533.289062 164.75 534.019531 163.875 534.777344 163.019531 C 535.53125 162.167969 536.3125 161.332031 537.117188 160.523438 C 537.921875 159.714844 538.746094 158.929688 539.597656 158.164062 C 540.445312 157.402344 541.316406 156.664062 542.207031 155.953125 C 543.097656 155.238281 544.007812 154.550781 544.9375 153.890625 C 545.867188 153.230469 546.816406 152.597656 547.78125 151.988281 C 548.75 151.382812 549.730469 150.804688 550.730469 150.253906 C 551.730469 149.703125 552.742188 149.179688 553.773438 148.6875 C 554.800781 148.195312 555.84375 147.730469 556.898438 147.296875 C 557.953125 146.863281 559.023438 146.460938 560.101562 146.089844 C 561.179688 145.71875 562.265625 145.375 563.363281 145.066406 C 564.460938 144.753906 565.566406 144.476562 566.683594 144.230469 C 567.796875 143.980469 568.914062 143.765625 570.042969 143.582031 C 571.167969 143.398438 572.296875 143.25 573.433594 143.128906 C 574.566406 143.011719 575.703125 142.925781 576.84375 142.871094 C 577.984375 142.816406 579.125 142.796875 580.265625 142.808594 C 581.40625 142.820312 582.546875 142.863281 583.683594 142.9375 C 584.820312 143.015625 585.957031 143.125 587.089844 143.265625 C 588.222656 143.40625 589.347656 143.578125 590.472656 143.785156 C 591.59375 143.988281 592.707031 144.226562 593.816406 144.496094 C 594.925781 144.765625 596.027344 145.066406 597.117188 145.398438 C 598.210938 145.730469 599.289062 146.09375 600.363281 146.484375 C 601.433594 146.878906 602.492188 147.304688 603.539062 147.757812 C 604.585938 148.210938 605.617188 148.695312 606.636719 149.207031 C 607.65625 149.71875 608.660156 150.261719 609.648438 150.832031 C 610.636719 151.402344 611.605469 152 612.5625 152.625 C 613.515625 153.253906 614.449219 153.90625 615.367188 154.582031 C 616.285156 155.261719 617.183594 155.96875 618.058594 156.699219 C 618.933594 157.429688 619.789062 158.183594 620.625 158.960938 C 621.457031 159.742188 622.269531 160.542969 623.058594 161.367188 C 623.84375 162.195312 624.609375 163.042969 625.347656 163.910156 C 626.085938 164.78125 626.800781 165.667969 627.492188 166.578125 C 628.179688 167.488281 628.84375 168.417969 629.476562 169.363281 C 630.113281 170.3125 630.722656 171.277344 631.304688 172.261719 C 631.882812 173.242188 632.4375 174.242188 632.960938 175.253906 C 633.484375 176.269531 633.980469 177.296875 634.445312 178.339844 C 634.910156 179.378906 635.34375 180.433594 635.75 181.5 C 636.15625 182.570312 636.53125 183.644531 636.875 184.734375 C 637.21875 185.824219 637.53125 186.921875 637.8125 188.027344 C 638.09375 189.132812 638.339844 190.246094 638.558594 191.367188 C 638.777344 192.488281 638.960938 193.613281 639.117188 194.742188 C 639.269531 195.875 639.390625 197.007812 639.480469 198.148438 C 639.566406 199.285156 639.625 200.425781 639.648438 201.566406 C 639.671875 202.707031 639.664062 203.847656 639.621094 204.988281 C 639.578125 206.128906 639.507812 207.265625 639.398438 208.402344 C 639.292969 209.539062 639.15625 210.671875 638.984375 211.800781 C 638.8125 212.929688 638.609375 214.050781 638.375 215.167969 C 638.140625 216.285156 637.875 217.394531 637.574219 218.496094 C 637.277344 219.597656 636.949219 220.691406 636.589844 221.773438 C 636.226562 222.855469 635.835938 223.929688 635.414062 224.988281 C 634.992188 226.050781 634.542969 227.097656 634.0625 228.132812 C 633.578125 229.167969 633.070312 230.1875 632.53125 231.191406 C 631.988281 232.199219 631.421875 233.1875 630.828125 234.160156 C 630.230469 235.132812 629.605469 236.089844 628.957031 237.027344 C 628.304688 237.964844 627.628906 238.882812 626.925781 239.78125 C 626.222656 240.679688 625.496094 241.558594 624.742188 242.417969 C 623.992188 243.273438 623.214844 244.109375 622.414062 244.921875 C 621.613281 245.734375 620.789062 246.527344 619.945312 247.292969 C 619.097656 248.058594 618.230469 248.800781 617.34375 249.515625 C 616.457031 250.234375 615.546875 250.925781 614.621094 251.589844 Z M 614.621094 251.589844 " fill-opacity="1" fill-rule="evenodd"/><path fill="#ffffff" d="M 391.480469 672.378906 C 408.808594 672.574219 426.890625 672.214844 445.132812 671 C 444.578125 672.292969 443.9375 673.539062 443.207031 674.738281 C 442.472656 675.9375 441.660156 677.082031 440.765625 678.164062 C 439.871094 679.25 438.90625 680.265625 437.867188 681.210938 C 436.824219 682.15625 435.722656 683.023438 434.5625 683.8125 C 433.398438 684.601562 432.183594 685.300781 430.921875 685.917969 C 429.660156 686.535156 428.359375 687.054688 427.019531 687.484375 C 425.683594 687.914062 424.320312 688.25 422.933594 688.484375 C 421.550781 688.71875 420.152344 688.855469 418.75 688.890625 C 417.34375 688.925781 415.945312 688.863281 414.550781 688.699219 C 413.152344 688.535156 411.777344 688.273438 410.417969 687.914062 C 409.058594 687.550781 407.734375 687.097656 406.441406 686.546875 C 405.148438 685.996094 403.898438 685.359375 402.699219 684.628906 C 401.496094 683.902344 400.351562 683.09375 399.265625 682.203125 C 398.179688 681.308594 397.160156 680.347656 396.210938 679.308594 C 395.261719 678.273438 394.390625 677.175781 393.597656 676.011719 C 392.808594 674.851562 392.101562 673.640625 391.480469 672.378906 Z M 391.480469 672.378906 " fill-opacity="1" fill-rule="evenodd"/><path fill="#f5cad3" d="M 650.519531 591.917969 C 689.898438 586.335938 716.148438 564.449219 729.273438 526.261719 C 716.476562 549.960938 695.859375 564.789062 667.417969 570.742188 C 662.339844 578.242188 656.707031 585.300781 650.519531 591.917969 Z M 650.519531 591.917969 " fill-opacity="1" fill-rule="evenodd"/><path fill="#000000" d="M 305.082031 420.621094 C 317.976562 405.652344 336.1875 404.632812 354.304688 421.015625 C 357.761719 424.269531 360.804688 427.871094 363.4375 431.824219 C 366.070312 435.777344 368.21875 439.976562 369.890625 444.421875 C 370.273438 445.410156 370.734375 446.359375 371.269531 447.277344 C 371.6875 447.457031 372.089844 447.671875 372.46875 447.925781 C 372.851562 448.179688 373.203125 448.464844 373.53125 448.785156 C 373.859375 449.101562 374.15625 449.445312 374.421875 449.816406 C 374.6875 450.191406 374.917969 450.582031 375.113281 450.996094 C 375.308594 451.410156 375.460938 451.839844 375.578125 452.28125 C 375.691406 452.722656 375.769531 453.171875 375.800781 453.628906 C 375.835938 454.085938 375.828125 454.539062 375.777344 454.996094 C 375.730469 455.449219 375.640625 455.894531 375.507812 456.335938 C 375.378906 456.773438 375.210938 457.195312 375 457.601562 C 374.792969 458.011719 374.550781 458.394531 374.273438 458.757812 C 373.996094 459.121094 373.6875 459.457031 373.347656 459.761719 C 373.007812 460.070312 372.644531 460.34375 372.257812 460.582031 C 371.867188 460.824219 371.460938 461.027344 371.035156 461.191406 C 370.609375 461.359375 370.171875 461.484375 369.722656 461.570312 C 369.273438 461.65625 368.820312 461.699219 368.363281 461.703125 C 367.90625 461.707031 367.453125 461.667969 367.003906 461.589844 C 361.128906 460.507812 358.042969 455.023438 355.976562 450.101562 C 354.734375 446.703125 353.121094 443.492188 351.144531 440.46875 C 349.167969 437.441406 346.871094 434.675781 344.261719 432.175781 C 329.59375 419.042969 319.355469 422.820312 310.757812 439.234375 C 310.125 440.46875 309.617188 441.75 309.226562 443.082031 C 308.839844 444.410156 308.582031 445.765625 308.453125 447.148438 C 308.324219 448.527344 308.324219 449.910156 308.460938 451.289062 C 308.59375 452.667969 308.855469 454.023438 309.25 455.351562 C 311.019531 463.035156 316.894531 469.960938 322.113281 475.441406 C 322.429688 475.804688 322.710938 476.195312 322.953125 476.609375 C 323.195312 477.023438 323.394531 477.460938 323.554688 477.914062 C 323.714844 478.367188 323.828125 478.832031 323.898438 479.308594 C 323.96875 479.785156 323.992188 480.265625 323.972656 480.746094 C 323.949219 481.226562 323.882812 481.699219 323.769531 482.167969 C 323.65625 482.636719 323.5 483.089844 323.296875 483.527344 C 323.097656 483.964844 322.859375 484.378906 322.578125 484.769531 C 322.300781 485.164062 321.984375 485.523438 321.636719 485.855469 C 321.289062 486.1875 320.910156 486.480469 320.503906 486.742188 C 320.097656 487 319.671875 487.21875 319.222656 487.394531 C 318.777344 487.570312 318.316406 487.703125 317.84375 487.792969 C 317.371094 487.878906 316.894531 487.921875 316.414062 487.917969 C 315.929688 487.917969 315.453125 487.867188 314.984375 487.773438 C 314.511719 487.675781 314.054688 487.539062 313.609375 487.355469 C 313.164062 487.171875 312.738281 486.949219 312.335938 486.683594 C 311.933594 486.421875 311.5625 486.121094 311.21875 485.785156 C 307.246094 481.660156 303.734375 477.171875 300.683594 472.324219 C 296.980469 477.183594 292.667969 481.429688 287.753906 485.0625 C 287.359375 485.324219 286.941406 485.546875 286.503906 485.726562 C 286.066406 485.910156 285.613281 486.050781 285.148438 486.148438 C 284.683594 486.246094 284.214844 486.296875 283.738281 486.304688 C 283.265625 486.3125 282.792969 486.277344 282.328125 486.195312 C 281.859375 486.113281 281.402344 485.988281 280.957031 485.820312 C 280.515625 485.652344 280.089844 485.445312 279.683594 485.195312 C 279.28125 484.949219 278.902344 484.664062 278.550781 484.34375 C 278.203125 484.023438 277.882812 483.671875 277.597656 483.292969 C 277.316406 482.914062 277.070312 482.507812 276.859375 482.082031 C 276.652344 481.65625 276.484375 481.214844 276.363281 480.753906 C 276.238281 480.296875 276.15625 479.832031 276.121094 479.355469 C 276.085938 478.882812 276.09375 478.410156 276.148438 477.9375 C 276.203125 477.46875 276.300781 477.003906 276.441406 476.550781 C 276.582031 476.097656 276.765625 475.660156 276.988281 475.242188 C 277.210938 474.824219 277.472656 474.429688 277.773438 474.058594 C 278.070312 473.691406 278.402344 473.351562 278.765625 473.046875 C 282.105469 470.765625 285.050781 468.050781 287.601562 464.902344 C 290.148438 461.757812 292.191406 458.308594 293.726562 454.566406 C 294.757812 451.796875 295.40625 448.945312 295.667969 446.003906 C 295.929688 443.0625 295.796875 440.136719 295.269531 437.230469 C 294.800781 434.824219 294.054688 432.503906 293.039062 430.273438 C 284.113281 409.6875 260.75 424.394531 249.199219 434.078125 C 248.816406 434.382812 248.414062 434.644531 247.980469 434.871094 C 247.550781 435.09375 247.101562 435.273438 246.636719 435.410156 C 246.171875 435.550781 245.695312 435.640625 245.210938 435.683594 C 244.730469 435.730469 244.246094 435.726562 243.761719 435.679688 C 243.277344 435.632812 242.804688 435.535156 242.339844 435.394531 C 241.875 435.253906 241.429688 435.070312 241 434.84375 C 240.570312 434.617188 240.167969 434.351562 239.789062 434.042969 C 239.410156 433.738281 239.066406 433.398438 238.753906 433.027344 C 238.441406 432.65625 238.171875 432.253906 237.933594 431.832031 C 237.699219 431.40625 237.507812 430.960938 237.359375 430.5 C 237.210938 430.035156 237.109375 429.5625 237.054688 429.082031 C 236.996094 428.597656 236.984375 428.113281 237.023438 427.628906 C 237.058594 427.144531 237.144531 426.667969 237.273438 426.199219 C 237.402344 425.734375 237.574219 425.28125 237.789062 424.847656 C 238.007812 424.410156 238.261719 424 238.558594 423.617188 C 238.855469 423.230469 239.1875 422.878906 239.550781 422.558594 C 249.789062 413.988281 263.339844 405.617188 277.058594 404.929688 C 278.46875 404.828125 279.882812 404.832031 281.296875 404.9375 C 282.707031 405.042969 284.105469 405.253906 285.488281 405.5625 C 286.871094 405.871094 288.222656 406.28125 289.546875 406.789062 C 290.871094 407.292969 292.148438 407.894531 293.382812 408.589844 C 294.621094 409.28125 295.796875 410.0625 296.921875 410.925781 C 298.042969 411.792969 299.097656 412.734375 300.082031 413.753906 C 301.066406 414.769531 301.972656 415.855469 302.796875 417.007812 C 303.625 418.15625 304.363281 419.363281 305.015625 420.621094 Z M 152.132812 326.796875 L 178.910156 335.496094 C 179.402344 335.628906 179.878906 335.804688 180.335938 336.035156 C 180.796875 336.261719 181.226562 336.53125 181.628906 336.847656 C 182.03125 337.164062 182.398438 337.515625 182.726562 337.90625 C 183.058594 338.296875 183.347656 338.714844 183.589844 339.164062 C 183.835938 339.613281 184.035156 340.082031 184.183594 340.570312 C 184.332031 341.058594 184.429688 341.558594 184.476562 342.066406 C 184.527344 342.578125 184.519531 343.085938 184.464844 343.59375 C 184.410156 344.101562 184.300781 344.597656 184.144531 345.085938 C 183.988281 345.570312 183.78125 346.035156 183.53125 346.480469 C 183.277344 346.925781 182.980469 347.339844 182.644531 347.726562 C 182.308594 348.109375 181.933594 348.457031 181.527344 348.765625 C 181.121094 349.074219 180.683594 349.335938 180.222656 349.554688 C 179.761719 349.777344 179.28125 349.945312 178.785156 350.066406 C 178.289062 350.191406 177.785156 350.261719 177.277344 350.28125 C 176.765625 350.296875 176.257812 350.265625 175.753906 350.179688 C 175.25 350.097656 174.757812 349.960938 174.28125 349.777344 L 147.503906 341.109375 C 147.035156 340.957031 146.585938 340.761719 146.15625 340.519531 C 145.726562 340.28125 145.324219 340 144.949219 339.679688 C 144.574219 339.359375 144.234375 339.003906 143.929688 338.617188 C 143.621094 338.230469 143.359375 337.816406 143.132812 337.375 C 142.910156 336.9375 142.730469 336.480469 142.597656 336.003906 C 142.460938 335.53125 142.375 335.046875 142.335938 334.554688 C 142.296875 334.0625 142.304688 333.574219 142.363281 333.082031 C 142.421875 332.59375 142.523438 332.113281 142.675781 331.644531 C 142.828125 331.175781 143.023438 330.722656 143.265625 330.292969 C 143.503906 329.863281 143.785156 329.460938 144.105469 329.082031 C 144.425781 328.707031 144.777344 328.367188 145.164062 328.058594 C 145.550781 327.753906 145.964844 327.488281 146.402344 327.265625 C 146.839844 327.039062 147.296875 326.859375 147.773438 326.722656 C 148.246094 326.589844 148.730469 326.5 149.222656 326.460938 C 149.710938 326.421875 150.203125 326.429688 150.695312 326.484375 C 151.183594 326.542969 151.664062 326.648438 152.132812 326.796875 Z M 141.402344 370.261719 L 173.265625 369.902344 C 173.777344 369.867188 174.289062 369.886719 174.800781 369.957031 C 175.308594 370.027344 175.804688 370.148438 176.289062 370.324219 C 176.773438 370.496094 177.234375 370.714844 177.675781 370.984375 C 178.113281 371.253906 178.519531 371.5625 178.898438 371.914062 C 179.273438 372.265625 179.609375 372.652344 179.902344 373.070312 C 180.199219 373.492188 180.449219 373.9375 180.65625 374.410156 C 180.859375 374.882812 181.015625 375.371094 181.121094 375.875 C 181.222656 376.378906 181.277344 376.886719 181.277344 377.402344 C 181.277344 377.917969 181.222656 378.425781 181.121094 378.929688 C 181.015625 379.433594 180.859375 379.921875 180.65625 380.394531 C 180.449219 380.867188 180.199219 381.3125 179.902344 381.734375 C 179.609375 382.152344 179.273438 382.539062 178.898438 382.890625 C 178.519531 383.242188 178.113281 383.550781 177.675781 383.820312 C 177.234375 384.089844 176.773438 384.308594 176.289062 384.480469 C 175.804688 384.65625 175.308594 384.777344 174.800781 384.847656 C 174.289062 384.917969 173.777344 384.9375 173.265625 384.902344 L 141.433594 385.265625 C 140.921875 385.304688 140.410156 385.289062 139.902344 385.222656 C 139.390625 385.160156 138.894531 385.042969 138.40625 384.875 C 137.921875 384.707031 137.457031 384.488281 137.015625 384.226562 C 136.574219 383.964844 136.164062 383.660156 135.785156 383.3125 C 135.40625 382.964844 135.066406 382.582031 134.765625 382.164062 C 134.464844 381.746094 134.210938 381.304688 134 380.832031 C 133.792969 380.363281 133.632812 379.878906 133.523438 379.375 C 133.414062 378.875 133.355469 378.363281 133.347656 377.851562 C 133.34375 377.335938 133.390625 376.828125 133.488281 376.324219 C 133.589844 375.816406 133.738281 375.328125 133.9375 374.855469 C 134.136719 374.378906 134.382812 373.933594 134.671875 373.507812 C 134.964844 373.085938 135.296875 372.695312 135.667969 372.339844 C 136.039062 371.984375 136.441406 371.667969 136.875 371.394531 C 137.3125 371.125 137.769531 370.898438 138.253906 370.71875 C 138.734375 370.539062 139.230469 370.414062 139.738281 370.335938 C 140.246094 370.257812 140.757812 370.234375 141.269531 370.261719 Z M 353.1875 362.351562 C 350.054688 363.832031 346.832031 365.074219 343.515625 366.074219 C 340.199219 367.074219 336.824219 367.820312 333.394531 368.316406 C 329.96875 368.8125 326.519531 369.046875 323.058594 369.027344 C 319.59375 369.007812 316.148438 368.730469 312.726562 368.195312 C 312.222656 368.144531 311.726562 368.046875 311.238281 367.902344 C 310.753906 367.753906 310.285156 367.558594 309.839844 367.3125 C 309.394531 367.070312 308.976562 366.785156 308.585938 366.457031 C 308.199219 366.128906 307.847656 365.765625 307.53125 365.367188 C 307.214844 364.96875 306.945312 364.542969 306.714844 364.089844 C 306.488281 363.632812 306.308594 363.160156 306.175781 362.671875 C 306.042969 362.179688 305.960938 361.679688 305.929688 361.175781 C 305.898438 360.667969 305.917969 360.160156 305.988281 359.65625 C 306.058594 359.152344 306.179688 358.664062 306.351562 358.183594 C 306.523438 357.707031 306.738281 357.25 307.003906 356.8125 C 307.265625 356.378906 307.570312 355.976562 307.914062 355.601562 C 308.261719 355.230469 308.640625 354.894531 309.050781 354.597656 C 309.464844 354.300781 309.90625 354.050781 310.367188 353.84375 C 310.832031 353.636719 311.3125 353.476562 311.808594 353.367188 C 312.304688 353.257812 312.808594 353.199219 313.316406 353.191406 C 313.824219 353.183594 314.328125 353.226562 314.828125 353.324219 C 317.878906 353.828125 320.953125 354.066406 324.046875 354.039062 C 327.140625 354.015625 330.207031 353.71875 333.25 353.160156 C 336.292969 352.601562 339.265625 351.785156 342.167969 350.707031 C 345.070312 349.632812 347.855469 348.316406 350.53125 346.757812 C 351.226562 346.347656 351.972656 346.058594 352.765625 345.890625 C 353.558594 345.722656 354.355469 345.683594 355.160156 345.777344 C 355.964844 345.867188 356.734375 346.085938 357.46875 346.425781 C 358.203125 346.769531 358.867188 347.21875 359.453125 347.773438 C 369.300781 356.933594 380.914062 363.203125 394.664062 362.84375 C 395.175781 362.796875 395.683594 362.804688 396.195312 362.863281 C 396.703125 362.921875 397.199219 363.035156 397.6875 363.195312 C 398.171875 363.355469 398.636719 363.5625 399.082031 363.820312 C 399.523438 364.074219 399.9375 364.375 400.320312 364.714844 C 400.703125 365.054688 401.046875 365.429688 401.355469 365.84375 C 401.660156 366.253906 401.921875 366.691406 402.136719 367.15625 C 402.355469 367.621094 402.519531 368.101562 402.640625 368.601562 C 402.757812 369.101562 402.824219 369.605469 402.835938 370.117188 C 402.851562 370.628906 402.816406 371.136719 402.726562 371.644531 C 402.636719 372.148438 402.496094 372.636719 402.308594 373.113281 C 402.117188 373.589844 401.882812 374.042969 401.597656 374.46875 C 401.316406 374.898438 400.996094 375.292969 400.632812 375.65625 C 400.269531 376.015625 399.875 376.339844 399.445312 376.617188 C 399.015625 376.898438 398.566406 377.132812 398.089844 377.324219 C 397.613281 377.511719 397.121094 377.648438 396.617188 377.738281 C 396.113281 377.824219 395.605469 377.863281 395.089844 377.84375 C 391.28125 377.890625 387.496094 377.585938 383.742188 376.933594 C 379.984375 376.28125 376.320312 375.292969 372.746094 373.964844 C 369.175781 372.636719 365.753906 370.996094 362.480469 369.035156 C 359.210938 367.078125 356.144531 364.839844 353.285156 362.316406 Z M 512.171875 365.632812 L 544.199219 361.921875 C 544.699219 361.855469 545.195312 361.835938 545.695312 361.867188 C 546.199219 361.898438 546.691406 361.980469 547.175781 362.109375 C 547.660156 362.238281 548.125 362.414062 548.574219 362.640625 C 549.023438 362.863281 549.445312 363.128906 549.84375 363.4375 C 550.238281 363.746094 550.597656 364.089844 550.925781 364.46875 C 551.253906 364.847656 551.539062 365.257812 551.785156 365.695312 C 552.03125 366.132812 552.230469 366.589844 552.382812 367.070312 C 552.535156 367.546875 552.640625 368.035156 552.695312 368.535156 C 552.753906 369.03125 552.757812 369.53125 552.714844 370.03125 C 552.671875 370.53125 552.578125 371.019531 552.433594 371.503906 C 552.292969 371.984375 552.105469 372.445312 551.871094 372.890625 C 551.636719 373.332031 551.359375 373.75 551.039062 374.136719 C 550.722656 374.523438 550.371094 374.875 549.980469 375.195312 C 549.59375 375.511719 549.175781 375.785156 548.734375 376.019531 C 548.289062 376.253906 547.828125 376.441406 547.34375 376.582031 C 546.863281 376.726562 546.375 376.816406 545.875 376.859375 L 513.914062 380.570312 C 513.421875 380.628906 512.933594 380.636719 512.441406 380.597656 C 511.949219 380.558594 511.464844 380.46875 510.988281 380.335938 C 510.515625 380.199219 510.058594 380.019531 509.617188 379.792969 C 509.179688 379.570312 508.765625 379.304688 508.378906 378.996094 C 507.992188 378.691406 507.640625 378.351562 507.320312 377.972656 C 507 377.597656 506.71875 377.195312 506.480469 376.761719 C 506.238281 376.332031 506.042969 375.882812 505.890625 375.410156 C 505.738281 374.941406 505.636719 374.460938 505.578125 373.972656 C 505.519531 373.480469 505.511719 372.988281 505.550781 372.496094 C 505.589844 372.007812 505.679688 371.523438 505.8125 371.046875 C 505.949219 370.574219 506.128906 370.117188 506.351562 369.675781 C 506.578125 369.238281 506.84375 368.824219 507.148438 368.4375 C 507.457031 368.046875 507.796875 367.695312 508.171875 367.375 C 508.546875 367.054688 508.953125 366.773438 509.382812 366.535156 C 509.8125 366.292969 510.265625 366.097656 510.734375 365.945312 C 511.203125 365.792969 511.683594 365.691406 512.171875 365.632812 Z M 519.984375 397.148438 L 544.035156 406.570312 C 544.46875 406.769531 544.878906 407.003906 545.261719 407.28125 C 545.648438 407.558594 546.007812 407.867188 546.335938 408.210938 C 546.664062 408.554688 546.957031 408.925781 547.214844 409.324219 C 547.46875 409.722656 547.6875 410.140625 547.867188 410.582031 C 548.042969 411.023438 548.179688 411.476562 548.269531 411.941406 C 548.363281 412.40625 548.410156 412.878906 548.414062 413.351562 C 548.417969 413.828125 548.375 414.300781 548.289062 414.765625 C 548.203125 415.234375 548.074219 415.6875 547.902344 416.128906 C 547.730469 416.574219 547.515625 416.996094 547.265625 417.398438 C 547.011719 417.800781 546.722656 418.175781 546.402344 418.523438 C 546.078125 418.871094 545.722656 419.183594 545.339844 419.464844 C 544.957031 419.746094 544.550781 419.988281 544.125 420.191406 C 543.695312 420.394531 543.25 420.558594 542.789062 420.675781 C 542.332031 420.796875 541.863281 420.871094 541.390625 420.902344 C 540.917969 420.933594 540.445312 420.921875 539.972656 420.863281 C 539.503906 420.804688 539.042969 420.699219 538.589844 420.554688 L 514.503906 411.132812 C 514.066406 410.9375 513.648438 410.703125 513.253906 410.429688 C 512.863281 410.15625 512.496094 409.847656 512.164062 409.503906 C 511.828125 409.160156 511.53125 408.785156 511.265625 408.386719 C 511.003906 407.984375 510.78125 407.5625 510.597656 407.117188 C 510.417969 406.675781 510.277344 406.21875 510.183594 405.746094 C 510.089844 405.277344 510.039062 404.800781 510.035156 404.320312 C 510.03125 403.84375 510.074219 403.367188 510.160156 402.894531 C 510.246094 402.421875 510.378906 401.964844 510.554688 401.515625 C 510.726562 401.070312 510.945312 400.644531 511.199219 400.238281 C 511.457031 399.832031 511.75 399.457031 512.078125 399.105469 C 512.40625 398.757812 512.765625 398.441406 513.15625 398.160156 C 513.542969 397.882812 513.957031 397.640625 514.390625 397.4375 C 514.828125 397.238281 515.277344 397.078125 515.742188 396.964844 C 516.207031 396.847656 516.679688 396.777344 517.160156 396.753906 C 517.640625 396.726562 518.117188 396.75 518.589844 396.816406 C 519.066406 396.882812 519.53125 396.992188 519.984375 397.148438 Z M 189.835938 593.65625 C 191.082031 577.242188 199.679688 565.097656 216.480469 562.175781 C 243.980469 557.347656 259.894531 573.433594 267.113281 598.710938 C 267.230469 599.179688 267.300781 599.65625 267.324219 600.136719 C 267.347656 600.617188 267.328125 601.097656 267.257812 601.574219 C 267.191406 602.050781 267.078125 602.515625 266.917969 602.972656 C 266.761719 603.425781 266.5625 603.863281 266.320312 604.28125 C 266.078125 604.699219 265.800781 605.089844 265.484375 605.453125 C 265.167969 605.816406 264.820312 606.144531 264.441406 606.441406 C 264.058594 606.738281 263.65625 606.996094 263.226562 607.214844 C 262.796875 607.429688 262.351562 607.605469 261.886719 607.738281 C 261.425781 607.871094 260.953125 607.960938 260.472656 608 C 259.992188 608.042969 259.515625 608.039062 259.035156 607.988281 C 258.554688 607.9375 258.085938 607.84375 257.625 607.703125 C 257.164062 607.5625 256.722656 607.378906 256.296875 607.152344 C 255.871094 606.925781 255.46875 606.664062 255.09375 606.359375 C 254.722656 606.058594 254.378906 605.722656 254.070312 605.351562 C 253.757812 604.984375 253.484375 604.589844 253.253906 604.167969 C 253.019531 603.746094 252.824219 603.308594 252.675781 602.847656 C 247.589844 585.089844 238.699219 573.5 219.074219 576.980469 C 209.230469 578.6875 205.523438 585.15625 204.800781 594.773438 C 204.738281 595.246094 204.632812 595.707031 204.480469 596.15625 C 204.332031 596.609375 204.140625 597.042969 203.910156 597.457031 C 203.675781 597.875 203.410156 598.261719 203.101562 598.628906 C 202.796875 598.992188 202.460938 599.324219 202.089844 599.625 C 201.722656 599.921875 201.328125 600.1875 200.910156 600.410156 C 200.488281 600.636719 200.054688 600.820312 199.601562 600.964844 C 199.144531 601.105469 198.683594 601.203125 198.210938 601.257812 C 197.738281 601.3125 197.265625 601.324219 196.792969 601.289062 C 196.316406 601.253906 195.851562 601.171875 195.390625 601.046875 C 194.933594 600.925781 194.488281 600.757812 194.0625 600.550781 C 193.632812 600.34375 193.230469 600.09375 192.847656 599.808594 C 192.46875 599.523438 192.117188 599.207031 191.796875 598.855469 C 191.476562 598.503906 191.191406 598.125 190.945312 597.71875 C 190.695312 597.316406 190.488281 596.890625 190.320312 596.445312 C 190.152344 596 190.027344 595.542969 189.945312 595.074219 C 189.863281 594.605469 189.828125 594.132812 189.835938 593.65625 Z M 189.835938 593.65625 " fill-opacity="1" fill-rule="evenodd"/><path fill="#000000" d="M 253.660156 317.277344 C 263.113281 317.277344 270.527344 327.125 270.265625 339.304688 C 270.003906 351.484375 262.160156 361.332031 252.710938 361.332031 C 243.257812 361.332031 235.84375 351.484375 236.105469 339.304688 C 236.367188 327.125 244.277344 317.277344 253.660156 317.277344 Z M 253.660156 317.277344 " fill-opacity="1" fill-rule="evenodd"/><path fill="#000000" d="M 453.566406 338.058594 C 462.984375 338.058594 470.433594 347.90625 470.171875 360.085938 C 469.910156 372.265625 462.03125 382.113281 452.617188 382.113281 C 443.199219 382.113281 435.75 372.265625 436.011719 360.085938 C 436.273438 347.90625 443.984375 338.058594 453.566406 338.058594 Z M 453.566406 338.058594 " fill-opacity="1" fill-rule="evenodd"/><path fill="#f5cad3" d="M 200.273438 360.546875 C 206.238281 360.042969 212.183594 360.214844 218.113281 361.0625 C 224.039062 361.910156 229.796875 363.414062 235.382812 365.566406 C 235.792969 365.738281 236.179688 365.945312 236.550781 366.191406 C 236.917969 366.4375 237.257812 366.714844 237.574219 367.023438 C 237.886719 367.335938 238.171875 367.675781 238.417969 368.042969 C 238.667969 368.40625 238.878906 368.792969 239.054688 369.199219 C 239.230469 369.609375 239.363281 370.027344 239.457031 370.460938 C 239.550781 370.894531 239.601562 371.332031 239.609375 371.773438 C 239.617188 372.21875 239.582031 372.65625 239.503906 373.09375 C 239.429688 373.527344 239.3125 373.953125 239.152344 374.367188 C 238.992188 374.78125 238.796875 375.175781 238.5625 375.550781 C 238.324219 375.925781 238.058594 376.273438 237.753906 376.597656 C 237.453125 376.917969 237.121094 377.210938 236.761719 377.46875 C 236.402344 377.726562 236.023438 377.949219 235.621094 378.136719 C 235.21875 378.320312 234.800781 378.464844 234.371094 378.570312 C 233.941406 378.675781 233.503906 378.738281 233.0625 378.757812 C 232.621094 378.777344 232.179688 378.753906 231.742188 378.691406 C 231.304688 378.625 230.878906 378.519531 230.460938 378.371094 C 225.839844 376.589844 221.078125 375.34375 216.175781 374.640625 C 211.273438 373.9375 206.355469 373.792969 201.421875 374.203125 C 200.960938 374.265625 200.496094 374.277344 200.035156 374.246094 C 199.570312 374.214844 199.113281 374.136719 198.664062 374.011719 C 198.21875 373.886719 197.789062 373.71875 197.375 373.507812 C 196.960938 373.296875 196.570312 373.042969 196.210938 372.753906 C 195.847656 372.460938 195.515625 372.136719 195.21875 371.78125 C 194.925781 371.421875 194.667969 371.035156 194.449219 370.625 C 194.230469 370.214844 194.054688 369.789062 193.921875 369.339844 C 193.792969 368.894531 193.707031 368.441406 193.667969 367.976562 C 193.628906 367.515625 193.636719 367.050781 193.691406 366.589844 C 193.746094 366.128906 193.847656 365.675781 193.996094 365.234375 C 194.140625 364.792969 194.332031 364.371094 194.5625 363.96875 C 194.796875 363.566406 195.066406 363.191406 195.375 362.84375 C 195.683594 362.496094 196.023438 362.183594 196.398438 361.90625 C 196.769531 361.625 197.167969 361.390625 197.585938 361.191406 C 198.007812 360.992188 198.445312 360.839844 198.898438 360.730469 C 199.347656 360.621094 199.808594 360.5625 200.273438 360.546875 Z M 456.816406 384.378906 C 469.199219 382.664062 481.578125 382.664062 493.960938 384.378906 C 494.410156 384.441406 494.84375 384.546875 495.269531 384.691406 C 495.695312 384.839844 496.101562 385.027344 496.492188 385.257812 C 496.878906 385.484375 497.242188 385.75 497.578125 386.050781 C 497.917969 386.351562 498.222656 386.679688 498.492188 387.039062 C 498.765625 387.398438 499 387.78125 499.195312 388.1875 C 499.390625 388.59375 499.546875 389.015625 499.660156 389.453125 C 499.773438 389.886719 499.839844 390.332031 499.867188 390.78125 C 499.894531 391.230469 499.875 391.679688 499.8125 392.125 C 499.75 392.574219 499.644531 393.007812 499.496094 393.433594 C 499.347656 393.859375 499.160156 394.269531 498.929688 394.65625 C 498.699219 395.046875 498.4375 395.40625 498.136719 395.746094 C 497.835938 396.082031 497.507812 396.382812 497.144531 396.65625 C 496.785156 396.925781 496.402344 397.160156 495.996094 397.355469 C 495.589844 397.550781 495.167969 397.707031 494.734375 397.820312 C 494.296875 397.933594 493.851562 398 493.402344 398.027344 C 492.953125 398.050781 492.503906 398.03125 492.058594 397.96875 C 480.945312 396.417969 469.832031 396.417969 458.71875 397.96875 C 458.273438 398.03125 457.824219 398.046875 457.375 398.023438 C 456.925781 397.996094 456.484375 397.925781 456.050781 397.8125 C 455.613281 397.699219 455.195312 397.546875 454.789062 397.347656 C 454.382812 397.152344 454 396.917969 453.640625 396.648438 C 453.285156 396.375 452.953125 396.074219 452.65625 395.738281 C 452.355469 395.402344 452.09375 395.039062 451.863281 394.648438 C 451.636719 394.261719 451.449219 393.855469 451.300781 393.429688 C 451.152344 393.003906 451.046875 392.570312 450.984375 392.125 C 450.921875 391.679688 450.902344 391.230469 450.929688 390.78125 C 450.953125 390.332031 451.023438 389.890625 451.136719 389.453125 C 451.25 389.019531 451.402344 388.597656 451.597656 388.191406 C 451.792969 387.785156 452.027344 387.402344 452.296875 387.042969 C 452.570312 386.683594 452.871094 386.355469 453.207031 386.054688 C 453.542969 385.753906 453.902344 385.492188 454.292969 385.261719 C 454.679688 385.035156 455.085938 384.84375 455.511719 384.695312 C 455.933594 384.546875 456.371094 384.441406 456.816406 384.378906 Z M 456.816406 384.378906 " fill-opacity="1" fill-rule="evenodd"/></svg>