<svg xmlns="http://www.w3.org/2000/svg" xmlns:xlink="http://www.w3.org/1999/xlink" width="1000" zoomAndPan="magnify" viewBox="0 0 750 749.999995" height="1000" preserveAspectRatio="xMidYMid meet" version="1.0"><path fill="#000000" d="M 683.453125 246.117188 C 722.878906 305.5625 750.132812 373.496094 745.09375 446.046875 C 737.996094 548.050781 658.453125 599.832031 570.425781 628.261719 C 570.941406 629.644531 571.289062 631.066406 571.472656 632.53125 C 571.652344 633.996094 571.660156 635.460938 571.496094 636.929688 C 571.332031 638.394531 571 639.824219 570.5 641.210938 C 570 642.601562 569.34375 643.910156 568.535156 645.144531 C 548.476562 676.757812 518.300781 685.382812 486.539062 664.121094 C 485.398438 663.382812 484.347656 662.53125 483.390625 661.566406 C 482.433594 660.601562 481.59375 659.542969 480.867188 658.394531 C 480.140625 657.246094 479.542969 656.03125 479.082031 654.753906 C 478.617188 653.476562 478.296875 652.164062 478.117188 650.816406 L 464.855469 653.105469 C 436.804688 657.75 406.960938 661.898438 376.492188 664.21875 C 376.550781 665.699219 376.460938 667.167969 376.226562 668.632812 C 376.226562 669.261719 375.996094 669.890625 375.863281 670.488281 C 375.226562 673.691406 373.835938 676.523438 371.683594 678.980469 C 346.71875 708.371094 315.714844 707.90625 291.578125 677.851562 C 290.046875 675.996094 288.90625 673.917969 288.164062 671.628906 C 287.417969 669.335938 287.121094 666.988281 287.269531 664.582031 C 241.546875 660.867188 197.246094 650.1875 158.652344 628.09375 C 64.222656 573.925781 53.148438 465.382812 65.25 367.394531 L 64.15625 367.394531 C 47.3125 366.863281 30.339844 361.921875 17.738281 350.109375 C 16.292969 348.75 14.925781 347.308594 13.644531 345.789062 C 12.363281 344.269531 11.175781 342.679688 10.074219 341.023438 C 8.976562 339.367188 7.976562 337.652344 7.074219 335.878906 C 6.175781 334.105469 5.378906 332.289062 4.683594 330.425781 C 3.992188 328.5625 3.410156 326.664062 2.9375 324.734375 C 2.460938 322.800781 2.101562 320.851562 1.851562 318.878906 C 1.601562 316.90625 1.46875 314.925781 1.445312 312.9375 C 1.425781 310.949219 1.515625 308.964844 1.722656 306.988281 C 6.101562 258.089844 48.144531 246.679688 90.550781 247.277344 C 104.839844 247.542969 121.519531 233.078125 131.101562 223.792969 L 134.050781 220.9375 C 132.0625 218.765625 130.648438 216.265625 129.808594 213.441406 C 121.851562 187.566406 120.191406 160.367188 131.632812 135.121094 C 136.007812 125.46875 142.273438 116.28125 152.15625 111.601562 C 153.441406 111.027344 154.757812 110.539062 156.105469 110.136719 C 157.453125 109.734375 158.820312 109.417969 160.207031 109.191406 C 161.597656 108.964844 162.992188 108.828125 164.398438 108.78125 C 165.804688 108.734375 167.210938 108.777344 168.609375 108.910156 C 170.011719 109.046875 171.394531 109.269531 172.765625 109.582031 C 174.140625 109.898438 175.484375 110.296875 176.804688 110.785156 C 178.125 111.273438 179.40625 111.84375 180.652344 112.496094 C 181.898438 113.148438 183.097656 113.878906 184.25 114.6875 C 197.84375 123.3125 212.335938 130.410156 226.589844 137.910156 C 228.222656 138.734375 229.703125 139.769531 231.039062 141.015625 C 232.375 142.261719 233.511719 143.671875 234.449219 145.238281 C 249.382812 136.734375 264.886719 129.457031 280.96875 123.402344 C 297.050781 117.351562 313.507812 112.597656 330.339844 109.148438 C 350.453125 105.015625 370.773438 102.632812 391.300781 102.003906 C 411.828125 101.375 432.253906 102.507812 452.585938 105.398438 C 453.132812 102.378906 454.335938 99.644531 456.199219 97.207031 C 464.324219 86.359375 471.882812 74.816406 480.535156 64.433594 C 488.527344 54.878906 498.671875 46.121094 511.371094 44.164062 C 524.636719 42.140625 536.074219 47.980469 544.527344 57.730469 C 563.59375 79.328125 571.519531 107.488281 573.707031 135.71875 C 574.023438 139.382812 573.347656 142.855469 571.683594 146.136719 C 573.34375 147.03125 575 147.960938 576.691406 148.921875 C 577.988281 149.722656 579.328125 150.4375 580.71875 151.066406 C 582.105469 151.695312 583.527344 152.234375 584.984375 152.679688 C 586.441406 153.128906 587.921875 153.480469 589.421875 153.734375 C 590.925781 153.992188 592.4375 154.152344 593.960938 154.214844 C 595.484375 154.277344 597.003906 154.242188 598.523438 154.109375 C 600.039062 153.972656 601.542969 153.746094 603.03125 153.417969 C 604.519531 153.09375 605.980469 152.671875 607.417969 152.160156 C 608.851562 151.644531 610.246094 151.042969 611.605469 150.347656 C 634.449219 139.101562 659.351562 131.042969 684.550781 139.269531 C 704.011719 145.570312 717.042969 163.351562 720.457031 183.15625 C 720.890625 185.554688 721.171875 187.972656 721.292969 190.410156 C 721.414062 192.84375 721.378906 195.277344 721.1875 197.707031 C 720.996094 200.140625 720.648438 202.546875 720.144531 204.933594 C 719.640625 207.320312 718.984375 209.664062 718.179688 211.964844 C 717.375 214.265625 716.425781 216.507812 715.328125 218.6875 C 714.234375 220.863281 713.003906 222.964844 711.636719 224.984375 C 710.269531 227.003906 708.78125 228.925781 707.164062 230.753906 C 705.550781 232.578125 703.824219 234.296875 701.988281 235.898438 C 696.496094 240.550781 690.316406 243.953125 683.453125 246.117188 Z M 683.453125 246.117188 " fill-opacity="1" fill-rule="evenodd"/><path fill="#ffffff" d="M 567.175781 165.707031 C 494.230469 124.308594 417.007812 111.667969 334.085938 128.054688 C 270.226562 140.726562 207.226562 177.117188 144.660156 237.65625 C 126.988281 254.808594 108.71875 266.914062 90.382812 266.582031 C 48.707031 265.886719 24.070312 276.867188 21.121094 308.578125 C 19.199219 329.941406 35.210938 346.992188 64.65625 347.921875 C 82.160156 348.484375 95.226562 335.878906 104.773438 321.714844 C 105.324219 320.9375 105.972656 320.253906 106.714844 319.660156 C 107.460938 319.070312 108.273438 318.59375 109.15625 318.238281 C 110.039062 317.878906 110.953125 317.652344 111.898438 317.554688 C 112.847656 317.460938 113.789062 317.5 114.722656 317.675781 C 115.660156 317.847656 116.550781 318.152344 117.398438 318.582031 C 118.25 319.011719 119.019531 319.554688 119.710938 320.207031 C 120.40625 320.859375 120.992188 321.59375 121.476562 322.417969 C 121.957031 323.238281 122.316406 324.109375 122.546875 325.03125 C 122.652344 325.96875 122.636719 326.90625 122.503906 327.839844 C 122.371094 328.773438 122.125 329.675781 121.761719 330.546875 C 121.398438 331.414062 120.933594 332.226562 120.363281 332.980469 C 119.796875 333.730469 119.140625 334.398438 118.402344 334.984375 C 108.382812 345.046875 97.328125 353.804688 85.246094 361.257812 C 68.046875 486.25 95.679688 569.46875 168.136719 610.910156 C 239.089844 651.613281 335.976562 654.464844 461.605469 633.632812 C 629.375 605.835938 718.535156 547.617188 725.730469 444.550781 C 730.074219 381.757812 708.652344 316.804688 662.730469 249.832031 C 639.523438 246.515625 622.644531 239.878906 611.503906 230.558594 C 610.839844 230.074219 610.242188 229.511719 609.714844 228.878906 C 609.1875 228.246094 608.746094 227.554688 608.390625 226.8125 C 608.035156 226.066406 607.773438 225.289062 607.613281 224.480469 C 607.449219 223.671875 607.386719 222.855469 607.425781 222.035156 C 607.496094 221.207031 607.675781 220.402344 607.960938 219.621094 C 608.246094 218.84375 608.628906 218.113281 609.113281 217.4375 C 609.59375 216.761719 610.15625 216.160156 610.796875 215.632812 C 611.4375 215.109375 612.140625 214.675781 612.898438 214.335938 C 613.667969 214.042969 614.460938 213.84375 615.277344 213.738281 C 616.09375 213.632812 616.910156 213.625 617.730469 213.714844 C 618.550781 213.804688 619.34375 213.988281 620.121094 214.265625 C 620.894531 214.546875 621.625 214.914062 622.3125 215.367188 C 651.457031 231.953125 674.335938 233.742188 689.457031 220.871094 C 690.648438 219.820312 691.769531 218.691406 692.816406 217.496094 C 693.863281 216.296875 694.828125 215.039062 695.714844 213.71875 C 696.601562 212.394531 697.398438 211.023438 698.109375 209.597656 C 698.820312 208.175781 699.433594 206.710938 699.957031 205.210938 C 700.480469 203.707031 700.902344 202.175781 701.226562 200.617188 C 701.554688 199.0625 701.777344 197.488281 701.902344 195.902344 C 702.027344 194.316406 702.046875 192.726562 701.96875 191.140625 C 701.890625 189.550781 701.707031 187.972656 701.425781 186.40625 C 699.238281 173.535156 691.015625 161.660156 678.582031 157.613281 C 660.410156 151.675781 641.214844 157.28125 620.125 167.566406 C 618.0625 168.609375 615.941406 169.519531 613.765625 170.292969 C 611.585938 171.070312 609.367188 171.707031 607.109375 172.203125 C 604.851562 172.695312 602.570312 173.046875 600.269531 173.253906 C 597.964844 173.460938 595.660156 173.519531 593.347656 173.4375 C 591.039062 173.351562 588.742188 173.121094 586.460938 172.746094 C 584.179688 172.367188 581.929688 171.851562 579.714844 171.191406 C 577.5 170.53125 575.332031 169.734375 573.21875 168.796875 C 571.105469 167.863281 569.054688 166.800781 567.074219 165.605469 Z M 567.175781 165.707031 " fill-opacity="1" fill-rule="evenodd"/><path fill="#cccccc" d="M 567.175781 165.707031 C 552.328125 157.160156 536.921875 149.777344 520.960938 143.554688 C 505 137.332031 488.664062 132.34375 471.949219 128.585938 C 470.019531 130.601562 468.144531 132.660156 466.316406 134.765625 C 464.488281 136.871094 462.714844 139.019531 460.992188 141.210938 C 459.269531 143.402344 457.601562 145.636719 455.988281 147.910156 C 454.378906 150.1875 452.820312 152.5 451.324219 154.847656 C 449.824219 157.199219 448.382812 159.585938 447 162.007812 C 445.621094 164.429688 444.296875 166.882812 443.035156 169.371094 C 441.777344 171.855469 440.574219 174.371094 439.4375 176.917969 C 438.300781 179.460938 437.226562 182.035156 436.214844 184.632812 C 435.203125 187.230469 434.253906 189.851562 433.371094 192.496094 C 432.488281 195.140625 431.671875 197.804688 430.917969 200.492188 C 430.164062 203.175781 429.480469 205.878906 428.859375 208.597656 C 428.242188 211.316406 427.6875 214.046875 427.203125 216.792969 C 426.714844 219.539062 426.296875 222.292969 425.949219 225.058594 C 425.597656 227.828125 425.316406 230.601562 425.101562 233.378906 C 424.886719 236.160156 424.742188 238.945312 424.664062 241.730469 C 424.585938 244.519531 424.574219 247.304688 424.636719 250.09375 C 424.695312 252.882812 424.820312 255.664062 425.015625 258.449219 C 425.214844 261.230469 425.476562 264.003906 425.808594 266.773438 C 426.140625 269.539062 426.539062 272.300781 427.007812 275.046875 C 427.476562 277.796875 428.007812 280.53125 428.609375 283.253906 C 429.210938 285.976562 429.878906 288.683594 430.613281 291.375 C 431.347656 294.0625 432.148438 296.734375 433.015625 299.386719 C 433.878906 302.035156 434.808594 304.664062 435.804688 307.269531 C 436.796875 309.871094 437.855469 312.453125 438.976562 315.003906 C 440.097656 317.558594 441.28125 320.082031 442.523438 322.578125 C 443.769531 325.070312 445.074219 327.535156 446.441406 329.964844 C 447.804688 332.394531 449.230469 334.789062 450.714844 337.152344 C 452.199219 339.511719 453.738281 341.835938 455.335938 344.121094 C 456.933594 346.40625 458.585938 348.648438 460.292969 350.855469 C 462 353.058594 463.757812 355.21875 465.574219 357.335938 C 467.386719 359.453125 469.25 361.523438 471.164062 363.550781 C 473.078125 365.578125 475.042969 367.554688 477.054688 369.484375 C 479.066406 371.414062 481.125 373.292969 483.230469 375.121094 C 485.335938 376.949219 487.480469 378.722656 489.671875 380.445312 C 491.863281 382.171875 494.097656 383.839844 496.371094 385.453125 C 498.644531 387.0625 500.957031 388.621094 503.304688 390.121094 C 505.65625 391.621094 508.039062 393.0625 510.460938 394.445312 C 512.878906 395.824219 515.332031 397.148438 517.820312 398.410156 C 520.304688 399.671875 522.820312 400.871094 525.363281 402.011719 C 527.90625 403.148438 530.476562 404.226562 533.074219 405.238281 C 535.671875 406.25 538.292969 407.195312 540.933594 408.082031 C 543.578125 408.964844 546.242188 409.78125 548.925781 410.535156 C 551.609375 411.289062 554.308594 411.972656 557.027344 412.59375 C 559.742188 413.214844 562.476562 413.765625 565.21875 414.253906 C 567.964844 414.738281 570.71875 415.15625 573.484375 415.507812 C 576.25 415.859375 579.019531 416.140625 581.796875 416.355469 C 584.578125 416.570312 587.359375 416.714844 590.144531 416.792969 C 592.933594 416.871094 595.71875 416.878906 598.503906 416.820312 C 601.289062 416.761719 604.074219 416.632812 606.855469 416.4375 C 609.632812 416.242188 612.40625 415.980469 615.175781 415.648438 C 617.941406 415.316406 620.699219 414.914062 623.449219 414.445312 C 626.195312 413.980469 628.929688 413.445312 631.652344 412.84375 C 634.371094 412.242188 637.078125 411.574219 639.765625 410.839844 C 642.453125 410.105469 645.125 409.304688 647.773438 408.4375 C 650.421875 407.570312 653.046875 406.640625 655.652344 405.648438 C 658.253906 404.652344 660.832031 403.59375 663.386719 402.472656 C 665.9375 401.351562 668.460938 400.167969 670.953125 398.921875 C 673.445312 397.675781 675.90625 396.371094 678.335938 395.003906 C 680.765625 393.636719 683.160156 392.214844 685.519531 390.730469 C 687.878906 389.246094 690.203125 387.703125 692.488281 386.105469 C 694.769531 384.507812 697.015625 382.855469 699.21875 381.148438 C 701.417969 379.4375 703.578125 377.679688 705.695312 375.863281 C 707.8125 374.050781 709.882812 372.183594 711.90625 370.269531 C 713.933594 368.351562 715.910156 366.386719 717.839844 364.375 C 707.890625 326.980469 689.566406 288.898438 662.863281 250.128906 C 639.65625 246.8125 622.777344 240.179688 611.636719 230.855469 C 610.972656 230.371094 610.375 229.8125 609.847656 229.175781 C 609.320312 228.542969 608.878906 227.855469 608.523438 227.109375 C 608.167969 226.367188 607.90625 225.589844 607.746094 224.78125 C 607.582031 223.972656 607.519531 223.15625 607.558594 222.332031 C 607.632812 221.503906 607.8125 220.699219 608.097656 219.917969 C 608.386719 219.136719 608.769531 218.40625 609.25 217.726562 C 609.730469 217.046875 610.292969 216.441406 610.933594 215.914062 C 611.574219 215.382812 612.273438 214.945312 613.03125 214.601562 C 613.800781 214.316406 614.597656 214.121094 615.414062 214.023438 C 616.230469 213.921875 617.046875 213.917969 617.863281 214.011719 C 618.683594 214.105469 619.480469 214.289062 620.253906 214.570312 C 621.027344 214.847656 621.757812 215.214844 622.445312 215.664062 C 651.589844 232.25 674.46875 234.042969 689.589844 221.171875 C 690.785156 220.105469 691.910156 218.96875 692.960938 217.761719 C 694.011719 216.550781 694.980469 215.277344 695.867188 213.945312 C 696.753906 212.609375 697.554688 211.222656 698.261719 209.785156 C 698.96875 208.347656 699.578125 206.871094 700.097656 205.351562 C 700.613281 203.835938 701.03125 202.292969 701.347656 200.71875 C 701.664062 199.148438 701.878906 197.566406 701.992188 195.964844 C 702.101562 194.367188 702.113281 192.769531 702.015625 191.167969 C 701.921875 189.566406 701.726562 187.980469 701.425781 186.40625 C 699.238281 173.535156 690.980469 161.660156 678.582031 157.613281 C 660.410156 151.675781 641.214844 157.28125 620.125 167.566406 C 618.0625 168.609375 615.941406 169.519531 613.765625 170.292969 C 611.585938 171.070312 609.367188 171.707031 607.109375 172.203125 C 604.851562 172.695312 602.570312 173.046875 600.269531 173.253906 C 597.964844 173.460938 595.660156 173.519531 593.347656 173.4375 C 591.039062 173.351562 588.742188 173.121094 586.460938 172.746094 C 584.179688 172.367188 581.929688 171.851562 579.714844 171.191406 C 577.5 170.53125 575.332031 169.734375 573.21875 168.796875 C 571.105469 167.863281 569.054688 166.800781 567.074219 165.605469 Z M 567.175781 165.707031 " fill-opacity="1" fill-rule="evenodd"/><path fill="#aba9aa" d="M 567.175781 165.707031 C 560.84375 162.089844 554.441406 158.707031 548.042969 155.554688 C 510.578125 239.171875 550.066406 272.53125 666.511719 255.636719 C 665.285156 253.777344 664.023438 251.953125 662.765625 250.128906 C 639.554688 246.8125 622.679688 240.179688 611.539062 230.855469 C 610.871094 230.371094 610.273438 229.8125 609.746094 229.175781 C 609.21875 228.542969 608.777344 227.855469 608.421875 227.109375 C 608.066406 226.367188 607.808594 225.589844 607.644531 224.78125 C 607.480469 223.972656 607.421875 223.15625 607.460938 222.332031 C 607.53125 221.503906 607.707031 220.699219 607.996094 219.921875 C 608.28125 219.140625 608.664062 218.414062 609.144531 217.738281 C 609.625 217.058594 610.1875 216.457031 610.832031 215.933594 C 611.472656 215.40625 612.171875 214.972656 612.929688 214.636719 C 613.699219 214.339844 614.492188 214.140625 615.308594 214.035156 C 616.125 213.929688 616.945312 213.921875 617.761719 214.011719 C 618.582031 214.101562 619.378906 214.285156 620.152344 214.566406 C 620.929688 214.84375 621.660156 215.210938 622.347656 215.664062 C 651.492188 232.25 674.371094 234.042969 689.488281 221.171875 C 690.691406 220.109375 691.820312 218.976562 692.875 217.765625 C 693.933594 216.558594 694.90625 215.289062 695.796875 213.957031 C 696.6875 212.621094 697.488281 211.238281 698.203125 209.800781 C 698.914062 208.363281 699.53125 206.882812 700.050781 205.367188 C 700.570312 203.851562 700.992188 202.304688 701.3125 200.734375 C 701.636719 199.160156 701.855469 197.578125 701.96875 195.976562 C 702.085938 194.375 702.097656 192.773438 702.007812 191.171875 C 701.917969 189.570312 701.722656 187.984375 701.425781 186.40625 C 699.238281 173.535156 690.980469 161.660156 678.582031 157.613281 C 660.410156 151.675781 641.214844 157.28125 620.125 167.566406 C 618.0625 168.609375 615.941406 169.519531 613.765625 170.292969 C 611.585938 171.070312 609.367188 171.707031 607.109375 172.203125 C 604.851562 172.695312 602.570312 173.046875 600.269531 173.253906 C 597.964844 173.460938 595.660156 173.519531 593.347656 173.4375 C 591.039062 173.351562 588.742188 173.121094 586.460938 172.746094 C 584.179688 172.367188 581.929688 171.851562 579.714844 171.191406 C 577.5 170.53125 575.332031 169.734375 573.21875 168.796875 C 571.105469 167.863281 569.054688 166.800781 567.074219 165.605469 Z M 567.175781 165.707031 " fill-opacity="1" fill-rule="evenodd"/><path fill="#aba9aa" d="M 310.476562 133.828125 C 258.265625 148.976562 206.609375 180.171875 155.503906 227.40625 C 191.511719 280.183594 258.289062 250.261719 248.34375 208.730469 C 277.15625 217.289062 327.554688 220.441406 321.949219 168.160156 C 322.097656 165.070312 321.960938 161.988281 321.539062 158.921875 C 321.113281 155.855469 320.414062 152.855469 319.429688 149.917969 C 318.449219 146.984375 317.207031 144.164062 315.703125 141.457031 C 314.195312 138.753906 312.457031 136.210938 310.476562 133.828125 Z M 310.476562 133.828125 " fill-opacity="1" fill-rule="evenodd"/><path fill="#cccccc" d="M 81.863281 460.011719 C 84.714844 492.453125 92.230469 520.574219 104.410156 544.367188 C 138.761719 591.804688 175.265625 590.578125 208.023438 536.902344 C 237.003906 489.433594 233.621094 450.125 197.480469 437.386719 C 171.683594 428.296875 150.296875 442.265625 137.203125 463.527344 C 122.878906 437.078125 104.433594 435.90625 81.863281 460.011719 Z M 81.863281 460.011719 " fill-opacity="1" fill-rule="evenodd"/><path fill="#fcc25e" d="M 217.90625 154.925781 C 193.15625 170.511719 169.945312 188.125 148.277344 207.769531 C 140.914062 183.089844 140.914062 161.425781 149.335938 143.28125 C 156.199219 128.089844 164.125 124.707031 174.070312 131.007812 C 188.394531 140.097656 203.382812 147.59375 217.871094 154.925781 Z M 217.90625 154.925781 " fill-opacity="1" fill-rule="evenodd"/><path fill="#ffffff" d="M 306.699219 665.613281 C 323.253906 686.179688 340.054688 686.421875 357.09375 666.34375 L 357.292969 665.28125 C 340.382812 666.109375 323.441406 666.277344 306.699219 665.613281 Z M 306.699219 665.613281 " fill-opacity="1" fill-rule="evenodd"/><path fill="#ffffff" d="M 497.28125 648.195312 C 519.074219 662.792969 537.402344 658.371094 552.253906 634.929688 L 551.789062 634.03125 C 533.585938 639.207031 515.316406 643.488281 497.28125 647.070312 C 497.246094 647.445312 497.246094 647.820312 497.28125 648.195312 Z M 497.28125 648.195312 " fill-opacity="1" fill-rule="evenodd"/><path fill="#fcc25e" d="M 554.476562 137.210938 C 528.03125 124.269531 500.402344 114.78125 471.585938 108.75 C 480.535156 96.773438 487.863281 85.53125 495.292969 76.804688 C 509.21875 60.21875 520.324219 59.390625 530.140625 70.503906 C 543.003906 85.097656 552.121094 106.394531 554.542969 137.210938 Z M 554.476562 137.210938 " fill-opacity="1" fill-rule="evenodd"/><path fill="#000000" d="M 277.289062 565.265625 C 278.085938 566.695312 278.988281 568.054688 279.992188 569.347656 C 280.996094 570.636719 282.09375 571.847656 283.28125 572.972656 C 284.464844 574.097656 285.730469 575.128906 287.074219 576.0625 C 288.417969 576.996094 289.824219 577.824219 291.292969 578.546875 C 292.757812 579.265625 294.273438 579.875 295.832031 580.367188 C 297.394531 580.859375 298.980469 581.230469 300.597656 581.480469 C 302.214844 581.734375 303.839844 581.863281 305.476562 581.867188 C 307.109375 581.875 308.738281 581.753906 310.355469 581.515625 C 311.972656 581.273438 313.566406 580.914062 315.128906 580.433594 C 316.691406 579.949219 318.210938 579.355469 319.683594 578.640625 C 321.15625 577.929688 322.566406 577.113281 323.914062 576.1875 C 325.265625 575.261719 326.539062 574.242188 327.730469 573.125 C 328.925781 572.007812 330.03125 570.804688 331.042969 569.519531 C 332.058594 568.234375 332.96875 566.882812 333.777344 565.460938 C 334.585938 564.035156 335.28125 562.5625 335.867188 561.035156 C 336.453125 559.503906 336.917969 557.941406 337.269531 556.34375 C 337.398438 555.847656 337.574219 555.367188 337.796875 554.902344 C 338.019531 554.4375 338.285156 554 338.589844 553.585938 C 338.894531 553.171875 339.238281 552.792969 339.617188 552.445312 C 339.996094 552.097656 340.402344 551.789062 340.839844 551.519531 C 341.277344 551.246094 341.734375 551.019531 342.214844 550.839844 C 342.695312 550.65625 343.191406 550.519531 343.695312 550.429688 C 344.203125 550.34375 344.710938 550.300781 345.226562 550.3125 C 345.738281 550.320312 346.25 550.375 346.75 550.480469 C 347.253906 550.585938 347.742188 550.738281 348.214844 550.9375 C 348.691406 551.136719 349.140625 551.378906 349.570312 551.664062 C 349.996094 551.949219 350.394531 552.269531 350.761719 552.628906 C 351.128906 552.992188 351.457031 553.382812 351.75 553.804688 C 352.042969 554.230469 352.289062 554.675781 352.496094 555.148438 C 352.703125 555.617188 352.863281 556.101562 352.980469 556.605469 C 353.09375 557.105469 353.160156 557.613281 353.175781 558.128906 C 353.195312 558.640625 353.164062 559.152344 353.082031 559.660156 C 352.558594 562.054688 351.855469 564.398438 350.972656 566.6875 C 350.09375 568.976562 349.046875 571.1875 347.832031 573.316406 C 346.617188 575.449219 345.25 577.476562 343.730469 579.398438 C 342.207031 581.324219 340.550781 583.121094 338.757812 584.792969 C 336.964844 586.46875 335.058594 587.996094 333.035156 589.378906 C 331.007812 590.761719 328.894531 591.988281 326.683594 593.050781 C 324.472656 594.113281 322.199219 595.003906 319.855469 595.722656 C 317.511719 596.441406 315.125 596.980469 312.699219 597.339844 C 310.273438 597.695312 307.835938 597.871094 305.382812 597.859375 C 302.933594 597.847656 300.496094 597.652344 298.074219 597.273438 C 295.652344 596.890625 293.273438 596.332031 290.933594 595.589844 C 288.597656 594.851562 286.328125 593.9375 284.128906 592.855469 C 281.929688 591.769531 279.824219 590.527344 277.816406 589.125 C 275.804688 587.722656 273.910156 586.175781 272.132812 584.488281 C 270.355469 582.800781 268.714844 580.984375 267.210938 579.046875 C 265.707031 577.109375 264.359375 575.070312 263.164062 572.929688 C 262.902344 572.464844 262.691406 571.980469 262.523438 571.472656 C 262.359375 570.96875 262.246094 570.449219 262.183594 569.921875 C 262.117188 569.394531 262.109375 568.863281 262.148438 568.335938 C 262.191406 567.804688 262.28125 567.28125 262.425781 566.769531 C 262.570312 566.257812 262.761719 565.765625 263.003906 565.289062 C 263.246094 564.816406 263.53125 564.367188 263.859375 563.949219 C 264.1875 563.53125 264.554688 563.148438 264.957031 562.804688 C 265.363281 562.457031 265.796875 562.15625 266.261719 561.894531 C 266.722656 561.632812 267.210938 561.421875 267.714844 561.257812 C 268.222656 561.089844 268.738281 560.976562 269.265625 560.914062 C 269.792969 560.851562 270.324219 560.839844 270.855469 560.882812 C 271.382812 560.925781 271.90625 561.015625 272.417969 561.160156 C 272.929688 561.304688 273.421875 561.5 273.898438 561.738281 C 274.371094 561.980469 274.816406 562.265625 275.234375 562.597656 C 275.652344 562.925781 276.035156 563.292969 276.378906 563.699219 C 276.726562 564.101562 277.027344 564.535156 277.289062 565 Z M 501.789062 529.804688 C 502.71875 531.148438 503.742188 532.421875 504.855469 533.617188 C 505.96875 534.8125 507.164062 535.917969 508.441406 536.9375 C 509.71875 537.960938 511.0625 538.882812 512.472656 539.703125 C 513.882812 540.527344 515.347656 541.246094 516.863281 541.855469 C 518.378906 542.460938 519.933594 542.957031 521.523438 543.339844 C 523.109375 543.722656 524.71875 543.984375 526.34375 544.132812 C 527.972656 544.277344 529.601562 544.304688 531.234375 544.214844 C 532.863281 544.121094 534.480469 543.910156 536.082031 543.582031 C 537.679688 543.253906 539.25 542.808594 540.785156 542.25 C 542.320312 541.691406 543.808594 541.023438 545.246094 540.25 C 546.683594 539.472656 548.054688 538.597656 549.367188 537.617188 C 550.675781 536.640625 551.90625 535.574219 553.0625 534.414062 C 554.214844 533.257812 555.277344 532.023438 556.25 530.710938 C 557.222656 529.394531 558.09375 528.019531 558.867188 526.578125 C 559.636719 525.136719 560.300781 523.648438 560.851562 522.109375 C 561.40625 520.570312 561.84375 519 562.167969 517.398438 C 562.277344 516.878906 562.4375 516.375 562.648438 515.882812 C 562.855469 515.394531 563.109375 514.929688 563.410156 514.492188 C 563.710938 514.050781 564.050781 513.644531 564.433594 513.273438 C 564.8125 512.902344 565.226562 512.570312 565.671875 512.277344 C 566.117188 511.988281 566.585938 511.742188 567.078125 511.542969 C 567.570312 511.347656 568.082031 511.199219 568.601562 511.097656 C 569.125 511 569.652344 510.953125 570.183594 510.957031 C 570.714844 510.964844 571.242188 511.019531 571.761719 511.128906 C 572.285156 511.238281 572.789062 511.398438 573.277344 511.605469 C 573.769531 511.8125 574.234375 512.066406 574.671875 512.367188 C 575.113281 512.667969 575.519531 513.003906 575.890625 513.386719 C 576.265625 513.765625 576.597656 514.175781 576.886719 514.621094 C 577.179688 515.066406 577.425781 515.535156 577.625 516.03125 C 577.824219 516.523438 577.976562 517.03125 578.074219 517.554688 C 578.175781 518.078125 578.222656 518.605469 578.21875 519.136719 C 578.214844 519.667969 578.15625 520.195312 578.050781 520.714844 C 577.5625 523.085938 576.90625 525.410156 576.078125 527.683594 C 575.253906 529.957031 574.265625 532.160156 573.121094 534.289062 C 571.972656 536.417969 570.675781 538.453125 569.230469 540.394531 C 567.789062 542.335938 566.210938 544.164062 564.5 545.875 C 562.789062 547.585938 560.964844 549.164062 559.023438 550.605469 C 557.082031 552.050781 555.046875 553.347656 552.917969 554.496094 C 550.789062 555.640625 548.585938 556.628906 546.3125 557.453125 C 544.039062 558.28125 541.71875 558.9375 539.351562 559.425781 C 536.980469 559.910156 534.589844 560.222656 532.175781 560.363281 C 529.761719 560.5 527.347656 560.460938 524.9375 560.25 C 522.53125 560.035156 520.148438 559.648438 517.796875 559.085938 C 515.445312 558.523438 513.144531 557.792969 510.898438 556.898438 C 508.652344 556 506.484375 554.945312 504.390625 553.730469 C 502.296875 552.515625 500.304688 551.15625 498.410156 549.652344 C 496.515625 548.148438 494.742188 546.515625 493.085938 544.75 C 491.429688 542.988281 489.910156 541.113281 488.527344 539.125 C 488.273438 538.691406 488.0625 538.234375 487.890625 537.757812 C 487.722656 537.28125 487.597656 536.792969 487.519531 536.296875 C 487.441406 535.796875 487.410156 535.292969 487.429688 534.789062 C 487.445312 534.285156 487.507812 533.785156 487.617188 533.292969 C 487.726562 532.800781 487.878906 532.320312 488.078125 531.855469 C 488.277344 531.390625 488.519531 530.949219 488.800781 530.53125 C 489.082031 530.109375 489.398438 529.722656 489.753906 529.363281 C 490.109375 529.003906 490.492188 528.679688 490.90625 528.390625 C 491.324219 528.101562 491.761719 527.855469 492.222656 527.652344 C 492.683594 527.445312 493.160156 527.285156 493.652344 527.167969 C 494.144531 527.050781 494.640625 526.984375 495.144531 526.960938 C 495.648438 526.9375 496.152344 526.960938 496.652344 527.03125 C 497.152344 527.101562 497.640625 527.21875 498.121094 527.382812 C 498.597656 527.542969 499.054688 527.75 499.496094 528 C 499.933594 528.246094 500.347656 528.535156 500.734375 528.859375 C 501.121094 529.1875 501.472656 529.546875 501.789062 529.9375 Z M 501.789062 529.804688 " fill-opacity="1" fill-rule="evenodd"/><path fill="#f5cad3" d="M 382.957031 294.714844 C 424.867188 292.324219 458.820312 315.179688 458.820312 345.765625 C 458.820312 376.351562 424.867188 403.121094 382.957031 405.476562 C 341.046875 407.832031 307.0625 385.007812 307.0625 354.421875 C 307.0625 323.839844 340.882812 297.101562 382.957031 294.714844 Z M 382.957031 294.714844 " fill-opacity="1" fill-rule="evenodd"/><path fill="#a35f60" d="M 360.011719 323.308594 C 360.464844 323.308594 360.910156 323.355469 361.351562 323.445312 C 361.792969 323.535156 362.21875 323.667969 362.632812 323.84375 C 363.050781 324.015625 363.445312 324.230469 363.816406 324.480469 C 364.191406 324.734375 364.535156 325.019531 364.851562 325.339844 C 365.167969 325.660156 365.453125 326.007812 365.703125 326.382812 C 365.949219 326.757812 366.160156 327.152344 366.332031 327.570312 C 366.5 327.988281 366.628906 328.417969 366.714844 328.859375 C 366.800781 329.300781 366.84375 329.746094 366.84375 330.195312 C 366.84375 330.648438 366.796875 331.09375 366.707031 331.535156 C 366.617188 331.976562 366.488281 332.40625 366.3125 332.820312 C 366.140625 333.234375 365.929688 333.628906 365.675781 334.003906 C 365.425781 334.378906 365.140625 334.722656 364.820312 335.042969 C 364.503906 335.359375 364.15625 335.644531 363.78125 335.890625 C 363.40625 336.140625 363.011719 336.351562 362.59375 336.523438 C 362.175781 336.695312 361.75 336.824219 361.308594 336.910156 C 360.863281 337 360.417969 337.042969 359.96875 337.042969 C 359.519531 337.039062 359.074219 336.996094 358.632812 336.90625 C 358.191406 336.820312 357.761719 336.6875 357.347656 336.515625 C 356.929688 336.34375 356.535156 336.128906 356.160156 335.878906 C 355.789062 335.628906 355.441406 335.34375 355.121094 335.027344 C 354.804688 334.707031 354.519531 334.359375 354.269531 333.984375 C 354.019531 333.613281 353.808594 333.214844 353.636719 332.800781 C 353.464844 332.382812 353.335938 331.953125 353.25 331.511719 C 353.160156 331.070312 353.117188 330.625 353.117188 330.175781 C 353.117188 329.722656 353.160156 329.273438 353.25 328.832031 C 353.335938 328.386719 353.46875 327.957031 353.640625 327.539062 C 353.816406 327.121094 354.027344 326.726562 354.28125 326.347656 C 354.53125 325.972656 354.816406 325.625 355.136719 325.308594 C 355.460938 324.988281 355.808594 324.703125 356.183594 324.453125 C 356.5625 324.203125 356.957031 323.992188 357.375 323.820312 C 357.792969 323.648438 358.226562 323.519531 358.667969 323.433594 C 359.113281 323.347656 359.5625 323.304688 360.011719 323.308594 Z M 360.011719 323.308594 " fill-opacity="1" fill-rule="evenodd"/><path fill="#a35f60" d="M 392.242188 316.507812 C 392.691406 316.503906 393.140625 316.546875 393.582031 316.632812 C 394.027344 316.71875 394.457031 316.847656 394.875 317.019531 C 395.292969 317.191406 395.691406 317.402344 396.066406 317.652344 C 396.441406 317.902344 396.792969 318.183594 397.113281 318.503906 C 397.433594 318.820312 397.71875 319.167969 397.96875 319.542969 C 398.222656 319.917969 398.433594 320.3125 398.609375 320.730469 C 398.78125 321.148438 398.914062 321.578125 399.003906 322.019531 C 399.09375 322.464844 399.136719 322.910156 399.136719 323.363281 C 399.136719 323.816406 399.09375 324.261719 399.007812 324.707031 C 398.921875 325.148438 398.789062 325.578125 398.617188 325.996094 C 398.445312 326.414062 398.234375 326.8125 397.984375 327.1875 C 397.730469 327.5625 397.445312 327.910156 397.128906 328.230469 C 396.808594 328.550781 396.460938 328.835938 396.085938 329.085938 C 395.710938 329.335938 395.3125 329.546875 394.894531 329.71875 C 394.476562 329.894531 394.046875 330.023438 393.605469 330.109375 C 393.164062 330.199219 392.714844 330.242188 392.261719 330.242188 C 391.8125 330.242188 391.363281 330.195312 390.921875 330.105469 C 390.480469 330.015625 390.050781 329.886719 389.632812 329.710938 C 389.214844 329.539062 388.820312 329.324219 388.445312 329.074219 C 388.070312 328.820312 387.722656 328.535156 387.40625 328.214844 C 387.085938 327.894531 386.804688 327.546875 386.554688 327.167969 C 386.304688 326.792969 386.09375 326.394531 385.921875 325.976562 C 385.75 325.558594 385.625 325.128906 385.535156 324.683594 C 385.449219 324.242188 385.410156 323.792969 385.410156 323.339844 C 385.410156 322.890625 385.453125 322.449219 385.542969 322.007812 C 385.628906 321.566406 385.757812 321.140625 385.929688 320.726562 C 386.101562 320.3125 386.3125 319.917969 386.5625 319.542969 C 386.8125 319.171875 387.09375 318.828125 387.410156 318.507812 C 387.730469 318.191406 388.074219 317.910156 388.445312 317.660156 C 388.820312 317.410156 389.214844 317.199219 389.628906 317.027344 C 390.042969 316.855469 390.46875 316.726562 390.910156 316.640625 C 391.347656 316.550781 391.792969 316.507812 392.242188 316.507812 Z M 392.242188 316.507812 " fill-opacity="1" fill-rule="evenodd"/><path fill="#f5cad3" d="M 230.4375 373.929688 C 250.761719 372.535156 267.242188 382.6875 267.242188 396.617188 C 267.242188 410.550781 250.664062 422.957031 230.4375 424.351562 C 210.210938 425.742188 193.601562 415.59375 193.601562 401.660156 C 193.601562 387.730469 210.011719 375.289062 230.4375 373.929688 Z M 230.4375 373.929688 " fill-opacity="1" fill-rule="evenodd"/><path fill="#f5cad3" d="M 550.5625 312.792969 C 529.542969 314.320312 512.53125 326.859375 512.53125 340.789062 C 512.53125 354.722656 529.542969 364.773438 550.5625 363.214844 C 571.585938 361.65625 588.527344 349.117188 588.527344 335.183594 C 588.527344 321.25 571.550781 311.234375 550.5625 312.792969 Z M 550.5625 312.792969 " fill-opacity="1" fill-rule="evenodd"/><path fill="#000000" d="M 272.214844 333.359375 C 284.152344 333.359375 292.707031 345.832031 291.3125 361.257812 C 289.921875 376.683594 279.144531 389.121094 267.207031 389.121094 C 255.273438 389.121094 246.71875 376.648438 248.109375 361.257812 C 249.503906 345.863281 260.277344 333.359375 272.214844 333.359375 Z M 272.214844 333.359375 " fill-opacity="1" fill-rule="evenodd"/><path fill="#000000" d="M 489.390625 295.640625 C 476.921875 295.640625 468.832031 307.121094 471.253906 321.285156 C 473.671875 335.449219 485.777344 346.960938 498.210938 346.960938 C 510.644531 346.960938 518.765625 335.480469 516.3125 321.285156 C 513.859375 307.085938 501.824219 295.640625 489.390625 295.640625 Z M 489.390625 295.640625 " fill-opacity="1" fill-rule="evenodd"/></svg>