<svg xmlns="http://www.w3.org/2000/svg" xmlns:xlink="http://www.w3.org/1999/xlink" width="1000" zoomAndPan="magnify" viewBox="0 0 750 749.999995" height="1000" preserveAspectRatio="xMidYMid meet" version="1.0"><path fill="#000000" d="M 349.359375 636 C 347.089844 636.722656 344.773438 637.242188 342.410156 637.550781 C 340.046875 637.859375 337.675781 637.957031 335.292969 637.839844 C 332.914062 637.722656 330.5625 637.398438 328.238281 636.859375 C 325.917969 636.320312 323.664062 635.578125 321.472656 634.636719 C 315.304688 632.179688 309.855469 628.621094 305.128906 623.957031 L 303.339844 624.707031 C 302.132812 625.222656 300.898438 625.660156 299.632812 626.007812 C 298.367188 626.359375 297.085938 626.621094 295.785156 626.792969 C 294.484375 626.96875 293.175781 627.054688 291.863281 627.050781 C 290.550781 627.046875 289.246094 626.953125 287.945312 626.769531 C 286.644531 626.585938 285.363281 626.316406 284.101562 625.957031 C 282.839844 625.601562 281.605469 625.160156 280.402344 624.632812 C 279.199219 624.105469 278.039062 623.5 276.921875 622.816406 C 275.800781 622.128906 274.734375 621.371094 273.71875 620.542969 L 270.726562 618.21875 C 269.070312 619.21875 267.351562 620.082031 265.5625 620.8125 C 263.773438 621.546875 261.9375 622.136719 260.058594 622.582031 C 258.179688 623.03125 256.273438 623.332031 254.347656 623.484375 C 252.421875 623.636719 250.492188 623.636719 248.566406 623.492188 C 246.640625 623.34375 244.734375 623.050781 242.851562 622.609375 C 240.972656 622.167969 239.136719 621.585938 237.34375 620.859375 C 235.554688 620.132812 233.828125 619.273438 232.171875 618.28125 C 230.511719 617.285156 228.941406 616.171875 227.457031 614.933594 L 205.714844 607.246094 C 147.460938 586.636719 85.871094 554.546875 50.960938 501.550781 C -0.0273438 424.132812 36.324219 333.359375 85.121094 265.097656 C 87.6875 261.539062 90.359375 258.03125 93.136719 254.578125 L 98.71875 226.304688 C 100.402344 217.863281 102.625 209.558594 105.378906 201.402344 C 108.132812 193.242188 111.398438 185.296875 115.179688 177.558594 C 118.957031 169.820312 123.21875 162.355469 127.960938 155.167969 C 132.703125 147.980469 137.886719 141.125 143.507812 134.601562 C 145.164062 132.628906 146.925781 130.753906 148.796875 128.988281 C 150.667969 127.21875 152.636719 125.5625 154.699219 124.023438 C 156.765625 122.484375 158.910156 121.070312 161.140625 119.777344 C 163.371094 118.488281 165.667969 117.332031 168.03125 116.3125 C 170.394531 115.289062 172.808594 114.40625 175.277344 113.667969 C 177.742188 112.925781 180.246094 112.332031 182.78125 111.882812 C 185.316406 111.433594 187.871094 111.132812 190.441406 110.980469 C 193.015625 110.828125 195.585938 110.828125 198.15625 110.976562 C 221.179688 111.9375 243.5625 122.800781 262.257812 135.644531 L 264.929688 137.511719 L 277.75 146.457031 C 307.894531 140.90625 338.253906 139.195312 368.832031 141.328125 C 385.945312 142.523438 402.808594 145.269531 419.417969 149.5625 C 436.027344 153.859375 452.105469 159.628906 467.65625 166.878906 L 491.695312 163.648438 C 516.664062 160.230469 541.746094 158.96875 566.933594 159.855469 C 596.820312 161.003906 612.339844 180.894531 617.683594 208.820312 C 623.550781 237.96875 625.910156 267.394531 624.757812 297.105469 L 623.265625 329.648438 C 626.144531 337.046875 628.714844 344.546875 630.972656 352.15625 C 633.230469 359.765625 635.167969 367.457031 636.785156 375.226562 C 638.40625 382.996094 639.699219 390.816406 640.667969 398.695312 C 641.640625 406.570312 642.28125 414.476562 642.59375 422.40625 C 642.90625 430.335938 642.890625 438.265625 642.542969 446.195312 C 642.199219 454.125 641.527344 462.023438 640.523438 469.898438 C 639.523438 477.769531 638.195312 485.589844 636.546875 493.351562 C 634.894531 501.113281 632.925781 508.796875 630.636719 516.394531 C 627.324219 527.597656 622.945312 538.367188 617.496094 548.699219 C 646.046875 528.167969 654.59375 485.132812 657.746094 451.683594 C 658.359375 418.710938 671.929688 389.183594 708.949219 388.890625 L 710.445312 388.890625 L 711.9375 389.15625 C 732.210938 392.574219 743.695312 407.417969 746.660156 427.175781 C 749.894531 448.183594 743.992188 473.949219 738.113281 494.078125 L 737.875 494.90625 L 737.527344 495.707031 C 724.492188 527.902344 705.476562 559.003906 677.164062 579.855469 C 650.453125 599.503906 619.550781 606.925781 586.59375 604.816406 L 567.894531 603.613281 C 537.3125 624.039062 499.066406 634.371094 457.132812 637.949219 C 427.660156 640.199219 398.199219 640.054688 368.75 637.519531 L 349.199219 635.972656 Z M 349.359375 636 " fill-opacity="1" fill-rule="evenodd"/><path fill="#ffae40" d="M 489.878906 197.6875 C 448.34375 173.152344 408.628906 161.136719 367.761719 158.308594 C 263.890625 151.019531 159.347656 189.996094 98.796875 274.789062 C 36.859375 361.554688 28.367188 436.410156 65.011719 492.046875 C 92.441406 533.667969 141.558594 566.453125 211.246094 591.09375 C 207.613281 580.574219 207.851562 572.40625 210.789062 566.265625 C 211.058594 565.554688 211.425781 564.898438 211.894531 564.300781 C 212.367188 563.703125 212.914062 563.191406 213.542969 562.761719 C 214.171875 562.335938 214.851562 562.011719 215.582031 561.792969 C 216.308594 561.578125 217.054688 561.472656 217.816406 561.488281 C 220.992188 561.753906 224.359375 564.15625 224.039062 567.28125 C 221.367188 592.589844 247.328125 624.226562 273.210938 594.40625 C 277.832031 589.066406 278.285156 583.058594 281.703125 578.386719 C 287.046875 571.179688 295.058594 574.835938 299.679688 583.136719 C 304.300781 577.425781 311.109375 578.386719 310.523438 587.195312 C 309.667969 600.0625 311.378906 611.996094 327.992188 618.886719 C 341.1875 624.226562 353.3125 618.058594 361.457031 605.777344 C 364.558594 601.078125 365.867188 594.699219 367.683594 587.488281 C 367.859375 587.015625 368.078125 586.5625 368.335938 586.125 C 368.59375 585.691406 368.890625 585.285156 369.222656 584.902344 C 369.554688 584.519531 369.917969 584.167969 370.3125 583.851562 C 370.707031 583.535156 371.125 583.253906 371.570312 583.011719 C 372.015625 582.769531 372.480469 582.570312 372.960938 582.410156 C 373.441406 582.25 373.929688 582.136719 374.433594 582.0625 C 374.933594 581.992188 375.4375 581.964844 375.941406 581.984375 C 376.449219 582.003906 376.949219 582.066406 377.445312 582.171875 C 377.9375 582.28125 378.417969 582.429688 378.886719 582.625 C 379.355469 582.820312 379.800781 583.054688 380.226562 583.328125 C 380.652344 583.601562 381.050781 583.910156 381.421875 584.253906 C 381.792969 584.597656 382.128906 584.972656 382.433594 585.378906 C 382.738281 585.785156 383.003906 586.214844 383.230469 586.664062 C 383.457031 587.117188 383.640625 587.585938 383.785156 588.074219 C 383.925781 588.558594 384.027344 589.050781 384.078125 589.554688 C 384.132812 590.058594 384.144531 590.5625 384.109375 591.066406 C 382.816406 596.382812 381.003906 601.511719 378.671875 606.457031 C 376.335938 611.398438 373.527344 616.058594 370.246094 620.433594 C 398.777344 622.917969 427.320312 623.070312 455.875 620.886719 C 542.335938 613.519531 594.605469 577.960938 614.558594 511.429688 C 650.882812 390.332031 598.769531 261.894531 489.878906 197.554688 Z M 489.878906 197.6875 " fill-opacity="1" fill-rule="evenodd"/><path fill="#ffae40" d="M 115.144531 229.429688 C 116.710938 221.707031 118.765625 214.117188 121.308594 206.664062 C 123.855469 199.207031 126.871094 191.945312 130.355469 184.878906 C 133.839844 177.8125 137.765625 170.996094 142.128906 164.4375 C 146.496094 157.878906 151.265625 151.625 156.4375 145.679688 C 177.5625 120.824219 212.527344 122.214844 252.589844 149.765625 L 255.261719 151.582031 C 202.644531 164.929688 153.765625 190.960938 115.089844 229.507812 Z M 115.144531 229.429688 " fill-opacity="1" fill-rule="evenodd"/><path fill="#ffae40" d="M 608.011719 296.359375 C 609.097656 268.003906 606.828125 239.917969 601.203125 212.101562 C 596.714844 188.875 585.738281 177.609375 566.480469 176.863281 C 542.265625 176.003906 518.15625 177.226562 494.152344 180.519531 L 498.558594 183.191406 C 510.027344 189.945312 520.992188 197.441406 531.449219 205.679688 C 541.90625 213.917969 551.757812 222.824219 561.011719 232.394531 C 570.261719 241.960938 578.828125 252.113281 586.707031 262.839844 C 594.582031 273.566406 601.703125 284.777344 608.066406 296.464844 Z M 608.011719 296.359375 " fill-opacity="1" fill-rule="evenodd"/><path fill="#ffffff" d="M 130.074219 552.996094 C 155.730469 568.675781 182.789062 581.375 211.246094 591.09375 C 207.613281 580.574219 207.851562 572.40625 210.789062 566.265625 C 211.058594 565.554688 211.425781 564.898438 211.894531 564.300781 C 212.367188 563.703125 212.914062 563.191406 213.542969 562.761719 C 214.171875 562.335938 214.851562 562.011719 215.582031 561.792969 C 216.308594 561.578125 217.054688 561.472656 217.816406 561.488281 C 220.992188 561.753906 224.359375 564.15625 224.039062 567.28125 C 221.367188 592.589844 247.328125 624.226562 273.210938 594.40625 C 277.832031 589.066406 278.285156 583.058594 281.703125 578.386719 C 287.046875 571.179688 295.058594 574.835938 299.679688 583.136719 C 304.300781 577.425781 311.109375 578.386719 310.523438 587.195312 C 309.667969 600.066406 311.378906 611.996094 327.992188 618.886719 C 341.1875 624.226562 353.3125 618.058594 361.457031 605.777344 C 364.558594 601.078125 365.867188 594.699219 367.683594 587.488281 C 367.859375 587.015625 368.078125 586.5625 368.335938 586.125 C 368.59375 585.691406 368.890625 585.285156 369.222656 584.902344 C 369.554688 584.519531 369.917969 584.167969 370.3125 583.851562 C 370.707031 583.535156 371.125 583.253906 371.570312 583.011719 C 372.015625 582.769531 372.480469 582.570312 372.960938 582.410156 C 373.441406 582.25 373.929688 582.136719 374.433594 582.0625 C 374.933594 581.992188 375.4375 581.964844 375.941406 581.984375 C 376.449219 582.003906 376.949219 582.066406 377.445312 582.171875 C 377.9375 582.28125 378.417969 582.429688 378.886719 582.625 C 379.355469 582.820312 379.800781 583.054688 380.226562 583.328125 C 380.652344 583.601562 381.050781 583.910156 381.421875 584.253906 C 381.792969 584.597656 382.128906 584.972656 382.433594 585.378906 C 382.738281 585.785156 383.003906 586.214844 383.230469 586.664062 C 383.457031 587.117188 383.640625 587.585938 383.785156 588.074219 C 383.925781 588.558594 384.027344 589.050781 384.078125 589.554688 C 384.132812 590.058594 384.144531 590.5625 384.109375 591.066406 C 382.816406 596.382812 381.003906 601.511719 378.671875 606.457031 C 376.335938 611.398438 373.527344 616.058594 370.246094 620.433594 C 398.777344 622.917969 427.320312 623.070312 455.875 620.886719 C 454.28125 617.148438 452.574219 613.460938 450.753906 609.824219 C 448.9375 606.191406 447.011719 602.613281 444.976562 599.089844 C 442.945312 595.570312 440.808594 592.113281 438.566406 588.722656 C 436.324219 585.328125 433.984375 582.007812 431.542969 578.757812 C 429.101562 575.503906 426.566406 572.328125 423.933594 569.230469 C 421.300781 566.132812 418.578125 563.113281 415.765625 560.179688 C 412.953125 557.242188 410.054688 554.394531 407.070312 551.632812 C 404.085938 548.871094 401.019531 546.203125 397.875 543.625 C 394.730469 541.046875 391.511719 538.566406 388.21875 536.183594 C 384.921875 533.800781 381.5625 531.515625 378.128906 529.335938 C 374.699219 527.152344 371.203125 525.078125 367.648438 523.105469 C 364.089844 521.132812 360.480469 519.269531 356.8125 517.515625 C 353.140625 515.761719 349.425781 514.117188 345.65625 512.585938 C 341.890625 511.054688 338.082031 509.636719 334.226562 508.332031 C 330.375 507.03125 326.488281 505.84375 322.5625 504.777344 C 318.640625 503.707031 314.6875 502.757812 310.707031 501.925781 C 306.726562 501.09375 302.722656 500.382812 298.699219 499.789062 C 294.675781 499.199219 290.640625 498.730469 286.585938 498.378906 C 282.535156 498.03125 278.476562 497.804688 274.410156 497.699219 C 270.347656 497.597656 266.28125 497.613281 262.214844 497.753906 C 258.152344 497.890625 254.09375 498.152344 250.046875 498.535156 C 246 498.917969 241.964844 499.421875 237.945312 500.046875 C 233.925781 500.675781 229.933594 501.417969 225.957031 502.285156 C 221.984375 503.152344 218.039062 504.132812 214.125 505.238281 C 210.210938 506.339844 206.332031 507.558594 202.492188 508.894531 C 198.652344 510.230469 194.855469 511.679688 191.101562 513.242188 C 187.347656 514.804688 183.640625 516.480469 179.988281 518.265625 C 176.335938 520.050781 172.738281 521.945312 169.199219 523.949219 C 165.660156 525.949219 162.183594 528.054688 158.773438 530.265625 C 155.359375 532.476562 152.015625 534.789062 148.742188 537.203125 C 145.46875 539.613281 142.269531 542.121094 139.148438 544.726562 C 136.023438 547.328125 132.980469 550.023438 130.019531 552.8125 Z M 130.074219 552.996094 " fill-opacity="1" fill-rule="evenodd"/><path fill="#ffffff" d="M 214.476562 164.796875 C 191.914062 173.777344 170.726562 185.285156 150.90625 199.316406 C 165.277344 148.644531 186.46875 137.136719 214.476562 164.796875 Z M 214.476562 164.796875 " fill-opacity="1" fill-rule="evenodd"/><path fill="#ffffff" d="M 529.007812 203.71875 C 546.320312 217.054688 561.953125 232.128906 575.90625 248.945312 C 587.019531 207.246094 571.375 192.167969 528.980469 203.71875 Z M 529.007812 203.71875 " fill-opacity="1" fill-rule="evenodd"/><path fill="#000000" d="M 330.234375 299.324219 C 328.074219 301.316406 325.714844 303.050781 323.164062 304.515625 C 320.613281 305.984375 317.933594 307.148438 315.117188 308.011719 C 312.304688 308.875 309.433594 309.417969 306.496094 309.636719 C 303.5625 309.855469 300.640625 309.746094 297.730469 309.308594 C 281.703125 307.359375 274.867188 299.507812 277.644531 287.363281 C 277.796875 286.75 277.863281 286.125 277.847656 285.492188 C 277.828125 284.863281 277.726562 284.242188 277.542969 283.640625 C 277.355469 283.035156 277.09375 282.464844 276.75 281.933594 C 276.410156 281.402344 276.003906 280.921875 275.535156 280.5 C 275.050781 280.089844 274.515625 279.757812 273.9375 279.496094 C 273.359375 279.238281 272.753906 279.066406 272.125 278.976562 C 271.496094 278.890625 270.867188 278.890625 270.238281 278.984375 C 269.609375 279.074219 269.007812 279.25 268.429688 279.511719 C 267.324219 280.128906 266.425781 280.964844 265.730469 282.019531 C 265.039062 283.078125 264.628906 284.234375 264.503906 285.492188 C 261.671875 299.484375 266.210938 310.402344 279.488281 318.570312 C 271.714844 336.859375 258.546875 355.171875 249.277344 377.945312 C 230.234375 424.773438 242.308594 463.988281 281.625 479.394531 C 321.6875 495.089844 358.359375 484.734375 385.496094 459.773438 C 411.136719 436.171875 416.585938 394.523438 409.269531 335.789062 C 406.355469 312.484375 403.765625 305.570312 392.789062 309.574219 C 372.117188 317.101562 357.71875 312.003906 350.773438 301.085938 C 345.433594 292.835938 338.167969 292.085938 330.234375 299.296875 Z M 330.234375 299.324219 " fill-opacity="1" fill-rule="evenodd"/><path fill="#a35f60" d="M 293.855469 324.390625 L 293.855469 324.65625 C 285.175781 345 272.140625 363.128906 263.730469 383.84375 C 250.800781 415.640625 251.335938 450.933594 287.367188 465.003906 C 319.417969 477.5 350.132812 471.410156 375.105469 448.425781 C 402.164062 423.515625 398.078125 370.46875 394.015625 337.738281 C 393.722656 335.46875 393.136719 330.289062 392.335938 326.019531 C 372.945312 331.359375 352.003906 328.957031 339.503906 311.871094 C 338.023438 313.140625 336.480469 314.328125 334.871094 315.433594 C 333.265625 316.539062 331.605469 317.554688 329.890625 318.484375 C 328.171875 319.414062 326.414062 320.246094 324.609375 320.988281 C 322.804688 321.730469 320.964844 322.371094 319.09375 322.917969 C 317.21875 323.464844 315.324219 323.90625 313.402344 324.25 C 311.484375 324.59375 309.550781 324.832031 307.605469 324.972656 C 305.65625 325.109375 303.710938 325.140625 301.761719 325.070312 C 299.8125 325 297.871094 324.828125 295.941406 324.550781 L 293.910156 324.285156 Z M 293.855469 324.390625 " fill-opacity="1" fill-rule="evenodd"/><path fill="#e6e6e6" d="M 392.226562 326.019531 C 383.84375 328.464844 375.324219 329.125 366.667969 327.996094 C 375.570312 356.132812 384.089844 355.476562 392.226562 326.019531 Z M 392.226562 326.019531 " fill-opacity="1" fill-rule="evenodd"/><path fill="#ffb9b1" d="M 256.035156 415.320312 C 254.835938 436.492188 263.007812 455.578125 287.257812 465.058594 C 319.3125 477.550781 350.027344 471.464844 375 448.480469 C 378.765625 444.816406 382.003906 440.738281 384.71875 436.242188 C 387.433594 431.746094 389.539062 426.976562 391.027344 421.941406 C 389.960938 420.929688 388.847656 419.964844 387.695312 419.054688 C 386.539062 418.144531 385.347656 417.285156 384.113281 416.484375 C 382.882812 415.679688 381.617188 414.9375 380.316406 414.25 C 379.015625 413.5625 377.683594 412.9375 376.328125 412.371094 C 374.96875 411.804688 373.585938 411.304688 372.183594 410.863281 C 370.78125 410.425781 369.359375 410.050781 367.921875 409.742188 C 366.484375 409.429688 365.035156 409.1875 363.574219 409.011719 C 362.113281 408.832031 360.648438 408.722656 359.175781 408.679688 C 357.707031 408.636719 356.238281 408.660156 354.769531 408.75 C 353.300781 408.84375 351.839844 409 350.386719 409.222656 C 348.929688 409.449219 347.492188 409.738281 346.0625 410.09375 C 344.636719 410.449219 343.226562 410.871094 341.839844 411.355469 C 340.449219 411.839844 339.085938 412.386719 337.746094 412.996094 C 336.410156 413.605469 335.101562 414.273438 333.824219 415.003906 C 332.546875 415.734375 331.304688 416.519531 330.097656 417.359375 C 328.890625 418.203125 327.726562 419.097656 326.601562 420.046875 C 308.707031 401.164062 285.183594 399.585938 256.035156 415.320312 Z M 256.035156 415.320312 " fill-opacity="1" fill-rule="evenodd"/><path fill="#ffae40" d="M 600.027344 575.101562 C 596.257812 579.613281 592.230469 583.882812 587.953125 587.917969 C 649.152344 591.851562 693.867188 559.003906 722.089844 489.378906 C 737.117188 437.765625 732.851562 409.9375 709.292969 405.898438 C 686.769531 406.09375 675.3125 421.683594 674.917969 452.671875 C 668.3125 523.878906 643.347656 564.691406 600.027344 575.101562 Z M 600.027344 575.101562 " fill-opacity="1" fill-rule="evenodd"/><path fill="#302826" d="M 613.78125 353.144531 C 611.011719 344.265625 607.789062 335.550781 604.113281 327.007812 C 594.160156 336.085938 579.65625 344.457031 560.605469 352.128906 C 564.859375 353.660156 569.210938 354.835938 573.65625 355.652344 C 578.105469 356.472656 582.589844 356.925781 587.109375 357.011719 C 591.628906 357.097656 596.128906 356.816406 600.605469 356.167969 C 605.078125 355.519531 609.472656 354.511719 613.78125 353.144531 Z M 613.78125 353.144531 " fill-opacity="1" fill-rule="evenodd"/><path fill="#302826" d="M 623.824219 399.300781 C 622.828125 391.792969 621.546875 384.34375 619.980469 376.957031 C 604.644531 383.117188 588.964844 388.214844 572.941406 392.253906 C 583.839844 398.019531 600.757812 400.371094 623.691406 399.300781 Z M 623.824219 399.300781 " fill-opacity="1" fill-rule="evenodd"/><path fill="#302826" d="M 382.320312 159.722656 C 377.484375 159.109375 372.621094 158.65625 367.761719 158.308594 C 364.023438 158.070312 360.28125 157.855469 356.542969 157.722656 L 355.847656 166.773438 C 334.132812 164.902344 319.683594 167.785156 317.976562 177.023438 C 315.867188 188.582031 327.671875 195.042969 347.78125 195.710938 C 347.542969 200.0625 347.410156 202.226562 347.410156 202.226562 C 334.054688 203.347656 324.09375 207.726562 318.855469 216.132812 C 318.511719 216.808594 318.28125 217.519531 318.164062 218.269531 C 318.050781 219.019531 318.058594 219.765625 318.191406 220.515625 C 318.320312 221.261719 318.566406 221.96875 318.925781 222.632812 C 319.289062 223.300781 319.746094 223.894531 320.300781 224.410156 C 320.777344 225.003906 321.339844 225.503906 321.988281 225.90625 C 322.636719 226.308594 323.332031 226.59375 324.078125 226.761719 C 324.820312 226.929688 325.574219 226.96875 326.332031 226.878906 C 327.089844 226.792969 327.8125 226.585938 328.5 226.253906 C 331.378906 224.175781 334.507812 222.597656 337.890625 221.519531 C 341.273438 220.445312 344.742188 219.921875 348.289062 219.953125 C 346.769531 231.617188 349.386719 237.332031 356.089844 237.890625 C 363.835938 238.535156 367.546875 234.6875 367.308594 225.558594 C 373.476562 226.714844 379.351562 228.726562 384.9375 231.59375 C 385.367188 231.855469 385.820312 232.078125 386.289062 232.265625 C 386.761719 232.449219 387.246094 232.59375 387.742188 232.695312 C 388.238281 232.796875 388.738281 232.855469 389.242188 232.867188 C 389.75 232.882812 390.253906 232.855469 390.753906 232.78125 C 391.253906 232.710938 391.746094 232.59375 392.226562 232.4375 C 392.707031 232.277344 393.171875 232.082031 393.617188 231.84375 C 394.0625 231.605469 394.488281 231.332031 394.886719 231.019531 C 395.285156 230.707031 395.652344 230.367188 395.992188 229.988281 C 396.3125 229.597656 396.589844 229.179688 396.835938 228.734375 C 397.078125 228.292969 397.28125 227.832031 397.445312 227.351562 C 397.605469 226.871094 397.726562 226.382812 397.800781 225.882812 C 397.878906 225.382812 397.910156 224.878906 397.898438 224.375 C 397.886719 223.871094 397.832031 223.367188 397.730469 222.875 C 397.628906 222.378906 397.488281 221.894531 397.300781 221.421875 C 397.117188 220.953125 396.890625 220.503906 396.628906 220.070312 C 396.363281 219.640625 396.0625 219.234375 395.726562 218.859375 C 394.214844 217.066406 392.554688 215.417969 390.757812 213.914062 C 388.957031 212.410156 387.039062 211.074219 385.003906 209.90625 C 382.972656 208.734375 380.851562 207.75 378.648438 206.949219 C 376.441406 206.148438 374.183594 205.542969 371.875 205.136719 C 373.183594 200.703125 373.824219 198.488281 373.824219 198.488281 C 381.433594 199.003906 388.785156 200.652344 395.886719 203.425781 C 409.988281 209.78125 416 193.65625 407.34375 183.910156 C 399.734375 175.316406 391.027344 174.726562 381.355469 170.5625 L 382.316406 159.695312 Z M 382.320312 159.722656 " fill-opacity="1" fill-rule="evenodd"/><path fill="#302826" d="M 121.234375 247.503906 C 115.644531 253.429688 110.300781 259.660156 105.207031 266.191406 C 124.796875 276.515625 144.078125 277.519531 163.0625 269.207031 C 148.195312 263.738281 134.226562 256.527344 121.152344 247.582031 Z M 121.234375 247.503906 " fill-opacity="1" fill-rule="evenodd"/><path fill="#302826" d="M 89.261719 288.695312 C 85.308594 294.710938 81.613281 300.65625 78.179688 306.53125 C 90.019531 312.367188 103.953125 313.675781 119.980469 310.453125 C 104.914062 303.835938 94.675781 296.582031 89.261719 288.695312 Z M 89.261719 288.695312 " fill-opacity="1" fill-rule="evenodd"/><path fill="#302826" d="M 632.71875 583.511719 C 641.070312 581.066406 649.023438 577.675781 656.570312 573.339844 C 655.609375 571.925781 654.59375 570.511719 653.5 569.121094 C 647.703125 561.808594 641.398438 557.027344 636.296875 555.507812 C 633.199219 558.492188 629.875 561.203125 626.335938 563.648438 C 626.550781 567.175781 627.195312 570.621094 628.277344 573.984375 C 629.359375 577.34375 630.839844 580.523438 632.71875 583.511719 Z M 632.71875 583.511719 " fill-opacity="1" fill-rule="evenodd"/><path fill="#302826" d="M 664.53125 507.320312 C 662 515.265625 658.804688 522.9375 654.941406 530.332031 C 658.496094 532.21875 662.191406 533.777344 666.027344 535.003906 C 681.304688 539.863281 693.695312 537.671875 693.695312 530.199219 C 693.695312 522.722656 681.304688 512.632812 666.027344 507.773438 Z M 664.53125 507.320312 " fill-opacity="1" fill-rule="evenodd"/><path fill="#302826" d="M 715.652344 503.902344 C 717.867188 499.257812 720.003906 494.398438 722.0625 489.378906 C 722.890625 486.523438 723.636719 483.746094 724.359375 481.050781 C 720.363281 478.792969 716.175781 476.96875 711.804688 475.574219 C 696.527344 470.691406 684.160156 472.90625 684.160156 480.355469 C 684.160156 487.804688 696.527344 497.921875 711.804688 502.808594 C 713.113281 503.207031 714.476562 503.582031 715.652344 503.902344 Z M 715.652344 503.902344 " fill-opacity="1" fill-rule="evenodd"/><path fill="#302826" d="M 679.566406 425.304688 C 676.324219 434.011719 674.765625 443.007812 674.894531 452.296875 C 676.550781 452.457031 678.230469 452.535156 679.96875 452.535156 C 695.246094 452.535156 707.640625 446.421875 707.640625 438.921875 C 707.640625 431.417969 695.246094 425.304688 679.96875 425.304688 Z M 679.566406 425.304688 " fill-opacity="1" fill-rule="evenodd"/><path fill="#000000" d="M 245.859375 244.460938 C 257.265625 242.058594 265.570312 250.972656 264.394531 264.375 C 263.222656 277.777344 253.019531 290.59375 241.613281 292.996094 C 230.207031 295.398438 221.902344 286.507812 223.078125 273.105469 C 224.253906 259.703125 234.507812 246.808594 245.832031 244.460938 Z M 245.859375 244.460938 " fill-opacity="1" fill-rule="evenodd"/><path fill="#000000" d="M 450.535156 270.835938 C 439.53125 268.433594 429.78125 277.324219 428.792969 290.726562 C 427.804688 304.128906 435.925781 316.941406 446.957031 319.371094 C 457.984375 321.800781 467.707031 312.882812 468.695312 299.484375 C 469.683594 286.082031 461.539062 273.238281 450.535156 270.835938 Z M 450.535156 270.835938 " fill-opacity="1" fill-rule="evenodd"/><path fill="#000000" d="M 280.234375 235.144531 C 280.742188 240.75 282.265625 247.15625 287.074219 250.679688 C 287.378906 250.902344 287.65625 251.15625 287.910156 251.433594 C 288.167969 251.710938 288.390625 252.011719 288.589844 252.335938 C 288.785156 252.660156 288.945312 252.996094 289.074219 253.351562 C 289.203125 253.707031 289.296875 254.070312 289.355469 254.445312 C 289.410156 254.816406 289.429688 255.191406 289.414062 255.570312 C 289.398438 255.945312 289.34375 256.320312 289.253906 256.683594 C 289.164062 257.050781 289.039062 257.40625 288.878906 257.75 C 288.71875 258.089844 288.527344 258.414062 288.304688 258.71875 C 288.078125 259.023438 287.828125 259.300781 287.550781 259.554688 C 287.269531 259.8125 286.96875 260.035156 286.648438 260.230469 C 286.324219 260.425781 285.984375 260.589844 285.628906 260.71875 C 285.273438 260.847656 284.910156 260.9375 284.535156 260.996094 C 284.164062 261.054688 283.789062 261.074219 283.410156 261.054688 C 283.035156 261.039062 282.660156 260.984375 282.292969 260.894531 C 281.929688 260.804688 281.574219 260.679688 281.230469 260.519531 C 280.890625 260.359375 280.566406 260.167969 280.261719 259.945312 C 272.570312 254.3125 269.578125 245.289062 268.777344 236.128906 C 268.746094 235.753906 268.75 235.378906 268.789062 235.003906 C 268.832031 234.628906 268.910156 234.261719 269.023438 233.902344 C 269.136719 233.542969 269.285156 233.195312 269.46875 232.867188 C 269.648438 232.535156 269.863281 232.226562 270.105469 231.9375 C 270.347656 231.648438 270.617188 231.386719 270.910156 231.148438 C 271.207031 230.914062 271.523438 230.707031 271.855469 230.535156 C 272.191406 230.359375 272.539062 230.222656 272.902344 230.117188 C 273.265625 230.011719 273.636719 229.941406 274.011719 229.910156 C 274.386719 229.878906 274.761719 229.882812 275.140625 229.921875 C 275.515625 229.964844 275.882812 230.042969 276.242188 230.15625 C 276.601562 230.269531 276.945312 230.417969 277.277344 230.601562 C 277.609375 230.78125 277.917969 230.996094 278.207031 231.238281 C 278.496094 231.480469 278.757812 231.75 278.996094 232.042969 C 279.230469 232.339844 279.4375 232.652344 279.609375 232.988281 C 279.785156 233.324219 279.921875 233.671875 280.027344 234.035156 C 280.132812 234.398438 280.203125 234.765625 280.234375 235.144531 Z M 408.921875 265.816406 C 412.632812 264.644531 419.472656 262.078125 421.660156 258.554688 C 421.859375 258.234375 422.089844 257.9375 422.347656 257.660156 C 422.605469 257.386719 422.886719 257.136719 423.195312 256.917969 C 423.5 256.695312 423.824219 256.507812 424.167969 256.351562 C 424.511719 256.195312 424.867188 256.074219 425.238281 255.988281 C 425.605469 255.902344 425.976562 255.851562 426.355469 255.839844 C 426.730469 255.828125 427.105469 255.851562 427.480469 255.914062 C 427.851562 255.972656 428.214844 256.070312 428.570312 256.203125 C 428.921875 256.335938 429.257812 256.5 429.582031 256.699219 C 429.902344 256.898438 430.199219 257.128906 430.476562 257.386719 C 430.75 257.644531 431 257.925781 431.21875 258.230469 C 431.441406 258.539062 431.628906 258.863281 431.785156 259.207031 C 431.941406 259.550781 432.0625 259.90625 432.148438 260.273438 C 432.234375 260.640625 432.285156 261.015625 432.296875 261.390625 C 432.308594 261.769531 432.285156 262.144531 432.226562 262.515625 C 432.164062 262.886719 432.066406 263.25 431.933594 263.605469 C 431.800781 263.957031 431.636719 264.296875 431.4375 264.617188 C 427.457031 270.996094 419.3125 274.574219 412.417969 276.761719 C 412.058594 276.878906 411.691406 276.957031 411.316406 277 C 410.941406 277.042969 410.566406 277.046875 410.191406 277.015625 C 409.816406 276.984375 409.445312 276.917969 409.082031 276.8125 C 408.71875 276.707031 408.371094 276.570312 408.035156 276.398438 C 407.699219 276.222656 407.386719 276.019531 407.089844 275.785156 C 406.792969 275.550781 406.523438 275.289062 406.28125 275 C 406.039062 274.710938 405.824219 274.402344 405.640625 274.074219 C 405.457031 273.742188 405.308594 273.398438 405.195312 273.039062 C 405.082031 272.679688 405 272.3125 404.957031 271.9375 C 404.917969 271.5625 404.910156 271.1875 404.941406 270.8125 C 404.972656 270.4375 405.042969 270.066406 405.144531 269.703125 C 405.25 269.339844 405.386719 268.992188 405.5625 268.65625 C 405.734375 268.320312 405.9375 268.007812 406.171875 267.710938 C 406.410156 267.417969 406.671875 267.148438 406.957031 266.902344 C 407.246094 266.660156 407.554688 266.445312 407.886719 266.265625 C 408.214844 266.082031 408.5625 265.933594 408.921875 265.816406 Z M 408.921875 265.816406 " fill-opacity="1" fill-rule="evenodd"/></svg>