<svg xmlns="http://www.w3.org/2000/svg" xmlns:xlink="http://www.w3.org/1999/xlink" width="1000" zoomAndPan="magnify" viewBox="0 0 750 749.999995" height="1000" preserveAspectRatio="xMidYMid meet" version="1.0"><path fill="#000000" d="M 436.144531 697.601562 C 435.023438 699.105469 433.824219 700.542969 432.542969 701.910156 C 431.265625 703.28125 429.914062 704.574219 428.488281 705.792969 C 427.066406 707.011719 425.578125 708.148438 424.027344 709.203125 C 422.480469 710.257812 420.875 711.222656 419.21875 712.101562 C 417.5625 712.976562 415.863281 713.757812 414.117188 714.445312 C 412.375 715.136719 410.597656 715.726562 408.789062 716.214844 C 406.980469 716.707031 405.152344 717.097656 403.296875 717.382812 C 401.445312 717.671875 399.582031 717.855469 397.710938 717.9375 C 394.527344 718.035156 391.359375 717.828125 388.214844 717.320312 C 385.070312 716.8125 382 716.011719 379.007812 714.914062 C 376.015625 713.820312 373.152344 712.449219 370.421875 710.808594 C 367.691406 709.167969 365.140625 707.28125 362.769531 705.148438 C 359.160156 706.214844 355.476562 706.746094 351.710938 706.746094 C 347.949219 706.746094 344.261719 706.214844 340.652344 705.148438 C 316.476562 725.378906 287.929688 725.90625 267.28125 701.96875 C 266.617188 702.003906 265.953125 702.003906 265.289062 701.96875 C 198.550781 697.5 122.382812 682.542969 68.992188 639.359375 C 19.691406 599.492188 0.125 543.445312 3.203125 480.832031 C 9.246094 357.53125 66.863281 259.730469 173.847656 198.691406 C 170.175781 192.414062 166.984375 185.898438 164.265625 179.152344 C 161.546875 172.402344 159.335938 165.492188 157.632812 158.421875 C 155.929688 151.347656 154.75 144.191406 154.09375 136.945312 C 153.4375 129.703125 153.316406 122.449219 153.722656 115.183594 C 153.871094 112.460938 154.171875 109.75 154.625 107.058594 C 155.074219 104.367188 155.675781 101.710938 156.421875 99.085938 C 157.167969 96.460938 158.0625 93.886719 159.097656 91.363281 C 160.128906 88.835938 161.304688 86.378906 162.613281 83.984375 C 163.921875 81.589844 165.359375 79.273438 166.929688 77.042969 C 168.496094 74.808594 170.183594 72.667969 171.988281 70.621094 C 173.792969 68.578125 175.710938 66.636719 177.730469 64.804688 C 179.753906 62.972656 181.871094 61.261719 184.085938 59.664062 C 186.296875 58.046875 188.59375 56.558594 190.976562 55.199219 C 193.355469 53.84375 195.808594 52.625 198.328125 51.546875 C 200.847656 50.46875 203.417969 49.535156 206.042969 48.75 C 208.671875 47.964844 211.332031 47.332031 214.03125 46.847656 C 216.726562 46.363281 219.445312 46.035156 222.179688 45.863281 C 224.914062 45.691406 227.652344 45.671875 230.386719 45.808594 C 233.125 45.945312 235.847656 46.238281 238.550781 46.6875 C 241.253906 47.132812 243.925781 47.734375 246.558594 48.484375 C 288.070312 60.609375 300.753906 106.589844 303.898438 149.808594 C 305.851562 149.261719 307.84375 148.949219 309.871094 148.867188 C 311.917969 148.769531 313.941406 148.921875 315.949219 149.320312 C 316.566406 137.875 318.394531 126.621094 321.4375 115.570312 C 329.578125 88.175781 343.695312 59.105469 367.558594 42.195312 C 391.421875 25.285156 418.1875 24.550781 444.214844 36.046875 C 467.523438 46.351562 484.675781 64.941406 486.667969 91.039062 C 488.589844 116.300781 475.59375 140.445312 459.835938 159.3125 C 592.609375 208.230469 675.347656 294.042969 694.914062 427.550781 C 696.183594 427.113281 697.480469 426.769531 698.800781 426.515625 C 700.121094 426.261719 701.449219 426.105469 702.792969 426.039062 C 704.136719 425.96875 705.476562 426 706.816406 426.121094 C 708.152344 426.242188 709.476562 426.457031 710.785156 426.765625 C 712.09375 427.070312 713.375 427.46875 714.628906 427.957031 C 715.878906 428.441406 717.09375 429.015625 718.265625 429.671875 C 719.4375 430.332031 720.558594 431.066406 721.625 431.882812 C 722.695312 432.695312 723.703125 433.582031 724.648438 434.539062 C 727.773438 438.015625 730.332031 441.867188 732.324219 446.097656 C 734.320312 450.328125 735.660156 454.757812 736.351562 459.378906 C 749.839844 475.453125 749.558594 494.320312 734.710938 508.785156 C 733.957031 513.09375 732.550781 517.179688 730.492188 521.039062 C 728.429688 524.894531 725.816406 528.335938 722.65625 531.359375 C 721.65625 532.203125 720.601562 532.96875 719.496094 533.664062 C 718.386719 534.355469 717.230469 534.964844 716.035156 535.492188 C 714.835938 536.015625 713.609375 536.453125 712.347656 536.800781 C 711.089844 537.148438 709.808594 537.40625 708.511719 537.570312 C 707.214844 537.734375 705.914062 537.800781 704.605469 537.777344 C 703.296875 537.753906 702 537.632812 700.710938 537.421875 C 699.417969 537.210938 698.152344 536.90625 696.90625 536.511719 C 695.65625 536.113281 694.445312 535.632812 693.269531 535.0625 C 691.121094 543.808594 688.300781 552.332031 684.8125 560.636719 C 681.320312 568.941406 677.203125 576.921875 672.457031 584.578125 C 667.710938 592.230469 662.394531 599.46875 656.511719 606.289062 C 650.625 613.109375 644.246094 619.425781 637.367188 625.242188 C 584.957031 670.316406 507.632812 688.832031 440.722656 697.53125 C 439.253906 697.671875 437.789062 697.671875 436.320312 697.53125 Z M 436.144531 697.601562 " fill-opacity="1" fill-rule="evenodd"/><path fill="#ffffff" d="M 197.46875 230.171875 C 192.484375 225.570312 187.976562 220.539062 183.945312 215.078125 C 88.210938 269.480469 28.496094 357.949219 22.417969 481.777344 C 16.375 604.90625 103.621094 671.992188 266.476562 682.613281 C 270.703125 674.890625 272.34375 675.382812 276.363281 681.84375 C 291.527344 706.304688 313.296875 707 334.503906 684.324219 C 338 680.832031 337.648438 681.671875 341.910156 684.570312 C 342.648438 685.035156 343.414062 685.449219 344.207031 685.804688 C 345 686.164062 345.816406 686.464844 346.652344 686.707031 C 347.488281 686.949219 348.335938 687.132812 349.199219 687.253906 C 350.0625 687.375 350.929688 687.4375 351.800781 687.4375 C 352.671875 687.4375 353.539062 687.375 354.398438 687.253906 C 355.261719 687.132812 356.109375 686.949219 356.949219 686.707031 C 357.785156 686.464844 358.597656 686.164062 359.394531 685.804688 C 360.1875 685.449219 360.953125 685.035156 361.6875 684.570312 C 366.542969 681.078125 367.628906 679.75 370.492188 684.570312 C 371.191406 685.6875 371.964844 686.753906 372.804688 687.769531 C 373.648438 688.785156 374.554688 689.742188 375.523438 690.636719 C 376.492188 691.535156 377.515625 692.363281 378.59375 693.121094 C 379.671875 693.882812 380.792969 694.566406 381.964844 695.179688 C 383.132812 695.789062 384.335938 696.324219 385.578125 696.773438 C 386.816406 697.226562 388.082031 697.59375 389.367188 697.878906 C 390.65625 698.164062 391.957031 698.359375 393.273438 698.472656 C 394.589844 698.585938 395.902344 698.609375 397.222656 698.546875 C 398.53125 698.460938 399.832031 698.296875 401.121094 698.054688 C 402.410156 697.808594 403.679688 697.488281 404.929688 697.089844 C 406.179688 696.691406 407.402344 696.222656 408.59375 695.675781 C 409.785156 695.128906 410.941406 694.511719 412.058594 693.824219 C 413.175781 693.136719 414.25 692.386719 415.277344 691.566406 C 416.300781 690.75 417.273438 689.875 418.195312 688.9375 C 419.113281 688 419.972656 687.015625 420.773438 685.972656 C 421.570312 684.933594 422.304688 683.847656 422.972656 682.71875 C 427.304688 676.042969 432.964844 675.03125 438.03125 678.246094 C 608.503906 656.128906 684.464844 587.996094 679.816406 473.042969 C 674.054688 330.101562 602.007812 230.871094 449.808594 175.980469 C 440.113281 183.328125 431.957031 192.113281 425.347656 202.324219 C 424.925781 203.144531 424.414062 203.90625 423.8125 204.605469 C 423.207031 205.304688 422.53125 205.921875 421.78125 206.460938 C 421.03125 206.996094 420.226562 207.4375 419.371094 207.785156 C 418.515625 208.132812 417.632812 208.375 416.71875 208.511719 C 415.789062 208.582031 414.867188 208.535156 413.953125 208.363281 C 413.039062 208.191406 412.160156 207.902344 411.324219 207.496094 C 410.484375 207.09375 409.714844 206.585938 409.011719 205.972656 C 408.308594 205.363281 407.699219 204.671875 407.179688 203.898438 C 406.636719 203.144531 406.210938 202.328125 405.902344 201.449219 C 405.589844 200.574219 405.410156 199.671875 405.359375 198.742188 C 405.304688 197.816406 405.382812 196.898438 405.59375 195.992188 C 405.800781 195.085938 406.132812 194.226562 406.585938 193.414062 C 419.792969 172.453125 434.539062 159.246094 444.078125 147.992188 C 477.550781 108.617188 475.242188 70.914062 436.285156 53.65625 C 393.554688 34.507812 357.632812 61.238281 339.886719 120.984375 C 334.820312 137.929688 334.328125 160.992188 334.292969 188.945312 C 334.347656 189.457031 334.355469 189.972656 334.316406 190.488281 C 334.277344 191.003906 334.191406 191.511719 334.066406 192.015625 C 333.9375 192.515625 333.765625 193 333.550781 193.472656 C 333.335938 193.941406 333.082031 194.390625 332.789062 194.816406 C 332.492188 195.242188 332.164062 195.636719 331.800781 196.003906 C 331.4375 196.375 331.042969 196.707031 330.621094 197.003906 C 330.199219 197.300781 329.75 197.558594 329.28125 197.777344 C 328.816406 197.996094 328.332031 198.175781 327.832031 198.308594 C 327.328125 198.449219 326.8125 198.542969 326.292969 198.582031 C 325.769531 198.621094 325.246094 198.605469 324.726562 198.539062 C 324.207031 198.472656 323.703125 198.355469 323.207031 198.183594 C 322.710938 198.015625 322.238281 197.796875 321.785156 197.53125 C 321.335938 197.265625 320.914062 196.957031 320.527344 196.601562 C 320.140625 196.25 319.789062 195.863281 319.480469 195.441406 C 319.171875 195.019531 318.90625 194.570312 318.691406 194.09375 C 318.472656 193.617188 318.304688 193.121094 318.1875 192.613281 C 317.402344 186.054688 317.125 179.472656 317.347656 172.871094 C 317.175781 172.136719 316.882812 171.453125 316.464844 170.820312 C 316.050781 170.191406 315.539062 169.652344 314.929688 169.203125 C 314.320312 168.753906 313.65625 168.425781 312.929688 168.214844 C 312.203125 168.003906 311.464844 167.925781 310.710938 167.980469 C 310.339844 167.980469 309.96875 168.015625 309.605469 168.082031 C 309.238281 168.152344 308.882812 168.25 308.535156 168.386719 C 308.191406 168.519531 307.859375 168.683594 307.542969 168.878906 C 307.226562 169.074219 306.929688 169.296875 306.65625 169.546875 C 306.378906 169.796875 306.128906 170.070312 305.90625 170.363281 C 305.679688 170.660156 305.484375 170.972656 305.316406 171.304688 C 305.148438 171.636719 305.015625 171.984375 304.910156 172.339844 C 304.808594 172.695312 304.738281 173.058594 304.699219 173.429688 C 304.351562 188.875 304.699219 196.59375 304.699219 196.59375 C 304.71875 197.226562 304.679688 197.855469 304.578125 198.476562 C 304.476562 199.101562 304.316406 199.710938 304.097656 200.304688 C 303.878906 200.894531 303.605469 201.464844 303.277344 202.003906 C 302.949219 202.542969 302.574219 203.046875 302.152344 203.515625 C 301.726562 203.984375 301.261719 204.40625 300.753906 204.785156 C 300.25 205.164062 299.710938 205.492188 299.144531 205.765625 C 298.574219 206.042969 297.984375 206.261719 297.371094 206.421875 C 296.761719 206.582031 296.140625 206.6875 295.511719 206.726562 C 294.875 206.808594 294.234375 206.824219 293.59375 206.769531 C 292.953125 206.71875 292.324219 206.601562 291.707031 206.417969 C 291.089844 206.238281 290.5 205.996094 289.933594 205.691406 C 289.367188 205.386719 288.839844 205.027344 288.347656 204.613281 C 287.855469 204.203125 287.410156 203.742188 287.011719 203.238281 C 286.617188 202.730469 286.273438 202.191406 285.988281 201.617188 C 285.703125 201.039062 285.480469 200.441406 285.316406 199.820312 C 285.15625 199.195312 285.058594 198.566406 285.027344 197.921875 C 288.207031 120.738281 274.546875 76.75 241.109375 66.96875 C 239.171875 66.429688 237.210938 66.003906 235.226562 65.6875 C 233.242188 65.371094 231.246094 65.171875 229.238281 65.082031 C 227.230469 64.992188 225.222656 65.019531 223.21875 65.15625 C 221.214844 65.296875 219.222656 65.546875 217.246094 65.914062 C 215.269531 66.277344 213.320312 66.753906 211.398438 67.339844 C 209.476562 67.925781 207.59375 68.621094 205.75 69.421875 C 203.90625 70.21875 202.113281 71.121094 200.375 72.125 C 198.632812 73.128906 196.953125 74.226562 195.335938 75.421875 C 193.707031 76.59375 192.148438 77.855469 190.65625 79.199219 C 189.167969 80.546875 187.757812 81.96875 186.425781 83.472656 C 185.09375 84.976562 183.851562 86.546875 182.695312 88.191406 C 181.535156 89.832031 180.476562 91.53125 179.507812 93.292969 C 178.539062 95.050781 177.675781 96.859375 176.90625 98.714844 C 176.140625 100.570312 175.480469 102.464844 174.925781 104.394531 C 174.371094 106.324219 173.925781 108.277344 173.585938 110.257812 C 173.25 112.238281 173.023438 114.226562 172.90625 116.234375 C 170.949219 153.410156 183.808594 186.496094 210.257812 216.371094 C 210.605469 216.808594 210.910156 217.277344 211.171875 217.773438 C 211.433594 218.265625 211.648438 218.78125 211.816406 219.3125 C 211.984375 219.847656 212.105469 220.390625 212.175781 220.949219 C 212.242188 221.503906 212.261719 222.058594 212.230469 222.617188 C 212.199219 223.175781 212.117188 223.730469 211.984375 224.273438 C 211.851562 224.816406 211.671875 225.34375 211.441406 225.855469 C 211.214844 226.367188 210.941406 226.851562 210.625 227.3125 C 210.308594 227.773438 209.953125 228.203125 209.558594 228.601562 C 206.414062 232.09375 200.71875 233.386719 197.433594 230.171875 Z M 197.46875 230.171875 " fill-opacity="1" fill-rule="evenodd"/><path fill="#ffb9b1" d="M 264.9375 203.339844 C 277.972656 169.972656 266.824219 141.144531 250.960938 120.078125 C 234.226562 97.679688 218.886719 97.855469 209.035156 125.074219 C 207.894531 127.976562 206.941406 130.9375 206.171875 133.960938 C 205.398438 136.984375 204.820312 140.042969 204.429688 143.136719 C 204.039062 146.230469 203.84375 149.335938 203.839844 152.457031 C 203.835938 155.574219 204.027344 158.679688 204.410156 161.777344 C 204.792969 164.871094 205.367188 167.929688 206.128906 170.953125 C 206.890625 173.976562 207.839844 176.945312 208.972656 179.847656 C 210.105469 182.753906 211.414062 185.578125 212.894531 188.324219 C 214.378906 191.066406 216.027344 193.707031 217.839844 196.246094 C 233.039062 218.257812 257.390625 222.589844 264.902344 203.234375 Z M 264.9375 203.339844 " fill-opacity="1" fill-rule="evenodd"/><path fill="#ffb9b1" d="M 390.96875 187.824219 C 402.042969 171.71875 410.847656 154.179688 421.855469 138.175781 C 434.292969 120.007812 433.453125 106.171875 415.113281 98.414062 C 377.234375 82.375 351.242188 140.796875 354.316406 169.832031 C 357.808594 201.625 374.054688 212.421875 390.96875 187.824219 Z M 390.96875 187.824219 " fill-opacity="1" fill-rule="evenodd"/><path fill="#ffb9b1" d="M 212.550781 564.570312 C 212.59375 565.535156 212.554688 566.503906 212.429688 567.472656 C 212.308594 568.445312 212.101562 569.410156 211.816406 570.375 C 211.527344 571.335938 211.160156 572.292969 210.710938 573.238281 C 210.261719 574.183594 209.734375 575.121094 209.128906 576.042969 C 208.523438 576.960938 207.839844 577.867188 207.085938 578.753906 C 206.328125 579.644531 205.496094 580.507812 204.597656 581.355469 C 203.695312 582.199219 202.726562 583.019531 201.691406 583.8125 C 200.652344 584.609375 199.554688 585.371094 198.394531 586.109375 C 197.230469 586.84375 196.011719 587.546875 194.738281 588.21875 C 193.460938 588.890625 192.132812 589.523438 190.757812 590.121094 C 189.378906 590.71875 187.957031 591.28125 186.492188 591.800781 C 185.023438 592.320312 183.519531 592.800781 181.980469 593.238281 C 180.441406 593.675781 178.867188 594.070312 177.269531 594.421875 C 175.667969 594.773438 174.046875 595.078125 172.402344 595.339844 C 170.757812 595.601562 169.097656 595.816406 167.425781 595.984375 C 165.753906 596.152344 164.074219 596.273438 162.386719 596.347656 C 160.703125 596.421875 159.019531 596.445312 157.339844 596.425781 C 155.65625 596.402344 153.988281 596.332031 152.324219 596.21875 C 150.664062 596.101562 149.023438 595.9375 147.398438 595.726562 C 145.773438 595.515625 144.171875 595.261719 142.601562 594.957031 C 141.027344 594.65625 139.488281 594.308594 137.980469 593.917969 C 136.476562 593.527344 135.011719 593.09375 133.585938 592.617188 C 132.160156 592.140625 130.785156 591.625 129.453125 591.070312 C 128.125 590.511719 126.847656 589.917969 125.628906 589.285156 C 124.40625 588.652344 123.246094 587.988281 122.144531 587.285156 C 121.042969 586.585938 120.003906 585.851562 119.035156 585.089844 C 118.0625 584.328125 117.160156 583.535156 116.328125 582.71875 C 115.496094 581.898438 114.738281 581.058594 114.054688 580.191406 C 113.371094 579.328125 112.765625 578.441406 112.234375 577.539062 C 111.707031 576.632812 111.257812 575.714844 110.886719 574.78125 C 110.515625 573.847656 110.226562 572.902344 110.019531 571.945312 C 109.8125 570.992188 109.6875 570.027344 109.644531 569.0625 C 109.605469 568.09375 109.644531 567.125 109.765625 566.15625 C 109.890625 565.1875 110.097656 564.21875 110.382812 563.257812 C 110.671875 562.292969 111.039062 561.339844 111.488281 560.394531 C 111.9375 559.445312 112.464844 558.511719 113.070312 557.589844 C 113.675781 556.667969 114.355469 555.761719 115.113281 554.875 C 115.871094 553.988281 116.699219 553.121094 117.601562 552.277344 C 118.503906 551.429688 119.472656 550.613281 120.507812 549.816406 C 121.542969 549.023438 122.644531 548.257812 123.804688 547.523438 C 124.964844 546.785156 126.183594 546.082031 127.460938 545.414062 C 128.738281 544.742188 130.0625 544.109375 131.441406 543.507812 C 132.820312 542.910156 134.242188 542.351562 135.707031 541.832031 C 137.171875 541.308594 138.675781 540.828125 140.21875 540.390625 C 141.757812 539.953125 143.328125 539.558594 144.929688 539.207031 C 146.53125 538.855469 148.152344 538.550781 149.796875 538.289062 C 151.441406 538.027344 153.097656 537.816406 154.773438 537.648438 C 156.445312 537.480469 158.125 537.359375 159.808594 537.285156 C 161.496094 537.210938 163.179688 537.183594 164.859375 537.207031 C 166.539062 537.226562 168.210938 537.296875 169.871094 537.414062 C 171.535156 537.53125 173.175781 537.691406 174.800781 537.902344 C 176.425781 538.113281 178.023438 538.371094 179.597656 538.671875 C 181.171875 538.972656 182.710938 539.320312 184.214844 539.710938 C 185.722656 540.101562 187.1875 540.535156 188.613281 541.011719 C 190.035156 541.488281 191.414062 542.003906 192.742188 542.5625 C 194.074219 543.117188 195.347656 543.714844 196.570312 544.34375 C 197.792969 544.976562 198.953125 545.644531 200.054688 546.34375 C 201.15625 547.046875 202.191406 547.777344 203.164062 548.539062 C 204.136719 549.304688 205.035156 550.09375 205.867188 550.914062 C 206.699219 551.730469 207.457031 552.574219 208.140625 553.4375 C 208.824219 554.304688 209.433594 555.1875 209.960938 556.09375 C 210.492188 556.996094 210.941406 557.917969 211.3125 558.851562 C 211.683594 559.785156 211.96875 560.730469 212.175781 561.683594 C 212.386719 562.640625 212.507812 563.601562 212.550781 564.570312 Z M 212.550781 564.570312 " fill-opacity="1" fill-rule="nonzero"/><path fill="#ffb9b1" d="M 542.289062 534.628906 C 542.402344 535.484375 542.4375 536.34375 542.398438 537.214844 C 542.359375 538.082031 542.242188 538.957031 542.050781 539.835938 C 541.859375 540.710938 541.589844 541.589844 541.246094 542.464844 C 540.902344 543.34375 540.480469 544.214844 539.988281 545.082031 C 539.496094 545.953125 538.933594 546.8125 538.296875 547.660156 C 537.660156 548.511719 536.957031 549.351562 536.183594 550.175781 C 535.410156 551 534.570312 551.8125 533.667969 552.601562 C 532.765625 553.394531 531.800781 554.167969 530.777344 554.917969 C 529.753906 555.667969 528.671875 556.394531 527.535156 557.097656 C 526.402344 557.800781 525.214844 558.476562 523.980469 559.125 C 522.742188 559.773438 521.464844 560.390625 520.136719 560.976562 C 518.8125 561.5625 517.453125 562.117188 516.050781 562.636719 C 514.652344 563.15625 513.21875 563.640625 511.757812 564.089844 C 510.292969 564.535156 508.808594 564.945312 507.296875 565.316406 C 505.785156 565.691406 504.257812 566.023438 502.714844 566.3125 C 501.171875 566.605469 499.617188 566.855469 498.054688 567.066406 C 496.492188 567.273438 494.925781 567.441406 493.359375 567.566406 C 491.792969 567.691406 490.234375 567.773438 488.675781 567.8125 C 487.121094 567.851562 485.582031 567.847656 484.050781 567.800781 C 482.523438 567.753906 481.015625 567.664062 479.527344 567.53125 C 478.039062 567.398438 476.578125 567.222656 475.148438 567.003906 C 473.714844 566.785156 472.316406 566.527344 470.953125 566.230469 C 469.589844 565.929688 468.269531 565.589844 466.988281 565.210938 C 465.707031 564.832031 464.476562 564.414062 463.289062 563.957031 C 462.101562 563.503906 460.96875 563.011719 459.890625 562.484375 C 458.808594 561.960938 457.789062 561.398438 456.824219 560.808594 C 455.863281 560.214844 454.960938 559.589844 454.125 558.9375 C 453.285156 558.285156 452.515625 557.601562 451.8125 556.894531 C 451.109375 556.1875 450.476562 555.457031 449.914062 554.699219 C 449.347656 553.945312 448.859375 553.167969 448.441406 552.375 C 448.023438 551.578125 447.683594 550.765625 447.417969 549.9375 C 447.148438 549.109375 446.960938 548.269531 446.84375 547.417969 C 446.730469 546.5625 446.691406 545.703125 446.734375 544.832031 C 446.773438 543.964844 446.886719 543.089844 447.082031 542.210938 C 447.273438 541.335938 447.542969 540.457031 447.886719 539.582031 C 448.230469 538.703125 448.648438 537.832031 449.140625 536.964844 C 449.636719 536.09375 450.199219 535.234375 450.835938 534.386719 C 451.472656 533.535156 452.175781 532.695312 452.949219 531.871094 C 453.722656 531.046875 454.5625 530.234375 455.464844 529.445312 C 456.367188 528.652344 457.332031 527.878906 458.355469 527.128906 C 459.378906 526.378906 460.460938 525.652344 461.59375 524.949219 C 462.730469 524.246094 463.917969 523.570312 465.152344 522.921875 C 466.390625 522.273438 467.667969 521.65625 468.992188 521.070312 C 470.316406 520.484375 471.679688 519.929688 473.082031 519.410156 C 474.480469 518.890625 475.914062 518.40625 477.375 517.957031 C 478.835938 517.511719 480.324219 517.101562 481.835938 516.730469 C 483.34375 516.355469 484.871094 516.023438 486.417969 515.734375 C 487.960938 515.441406 489.515625 515.191406 491.078125 514.980469 C 492.640625 514.773438 494.207031 514.605469 495.773438 514.480469 C 497.339844 514.355469 498.898438 514.273438 500.453125 514.234375 C 502.007812 514.195312 503.550781 514.199219 505.082031 514.246094 C 506.609375 514.292969 508.117188 514.382812 509.605469 514.515625 C 511.09375 514.648438 512.550781 514.824219 513.984375 515.042969 C 515.417969 515.261719 516.816406 515.519531 518.179688 515.816406 C 519.539062 516.117188 520.863281 516.457031 522.144531 516.835938 C 523.425781 517.214844 524.65625 517.632812 525.84375 518.089844 C 527.027344 518.542969 528.164062 519.035156 529.242188 519.5625 C 530.320312 520.085938 531.34375 520.648438 532.304688 521.238281 C 533.269531 521.832031 534.171875 522.457031 535.007812 523.109375 C 535.84375 523.761719 536.617188 524.445312 537.320312 525.152344 C 538.023438 525.859375 538.65625 526.589844 539.21875 527.347656 C 539.78125 528.101562 540.273438 528.878906 540.691406 529.671875 C 541.105469 530.46875 541.449219 531.28125 541.714844 532.109375 C 541.984375 532.9375 542.171875 533.777344 542.289062 534.628906 Z M 542.289062 534.628906 " fill-opacity="1" fill-rule="nonzero"/><path fill="#000000" d="M 224.574219 497.039062 C 225.265625 497.132812 225.949219 497.277344 226.625 497.476562 C 227.300781 497.679688 227.964844 497.929688 228.613281 498.234375 C 229.265625 498.535156 229.902344 498.890625 230.523438 499.292969 C 231.144531 499.695312 231.746094 500.148438 232.328125 500.648438 C 232.914062 501.148438 233.476562 501.695312 234.015625 502.289062 C 234.558594 502.878906 235.078125 503.515625 235.570312 504.195312 C 236.066406 504.871094 236.535156 505.589844 236.976562 506.347656 C 237.421875 507.109375 237.835938 507.902344 238.222656 508.734375 C 238.605469 509.5625 238.964844 510.425781 239.289062 511.320312 C 239.617188 512.214844 239.910156 513.140625 240.171875 514.089844 C 240.4375 515.039062 240.667969 516.015625 240.863281 517.011719 C 241.0625 518.007812 241.222656 519.023438 241.355469 520.058594 C 241.484375 521.09375 241.578125 522.140625 241.640625 523.203125 C 241.699219 524.265625 241.726562 525.335938 241.71875 526.414062 C 241.707031 527.492188 241.664062 528.574219 241.585938 529.65625 C 241.507812 530.742188 241.398438 531.824219 241.25 532.90625 C 241.101562 533.984375 240.921875 535.058594 240.710938 536.125 C 240.496094 537.191406 240.25 538.246094 239.96875 539.285156 C 239.691406 540.328125 239.378906 541.351562 239.039062 542.359375 C 238.699219 543.367188 238.328125 544.351562 237.925781 545.3125 C 237.523438 546.277344 237.097656 547.210938 236.640625 548.121094 C 236.183594 549.027344 235.703125 549.90625 235.195312 550.753906 C 234.691406 551.597656 234.160156 552.410156 233.605469 553.183594 C 233.054688 553.960938 232.480469 554.699219 231.886719 555.394531 C 231.292969 556.09375 230.683594 556.75 230.054688 557.359375 C 229.425781 557.972656 228.78125 558.542969 228.125 559.0625 C 227.464844 559.585938 226.796875 560.058594 226.117188 560.488281 C 225.4375 560.914062 224.75 561.289062 224.054688 561.617188 C 223.355469 561.941406 222.65625 562.21875 221.949219 562.441406 C 221.246094 562.664062 220.539062 562.835938 219.828125 562.957031 C 219.121094 563.074219 218.414062 563.140625 217.710938 563.152344 C 217.007812 563.164062 216.308594 563.125 215.617188 563.027344 C 214.925781 562.933594 214.238281 562.789062 213.566406 562.589844 C 212.890625 562.390625 212.226562 562.136719 211.574219 561.835938 C 210.925781 561.53125 210.289062 561.179688 209.667969 560.773438 C 209.046875 560.371094 208.445312 559.917969 207.863281 559.417969 C 207.277344 558.917969 206.714844 558.371094 206.171875 557.78125 C 205.632812 557.1875 205.113281 556.550781 204.617188 555.871094 C 204.125 555.195312 203.65625 554.476562 203.214844 553.71875 C 202.769531 552.960938 202.355469 552.164062 201.96875 551.335938 C 201.582031 550.503906 201.226562 549.640625 200.902344 548.746094 C 200.574219 547.851562 200.28125 546.929688 200.019531 545.976562 C 199.753906 545.027344 199.523438 544.050781 199.328125 543.054688 C 199.128906 542.058594 198.96875 541.042969 198.835938 540.007812 C 198.707031 538.972656 198.613281 537.925781 198.550781 536.863281 C 198.492188 535.800781 198.464844 534.734375 198.472656 533.65625 C 198.484375 532.578125 198.527344 531.496094 198.605469 530.410156 C 198.683594 529.324219 198.792969 528.242188 198.941406 527.164062 C 199.085938 526.082031 199.269531 525.007812 199.480469 523.941406 C 199.695312 522.875 199.941406 521.820312 200.222656 520.78125 C 200.5 519.738281 200.8125 518.714844 201.152344 517.707031 C 201.492188 516.699219 201.863281 515.714844 202.265625 514.753906 C 202.664062 513.792969 203.09375 512.855469 203.550781 511.949219 C 204.007812 511.039062 204.488281 510.160156 204.996094 509.316406 C 205.5 508.46875 206.03125 507.65625 206.585938 506.882812 C 207.136719 506.105469 207.710938 505.371094 208.304688 504.671875 C 208.898438 503.972656 209.507812 503.320312 210.136719 502.707031 C 210.765625 502.09375 211.410156 501.527344 212.066406 501.003906 C 212.722656 500.480469 213.394531 500.007812 214.074219 499.582031 C 214.753906 499.152344 215.441406 498.777344 216.136719 498.449219 C 216.835938 498.125 217.535156 497.847656 218.242188 497.625 C 218.945312 497.402344 219.652344 497.230469 220.359375 497.113281 C 221.070312 496.992188 221.773438 496.929688 222.480469 496.914062 C 223.183594 496.902344 223.882812 496.945312 224.574219 497.039062 Z M 224.574219 497.039062 " fill-opacity="1" fill-rule="nonzero"/><path fill="#000000" d="M 454.765625 508.941406 C 455.050781 509.878906 455.304688 510.820312 455.527344 511.769531 C 455.75 512.722656 455.9375 513.675781 456.09375 514.632812 C 456.246094 515.585938 456.363281 516.542969 456.449219 517.496094 C 456.535156 518.449219 456.582031 519.398438 456.597656 520.339844 C 456.613281 521.28125 456.589844 522.210938 456.535156 523.132812 C 456.480469 524.050781 456.386719 524.957031 456.261719 525.847656 C 456.136719 526.734375 455.976562 527.605469 455.78125 528.457031 C 455.585938 529.308594 455.359375 530.136719 455.097656 530.941406 C 454.835938 531.746094 454.542969 532.523438 454.214844 533.269531 C 453.890625 534.019531 453.535156 534.738281 453.148438 535.425781 C 452.761719 536.113281 452.34375 536.769531 451.902344 537.386719 C 451.457031 538.007812 450.988281 538.589844 450.488281 539.132812 C 449.992188 539.679688 449.46875 540.183594 448.925781 540.648438 C 448.378906 541.113281 447.8125 541.535156 447.222656 541.917969 C 446.636719 542.296875 446.027344 542.632812 445.402344 542.925781 C 444.777344 543.21875 444.132812 543.46875 443.476562 543.667969 C 442.820312 543.871094 442.148438 544.027344 441.46875 544.136719 C 440.785156 544.246094 440.09375 544.308594 439.394531 544.324219 C 438.691406 544.339844 437.984375 544.3125 437.273438 544.234375 C 436.558594 544.15625 435.84375 544.03125 435.128906 543.859375 C 434.410156 543.6875 433.695312 543.472656 432.980469 543.207031 C 432.261719 542.945312 431.550781 542.640625 430.847656 542.289062 C 430.140625 541.9375 429.441406 541.542969 428.75 541.105469 C 428.058594 540.667969 427.378906 540.191406 426.710938 539.671875 C 426.042969 539.15625 425.390625 538.597656 424.75 538.003906 C 424.113281 537.410156 423.488281 536.777344 422.886719 536.113281 C 422.28125 535.449219 421.695312 534.75 421.132812 534.023438 C 420.570312 533.292969 420.027344 532.535156 419.511719 531.746094 C 418.996094 530.960938 418.503906 530.148438 418.035156 529.3125 C 417.570312 528.476562 417.132812 527.621094 416.722656 526.742188 C 416.3125 525.863281 415.929688 524.972656 415.578125 524.058594 C 415.230469 523.148438 414.910156 522.226562 414.621094 521.292969 C 414.335938 520.355469 414.078125 519.414062 413.859375 518.460938 C 413.636719 517.511719 413.449219 516.558594 413.292969 515.601562 C 413.140625 514.644531 413.019531 513.691406 412.9375 512.738281 C 412.851562 511.78125 412.804688 510.835938 412.789062 509.894531 C 412.773438 508.953125 412.796875 508.023438 412.851562 507.101562 C 412.90625 506.183594 413 505.277344 413.125 504.386719 C 413.25 503.496094 413.410156 502.625 413.605469 501.777344 C 413.800781 500.925781 414.027344 500.097656 414.289062 499.292969 C 414.550781 498.488281 414.84375 497.710938 415.171875 496.960938 C 415.496094 496.210938 415.851562 495.492188 416.238281 494.804688 C 416.625 494.117188 417.039062 493.464844 417.484375 492.84375 C 417.929688 492.226562 418.398438 491.644531 418.898438 491.101562 C 419.394531 490.554688 419.914062 490.050781 420.460938 489.585938 C 421.007812 489.121094 421.574219 488.699219 422.164062 488.316406 C 422.75 487.9375 423.359375 487.597656 423.984375 487.304688 C 424.609375 487.011719 425.25 486.765625 425.910156 486.5625 C 426.566406 486.359375 427.234375 486.207031 427.917969 486.09375 C 428.601562 485.984375 429.292969 485.921875 429.992188 485.90625 C 430.695312 485.890625 431.402344 485.921875 432.113281 486 C 432.824219 486.078125 433.539062 486.203125 434.257812 486.375 C 434.976562 486.542969 435.691406 486.761719 436.40625 487.023438 C 437.121094 487.285156 437.832031 487.59375 438.539062 487.945312 C 439.246094 488.296875 439.945312 488.691406 440.636719 489.128906 C 441.328125 489.5625 442.003906 490.042969 442.675781 490.558594 C 443.34375 491.078125 443.996094 491.636719 444.636719 492.230469 C 445.273438 492.824219 445.898438 493.453125 446.5 494.121094 C 447.105469 494.785156 447.691406 495.480469 448.253906 496.210938 C 448.816406 496.941406 449.355469 497.699219 449.875 498.484375 C 450.390625 499.273438 450.882812 500.082031 451.351562 500.917969 C 451.816406 501.753906 452.253906 502.613281 452.664062 503.488281 C 453.074219 504.367188 453.457031 505.261719 453.804688 506.171875 C 454.15625 507.082031 454.476562 508.007812 454.765625 508.941406 Z M 454.765625 508.941406 " fill-opacity="1" fill-rule="nonzero"/><path fill="#000000" d="M 326.609375 545.332031 C 320.492188 553.476562 311.023438 557.25 300.296875 558.085938 C 299.996094 558.109375 299.699219 558.105469 299.398438 558.070312 C 299.097656 558.035156 298.804688 557.972656 298.519531 557.878906 C 298.230469 557.785156 297.957031 557.667969 297.691406 557.519531 C 297.429688 557.371094 297.183594 557.199219 296.953125 557.003906 C 296.722656 556.808594 296.515625 556.59375 296.328125 556.359375 C 296.140625 556.121094 295.980469 555.867188 295.84375 555.601562 C 295.707031 555.332031 295.59375 555.050781 295.511719 554.761719 C 295.429688 554.472656 295.378906 554.175781 295.355469 553.875 C 295.328125 553.574219 295.335938 553.277344 295.371094 552.976562 C 295.40625 552.675781 295.46875 552.382812 295.5625 552.097656 C 295.65625 551.808594 295.773438 551.535156 295.921875 551.273438 C 296.066406 551.007812 296.238281 550.761719 296.433594 550.53125 C 296.628906 550.304688 296.847656 550.09375 297.082031 549.90625 C 297.320312 549.71875 297.570312 549.558594 297.839844 549.421875 C 298.109375 549.285156 298.386719 549.175781 298.679688 549.09375 C 298.96875 549.007812 299.261719 548.957031 299.5625 548.933594 C 309.242188 548.128906 317.664062 544.738281 321.75 535.445312 C 322.082031 534.667969 322.585938 534.03125 323.265625 533.535156 C 323.949219 533.035156 324.710938 532.75 325.550781 532.671875 C 326.390625 532.597656 327.191406 532.742188 327.949219 533.105469 C 328.710938 533.472656 329.324219 534.007812 329.789062 534.710938 C 336.777344 545.195312 347.746094 547.882812 359.660156 547.21875 C 359.964844 547.203125 360.265625 547.210938 360.5625 547.253906 C 360.863281 547.292969 361.15625 547.363281 361.441406 547.460938 C 361.730469 547.5625 362.003906 547.6875 362.261719 547.839844 C 362.523438 547.996094 362.769531 548.171875 362.992188 548.371094 C 363.21875 548.574219 363.421875 548.796875 363.605469 549.039062 C 363.789062 549.28125 363.945312 549.539062 364.074219 549.808594 C 364.207031 550.082031 364.308594 550.367188 364.382812 550.660156 C 364.457031 550.953125 364.503906 551.25 364.519531 551.554688 C 364.53125 551.855469 364.515625 552.152344 364.472656 552.453125 C 364.429688 552.75 364.355469 553.039062 364.257812 553.324219 C 364.15625 553.609375 364.027344 553.878906 363.875 554.140625 C 363.722656 554.398438 363.542969 554.640625 363.34375 554.867188 C 363.144531 555.089844 362.921875 555.292969 362.683594 555.476562 C 362.441406 555.660156 362.1875 555.816406 361.917969 555.949219 C 361.644531 556.082031 361.363281 556.183594 361.074219 556.261719 C 360.78125 556.339844 360.484375 556.390625 360.183594 556.410156 C 347.292969 557.109375 335.308594 554.207031 326.609375 545.332031 Z M 326.609375 545.332031 " fill-opacity="1" fill-rule="evenodd"/><path fill="#ffffff" d="M 697.324219 447.152344 C 698.117188 455.398438 698.699219 463.804688 699.070312 472.378906 C 699.699219 486.730469 699.011719 501.023438 697.007812 515.25 C 707.699219 522.726562 714.375 517.078125 717.03125 498.304688 C 729.726562 489.242188 730.15625 479.179688 718.324219 468.117188 C 715.597656 448.222656 708.609375 441.234375 697.359375 447.152344 Z M 697.324219 447.152344 " fill-opacity="1" fill-rule="evenodd"/></svg>