<svg xmlns="http://www.w3.org/2000/svg" xmlns:xlink="http://www.w3.org/1999/xlink" width="1000" zoomAndPan="magnify" viewBox="0 0 750 749.999995" height="1000" preserveAspectRatio="xMidYMid meet" version="1.0"><defs><clipPath id="bdfb39b5f5"><path d="M 0 80 L 749 80 L 749 670.5 L 0 670.5 Z M 0 80 " clip-rule="nonzero"/></clipPath></defs><g clip-path="url(#bdfb39b5f5)"><path fill="#000000" d="M 650.246094 525.238281 C 650.492188 522.167969 651.136719 519.1875 652.175781 516.289062 C 653.214844 513.390625 654.617188 510.679688 656.375 508.15625 C 666.640625 492.949219 679.910156 479.257812 696.894531 471.699219 C 697.390625 471.480469 697.898438 471.289062 698.414062 471.125 C 698.925781 470.957031 699.449219 470.816406 699.980469 470.703125 C 700.507812 470.589844 701.042969 470.5 701.582031 470.441406 C 702.117188 470.382812 702.660156 470.347656 703.199219 470.34375 C 703.742188 470.339844 704.28125 470.359375 704.820312 470.410156 C 705.359375 470.460938 705.894531 470.535156 706.425781 470.640625 C 706.957031 470.742188 707.484375 470.871094 708 471.027344 C 708.519531 471.1875 709.03125 471.367188 709.53125 471.574219 C 710.027344 471.785156 710.515625 472.015625 710.992188 472.273438 C 711.46875 472.53125 711.933594 472.8125 712.378906 473.117188 C 712.828125 473.421875 713.261719 473.746094 713.675781 474.09375 C 714.089844 474.441406 714.488281 474.8125 714.863281 475.199219 C 715.242188 475.585938 715.601562 475.992188 715.9375 476.417969 C 716.273438 476.839844 716.589844 477.28125 716.878906 477.738281 C 717.171875 478.191406 717.441406 478.664062 717.6875 479.144531 C 717.929688 479.628906 718.152344 480.121094 718.347656 480.628906 C 725.335938 498.484375 724.890625 516.339844 714.628906 531.992188 C 730.394531 536.636719 743.097656 545.085938 747.945312 563.390625 C 748.1875 564.277344 748.351562 565.175781 748.433594 566.09375 C 748.519531 567.007812 748.523438 567.925781 748.449219 568.839844 C 748.375 569.757812 748.222656 570.660156 747.992188 571.550781 C 747.761719 572.441406 747.457031 573.304688 747.078125 574.140625 C 746.699219 574.976562 746.25 575.773438 745.730469 576.535156 C 745.210938 577.292969 744.632812 578.003906 743.992188 578.660156 C 743.351562 579.320312 742.660156 579.917969 741.914062 580.457031 C 741.167969 580.996094 740.382812 581.46875 739.558594 581.871094 C 714.746094 594.21875 689.519531 594.90625 665.777344 580.023438 C 663.222656 578.417969 660.902344 576.523438 658.816406 574.339844 C 616.777344 606.421875 566.292969 620.734375 514.707031 627.164062 C 514.707031 627.820312 514.707031 628.503906 514.707031 629.1875 C 514.707031 629.871094 514.707031 631.121094 514.558594 632.164062 C 513.1875 652.011719 496.292969 661.238281 477.785156 658.945312 C 476.40625 659.785156 475.144531 660.773438 474.007812 661.921875 C 473.398438 662.550781 472.761719 663.148438 472.09375 663.714844 C 471.425781 664.28125 470.730469 664.8125 470.007812 665.308594 C 469.289062 665.804688 468.546875 666.265625 467.78125 666.6875 C 467.011719 667.113281 466.226562 667.496094 465.425781 667.84375 C 464.621094 668.191406 463.800781 668.496094 462.96875 668.761719 C 462.132812 669.027344 461.289062 669.25 460.433594 669.429688 C 459.574219 669.613281 458.710938 669.753906 457.84375 669.847656 C 456.972656 669.945312 456.101562 670 455.226562 670.007812 C 454.347656 670.019531 453.476562 669.988281 452.605469 669.910156 C 451.730469 669.835938 450.867188 669.714844 450.003906 669.554688 C 449.144531 669.394531 448.296875 669.191406 447.453125 668.945312 C 446.613281 668.699219 445.789062 668.414062 444.976562 668.085938 C 444.164062 667.757812 443.371094 667.390625 442.59375 666.988281 C 441.820312 666.582031 441.066406 666.140625 440.332031 665.660156 C 439.601562 665.179688 438.894531 664.664062 438.214844 664.113281 C 437.53125 663.566406 436.878906 662.984375 436.253906 662.367188 C 419.65625 663.796875 405.285156 655.671875 401.597656 638.5625 C 401.300781 637.191406 401.0625 635.824219 400.882812 634.425781 C 400.824219 633.699219 400.824219 632.976562 400.882812 632.253906 C 370.351562 632.035156 339.964844 629.804688 309.726562 625.558594 C 286.753906 622.304688 264.132812 617.414062 241.867188 610.886719 C 235.917969 609.128906 229.96875 607.253906 224.019531 605.230469 C 221.785156 604.496094 219.800781 603.335938 218.066406 601.75 C 200.21875 614.933594 175.050781 613.027344 153.660156 604.726562 C 151.691406 603.957031 149.777344 603.074219 147.917969 602.078125 C 147.347656 602.867188 146.714844 603.601562 146.011719 604.277344 C 122.867188 626.957031 93.117188 631.210938 65.746094 612.285156 C 55.839844 605.5 45.667969 600.203125 33.617188 598.773438 C 21.0625 597.285156 12.046875 589.339844 4.460938 579.816406 C 4.039062 579.289062 3.652344 578.738281 3.300781 578.160156 C 2.949219 577.582031 2.632812 576.988281 2.355469 576.371094 C 2.082031 575.753906 1.84375 575.121094 1.644531 574.476562 C 1.449219 573.832031 1.292969 573.175781 1.179688 572.507812 C 1.066406 571.84375 0.992188 571.171875 0.964844 570.496094 C 0.933594 569.820312 0.945312 569.148438 1.003906 568.472656 C 1.058594 567.800781 1.15625 567.132812 1.296875 566.472656 C 1.4375 565.8125 1.617188 565.160156 1.839844 564.523438 C 2.0625 563.886719 2.324219 563.261719 2.625 562.660156 C 2.921875 562.054688 3.261719 561.46875 3.636719 560.90625 C 4.011719 560.34375 4.417969 559.808594 4.859375 559.296875 C 5.300781 558.785156 5.773438 558.304688 6.277344 557.855469 C 6.78125 557.402344 7.308594 556.984375 7.867188 556.601562 C 8.421875 556.214844 9 555.867188 9.597656 555.558594 C 10.199219 555.246094 10.816406 554.972656 11.449219 554.742188 C 12.082031 554.507812 12.730469 554.316406 13.386719 554.164062 C 21.808594 552.441406 29.890625 549.714844 37.632812 545.980469 C 39.496094 544.972656 41.476562 544.367188 43.582031 544.164062 C 44.433594 536.207031 46.773438 528.71875 50.605469 521.695312 C 56.734375 510.148438 69.257812 504.941406 81.753906 504.136719 C 87.046875 503.800781 92.207031 504.496094 97.222656 506.222656 C 61.820312 439.234375 61.523438 364.984375 99.871094 295.109375 L 100.347656 294.246094 C 97.507812 294.230469 94.6875 293.992188 91.882812 293.539062 C 89.078125 293.082031 86.328125 292.414062 83.628906 291.527344 C 80.929688 290.644531 78.316406 289.558594 75.789062 288.265625 C 73.257812 286.976562 70.84375 285.496094 68.542969 283.828125 C 68.203125 283.597656 67.921875 283.308594 67.703125 282.964844 C 67.480469 282.617188 67.339844 282.238281 67.273438 281.835938 C 67.210938 281.429688 67.230469 281.027344 67.332031 280.628906 C 67.433594 280.230469 67.609375 279.867188 67.859375 279.542969 C 67.972656 279.363281 68.105469 279.199219 68.253906 279.046875 C 68.402344 278.894531 68.566406 278.761719 68.742188 278.644531 C 68.921875 278.527344 69.109375 278.433594 69.308594 278.355469 C 69.507812 278.28125 69.710938 278.226562 69.921875 278.191406 C 70.128906 278.160156 70.339844 278.148438 70.554688 278.164062 C 70.765625 278.175781 70.972656 278.210938 71.179688 278.269531 C 71.382812 278.324219 71.578125 278.40625 71.765625 278.503906 C 71.957031 278.605469 72.128906 278.722656 72.292969 278.859375 C 74.574219 280.496094 76.976562 281.925781 79.503906 283.15625 C 82.027344 284.382812 84.636719 285.390625 87.332031 286.175781 C 90.027344 286.960938 92.769531 287.515625 95.558594 287.835938 C 98.347656 288.15625 101.144531 288.238281 103.945312 288.085938 C 131.019531 241.601562 167.910156 206.363281 217.292969 184.582031 C 199.175781 163.988281 190.519531 138.273438 201.289062 108.457031 C 208.28125 89.054688 226.664062 75.722656 247.492188 82.355469 C 265.339844 88.011719 274.085938 105.035156 272.066406 122.472656 C 272.660156 122.351562 273.261719 122.265625 273.867188 122.210938 C 274.472656 122.160156 275.078125 122.140625 275.683594 122.15625 C 276.292969 122.171875 276.898438 122.222656 277.5 122.308594 C 278.101562 122.390625 278.695312 122.511719 279.28125 122.664062 C 279.871094 122.816406 280.449219 123 281.015625 123.21875 C 281.582031 123.433594 282.136719 123.683594 282.675781 123.964844 C 283.214844 124.246094 283.734375 124.554688 284.238281 124.894531 C 284.742188 125.234375 285.226562 125.601562 285.6875 125.996094 C 286.152344 126.390625 286.589844 126.808594 287.003906 127.253906 C 287.417969 127.699219 287.808594 128.164062 288.167969 128.652344 C 288.53125 129.140625 288.863281 129.648438 289.167969 130.175781 C 289.472656 130.699219 289.746094 131.242188 289.988281 131.800781 C 290.230469 132.355469 290.441406 132.925781 290.621094 133.507812 C 290.796875 134.085938 290.945312 134.675781 291.054688 135.273438 C 291.167969 135.871094 291.242188 136.472656 291.285156 137.078125 C 291.328125 137.6875 291.339844 138.292969 291.3125 138.898438 C 291.261719 141.457031 290.9375 143.984375 290.347656 146.472656 C 289.757812 148.964844 288.910156 151.363281 287.804688 153.671875 C 286.703125 155.980469 285.371094 158.148438 283.804688 160.175781 C 282.238281 162.199219 280.476562 164.035156 278.519531 165.683594 C 343.761719 152.46875 406.207031 157.855469 466.988281 185.445312 C 464.863281 181.367188 463.742188 177.035156 463.625 172.4375 C 463.601562 171.320312 463.65625 170.203125 463.792969 169.089844 C 463.925781 167.976562 464.132812 166.878906 464.417969 165.792969 C 464.707031 164.710938 465.066406 163.652344 465.5 162.617188 C 465.933594 161.585938 466.4375 160.585938 467.011719 159.625 C 467.582031 158.660156 468.21875 157.742188 468.921875 156.867188 C 469.621094 155.992188 470.378906 155.171875 471.195312 154.402344 C 472.011719 153.636719 472.875 152.925781 473.792969 152.28125 C 474.707031 151.632812 475.660156 151.050781 476.65625 150.535156 C 486.144531 145.386719 496.5 146.398438 503.429688 153.691406 C 514.347656 139.675781 529.34375 127.441406 548.054688 135.476562 C 578.34375 148.511719 584.082031 176.277344 566.351562 202.941406 C 562.90625 208.324219 558.953125 213.300781 554.488281 217.871094 C 550.023438 222.441406 545.144531 226.511719 539.84375 230.082031 C 557.65625 244.085938 573.105469 260.335938 586.195312 278.828125 C 590.511719 275.648438 595.191406 273.148438 600.234375 271.332031 C 605.277344 269.511719 610.476562 268.449219 615.828125 268.144531 C 648.34375 265.765625 678.003906 284.691406 685.175781 317.1875 C 686.105469 321.941406 686.390625 326.734375 686.039062 331.5625 C 686.039062 331.980469 686.039062 332.515625 686.039062 333.050781 C 691.761719 332.53125 697.425781 331.617188 703.023438 330.3125 C 704.5 329.984375 705.992188 329.867188 707.503906 329.964844 C 709.011719 330.058594 710.476562 330.359375 711.902344 330.871094 C 713.324219 331.378906 714.648438 332.078125 715.875 332.960938 C 717.101562 333.84375 718.183594 334.882812 719.117188 336.074219 C 720.050781 337.261719 720.800781 338.558594 721.367188 339.960938 C 721.933594 341.363281 722.292969 342.816406 722.449219 344.320312 C 722.605469 345.828125 722.546875 347.324219 722.28125 348.8125 C 722.011719 350.300781 721.542969 351.722656 720.875 353.078125 C 707.308594 380.546875 683.269531 390.277344 654.621094 379.089844 C 653.839844 378.792969 653.03125 378.640625 652.195312 378.640625 C 651.359375 378.640625 650.550781 378.792969 649.773438 379.089844 C 648.671875 379.472656 647.546875 379.726562 646.390625 379.855469 C 645.234375 379.988281 644.078125 379.988281 642.925781 379.859375 C 641.769531 379.730469 640.640625 379.476562 639.542969 379.09375 C 638.445312 378.714844 637.402344 378.214844 636.414062 377.601562 C 633.136719 379.789062 629.65625 381.585938 625.972656 382.988281 C 625.972656 383.402344 626.148438 383.851562 626.210938 384.265625 C 627.628906 395.390625 628.421875 406.5625 628.589844 417.777344 C 628.886719 437.773438 624.277344 459.023438 620.882812 478.722656 C 619.070312 489.347656 620.230469 498.898438 626.835938 507.53125 C 630.058594 511.296875 633.640625 514.6875 637.582031 517.695312 C 641.523438 520.707031 645.734375 523.269531 650.21875 525.386719 Z M 650.246094 525.238281 " fill-opacity="1" fill-rule="evenodd"/></g><path fill="#b3dd6d" d="M 129.769531 528.035156 C 78.449219 456.820312 73.570312 376.617188 113.941406 302.816406 C 115.964844 299.15625 118.019531 295.582031 120.132812 292.101562 C 125.8125 290.808594 131.386719 289.152344 136.851562 287.132812 C 150.179688 282.25 164.308594 282.042969 173.53125 294.15625 C 173.777344 294.480469 174.078125 294.746094 174.429688 294.953125 C 174.78125 295.160156 175.160156 295.289062 175.566406 295.347656 C 175.96875 295.402344 176.371094 295.378906 176.765625 295.273438 C 177.160156 295.171875 177.519531 294.996094 177.847656 294.75 C 178.171875 294.503906 178.4375 294.203125 178.644531 293.851562 C 178.851562 293.5 178.980469 293.121094 179.035156 292.714844 C 179.09375 292.3125 179.070312 291.910156 178.964844 291.515625 C 178.863281 291.121094 178.6875 290.761719 178.441406 290.433594 C 167.492188 276.03125 150.714844 275.554688 134.738281 281.507812 C 131.484375 282.699219 128.183594 283.769531 124.832031 284.722656 C 154.253906 239.398438 190.726562 212.703125 229.699219 196.722656 C 234.746094 201.023438 240.042969 204.992188 245.585938 208.625 C 246.847656 209.445312 248.199219 210.078125 249.640625 210.515625 C 251.078125 210.957031 252.550781 211.191406 254.054688 211.214844 C 255.5625 211.242188 257.039062 211.058594 258.496094 210.671875 C 259.949219 210.28125 261.320312 209.699219 262.609375 208.921875 C 263.902344 208.148438 265.058594 207.207031 266.085938 206.105469 C 267.113281 205.007812 267.964844 203.785156 268.648438 202.441406 C 269.332031 201.101562 269.816406 199.691406 270.105469 198.214844 C 270.390625 196.734375 270.46875 195.246094 270.339844 193.746094 C 270.160156 191.871094 269.953125 188.0625 269.921875 183.957031 L 272.628906 183.332031 C 338.914062 168.125 405.195312 171.785156 472.132812 205.652344 C 470.929688 207.109375 469.648438 208.496094 468.296875 209.816406 C 467.800781 210.292969 467.335938 210.796875 466.90625 211.332031 C 466.472656 211.863281 466.078125 212.425781 465.71875 213.011719 C 465.359375 213.59375 465.039062 214.199219 464.757812 214.828125 C 464.476562 215.453125 464.238281 216.09375 464.039062 216.753906 C 463.839844 217.410156 463.683594 218.078125 463.570312 218.753906 C 463.457031 219.429688 463.386719 220.113281 463.359375 220.796875 C 463.332031 221.484375 463.351562 222.171875 463.414062 222.855469 C 463.476562 223.539062 463.582031 224.214844 463.730469 224.886719 C 463.878906 225.554688 464.070312 226.214844 464.304688 226.859375 C 464.535156 227.503906 464.808594 228.132812 465.125 228.742188 C 465.4375 229.355469 465.789062 229.941406 466.179688 230.507812 C 466.570312 231.074219 466.992188 231.613281 467.453125 232.121094 C 467.910156 232.632812 468.398438 233.113281 468.921875 233.5625 C 469.441406 234.007812 469.988281 234.421875 470.5625 234.800781 C 471.132812 235.175781 471.730469 235.515625 472.34375 235.820312 C 472.960938 236.121094 473.597656 236.378906 474.246094 236.601562 C 478.183594 238.058594 482.214844 239.183594 486.335938 239.980469 C 490.460938 240.773438 494.617188 241.226562 498.816406 241.339844 C 503.011719 241.449219 507.191406 241.21875 511.347656 240.640625 C 515.507812 240.066406 519.59375 239.15625 523.601562 237.910156 L 525.269531 239.160156 C 534.933594 246.289062 543.949219 254.171875 552.304688 262.800781 C 560.664062 271.429688 568.25 280.691406 575.070312 290.585938 C 574.535156 291.359375 574 292.160156 573.492188 292.964844 C 570.820312 297.445312 568.710938 302.179688 567.171875 307.164062 C 565.632812 312.152344 564.707031 317.246094 564.390625 322.457031 C 544.308594 311.980469 523.484375 311.921875 502.417969 324.957031 C 502.074219 325.167969 501.78125 325.441406 501.542969 325.769531 C 501.304688 326.097656 501.140625 326.460938 501.046875 326.855469 C 500.953125 327.25 500.9375 327.648438 501 328.050781 C 501.066406 328.449219 501.207031 328.824219 501.417969 329.171875 C 501.632812 329.515625 501.902344 329.808594 502.234375 330.046875 C 502.5625 330.28125 502.925781 330.449219 503.320312 330.542969 C 503.714844 330.632812 504.113281 330.648438 504.511719 330.582031 C 504.914062 330.519531 505.289062 330.378906 505.632812 330.164062 C 525.742188 317.753906 545.171875 318.4375 564.152344 329.300781 C 564.199219 334.996094 564.714844 340.652344 565.699219 346.265625 C 569.980469 370.875 587.921875 387.242188 610.324219 386.289062 C 611.675781 396.800781 612.429688 407.355469 612.585938 417.953125 C 612.820312 434.828125 608.867188 454.054688 605.117188 475.957031 C 599.433594 509.136719 618.117188 529.789062 656.347656 545.621094 C 661.523438 547.796875 657.417969 555.117188 649.710938 561.039062 C 600.683594 598.714844 537.496094 612.105469 459.964844 615.261719 C 375.269531 618.710938 299.109375 614.039062 229.523438 590.054688 C 230.058594 589.21875 230.59375 588.386719 231.097656 587.523438 C 236.722656 578.03125 235.265625 567.734375 234.074219 557.378906 C 233.152344 549.34375 228.988281 542.496094 220.863281 540.148438 C 218.464844 539.527344 216.03125 539.316406 213.5625 539.523438 C 211.09375 539.726562 208.730469 540.332031 206.464844 541.335938 C 205.316406 539.933594 204.328125 538.425781 203.492188 536.8125 C 196.082031 522.679688 183.140625 520.058594 171.390625 528.898438 C 158.597656 512.976562 140.570312 513.363281 131.109375 529.730469 L 129.890625 528.035156 Z M 129.769531 528.035156 " fill-opacity="1" fill-rule="evenodd"/><path fill="#defeb2" d="M 366.34375 615.023438 C 323.957031 613.199219 282.425781 606.253906 241.75 594.191406 C 236.125 552.109375 244.308594 520.921875 264.746094 499.136719 C 286.730469 475.6875 311.75 474.320312 334.035156 502.859375 C 345.933594 518.035156 351.46875 538.570312 354.859375 559.90625 C 357.644531 578.539062 361.484375 596.949219 366.371094 615.140625 Z M 366.34375 615.023438 " fill-opacity="1" fill-rule="evenodd"/><path fill="#c79a59" d="M 261.890625 157.203125 C 255.125 162.320312 252.609375 174.949219 254.332031 195.085938 C 219.554688 172.4375 205.277344 144.820312 216.402344 113.871094 C 227.113281 84.113281 262.722656 96.9375 255.375 124.585938 C 251.714844 138.273438 258.824219 142.917969 275.277344 138.214844 C 275.261719 139.246094 275.167969 140.269531 275 141.285156 C 274.828125 142.300781 274.585938 143.300781 274.265625 144.277344 C 273.945312 145.257812 273.554688 146.207031 273.09375 147.128906 C 272.632812 148.050781 272.105469 148.933594 271.511719 149.773438 C 270.917969 150.617188 270.265625 151.410156 269.550781 152.152344 C 268.839844 152.898438 268.074219 153.582031 267.261719 154.214844 C 266.445312 154.84375 265.585938 155.40625 264.6875 155.910156 C 263.785156 156.410156 262.855469 156.839844 261.890625 157.203125 Z M 261.890625 157.203125 " fill-opacity="1" fill-rule="evenodd"/><path fill="#c79a59" d="M 553.054688 193.957031 C 534.132812 222.433594 509.203125 231.273438 479.480469 221.304688 C 493.820312 207.40625 494.953125 195.890625 485.433594 184.371094 C 477.519531 174.820312 478.261719 167.828125 484.273438 164.554688 C 488.050781 162.5 490.996094 162.707031 493.195312 166.367188 C 499.148438 176.21875 505.691406 178.6875 510.628906 171.21875 C 521.578125 154.644531 531.457031 145.65625 541.75 150.121094 C 562.097656 158.867188 565.667969 175 553.054688 193.957031 Z M 553.054688 193.957031 " fill-opacity="1" fill-rule="evenodd"/><path fill="#ffffff" d="M 97.667969 550.59375 C 90.976562 548.6875 86.75 552.617188 87.199219 561.871094 C 87.703125 571.722656 83.328125 573.773438 72.144531 568.03125 C 58.90625 561.1875 55.1875 547.527344 64.914062 529.34375 C 68.1875 523.15625 75.921875 520.714844 82.765625 520.417969 C 84.503906 520.320312 86.234375 520.390625 87.957031 520.625 C 89.683594 520.859375 91.371094 521.25 93.019531 521.804688 C 94.671875 522.355469 96.253906 523.058594 97.773438 523.910156 C 99.289062 524.765625 100.710938 525.75 102.042969 526.875 C 113.941406 536.367188 122.066406 545.503906 123.9375 555.117188 C 123.25 562.785156 124.171875 570.253906 126.707031 577.523438 C 128.40625 583.246094 131.28125 588.292969 135.332031 592.671875 C 117.304688 610.082031 96.242188 613.683594 74.96875 599.070312 C 61.285156 589.667969 49.148438 584.429688 35.640625 582.820312 C 27.964844 581.929688 22.132812 576.035156 17.136719 569.789062 C 26.914062 567.785156 36.285156 564.59375 45.25 560.203125 C 50.632812 576.304688 60.304688 586.394531 74.523438 586.988281 C 92.703125 587.703125 102.074219 580.410156 104.453125 568.925781 C 106.566406 558.746094 105.046875 552.644531 97.816406 550.621094 Z M 97.667969 550.59375 " fill-opacity="1" fill-rule="evenodd"/><path fill="#ffffff" d="M 644.773438 363.761719 C 651.875 335.132812 644.933594 317.703125 623.949219 311.476562 C 647.75 329.332031 645.21875 358.347656 620.320312 368.019531 C 602.46875 374.894531 585.363281 366.171875 581.4375 343.617188 C 575.484375 308.738281 590.660156 286.03125 617.136719 284.097656 C 643.613281 282.164062 664.320312 297.101562 669.496094 320.523438 C 673.007812 336.324219 657.773438 356.886719 706.476562 345.816406 C 696.539062 365.964844 681.160156 372.066406 660.453125 363.972656 C 657.933594 363.003906 655.328125 362.503906 652.632812 362.46875 C 649.933594 362.433594 647.316406 362.863281 644.773438 363.761719 Z M 644.773438 363.761719 " fill-opacity="1" fill-rule="evenodd"/><path fill="#c79a59" d="M 218.066406 559.191406 C 219.050781 567.734375 220.0625 574.578125 217.234375 579.371094 C 207.921875 595.082031 187.484375 600.558594 159.847656 589.695312 C 140.71875 582.195312 134.945312 563.359375 143.304688 541.21875 C 147.261719 530.652344 152.828125 531.21875 159.105469 539.34375 C 165.378906 547.46875 173.472656 548.449219 179.511719 542.914062 C 184.152344 538.660156 186.207031 538.570312 189.179688 544.285156 C 195.132812 555.472656 202.835938 560.085938 210.78125 556.84375 C 216.253906 554.640625 217.5625 554.820312 218.066406 559.191406 Z M 218.066406 559.191406 " fill-opacity="1" fill-rule="evenodd"/><path fill="#c79a59" d="M 479.691406 642.816406 C 491.410156 644.335938 498.046875 639.484375 498.640625 630.914062 C 498.640625 630.199219 498.640625 629.515625 498.640625 628.832031 C 485.910156 630.019531 473.144531 630.824219 460.441406 631.328125 C 445.953125 631.925781 431.375 632.3125 416.769531 632.371094 C 416.917969 633.292969 417.066406 634.246094 417.273438 635.347656 C 419.121094 643.886719 425.84375 647.25 435.125 646.417969 C 436.1875 646.273438 437.253906 646.253906 438.324219 646.355469 C 439.394531 646.457031 440.4375 646.679688 441.457031 647.019531 C 442.472656 647.359375 443.441406 647.808594 444.355469 648.371094 C 445.273438 648.933594 446.113281 649.59375 446.875 650.347656 C 452.203125 655.285156 458.152344 655.167969 462.792969 650.585938 C 469.21875 644.214844 474.367188 642.3125 479.660156 642.996094 Z M 479.691406 642.816406 " fill-opacity="1" fill-rule="evenodd"/><path fill="#defeb2" d="M 669.050781 555.800781 C 667.234375 560.589844 670.179688 563.714844 674.316406 566.304688 C 691.71875 577.226562 710.699219 578.210938 732.417969 567.375 C 728.578125 552.792969 717.125 548.003906 698.949219 544.699219 C 690.796875 543.242188 691.839844 534.730469 698.589844 526.605469 C 708.023438 515.238281 709.421875 501.667969 703.410156 486.371094 C 691.304688 491.757812 679.9375 501.9375 669.675781 517.144531 C 668.746094 518.328125 667.996094 519.617188 667.429688 521.011719 C 666.863281 522.410156 666.503906 523.855469 666.34375 525.351562 C 666.1875 526.851562 666.238281 528.339844 666.503906 529.824219 C 666.765625 531.304688 667.226562 532.722656 667.890625 534.074219 C 668.796875 535.726562 669.511719 537.457031 670.027344 539.265625 C 670.546875 541.078125 670.855469 542.925781 670.957031 544.804688 C 671.058594 546.6875 670.945312 548.554688 670.625 550.410156 C 670.300781 552.265625 669.777344 554.0625 669.050781 555.800781 Z M 669.050781 555.800781 " fill-opacity="1" fill-rule="evenodd"/><path fill="#000000" d="M 259.898438 462.773438 C 260.972656 463.230469 262.023438 463.746094 263.042969 464.320312 C 264.066406 464.894531 265.050781 465.523438 266 466.203125 C 266.953125 466.886719 267.863281 467.621094 268.734375 468.402344 C 269.601562 469.1875 270.425781 470.015625 271.207031 470.890625 C 271.984375 471.765625 272.710938 472.683594 273.386719 473.636719 C 274.066406 474.59375 274.6875 475.582031 275.253906 476.605469 C 275.824219 477.628906 276.332031 478.683594 276.78125 479.765625 C 277.234375 480.84375 277.625 481.945312 277.953125 483.070312 C 278.28125 484.195312 278.550781 485.332031 278.753906 486.484375 C 278.957031 487.640625 279.09375 488.800781 279.167969 489.96875 C 279.246094 491.136719 279.253906 492.308594 279.199219 493.476562 C 279.144531 494.644531 279.027344 495.808594 278.84375 496.964844 C 278.660156 498.121094 278.414062 499.265625 278.105469 500.394531 C 277.796875 501.523438 277.425781 502.632812 276.992188 503.722656 C 276.5625 504.808594 276.070312 505.871094 275.519531 506.90625 C 274.972656 507.941406 274.367188 508.941406 273.707031 509.90625 C 273.046875 510.875 272.335938 511.800781 271.570312 512.691406 C 270.808594 513.578125 270 514.421875 269.144531 515.222656 C 268.285156 516.019531 267.390625 516.769531 266.449219 517.46875 C 265.511719 518.167969 264.535156 518.8125 263.527344 519.40625 C 262.515625 519.996094 261.476562 520.53125 260.40625 521.007812 C 259.335938 521.484375 258.246094 521.898438 257.128906 522.253906 C 256.015625 522.609375 254.882812 522.902344 253.734375 523.132812 C 252.585938 523.363281 251.429688 523.53125 250.265625 523.632812 C 249.097656 523.734375 247.929688 523.773438 246.757812 523.746094 C 245.589844 523.71875 244.421875 523.625 243.261719 523.472656 C 242.101562 523.316406 240.953125 523.09375 239.820312 522.8125 C 238.683594 522.527344 237.566406 522.183594 236.46875 521.777344 C 235.371094 521.371094 234.296875 520.90625 233.25 520.378906 C 232.207031 519.855469 231.191406 519.273438 230.210938 518.636719 C 229.226562 517.996094 228.285156 517.308594 227.378906 516.566406 C 226.472656 515.824219 225.609375 515.035156 224.792969 514.195312 C 224.507812 513.902344 224.253906 513.585938 224.03125 513.242188 C 223.808594 512.898438 223.625 512.539062 223.472656 512.15625 C 223.320312 511.777344 223.207031 511.386719 223.136719 510.984375 C 223.0625 510.582031 223.027344 510.179688 223.03125 509.769531 C 223.039062 509.359375 223.082031 508.957031 223.167969 508.558594 C 223.253906 508.15625 223.378906 507.769531 223.539062 507.394531 C 223.699219 507.019531 223.898438 506.664062 224.128906 506.324219 C 224.359375 505.988281 224.621094 505.679688 224.914062 505.394531 C 225.207031 505.109375 225.527344 504.855469 225.867188 504.632812 C 226.210938 504.410156 226.574219 504.222656 226.953125 504.070312 C 227.332031 503.917969 227.722656 503.804688 228.125 503.730469 C 228.527344 503.65625 228.929688 503.621094 229.339844 503.628906 C 229.75 503.632812 230.152344 503.679688 230.550781 503.761719 C 230.953125 503.847656 231.339844 503.972656 231.714844 504.132812 C 232.089844 504.292969 232.445312 504.488281 232.785156 504.722656 C 233.121094 504.953125 233.429688 505.214844 233.714844 505.507812 C 234.214844 506.019531 234.738281 506.5 235.289062 506.957031 C 235.84375 507.410156 236.417969 507.832031 237.015625 508.21875 C 237.613281 508.609375 238.230469 508.964844 238.867188 509.289062 C 239.503906 509.609375 240.160156 509.894531 240.828125 510.144531 C 241.496094 510.394531 242.175781 510.605469 242.871094 510.777344 C 243.5625 510.953125 244.261719 511.085938 244.96875 511.183594 C 245.675781 511.28125 246.386719 511.335938 247.101562 511.355469 C 247.816406 511.371094 248.527344 511.347656 249.238281 511.289062 C 249.949219 511.226562 250.65625 511.125 251.355469 510.988281 C 252.054688 510.847656 252.746094 510.667969 253.425781 510.453125 C 254.105469 510.238281 254.773438 509.984375 255.425781 509.695312 C 256.078125 509.402344 256.710938 509.078125 257.328125 508.71875 C 257.945312 508.359375 258.539062 507.964844 259.113281 507.539062 C 259.6875 507.113281 260.234375 506.65625 260.753906 506.167969 C 261.277344 505.683594 261.773438 505.167969 262.238281 504.628906 C 262.703125 504.085938 263.136719 503.519531 263.539062 502.929688 C 263.941406 502.339844 264.3125 501.730469 264.648438 501.101562 C 264.980469 500.46875 265.28125 499.824219 265.546875 499.160156 C 265.808594 498.496094 266.035156 497.820312 266.222656 497.132812 C 266.414062 496.441406 266.5625 495.746094 266.675781 495.039062 C 266.785156 494.335938 266.859375 493.625 266.890625 492.910156 C 266.925781 492.199219 266.917969 491.484375 266.871094 490.773438 C 266.828125 490.058594 266.742188 489.351562 266.617188 488.648438 C 266.492188 487.945312 266.332031 487.25 266.128906 486.566406 C 265.929688 485.882812 265.691406 485.210938 265.414062 484.550781 C 265.140625 483.890625 264.828125 483.25 264.480469 482.625 C 264.132812 482 263.753906 481.398438 263.339844 480.816406 C 262.929688 480.234375 262.484375 479.675781 262.007812 479.144531 C 261.535156 478.609375 261.03125 478.105469 260.5 477.628906 C 259.96875 477.148438 259.414062 476.703125 258.832031 476.289062 C 258.25 475.871094 257.648438 475.488281 257.027344 475.140625 C 256.40625 474.792969 255.765625 474.476562 255.105469 474.199219 C 254.757812 474.023438 254.425781 473.816406 254.113281 473.578125 C 253.804688 473.339844 253.519531 473.074219 253.257812 472.785156 C 252.996094 472.492188 252.765625 472.175781 252.5625 471.839844 C 252.363281 471.503906 252.191406 471.152344 252.058594 470.785156 C 251.921875 470.417969 251.824219 470.042969 251.757812 469.65625 C 251.695312 469.269531 251.667969 468.878906 251.679688 468.488281 C 251.6875 468.09375 251.734375 467.707031 251.816406 467.324219 C 251.898438 466.941406 252.015625 466.570312 252.171875 466.210938 C 252.324219 465.847656 252.507812 465.507812 252.726562 465.179688 C 252.945312 464.855469 253.191406 464.550781 253.464844 464.273438 C 253.742188 463.996094 254.039062 463.742188 254.363281 463.519531 C 254.683594 463.296875 255.023438 463.109375 255.382812 462.949219 C 255.742188 462.792969 256.113281 462.667969 256.492188 462.578125 C 256.875 462.492188 257.261719 462.441406 257.652344 462.425781 C 258.042969 462.410156 258.433594 462.429688 258.820312 462.488281 C 259.207031 462.546875 259.585938 462.640625 259.957031 462.773438 Z M 352.121094 486.371094 C 351.40625 486.390625 350.699219 486.445312 349.988281 486.542969 C 349.28125 486.640625 348.582031 486.773438 347.890625 486.949219 C 347.195312 487.121094 346.515625 487.335938 345.847656 487.582031 C 345.175781 487.832031 344.523438 488.117188 343.886719 488.441406 C 343.25 488.761719 342.632812 489.117188 342.03125 489.507812 C 341.433594 489.898438 340.859375 490.320312 340.308594 490.777344 C 339.757812 491.230469 339.234375 491.710938 338.734375 492.226562 C 338.238281 492.738281 337.769531 493.273438 337.332031 493.839844 C 336.890625 494.402344 336.488281 494.988281 336.113281 495.597656 C 335.738281 496.207031 335.402344 496.835938 335.097656 497.484375 C 334.792969 498.128906 334.527344 498.789062 334.296875 499.464844 C 334.066406 500.144531 333.875 500.828125 333.71875 501.527344 C 333.566406 502.226562 333.449219 502.929688 333.371094 503.640625 C 333.296875 504.347656 333.257812 505.0625 333.261719 505.777344 C 333.265625 506.492188 333.304688 507.203125 333.386719 507.914062 C 333.46875 508.621094 333.589844 509.324219 333.75 510.019531 C 333.90625 510.71875 334.105469 511.402344 334.339844 512.078125 C 334.574219 512.753906 334.847656 513.410156 335.15625 514.054688 C 335.464844 514.699219 335.804688 515.328125 336.183594 515.933594 C 336.5625 516.539062 336.96875 517.121094 337.414062 517.683594 C 337.855469 518.246094 338.328125 518.78125 338.828125 519.289062 C 339.328125 519.796875 339.855469 520.277344 340.410156 520.726562 C 340.964844 521.175781 341.542969 521.597656 342.144531 521.980469 C 342.746094 522.367188 343.367188 522.71875 344.003906 523.039062 C 344.644531 523.355469 345.300781 523.636719 345.972656 523.882812 C 346.640625 524.125 347.324219 524.332031 348.019531 524.503906 C 348.710938 524.671875 349.414062 524.800781 350.121094 524.894531 C 350.828125 524.984375 351.539062 525.039062 352.253906 525.050781 C 352.96875 525.0625 353.679688 525.035156 354.394531 524.96875 C 355.105469 524.902344 355.808594 524.796875 356.507812 524.652344 C 357.207031 524.507812 357.898438 524.328125 358.578125 524.105469 C 359.253906 523.886719 359.921875 523.628906 360.570312 523.332031 C 360.945312 523.144531 361.335938 522.996094 361.742188 522.886719 C 362.144531 522.777344 362.558594 522.710938 362.976562 522.683594 C 363.394531 522.660156 363.8125 522.675781 364.226562 522.734375 C 364.644531 522.792969 365.046875 522.890625 365.445312 523.03125 C 365.839844 523.171875 366.214844 523.351562 366.574219 523.570312 C 366.933594 523.785156 367.269531 524.039062 367.578125 524.324219 C 367.882812 524.605469 368.160156 524.917969 368.40625 525.261719 C 368.652344 525.601562 368.859375 525.964844 369.03125 526.347656 C 369.203125 526.730469 369.335938 527.125 369.425781 527.535156 C 369.519531 527.945312 369.566406 528.359375 369.574219 528.777344 C 369.582031 529.199219 369.546875 529.613281 369.472656 530.027344 C 369.394531 530.4375 369.277344 530.839844 369.121094 531.230469 C 368.964844 531.617188 368.769531 531.988281 368.535156 532.335938 C 368.304688 532.6875 368.039062 533.007812 367.742188 533.304688 C 367.445312 533.601562 367.121094 533.863281 366.769531 534.09375 C 366.417969 534.324219 366.046875 534.515625 365.660156 534.671875 C 364.589844 535.152344 363.5 535.570312 362.386719 535.929688 C 361.273438 536.285156 360.140625 536.582031 358.996094 536.816406 C 357.847656 537.050781 356.691406 537.21875 355.527344 537.324219 C 354.363281 537.433594 353.195312 537.472656 352.023438 537.449219 C 350.855469 537.425781 349.6875 537.339844 348.527344 537.1875 C 347.367188 537.035156 346.21875 536.816406 345.082031 536.539062 C 343.949219 536.257812 342.828125 535.917969 341.730469 535.515625 C 340.632812 535.113281 339.558594 534.648438 338.511719 534.128906 C 337.464844 533.605469 336.449219 533.027344 335.464844 532.394531 C 334.480469 531.761719 333.535156 531.074219 332.628906 530.335938 C 331.71875 529.597656 330.855469 528.8125 330.035156 527.976562 C 329.214844 527.140625 328.441406 526.265625 327.71875 525.34375 C 326.992188 524.425781 326.324219 523.46875 325.703125 522.476562 C 325.085938 521.480469 324.523438 520.457031 324.019531 519.398438 C 323.515625 518.34375 323.070312 517.261719 322.683594 516.15625 C 322.300781 515.050781 321.976562 513.929688 321.714844 512.789062 C 321.453125 511.648438 321.257812 510.496094 321.125 509.332031 C 320.988281 508.167969 320.921875 507.003906 320.914062 505.832031 C 320.910156 504.660156 320.96875 503.496094 321.09375 502.332031 C 321.21875 501.167969 321.40625 500.011719 321.660156 498.871094 C 321.910156 497.726562 322.226562 496.601562 322.601562 495.492188 C 322.976562 494.382812 323.414062 493.300781 323.910156 492.238281 C 324.40625 491.179688 324.957031 490.148438 325.570312 489.152344 C 326.179688 488.152344 326.84375 487.191406 327.558594 486.265625 C 328.273438 485.339844 329.039062 484.457031 329.855469 483.613281 C 330.667969 482.773438 331.527344 481.980469 332.425781 481.234375 C 333.328125 480.488281 334.269531 479.792969 335.246094 479.152344 C 336.226562 478.511719 337.238281 477.921875 338.28125 477.394531 C 339.324219 476.863281 340.394531 476.390625 341.488281 475.980469 C 342.582031 475.570312 343.699219 475.21875 344.832031 474.929688 C 345.964844 474.640625 347.113281 474.414062 348.273438 474.253906 C 349.429688 474.09375 350.59375 473.996094 351.765625 473.960938 C 352.15625 473.976562 352.542969 474.023438 352.925781 474.113281 C 353.308594 474.199219 353.679688 474.320312 354.039062 474.476562 C 354.398438 474.632812 354.738281 474.820312 355.0625 475.042969 C 355.386719 475.265625 355.683594 475.515625 355.960938 475.792969 C 356.238281 476.070312 356.484375 476.371094 356.703125 476.695312 C 356.925781 477.019531 357.109375 477.363281 357.265625 477.722656 C 357.421875 478.082031 357.539062 478.453125 357.625 478.835938 C 357.707031 479.21875 357.757812 479.605469 357.769531 480 C 357.777344 480.390625 357.753906 480.78125 357.691406 481.167969 C 357.628906 481.554688 357.53125 481.933594 357.398438 482.300781 C 357.261719 482.667969 357.097656 483.019531 356.894531 483.359375 C 356.695312 483.695312 356.464844 484.011719 356.207031 484.304688 C 355.945312 484.597656 355.660156 484.863281 355.351562 485.101562 C 355.039062 485.34375 354.710938 485.550781 354.359375 485.726562 C 354.011719 485.902344 353.648438 486.046875 353.273438 486.15625 C 352.894531 486.261719 352.511719 486.335938 352.121094 486.371094 Z M 352.121094 486.371094 " fill-opacity="1" fill-rule="evenodd"/><path fill="#000000" d="M 321.121094 329.152344 C 298.570312 343.167969 273.523438 349.984375 246.925781 344.480469 C 246.4375 344.378906 245.964844 344.238281 245.503906 344.046875 C 245.042969 343.855469 244.605469 343.621094 244.191406 343.34375 C 243.777344 343.066406 243.394531 342.75 243.042969 342.398438 C 242.691406 342.046875 242.378906 341.660156 242.101562 341.246094 C 241.824219 340.832031 241.59375 340.394531 241.402344 339.933594 C 241.210938 339.472656 241.070312 339 240.972656 338.511719 C 240.875 338.023438 240.828125 337.527344 240.828125 337.03125 C 240.828125 336.53125 240.878906 336.039062 240.976562 335.550781 C 241.074219 335.0625 241.21875 334.585938 241.410156 334.128906 C 241.601562 333.667969 241.835938 333.230469 242.109375 332.816406 C 242.386719 332.402344 242.703125 332.019531 243.054688 331.667969 C 243.40625 331.316406 243.792969 331.003906 244.207031 330.726562 C 244.621094 330.449219 245.058594 330.214844 245.519531 330.027344 C 245.976562 329.835938 246.453125 329.691406 246.941406 329.59375 C 247.429688 329.5 247.921875 329.449219 248.421875 329.453125 C 248.917969 329.453125 249.414062 329.5 249.902344 329.597656 C 274.890625 334.777344 297.828125 326.949219 318.324219 312.726562 C 318.730469 312.445312 319.160156 312.210938 319.609375 312.015625 C 320.058594 311.820312 320.527344 311.667969 321.003906 311.566406 C 321.484375 311.460938 321.972656 311.402344 322.460938 311.394531 C 322.953125 311.382812 323.441406 311.421875 323.925781 311.507812 C 324.410156 311.59375 324.878906 311.726562 325.339844 311.902344 C 325.796875 312.078125 326.234375 312.300781 326.648438 312.5625 C 327.0625 312.824219 327.449219 313.125 327.804688 313.460938 C 328.164062 313.800781 328.484375 314.167969 328.769531 314.570312 C 343.019531 334.507812 362.355469 342.542969 386.453125 340.878906 C 386.929688 340.875 387.40625 340.914062 387.875 341 C 388.34375 341.085938 388.804688 341.214844 389.25 341.386719 C 389.695312 341.558594 390.117188 341.773438 390.523438 342.023438 C 390.929688 342.277344 391.308594 342.566406 391.65625 342.890625 C 392.007812 343.21875 392.324219 343.570312 392.609375 343.957031 C 392.890625 344.339844 393.136719 344.75 393.339844 345.179688 C 393.546875 345.613281 393.710938 346.058594 393.832031 346.519531 C 393.953125 346.984375 394.027344 347.453125 394.058594 347.929688 C 394.09375 348.40625 394.078125 348.882812 394.019531 349.355469 C 393.964844 349.832031 393.859375 350.292969 393.714844 350.75 C 393.570312 351.203125 393.382812 351.640625 393.152344 352.0625 C 392.921875 352.480469 392.65625 352.875 392.351562 353.242188 C 392.050781 353.613281 391.714844 353.949219 391.34375 354.253906 C 390.976562 354.558594 390.585938 354.828125 390.167969 355.058594 C 389.75 355.289062 389.3125 355.476562 388.859375 355.625 C 388.402344 355.773438 387.9375 355.875 387.464844 355.9375 C 360.691406 357.722656 337.902344 349.179688 321.121094 329.152344 Z M 321.121094 329.152344 " fill-opacity="1" fill-rule="evenodd"/><path fill="#000000" d="M 242.429688 286.132812 C 242.871094 286.308594 243.300781 286.511719 243.71875 286.742188 C 244.136719 286.96875 244.542969 287.226562 244.933594 287.503906 C 245.324219 287.785156 245.699219 288.089844 246.058594 288.417969 C 246.417969 288.75 246.761719 289.101562 247.085938 289.472656 C 247.410156 289.847656 247.714844 290.242188 248 290.660156 C 248.285156 291.074219 248.550781 291.511719 248.796875 291.964844 C 249.042969 292.417969 249.265625 292.886719 249.46875 293.375 C 249.671875 293.859375 249.851562 294.363281 250.007812 294.878906 C 250.167969 295.394531 250.300781 295.921875 250.410156 296.460938 C 250.519531 297 250.609375 297.546875 250.671875 298.105469 C 250.734375 298.660156 250.773438 299.226562 250.785156 299.796875 C 250.800781 300.367188 250.792969 300.941406 250.757812 301.519531 C 250.722656 302.097656 250.664062 302.675781 250.582031 303.257812 C 250.5 303.835938 250.394531 304.414062 250.265625 304.992188 C 250.136719 305.570312 249.984375 306.140625 249.808594 306.707031 C 249.632812 307.277344 249.4375 307.835938 249.214844 308.390625 C 248.996094 308.941406 248.753906 309.484375 248.492188 310.019531 C 248.230469 310.550781 247.949219 311.070312 247.644531 311.578125 C 247.34375 312.085938 247.023438 312.582031 246.683594 313.058594 C 246.347656 313.535156 245.992188 313.996094 245.617188 314.441406 C 245.246094 314.882812 244.859375 315.308594 244.457031 315.710938 C 244.054688 316.117188 243.636719 316.5 243.210938 316.863281 C 242.78125 317.226562 242.339844 317.5625 241.890625 317.878906 C 241.441406 318.195312 240.980469 318.484375 240.511719 318.753906 C 240.046875 319.019531 239.570312 319.261719 239.089844 319.476562 C 238.609375 319.691406 238.121094 319.878906 237.632812 320.039062 C 237.140625 320.199219 236.652344 320.332031 236.15625 320.4375 C 235.664062 320.542969 235.171875 320.621094 234.675781 320.667969 C 234.183594 320.71875 233.695312 320.738281 233.207031 320.730469 C 232.722656 320.722656 232.238281 320.6875 231.761719 320.621094 C 231.285156 320.558594 230.816406 320.464844 230.355469 320.34375 C 229.894531 320.222656 229.441406 320.074219 229 319.898438 C 228.558594 319.722656 228.125 319.519531 227.707031 319.289062 C 227.289062 319.0625 226.886719 318.804688 226.496094 318.527344 C 226.101562 318.246094 225.726562 317.941406 225.367188 317.613281 C 225.007812 317.28125 224.667969 316.929688 224.34375 316.558594 C 224.019531 316.183594 223.714844 315.789062 223.425781 315.371094 C 223.140625 314.957031 222.875 314.519531 222.628906 314.066406 C 222.382812 313.613281 222.160156 313.144531 221.957031 312.65625 C 221.753906 312.171875 221.574219 311.667969 221.417969 311.152344 C 221.261719 310.636719 221.128906 310.109375 221.015625 309.570312 C 220.90625 309.03125 220.820312 308.484375 220.757812 307.925781 C 220.695312 307.371094 220.65625 306.804688 220.640625 306.234375 C 220.625 305.664062 220.636719 305.089844 220.671875 304.511719 C 220.703125 303.933594 220.761719 303.355469 220.84375 302.773438 C 220.925781 302.195312 221.03125 301.617188 221.160156 301.039062 C 221.292969 300.460938 221.445312 299.890625 221.617188 299.324219 C 221.792969 298.753906 221.992188 298.195312 222.210938 297.640625 C 222.433594 297.089844 222.671875 296.546875 222.933594 296.011719 C 223.199219 295.480469 223.480469 294.960938 223.78125 294.453125 C 224.082031 293.945312 224.402344 293.449219 224.742188 292.972656 C 225.082031 292.496094 225.4375 292.035156 225.808594 291.589844 C 226.183594 291.148438 226.570312 290.722656 226.972656 290.316406 C 227.375 289.914062 227.789062 289.53125 228.21875 289.167969 C 228.648438 288.804688 229.085938 288.46875 229.535156 288.152344 C 229.988281 287.835938 230.445312 287.542969 230.914062 287.277344 C 231.382812 287.011719 231.859375 286.769531 232.339844 286.554688 C 232.820312 286.339844 233.304688 286.152344 233.796875 285.992188 C 234.285156 285.832031 234.777344 285.699219 235.269531 285.59375 C 235.765625 285.488281 236.257812 285.410156 236.75 285.363281 C 237.242188 285.3125 237.734375 285.292969 238.21875 285.300781 C 238.707031 285.308594 239.1875 285.34375 239.664062 285.410156 C 240.140625 285.472656 240.609375 285.566406 241.074219 285.6875 C 241.535156 285.808594 241.984375 285.957031 242.429688 286.132812 Z M 242.429688 286.132812 " fill-opacity="1" fill-rule="nonzero"/><path fill="#000000" d="M 439.4375 317.238281 C 439.675781 317.832031 439.890625 318.433594 440.078125 319.042969 C 440.269531 319.652344 440.433594 320.269531 440.574219 320.890625 C 440.714844 321.507812 440.832031 322.132812 440.921875 322.753906 C 441.011719 323.378906 441.074219 324.003906 441.113281 324.625 C 441.148438 325.246094 441.160156 325.863281 441.148438 326.480469 C 441.132812 327.09375 441.09375 327.699219 441.027344 328.300781 C 440.960938 328.898438 440.871094 329.488281 440.753906 330.070312 C 440.636719 330.648438 440.492188 331.21875 440.324219 331.773438 C 440.15625 332.328125 439.964844 332.867188 439.75 333.390625 C 439.53125 333.914062 439.292969 334.421875 439.03125 334.910156 C 438.769531 335.398438 438.484375 335.867188 438.175781 336.3125 C 437.871094 336.761719 437.542969 337.1875 437.195312 337.589844 C 436.847656 337.992188 436.480469 338.371094 436.09375 338.726562 C 435.710938 339.082031 435.308594 339.410156 434.886719 339.710938 C 434.46875 340.015625 434.035156 340.289062 433.585938 340.539062 C 433.136719 340.785156 432.671875 341.003906 432.199219 341.195312 C 431.722656 341.382812 431.238281 341.542969 430.742188 341.675781 C 430.246094 341.804688 429.742188 341.90625 429.230469 341.976562 C 428.71875 342.046875 428.199219 342.085938 427.675781 342.097656 C 427.152344 342.105469 426.625 342.085938 426.097656 342.03125 C 425.566406 341.980469 425.035156 341.898438 424.503906 341.785156 C 423.972656 341.675781 423.445312 341.53125 422.917969 341.359375 C 422.390625 341.1875 421.867188 340.984375 421.351562 340.753906 C 420.832031 340.527344 420.320312 340.265625 419.816406 339.980469 C 419.3125 339.695312 418.820312 339.382812 418.332031 339.042969 C 417.847656 338.703125 417.375 338.339844 416.914062 337.953125 C 416.453125 337.5625 416.003906 337.152344 415.570312 336.71875 C 415.136719 336.28125 414.71875 335.828125 414.316406 335.351562 C 413.917969 334.875 413.535156 334.378906 413.167969 333.867188 C 412.800781 333.351562 412.457031 332.820312 412.128906 332.277344 C 411.804688 331.730469 411.5 331.171875 411.21875 330.597656 C 410.933594 330.023438 410.671875 329.441406 410.433594 328.847656 C 410.199219 328.25 409.984375 327.648438 409.792969 327.039062 C 409.601562 326.429688 409.4375 325.8125 409.296875 325.191406 C 409.15625 324.574219 409.042969 323.949219 408.953125 323.328125 C 408.863281 322.703125 408.796875 322.078125 408.761719 321.457031 C 408.722656 320.835938 408.710938 320.21875 408.722656 319.601562 C 408.738281 318.988281 408.777344 318.382812 408.84375 317.78125 C 408.910156 317.183594 409.003906 316.59375 409.121094 316.011719 C 409.238281 315.433594 409.378906 314.863281 409.546875 314.308594 C 409.714844 313.753906 409.90625 313.214844 410.125 312.691406 C 410.339844 312.167969 410.578125 311.660156 410.84375 311.171875 C 411.105469 310.683594 411.390625 310.214844 411.695312 309.769531 C 412.003906 309.320312 412.328125 308.894531 412.679688 308.492188 C 413.027344 308.089844 413.390625 307.710938 413.777344 307.355469 C 414.164062 307 414.566406 306.671875 414.984375 306.371094 C 415.402344 306.066406 415.839844 305.792969 416.289062 305.546875 C 416.738281 305.296875 417.199219 305.078125 417.675781 304.890625 C 418.148438 304.699219 418.632812 304.539062 419.128906 304.40625 C 419.625 304.277344 420.128906 304.175781 420.644531 304.105469 C 421.15625 304.035156 421.671875 303.996094 422.195312 303.984375 C 422.71875 303.976562 423.246094 303.996094 423.777344 304.050781 C 424.304688 304.101562 424.835938 304.183594 425.367188 304.296875 C 425.898438 304.410156 426.425781 304.550781 426.953125 304.722656 C 427.480469 304.894531 428.003906 305.097656 428.523438 305.328125 C 429.039062 305.558594 429.550781 305.816406 430.054688 306.101562 C 430.558594 306.386719 431.054688 306.699219 431.539062 307.039062 C 432.023438 307.378906 432.496094 307.742188 432.957031 308.128906 C 433.421875 308.519531 433.867188 308.929688 434.300781 309.363281 C 434.734375 309.800781 435.152344 310.253906 435.554688 310.730469 C 435.957031 311.207031 436.339844 311.703125 436.703125 312.21875 C 437.070312 312.730469 437.414062 313.261719 437.742188 313.804688 C 438.066406 314.351562 438.371094 314.914062 438.65625 315.484375 C 438.9375 316.058594 439.199219 316.640625 439.4375 317.238281 Z M 439.4375 317.238281 " fill-opacity="1" fill-rule="nonzero"/><path fill="#f5cad3" d="M 199.488281 313.558594 C 200.335938 313.640625 201.179688 313.742188 202.019531 313.863281 C 202.859375 313.984375 203.691406 314.125 204.511719 314.285156 C 205.335938 314.445312 206.148438 314.625 206.949219 314.820312 C 207.75 315.019531 208.53125 315.234375 209.300781 315.46875 C 210.070312 315.699219 210.816406 315.949219 211.546875 316.214844 C 212.273438 316.484375 212.980469 316.765625 213.664062 317.0625 C 214.347656 317.359375 215.003906 317.667969 215.632812 317.992188 C 216.265625 318.320312 216.863281 318.65625 217.4375 319.003906 C 218.007812 319.355469 218.546875 319.714844 219.054688 320.085938 C 219.5625 320.457031 220.035156 320.835938 220.472656 321.226562 C 220.910156 321.613281 221.3125 322.011719 221.675781 322.414062 C 222.042969 322.816406 222.367188 323.222656 222.65625 323.636719 C 222.945312 324.050781 223.191406 324.464844 223.398438 324.882812 C 223.609375 325.304688 223.777344 325.722656 223.902344 326.144531 C 224.03125 326.566406 224.113281 326.984375 224.160156 327.40625 C 224.203125 327.824219 224.203125 328.242188 224.164062 328.652344 C 224.125 329.066406 224.042969 329.476562 223.921875 329.878906 C 223.800781 330.28125 223.636719 330.679688 223.433594 331.070312 C 223.226562 331.457031 222.984375 331.839844 222.699219 332.210938 C 222.417969 332.582031 222.09375 332.945312 221.734375 333.296875 C 221.371094 333.644531 220.972656 333.984375 220.539062 334.3125 C 220.105469 334.636719 219.636719 334.949219 219.132812 335.25 C 218.628906 335.546875 218.09375 335.832031 217.523438 336.097656 C 216.957031 336.367188 216.359375 336.617188 215.730469 336.851562 C 215.105469 337.089844 214.449219 337.304688 213.769531 337.503906 C 213.089844 337.703125 212.386719 337.886719 211.660156 338.046875 C 210.933594 338.210938 210.183594 338.351562 209.417969 338.476562 C 208.652344 338.597656 207.871094 338.703125 207.074219 338.785156 C 206.273438 338.867188 205.464844 338.933594 204.640625 338.972656 C 203.816406 339.015625 202.988281 339.039062 202.148438 339.039062 C 201.308594 339.039062 200.464844 339.019531 199.617188 338.980469 C 198.769531 338.941406 197.921875 338.878906 197.074219 338.800781 C 196.226562 338.71875 195.382812 338.617188 194.542969 338.496094 C 193.703125 338.375 192.871094 338.234375 192.050781 338.074219 C 191.226562 337.914062 190.414062 337.734375 189.613281 337.539062 C 188.8125 337.339844 188.03125 337.125 187.261719 336.890625 C 186.492188 336.660156 185.746094 336.410156 185.015625 336.144531 C 184.289062 335.875 183.582031 335.59375 182.898438 335.296875 C 182.214844 335 181.558594 334.691406 180.929688 334.363281 C 180.296875 334.039062 179.699219 333.703125 179.125 333.351562 C 178.554688 333.003906 178.015625 332.644531 177.507812 332.273438 C 177 331.902344 176.527344 331.523438 176.089844 331.132812 C 175.652344 330.746094 175.25 330.347656 174.886719 329.945312 C 174.519531 329.542969 174.195312 329.136719 173.90625 328.722656 C 173.617188 328.308594 173.371094 327.894531 173.164062 327.472656 C 172.953125 327.054688 172.785156 326.636719 172.660156 326.214844 C 172.53125 325.792969 172.449219 325.371094 172.402344 324.953125 C 172.359375 324.535156 172.359375 324.117188 172.398438 323.703125 C 172.4375 323.292969 172.519531 322.882812 172.640625 322.480469 C 172.761719 322.074219 172.925781 321.679688 173.128906 321.289062 C 173.335938 320.902344 173.578125 320.519531 173.863281 320.148438 C 174.144531 319.777344 174.46875 319.414062 174.828125 319.0625 C 175.191406 318.710938 175.589844 318.375 176.023438 318.046875 C 176.457031 317.722656 176.925781 317.410156 177.429688 317.109375 C 177.933594 316.8125 178.46875 316.527344 179.039062 316.261719 C 179.605469 315.992188 180.203125 315.742188 180.832031 315.503906 C 181.457031 315.269531 182.113281 315.054688 182.792969 314.855469 C 183.472656 314.65625 184.175781 314.472656 184.902344 314.3125 C 185.628906 314.148438 186.378906 314.007812 187.144531 313.882812 C 187.910156 313.757812 188.691406 313.65625 189.488281 313.574219 C 190.289062 313.488281 191.097656 313.425781 191.921875 313.382812 C 192.746094 313.34375 193.574219 313.320312 194.414062 313.320312 C 195.253906 313.316406 196.097656 313.335938 196.945312 313.378906 C 197.792969 313.417969 198.640625 313.476562 199.488281 313.558594 Z M 199.488281 313.558594 " fill-opacity="1" fill-rule="nonzero"/><path fill="#f5cad3" d="M 456.375 338.855469 C 457.222656 338.9375 458.066406 339.039062 458.90625 339.160156 C 459.746094 339.28125 460.578125 339.421875 461.402344 339.582031 C 462.226562 339.742188 463.039062 339.921875 463.835938 340.117188 C 464.636719 340.316406 465.421875 340.53125 466.1875 340.765625 C 466.957031 340.996094 467.707031 341.246094 468.433594 341.511719 C 469.164062 341.78125 469.871094 342.0625 470.550781 342.359375 C 471.234375 342.65625 471.890625 342.964844 472.523438 343.292969 C 473.152344 343.617188 473.753906 343.953125 474.324219 344.304688 C 474.894531 344.652344 475.433594 345.011719 475.941406 345.382812 C 476.449219 345.753906 476.921875 346.132812 477.359375 346.523438 C 477.800781 346.910156 478.199219 347.308594 478.566406 347.710938 C 478.929688 348.113281 479.257812 348.519531 479.542969 348.933594 C 479.832031 349.347656 480.082031 349.761719 480.289062 350.179688 C 480.496094 350.601562 480.664062 351.019531 480.789062 351.441406 C 480.917969 351.863281 481.003906 352.285156 481.046875 352.703125 C 481.089844 353.121094 481.09375 353.539062 481.054688 353.953125 C 481.011719 354.363281 480.933594 354.773438 480.808594 355.175781 C 480.6875 355.578125 480.523438 355.976562 480.320312 356.367188 C 480.117188 356.753906 479.871094 357.136719 479.589844 357.507812 C 479.304688 357.878906 478.980469 358.242188 478.621094 358.59375 C 478.261719 358.945312 477.863281 359.28125 477.429688 359.609375 C 476.992188 359.933594 476.523438 360.246094 476.019531 360.546875 C 475.515625 360.84375 474.980469 361.128906 474.414062 361.394531 C 473.84375 361.664062 473.246094 361.914062 472.617188 362.152344 C 471.992188 362.386719 471.339844 362.601562 470.65625 362.800781 C 469.976562 363 469.273438 363.183594 468.546875 363.34375 C 467.820312 363.507812 467.074219 363.648438 466.308594 363.773438 C 465.542969 363.898438 464.757812 364 463.960938 364.082031 C 463.164062 364.167969 462.351562 364.230469 461.527344 364.273438 C 460.707031 364.3125 459.875 364.335938 459.035156 364.335938 C 458.195312 364.339844 457.355469 364.320312 456.507812 364.277344 C 455.660156 364.238281 454.8125 364.179688 453.964844 364.097656 C 453.117188 364.015625 452.273438 363.914062 451.433594 363.792969 C 450.59375 363.671875 449.761719 363.53125 448.9375 363.371094 C 448.113281 363.210938 447.300781 363.03125 446.5 362.835938 C 445.703125 362.636719 444.917969 362.421875 444.148438 362.1875 C 443.382812 361.957031 442.632812 361.707031 441.90625 361.441406 C 441.175781 361.171875 440.46875 360.890625 439.785156 360.59375 C 439.105469 360.296875 438.445312 359.988281 437.816406 359.660156 C 437.1875 359.335938 436.585938 359 436.015625 358.652344 C 435.441406 358.300781 434.902344 357.941406 434.394531 357.570312 C 433.890625 357.199219 433.417969 356.820312 432.976562 356.429688 C 432.539062 356.042969 432.136719 355.644531 431.773438 355.242188 C 431.410156 354.839844 431.082031 354.433594 430.792969 354.019531 C 430.507812 353.605469 430.257812 353.191406 430.050781 352.773438 C 429.84375 352.351562 429.675781 351.933594 429.546875 351.511719 C 429.421875 351.089844 429.335938 350.671875 429.292969 350.25 C 429.25 349.832031 429.246094 349.414062 429.285156 349 C 429.324219 348.589844 429.40625 348.179688 429.527344 347.777344 C 429.652344 347.375 429.8125 346.976562 430.019531 346.585938 C 430.222656 346.199219 430.464844 345.816406 430.75 345.445312 C 431.035156 345.074219 431.355469 344.710938 431.71875 344.359375 C 432.078125 344.011719 432.476562 343.671875 432.910156 343.34375 C 433.34375 343.019531 433.8125 342.707031 434.316406 342.40625 C 434.820312 342.109375 435.359375 341.824219 435.925781 341.558594 C 436.496094 341.289062 437.09375 341.039062 437.71875 340.804688 C 438.347656 340.566406 439 340.351562 439.679688 340.152344 C 440.363281 339.953125 441.066406 339.769531 441.792969 339.609375 C 442.519531 339.445312 443.265625 339.304688 444.03125 339.179688 C 444.796875 339.058594 445.578125 338.953125 446.378906 338.871094 C 447.175781 338.785156 447.988281 338.722656 448.808594 338.679688 C 449.632812 338.640625 450.464844 338.617188 451.300781 338.617188 C 452.140625 338.613281 452.984375 338.632812 453.832031 338.675781 C 454.679688 338.714844 455.527344 338.777344 456.375 338.855469 Z M 456.375 338.855469 " fill-opacity="1" fill-rule="nonzero"/></svg>