<svg xmlns="http://www.w3.org/2000/svg" xmlns:xlink="http://www.w3.org/1999/xlink" width="1000" zoomAndPan="magnify" viewBox="0 0 750 749.999995" height="1000" preserveAspectRatio="xMidYMid meet" version="1.0"><path fill="#000000" d="M 90.925781 507.519531 C 58.210938 455.269531 54.945312 394.703125 82.027344 327.328125 C 130.726562 206 216.855469 118.597656 350.203125 102.78125 C 425.511719 93.878906 494.683594 101.886719 562.484375 136.257812 C 622.984375 166.945312 674.691406 219.949219 705.929688 280.070312 C 736.613281 338.878906 749.191406 408.789062 725.457031 472.175781 C 677.621094 599.417969 544.160156 629.070312 423.699219 643.71875 C 330.570312 655.042969 239.28125 656.273438 147.378906 634.679688 C 100.660156 623.910156 44.347656 601.898438 14.449219 562.367188 C 6.359375 551.628906 0.0273438 537.261719 9.425781 524.957031 C 18.828125 512.65625 33.75 514.773438 46.214844 518.929688 C 62.53125 524.371094 77.816406 517.203125 90.84375 507.519531 Z M 90.925781 507.519531 " fill-opacity="1" fill-rule="evenodd"/><path fill="#b9eefe" d="M 40.304688 536.703125 C 59.605469 543.148438 80.078125 538.878906 102.167969 522.53125 C 116.113281 542.449219 130.867188 557.765625 147.433594 566.328125 C 150.835938 568.085938 155.078125 565.828125 157.195312 562.648438 C 159.316406 559.46875 159.984375 554.613281 156.917969 552.214844 C 84.511719 494.269531 64.179688 422.125 99.574219 334.304688 C 148.941406 211.246094 233.171875 135.53125 352.546875 121.414062 C 432.902344 111.875 496.242188 123.621094 554.148438 153.050781 C 667.441406 210.714844 750.113281 353.300781 707.800781 465.675781 C 663.175781 584.546875 535.207031 611.355469 421.328125 625.195312 C 335.5625 635.628906 245.195312 638.5 151.5625 616.519531 C 89.78125 602.011719 49.257812 577.460938 29.398438 551.070312 C 18.574219 536.703125 23.066406 530.957031 40.304688 536.703125 Z M 40.304688 536.703125 " fill-opacity="1" fill-rule="evenodd"/><path fill="#ffffff" d="M 646.941406 550.566406 C 586.863281 599.613281 500.707031 615.570312 421.328125 625.195312 C 345.074219 634.484375 265.136719 637.777344 182.519531 622.933594 C 237.636719 600.875 283.980469 576.484375 321.558594 549.757812 C 459.84375 451.277344 568.304688 451.550781 646.941406 550.566406 Z M 646.941406 550.566406 " fill-opacity="1" fill-rule="evenodd"/><path fill="#ffb9a8" d="M 298.703125 362.945312 C 298.792969 364.046875 298.8125 365.15625 298.757812 366.265625 C 298.707031 367.378906 298.582031 368.488281 298.386719 369.59375 C 298.191406 370.699219 297.925781 371.800781 297.589844 372.890625 C 297.253906 373.980469 296.847656 375.0625 296.375 376.125 C 295.902344 377.191406 295.359375 378.238281 294.753906 379.269531 C 294.148438 380.300781 293.480469 381.308594 292.746094 382.292969 C 292.011719 383.277344 291.21875 384.230469 290.367188 385.160156 C 289.511719 386.089844 288.605469 386.988281 287.640625 387.851562 C 286.675781 388.714844 285.660156 389.546875 284.59375 390.335938 C 283.527344 391.128906 282.414062 391.882812 281.253906 392.59375 C 280.09375 393.304688 278.894531 393.972656 277.65625 394.597656 C 276.414062 395.222656 275.140625 395.804688 273.832031 396.335938 C 272.523438 396.867188 271.183594 397.351562 269.820312 397.785156 C 268.453125 398.21875 267.066406 398.601562 265.660156 398.933594 C 264.25 399.261719 262.828125 399.542969 261.390625 399.769531 C 259.949219 399.992188 258.503906 400.167969 257.050781 400.285156 C 255.597656 400.402344 254.140625 400.464844 252.6875 400.476562 C 251.230469 400.484375 249.78125 400.441406 248.335938 400.339844 C 246.894531 400.242188 245.460938 400.089844 244.042969 399.878906 C 242.628906 399.671875 241.230469 399.414062 239.851562 399.097656 C 238.472656 398.785156 237.125 398.421875 235.796875 398.003906 C 234.472656 397.589844 233.183594 397.121094 231.921875 396.605469 C 230.664062 396.089844 229.445312 395.527344 228.261719 394.917969 C 227.082031 394.308594 225.945312 393.65625 224.855469 392.960938 C 223.761719 392.261719 222.722656 391.523438 221.730469 390.746094 C 220.738281 389.964844 219.800781 389.152344 218.917969 388.296875 C 218.035156 387.445312 217.210938 386.558594 216.445312 385.640625 C 215.683594 384.722656 214.980469 383.777344 214.339844 382.800781 C 213.703125 381.824219 213.128906 380.824219 212.621094 379.804688 C 212.113281 378.78125 211.671875 377.738281 211.300781 376.679688 C 210.929688 375.617188 210.625 374.542969 210.394531 373.457031 C 210.164062 372.367188 210 371.273438 209.910156 370.167969 C 209.820312 369.0625 209.804688 367.957031 209.855469 366.84375 C 209.910156 365.734375 210.035156 364.625 210.230469 363.519531 C 210.425781 362.410156 210.691406 361.3125 211.027344 360.222656 C 211.363281 359.128906 211.769531 358.050781 212.242188 356.984375 C 212.714844 355.917969 213.253906 354.871094 213.859375 353.839844 C 214.46875 352.8125 215.136719 351.804688 215.871094 350.820312 C 216.601562 349.835938 217.394531 348.878906 218.25 347.949219 C 219.101562 347.023438 220.011719 346.125 220.976562 345.261719 C 221.941406 344.394531 222.957031 343.566406 224.023438 342.773438 C 225.089844 341.984375 226.203125 341.230469 227.363281 340.519531 C 228.519531 339.804688 229.722656 339.136719 230.960938 338.511719 C 232.199219 337.886719 233.476562 337.308594 234.785156 336.777344 C 236.09375 336.246094 237.429688 335.761719 238.796875 335.328125 C 240.160156 334.894531 241.546875 334.511719 242.957031 334.179688 C 244.363281 333.847656 245.789062 333.570312 247.226562 333.34375 C 248.664062 333.117188 250.109375 332.945312 251.566406 332.828125 C 253.019531 332.710938 254.472656 332.644531 255.929688 332.636719 C 257.386719 332.625 258.835938 332.671875 260.277344 332.769531 C 261.722656 332.871094 263.152344 333.023438 264.570312 333.230469 C 265.988281 333.4375 267.386719 333.699219 268.761719 334.011719 C 270.140625 334.324219 271.492188 334.691406 272.816406 335.105469 C 274.140625 335.523438 275.433594 335.988281 276.691406 336.503906 C 277.953125 337.019531 279.171875 337.582031 280.351562 338.191406 C 281.53125 338.800781 282.667969 339.453125 283.761719 340.152344 C 284.851562 340.851562 285.894531 341.585938 286.886719 342.367188 C 287.878906 343.144531 288.816406 343.960938 289.699219 344.8125 C 290.582031 345.667969 291.402344 346.550781 292.167969 347.472656 C 292.933594 348.390625 293.636719 349.335938 294.273438 350.3125 C 294.914062 351.285156 295.488281 352.285156 295.996094 353.308594 C 296.503906 354.332031 296.945312 355.371094 297.316406 356.433594 C 297.6875 357.492188 297.988281 358.566406 298.222656 359.65625 C 298.453125 360.742188 298.613281 361.839844 298.703125 362.945312 Z M 298.703125 362.945312 " fill-opacity="1" fill-rule="nonzero"/><path fill="#ffb9a8" d="M 590.304688 301.355469 C 590.449219 302.289062 590.527344 303.230469 590.542969 304.179688 C 590.558594 305.128906 590.507812 306.082031 590.394531 307.039062 C 590.277344 307.992188 590.097656 308.945312 589.855469 309.898438 C 589.609375 310.851562 589.304688 311.800781 588.933594 312.742188 C 588.5625 313.679688 588.128906 314.613281 587.636719 315.53125 C 587.144531 316.449219 586.589844 317.355469 585.980469 318.246094 C 585.367188 319.136719 584.699219 320.007812 583.976562 320.859375 C 583.25 321.710938 582.476562 322.535156 581.644531 323.34375 C 580.816406 324.148438 579.9375 324.925781 579.011719 325.675781 C 578.082031 326.425781 577.113281 327.144531 576.097656 327.832031 C 575.082031 328.523438 574.027344 329.175781 572.933594 329.796875 C 571.839844 330.417969 570.710938 331 569.550781 331.546875 C 568.386719 332.09375 567.195312 332.601562 565.976562 333.066406 C 564.757812 333.535156 563.515625 333.957031 562.25 334.339844 C 560.988281 334.722656 559.707031 335.0625 558.410156 335.359375 C 557.113281 335.652344 555.804688 335.902344 554.488281 336.105469 C 553.167969 336.3125 551.847656 336.46875 550.519531 336.582031 C 549.195312 336.695312 547.871094 336.757812 546.550781 336.777344 C 545.230469 336.796875 543.917969 336.769531 542.613281 336.691406 C 541.3125 336.617188 540.023438 336.496094 538.75 336.328125 C 537.476562 336.160156 536.226562 335.945312 534.996094 335.683594 C 533.765625 335.425781 532.5625 335.121094 531.386719 334.773438 C 530.207031 334.425781 529.066406 334.03125 527.953125 333.597656 C 526.84375 333.164062 525.773438 332.691406 524.738281 332.175781 C 523.703125 331.660156 522.710938 331.105469 521.765625 330.511719 C 520.816406 329.921875 519.914062 329.292969 519.0625 328.632812 C 518.210938 327.96875 517.410156 327.273438 516.660156 326.546875 C 515.910156 325.820312 515.21875 325.0625 514.578125 324.28125 C 513.941406 323.496094 513.363281 322.6875 512.839844 321.851562 C 512.320312 321.019531 511.859375 320.164062 511.460938 319.289062 C 511.0625 318.414062 510.726562 317.519531 510.453125 316.609375 C 510.179688 315.703125 509.96875 314.78125 509.824219 313.847656 C 509.679688 312.914062 509.601562 311.972656 509.585938 311.023438 C 509.570312 310.074219 509.621094 309.121094 509.734375 308.164062 C 509.851562 307.210938 510.03125 306.257812 510.273438 305.304688 C 510.515625 304.351562 510.824219 303.402344 511.195312 302.464844 C 511.566406 301.523438 511.996094 300.59375 512.492188 299.671875 C 512.984375 298.753906 513.539062 297.847656 514.148438 296.957031 C 514.761719 296.066406 515.429688 295.199219 516.152344 294.347656 C 516.878906 293.496094 517.652344 292.667969 518.484375 291.863281 C 519.3125 291.058594 520.191406 290.277344 521.117188 289.527344 C 522.046875 288.777344 523.015625 288.058594 524.03125 287.371094 C 525.046875 286.679688 526.101562 286.027344 527.195312 285.40625 C 528.289062 284.785156 529.417969 284.203125 530.578125 283.65625 C 531.742188 283.109375 532.933594 282.605469 534.152344 282.136719 C 535.371094 281.671875 536.613281 281.246094 537.875 280.863281 C 539.140625 280.480469 540.421875 280.140625 541.71875 279.847656 C 543.015625 279.550781 544.324219 279.300781 545.640625 279.097656 C 546.960938 278.890625 548.28125 278.734375 549.609375 278.621094 C 550.933594 278.507812 552.257812 278.445312 553.578125 278.425781 C 554.898438 278.40625 556.210938 278.4375 557.515625 278.511719 C 558.816406 278.585938 560.105469 278.707031 561.378906 278.875 C 562.652344 279.042969 563.902344 279.257812 565.132812 279.519531 C 566.363281 279.777344 567.566406 280.082031 568.742188 280.429688 C 569.921875 280.78125 571.0625 281.171875 572.175781 281.605469 C 573.285156 282.039062 574.355469 282.515625 575.390625 283.03125 C 576.425781 283.546875 577.417969 284.097656 578.363281 284.691406 C 579.3125 285.28125 580.214844 285.910156 581.066406 286.574219 C 581.917969 287.234375 582.71875 287.929688 583.46875 288.65625 C 584.21875 289.382812 584.910156 290.140625 585.550781 290.921875 C 586.1875 291.707031 586.765625 292.515625 587.289062 293.351562 C 587.808594 294.183594 588.269531 295.039062 588.667969 295.914062 C 589.066406 296.792969 589.402344 297.683594 589.675781 298.59375 C 589.949219 299.5 590.160156 300.421875 590.304688 301.355469 Z M 590.304688 301.355469 " fill-opacity="1" fill-rule="nonzero"/><path fill="#000000" d="M 394.300781 305.597656 C 380.132812 320.691406 361.554688 323.757812 341 317.675781 C 340.582031 317.554688 340.179688 317.390625 339.792969 317.1875 C 339.410156 316.984375 339.046875 316.742188 338.707031 316.46875 C 338.367188 316.195312 338.058594 315.890625 337.78125 315.554688 C 337.5 315.21875 337.257812 314.859375 337.050781 314.476562 C 336.839844 314.09375 336.671875 313.695312 336.542969 313.277344 C 336.414062 312.859375 336.328125 312.4375 336.28125 312.003906 C 336.234375 311.566406 336.230469 311.132812 336.269531 310.699219 C 336.3125 310.265625 336.390625 309.839844 336.515625 309.421875 C 336.640625 309.003906 336.804688 308.601562 337.003906 308.214844 C 337.207031 307.828125 337.445312 307.464844 337.71875 307.125 C 337.996094 306.785156 338.300781 306.476562 338.632812 306.199219 C 338.96875 305.917969 339.328125 305.675781 339.710938 305.464844 C 340.09375 305.257812 340.492188 305.089844 340.910156 304.957031 C 341.328125 304.828125 341.75 304.742188 342.183594 304.695312 C 342.617188 304.648438 343.050781 304.644531 343.488281 304.683594 C 343.921875 304.722656 344.347656 304.804688 344.765625 304.925781 C 361.890625 310.003906 376.394531 307.523438 387.578125 292.988281 C 387.828125 292.660156 388.109375 292.359375 388.414062 292.082031 C 388.722656 291.808594 389.050781 291.5625 389.402344 291.347656 C 389.753906 291.136719 390.125 290.957031 390.507812 290.808594 C 390.894531 290.664062 391.289062 290.554688 391.695312 290.484375 C 392.101562 290.414062 392.511719 290.378906 392.921875 290.382812 C 393.335938 290.386719 393.742188 290.429688 394.144531 290.511719 C 394.550781 290.589844 394.945312 290.707031 395.324219 290.863281 C 395.707031 291.015625 396.074219 291.203125 396.421875 291.425781 C 412.039062 301.328125 427.101562 303.199219 442.386719 291.730469 C 442.734375 291.46875 443.105469 291.238281 443.496094 291.046875 C 443.890625 290.859375 444.296875 290.707031 444.71875 290.597656 C 445.140625 290.484375 445.570312 290.417969 446.007812 290.390625 C 446.445312 290.363281 446.878906 290.378906 447.3125 290.441406 C 447.742188 290.5 448.167969 290.601562 448.578125 290.742188 C 448.992188 290.886719 449.386719 291.066406 449.765625 291.289062 C 450.140625 291.507812 450.492188 291.765625 450.820312 292.054688 C 451.144531 292.34375 451.441406 292.664062 451.707031 293.011719 C 451.96875 293.359375 452.195312 293.730469 452.386719 294.125 C 452.578125 294.515625 452.730469 294.925781 452.839844 295.347656 C 452.949219 295.769531 453.019531 296.199219 453.042969 296.636719 C 453.070312 297.070312 453.054688 297.507812 452.992188 297.9375 C 452.933594 298.371094 452.832031 298.792969 452.6875 299.207031 C 452.546875 299.621094 452.363281 300.015625 452.144531 300.390625 C 451.921875 300.769531 451.667969 301.121094 451.375 301.449219 C 451.085938 301.773438 450.765625 302.070312 450.417969 302.332031 C 432.316406 315.976562 413.070312 315.722656 394.300781 305.597656 Z M 394.300781 305.597656 " fill-opacity="1" fill-rule="evenodd"/><path fill="#000000" d="M 285.636719 289.722656 C 297.378906 289.722656 306.917969 300.378906 306.917969 313.546875 C 306.917969 326.714844 297.378906 337.34375 285.636719 337.34375 C 273.894531 337.34375 264.355469 326.6875 264.355469 313.546875 C 264.355469 300.40625 273.894531 289.722656 285.636719 289.722656 Z M 285.636719 289.722656 " fill-opacity="1" fill-rule="evenodd"/><path fill="#000000" d="M 505.03125 258.785156 C 515.683594 258.785156 524.300781 268.4375 524.300781 280.347656 C 524.300781 292.261719 515.683594 301.886719 505.03125 301.886719 C 494.375 301.886719 485.785156 292.234375 485.785156 280.347656 C 485.785156 268.464844 494.402344 258.785156 505.03125 258.785156 Z M 505.03125 258.785156 " fill-opacity="1" fill-rule="evenodd"/><path fill="#8d5b5e" d="M 386.183594 312.628906 C 389.144531 310.578125 391.847656 308.234375 394.300781 305.597656 C 397.003906 307.0625 399.792969 308.347656 402.667969 309.445312 C 403.839844 324.789062 420.464844 330.898438 448.382812 331.261719 C 465.980469 331.457031 479.0625 338.90625 484.25 352.019531 C 488.796875 363.179688 483.105469 365.96875 472.535156 356.761719 C 466.175781 351.183594 464.417969 353.386719 461.742188 365.132812 C 459.652344 374.226562 453.375 378.074219 447.796875 374.558594 C 442.21875 371.046875 441.828125 363.402344 447.238281 356.0625 C 454.519531 346.300781 447.601562 345.964844 424.394531 344.90625 C 405.902344 344.125 394.300781 330.175781 386.15625 312.710938 Z M 386.183594 312.628906 " fill-opacity="1" fill-rule="evenodd"/></svg>