<svg xmlns="http://www.w3.org/2000/svg" xmlns:xlink="http://www.w3.org/1999/xlink" width="1000" zoomAndPan="magnify" viewBox="0 0 750 749.999995" height="1000" preserveAspectRatio="xMidYMid meet" version="1.0"><path fill="#000000" d="M 493.382812 621.3125 C 493.863281 623.167969 494.011719 625.046875 493.824219 626.953125 C 492.378906 645.144531 484.226562 662.210938 464.710938 665.695312 C 447.261719 668.648438 427.921875 658.519531 413.71875 649.425781 C 412.769531 648.839844 411.890625 648.164062 411.082031 647.398438 C 410.269531 646.632812 409.546875 645.792969 408.910156 644.878906 C 408.273438 643.964844 407.734375 642.996094 407.296875 641.96875 C 406.859375 640.945312 406.527344 639.886719 406.308594 638.792969 C 406.160156 638.085938 406.011719 637.378906 405.894531 636.667969 C 405.773438 635.960938 405.746094 635.546875 405.6875 635.015625 C 382.804688 636.226562 360.597656 635.988281 340.582031 635.25 L 324.785156 634.601562 C 324.648438 637.070312 324 639.390625 322.835938 641.570312 C 314.890625 656.71875 301.988281 669.535156 283.683594 668.144531 C 266.46875 666.757812 252.382812 652.878906 242.34375 640.125 C 240.351562 637.714844 239.167969 634.960938 238.800781 631.855469 L 238.800781 631.589844 C 238.492188 630.019531 238.394531 628.433594 238.507812 626.835938 C 204.875 621.84375 171.925781 613.929688 143.402344 600.878906 C 16.671875 543.0625 -6.5625 433.1875 46.847656 310.410156 C 76.671875 241.726562 130.585938 196.960938 196.460938 173.808594 C 179.453125 150.570312 173.195312 122.519531 195.101562 99.042969 C 211.933594 81.0625 234.519531 78.964844 255.308594 91.335938 C 270.246094 100.195312 277.246094 114.960938 279.875 130.816406 C 287.253906 116.554688 301.78125 106.867188 323.988281 103.058594 L 326.527344 102.648438 C 328.234375 102.347656 329.949219 102.316406 331.667969 102.550781 C 333.386719 102.789062 335.03125 103.28125 336.59375 104.035156 C 341.910156 94.023438 350.324219 84.78125 362.28125 83.660156 C 376.691406 82.332031 386.347656 93.019531 391.1875 105.332031 C 392.851562 104.800781 394.554688 104.535156 396.296875 104.535156 C 398.042969 104.535156 399.746094 104.800781 401.40625 105.332031 C 407.878906 107.355469 414.128906 109.921875 420.15625 113.039062 C 444.011719 125.148438 459.011719 141.003906 464.269531 157.863281 C 472.683594 142.214844 485.261719 129.722656 503.746094 124.496094 C 505.730469 123.929688 507.742188 123.496094 509.785156 123.1875 C 511.828125 122.882812 513.878906 122.707031 515.941406 122.667969 C 518.007812 122.625 520.066406 122.71875 522.117188 122.941406 C 524.167969 123.167969 526.199219 123.523438 528.203125 124.007812 C 530.210938 124.496094 532.175781 125.109375 534.105469 125.851562 C 536.03125 126.59375 537.902344 127.457031 539.71875 128.4375 C 541.53125 129.421875 543.277344 130.515625 544.949219 131.726562 C 546.625 132.933594 548.214844 134.246094 549.71875 135.660156 C 551.261719 137.085938 552.707031 138.605469 554.046875 140.226562 C 555.386719 141.84375 556.609375 143.546875 557.71875 145.332031 C 558.832031 147.117188 559.816406 148.96875 560.675781 150.886719 C 561.535156 152.804688 562.265625 154.769531 562.859375 156.785156 C 563.453125 158.800781 563.910156 160.847656 564.230469 162.925781 C 564.550781 165.003906 564.726562 167.09375 564.765625 169.195312 C 564.800781 171.296875 564.699219 173.390625 564.453125 175.480469 C 564.207031 177.566406 563.824219 179.628906 563.300781 181.664062 C 561.535156 187.832031 558.582031 193.363281 554.441406 198.257812 C 559.136719 199.527344 563.65625 201.261719 567.996094 203.457031 C 586.597656 212.816406 603.929688 230.03125 617.628906 245.445312 C 618.058594 245.929688 618.460938 246.4375 618.832031 246.964844 C 619.203125 247.496094 619.542969 248.042969 619.851562 248.613281 C 620.160156 249.183594 620.433594 249.765625 620.675781 250.367188 C 620.917969 250.964844 621.125 251.578125 621.296875 252.203125 C 621.464844 252.824219 621.601562 253.457031 621.699219 254.097656 C 621.800781 254.734375 621.859375 255.378906 621.886719 256.027344 C 621.910156 256.671875 621.898438 257.316406 621.851562 257.960938 C 621.800781 258.609375 621.714844 259.25 621.59375 259.882812 C 621.472656 260.519531 621.3125 261.144531 621.117188 261.761719 C 620.925781 262.378906 620.695312 262.984375 620.433594 263.574219 C 620.167969 264.164062 619.871094 264.738281 619.542969 265.296875 C 619.214844 265.851562 618.855469 266.386719 618.464844 266.902344 C 618.074219 267.417969 617.652344 267.910156 617.207031 268.378906 C 616.757812 268.847656 616.289062 269.285156 615.789062 269.699219 C 615.292969 270.113281 614.773438 270.496094 614.230469 270.851562 C 613.6875 271.203125 613.128906 271.527344 612.550781 271.816406 L 612.253906 271.816406 C 613.472656 273.429688 614.789062 274.953125 616.210938 276.390625 C 632.570312 293.164062 651.113281 315.457031 657.84375 338.402344 C 658.117188 339.332031 658.308594 340.28125 658.421875 341.246094 C 658.53125 342.207031 658.5625 343.175781 658.507812 344.144531 C 658.453125 345.113281 658.316406 346.070312 658.097656 347.015625 C 657.878906 347.960938 657.582031 348.882812 657.203125 349.777344 C 656.828125 350.671875 656.378906 351.527344 655.855469 352.34375 C 655.332031 353.160156 654.742188 353.929688 654.085938 354.644531 C 653.433594 355.363281 652.722656 356.015625 651.953125 356.609375 C 651.1875 357.207031 650.375 357.730469 649.519531 358.1875 C 655.421875 374.75 660.5625 392.4375 660.53125 409.949219 C 660.558594 411.832031 660.261719 413.664062 659.648438 415.441406 C 659.035156 417.222656 658.140625 418.847656 656.957031 420.3125 C 656.269531 421.292969 655.507812 422.21875 654.683594 423.085938 C 653.859375 423.957031 652.972656 424.761719 652.03125 425.503906 C 651.089844 426.242188 650.097656 426.910156 649.058594 427.507812 C 648.015625 428.101562 646.9375 428.621094 645.824219 429.058594 C 644.707031 429.496094 643.566406 429.851562 642.398438 430.125 C 641.230469 430.394531 640.050781 430.582031 638.855469 430.679688 C 637.660156 430.78125 636.464844 430.792969 635.265625 430.71875 C 634.070312 430.644531 632.886719 430.484375 631.714844 430.234375 C 629.949219 452.792969 625.304688 474.746094 617.777344 496.082031 C 635.964844 497.234375 652.292969 506.890625 665.375 519.707031 C 678.453125 532.523438 700.539062 529.421875 716.542969 525.109375 C 717.304688 524.894531 718.082031 524.734375 718.867188 524.632812 C 719.652344 524.527344 720.445312 524.480469 721.238281 524.492188 C 722.03125 524.5 722.816406 524.566406 723.601562 524.691406 C 724.382812 524.8125 725.15625 524.992188 725.914062 525.222656 C 726.671875 525.457031 727.410156 525.742188 728.125 526.082031 C 728.84375 526.421875 729.53125 526.808594 730.191406 527.246094 C 730.855469 527.683594 731.480469 528.167969 732.074219 528.695312 C 732.664062 529.222656 733.214844 529.789062 733.726562 530.394531 C 733.921875 530.597656 734.101562 530.8125 734.257812 531.046875 C 735.097656 530.828125 735.945312 530.679688 736.808594 530.59375 C 737.667969 530.507812 738.53125 530.488281 739.394531 530.535156 C 740.257812 530.582031 741.113281 530.695312 741.960938 530.871094 C 742.808594 531.050781 743.636719 531.292969 744.445312 531.597656 C 745.257812 531.902344 746.039062 532.265625 746.792969 532.691406 C 747.546875 533.113281 748.265625 533.59375 748.945312 534.128906 C 749.625 534.664062 750.261719 535.246094 750.851562 535.875 C 751.445312 536.507812 751.984375 537.183594 752.472656 537.894531 C 752.960938 538.609375 753.390625 539.359375 753.765625 540.136719 C 754.140625 540.917969 754.453125 541.722656 754.703125 542.550781 C 754.953125 543.378906 755.140625 544.222656 755.261719 545.078125 C 755.382812 545.9375 755.4375 546.796875 755.425781 547.660156 C 755.417969 548.527344 755.339844 549.386719 755.199219 550.242188 C 755.058594 551.09375 754.851562 551.933594 754.582031 552.753906 C 754.308594 553.574219 753.980469 554.371094 753.585938 555.144531 C 753.195312 555.914062 752.746094 556.652344 752.242188 557.355469 C 730.273438 587.738281 700.214844 612.722656 660.5625 608.027344 C 632.332031 604.71875 607.589844 591.875 600.03125 562.609375 C 599.316406 559.355469 598.105469 556.292969 596.398438 553.425781 C 594.914062 553.089844 593.496094 552.566406 592.148438 551.863281 C 570.621094 588.242188 534.335938 609.382812 493.351562 621.371094 Z M 493.382812 621.3125 " fill-opacity="1" fill-rule="evenodd"/><path fill="#ffffff" d="M 459.957031 197.519531 L 458.714844 196.871094 C 452.339844 207.414062 441.855469 217.542969 427.035156 226.605469 C 376.308594 257.613281 320.738281 251.855469 269.980469 224.097656 C 269.664062 223.921875 269.347656 223.738281 269.039062 223.542969 C 268.730469 223.351562 268.429688 223.144531 268.136719 222.933594 C 267.839844 222.71875 267.554688 222.496094 267.273438 222.261719 C 266.992188 222.03125 266.71875 221.789062 266.453125 221.539062 C 266.191406 221.289062 265.933594 221.03125 265.683594 220.761719 C 265.4375 220.496094 265.199219 220.222656 264.96875 219.9375 C 264.738281 219.65625 264.515625 219.367188 264.304688 219.070312 C 264.09375 218.773438 263.890625 218.472656 263.699219 218.160156 C 263.507812 217.851562 263.324219 217.535156 263.152344 217.214844 C 262.980469 216.894531 262.820312 216.566406 262.671875 216.234375 C 262.519531 215.902344 262.378906 215.566406 262.25 215.226562 C 262.125 214.886719 262.003906 214.539062 261.898438 214.191406 C 261.792969 213.84375 261.699219 213.492188 261.613281 213.136719 C 261.53125 212.785156 261.457031 212.425781 261.398438 212.066406 C 261.335938 211.707031 261.289062 211.347656 261.25 210.984375 C 261.214844 210.621094 261.1875 210.257812 261.175781 209.894531 C 261.160156 209.53125 261.160156 209.167969 261.167969 208.800781 C 261.179688 208.4375 261.199219 208.074219 261.234375 207.710938 C 261.265625 207.347656 261.3125 206.988281 261.367188 206.628906 C 261.425781 206.269531 261.496094 205.910156 261.574219 205.554688 C 261.652344 205.199219 261.746094 204.847656 261.847656 204.496094 C 261.949219 204.148438 262.066406 203.800781 262.191406 203.460938 C 262.316406 203.117188 262.449219 202.78125 262.597656 202.445312 C 262.746094 202.113281 262.902344 201.785156 263.070312 201.460938 C 263.238281 201.136719 263.417969 200.820312 263.605469 200.507812 C 263.792969 200.199219 263.992188 199.890625 264.203125 199.59375 C 264.410156 199.296875 264.628906 199.003906 264.855469 198.71875 C 265.082031 198.433594 265.320312 198.15625 265.5625 197.886719 C 265.808594 197.617188 266.0625 197.355469 266.324219 197.105469 C 266.585938 196.851562 266.859375 196.605469 267.136719 196.371094 C 267.414062 196.136719 267.699219 195.910156 267.992188 195.691406 C 268.285156 195.476562 268.582031 195.269531 268.890625 195.070312 C 275.652344 190.671875 278.011719 185.886719 276.269531 177.886719 C 275.976562 176.496094 275.710938 175.109375 275.472656 173.75 L 272.523438 174.074219 C 173.546875 185.238281 98.167969 234.667969 62.351562 317.140625 C 7.636719 443.167969 42.480469 536.273438 150.488281 585.496094 C 198.085938 607.257812 262.1875 615.320312 341.199219 618.214844 C 463.765625 622.878906 545.582031 600.261719 578.800781 541.203125 C 652.382812 410.597656 616.449219 284.304688 459.957031 197.519531 Z M 459.957031 197.519531 " fill-opacity="1" fill-rule="evenodd"/><path fill="#7308ff" d="M 418.324219 212.167969 C 372.882812 239.925781 323.574219 234.136719 278.191406 209.214844 C 290.738281 201.035156 296.144531 189.3125 292.953125 174.28125 C 285.75 141.535156 296.941406 124.851562 326.851562 119.742188 L 329.242188 119.332031 C 319.4375 141.710938 312.765625 167.636719 324.960938 189.636719 C 331.929688 202.214844 346.132812 206.171875 359.625 205.671875 C 373.117188 205.167969 386.671875 200.207031 392.871094 187.421875 C 402.734375 167.167969 402.113281 143.128906 396.445312 121.484375 C 401.980469 123.191406 407.335938 125.347656 412.507812 127.953125 C 458.332031 151.25 462.703125 185.03125 418.414062 212.167969 Z M 418.324219 212.167969 " fill-opacity="1" fill-rule="evenodd"/><path fill="#fcc25e" d="M 377.664062 180.039062 C 385.757812 163.386719 386.082031 139.027344 375.539062 111.769531 C 369.222656 95.410156 358.769531 97.804688 351.210938 112.597656 C 336.832031 140.796875 330.1875 164.183594 339.753906 181.429688 C 343.207031 187.6875 351.859375 189.015625 359.003906 188.75 C 366.152344 188.484375 374.535156 186.476562 377.664062 179.894531 Z M 377.664062 180.039062 " fill-opacity="1" fill-rule="evenodd"/><path fill="#302826" d="M 347.371094 120.421875 C 345.601562 124.171875 343.976562 127.835938 342.558594 131.40625 C 344.25 132.453125 346.03125 133.308594 347.902344 133.976562 C 354.695312 136.425781 360.246094 135.394531 360.246094 131.703125 C 360.246094 128.011719 354.695312 123.050781 347.902344 120.601562 Z M 347.371094 120.421875 " fill-opacity="1" fill-rule="evenodd"/><path fill="#302826" d="M 337.480469 146.734375 C 336.03125 152.199219 335.292969 157.761719 335.265625 163.417969 C 337.777344 165.011719 340.433594 166.3125 343.238281 167.3125 C 352.921875 170.769531 360.777344 169.320312 360.777344 164.066406 C 360.777344 158.808594 352.921875 151.753906 343.238281 148.269531 C 341.359375 147.601562 339.441406 147.089844 337.480469 146.734375 Z M 337.480469 146.734375 " fill-opacity="1" fill-rule="evenodd"/><path fill="#ffffff" d="M 246.65625 105.863281 C 260.03125 113.835938 265.878906 130.90625 263.898438 157.597656 L 264.078125 158.042969 C 247.019531 160.21875 230.21875 163.65625 213.675781 168.347656 C 195.632812 146.671875 192.5625 126.535156 207.472656 110.589844 C 219.050781 98.277344 232.984375 97.746094 246.65625 105.863281 Z M 246.65625 105.863281 " fill-opacity="1" fill-rule="evenodd"/><path fill="#ffb9b1" d="M 248.546875 160.285156 C 240.542969 161.675781 232.632812 163.238281 224.925781 165.246094 C 217.101562 156.535156 214.679688 144.84375 217.453125 130.167969 C 219.875 117.382812 226.3125 116.464844 237.886719 126.535156 C 246.746094 134.210938 250.523438 145.136719 248.605469 160.285156 Z M 248.546875 160.285156 " fill-opacity="1" fill-rule="evenodd"/><path fill="#ffffff" d="M 520.28125 201.300781 C 518.261719 201.996094 516.429688 203.023438 514.785156 204.378906 C 513.136719 205.734375 511.78125 207.339844 510.714844 209.183594 C 498.074219 200.328125 484.964844 192.148438 471.679688 184.648438 C 478.648438 160.285156 490.902344 145.523438 508.351562 140.621094 C 509.632812 140.25 510.933594 139.964844 512.253906 139.761719 C 513.574219 139.5625 514.902344 139.445312 516.234375 139.417969 C 517.570312 139.386719 518.902344 139.445312 520.230469 139.589844 C 521.558594 139.730469 522.871094 139.960938 524.167969 140.273438 C 525.464844 140.585938 526.738281 140.980469 527.984375 141.460938 C 529.230469 141.9375 530.441406 142.492188 531.613281 143.128906 C 532.789062 143.761719 533.917969 144.472656 535 145.253906 C 536.082031 146.035156 537.109375 146.882812 538.085938 147.796875 C 539.078125 148.699219 540.003906 149.664062 540.867188 150.691406 C 541.726562 151.71875 542.515625 152.796875 543.234375 153.929688 C 543.949219 155.066406 544.585938 156.242188 545.144531 157.460938 C 545.699219 158.683594 546.171875 159.933594 546.5625 161.21875 C 546.949219 162.5 547.25 163.804688 547.460938 165.128906 C 547.671875 166.453125 547.796875 167.785156 547.828125 169.125 C 547.859375 170.46875 547.800781 171.804688 547.652344 173.136719 C 547.503906 174.46875 547.269531 175.785156 546.941406 177.085938 C 543.753906 188.425781 534.246094 195.839844 520.367188 201.300781 Z M 520.28125 201.300781 " fill-opacity="1" fill-rule="evenodd"/><path fill="#ffb9b1" d="M 502.148438 203.339844 C 496.246094 199.292969 489.925781 195.394531 483.726562 191.675781 C 484.09375 189.371094 484.695312 187.128906 485.535156 184.953125 C 486.371094 182.777344 487.425781 180.710938 488.699219 178.753906 C 489.96875 176.796875 491.429688 174.996094 493.078125 173.347656 C 494.730469 171.699219 496.53125 170.238281 498.488281 168.96875 C 513.753906 158.101562 523.496094 158.691406 524.03125 169.261719 C 524.972656 187.925781 512.839844 194.242188 502.121094 203.339844 Z M 502.148438 203.339844 " fill-opacity="1" fill-rule="evenodd"/><path fill="#7308ff" d="M 643.640625 409.980469 C 640.6875 413.875 637.292969 414.910156 633.691406 413.109375 L 632.332031 413.109375 C 632.304688 401.960938 631.402344 390.886719 629.625 379.882812 C 627.847656 368.878906 625.214844 358.085938 621.734375 347.496094 C 604.488281 295.140625 568.585938 253.003906 525.535156 219.992188 C 526.125 219.164062 526.746094 218.339844 527.367188 217.542969 C 545.554688 205.730469 571.441406 218.753906 605.019531 256.609375 C 590.523438 263.871094 590.433594 274.324219 604.136719 288.292969 C 624.804688 309.492188 637.175781 327.976562 641.664062 343.15625 C 633.277344 345.105469 628.9375 350.683594 631.890625 358.953125 C 638.710938 377.941406 643.699219 394.386719 643.699219 409.890625 Z M 643.640625 409.980469 " fill-opacity="1" fill-rule="evenodd"/><path fill="#7308ff" d="M 616.449219 558.328125 C 613.730469 547.816406 609.65625 538.957031 600.265625 536.890625 C 604.28125 529.066406 608.003906 521.09375 611.339844 513.03125 C 627.34375 511.941406 641.722656 520.207031 653.621094 531.785156 C 670.066406 547.789062 694.632812 548.46875 720.972656 541.410156 C 716.484375 551.726562 704.425781 559.460938 684.800781 564.617188 C 706.023438 568.242188 723.933594 562.492188 738.539062 547.375 C 714.417969 580.769531 689.230469 594.324219 662.570312 591.164062 C 640.070312 588.449219 621.910156 579.589844 616.449219 558.328125 Z M 616.449219 558.328125 " fill-opacity="1" fill-rule="evenodd"/><path fill="#ffffff" d="M 255.394531 629.464844 C 277.441406 657.023438 294.921875 658.441406 307.835938 633.714844 C 290.710938 632.710938 273.023438 631.324219 255.367188 629.199219 L 255.367188 629.464844 Z M 255.394531 629.464844 " fill-opacity="1" fill-rule="evenodd"/><path fill="#ffffff" d="M 422.839844 635.191406 C 456.679688 656.847656 474.71875 653.648438 476.964844 625.59375 C 459.03125 629.632812 440.902344 632.378906 422.574219 633.832031 Z M 422.839844 635.191406 " fill-opacity="1" fill-rule="evenodd"/><path fill="#000000" d="M 226.742188 249.195312 C 227.222656 249.445312 227.6875 249.730469 228.132812 250.046875 C 228.574219 250.363281 229 250.710938 229.402344 251.089844 C 229.808594 251.46875 230.1875 251.878906 230.546875 252.316406 C 230.902344 252.753906 231.238281 253.21875 231.546875 253.707031 C 231.855469 254.199219 232.140625 254.714844 232.398438 255.257812 C 232.65625 255.796875 232.886719 256.359375 233.09375 256.945312 C 233.296875 257.53125 233.472656 258.136719 233.621094 258.757812 C 233.769531 259.382812 233.886719 260.023438 233.976562 260.679688 C 234.066406 261.335938 234.128906 262.003906 234.160156 262.6875 C 234.195312 263.371094 234.195312 264.0625 234.167969 264.761719 C 234.144531 265.464844 234.085938 266.175781 234.003906 266.890625 C 233.917969 267.605469 233.804688 268.324219 233.664062 269.042969 C 233.519531 269.765625 233.347656 270.484375 233.152344 271.207031 C 232.953125 271.925781 232.726562 272.640625 232.472656 273.355469 C 232.21875 274.066406 231.941406 274.769531 231.636719 275.46875 C 231.332031 276.167969 231.003906 276.851562 230.648438 277.53125 C 230.296875 278.207031 229.917969 278.867188 229.519531 279.515625 C 229.121094 280.164062 228.703125 280.796875 228.261719 281.410156 C 227.820312 282.023438 227.359375 282.617188 226.882812 283.191406 C 226.402344 283.765625 225.910156 284.316406 225.398438 284.84375 C 224.886719 285.371094 224.363281 285.875 223.824219 286.351562 C 223.285156 286.832031 222.734375 287.28125 222.171875 287.703125 C 221.613281 288.125 221.042969 288.519531 220.460938 288.878906 C 219.882812 289.242188 219.300781 289.574219 218.707031 289.875 C 218.117188 290.175781 217.523438 290.441406 216.925781 290.675781 C 216.332031 290.910156 215.734375 291.109375 215.136719 291.277344 C 214.539062 291.441406 213.945312 291.574219 213.355469 291.671875 C 212.761719 291.769531 212.179688 291.828125 211.597656 291.855469 C 211.015625 291.882812 210.445312 291.871094 209.882812 291.828125 C 209.320312 291.78125 208.765625 291.703125 208.226562 291.585938 C 207.683594 291.472656 207.15625 291.320312 206.640625 291.136719 C 206.128906 290.953125 205.628906 290.734375 205.148438 290.484375 C 204.667969 290.230469 204.203125 289.945312 203.757812 289.628906 C 203.316406 289.3125 202.890625 288.964844 202.488281 288.585938 C 202.085938 288.207031 201.703125 287.800781 201.34375 287.363281 C 200.988281 286.925781 200.652344 286.460938 200.34375 285.96875 C 200.035156 285.476562 199.75 284.960938 199.492188 284.421875 C 199.234375 283.878906 199.003906 283.316406 198.800781 282.730469 C 198.59375 282.144531 198.417969 281.542969 198.269531 280.917969 C 198.125 280.292969 198.003906 279.65625 197.914062 279 C 197.824219 278.34375 197.761719 277.671875 197.730469 276.988281 C 197.695312 276.308594 197.695312 275.617188 197.722656 274.914062 C 197.746094 274.210938 197.804688 273.503906 197.886719 272.789062 C 197.972656 272.074219 198.085938 271.355469 198.230469 270.632812 C 198.371094 269.914062 198.542969 269.191406 198.738281 268.472656 C 198.9375 267.75 199.164062 267.035156 199.417969 266.324219 C 199.671875 265.609375 199.949219 264.90625 200.253906 264.207031 C 200.558594 263.511719 200.886719 262.824219 201.242188 262.148438 C 201.59375 261.472656 201.972656 260.808594 202.371094 260.160156 C 202.769531 259.511719 203.1875 258.882812 203.628906 258.269531 C 204.070312 257.652344 204.53125 257.058594 205.007812 256.484375 C 205.488281 255.910156 205.980469 255.359375 206.492188 254.832031 C 207.003906 254.304688 207.527344 253.800781 208.066406 253.324219 C 208.605469 252.847656 209.15625 252.394531 209.71875 251.972656 C 210.277344 251.550781 210.847656 251.160156 211.429688 250.796875 C 212.007812 250.433594 212.589844 250.101562 213.183594 249.800781 C 213.773438 249.503906 214.367188 249.234375 214.964844 249 C 215.558594 248.765625 216.15625 248.566406 216.753906 248.398438 C 217.351562 248.234375 217.945312 248.101562 218.535156 248.007812 C 219.128906 247.910156 219.714844 247.847656 220.292969 247.820312 C 220.875 247.796875 221.445312 247.804688 222.007812 247.851562 C 222.574219 247.894531 223.125 247.976562 223.667969 248.089844 C 224.207031 248.203125 224.734375 248.355469 225.25 248.539062 C 225.761719 248.722656 226.261719 248.941406 226.742188 249.195312 Z M 226.742188 249.195312 " fill-opacity="1" fill-rule="nonzero"/><path fill="#000000" d="M 453.152344 287.160156 C 453.507812 287.835938 453.835938 288.519531 454.140625 289.21875 C 454.445312 289.917969 454.722656 290.621094 454.976562 291.332031 C 455.230469 292.046875 455.457031 292.761719 455.652344 293.480469 C 455.851562 294.203125 456.023438 294.921875 456.164062 295.644531 C 456.308594 296.363281 456.421875 297.082031 456.507812 297.796875 C 456.589844 298.511719 456.648438 299.222656 456.671875 299.925781 C 456.699219 300.625 456.695312 301.320312 456.664062 302 C 456.632812 302.683594 456.570312 303.351562 456.480469 304.007812 C 456.390625 304.664062 456.269531 305.304688 456.125 305.929688 C 455.976562 306.550781 455.800781 307.15625 455.59375 307.742188 C 455.390625 308.328125 455.160156 308.890625 454.902344 309.429688 C 454.644531 309.972656 454.359375 310.488281 454.050781 310.980469 C 453.742188 311.472656 453.40625 311.933594 453.050781 312.371094 C 452.691406 312.808594 452.308594 313.21875 451.90625 313.597656 C 451.503906 313.976562 451.078125 314.324219 450.636719 314.640625 C 450.191406 314.957031 449.726562 315.242188 449.246094 315.492188 C 448.765625 315.746094 448.265625 315.964844 447.753906 316.148438 C 447.238281 316.332031 446.710938 316.484375 446.167969 316.597656 C 445.628906 316.714844 445.074219 316.792969 444.511719 316.835938 C 443.949219 316.882812 443.378906 316.890625 442.796875 316.867188 C 442.214844 316.839844 441.628906 316.777344 441.039062 316.683594 C 440.449219 316.585938 439.855469 316.453125 439.257812 316.289062 C 438.660156 316.121094 438.0625 315.921875 437.464844 315.6875 C 436.871094 315.453125 436.277344 315.1875 435.6875 314.886719 C 435.09375 314.585938 434.511719 314.253906 433.933594 313.890625 C 433.351562 313.527344 432.78125 313.136719 432.222656 312.714844 C 431.660156 312.292969 431.109375 311.839844 430.570312 311.363281 C 430.03125 310.886719 429.507812 310.382812 428.996094 309.855469 C 428.484375 309.328125 427.988281 308.777344 427.511719 308.203125 C 427.035156 307.628906 426.574219 307.035156 426.132812 306.421875 C 425.691406 305.804688 425.273438 305.175781 424.875 304.527344 C 424.476562 303.878906 424.097656 303.214844 423.746094 302.539062 C 423.390625 301.863281 423.0625 301.175781 422.757812 300.480469 C 422.453125 299.78125 422.171875 299.078125 421.921875 298.363281 C 421.667969 297.652344 421.441406 296.9375 421.242188 296.214844 C 421.046875 295.496094 420.875 294.773438 420.730469 294.054688 C 420.589844 293.332031 420.476562 292.613281 420.390625 291.898438 C 420.304688 291.183594 420.25 290.476562 420.222656 289.773438 C 420.199219 289.070312 420.199219 288.378906 420.234375 287.699219 C 420.265625 287.015625 420.328125 286.34375 420.417969 285.6875 C 420.507812 285.035156 420.625 284.394531 420.773438 283.769531 C 420.921875 283.144531 421.097656 282.542969 421.300781 281.957031 C 421.507812 281.371094 421.738281 280.808594 421.996094 280.269531 C 422.253906 279.726562 422.539062 279.210938 422.847656 278.71875 C 423.15625 278.226562 423.492188 277.761719 423.847656 277.324219 C 424.207031 276.886719 424.585938 276.480469 424.992188 276.101562 C 425.394531 275.722656 425.816406 275.375 426.261719 275.058594 C 426.707031 274.742188 427.171875 274.457031 427.652344 274.203125 C 428.132812 273.953125 428.632812 273.734375 429.144531 273.550781 C 429.660156 273.367188 430.1875 273.214844 430.726562 273.101562 C 431.269531 272.984375 431.820312 272.90625 432.386719 272.859375 C 432.949219 272.816406 433.519531 272.804688 434.101562 272.832031 C 434.679688 272.859375 435.265625 272.921875 435.859375 273.015625 C 436.449219 273.113281 437.042969 273.246094 437.640625 273.410156 C 438.238281 273.578125 438.835938 273.777344 439.429688 274.011719 C 440.027344 274.246094 440.621094 274.511719 441.210938 274.8125 C 441.800781 275.113281 442.386719 275.445312 442.964844 275.808594 C 443.546875 276.171875 444.117188 276.5625 444.675781 276.984375 C 445.238281 277.40625 445.789062 277.855469 446.328125 278.335938 C 446.867188 278.8125 447.390625 279.316406 447.902344 279.84375 C 448.414062 280.371094 448.90625 280.921875 449.386719 281.496094 C 449.863281 282.070312 450.324219 282.664062 450.765625 283.277344 C 451.207031 283.890625 451.625 284.523438 452.023438 285.171875 C 452.421875 285.820312 452.800781 286.480469 453.152344 287.160156 Z M 453.152344 287.160156 " fill-opacity="1" fill-rule="nonzero"/><path fill="#000000" d="M 332.636719 359.011719 C 307.421875 365.09375 280.464844 363.207031 263.425781 341.296875 C 247.484375 320.832031 257.195312 295.289062 269.894531 276.039062 C 270.488281 275.136719 271.160156 274.300781 271.914062 273.527344 C 272.667969 272.753906 273.488281 272.0625 274.375 271.445312 C 275.261719 270.832031 276.199219 270.304688 277.1875 269.871094 C 278.175781 269.433594 279.195312 269.097656 280.246094 268.855469 C 281.296875 268.617188 282.363281 268.480469 283.441406 268.445312 C 284.519531 268.40625 285.59375 268.476562 286.660156 268.644531 C 287.726562 268.816406 288.765625 269.085938 289.777344 269.453125 C 290.792969 269.824219 291.761719 270.285156 292.6875 270.839844 C 294.746094 272.070312 296.863281 273.179688 299.042969 274.175781 C 301.21875 275.171875 303.449219 276.046875 305.722656 276.796875 C 307.996094 277.546875 310.308594 278.171875 312.648438 278.667969 C 314.992188 279.164062 317.359375 279.53125 319.742188 279.765625 C 322.125 280.003906 324.515625 280.109375 326.910156 280.082031 C 329.304688 280.054688 331.691406 279.898438 334.070312 279.609375 C 336.449219 279.320312 338.804688 278.902344 341.136719 278.355469 C 343.46875 277.808594 345.761719 277.132812 348.019531 276.332031 C 348.570312 276.140625 349.128906 275.976562 349.695312 275.84375 C 350.261719 275.707031 350.832031 275.601562 351.410156 275.527344 C 351.984375 275.449219 352.566406 275.402344 353.148438 275.386719 C 353.730469 275.371094 354.308594 275.382812 354.890625 275.429688 C 355.46875 275.472656 356.046875 275.542969 356.621094 275.648438 C 357.191406 275.75 357.757812 275.882812 358.316406 276.042969 C 358.878906 276.203125 359.425781 276.390625 359.964844 276.609375 C 360.507812 276.824219 361.035156 277.070312 361.546875 277.34375 C 362.0625 277.613281 362.5625 277.910156 363.046875 278.234375 C 363.53125 278.558594 363.996094 278.902344 364.445312 279.273438 C 364.894531 279.644531 365.320312 280.039062 365.730469 280.453125 C 366.136719 280.867188 366.523438 281.300781 366.886719 281.757812 C 367.25 282.210938 367.589844 282.683594 367.90625 283.171875 C 368.21875 283.664062 368.507812 284.167969 368.773438 284.6875 C 369.035156 285.203125 369.269531 285.734375 369.480469 286.28125 C 369.6875 286.824219 369.867188 287.375 370.019531 287.9375 C 378.875 321.6875 370.726562 352.457031 332.636719 358.804688 Z M 332.636719 359.011719 " fill-opacity="1" fill-rule="evenodd"/><path fill="#a35f60" d="M 329.242188 342.417969 C 353.394531 338.480469 361.535156 321.746094 353.660156 292.21875 C 350.816406 293.226562 347.929688 294.074219 344.992188 294.765625 C 342.058594 295.453125 339.09375 295.980469 336.097656 296.34375 C 333.105469 296.703125 330.097656 296.902344 327.082031 296.933594 C 324.066406 296.96875 321.058594 296.832031 318.058594 296.535156 C 315.058594 296.234375 312.082031 295.773438 309.132812 295.144531 C 306.183594 294.519531 303.273438 293.734375 300.410156 292.785156 C 297.546875 291.839844 294.746094 290.738281 292.003906 289.484375 C 289.261719 288.230469 286.59375 286.828125 284.007812 285.28125 C 271.636719 304.207031 268.269531 320.035156 276.890625 330.960938 C 287.757812 345.046875 306.152344 348.117188 329.242188 342.417969 Z M 329.242188 342.417969 " fill-opacity="1" fill-rule="evenodd"/><path fill="#ffb9b1" d="M 329.242188 342.417969 C 340.777344 340.546875 348.652344 335.753906 352.863281 328.039062 C 331.859375 306.578125 304.980469 301.660156 272.226562 313.273438 C 271.992188 314.824219 271.910156 316.386719 271.988281 317.953125 C 272.066406 319.523438 272.300781 321.066406 272.6875 322.589844 C 273.074219 324.113281 273.609375 325.578125 274.292969 326.992188 C 274.976562 328.40625 275.792969 329.738281 276.742188 330.988281 C 287.757812 345.046875 306.152344 348.117188 329.242188 342.417969 Z M 329.242188 342.417969 " fill-opacity="1" fill-rule="evenodd"/><path fill="#000000" d="M 156.71875 434.902344 C 156.285156 433.601562 155.921875 432.28125 155.621094 430.945312 C 155.324219 429.609375 155.09375 428.257812 154.933594 426.898438 C 154.773438 425.539062 154.679688 424.171875 154.65625 422.804688 C 154.636719 421.433594 154.683594 420.066406 154.800781 418.703125 C 154.917969 417.335938 155.101562 415.980469 155.359375 414.636719 C 155.613281 413.289062 155.933594 411.960938 156.324219 410.648438 C 156.714844 409.332031 157.171875 408.042969 157.691406 406.777344 C 158.210938 405.511719 158.796875 404.273438 159.445312 403.066406 C 160.089844 401.859375 160.796875 400.6875 161.5625 399.550781 C 162.332031 398.417969 163.152344 397.324219 164.03125 396.269531 C 164.90625 395.21875 165.835938 394.214844 166.816406 393.257812 C 167.796875 392.300781 168.820312 391.394531 169.894531 390.542969 C 170.964844 389.6875 172.078125 388.890625 173.230469 388.152344 C 174.382812 387.410156 175.570312 386.734375 176.792969 386.113281 C 178.015625 385.496094 179.265625 384.9375 180.542969 384.445312 C 181.820312 383.957031 183.121094 383.53125 184.445312 383.171875 C 185.765625 382.8125 187.101562 382.519531 188.453125 382.296875 C 189.804688 382.070312 191.164062 381.917969 192.53125 381.832031 C 193.898438 381.746094 195.265625 381.730469 196.636719 381.785156 C 198.003906 381.839844 199.367188 381.960938 200.722656 382.15625 C 202.078125 382.347656 203.421875 382.609375 204.75 382.9375 C 206.082031 383.265625 207.390625 383.664062 208.679688 384.125 C 209.96875 384.585938 211.230469 385.113281 212.46875 385.703125 C 213.703125 386.296875 214.90625 386.949219 216.074219 387.660156 C 217.246094 388.375 218.375 389.144531 219.464844 389.972656 C 220.558594 390.800781 221.605469 391.683594 222.605469 392.617188 C 223.605469 393.550781 224.558594 394.535156 225.460938 395.566406 C 226.359375 396.597656 227.207031 397.671875 228 398.789062 C 228.792969 399.90625 229.523438 401.0625 230.199219 402.253906 C 230.875 403.449219 231.488281 404.671875 232.035156 405.925781 C 232.585938 407.179688 233.070312 408.460938 233.492188 409.761719 C 233.910156 411.066406 234.265625 412.390625 234.550781 413.730469 C 234.742188 414.304688 234.871094 414.894531 234.9375 415.496094 C 235.003906 416.101562 235.007812 416.703125 234.949219 417.308594 C 234.886719 417.910156 234.761719 418.5 234.578125 419.078125 C 234.390625 419.65625 234.148438 420.207031 233.84375 420.734375 C 233.539062 421.261719 233.1875 421.75 232.78125 422.199219 C 232.375 422.648438 231.925781 423.054688 231.433594 423.410156 C 230.941406 423.765625 230.417969 424.0625 229.863281 424.308594 C 229.308594 424.554688 228.730469 424.738281 228.136719 424.859375 C 227.542969 424.984375 226.945312 425.042969 226.335938 425.039062 C 225.730469 425.035156 225.128906 424.964844 224.539062 424.832031 C 223.945312 424.703125 223.375 424.511719 222.820312 424.257812 C 222.269531 424.003906 221.75 423.699219 221.265625 423.335938 C 220.777344 422.972656 220.335938 422.5625 219.933594 422.105469 C 219.535156 421.648438 219.1875 421.15625 218.890625 420.625 C 218.597656 420.097656 218.359375 419.539062 218.183594 418.960938 C 218.003906 418.378906 217.890625 417.789062 217.839844 417.183594 C 217.679688 416.410156 217.480469 415.648438 217.242188 414.894531 C 217.003906 414.140625 216.726562 413.402344 216.414062 412.675781 C 216.097656 411.953125 215.75 411.246094 215.363281 410.554688 C 214.976562 409.867188 214.558594 409.199219 214.101562 408.554688 C 213.648438 407.90625 213.164062 407.285156 212.644531 406.6875 C 212.128906 406.09375 211.582031 405.523438 211.007812 404.984375 C 210.429688 404.441406 209.828125 403.933594 209.203125 403.453125 C 208.574219 402.972656 207.921875 402.527344 207.25 402.113281 C 206.578125 401.699219 205.886719 401.324219 205.171875 400.980469 C 204.460938 400.636719 203.734375 400.332031 202.992188 400.066406 C 202.25 399.796875 201.492188 399.566406 200.726562 399.375 C 199.960938 399.183594 199.1875 399.035156 198.40625 398.921875 C 197.625 398.808594 196.839844 398.738281 196.050781 398.707031 C 195.261719 398.675781 194.472656 398.683594 193.683594 398.730469 C 192.894531 398.78125 192.109375 398.867188 191.332031 398.996094 C 190.550781 399.125 189.78125 399.292969 189.019531 399.5 C 188.257812 399.710938 187.507812 399.953125 186.773438 400.238281 C 186.035156 400.523438 185.3125 400.84375 184.609375 401.199219 C 183.90625 401.558594 183.222656 401.949219 182.558594 402.378906 C 181.894531 402.804688 181.253906 403.265625 180.636719 403.757812 C 180.019531 404.25 179.425781 404.773438 178.863281 405.328125 C 178.300781 405.878906 177.765625 406.460938 177.261719 407.066406 C 176.757812 407.675781 176.285156 408.308594 175.84375 408.960938 C 175.402344 409.617188 174.996094 410.292969 174.628906 410.992188 C 174.257812 411.6875 173.921875 412.402344 173.625 413.136719 C 173.324219 413.867188 173.066406 414.609375 172.84375 415.367188 C 172.621094 416.125 172.4375 416.894531 172.292969 417.671875 C 172.148438 418.445312 172.046875 419.230469 171.980469 420.015625 C 171.917969 420.804688 171.894531 421.59375 171.910156 422.382812 C 171.925781 423.171875 171.984375 423.957031 172.082031 424.742188 C 172.179688 425.527344 172.3125 426.300781 172.492188 427.074219 C 172.667969 427.84375 172.882812 428.601562 173.136719 429.347656 C 173.316406 429.890625 173.445312 430.441406 173.519531 431.007812 C 173.589844 431.570312 173.609375 432.140625 173.570312 432.707031 C 173.53125 433.277344 173.441406 433.835938 173.292969 434.386719 C 173.144531 434.9375 172.941406 435.464844 172.6875 435.976562 C 172.4375 436.488281 172.136719 436.96875 171.789062 437.421875 C 171.441406 437.871094 171.050781 438.285156 170.621094 438.660156 C 170.195312 439.035156 169.730469 439.363281 169.238281 439.648438 C 168.746094 439.933594 168.226562 440.167969 167.6875 440.347656 C 167.148438 440.53125 166.59375 440.660156 166.03125 440.730469 C 165.464844 440.804688 164.898438 440.824219 164.328125 440.785156 C 163.761719 440.746094 163.199219 440.652344 162.652344 440.503906 C 162.101562 440.355469 161.570312 440.15625 161.058594 439.902344 C 160.550781 439.648438 160.066406 439.347656 159.617188 439 C 159.164062 438.652344 158.75 438.265625 158.375 437.835938 C 158 437.40625 157.671875 436.945312 157.386719 436.453125 C 157.105469 435.957031 156.871094 435.441406 156.6875 434.902344 Z M 362.785156 429.851562 C 362.71875 428.5 362.722656 427.148438 362.792969 425.796875 C 362.859375 424.449219 363 423.105469 363.203125 421.765625 C 363.410156 420.429688 363.679688 419.105469 364.019531 417.796875 C 364.355469 416.488281 364.757812 415.199219 365.226562 413.929688 C 365.695312 412.660156 366.226562 411.417969 366.816406 410.203125 C 367.410156 408.988281 368.0625 407.804688 368.773438 406.652344 C 369.484375 405.503906 370.253906 404.390625 371.074219 403.320312 C 371.898438 402.246094 372.773438 401.214844 373.699219 400.230469 C 374.628906 399.246094 375.601562 398.308594 376.621094 397.421875 C 377.644531 396.535156 378.707031 395.703125 379.808594 394.921875 C 380.914062 394.140625 382.054688 393.417969 383.234375 392.753906 C 384.410156 392.085938 385.617188 391.480469 386.855469 390.9375 C 388.09375 390.394531 389.355469 389.914062 390.644531 389.496094 C 391.929688 389.078125 393.234375 388.726562 394.554688 388.4375 C 395.875 388.152344 397.210938 387.933594 398.554688 387.78125 C 399.898438 387.628906 401.246094 387.542969 402.597656 387.527344 C 403.949219 387.511719 405.300781 387.5625 406.648438 387.679688 C 407.992188 387.800781 409.332031 387.984375 410.660156 388.238281 C 411.988281 388.492188 413.300781 388.8125 414.597656 389.195312 C 415.894531 389.582031 417.167969 390.03125 418.417969 390.542969 C 419.671875 391.058594 420.894531 391.632812 422.085938 392.269531 C 423.28125 392.90625 424.4375 393.597656 425.5625 394.351562 C 426.683594 395.105469 427.769531 395.910156 428.8125 396.773438 C 429.855469 397.636719 430.851562 398.546875 431.800781 399.507812 C 432.753906 400.46875 433.652344 401.476562 434.503906 402.53125 C 435.351562 403.582031 436.148438 404.675781 436.886719 405.804688 C 437.625 406.9375 438.308594 408.105469 438.929688 409.304688 C 439.554688 410.507812 440.113281 411.734375 440.613281 412.992188 C 441.113281 414.25 441.546875 415.527344 441.917969 416.828125 C 442.289062 418.128906 442.59375 419.445312 442.832031 420.777344 C 443.070312 422.109375 443.242188 423.449219 443.34375 424.796875 C 443.449219 426.144531 443.484375 427.496094 443.453125 428.847656 C 443.410156 429.394531 443.316406 429.929688 443.167969 430.457031 C 443.023438 430.984375 442.832031 431.492188 442.589844 431.984375 C 442.347656 432.476562 442.0625 432.9375 441.730469 433.375 C 441.402344 433.8125 441.035156 434.210938 440.628906 434.578125 C 440.222656 434.945312 439.785156 435.269531 439.316406 435.550781 C 438.847656 435.835938 438.355469 436.070312 437.84375 436.261719 C 437.332031 436.449219 436.804688 436.589844 436.265625 436.679688 C 435.722656 436.769531 435.179688 436.804688 434.632812 436.792969 C 434.085938 436.777344 433.546875 436.710938 433.011719 436.59375 C 432.476562 436.480469 431.960938 436.3125 431.457031 436.097656 C 430.953125 435.878906 430.476562 435.621094 430.023438 435.3125 C 429.570312 435.007812 429.148438 434.660156 428.761719 434.273438 C 428.375 433.886719 428.027344 433.464844 427.722656 433.015625 C 427.414062 432.5625 427.152344 432.082031 426.9375 431.582031 C 426.71875 431.078125 426.554688 430.558594 426.4375 430.027344 C 426.316406 429.492188 426.253906 428.953125 426.238281 428.40625 C 426.253906 427.628906 426.230469 426.855469 426.171875 426.085938 C 426.109375 425.3125 426.011719 424.546875 425.871094 423.785156 C 425.734375 423.023438 425.558594 422.269531 425.34375 421.523438 C 425.132812 420.78125 424.882812 420.046875 424.59375 419.328125 C 424.308594 418.609375 423.984375 417.90625 423.628906 417.21875 C 423.269531 416.53125 422.878906 415.863281 422.453125 415.21875 C 422.03125 414.570312 421.574219 413.945312 421.085938 413.34375 C 420.601562 412.742188 420.082031 412.164062 419.539062 411.613281 C 418.992188 411.0625 418.421875 410.542969 417.824219 410.050781 C 417.226562 409.558594 416.609375 409.09375 415.964844 408.664062 C 415.320312 408.234375 414.65625 407.835938 413.972656 407.472656 C 413.289062 407.109375 412.589844 406.78125 411.871094 406.484375 C 411.15625 406.191406 410.425781 405.933594 409.683594 405.714844 C 408.941406 405.496094 408.191406 405.3125 407.429688 405.167969 C 406.667969 405.023438 405.902344 404.914062 405.132812 404.847656 C 404.359375 404.777344 403.585938 404.75 402.8125 404.757812 C 402.039062 404.769531 401.265625 404.816406 400.496094 404.902344 C 399.726562 404.988281 398.964844 405.113281 398.207031 405.277344 C 397.449219 405.441406 396.703125 405.644531 395.96875 405.882812 C 395.230469 406.121094 394.507812 406.394531 393.796875 406.707031 C 393.089844 407.015625 392.398438 407.363281 391.722656 407.742188 C 391.046875 408.121094 390.394531 408.535156 389.761719 408.980469 C 389.128906 409.429688 388.519531 409.90625 387.933594 410.410156 C 387.347656 410.917969 386.789062 411.453125 386.257812 412.019531 C 385.726562 412.582031 385.226562 413.167969 384.753906 413.78125 C 384.28125 414.398438 383.839844 415.03125 383.429688 415.691406 C 383.023438 416.347656 382.648438 417.023438 382.304688 417.71875 C 381.964844 418.414062 381.660156 419.125 381.390625 419.851562 C 381.121094 420.578125 380.890625 421.316406 380.695312 422.066406 C 380.5 422.816406 380.339844 423.570312 380.222656 424.335938 C 380.101562 425.101562 380.023438 425.871094 379.980469 426.644531 C 379.9375 427.417969 379.933594 428.191406 379.96875 428.964844 C 380 429.53125 379.972656 430.089844 379.890625 430.648438 C 379.808594 431.210938 379.671875 431.753906 379.484375 432.289062 C 379.296875 432.820312 379.054688 433.328125 378.765625 433.8125 C 378.476562 434.300781 378.144531 434.75 377.765625 435.171875 C 377.386719 435.589844 376.972656 435.96875 376.519531 436.308594 C 376.066406 436.644531 375.585938 436.933594 375.074219 437.175781 C 374.5625 437.421875 374.035156 437.609375 373.488281 437.75 C 372.941406 437.886719 372.382812 437.972656 371.820312 438 C 371.253906 438.03125 370.695312 438.003906 370.136719 437.921875 C 369.574219 437.839844 369.03125 437.707031 368.496094 437.515625 C 367.964844 437.328125 367.457031 437.089844 366.972656 436.800781 C 366.484375 436.507812 366.035156 436.175781 365.613281 435.796875 C 365.195312 435.417969 364.816406 435.003906 364.480469 434.550781 C 364.140625 434.097656 363.851562 433.617188 363.609375 433.105469 C 363.367188 432.59375 363.175781 432.066406 363.035156 431.519531 C 362.898438 430.972656 362.8125 430.414062 362.785156 429.851562 Z M 362.785156 429.851562 " fill-opacity="1" fill-rule="evenodd"/><path fill="#ffb9b1" d="M 152.878906 296.117188 C 156.539062 296.117188 158.105469 300.574219 156.304688 306.097656 C 154.503906 311.621094 150.105469 316.109375 146.441406 316.109375 C 142.78125 316.109375 141.214844 311.621094 142.988281 306.097656 C 144.761719 300.574219 149.246094 296.117188 152.878906 296.117188 Z M 152.878906 296.117188 " fill-opacity="1" fill-rule="evenodd"/><path fill="#ffb9b1" d="M 179.691406 296.117188 C 183.351562 296.117188 184.886719 300.574219 183.113281 306.097656 C 181.34375 311.621094 176.914062 316.109375 173.253906 316.109375 C 169.589844 316.109375 168.027344 311.621094 169.796875 306.097656 C 171.570312 300.574219 176 296.117188 179.691406 296.117188 Z M 179.691406 296.117188 " fill-opacity="1" fill-rule="evenodd"/><path fill="#ffb9b1" d="M 206.410156 296.117188 C 210.101562 296.117188 211.636719 300.574219 209.867188 306.097656 C 208.09375 311.621094 203.664062 315.960938 200.121094 315.960938 C 196.578125 315.960938 194.894531 311.472656 196.667969 305.949219 C 198.4375 300.429688 202.75 296.117188 206.410156 296.117188 Z M 206.410156 296.117188 " fill-opacity="1" fill-rule="evenodd"/><path fill="#ffb9b1" d="M 498.046875 322.691406 C 494.355469 322.691406 492.820312 327.152344 494.589844 332.671875 C 496.363281 338.195312 500.792969 342.683594 504.484375 342.683594 C 508.171875 342.683594 509.710938 338.195312 507.9375 332.671875 C 506.164062 327.152344 501.738281 322.691406 498.046875 322.691406 Z M 498.046875 322.691406 " fill-opacity="1" fill-rule="evenodd"/><path fill="#ffb9b1" d="M 471.296875 322.691406 C 467.605469 322.691406 466.070312 327.152344 467.839844 332.671875 C 469.613281 338.195312 474.039062 342.683594 477.730469 342.683594 C 481.421875 342.683594 482.957031 338.195312 481.1875 332.671875 C 479.414062 327.152344 474.984375 322.691406 471.296875 322.691406 Z M 471.296875 322.691406 " fill-opacity="1" fill-rule="evenodd"/><path fill="#ffb9b1" d="M 444.542969 322.691406 C 440.882812 322.691406 439.316406 327.152344 441.117188 332.671875 C 442.917969 338.195312 447.289062 342.683594 450.980469 342.683594 C 454.671875 342.683594 456.207031 338.195312 454.433594 332.671875 C 452.664062 327.152344 448.144531 322.691406 444.542969 322.691406 Z M 444.542969 322.691406 " fill-opacity="1" fill-rule="evenodd"/></svg>