<svg xmlns="http://www.w3.org/2000/svg" xmlns:xlink="http://www.w3.org/1999/xlink" width="1000" zoomAndPan="magnify" viewBox="0 0 750 749.999995" height="1000" preserveAspectRatio="xMidYMid meet" version="1.0"><path fill="#000000" d="M 463.53125 645.578125 C 463.59375 646.488281 463.585938 647.402344 463.515625 648.3125 C 463.449219 649.222656 463.3125 650.125 463.117188 651.015625 C 462.917969 651.90625 462.660156 652.78125 462.339844 653.636719 C 462.015625 654.492188 461.636719 655.320312 461.199219 656.121094 C 460.757812 656.921875 460.265625 657.6875 459.71875 658.417969 C 459.171875 659.152344 458.574219 659.839844 457.929688 660.488281 C 457.285156 661.132812 456.597656 661.730469 455.867188 662.28125 C 455.136719 662.828125 454.371094 663.324219 453.574219 663.765625 C 451.253906 665.058594 448.859375 666.1875 446.390625 667.160156 C 443.921875 668.128906 441.398438 668.933594 438.820312 669.566406 C 436.242188 670.199219 433.636719 670.65625 430.996094 670.941406 C 428.359375 671.226562 425.714844 671.332031 423.0625 671.261719 C 420.410156 671.191406 417.773438 670.941406 415.152344 670.519531 C 412.53125 670.09375 409.953125 669.5 407.414062 668.730469 C 404.875 667.960938 402.398438 667.023438 399.980469 665.921875 C 397.566406 664.824219 395.238281 663.566406 392.992188 662.152344 C 391.335938 661.121094 389.863281 659.871094 388.582031 658.398438 C 387.300781 656.925781 386.261719 655.300781 385.464844 653.515625 C 377.933594 656.792969 370.132812 659.21875 362.070312 660.792969 C 354.007812 662.367188 345.871094 663.050781 337.65625 662.847656 C 337.511719 665.253906 336.929688 667.550781 335.90625 669.738281 C 334.886719 671.921875 333.5 673.84375 331.746094 675.5 C 330.441406 676.753906 329.078125 677.945312 327.65625 679.0625 C 326.230469 680.179688 324.753906 681.226562 323.226562 682.195312 C 321.695312 683.164062 320.121094 684.054688 318.503906 684.863281 C 316.886719 685.675781 315.230469 686.402344 313.535156 687.046875 C 311.84375 687.6875 310.125 688.246094 308.375 688.714844 C 306.628906 689.183594 304.859375 689.5625 303.074219 689.855469 C 301.285156 690.144531 299.488281 690.34375 297.679688 690.453125 C 295.875 690.5625 294.066406 690.582031 292.257812 690.507812 C 290.449219 690.433594 288.648438 690.269531 286.855469 690.011719 C 285.0625 689.757812 283.289062 689.410156 281.53125 688.976562 C 279.773438 688.542969 278.042969 688.019531 276.339844 687.410156 C 274.632812 686.800781 272.964844 686.105469 271.328125 685.324219 C 269.695312 684.546875 268.105469 683.6875 266.558594 682.75 C 265.007812 681.808594 263.511719 680.792969 262.066406 679.703125 C 260.621094 678.613281 259.234375 677.453125 257.910156 676.21875 C 256.582031 674.988281 255.316406 673.695312 254.121094 672.335938 C 252.125 670.097656 250.722656 667.539062 249.914062 664.652344 C 227.78125 669.140625 205.648438 667.8125 185.316406 656.808594 C 149.398438 666.296875 117.683594 658.101562 100.199219 624.894531 C 55.933594 615.40625 35.445312 582.226562 34.085938 537.285156 C 0.0625 500.277344 0.125 457.613281 24.597656 415.671875 C 4.109375 377.71875 9.484375 340.683594 39.429688 308.738281 C 39.410156 303.648438 39.691406 298.578125 40.273438 293.523438 C 40.859375 288.46875 41.738281 283.46875 42.914062 278.519531 C 44.089844 273.570312 45.554688 268.707031 47.308594 263.929688 C 49.058594 259.152344 51.089844 254.5 53.394531 249.964844 C 55.699219 245.429688 58.265625 241.046875 61.089844 236.816406 C 63.914062 232.582031 66.980469 228.535156 70.285156 224.667969 C 73.589844 220.800781 77.113281 217.144531 80.851562 213.695312 C 84.59375 210.246094 88.523438 207.03125 92.644531 204.046875 C 93.007812 201.722656 93.472656 199.417969 94.03125 197.132812 C 94.59375 194.847656 95.246094 192.589844 96 190.359375 C 96.75 188.128906 97.59375 185.933594 98.53125 183.773438 C 99.46875 181.617188 100.496094 179.5 101.613281 177.429688 C 102.730469 175.355469 103.933594 173.335938 105.21875 171.367188 C 106.507812 169.394531 107.875 167.484375 109.324219 165.628906 C 110.773438 163.777344 112.300781 161.988281 113.898438 160.261719 C 115.5 158.539062 117.171875 156.882812 118.914062 155.300781 C 120.652344 153.71875 122.457031 152.210938 124.328125 150.78125 C 126.195312 149.351562 128.121094 148 130.101562 146.734375 C 132.085938 145.464844 134.117188 144.285156 136.203125 143.191406 C 138.285156 142.09375 140.410156 141.089844 142.578125 140.175781 C 144.746094 139.261719 146.945312 138.4375 149.183594 137.710938 C 151.421875 136.980469 153.6875 136.347656 155.976562 135.8125 C 158.269531 135.277344 160.578125 134.835938 162.90625 134.496094 C 165.234375 134.15625 167.570312 133.914062 169.917969 133.769531 C 193.824219 93.539062 245.015625 83.449219 289.34375 84.96875 C 294.371094 85.15625 296.457031 85.757812 300.855469 83.132812 C 332.976562 64.15625 369.78125 59.980469 405.828125 68.867188 C 408.707031 69.566406 419.171875 72.917969 421.890625 72.03125 C 467.167969 58.683594 517.125 58.84375 548.683594 98.820312 C 548.808594 98.996094 548.945312 99.167969 549.09375 99.328125 C 605.847656 100.75 634.464844 140.445312 646.480469 191.902344 C 680.535156 221.128906 700.546875 258.859375 701.496094 303.742188 C 732.007812 329.992188 735.519531 368.578125 726.792969 407.039062 C 750.191406 449.074219 740.988281 488.164062 704.660156 519.351562 C 698.839844 550.976562 680.914062 575.902344 649.703125 587.855469 C 637.058594 592.792969 620.582031 597.09375 609.453125 605.15625 C 586.277344 621.984375 560.476562 629.828125 531.925781 626.03125 C 522.4375 624.765625 511.46875 624.988281 503.023438 630.332031 C 497.011719 634.171875 490.675781 637.363281 484.015625 639.914062 C 477.355469 642.46875 470.507812 644.324219 463.46875 645.484375 Z M 463.53125 645.578125 " fill-opacity="1" fill-rule="evenodd"/><path fill="#ffffff" d="M 288.679688 104.449219 C 229.964844 102.425781 194.359375 121.59375 181.933594 153.316406 C 180.84375 153.199219 179.753906 153.105469 178.660156 153.042969 C 177.5625 152.980469 176.46875 152.945312 175.371094 152.941406 C 174.277344 152.933594 173.179688 152.957031 172.085938 153.007812 C 170.992188 153.058594 169.898438 153.136719 168.804688 153.242188 C 167.714844 153.347656 166.628906 153.484375 165.542969 153.644531 C 164.460938 153.808594 163.378906 154 162.304688 154.21875 C 161.230469 154.433594 160.164062 154.679688 159.101562 154.953125 C 158.039062 155.226562 156.984375 155.527344 155.941406 155.855469 C 154.894531 156.183594 153.855469 156.539062 152.828125 156.917969 C 151.800781 157.300781 150.78125 157.707031 149.777344 158.140625 C 148.769531 158.574219 147.773438 159.035156 146.789062 159.519531 C 145.808594 160.003906 144.835938 160.511719 143.878906 161.046875 C 142.921875 161.582031 141.980469 162.140625 141.050781 162.722656 C 140.125 163.308594 139.210938 163.914062 138.3125 164.546875 C 137.417969 165.175781 136.535156 165.828125 135.671875 166.503906 C 134.808594 167.179688 133.964844 167.878906 133.136719 168.597656 C 132.308594 169.316406 131.5 170.054688 130.710938 170.816406 C 129.921875 171.578125 129.152344 172.359375 128.402344 173.160156 C 127.652344 173.960938 126.925781 174.78125 126.21875 175.617188 C 125.511719 176.457031 124.828125 177.3125 124.164062 178.183594 C 123.5 179.058594 122.863281 179.949219 122.246094 180.855469 C 121.628906 181.761719 121.035156 182.683594 120.464844 183.621094 C 119.894531 184.558594 119.351562 185.507812 118.828125 186.472656 C 118.308594 187.4375 117.8125 188.417969 117.34375 189.40625 C 116.871094 190.398438 116.429688 191.398438 116.011719 192.414062 C 115.589844 193.425781 115.199219 194.449219 114.832031 195.484375 C 114.46875 196.515625 114.128906 197.558594 113.816406 198.609375 C 113.503906 199.664062 113.21875 200.722656 112.960938 201.785156 C 112.703125 202.851562 112.472656 203.925781 112.269531 205.003906 C 112.070312 206.078125 111.894531 207.164062 111.746094 208.25 C 111.601562 209.335938 111.480469 210.425781 111.390625 211.519531 C 111.300781 212.609375 111.238281 213.707031 111.203125 214.800781 C 74.777344 239.132812 57.378906 273.101562 59 316.707031 C 27.003906 346.882812 23.207031 379.859375 47.617188 415.640625 C 17.917969 458.910156 19.886719 496.734375 53.53125 529.125 C 52.539062 576.4375 72.566406 602.457031 113.605469 607.183594 C 125.621094 638.808594 150.441406 648.234375 188.070312 635.457031 C 209.757812 650.828125 236.953125 651.273438 270.277344 638.019531 C 273.316406 636.753906 276.449219 635.789062 279.671875 635.117188 C 282.894531 634.449219 286.152344 634.089844 289.445312 634.035156 C 292.738281 633.984375 296.003906 634.242188 299.246094 634.8125 C 302.488281 635.382812 305.648438 636.25 308.726562 637.417969 C 334.023438 646.90625 359.570312 645.167969 385.117188 632.230469 C 388.65625 630.332031 392.335938 628.761719 396.152344 627.523438 C 399.972656 626.285156 403.871094 625.394531 407.847656 624.855469 C 411.828125 624.3125 415.824219 624.132812 419.835938 624.308594 C 423.84375 624.484375 427.808594 625.019531 431.722656 625.90625 C 434.328125 626.421875 436.953125 626.8125 439.59375 627.078125 C 442.234375 627.339844 444.882812 627.476562 447.539062 627.480469 C 450.195312 627.488281 452.84375 627.367188 455.484375 627.117188 C 458.128906 626.867188 460.753906 626.488281 463.359375 625.984375 C 465.96875 625.480469 468.542969 624.851562 471.089844 624.097656 C 473.636719 623.34375 476.140625 622.46875 478.601562 621.472656 C 481.0625 620.476562 483.46875 619.363281 485.820312 618.132812 C 488.175781 616.902344 490.460938 615.558594 492.683594 614.109375 C 503.625 607.214844 517.570312 604.621094 534.515625 606.992188 C 557.851562 610.15625 578.59375 603.828125 598.039062 589.660156 C 611.191406 580.171875 627.097656 575.964844 642.78125 569.957031 C 669.371094 559.738281 683.253906 537.789062 686.574219 509.292969 C 723.480469 480.722656 729.910156 447.765625 705.859375 410.421875 C 718.191406 365.066406 710.203125 332.773438 681.894531 313.546875 C 683.746094 269.519531 666.050781 232.617188 628.804688 202.847656 C 617.707031 146.769531 590.417969 119.472656 546.976562 119.0625 C 545.601562 119.019531 544.257812 118.808594 542.9375 118.429688 C 541.617188 118.050781 540.367188 117.515625 539.179688 116.824219 C 537.992188 116.136719 536.910156 115.3125 535.925781 114.351562 C 534.945312 113.390625 534.097656 112.328125 533.378906 111.15625 C 511.46875 83.164062 475.230469 76.839844 427.425781 90.820312 C 418.664062 93.382812 411.046875 90.21875 401.148438 87.65625 C 366.367188 79.054688 335.253906 85.253906 310.8125 99.769531 C 301.328125 105.367188 295.003906 104.546875 288.679688 104.324219 Z M 323.839844 569.070312 C 320.269531 588.867188 308.570312 609.015625 286.878906 611.988281 C 265.695312 614.898438 249.410156 599.339844 242.136719 580.835938 C 241.882812 580.1875 241.664062 579.527344 241.480469 578.855469 C 241.296875 578.183594 241.148438 577.503906 241.035156 576.8125 C 240.925781 576.125 240.851562 575.433594 240.8125 574.738281 C 240.777344 574.042969 240.777344 573.347656 240.8125 572.652344 C 240.851562 571.953125 240.925781 571.261719 241.039062 570.574219 C 241.148438 569.886719 241.296875 569.207031 241.480469 568.535156 C 241.667969 567.863281 241.886719 567.203125 242.140625 566.554688 C 242.394531 565.90625 242.683594 565.273438 243.007812 564.65625 C 243.332031 564.039062 243.6875 563.4375 244.074219 562.859375 C 244.460938 562.28125 244.875 561.722656 245.324219 561.1875 C 245.769531 560.652344 246.242188 560.144531 246.746094 559.660156 C 247.246094 559.175781 247.773438 558.71875 248.320312 558.292969 C 248.871094 557.863281 249.441406 557.46875 250.035156 557.101562 C 250.628906 556.734375 251.238281 556.402344 251.867188 556.101562 C 252.496094 555.796875 253.136719 555.53125 253.792969 555.300781 C 254.453125 555.066406 255.117188 554.871094 255.796875 554.710938 C 256.597656 554.539062 257.335938 554.222656 258.015625 553.761719 C 258.691406 553.304688 259.261719 552.734375 259.71875 552.054688 C 260.363281 551.089844 261.089844 550.191406 261.894531 549.355469 C 262.703125 548.519531 263.578125 547.765625 264.519531 547.089844 C 265.460938 546.414062 266.457031 545.828125 267.507812 545.328125 C 268.554688 544.832031 269.640625 544.433594 270.761719 544.132812 C 271.878906 543.832031 273.019531 543.632812 274.175781 543.535156 C 275.332031 543.4375 276.488281 543.445312 277.640625 543.558594 C 278.796875 543.671875 279.933594 543.886719 281.046875 544.203125 C 282.164062 544.519531 283.242188 544.933594 284.285156 545.445312 C 286.65625 546.578125 289.148438 547.265625 291.765625 547.496094 C 294.382812 547.730469 296.960938 547.5 299.492188 546.804688 C 299.886719 546.695312 300.285156 546.601562 300.683594 546.515625 C 301.085938 546.433594 301.488281 546.363281 301.890625 546.304688 C 302.296875 546.25 302.699219 546.203125 303.109375 546.171875 C 303.515625 546.140625 303.921875 546.121094 304.332031 546.113281 C 304.738281 546.105469 305.148438 546.113281 305.554688 546.132812 C 305.964844 546.152344 306.371094 546.183594 306.777344 546.226562 C 307.183594 546.269531 307.585938 546.328125 307.988281 546.398438 C 308.390625 546.46875 308.792969 546.550781 309.1875 546.644531 C 309.585938 546.742188 309.980469 546.847656 310.371094 546.96875 C 310.761719 547.089844 311.148438 547.21875 311.527344 547.363281 C 311.910156 547.507812 312.289062 547.664062 312.660156 547.832031 C 313.03125 548 313.398438 548.179688 313.761719 548.371094 C 314.121094 548.5625 314.476562 548.761719 314.824219 548.976562 C 315.171875 549.1875 315.515625 549.414062 315.847656 549.648438 C 316.183594 549.882812 316.511719 550.128906 316.828125 550.382812 C 317.148438 550.636719 317.457031 550.902344 317.761719 551.175781 C 318.0625 551.453125 318.355469 551.734375 318.640625 552.027344 C 318.925781 552.320312 319.203125 552.621094 319.46875 552.933594 C 319.734375 553.242188 319.988281 553.5625 320.234375 553.886719 C 320.480469 554.214844 320.714844 554.546875 320.9375 554.890625 C 321.164062 555.230469 321.378906 555.578125 321.582031 555.933594 C 321.78125 556.289062 321.976562 556.648438 322.15625 557.015625 C 322.335938 557.382812 322.503906 557.753906 322.660156 558.128906 C 322.816406 558.507812 322.960938 558.890625 323.09375 559.277344 C 323.226562 559.664062 323.347656 560.050781 323.457031 560.445312 C 323.566406 560.839844 323.660156 561.238281 323.746094 561.636719 C 323.828125 562.035156 323.898438 562.4375 323.957031 562.84375 C 324.015625 563.246094 324.0625 563.652344 324.09375 564.058594 C 324.125 564.46875 324.144531 564.875 324.152344 565.285156 C 324.160156 565.691406 324.15625 566.101562 324.136719 566.507812 C 324.117188 566.917969 324.085938 567.324219 324.042969 567.730469 C 324 568.136719 323.941406 568.539062 323.871094 568.941406 Z M 427.234375 542.28125 C 428.078125 542.558594 428.941406 542.671875 429.828125 542.628906 C 431.558594 542.328125 433.296875 542.261719 435.046875 542.429688 C 436.796875 542.597656 438.492188 542.996094 440.132812 543.621094 C 441.773438 544.246094 443.304688 545.082031 444.71875 546.121094 C 446.136719 547.160156 447.390625 548.371094 448.480469 549.75 C 449.570312 551.128906 450.457031 552.625 451.140625 554.242188 C 451.828125 555.863281 452.285156 557.542969 452.515625 559.285156 C 452.746094 561.027344 452.742188 562.769531 452.503906 564.507812 C 452.265625 566.25 451.800781 567.929688 451.105469 569.542969 C 432.136719 613.316406 373.480469 609.808594 369.214844 559.867188 C 369.148438 559.09375 369.128906 558.320312 369.152344 557.546875 C 369.179688 556.773438 369.25 556.003906 369.367188 555.238281 C 369.488281 554.472656 369.648438 553.71875 369.855469 552.972656 C 370.0625 552.226562 370.316406 551.496094 370.609375 550.78125 C 370.902344 550.0625 371.238281 549.367188 371.617188 548.691406 C 371.992188 548.015625 372.410156 547.363281 372.863281 546.738281 C 373.320312 546.113281 373.808594 545.515625 374.335938 544.945312 C 374.859375 544.378906 375.417969 543.84375 376.007812 543.339844 C 376.597656 542.839844 377.214844 542.375 377.859375 541.945312 C 378.503906 541.519531 379.171875 541.128906 379.863281 540.78125 C 380.554688 540.433594 381.261719 540.125 381.992188 539.859375 C 382.71875 539.597656 383.460938 539.375 384.210938 539.199219 C 384.964844 539.023438 385.726562 538.894531 386.496094 538.808594 C 387.265625 538.722656 388.039062 538.683594 388.8125 538.6875 C 389.585938 538.695312 390.355469 538.746094 391.125 538.847656 C 391.890625 538.945312 392.652344 539.085938 393.402344 539.277344 C 398.492188 540.574219 400.167969 539.8125 405.039062 537.664062 C 405.957031 537.25 406.90625 536.914062 407.878906 536.648438 C 408.851562 536.386719 409.839844 536.199219 410.84375 536.09375 C 411.847656 535.984375 412.851562 535.953125 413.859375 536.003906 C 414.867188 536.054688 415.863281 536.183594 416.851562 536.386719 C 417.839844 536.59375 418.804688 536.875 419.746094 537.234375 C 420.691406 537.589844 421.601562 538.019531 422.476562 538.519531 C 423.351562 539.019531 424.183594 539.585938 424.972656 540.214844 C 425.757812 540.847656 426.492188 541.535156 427.171875 542.28125 Z M 370.351562 260.28125 C 398.808594 271.195312 424.105469 267.8125 447.945312 248.613281 C 464.007812 235.738281 495.152344 276.601562 524.082031 226.472656 C 524.347656 225.929688 524.65625 225.414062 525.015625 224.929688 C 525.375 224.441406 525.773438 223.996094 526.21875 223.582031 C 526.660156 223.171875 527.136719 222.804688 527.644531 222.484375 C 528.15625 222.160156 528.691406 221.890625 529.253906 221.667969 C 529.816406 221.445312 530.394531 221.277344 530.984375 221.164062 C 531.578125 221.046875 532.175781 220.988281 532.78125 220.988281 C 533.382812 220.984375 533.984375 221.039062 534.578125 221.148438 C 535.171875 221.257812 535.75 221.417969 536.3125 221.636719 C 536.875 221.855469 537.414062 222.121094 537.929688 222.4375 C 538.441406 222.757812 538.921875 223.117188 539.367188 223.527344 C 539.8125 223.933594 540.21875 224.378906 540.582031 224.859375 C 540.945312 225.34375 541.257812 225.855469 541.527344 226.398438 C 541.792969 226.9375 542.007812 227.5 542.171875 228.082031 C 542.332031 228.664062 542.441406 229.253906 542.492188 229.855469 C 542.546875 230.457031 542.542969 231.058594 542.480469 231.660156 C 542.421875 232.261719 542.308594 232.851562 542.136719 233.429688 C 541.019531 236.128906 539.851562 238.660156 538.628906 241.023438 C 541.15625 241.023438 543.941406 240.640625 545.648438 240.484375 C 554.410156 239.464844 563.199219 239.097656 572.015625 239.375 C 602.75 240.988281 618.242188 271.003906 608.726562 298.585938 C 595.890625 335.652344 562.59375 342.707031 530.375 324.203125 C 529.171875 323.507812 527.972656 322.8125 526.800781 322.085938 C 534.34375 338.628906 539.613281 355.863281 542.613281 373.796875 C 552.414062 431.140625 520.289062 475.957031 466.726562 495.882812 C 405.070312 518.875 348.535156 520.363281 283.96875 520.363281 C 236.539062 520.363281 186.804688 511.507812 155.976562 472.066406 C 124.355469 431.582031 131.945312 377.78125 147.597656 332.207031 C 141.882812 334.457031 135.980469 335.960938 129.886719 336.714844 C 123.792969 337.46875 117.703125 337.453125 111.613281 336.664062 C 92.390625 334.386719 80.34375 318.511719 79.773438 299.691406 C 78.699219 263.636719 104.722656 246.871094 138.394531 248.707031 C 140.804688 248.835938 143.113281 249.382812 145.320312 250.351562 C 146.027344 249.40625 146.789062 248.511719 147.609375 247.664062 C 148.429688 246.816406 149.300781 246.023438 150.222656 245.289062 C 151.144531 244.554688 152.113281 243.878906 153.121094 243.265625 C 154.128906 242.65625 155.171875 242.109375 156.25 241.632812 C 157.328125 241.152344 158.429688 240.746094 159.5625 240.40625 C 160.691406 240.070312 161.839844 239.808594 163.003906 239.617188 C 164.167969 239.425781 165.339844 239.3125 166.515625 239.269531 C 167.695312 239.230469 168.871094 239.265625 170.046875 239.375 C 171.113281 237.847656 172.09375 236.269531 172.988281 234.632812 C 180.449219 221.445312 191.515625 207.054688 207.453125 204.394531 C 223.925781 201.644531 235.910156 211.988281 242.929688 225.617188 C 244.097656 225.300781 245.203125 224.921875 245.898438 224.667969 C 247.554688 224.117188 249.246094 223.695312 250.96875 223.402344 C 252.691406 223.109375 254.421875 222.953125 256.167969 222.925781 C 257.917969 222.902344 259.652344 223.015625 261.382812 223.257812 C 263.113281 223.503906 264.8125 223.878906 266.484375 224.386719 C 268.15625 224.894531 269.777344 225.527344 271.351562 226.285156 C 272.921875 227.042969 274.429688 227.917969 275.867188 228.910156 C 277.304688 229.902344 278.660156 230.996094 279.925781 232.199219 C 281.195312 233.398438 282.367188 234.691406 283.433594 236.070312 C 284.503906 237.453125 285.460938 238.90625 286.304688 240.4375 C 287.148438 241.964844 287.871094 243.550781 288.472656 245.191406 C 289.070312 246.832031 289.539062 248.507812 289.878906 250.222656 C 290.222656 251.9375 290.425781 253.664062 290.5 255.410156 C 290.574219 257.15625 290.511719 258.898438 290.316406 260.632812 C 290.121094 262.371094 289.792969 264.078125 289.332031 265.765625 C 288.871094 267.449219 288.285156 269.089844 287.570312 270.683594 C 286.859375 272.277344 286.027344 273.808594 285.074219 275.273438 C 308.570312 281.601562 331.523438 280.839844 350.589844 263.890625 C 351.242188 263.292969 351.933594 262.746094 352.664062 262.25 C 353.394531 261.75 354.15625 261.304688 354.949219 260.914062 C 355.738281 260.523438 356.554688 260.1875 357.394531 259.910156 C 358.230469 259.632812 359.085938 259.414062 359.953125 259.253906 C 360.824219 259.097656 361.699219 259 362.582031 258.960938 C 363.464844 258.925781 364.347656 258.953125 365.226562 259.039062 C 366.105469 259.125 366.972656 259.273438 367.832031 259.480469 C 368.691406 259.691406 369.53125 259.957031 370.351562 260.28125 Z M 370.351562 260.28125 " fill-opacity="1" fill-rule="evenodd"/><path fill="#f7e674" d="M 252.222656 243.078125 C 238.722656 247.789062 230.40625 245.957031 226.707031 237.164062 C 218.328125 217.207031 204.289062 218.628906 189.839844 244.214844 C 182.695312 256.867188 177.792969 260.03125 167.960938 258.765625 C 161.160156 257.972656 156.703125 266.480469 156.164062 273.3125 C 155.628906 280.144531 158.851562 288.148438 165.652344 289.476562 C 179.277344 292.195312 183.421875 296.878906 183.707031 308.925781 C 184.085938 322.96875 195.972656 326.574219 209 315.0625 C 222.027344 303.550781 229.585938 299.25 237.648438 305.859375 C 249.285156 315.347656 257.851562 312.183594 256.617188 298.363281 C 255.417969 283.246094 256.460938 273.757812 264.808594 268.316406 C 265.519531 267.835938 266.183594 267.296875 266.796875 266.695312 C 267.410156 266.097656 267.96875 265.445312 268.464844 264.746094 C 268.960938 264.046875 269.390625 263.304688 269.753906 262.527344 C 270.117188 261.75 270.410156 260.945312 270.628906 260.113281 C 270.84375 259.285156 270.988281 258.441406 271.054688 257.585938 C 271.117188 256.726562 271.109375 255.871094 271.019531 255.019531 C 270.929688 254.164062 270.765625 253.324219 270.527344 252.5 C 270.285156 251.675781 269.972656 250.878906 269.589844 250.109375 C 269.207031 249.34375 268.757812 248.617188 268.242188 247.929688 C 267.726562 247.242188 267.152344 246.605469 266.523438 246.023438 C 265.890625 245.441406 265.214844 244.917969 264.492188 244.457031 C 263.765625 243.996094 263.007812 243.601562 262.210938 243.277344 C 261.417969 242.953125 260.597656 242.703125 259.757812 242.527344 C 258.917969 242.351562 258.070312 242.253906 257.210938 242.230469 C 256.351562 242.207031 255.5 242.261719 254.648438 242.394531 C 253.800781 242.527344 252.972656 242.734375 252.160156 243.015625 Z M 252.222656 243.078125 " fill-opacity="1" fill-rule="evenodd"/><path fill="#fee4d7" d="M 523.480469 376.863281 C 530.5 417.980469 512.132812 457.992188 460.246094 477.378906 C 395.582031 501.480469 334.84375 500.65625 284.191406 500.65625 C 229.996094 500.65625 193.601562 488.007812 171.53125 459.824219 C 149.460938 431.644531 147.28125 388.882812 169.191406 330.148438 L 170.234375 329.105469 C 171.203125 330.503906 172.285156 331.808594 173.488281 333.011719 C 174.6875 334.214844 175.984375 335.304688 177.382812 336.277344 C 178.777344 337.25 180.246094 338.089844 181.792969 338.796875 C 183.339844 339.503906 184.9375 340.070312 186.582031 340.492188 C 199.515625 343.875 212.226562 338.214844 221.804688 329.738281 C 223.261719 328.472656 226.359375 325.691406 228.953125 323.824219 C 237.710938 329.769531 248.304688 333.121094 258.738281 329.199219 C 272.332031 324.078125 277.140625 310.222656 276.066406 296.910156 C 276.066406 296.117188 275.90625 294.789062 275.84375 293.269531 L 277.992188 293.554688 C 312.667969 303.296875 341.125 298.269531 363.363281 278.46875 C 398.796875 292.007812 431.050781 287.113281 460.117188 263.792969 C 494.898438 295.929688 516.050781 333.597656 523.355469 376.929688 Z M 523.480469 376.863281 " fill-opacity="1" fill-rule="evenodd"/><path fill="#fee4d7" d="M 113.765625 317.214844 C 117.308594 317.75 120.867188 317.898438 124.445312 317.664062 C 128.019531 317.429688 131.53125 316.816406 134.976562 315.824219 C 138.417969 314.828125 141.714844 313.480469 144.867188 311.773438 C 148.019531 310.066406 150.953125 308.042969 153.667969 305.703125 C 141.84375 299.375 135.675781 285.332031 136.75 271.796875 C 136.75 270.59375 137.003906 269.390625 137.195312 268.191406 C 112.089844 266.796875 98.460938 277.109375 99.25 299.121094 C 99.566406 309.179688 105.164062 316.265625 113.890625 317.308594 Z M 113.765625 317.214844 " fill-opacity="1" fill-rule="evenodd"/><path fill="#fee4d7" d="M 510.960938 278.753906 C 514.371094 284.78125 518.550781 290.214844 523.5 295.054688 C 528.453125 299.894531 533.980469 303.949219 540.082031 307.21875 C 563.257812 320.375 582.039062 315.855469 590.324219 291.910156 C 595.699219 276.382812 588.394531 259.429688 571.003906 258.511719 C 553.078125 257.59375 540.082031 262.054688 529.363281 259.207031 C 509.347656 253.894531 502.042969 261.960938 510.960938 278.660156 Z M 510.960938 278.753906 " fill-opacity="1" fill-rule="evenodd"/><path fill="#ffb9a8" d="M 211.46875 489.175781 C 207.574219 487.671875 203.796875 485.917969 200.136719 483.90625 C 196.476562 481.898438 192.96875 479.652344 189.609375 477.175781 C 186.246094 474.695312 183.070312 472.003906 180.070312 469.097656 C 177.070312 466.195312 174.277344 463.105469 171.691406 459.824219 C 166.851562 453.636719 163.015625 446.878906 160.179688 439.550781 C 162.152344 435.546875 164.585938 431.847656 167.484375 428.449219 C 183.292969 409.886719 207.609375 406.816406 221.839844 421.652344 C 236.066406 436.484375 234.738281 463.527344 218.929688 482.09375 C 216.730469 484.695312 214.296875 487.058594 211.625 489.175781 Z M 211.46875 489.175781 " fill-opacity="1" fill-rule="evenodd"/><path fill="#ffb9a8" d="M 524.875 391.507812 C 524.988281 394.691406 524.917969 397.867188 524.660156 401.042969 C 524.402344 404.214844 523.964844 407.363281 523.339844 410.484375 C 522.71875 413.605469 521.914062 416.683594 520.933594 419.710938 C 519.953125 422.738281 518.796875 425.699219 517.472656 428.59375 C 516.144531 431.488281 514.652344 434.296875 513 437.015625 C 511.34375 439.734375 509.539062 442.351562 507.582031 444.859375 C 505.621094 447.371094 503.523438 449.757812 501.285156 452.019531 C 499.050781 454.285156 496.6875 456.414062 494.203125 458.402344 C 476.308594 454.890625 461.097656 436.832031 458.917969 415.070312 C 456.449219 390.8125 471.089844 371.140625 491.609375 371.140625 C 504.796875 371.140625 517.222656 379.269531 525.03125 391.507812 Z M 524.875 391.507812 " fill-opacity="1" fill-rule="evenodd"/><path fill="#000000" d="M 257.34375 379.628906 C 258.082031 379.75 258.8125 379.914062 259.53125 380.125 C 260.25 380.335938 260.957031 380.589844 261.652344 380.886719 C 262.347656 381.183594 263.023438 381.523438 263.6875 381.90625 C 264.347656 382.289062 264.992188 382.710938 265.617188 383.171875 C 266.242188 383.632812 266.84375 384.136719 267.421875 384.675781 C 268.003906 385.210938 268.558594 385.789062 269.089844 386.398438 C 269.617188 387.007812 270.121094 387.648438 270.597656 388.324219 C 271.070312 389 271.515625 389.703125 271.933594 390.4375 C 272.347656 391.171875 272.730469 391.933594 273.082031 392.71875 C 273.4375 393.503906 273.753906 394.308594 274.039062 395.140625 C 274.324219 395.96875 274.574219 396.816406 274.789062 397.683594 C 275.003906 398.546875 275.183594 399.429688 275.328125 400.320312 C 275.472656 401.214844 275.578125 402.117188 275.648438 403.03125 C 275.71875 403.941406 275.753906 404.859375 275.75 405.785156 C 275.746094 406.707031 275.707031 407.628906 275.628906 408.554688 C 275.554688 409.480469 275.441406 410.398438 275.289062 411.316406 C 275.140625 412.234375 274.953125 413.140625 274.730469 414.042969 C 274.511719 414.945312 274.253906 415.832031 273.960938 416.707031 C 273.671875 417.582031 273.347656 418.441406 272.988281 419.285156 C 272.632812 420.128906 272.242188 420.949219 271.820312 421.75 C 271.398438 422.550781 270.949219 423.328125 270.46875 424.078125 C 269.988281 424.832031 269.480469 425.554688 268.945312 426.25 C 268.410156 426.945312 267.851562 427.609375 267.269531 428.242188 C 266.683594 428.871094 266.078125 429.46875 265.449219 430.03125 C 264.820312 430.597656 264.175781 431.121094 263.511719 431.609375 C 262.84375 432.097656 262.164062 432.546875 261.464844 432.957031 C 260.769531 433.363281 260.058594 433.730469 259.339844 434.058594 C 258.617188 434.382812 257.886719 434.664062 257.148438 434.90625 C 256.410156 435.144531 255.664062 435.339844 254.914062 435.488281 C 254.164062 435.640625 253.414062 435.746094 252.660156 435.804688 C 251.90625 435.867188 251.15625 435.882812 250.40625 435.851562 C 249.660156 435.820312 248.914062 435.746094 248.175781 435.625 C 247.441406 435.503906 246.710938 435.335938 245.992188 435.128906 C 245.273438 434.917969 244.566406 434.664062 243.871094 434.367188 C 243.175781 434.070312 242.496094 433.730469 241.835938 433.347656 C 241.171875 432.964844 240.527344 432.542969 239.90625 432.082031 C 239.28125 431.617188 238.679688 431.117188 238.097656 430.578125 C 237.519531 430.039062 236.964844 429.464844 236.433594 428.855469 C 235.902344 428.246094 235.402344 427.601562 234.925781 426.925781 C 234.449219 426.253906 234.003906 425.546875 233.589844 424.8125 C 233.175781 424.082031 232.789062 423.320312 232.4375 422.535156 C 232.085938 421.75 231.765625 420.941406 231.484375 420.113281 C 231.199219 419.28125 230.945312 418.433594 230.730469 417.570312 C 230.515625 416.703125 230.335938 415.824219 230.191406 414.929688 C 230.050781 414.039062 229.941406 413.132812 229.871094 412.222656 C 229.800781 411.308594 229.765625 410.390625 229.769531 409.46875 C 229.773438 408.546875 229.8125 407.621094 229.890625 406.699219 C 229.96875 405.773438 230.082031 404.851562 230.230469 403.9375 C 230.382812 403.019531 230.566406 402.109375 230.789062 401.210938 C 231.011719 400.308594 231.269531 399.421875 231.558594 398.542969 C 231.851562 397.667969 232.175781 396.808594 232.53125 395.96875 C 232.890625 395.125 233.28125 394.304688 233.699219 393.503906 C 234.121094 392.703125 234.574219 391.925781 235.054688 391.171875 C 235.53125 390.421875 236.039062 389.699219 236.574219 389.003906 C 237.109375 388.308594 237.667969 387.644531 238.253906 387.011719 C 238.835938 386.378906 239.445312 385.78125 240.070312 385.21875 C 240.699219 384.65625 241.347656 384.128906 242.011719 383.640625 C 242.675781 383.152344 243.359375 382.707031 244.054688 382.296875 C 244.753906 381.886719 245.460938 381.519531 246.183594 381.195312 C 246.90625 380.871094 247.636719 380.585938 248.375 380.347656 C 249.113281 380.109375 249.859375 379.914062 250.605469 379.761719 C 251.355469 379.613281 252.109375 379.507812 252.859375 379.445312 C 253.613281 379.386719 254.363281 379.371094 255.113281 379.402344 C 255.863281 379.433594 256.605469 379.507812 257.34375 379.628906 Z M 257.34375 379.628906 " fill-opacity="1" fill-rule="nonzero"/><path fill="#000000" d="M 461.351562 380.410156 C 461.632812 381.269531 461.875 382.136719 462.085938 383.011719 C 462.296875 383.890625 462.46875 384.769531 462.605469 385.65625 C 462.746094 386.542969 462.84375 387.429688 462.910156 388.320312 C 462.972656 389.207031 463 390.089844 462.988281 390.972656 C 462.980469 391.851562 462.933594 392.722656 462.847656 393.589844 C 462.765625 394.453125 462.644531 395.308594 462.484375 396.148438 C 462.328125 396.988281 462.132812 397.8125 461.90625 398.621094 C 461.675781 399.429688 461.414062 400.21875 461.113281 400.988281 C 460.816406 401.757812 460.484375 402.503906 460.117188 403.222656 C 459.753906 403.945312 459.355469 404.640625 458.925781 405.308594 C 458.496094 405.976562 458.039062 406.613281 457.550781 407.21875 C 457.066406 407.824219 456.550781 408.398438 456.007812 408.9375 C 455.464844 409.480469 454.898438 409.984375 454.308594 410.453125 C 453.71875 410.921875 453.105469 411.351562 452.472656 411.742188 C 451.835938 412.136719 451.183594 412.488281 450.511719 412.800781 C 449.839844 413.113281 449.152344 413.382812 448.453125 413.613281 C 447.75 413.84375 447.035156 414.027344 446.308594 414.171875 C 445.582031 414.316406 444.847656 414.417969 444.101562 414.476562 C 443.359375 414.53125 442.609375 414.546875 441.859375 414.515625 C 441.105469 414.488281 440.351562 414.414062 439.59375 414.296875 C 438.835938 414.179688 438.082031 414.019531 437.332031 413.820312 C 436.582031 413.617188 435.835938 413.371094 435.097656 413.085938 C 434.355469 412.800781 433.625 412.472656 432.90625 412.105469 C 432.183594 411.738281 431.476562 411.332031 430.78125 410.890625 C 430.089844 410.445312 429.410156 409.964844 428.746094 409.445312 C 428.085938 408.925781 427.441406 408.375 426.820312 407.789062 C 426.195312 407.203125 425.597656 406.585938 425.019531 405.9375 C 424.441406 405.289062 423.886719 404.613281 423.359375 403.90625 C 422.832031 403.203125 422.332031 402.472656 421.863281 401.71875 C 421.390625 400.960938 420.949219 400.1875 420.535156 399.390625 C 420.125 398.59375 419.746094 397.777344 419.398438 396.945312 C 419.050781 396.117188 418.738281 395.269531 418.457031 394.414062 C 418.175781 393.554688 417.933594 392.6875 417.722656 391.8125 C 417.511719 390.933594 417.339844 390.054688 417.203125 389.167969 C 417.0625 388.28125 416.964844 387.394531 416.898438 386.503906 C 416.835938 385.617188 416.808594 384.734375 416.820312 383.851562 C 416.828125 382.972656 416.875 382.101562 416.960938 381.234375 C 417.042969 380.371094 417.164062 379.515625 417.324219 378.675781 C 417.480469 377.835938 417.675781 377.011719 417.902344 376.203125 C 418.132812 375.394531 418.394531 374.605469 418.695312 373.835938 C 418.992188 373.066406 419.324219 372.320312 419.691406 371.597656 C 420.058594 370.878906 420.453125 370.183594 420.882812 369.515625 C 421.3125 368.847656 421.769531 368.210938 422.257812 367.605469 C 422.742188 367 423.257812 366.425781 423.800781 365.882812 C 424.34375 365.34375 424.910156 364.839844 425.5 364.371094 C 426.089844 363.902344 426.703125 363.472656 427.335938 363.082031 C 427.972656 362.6875 428.625 362.335938 429.296875 362.023438 C 429.96875 361.710938 430.65625 361.441406 431.355469 361.210938 C 432.058594 360.980469 432.773438 360.796875 433.5 360.652344 C 434.226562 360.507812 434.960938 360.40625 435.707031 360.347656 C 436.449219 360.292969 437.199219 360.277344 437.949219 360.308594 C 438.703125 360.335938 439.460938 360.410156 440.214844 360.527344 C 440.972656 360.644531 441.726562 360.800781 442.476562 361.003906 C 443.226562 361.207031 443.972656 361.453125 444.714844 361.738281 C 445.453125 362.023438 446.183594 362.351562 446.902344 362.71875 C 447.625 363.085938 448.332031 363.492188 449.027344 363.933594 C 449.71875 364.378906 450.398438 364.859375 451.0625 365.378906 C 451.722656 365.898438 452.367188 366.449219 452.988281 367.035156 C 453.613281 367.621094 454.210938 368.238281 454.789062 368.886719 C 455.367188 369.535156 455.921875 370.210938 456.449219 370.917969 C 456.976562 371.621094 457.476562 372.351562 457.945312 373.105469 C 458.417969 373.863281 458.859375 374.636719 459.273438 375.433594 C 459.683594 376.230469 460.0625 377.046875 460.410156 377.878906 C 460.757812 378.707031 461.070312 379.554688 461.351562 380.410156 Z M 461.351562 380.410156 " fill-opacity="1" fill-rule="nonzero"/><path fill="#000000" d="M 345.59375 419.375 C 344.300781 420.578125 342.894531 421.632812 341.378906 422.542969 C 339.859375 423.453125 338.265625 424.195312 336.59375 424.769531 C 334.921875 425.34375 333.210938 425.738281 331.453125 425.953125 C 329.699219 426.167969 327.941406 426.199219 326.179688 426.046875 C 325.851562 426.042969 325.527344 426.003906 325.207031 425.929688 C 324.890625 425.855469 324.578125 425.753906 324.28125 425.617188 C 323.984375 425.480469 323.703125 425.316406 323.4375 425.121094 C 323.171875 424.925781 322.929688 424.707031 322.710938 424.460938 C 322.492188 424.21875 322.300781 423.953125 322.136719 423.671875 C 321.972656 423.386719 321.835938 423.089844 321.734375 422.777344 C 321.628906 422.46875 321.558594 422.148438 321.523438 421.824219 C 321.484375 421.496094 321.480469 421.171875 321.507812 420.84375 C 321.539062 420.515625 321.601562 420.195312 321.695312 419.882812 C 321.792969 419.570312 321.917969 419.269531 322.074219 418.980469 C 322.234375 418.691406 322.417969 418.421875 322.628906 418.171875 C 322.84375 417.925781 323.078125 417.699219 323.339844 417.496094 C 323.597656 417.296875 323.875 417.125 324.167969 416.980469 C 324.464844 416.835938 324.769531 416.722656 325.089844 416.644531 C 325.40625 416.5625 325.730469 416.515625 326.058594 416.5 C 326.382812 416.484375 326.710938 416.503906 327.035156 416.558594 C 328.488281 416.691406 329.933594 416.621094 331.367188 416.34375 C 332.800781 416.070312 334.171875 415.605469 335.472656 414.945312 C 336.777344 414.285156 337.960938 413.457031 339.03125 412.460938 C 340.101562 411.46875 341.015625 410.34375 341.769531 409.09375 C 341.992188 408.71875 342.261719 408.378906 342.582031 408.078125 C 342.898438 407.777344 343.253906 407.527344 343.640625 407.328125 C 344.027344 407.125 344.4375 406.980469 344.867188 406.894531 C 345.296875 406.808594 345.726562 406.78125 346.164062 406.816406 C 346.601562 406.835938 347.023438 406.914062 347.4375 407.050781 C 347.851562 407.191406 348.238281 407.382812 348.597656 407.632812 C 348.957031 407.882812 349.273438 408.179688 349.546875 408.519531 C 349.820312 408.855469 350.042969 409.230469 350.210938 409.632812 C 350.449219 410.160156 350.734375 410.664062 351.0625 411.140625 C 351.394531 411.621094 351.761719 412.0625 352.171875 412.476562 C 352.582031 412.886719 353.023438 413.257812 353.5 413.589844 C 353.976562 413.921875 354.476562 414.210938 355.003906 414.453125 C 355.53125 414.695312 356.078125 414.886719 356.636719 415.03125 C 357.199219 415.175781 357.769531 415.269531 358.347656 415.3125 C 358.929688 415.355469 359.503906 415.34375 360.082031 415.28125 C 360.660156 415.222656 361.226562 415.109375 361.785156 414.945312 C 362.085938 414.855469 362.390625 414.800781 362.703125 414.769531 C 363.015625 414.742188 363.328125 414.746094 363.640625 414.78125 C 363.953125 414.8125 364.257812 414.878906 364.558594 414.972656 C 364.855469 415.066406 365.144531 415.1875 365.417969 415.339844 C 365.695312 415.488281 365.953125 415.664062 366.191406 415.867188 C 366.433594 416.066406 366.652344 416.289062 366.847656 416.535156 C 367.046875 416.777344 367.214844 417.039062 367.363281 417.320312 C 367.507812 417.597656 367.625 417.886719 367.710938 418.1875 C 367.800781 418.488281 367.859375 418.796875 367.886719 419.109375 C 367.914062 419.421875 367.910156 419.734375 367.878906 420.042969 C 367.84375 420.355469 367.78125 420.664062 367.6875 420.960938 C 367.59375 421.261719 367.46875 421.546875 367.320312 421.824219 C 367.167969 422.097656 366.992188 422.355469 366.792969 422.597656 C 366.589844 422.839844 366.367188 423.058594 366.125 423.253906 C 365.878906 423.449219 365.617188 423.621094 365.339844 423.765625 C 365.0625 423.914062 364.773438 424.027344 364.472656 424.117188 C 362.828125 424.59375 361.152344 424.847656 359.441406 424.875 C 357.734375 424.90625 356.050781 424.714844 354.390625 424.296875 C 352.734375 423.878906 351.160156 423.253906 349.667969 422.417969 C 348.175781 421.585938 346.816406 420.570312 345.59375 419.375 Z M 345.59375 419.375 " fill-opacity="1" fill-rule="evenodd"/><path fill="#ffffff" d="M 304.679688 565.589844 C 298.546875 599.496094 271.101562 601.234375 260.414062 573.6875 C 261.984375 573.320312 263.507812 572.808594 264.984375 572.15625 C 266.460938 571.503906 267.867188 570.722656 269.195312 569.808594 C 270.527344 568.890625 271.761719 567.863281 272.902344 566.71875 C 274.039062 565.574219 275.0625 564.332031 275.96875 562.996094 C 278.195312 564.070312 280.5 564.9375 282.882812 565.597656 C 285.265625 566.257812 287.691406 566.695312 290.152344 566.917969 C 292.613281 567.140625 295.078125 567.136719 297.539062 566.914062 C 300 566.691406 302.421875 566.25 304.804688 565.589844 Z M 304.679688 565.589844 " fill-opacity="1" fill-rule="evenodd"/><path fill="#ffffff" d="M 388.628906 558.191406 C 391.15625 587.886719 422.398438 587.003906 433.210938 561.828125 C 426.03125 563.09375 416.546875 560.433594 412.878906 555.5 C 403.898438 559.453125 398.238281 560.625 388.628906 558.191406 Z M 388.628906 558.191406 " fill-opacity="1" fill-rule="evenodd"/><path fill="#ffffff" d="M 268.792969 659.273438 C 269.550781 660.140625 270.351562 660.972656 271.195312 661.757812 C 272.039062 662.546875 272.921875 663.289062 273.839844 663.988281 C 274.757812 664.683594 275.710938 665.335938 276.695312 665.9375 C 277.679688 666.539062 278.691406 667.089844 279.730469 667.585938 C 280.769531 668.085938 281.835938 668.53125 282.917969 668.921875 C 284.003906 669.3125 285.109375 669.648438 286.226562 669.925781 C 287.347656 670.207031 288.476562 670.429688 289.621094 670.59375 C 290.761719 670.757812 291.910156 670.863281 293.0625 670.910156 C 294.214844 670.960938 295.367188 670.949219 296.519531 670.878906 C 297.667969 670.8125 298.816406 670.683594 299.953125 670.5 C 301.09375 670.3125 302.21875 670.070312 303.332031 669.769531 C 304.445312 669.472656 305.542969 669.117188 306.621094 668.707031 C 307.699219 668.296875 308.753906 667.832031 309.785156 667.3125 C 310.816406 666.796875 311.820312 666.226562 312.792969 665.605469 C 313.765625 664.988281 314.703125 664.320312 315.609375 663.605469 C 316.515625 662.890625 317.382812 662.132812 318.210938 661.328125 C 318.210938 661.042969 318.210938 660.761719 318.210938 660.445312 C 312.65625 659.246094 307.214844 657.644531 301.898438 655.636719 C 299.9375 654.894531 297.929688 654.34375 295.867188 653.988281 C 293.800781 653.628906 291.722656 653.472656 289.628906 653.511719 C 287.539062 653.554688 285.464844 653.792969 283.417969 654.230469 C 281.371094 654.664062 279.382812 655.292969 277.457031 656.109375 C 274.578125 657.25 271.699219 658.324219 268.792969 659.273438 Z M 268.792969 659.273438 " fill-opacity="1" fill-rule="evenodd"/><path fill="#ffffff" d="M 403.394531 645.671875 C 404.902344 646.621094 406.464844 647.464844 408.085938 648.203125 C 409.707031 648.941406 411.371094 649.570312 413.074219 650.085938 C 414.78125 650.601562 416.511719 651.003906 418.269531 651.285156 C 420.027344 651.570312 421.796875 651.734375 423.578125 651.78125 C 425.359375 651.828125 427.132812 651.757812 428.90625 651.566406 C 430.675781 651.375 432.425781 651.070312 434.15625 650.644531 C 435.882812 650.21875 437.578125 649.679688 439.234375 649.027344 C 440.894531 648.375 442.5 647.617188 444.054688 646.75 C 438.628906 646.523438 433.253906 645.878906 427.929688 644.820312 C 423.875 643.882812 419.765625 643.484375 415.605469 643.628906 C 411.445312 643.777344 407.375 644.457031 403.394531 645.671875 Z M 403.394531 645.671875 " fill-opacity="1" fill-rule="evenodd"/><path fill="#ffffff" d="M 228.824219 271.859375 C 228.824219 272.839844 228.730469 273.808594 228.539062 274.773438 C 228.347656 275.734375 228.066406 276.667969 227.691406 277.570312 C 227.316406 278.476562 226.855469 279.339844 226.3125 280.152344 C 225.765625 280.96875 225.148438 281.722656 224.453125 282.414062 C 223.761719 283.109375 223.007812 283.726562 222.191406 284.273438 C 221.378906 284.816406 220.519531 285.277344 219.613281 285.652344 C 218.707031 286.027344 217.773438 286.308594 216.8125 286.5 C 215.851562 286.691406 214.882812 286.789062 213.902344 286.789062 C 212.921875 286.789062 211.953125 286.691406 210.988281 286.5 C 210.027344 286.308594 209.097656 286.027344 208.191406 285.652344 C 207.285156 285.277344 206.425781 284.816406 205.609375 284.273438 C 204.796875 283.726562 204.042969 283.109375 203.347656 282.414062 C 202.65625 281.722656 202.039062 280.96875 201.492188 280.152344 C 200.949219 279.339844 200.488281 278.476562 200.113281 277.570312 C 199.738281 276.667969 199.457031 275.734375 199.265625 274.773438 C 199.074219 273.808594 198.976562 272.839844 198.976562 271.859375 C 198.976562 270.878906 199.074219 269.90625 199.265625 268.945312 C 199.457031 267.984375 199.738281 267.050781 200.113281 266.144531 C 200.488281 265.242188 200.949219 264.378906 201.492188 263.566406 C 202.039062 262.75 202.65625 261.996094 203.347656 261.304688 C 204.042969 260.609375 204.796875 259.992188 205.609375 259.445312 C 206.425781 258.902344 207.285156 258.441406 208.191406 258.066406 C 209.097656 257.691406 210.027344 257.410156 210.988281 257.21875 C 211.953125 257.027344 212.921875 256.929688 213.902344 256.929688 C 214.882812 256.929688 215.851562 257.027344 216.8125 257.21875 C 217.773438 257.410156 218.707031 257.691406 219.613281 258.066406 C 220.519531 258.441406 221.378906 258.902344 222.191406 259.445312 C 223.007812 259.992188 223.761719 260.609375 224.453125 261.304688 C 225.148438 261.996094 225.765625 262.75 226.3125 263.566406 C 226.855469 264.378906 227.316406 265.242188 227.691406 266.144531 C 228.066406 267.050781 228.347656 267.984375 228.539062 268.945312 C 228.730469 269.90625 228.824219 270.878906 228.824219 271.859375 Z M 228.824219 271.859375 " fill-opacity="1" fill-rule="nonzero"/></svg>