<svg xmlns="http://www.w3.org/2000/svg" xmlns:xlink="http://www.w3.org/1999/xlink" width="1000" zoomAndPan="magnify" viewBox="0 0 750 749.999995" height="1000" preserveAspectRatio="xMidYMid meet" version="1.0"><path fill="#000000" d="M 276.664062 527.582031 C 228.910156 522.230469 175.53125 509.964844 140.347656 475.726562 C 104.710938 441.007812 90.214844 400.578125 89.765625 358.703125 C 65.167969 361.105469 42.3125 352.449219 27.214844 332.371094 C 2.164062 298.972656 0 260.164062 28.871094 228.542969 C 58.941406 195.746094 95.871094 196.828125 128.949219 222.980469 C 131.023438 219.191406 133.160156 215.40625 135.324219 211.679688 C 178.027344 138.660156 255.613281 96.277344 337.769531 83.683594 C 447.953125 66.789062 541.75 101.386719 610.585938 190.484375 C 615.351562 196.632812 619.761719 203.023438 623.816406 209.664062 C 649.078125 186.277344 680.953125 185.253906 708.859375 207.347656 C 749.910156 239.933594 747.804688 285.113281 715.929688 323.683594 C 701.433594 341.238281 679.121094 344.964844 657.589844 342.921875 C 660.835938 446.75 596.542969 499.804688 493.242188 520.277344 C 488.761719 521.148438 481.546875 521.898438 477.96875 525.027344 C 473.507812 529.117188 468.679688 532.710938 463.484375 535.816406 C 458.285156 538.917969 452.828125 541.464844 447.113281 543.453125 C 446.171875 543.792969 445.21875 544.09375 444.253906 544.355469 C 443.289062 544.613281 442.316406 544.835938 441.332031 545.011719 C 440.347656 545.191406 439.359375 545.328125 438.363281 545.425781 C 437.367188 545.519531 436.367188 545.574219 435.367188 545.585938 C 434.371094 545.59375 433.371094 545.566406 432.375 545.492188 C 431.375 545.417969 430.382812 545.304688 429.394531 545.148438 C 428.40625 544.992188 427.429688 544.796875 426.457031 544.554688 C 425.488281 544.316406 424.527344 544.039062 423.578125 543.71875 C 422.632812 543.398438 421.699219 543.042969 420.78125 542.644531 C 419.863281 542.246094 418.964844 541.808594 418.085938 541.335938 C 417.203125 540.863281 416.34375 540.355469 415.507812 539.808594 C 414.667969 539.261719 413.855469 538.683594 413.066406 538.066406 C 412.277344 537.453125 411.515625 536.808594 410.78125 536.128906 C 410.046875 535.453125 409.34375 534.742188 408.667969 534.003906 C 407.992188 533.269531 407.351562 532.503906 406.742188 531.710938 C 406.128906 530.921875 405.554688 530.105469 405.011719 529.265625 C 402.777344 530.46875 400.394531 531.070312 397.855469 531.066406 L 393.824219 531.066406 C 393.8125 532.367188 393.652344 533.652344 393.34375 534.914062 C 392.710938 536.597656 392.5 538.332031 392.710938 540.117188 C 395.71875 547.332031 404.953125 557.460938 410.183594 563.230469 C 430.152344 585.265625 432.046875 611.71875 418.242188 637.691406 C 397.585938 676.5 359.152344 682.78125 320.839844 665.375 C 307.15625 659.125 295.730469 648.421875 291.25 633.753906 C 290.738281 631.957031 290.335938 630.136719 290.039062 628.292969 C 289.746094 626.445312 289.558594 624.589844 289.480469 622.726562 C 289.402344 620.859375 289.433594 618.996094 289.574219 617.132812 C 289.714844 615.269531 289.964844 613.421875 290.324219 611.589844 C 290.679688 609.753906 291.144531 607.949219 291.714844 606.171875 C 292.285156 604.390625 292.957031 602.652344 293.730469 600.953125 C 294.503906 599.253906 295.375 597.601562 296.34375 596.003906 C 297.3125 594.40625 298.371094 592.871094 299.519531 591.398438 C 318.074219 565.9375 347.152344 573 352.6875 603.632812 C 352.855469 605.355469 353.28125 607.007812 353.96875 608.59375 C 354.65625 610.179688 355.574219 611.625 356.714844 612.921875 C 359.511719 615.65625 364.535156 619.59375 368.746094 619.925781 C 370.550781 619.925781 371.390625 619.082031 372.382812 617.609375 C 382.066406 602.941406 364.894531 577.8125 356.175781 566.808594 C 347.453125 555.808594 343.273438 543.8125 347.304688 531.039062 L 346.730469 530.855469 C 345.144531 533.390625 343.257812 535.679688 341.070312 537.714844 C 338.886719 539.753906 336.472656 541.476562 333.832031 542.882812 C 331.375 544.140625 328.8125 545.136719 326.15625 545.878906 C 323.496094 546.617188 320.789062 547.085938 318.03125 547.28125 C 315.277344 547.472656 312.53125 547.390625 309.796875 547.027344 C 307.058594 546.667969 304.382812 546.035156 301.773438 545.136719 C 296.863281 543.445312 292.273438 541.121094 288.003906 538.164062 C 283.734375 535.210938 279.945312 531.730469 276.632812 527.730469 Z M 276.664062 527.582031 " fill-opacity="1" fill-rule="evenodd"/><path fill="#caa65c" d="M 640.777344 325.847656 C 636.957031 288.453125 631.757812 243.390625 598.226562 200.015625 L 595.21875 196.40625 C 595.410156 206.34375 594.828125 216.234375 593.472656 226.078125 C 594.765625 227.429688 596.210938 228.78125 597.414062 230.164062 C 629.109375 266.65625 637.441406 309.164062 615.007812 352.359375 C 601.292969 378.78125 569.6875 392.488281 542.5625 400.457031 C 527.21875 404.832031 511.664062 408.21875 495.890625 410.617188 C 500.3125 418.402344 482.207031 436.167969 474.839844 413.621094 C 460.042969 369.164062 403.777344 360.234375 412.679688 418.371094 C 414.753906 431.839844 404.351562 433.402344 398.457031 418.914062 C 382.820312 419.425781 367.210938 419.453125 351.664062 419.09375 C 346.792969 428.773438 334.460938 436.738281 333.859375 418.492188 C 332.296875 370.394531 290.347656 368.773438 274.019531 413.894531 C 269.207031 427.210938 254.921875 429.855469 255.371094 411.636719 C 218.324219 406.078125 185.90625 393 158.179688 366.578125 C 139.355469 348.542969 123.144531 325.394531 121.160156 298.730469 C 119.296875 273.269531 130.996094 251.265625 149.820312 234.613281 C 150.09375 234.378906 150.355469 234.128906 150.601562 233.863281 C 150.867188 231.523438 150.917969 229.175781 150.75 226.828125 C 150.75 223.25 150.75 219.675781 150.933594 216.128906 C 150.210938 217.328125 149.488281 218.5 148.796875 219.703125 C 89.945312 320.316406 90.96875 406.078125 151.234375 464.695312 C 181.09375 493.734375 228.007812 507.167969 284.933594 512.789062 C 311.398438 550.695312 355.183594 524.816406 327.484375 492.652344 C 323.066406 487.539062 315.789062 486.21875 309.082031 486.636719 C 308.371094 486.65625 307.671875 486.574219 306.984375 486.382812 C 306.296875 486.191406 305.65625 485.90625 305.054688 485.523438 C 304.453125 485.140625 303.921875 484.675781 303.460938 484.132812 C 303 483.589844 302.628906 482.992188 302.34375 482.339844 C 302.042969 481.699219 301.839844 481.03125 301.730469 480.335938 C 301.617188 479.636719 301.609375 478.9375 301.699219 478.238281 C 301.789062 477.535156 301.976562 476.863281 302.261719 476.214844 C 302.546875 475.570312 302.914062 474.976562 303.367188 474.433594 C 304.382812 473.476562 305.550781 472.78125 306.878906 472.355469 C 308.207031 471.929688 309.5625 471.808594 310.945312 472 C 332.660156 472 346.222656 485.945312 351.664062 515.886719 L 397.675781 515.375 C 399.988281 490.636719 411.054688 475.726562 430.933594 470.917969 C 431.375 470.8125 431.820312 470.746094 432.273438 470.71875 C 432.726562 470.691406 433.175781 470.699219 433.625 470.75 C 434.078125 470.800781 434.519531 470.886719 434.957031 471.011719 C 435.390625 471.136719 435.8125 471.296875 436.21875 471.496094 C 436.628906 471.691406 437.015625 471.921875 437.382812 472.183594 C 437.753906 472.449219 438.097656 472.742188 438.414062 473.0625 C 438.730469 473.386719 439.019531 473.730469 439.28125 474.105469 C 439.539062 474.476562 439.765625 474.867188 439.957031 475.277344 C 440.175781 475.671875 440.355469 476.085938 440.503906 476.515625 C 440.648438 476.945312 440.753906 477.386719 440.820312 477.832031 C 440.886719 478.28125 440.910156 478.734375 440.898438 479.1875 C 440.882812 479.640625 440.828125 480.089844 440.734375 480.53125 C 440.640625 480.976562 440.507812 481.40625 440.335938 481.828125 C 440.164062 482.246094 439.957031 482.648438 439.710938 483.03125 C 439.46875 483.414062 439.191406 483.773438 438.886719 484.105469 C 438.578125 484.4375 438.242188 484.742188 437.882812 485.015625 C 435.925781 486.246094 431.867188 485.375 428.109375 487.660156 C 402.394531 503.203125 417.640625 536.71875 442.242188 528.542969 C 446.972656 526.878906 451.488281 524.75 455.78125 522.15625 C 460.078125 519.5625 464.0625 516.5625 467.742188 513.152344 C 474.597656 507.140625 482.777344 506.328125 490.238281 504.886719 C 605.414062 482.007812 650.671875 421.890625 640.839844 325.726562 Z M 435.988281 98.742188 C 421.007812 96.390625 405.9375 95.179688 390.773438 95.109375 C 375.609375 95.039062 360.53125 96.109375 345.527344 98.320312 C 355.144531 102.265625 364.164062 107.273438 372.59375 113.351562 C 374.039062 114.441406 375.613281 115.292969 377.316406 115.90625 C 379.796875 115.113281 382.132812 114.007812 384.324219 112.601562 C 398.457031 104.785156 417.011719 100.574219 435.988281 98.621094 Z M 435.988281 98.742188 " fill-opacity="1" fill-rule="evenodd"/><path fill="#ffe7db" d="M 465.15625 112.898438 C 437.308594 112.898438 410.605469 116.71875 393.523438 125.496094 L 392.742188 125.886719 L 391.960938 126.308594 L 391.570312 126.308594 C 387.503906 128.914062 383.070312 130.519531 378.277344 131.117188 L 376.773438 131.117188 C 375.363281 131.042969 373.976562 130.804688 372.625 130.394531 L 372.203125 130.394531 L 371.691406 130.636719 C 369.125 129.695312 366.730469 128.433594 364.503906 126.847656 L 364.113281 126.578125 L 363.902344 126.425781 L 363.722656 126.425781 L 363 125.917969 L 362.339844 125.464844 L 361.769531 125.074219 L 361.195312 124.714844 L 361.015625 124.5625 L 360.835938 124.5625 L 360.476562 124.324219 L 359.664062 123.421875 L 359.300781 123.179688 L 358.972656 122.941406 L 358.609375 122.730469 L 358.28125 122.519531 L 357.917969 122.277344 L 356.476562 121.378906 L 356.113281 121.167969 L 355.753906 120.925781 L 355.394531 120.714844 C 350.355469 117.710938 345.125 115.09375 339.695312 112.871094 L 339.453125 112.871094 C 330.300781 109.125 320.828125 106.5625 311.035156 105.175781 C 278.46875 113.082031 233.871094 132.859375 203.289062 157.691406 C 180.132812 176.355469 165.488281 196.136719 166.359375 226.226562 L 166.359375 226.828125 C 166.585938 230.285156 166.40625 233.722656 165.816406 237.140625 C 165.765625 237.433594 165.695312 237.722656 165.609375 238.011719 C 165.09375 239.914062 164.222656 241.640625 162.992188 243.179688 C 162.8125 243.453125 162.570312 243.691406 162.359375 243.960938 L 160.824219 245.496094 L 160.644531 245.496094 L 159.171875 246.847656 L 158.480469 247.871094 L 157.367188 248.921875 L 156.796875 249.464844 L 156.132812 250.125 C 153.5 252.605469 151.097656 255.292969 148.929688 258.1875 C 146.757812 261.082031 144.855469 264.144531 143.21875 267.371094 C 141.578125 270.59375 140.230469 273.9375 139.175781 277.398438 C 138.117188 280.855469 137.363281 284.382812 136.917969 287.972656 L 136.917969 290.855469 C 136.917969 291.277344 136.917969 291.699219 136.917969 292.089844 L 136.917969 294.164062 C 136.917969 294.675781 136.917969 295.214844 136.917969 295.757812 C 136.886719 296.308594 136.886719 296.859375 136.917969 297.410156 C 136.917969 297.980469 136.917969 298.523438 137.070312 299.09375 C 137.070312 299.664062 137.070312 300.234375 137.28125 300.804688 C 138.605469 309.71875 141.5 318.085938 145.96875 325.90625 L 146.960938 327.621094 L 147.894531 329.152344 L 148.136719 329.542969 L 149.007812 330.925781 L 149.277344 331.378906 L 150.089844 332.609375 L 150.660156 333.421875 L 151.234375 334.261719 L 152.195312 335.617188 L 152.4375 335.976562 L 153.546875 337.480469 L 153.546875 337.660156 C 153.96875 338.171875 154.359375 338.710938 154.75 339.222656 C 155.59375 340.335938 156.464844 341.417969 157.367188 342.5 L 158.058594 343.3125 L 159.113281 344.542969 L 159.625 345.144531 L 160.523438 346.136719 L 161.425781 347.128906 L 162.027344 347.789062 L 163.171875 348.992188 L 163.621094 349.503906 L 164.976562 350.886719 L 165.367188 351.277344 C 165.878906 351.789062 166.359375 352.300781 166.871094 352.78125 L 167.109375 353.019531 L 168.855469 354.703125 L 170.117188 355.90625 L 170.570312 356.296875 L 171.53125 357.199219 L 171.863281 357.5 L 172.886719 358.402344 L 173.1875 358.671875 L 174.417969 359.753906 C 182.53125 366.742188 191.3125 372.753906 200.761719 377.789062 L 202.054688 378.453125 L 202.566406 378.722656 L 203.316406 379.082031 L 204.191406 379.535156 L 204.492188 379.535156 C 221.320312 387.582031 238.984375 392.84375 257.476562 395.316406 L 257.71875 395.316406 C 259.914062 395.644531 262.109375 395.917969 264.304688 396.1875 C 273.566406 378.722656 289.355469 363.453125 310.285156 364.714844 C 313.125 364.917969 315.90625 365.433594 318.625 366.269531 C 321.347656 367.105469 323.941406 368.234375 326.40625 369.65625 C 328.871094 371.082031 331.140625 372.765625 333.222656 374.707031 C 335.304688 376.648438 337.140625 378.796875 338.734375 381.15625 C 343.226562 387.632812 346.234375 394.738281 347.753906 402.46875 L 351.996094 402.46875 C 364.425781 402.769531 376.855469 402.769531 389.285156 402.46875 L 396.171875 402.46875 C 396.25 398.070312 396.902344 393.757812 398.128906 389.53125 C 399.351562 385.304688 401.105469 381.3125 403.386719 377.550781 C 404.234375 376.222656 405.164062 374.953125 406.175781 373.746094 C 407.191406 372.539062 408.277344 371.40625 409.441406 370.34375 C 410.605469 369.28125 411.832031 368.300781 413.125 367.398438 C 414.421875 366.5 415.765625 365.6875 417.167969 364.96875 C 418.570312 364.246094 420.011719 363.617188 421.496094 363.089844 C 422.976562 362.558594 424.488281 362.125 426.03125 361.792969 C 427.570312 361.464844 429.128906 361.234375 430.699219 361.109375 C 432.269531 360.984375 433.839844 360.964844 435.414062 361.046875 C 456.644531 361.828125 474.507812 377.308594 484.3125 395.644531 C 502.621094 393.300781 520.664062 389.644531 538.441406 384.675781 C 552.8125 381.085938 566.394531 375.566406 579.191406 368.109375 L 580.964844 366.9375 L 581.203125 366.757812 L 582.738281 365.707031 L 583.160156 365.40625 L 584.484375 364.414062 L 585.113281 363.964844 L 586.195312 363.089844 L 586.859375 362.550781 L 587.550781 361.980469 L 588.601562 361.105469 L 589.234375 360.535156 L 589.894531 359.933594 L 590.769531 359.125 L 591.460938 358.460938 L 592.089844 357.832031 L 592.933594 356.960938 L 593.503906 356.359375 L 594.074219 355.695312 C 594.371094 355.398438 594.652344 355.089844 594.917969 354.765625 L 595.429688 354.164062 L 596.0625 353.382812 L 596.660156 352.628906 L 597.261719 351.820312 L 597.625 351.335938 C 597.925781 350.945312 598.195312 350.554688 598.464844 350.136719 L 598.738281 349.746094 L 599.429688 348.691406 L 599.640625 348.363281 L 600.242188 347.070312 L 600.421875 346.707031 L 601.203125 345.296875 L 602.015625 343.703125 L 602.285156 343.160156 L 602.796875 342.050781 L 603.097656 341.417969 L 603.578125 340.394531 L 603.847656 339.792969 L 604.359375 338.683594 L 604.601562 338.140625 L 605.261719 336.578125 L 605.261719 336.246094 C 605.441406 335.828125 605.59375 335.375 605.773438 334.953125 L 605.953125 334.445312 L 606.40625 333.273438 L 606.585938 332.761719 L 607.007812 331.589844 L 607.1875 331.105469 L 607.636719 329.785156 L 607.636719 329.484375 C 617.171875 300.023438 610.074219 272.039062 590.375 246.667969 L 590.226562 246.457031 L 589.324219 245.285156 L 588.875 244.746094 L 588.089844 243.78125 L 587.339844 242.878906 L 586.828125 242.25 L 585.414062 240.597656 C 584.421875 239.453125 583.25 238.371094 582.195312 237.257812 C 581.863281 236.929688 581.550781 236.578125 581.265625 236.207031 C 578.4375 233.203125 577.085938 231.128906 577.957031 224.695312 C 583.039062 187.449219 560.695312 158.5625 533.839844 138.902344 C 513.179688 123.871094 492.011719 113.230469 465.007812 113.320312 Z M 353.648438 221.507812 C 358.15625 222.761719 362.734375 223.703125 367.371094 224.320312 C 372.011719 224.941406 376.671875 225.238281 381.351562 225.210938 C 386.035156 225.179688 390.691406 224.828125 395.324219 224.152344 C 399.953125 223.480469 404.519531 222.488281 409.011719 221.175781 C 409.890625 220.914062 410.789062 220.730469 411.703125 220.628906 C 412.613281 220.527344 413.53125 220.503906 414.445312 220.566406 C 415.363281 220.625 416.269531 220.765625 417.160156 220.984375 C 418.050781 221.207031 418.917969 221.503906 419.757812 221.878906 C 420.59375 222.253906 421.394531 222.699219 422.152344 223.21875 C 422.914062 223.734375 423.621094 224.3125 424.277344 224.957031 C 424.933594 225.601562 425.527344 226.296875 426.058594 227.042969 C 426.59375 227.792969 427.054688 228.582031 427.445312 229.414062 C 441.519531 258.722656 436.078125 286.917969 406.394531 302.789062 C 383.992188 314.816406 359.421875 313.582031 340.054688 296.566406 C 317.773438 276.96875 321.140625 250.425781 336.75 227.699219 C 337.199219 227.035156 337.695312 226.410156 338.242188 225.820312 C 338.789062 225.234375 339.378906 224.695312 340.011719 224.199219 C 340.644531 223.703125 341.3125 223.261719 342.011719 222.871094 C 342.714844 222.480469 343.441406 222.148438 344.195312 221.871094 C 344.949219 221.59375 345.722656 221.378906 346.507812 221.222656 C 347.296875 221.070312 348.089844 220.976562 348.894531 220.945312 C 349.695312 220.914062 350.496094 220.945312 351.292969 221.039062 C 352.089844 221.132812 352.875 221.289062 353.648438 221.507812 Z M 604.722656 338.050781 L 605.382812 336.488281 Z M 604.722656 338.050781 " fill-opacity="1" fill-rule="evenodd"/><path fill="#ffe7db" d="M 39.695312 323.019531 C 51.242188 338.382812 68.984375 345.65625 90.246094 342.980469 C 92.742188 307.417969 104.589844 271.257812 121.550781 237.140625 C 93.195312 213.390625 64.566406 212.550781 40.355469 239.09375 C 17.832031 263.773438 17.953125 294.074219 39.695312 323.019531 Z M 39.695312 323.019531 " fill-opacity="1" fill-rule="evenodd"/><path fill="#ffe7db" d="M 703.871094 313.734375 C 693.675781 326.085938 676.804688 329.515625 656.597656 327.140625 C 656.597656 326.175781 656.597656 325.246094 656.324219 324.3125 C 652.507812 286.949219 646.972656 254.816406 631.574219 223.824219 C 650.671875 204.132812 674.878906 200.316406 699.117188 219.554688 C 731.175781 245.015625 732.195312 279.675781 703.871094 313.703125 Z M 703.871094 313.734375 " fill-opacity="1" fill-rule="evenodd"/><path fill="#ffb9b1" d="M 106.367188 272.070312 C 107.539062 269.0625 108.742188 265.785156 110.003906 262.660156 C 108.617188 262.0625 107.199219 261.550781 105.75 261.128906 C 104.296875 260.710938 102.828125 260.382812 101.335938 260.144531 C 99.84375 259.910156 98.339844 259.765625 96.832031 259.71875 C 95.320312 259.671875 93.816406 259.71875 92.3125 259.859375 C 90.808594 260 89.320312 260.234375 87.84375 260.5625 C 86.371094 260.890625 84.921875 261.308594 83.5 261.820312 C 82.078125 262.332031 80.695312 262.925781 79.347656 263.609375 C 78 264.292969 76.703125 265.058594 75.449219 265.90625 C 75.199219 266.097656 74.972656 266.3125 74.761719 266.550781 C 74.550781 266.785156 74.363281 267.039062 74.203125 267.308594 C 74.039062 267.578125 73.90625 267.863281 73.796875 268.160156 C 73.6875 268.457031 73.605469 268.757812 73.554688 269.070312 C 73.5 269.382812 73.476562 269.695312 73.484375 270.011719 C 73.492188 270.324219 73.527344 270.636719 73.59375 270.945312 C 73.65625 271.253906 73.75 271.554688 73.871094 271.847656 C 73.992188 272.136719 74.140625 272.414062 74.3125 272.679688 C 74.488281 272.945312 74.683594 273.1875 74.902344 273.414062 C 75.121094 273.644531 75.359375 273.847656 75.617188 274.03125 C 75.875 274.210938 76.148438 274.367188 76.4375 274.5 C 76.722656 274.628906 77.019531 274.734375 77.328125 274.808594 C 77.632812 274.886719 77.945312 274.929688 78.257812 274.949219 C 78.574219 274.964844 78.886719 274.953125 79.203125 274.914062 C 79.515625 274.871094 79.820312 274.800781 80.121094 274.703125 C 80.421875 274.601562 80.707031 274.476562 80.984375 274.324219 C 81.902344 273.699219 82.859375 273.140625 83.847656 272.640625 C 84.839844 272.136719 85.859375 271.703125 86.90625 271.332031 C 87.953125 270.960938 89.015625 270.65625 90.101562 270.421875 C 91.1875 270.1875 92.28125 270.019531 93.390625 269.925781 C 94.496094 269.828125 95.601562 269.804688 96.710938 269.851562 C 97.820312 269.894531 98.921875 270.011719 100.019531 270.199219 C 101.113281 270.382812 102.191406 270.636719 103.253906 270.960938 C 104.316406 271.285156 105.351562 271.671875 106.367188 272.128906 Z M 106.367188 272.070312 " fill-opacity="1" fill-rule="evenodd"/><path fill="#ffb9b1" d="M 647.542969 268.550781 C 646.761719 265.277344 645.890625 262 644.988281 258.753906 C 649.011719 257.996094 653.070312 257.679688 657.164062 257.8125 C 661.257812 257.945312 665.289062 258.519531 669.257812 259.535156 C 669.554688 259.640625 669.835938 259.773438 670.109375 259.933594 C 670.382812 260.09375 670.636719 260.277344 670.875 260.484375 C 671.113281 260.691406 671.328125 260.921875 671.523438 261.167969 C 671.71875 261.417969 671.886719 261.679688 672.035156 261.960938 C 672.179688 262.242188 672.296875 262.53125 672.386719 262.835938 C 672.480469 263.136719 672.539062 263.445312 672.574219 263.757812 C 672.605469 264.070312 672.609375 264.386719 672.585938 264.699219 C 672.558594 265.015625 672.503906 265.324219 672.421875 265.628906 C 672.335938 265.933594 672.226562 266.226562 672.085938 266.511719 C 671.945312 266.792969 671.78125 267.0625 671.59375 267.3125 C 671.40625 267.566406 671.195312 267.800781 670.960938 268.011719 C 670.726562 268.226562 670.476562 268.414062 670.210938 268.582031 C 669.941406 268.746094 669.660156 268.886719 669.363281 269 C 669.070312 269.113281 668.765625 269.199219 668.457031 269.253906 C 668.148438 269.3125 667.832031 269.339844 667.519531 269.335938 C 667.203125 269.335938 666.890625 269.304688 666.578125 269.242188 C 660.285156 267.660156 653.9375 267.429688 647.542969 268.550781 Z M 647.542969 268.550781 " fill-opacity="1" fill-rule="evenodd"/><path fill="#caa65c" d="M 378.15625 531.339844 C 377.296875 533.773438 376.882812 536.285156 376.914062 538.871094 C 376.945312 541.453125 377.417969 543.953125 378.339844 546.367188 C 381.34375 553.644531 388.441406 562.691406 398.605469 573.902344 C 413.644531 590.285156 415.6875 609.40625 404.441406 630.535156 C 389.765625 658.160156 362.640625 667.539062 327.367188 651.367188 C 305.050781 641.148438 298.253906 619.867188 312.328125 600.6875 C 323.1875 585.835938 334.554688 590.136719 337.53125 606.519531 C 337.960938 609.84375 338.898438 613.015625 340.347656 616.039062 C 341.796875 619.058594 343.6875 621.777344 346.011719 624.195312 C 360.175781 637.960938 376.414062 640.097656 385.523438 626.296875 C 397.253906 608.5625 389.375 583.492188 368.535156 557.160156 C 360.414062 546.9375 359.8125 539.816406 364.054688 531.546875 L 378.246094 531.546875 Z M 378.15625 531.339844 " fill-opacity="1" fill-rule="evenodd"/><path fill="#a35f60" d="M 398.90625 289.023438 C 419.957031 277.75 424.5 259.324219 413.371094 236.148438 C 408.183594 237.660156 402.917969 238.804688 397.570312 239.585938 C 392.226562 240.367188 386.851562 240.773438 381.449219 240.808594 C 376.042969 240.839844 370.664062 240.5 365.308594 239.785156 C 359.953125 239.070312 354.671875 237.988281 349.46875 236.539062 C 336.449219 255.507812 335.996094 272.339844 350.21875 284.84375 C 364.445312 297.351562 381.316406 298.371094 398.90625 289.023438 Z M 398.90625 289.023438 " fill-opacity="1" fill-rule="evenodd"/><path fill="#ffb9b1" d="M 398.90625 289.023438 C 413.792969 281.085938 420.410156 269.664062 419.144531 255.535156 C 405.59375 251.726562 394.144531 253.082031 384.804688 259.59375 C 372.933594 253.222656 357.898438 254.652344 339.695312 263.894531 C 339.78125 265.921875 340.078125 267.917969 340.589844 269.882812 C 341.101562 271.847656 341.8125 273.738281 342.722656 275.550781 C 343.636719 277.367188 344.730469 279.0625 346.003906 280.644531 C 347.277344 282.226562 348.703125 283.65625 350.28125 284.933594 C 364.082031 296.957031 381.375 298.460938 398.96875 289.113281 Z M 398.90625 289.023438 " fill-opacity="1" fill-rule="evenodd"/><path fill="#000000" d="M 308.683594 204.800781 C 309.125 205.027344 309.550781 205.28125 309.960938 205.5625 C 310.371094 205.84375 310.765625 206.148438 311.144531 206.480469 C 311.519531 206.816406 311.875 207.171875 312.214844 207.554688 C 312.550781 207.9375 312.871094 208.34375 313.164062 208.769531 C 313.460938 209.199219 313.734375 209.644531 313.988281 210.113281 C 314.238281 210.582031 314.46875 211.070312 314.671875 211.574219 C 314.878906 212.082031 315.058594 212.601562 315.214844 213.140625 C 315.371094 213.675781 315.5 214.226562 315.605469 214.792969 C 315.710938 215.355469 315.792969 215.929688 315.847656 216.515625 C 315.902344 217.101562 315.929688 217.691406 315.929688 218.292969 C 315.933594 218.894531 315.910156 219.5 315.859375 220.109375 C 315.808594 220.722656 315.734375 221.332031 315.632812 221.949219 C 315.53125 222.5625 315.40625 223.175781 315.253906 223.789062 C 315.101562 224.398438 314.925781 225.007812 314.726562 225.613281 C 314.527344 226.21875 314.300781 226.816406 314.054688 227.40625 C 313.804688 227.996094 313.535156 228.578125 313.242188 229.148438 C 312.949219 229.722656 312.636719 230.28125 312.300781 230.828125 C 311.96875 231.375 311.613281 231.90625 311.242188 232.421875 C 310.867188 232.9375 310.476562 233.4375 310.070312 233.917969 C 309.660156 234.398438 309.238281 234.859375 308.796875 235.300781 C 308.359375 235.742188 307.90625 236.164062 307.4375 236.558594 C 306.972656 236.957031 306.496094 237.332031 306.007812 237.679688 C 305.519531 238.03125 305.019531 238.355469 304.515625 238.652344 C 304.007812 238.949219 303.496094 239.222656 302.976562 239.464844 C 302.457031 239.710938 301.933594 239.925781 301.40625 240.113281 C 300.878906 240.300781 300.351562 240.460938 299.820312 240.589844 C 299.289062 240.71875 298.761719 240.820312 298.234375 240.890625 C 297.707031 240.960938 297.183594 241 296.660156 241.007812 C 296.140625 241.019531 295.628906 241 295.121094 240.949219 C 294.613281 240.898438 294.113281 240.816406 293.621094 240.707031 C 293.132812 240.597656 292.652344 240.457031 292.183594 240.289062 C 291.714844 240.121094 291.261719 239.921875 290.820312 239.695312 C 290.375 239.46875 289.949219 239.214844 289.539062 238.933594 C 289.128906 238.652344 288.734375 238.347656 288.359375 238.015625 C 287.980469 237.679688 287.625 237.324219 287.285156 236.941406 C 286.949219 236.558594 286.632812 236.152344 286.335938 235.726562 C 286.039062 235.300781 285.765625 234.851562 285.511719 234.382812 C 285.261719 233.914062 285.03125 233.425781 284.828125 232.921875 C 284.621094 232.414062 284.441406 231.894531 284.285156 231.355469 C 284.128906 230.820312 284 230.269531 283.894531 229.707031 C 283.789062 229.140625 283.707031 228.566406 283.65625 227.980469 C 283.601562 227.398438 283.570312 226.804688 283.570312 226.203125 C 283.566406 225.601562 283.589844 224.996094 283.640625 224.386719 C 283.691406 223.777344 283.765625 223.164062 283.867188 222.546875 C 283.96875 221.933594 284.09375 221.320312 284.246094 220.707031 C 284.398438 220.097656 284.574219 219.488281 284.773438 218.882812 C 284.976562 218.277344 285.199219 217.679688 285.449219 217.089844 C 285.695312 216.5 285.964844 215.917969 286.257812 215.347656 C 286.550781 214.773438 286.863281 214.214844 287.199219 213.667969 C 287.53125 213.125 287.886719 212.589844 288.261719 212.074219 C 288.632812 211.558594 289.023438 211.058594 289.433594 210.578125 C 289.839844 210.097656 290.265625 209.636719 290.703125 209.195312 C 291.144531 208.753906 291.59375 208.335938 292.0625 207.9375 C 292.527344 207.539062 293.003906 207.164062 293.496094 206.816406 C 293.984375 206.46875 294.480469 206.144531 294.988281 205.84375 C 295.492188 205.546875 296.007812 205.273438 296.527344 205.03125 C 297.046875 204.785156 297.566406 204.570312 298.09375 204.382812 C 298.621094 204.195312 299.152344 204.035156 299.679688 203.90625 C 300.210938 203.777344 300.738281 203.675781 301.265625 203.609375 C 301.796875 203.539062 302.320312 203.496094 302.839844 203.488281 C 303.359375 203.476562 303.875 203.5 304.382812 203.546875 C 304.890625 203.597656 305.386719 203.679688 305.878906 203.789062 C 306.367188 203.898438 306.847656 204.039062 307.316406 204.207031 C 307.785156 204.378906 308.242188 204.574219 308.683594 204.800781 Z M 308.683594 204.800781 " fill-opacity="1" fill-rule="nonzero"/><path fill="#000000" d="M 478.636719 212.585938 C 479.027344 213.148438 479.394531 213.726562 479.738281 214.320312 C 480.082031 214.914062 480.402344 215.515625 480.695312 216.132812 C 480.988281 216.746094 481.257812 217.371094 481.496094 218.003906 C 481.738281 218.632812 481.953125 219.269531 482.136719 219.914062 C 482.324219 220.554688 482.480469 221.199219 482.609375 221.847656 C 482.738281 222.492188 482.839844 223.140625 482.910156 223.785156 C 482.980469 224.429688 483.023438 225.070312 483.035156 225.707031 C 483.046875 226.34375 483.03125 226.972656 482.984375 227.59375 C 482.9375 228.21875 482.859375 228.828125 482.753906 229.429688 C 482.648438 230.035156 482.515625 230.621094 482.351562 231.199219 C 482.1875 231.773438 481.996094 232.335938 481.777344 232.878906 C 481.558594 233.425781 481.316406 233.949219 481.042969 234.457031 C 480.769531 234.964844 480.472656 235.453125 480.148438 235.917969 C 479.824219 236.386719 479.476562 236.828125 479.105469 237.25 C 478.730469 237.667969 478.335938 238.0625 477.921875 238.433594 C 477.503906 238.800781 477.066406 239.144531 476.613281 239.460938 C 476.15625 239.777344 475.679688 240.0625 475.1875 240.324219 C 474.695312 240.582031 474.183594 240.8125 473.660156 241.011719 C 473.136719 241.210938 472.597656 241.378906 472.046875 241.519531 C 471.5 241.65625 470.9375 241.765625 470.367188 241.839844 C 469.792969 241.914062 469.214844 241.960938 468.628906 241.972656 C 468.039062 241.984375 467.449219 241.964844 466.851562 241.914062 C 466.253906 241.863281 465.65625 241.78125 465.054688 241.667969 C 464.453125 241.554688 463.855469 241.410156 463.253906 241.234375 C 462.65625 241.058594 462.0625 240.851562 461.46875 240.617188 C 460.878906 240.378906 460.292969 240.117188 459.714844 239.820312 C 459.136719 239.527344 458.566406 239.207031 458.007812 238.859375 C 457.445312 238.507812 456.898438 238.132812 456.363281 237.734375 C 455.828125 237.332031 455.308594 236.910156 454.800781 236.460938 C 454.292969 236.011719 453.804688 235.542969 453.332031 235.050781 C 452.859375 234.558594 452.410156 234.046875 451.976562 233.515625 C 451.542969 232.984375 451.128906 232.4375 450.738281 231.875 C 450.347656 231.308594 449.980469 230.730469 449.636719 230.136719 C 449.292969 229.546875 448.976562 228.941406 448.679688 228.328125 C 448.386719 227.710938 448.121094 227.089844 447.878906 226.457031 C 447.636719 225.824219 447.425781 225.1875 447.238281 224.546875 C 447.050781 223.902344 446.894531 223.257812 446.765625 222.613281 C 446.636719 221.964844 446.535156 221.320312 446.464844 220.675781 C 446.394531 220.03125 446.351562 219.390625 446.339844 218.753906 C 446.328125 218.117188 446.347656 217.488281 446.394531 216.863281 C 446.441406 216.242188 446.515625 215.628906 446.621094 215.027344 C 446.726562 214.425781 446.863281 213.835938 447.023438 213.257812 C 447.1875 212.683594 447.378906 212.125 447.597656 211.578125 C 447.816406 211.035156 448.0625 210.507812 448.335938 210 C 448.605469 209.492188 448.90625 209.003906 449.230469 208.539062 C 449.554688 208.074219 449.902344 207.628906 450.273438 207.210938 C 450.644531 206.789062 451.039062 206.394531 451.457031 206.027344 C 451.871094 205.65625 452.308594 205.3125 452.765625 204.996094 C 453.222656 204.683594 453.695312 204.394531 454.191406 204.136719 C 454.683594 203.875 455.191406 203.648438 455.714844 203.445312 C 456.238281 203.246094 456.777344 203.078125 457.328125 202.941406 C 457.878906 202.800781 458.4375 202.695312 459.011719 202.617188 C 459.582031 202.542969 460.160156 202.5 460.75 202.484375 C 461.335938 202.472656 461.925781 202.492188 462.523438 202.542969 C 463.121094 202.59375 463.71875 202.675781 464.320312 202.789062 C 464.921875 202.90625 465.523438 203.050781 466.121094 203.226562 C 466.71875 203.402344 467.316406 203.605469 467.90625 203.84375 C 468.5 204.078125 469.082031 204.34375 469.664062 204.636719 C 470.242188 204.929688 470.808594 205.253906 471.371094 205.601562 C 471.929688 205.949219 472.476562 206.324219 473.011719 206.726562 C 473.546875 207.125 474.070312 207.550781 474.574219 208 C 475.082031 208.445312 475.570312 208.917969 476.042969 209.410156 C 476.515625 209.902344 476.96875 210.410156 477.402344 210.941406 C 477.835938 211.472656 478.246094 212.019531 478.636719 212.585938 Z M 478.636719 212.585938 " fill-opacity="1" fill-rule="nonzero"/><path fill="#ffb9b1" d="M 264.714844 234.21875 C 265.683594 234.359375 266.644531 234.535156 267.601562 234.75 C 268.554688 234.964844 269.496094 235.214844 270.425781 235.503906 C 271.355469 235.789062 272.269531 236.113281 273.164062 236.46875 C 274.058594 236.824219 274.933594 237.214844 275.789062 237.636719 C 276.644531 238.0625 277.472656 238.515625 278.273438 239 C 279.078125 239.484375 279.851562 240 280.597656 240.542969 C 281.339844 241.085938 282.054688 241.65625 282.734375 242.25 C 283.414062 242.84375 284.054688 243.464844 284.664062 244.105469 C 285.269531 244.746094 285.839844 245.410156 286.367188 246.09375 C 286.898438 246.773438 287.386719 247.472656 287.832031 248.191406 C 288.28125 248.90625 288.683594 249.636719 289.042969 250.378906 C 289.402344 251.121094 289.714844 251.875 289.984375 252.636719 C 290.253906 253.402344 290.476562 254.167969 290.652344 254.945312 C 290.828125 255.71875 290.957031 256.5 291.035156 257.277344 C 291.117188 258.058594 291.148438 258.839844 291.132812 259.617188 C 291.117188 260.394531 291.054688 261.167969 290.945312 261.933594 C 290.832031 262.703125 290.675781 263.460938 290.46875 264.210938 C 290.265625 264.960938 290.011719 265.699219 289.714844 266.425781 C 289.417969 267.152344 289.074219 267.863281 288.6875 268.554688 C 288.300781 269.25 287.867188 269.925781 287.394531 270.582031 C 286.921875 271.238281 286.40625 271.871094 285.851562 272.480469 C 285.296875 273.09375 284.703125 273.679688 284.074219 274.238281 C 283.441406 274.800781 282.777344 275.332031 282.074219 275.839844 C 281.375 276.34375 280.640625 276.816406 279.878906 277.261719 C 279.113281 277.707031 278.320312 278.117188 277.5 278.496094 C 276.679688 278.875 275.835938 279.21875 274.96875 279.53125 C 274.101562 279.839844 273.214844 280.113281 272.304688 280.351562 C 271.398438 280.59375 270.476562 280.792969 269.535156 280.957031 C 268.597656 281.121094 267.648438 281.25 266.6875 281.339844 C 265.726562 281.425781 264.761719 281.476562 263.789062 281.492188 C 262.816406 281.503906 261.839844 281.476562 260.863281 281.414062 C 259.886719 281.351562 258.914062 281.25 257.945312 281.109375 C 256.976562 280.96875 256.011719 280.792969 255.058594 280.578125 C 254.105469 280.363281 253.164062 280.113281 252.234375 279.824219 C 251.304688 279.539062 250.390625 279.214844 249.496094 278.859375 C 248.597656 278.503906 247.722656 278.113281 246.871094 277.6875 C 246.015625 277.265625 245.1875 276.8125 244.382812 276.328125 C 243.582031 275.839844 242.808594 275.328125 242.0625 274.785156 C 241.316406 274.242188 240.605469 273.671875 239.925781 273.078125 C 239.246094 272.480469 238.601562 271.863281 237.996094 271.222656 C 237.386719 270.578125 236.820312 269.917969 236.289062 269.234375 C 235.761719 268.554688 235.273438 267.855469 234.824219 267.136719 C 234.378906 266.421875 233.976562 265.691406 233.617188 264.949219 C 233.257812 264.207031 232.941406 263.453125 232.671875 262.691406 C 232.40625 261.925781 232.183594 261.15625 232.007812 260.382812 C 231.832031 259.605469 231.703125 258.828125 231.625 258.046875 C 231.542969 257.269531 231.511719 256.488281 231.523438 255.710938 C 231.539062 254.933594 231.601562 254.160156 231.714844 253.390625 C 231.824219 252.625 231.984375 251.867188 232.1875 251.113281 C 232.394531 250.363281 232.644531 249.625 232.945312 248.902344 C 233.242188 248.175781 233.585938 247.464844 233.972656 246.769531 C 234.359375 246.078125 234.789062 245.402344 235.261719 244.746094 C 235.738281 244.089844 236.25 243.457031 236.804688 242.84375 C 237.359375 242.234375 237.953125 241.648438 238.585938 241.085938 C 239.214844 240.527344 239.882812 239.992188 240.582031 239.488281 C 241.285156 238.984375 242.015625 238.507812 242.78125 238.066406 C 243.546875 237.621094 244.335938 237.210938 245.15625 236.832031 C 245.976562 236.453125 246.820312 236.109375 247.691406 235.796875 C 248.558594 235.488281 249.445312 235.210938 250.351562 234.972656 C 251.261719 234.734375 252.183594 234.535156 253.121094 234.367188 C 254.0625 234.203125 255.011719 234.078125 255.972656 233.988281 C 256.929688 233.898438 257.898438 233.847656 258.871094 233.835938 C 259.84375 233.824219 260.816406 233.847656 261.792969 233.914062 C 262.769531 233.976562 263.742188 234.078125 264.714844 234.21875 Z M 264.714844 234.21875 " fill-opacity="1" fill-rule="nonzero"/><path fill="#ffb9b1" d="M 540.171875 255 C 540.28125 255.769531 540.339844 256.542969 540.355469 257.320312 C 540.367188 258.097656 540.332031 258.878906 540.25 259.65625 C 540.167969 260.4375 540.039062 261.214844 539.859375 261.988281 C 539.683594 262.765625 539.457031 263.53125 539.1875 264.292969 C 538.914062 265.058594 538.601562 265.808594 538.238281 266.550781 C 537.875 267.292969 537.472656 268.019531 537.023438 268.734375 C 536.574219 269.449219 536.085938 270.148438 535.554688 270.828125 C 535.019531 271.511719 534.449219 272.171875 533.84375 272.808594 C 533.234375 273.449219 532.585938 274.066406 531.90625 274.660156 C 531.226562 275.253906 530.511719 275.820312 529.765625 276.359375 C 529.019531 276.902344 528.242188 277.414062 527.441406 277.898438 C 526.636719 278.378906 525.804688 278.832031 524.949219 279.253906 C 524.097656 279.671875 523.21875 280.058594 522.324219 280.414062 C 521.425781 280.769531 520.511719 281.085938 519.582031 281.371094 C 518.652344 281.65625 517.710938 281.90625 516.753906 282.117188 C 515.800781 282.328125 514.835938 282.503906 513.867188 282.640625 C 512.898438 282.777344 511.925781 282.875 510.949219 282.9375 C 509.972656 283 508.996094 283.019531 508.023438 283.007812 C 507.050781 282.992188 506.085938 282.9375 505.125 282.84375 C 504.164062 282.753906 503.214844 282.625 502.277344 282.457031 C 501.339844 282.289062 500.417969 282.085938 499.511719 281.84375 C 498.605469 281.601562 497.71875 281.328125 496.851562 281.015625 C 495.984375 280.703125 495.140625 280.355469 494.320312 279.972656 C 493.503906 279.59375 492.710938 279.179688 491.949219 278.730469 C 491.1875 278.285156 490.457031 277.808594 489.753906 277.304688 C 489.054688 276.796875 488.390625 276.261719 487.761719 275.699219 C 487.132812 275.136719 486.542969 274.550781 485.988281 273.9375 C 485.4375 273.324219 484.921875 272.6875 484.453125 272.03125 C 483.980469 271.375 483.550781 270.699219 483.164062 270.003906 C 482.78125 269.308594 482.4375 268.597656 482.144531 267.871094 C 481.847656 267.144531 481.597656 266.40625 481.394531 265.65625 C 481.191406 264.902344 481.035156 264.144531 480.925781 263.375 C 480.820312 262.609375 480.757812 261.835938 480.746094 261.058594 C 480.730469 260.28125 480.765625 259.5 480.847656 258.722656 C 480.933594 257.941406 481.0625 257.164062 481.238281 256.390625 C 481.417969 255.613281 481.640625 254.84375 481.914062 254.082031 C 482.183594 253.320312 482.5 252.570312 482.859375 251.828125 C 483.222656 251.085938 483.628906 250.355469 484.078125 249.640625 C 484.523438 248.925781 485.015625 248.230469 485.546875 247.550781 C 486.078125 246.867188 486.648438 246.207031 487.257812 245.566406 C 487.867188 244.929688 488.511719 244.3125 489.191406 243.71875 C 489.875 243.125 490.585938 242.558594 491.332031 242.015625 C 492.082031 241.476562 492.855469 240.964844 493.660156 240.480469 C 494.464844 240 495.292969 239.546875 496.148438 239.125 C 497.003906 238.707031 497.878906 238.316406 498.777344 237.964844 C 499.671875 237.609375 500.585938 237.289062 501.515625 237.007812 C 502.445312 236.722656 503.390625 236.472656 504.34375 236.261719 C 505.300781 236.050781 506.261719 235.875 507.230469 235.738281 C 508.203125 235.601562 509.175781 235.503906 510.152344 235.441406 C 511.128906 235.378906 512.101562 235.355469 513.074219 235.371094 C 514.046875 235.386719 515.015625 235.441406 515.972656 235.53125 C 516.933594 235.625 517.882812 235.753906 518.820312 235.921875 C 519.757812 236.089844 520.679688 236.292969 521.585938 236.535156 C 522.496094 236.773438 523.382812 237.050781 524.25 237.363281 C 525.117188 237.675781 525.957031 238.023438 526.777344 238.40625 C 527.597656 238.785156 528.386719 239.199219 529.148438 239.644531 C 529.914062 240.09375 530.644531 240.570312 531.34375 241.074219 C 532.042969 241.582031 532.707031 242.117188 533.335938 242.679688 C 533.964844 243.242188 534.558594 243.828125 535.109375 244.441406 C 535.664062 245.054688 536.175781 245.6875 536.648438 246.347656 C 537.121094 247.003906 537.546875 247.679688 537.933594 248.375 C 538.320312 249.070312 538.660156 249.78125 538.957031 250.507812 C 539.25 251.234375 539.5 251.972656 539.703125 252.722656 C 539.90625 253.472656 540.0625 254.234375 540.171875 255 Z M 540.171875 255 " fill-opacity="1" fill-rule="nonzero"/></svg>