<svg xmlns="http://www.w3.org/2000/svg" xmlns:xlink="http://www.w3.org/1999/xlink" width="1000" zoomAndPan="magnify" viewBox="0 0 750 749.999995" height="1000" preserveAspectRatio="xMidYMid meet" version="1.0"><path fill="#000000" d="M 708.929688 341.066406 C 750.101562 476.625 723.6875 586.535156 581.796875 636.855469 C 567.625 641.882812 553.195312 646.320312 538.570312 650.269531 C 539.742188 653.226562 540.328125 656.292969 540.332031 659.472656 C 540.332031 673.339844 528.675781 686.066406 514.214844 684.207031 C 512.058594 683.914062 509.121094 683.292969 507.683594 685.316406 C 503.308594 691.582031 498.804688 696.414062 490.640625 697.652344 C 488.773438 697.902344 486.902344 697.917969 485.03125 697.695312 C 483.15625 697.476562 481.34375 697.027344 479.582031 696.351562 C 477.824219 695.675781 476.175781 694.792969 474.636719 693.707031 C 473.097656 692.617188 471.71875 691.355469 470.496094 689.917969 C 461.878906 695.726562 451.496094 699.054688 441.636719 693.179688 C 440.6875 692.605469 439.785156 691.960938 438.9375 691.25 C 438.085938 690.535156 437.296875 689.761719 436.566406 688.929688 C 435.835938 688.09375 435.171875 687.207031 434.578125 686.273438 C 433.980469 685.335938 433.460938 684.359375 433.019531 683.34375 C 432.574219 682.328125 432.210938 681.28125 431.925781 680.210938 C 431.640625 679.136719 431.441406 678.050781 431.324219 676.945312 C 431.207031 675.84375 431.175781 674.738281 431.230469 673.628906 C 431.285156 672.523438 431.421875 671.425781 431.644531 670.339844 C 373.796875 676.359375 315.878906 677.144531 257.890625 672.6875 C 207.25 669.03125 155.828125 654.902344 113.417969 626.316406 C 76.035156 600.894531 47.371094 565.355469 35.976562 521.367188 C 0.0625 382.902344 62.652344 258.308594 175.613281 177.671875 C 193.125 164.921875 211.597656 153.753906 231.023438 144.167969 C 250.449219 134.578125 270.546875 126.710938 291.320312 120.566406 C 290.726562 118.386719 290.539062 116.171875 290.75 113.925781 C 290.964844 111.675781 291.566406 109.539062 292.5625 107.511719 C 298.503906 94.71875 304.46875 81.949219 310.453125 69.199219 C 310.746094 68.582031 311.070312 67.980469 311.425781 67.394531 C 311.78125 66.8125 312.167969 66.246094 312.582031 65.703125 C 313 65.160156 313.445312 64.640625 313.914062 64.144531 C 314.386719 63.648438 314.882812 63.179688 315.40625 62.734375 C 315.925781 62.292969 316.46875 61.878906 317.035156 61.492188 C 317.601562 61.109375 318.1875 60.753906 318.789062 60.429688 C 319.394531 60.109375 320.011719 59.820312 320.648438 59.5625 C 321.28125 59.304688 321.929688 59.082031 322.585938 58.894531 C 323.246094 58.707031 323.910156 58.554688 324.585938 58.4375 C 325.261719 58.320312 325.9375 58.238281 326.621094 58.195312 C 327.304688 58.148438 327.988281 58.140625 328.671875 58.171875 C 329.355469 58.199219 330.039062 58.261719 330.714844 58.363281 C 331.390625 58.464844 332.0625 58.601562 332.722656 58.773438 C 333.386719 58.945312 334.039062 59.152344 334.679688 59.394531 C 335.320312 59.636719 335.945312 59.910156 336.554688 60.21875 C 337.167969 60.527344 337.761719 60.867188 338.335938 61.238281 C 345.257812 65.644531 352.308594 70.046875 359.132812 74.617188 C 370.40625 66.101562 382.488281 58.945312 395.371094 53.144531 C 396.179688 52.8125 397.007812 52.539062 397.851562 52.324219 C 398.699219 52.109375 399.554688 51.949219 400.421875 51.855469 C 401.289062 51.757812 402.160156 51.71875 403.03125 51.742188 C 403.902344 51.765625 404.769531 51.847656 405.632812 51.992188 C 406.492188 52.136719 407.339844 52.335938 408.171875 52.597656 C 409.003906 52.859375 409.816406 53.175781 410.605469 53.550781 C 411.394531 53.921875 412.152344 54.347656 412.882812 54.828125 C 413.613281 55.304688 414.304688 55.832031 414.960938 56.40625 C 422.210938 62.542969 429.523438 68.644531 436.738281 74.8125 C 437.292969 75.28125 437.816406 75.78125 438.304688 76.3125 C 439.285156 76.019531 440.296875 75.628906 440.949219 75.402344 C 451.316406 71.40625 462.035156 68.96875 473.109375 68.089844 C 474.097656 68.070312 475.085938 68.125 476.066406 68.257812 C 477.046875 68.390625 478.011719 68.597656 478.960938 68.878906 C 479.910156 69.164062 480.832031 69.519531 481.726562 69.945312 C 482.621094 70.371094 483.472656 70.863281 484.289062 71.425781 C 485.109375 71.984375 485.875 72.605469 486.59375 73.285156 C 487.316406 73.964844 487.976562 74.695312 488.582031 75.480469 C 489.1875 76.261719 489.730469 77.089844 490.207031 77.957031 C 490.683594 78.824219 491.089844 79.722656 491.425781 80.65625 L 506.085938 119.976562 C 506.898438 122.136719 507.308594 124.375 507.308594 126.683594 C 507.308594 128.992188 506.898438 131.230469 506.085938 133.390625 C 537.671875 146.148438 567.457031 162.234375 595.445312 181.65625 C 653.394531 221.46875 688.589844 274.496094 708.929688 341.066406 Z M 708.929688 341.066406 " fill-opacity="1" fill-rule="evenodd"/><path fill="#ffe866" d="M 690.484375 346.679688 C 675.269531 296.523438 647.453125 240.722656 584.507812 197.578125 C 448.328125 104.214844 310.09375 105.390625 186.8125 193.371094 C 79.757812 269.796875 20.894531 386.492188 54.652344 516.441406 C 74.242188 591.496094 152.597656 645.375 259.261719 653.109375 L 265.496094 653.566406 C 261.464844 652.359375 257.546875 650.859375 253.742188 649.0625 C 228.148438 637.050781 223.609375 612.804688 233.695312 588.265625 C 234 587.523438 234.347656 586.800781 234.738281 586.101562 C 235.132812 585.402344 235.566406 584.730469 236.042969 584.085938 C 236.519531 583.441406 237.035156 582.828125 237.589844 582.246094 C 238.144531 581.664062 238.730469 581.121094 239.351562 580.613281 C 239.972656 580.105469 240.625 579.640625 241.304688 579.214844 C 241.984375 578.789062 242.6875 578.40625 243.417969 578.066406 C 244.144531 577.730469 244.890625 577.4375 245.65625 577.191406 C 246.417969 576.949219 247.195312 576.75 247.984375 576.601562 C 248.773438 576.457031 249.566406 576.355469 250.367188 576.308594 C 251.167969 576.257812 251.96875 576.261719 252.769531 576.3125 C 253.570312 576.363281 254.367188 576.464844 255.15625 576.617188 C 255.941406 576.765625 256.71875 576.964844 257.480469 577.210938 C 258.246094 577.460938 258.992188 577.753906 259.71875 578.09375 C 260.445312 578.4375 261.144531 578.820312 261.824219 579.25 C 262.503906 579.675781 263.152344 580.144531 263.773438 580.65625 C 264.390625 581.164062 264.976562 581.710938 265.527344 582.292969 C 266.792969 583.605469 268.128906 584.835938 269.546875 585.980469 C 270.101562 585.199219 270.589844 584.382812 270.882812 583.859375 C 271.089844 583.507812 271.308594 583.160156 271.535156 582.820312 C 271.765625 582.480469 272.003906 582.152344 272.253906 581.828125 C 272.503906 581.503906 272.761719 581.1875 273.03125 580.878906 C 273.300781 580.570312 273.582031 580.273438 273.871094 579.984375 C 274.160156 579.691406 274.457031 579.414062 274.761719 579.140625 C 275.070312 578.871094 275.382812 578.609375 275.707031 578.359375 C 276.03125 578.105469 276.359375 577.867188 276.699219 577.636719 C 277.039062 577.40625 277.382812 577.1875 277.734375 576.980469 C 278.085938 576.769531 278.445312 576.574219 278.8125 576.390625 C 279.175781 576.203125 279.546875 576.03125 279.921875 575.867188 C 280.296875 575.707031 280.679688 575.558594 281.0625 575.417969 C 281.449219 575.28125 281.835938 575.15625 282.230469 575.042969 C 282.625 574.929688 283.019531 574.828125 283.421875 574.742188 C 283.820312 574.65625 284.222656 574.578125 284.625 574.515625 C 285.03125 574.453125 285.4375 574.40625 285.84375 574.367188 C 286.253906 574.332031 286.660156 574.308594 287.070312 574.296875 C 287.480469 574.289062 287.886719 574.289062 288.296875 574.304688 C 288.707031 574.320312 289.113281 574.347656 289.519531 574.390625 C 289.925781 574.433594 290.332031 574.484375 290.738281 574.554688 C 291.140625 574.621094 291.542969 574.699219 291.941406 574.792969 C 292.339844 574.886719 292.734375 574.988281 293.125 575.109375 C 293.519531 575.226562 293.90625 575.355469 294.289062 575.496094 C 294.671875 575.640625 295.050781 575.792969 295.425781 575.960938 C 295.800781 576.125 296.167969 576.304688 296.53125 576.492188 C 296.894531 576.683594 297.25 576.882812 297.597656 577.097656 C 297.949219 577.308594 298.292969 577.53125 298.625 577.765625 C 298.960938 578 299.289062 578.246094 299.609375 578.5 C 299.929688 578.753906 300.242188 579.019531 300.546875 579.292969 C 300.847656 579.566406 301.144531 579.851562 301.429688 580.144531 C 301.714844 580.4375 301.988281 580.742188 302.253906 581.050781 C 302.519531 581.363281 302.777344 581.679688 303.023438 582.007812 C 303.269531 582.335938 303.503906 582.667969 303.726562 583.011719 C 303.945312 583.363281 304.1875 583.699219 304.445312 584.023438 C 305.472656 583.605469 306.460938 583.117188 307.417969 582.554688 C 308.460938 581.9375 309.550781 581.425781 310.691406 581.015625 C 311.832031 580.605469 313 580.308594 314.195312 580.117188 C 315.390625 579.929688 316.59375 579.851562 317.804688 579.890625 C 319.015625 579.925781 320.210938 580.078125 321.394531 580.339844 C 322.574219 580.601562 323.722656 580.972656 324.835938 581.453125 C 325.945312 581.929688 327.003906 582.507812 328.007812 583.1875 C 329.011719 583.867188 329.941406 584.632812 330.800781 585.484375 C 331.65625 586.339844 332.429688 587.265625 333.113281 588.265625 C 349.4375 611.957031 340.554688 635.027344 316.394531 648.148438 C 310.375 651.46875 304 653.816406 297.261719 655.195312 C 408.890625 659.277344 502.167969 644.523438 575.332031 618.582031 C 697.863281 575.179688 732.046875 484.035156 690.484375 346.617188 Z M 344.410156 406.074219 C 346.625 401.628906 349.671875 397.855469 353.550781 394.75 C 366.871094 384.011719 386.394531 384.113281 402.523438 386.691406 C 408.5625 387.667969 414.667969 389.269531 420.675781 390.507812 C 429.074219 392.277344 437.550781 393.472656 446.109375 394.097656 C 446.558594 394.128906 447.003906 394.207031 447.441406 394.324219 C 447.875 394.445312 448.296875 394.605469 448.703125 394.808594 C 449.105469 395.011719 449.488281 395.25 449.84375 395.527344 C 450.203125 395.804688 450.527344 396.113281 450.824219 396.457031 C 451.121094 396.796875 451.382812 397.164062 451.605469 397.558594 C 451.828125 397.949219 452.011719 398.359375 452.15625 398.789062 C 452.296875 399.21875 452.398438 399.65625 452.453125 400.105469 C 452.511719 400.554688 452.523438 401.003906 452.492188 401.457031 C 452.460938 401.90625 452.382812 402.351562 452.265625 402.785156 C 452.144531 403.222656 451.984375 403.644531 451.78125 404.046875 C 451.578125 404.453125 451.339844 404.832031 451.0625 405.191406 C 450.785156 405.546875 450.472656 405.875 450.132812 406.171875 C 449.789062 406.464844 449.421875 406.726562 449.03125 406.949219 C 448.636719 407.175781 448.226562 407.359375 447.796875 407.5 C 447.367188 407.644531 446.929688 407.742188 446.480469 407.800781 C 446.03125 407.855469 445.582031 407.867188 445.128906 407.835938 C 435.964844 407.144531 426.890625 405.851562 417.898438 403.953125 C 412.089844 402.777344 406.179688 401.210938 400.367188 400.265625 C 388.746094 398.40625 372.09375 397.523438 362.300781 405.453125 C 353.582031 412.46875 352.960938 424.578125 354.332031 434.824219 C 356.914062 453.785156 364.976562 469.9375 381.234375 480.511719 C 381.640625 480.742188 382.019531 481.015625 382.371094 481.324219 C 382.722656 481.636719 383.039062 481.980469 383.320312 482.355469 C 383.601562 482.726562 383.84375 483.128906 384.042969 483.550781 C 384.242188 483.976562 384.398438 484.414062 384.507812 484.871094 C 384.617188 485.328125 384.679688 485.789062 384.695312 486.257812 C 384.710938 486.726562 384.675781 487.191406 384.597656 487.652344 C 384.519531 488.113281 384.394531 488.5625 384.222656 489 C 384.050781 489.433594 383.835938 489.851562 383.582031 490.242188 C 383.324219 490.636719 383.03125 490.996094 382.703125 491.332031 C 382.371094 491.664062 382.011719 491.960938 381.621094 492.21875 C 381.230469 492.476562 380.816406 492.695312 380.382812 492.871094 C 379.949219 493.046875 379.5 493.175781 379.039062 493.257812 C 378.578125 493.34375 378.113281 493.378906 377.644531 493.367188 C 377.175781 493.355469 376.710938 493.296875 376.257812 493.191406 C 375.800781 493.085938 375.359375 492.9375 374.933594 492.738281 C 374.507812 492.542969 374.105469 492.308594 373.726562 492.03125 C 354.136719 479.269531 343.820312 459.625 340.71875 436.554688 C 340.355469 433.910156 340.136719 431.257812 340.066406 428.589844 C 338.890625 431.855469 337.585938 435.117188 336.246094 438.378906 C 329.390625 453.945312 316.65625 465.335938 304.445312 476.757812 C 304.117188 477.066406 303.761719 477.339844 303.378906 477.578125 C 302.996094 477.8125 302.59375 478.011719 302.171875 478.171875 C 301.75 478.328125 301.316406 478.445312 300.871094 478.519531 C 300.425781 478.59375 299.976562 478.621094 299.527344 478.609375 C 299.078125 478.59375 298.632812 478.535156 298.191406 478.433594 C 297.753906 478.332031 297.328125 478.1875 296.917969 478 C 296.507812 477.816406 296.117188 477.589844 295.75 477.328125 C 295.386719 477.066406 295.046875 476.769531 294.738281 476.441406 C 294.429688 476.113281 294.15625 475.757812 293.917969 475.375 C 293.679688 474.992188 293.480469 474.589844 293.320312 474.167969 C 293.164062 473.746094 293.046875 473.316406 292.972656 472.871094 C 292.898438 472.425781 292.867188 471.976562 292.882812 471.527344 C 292.894531 471.078125 292.953125 470.632812 293.054688 470.191406 C 293.15625 469.753906 293.300781 469.328125 293.488281 468.917969 C 293.671875 468.507812 293.894531 468.117188 294.15625 467.753906 C 294.417969 467.386719 294.714844 467.046875 295.042969 466.738281 C 305.492188 456.949219 317.898438 446.210938 323.644531 432.832031 C 335.757812 405.386719 335.398438 383.394531 300.59375 382.578125 C 272.351562 381.957031 248.03125 400.003906 229.484375 419.550781 C 229.179688 419.902344 228.84375 420.21875 228.472656 420.503906 C 228.105469 420.785156 227.710938 421.027344 227.292969 421.230469 C 226.875 421.4375 226.441406 421.59375 225.988281 421.710938 C 225.539062 421.824219 225.082031 421.894531 224.617188 421.917969 C 224.152344 421.941406 223.691406 421.917969 223.230469 421.84375 C 222.769531 421.773438 222.324219 421.660156 221.886719 421.496094 C 221.449219 421.335938 221.035156 421.132812 220.640625 420.886719 C 220.246094 420.640625 219.878906 420.359375 219.542969 420.039062 C 219.203125 419.71875 218.902344 419.367188 218.636719 418.988281 C 218.367188 418.605469 218.144531 418.203125 217.957031 417.777344 C 217.773438 417.347656 217.632812 416.90625 217.539062 416.453125 C 217.441406 415.996094 217.394531 415.539062 217.390625 415.074219 C 217.390625 414.609375 217.433594 414.148438 217.523438 413.691406 C 217.617188 413.234375 217.753906 412.792969 217.933594 412.363281 C 218.113281 411.9375 218.335938 411.53125 218.597656 411.148438 C 218.859375 410.765625 219.160156 410.410156 219.496094 410.085938 C 240.910156 387.503906 268.46875 368.089844 300.886719 368.839844 C 316.332031 369.199219 333.078125 373.503906 340.6875 388.417969 C 342.050781 391.171875 343.058594 394.050781 343.703125 397.058594 C 344.351562 400.0625 344.617188 403.101562 344.507812 406.171875 Z M 368.632812 353.4375 C 349.285156 352.1875 329.980469 352.65625 310.714844 354.839844 C 309.792969 354.933594 308.871094 354.964844 307.945312 354.925781 C 307.019531 354.890625 306.101562 354.785156 305.191406 354.617188 C 304.28125 354.445312 303.386719 354.214844 302.511719 353.914062 C 301.632812 353.617188 300.78125 353.257812 299.957031 352.835938 C 299.132812 352.417969 298.34375 351.9375 297.585938 351.40625 C 296.828125 350.871094 296.117188 350.285156 295.445312 349.648438 C 294.773438 349.011719 294.148438 348.328125 293.574219 347.601562 C 293 346.875 292.484375 346.109375 292.019531 345.308594 C 291.554688 344.507812 291.152344 343.675781 290.808594 342.816406 C 290.464844 341.957031 290.183594 341.078125 289.964844 340.179688 C 289.75 339.277344 289.597656 338.367188 289.511719 337.445312 C 289.425781 336.523438 289.40625 335.601562 289.453125 334.675781 C 289.5 333.753906 289.613281 332.835938 289.792969 331.929688 C 289.972656 331.019531 290.214844 330.128906 290.523438 329.257812 C 290.828125 328.382812 291.199219 327.535156 291.625 326.714844 C 292.054688 325.894531 292.542969 325.109375 293.085938 324.359375 C 304.316406 308.859375 319.988281 293.261719 340.425781 292.769531 C 360.863281 292.28125 376.339844 307.519531 386.589844 324.066406 C 387.058594 324.820312 387.46875 325.605469 387.828125 326.414062 C 388.1875 327.226562 388.488281 328.058594 388.734375 328.914062 C 388.976562 329.765625 389.160156 330.632812 389.285156 331.511719 C 389.410156 332.390625 389.472656 333.273438 389.476562 334.160156 C 389.476562 335.046875 389.417969 335.929688 389.300781 336.808594 C 389.179688 337.6875 389 338.554688 388.761719 339.410156 C 388.523438 340.265625 388.226562 341.097656 387.871094 341.914062 C 387.515625 342.726562 387.109375 343.511719 386.644531 344.269531 C 386.183594 345.027344 385.667969 345.746094 385.105469 346.433594 C 384.542969 347.121094 383.9375 347.765625 383.285156 348.367188 C 382.632812 348.96875 381.945312 349.527344 381.214844 350.035156 C 380.488281 350.539062 379.726562 350.996094 378.9375 351.398438 C 378.144531 351.800781 377.332031 352.148438 376.492188 352.4375 C 375.652344 352.726562 374.796875 352.960938 373.925781 353.132812 C 373.054688 353.304688 372.175781 353.414062 371.289062 353.464844 C 370.402344 353.515625 369.519531 353.507812 368.632812 353.4375 Z M 368.632812 353.4375 " fill-opacity="1" fill-rule="evenodd"/><path fill="#ffad3f" d="M 307.1875 631.277344 C 322.730469 622.824219 326.15625 612.347656 317.179688 599.261719 C 304.707031 606.574219 294.835938 604.703125 287.566406 593.648438 C 277.96875 610.117188 265.996094 610.78125 251.652344 595.640625 C 244.503906 613.097656 247.964844 625.011719 262.035156 631.539062 C 278.164062 639.109375 293.117188 638.8125 307.285156 631.144531 Z M 307.1875 631.277344 " fill-opacity="1" fill-rule="evenodd"/><path fill="#ffad3f" d="M 519.144531 655.195312 C 519.75 655.738281 520.222656 656.382812 520.550781 657.128906 C 520.882812 657.875 521.042969 658.65625 521.039062 659.472656 C 521.039062 662.113281 519.273438 665.410156 516.664062 665.050781 C 507.976562 663.941406 498.445312 664.824219 491.847656 674.253906 C 488.128906 679.574219 487.507812 680.195312 483.035156 675.070312 C 475.425781 666.355469 468.636719 667.140625 461.421875 672.65625 C 451.625 680.0625 448.066406 677.386719 452.28125 667.53125 C 474.808594 664.429688 497.171875 660.386719 519.144531 655.195312 Z M 519.144531 655.195312 " fill-opacity="1" fill-rule="evenodd"/><path fill="#ffad3f" d="M 310.0625 115.800781 L 327.921875 77.488281 L 350.773438 92.074219 C 358.644531 97.132812 363.539062 95.078125 369.875 90.574219 C 380.03125 82.839844 390.914062 76.3125 402.523438 70.996094 L 424.136719 89.433594 C 430.207031 97.625 437.195312 97.199219 447.347656 93.578125 C 455.75 90.242188 464.457031 88.207031 473.46875 87.476562 L 488.128906 126.636719 C 429.359375 106.597656 369.351562 102.484375 310.257812 115.671875 Z M 310.0625 115.800781 " fill-opacity="1" fill-rule="evenodd"/><path fill="#ffad3f" d="M 308.820312 335.683594 C 329.25 333.382812 349.71875 332.902344 370.234375 334.246094 C 351.753906 304.203125 331.285156 304.683594 308.820312 335.683594 Z M 308.820312 335.683594 " fill-opacity="1" fill-rule="evenodd"/><path fill="#000000" d="M 234.882812 289.46875 C 235.464844 289.6875 236.027344 289.941406 236.574219 290.234375 C 237.121094 290.527344 237.648438 290.855469 238.160156 291.222656 C 238.671875 291.585938 239.160156 291.988281 239.628906 292.421875 C 240.097656 292.859375 240.542969 293.328125 240.964844 293.828125 C 241.386719 294.332031 241.78125 294.863281 242.15625 295.425781 C 242.527344 295.988281 242.871094 296.578125 243.1875 297.195312 C 243.503906 297.8125 243.792969 298.453125 244.054688 299.121094 C 244.316406 299.789062 244.546875 300.476562 244.746094 301.1875 C 244.949219 301.898438 245.117188 302.625 245.257812 303.371094 C 245.398438 304.117188 245.503906 304.878906 245.582031 305.652344 C 245.660156 306.429688 245.703125 307.214844 245.714844 308.011719 C 245.730469 308.808594 245.710938 309.613281 245.660156 310.421875 C 245.609375 311.234375 245.527344 312.046875 245.414062 312.863281 C 245.300781 313.679688 245.152344 314.496094 244.976562 315.3125 C 244.800781 316.125 244.59375 316.9375 244.359375 317.742188 C 244.121094 318.546875 243.855469 319.34375 243.5625 320.132812 C 243.265625 320.917969 242.945312 321.695312 242.59375 322.457031 C 242.246094 323.222656 241.867188 323.96875 241.46875 324.699219 C 241.066406 325.429688 240.640625 326.140625 240.1875 326.832031 C 239.738281 327.523438 239.265625 328.191406 238.773438 328.835938 C 238.277344 329.480469 237.765625 330.097656 237.234375 330.691406 C 236.699219 331.285156 236.152344 331.847656 235.582031 332.382812 C 235.015625 332.917969 234.4375 333.421875 233.839844 333.894531 C 233.246094 334.367188 232.640625 334.804688 232.023438 335.207031 C 231.402344 335.613281 230.777344 335.980469 230.144531 336.3125 C 229.507812 336.644531 228.871094 336.941406 228.222656 337.199219 C 227.578125 337.457031 226.933594 337.675781 226.28125 337.855469 C 225.632812 338.035156 224.984375 338.175781 224.335938 338.277344 C 223.6875 338.378906 223.046875 338.441406 222.40625 338.464844 C 221.765625 338.484375 221.132812 338.46875 220.507812 338.410156 C 219.882812 338.351562 219.269531 338.253906 218.664062 338.113281 C 218.058594 337.976562 217.464844 337.796875 216.886719 337.582031 C 216.308594 337.367188 215.746094 337.113281 215.199219 336.820312 C 214.652344 336.527344 214.121094 336.199219 213.613281 335.832031 C 213.101562 335.464844 212.613281 335.066406 212.144531 334.628906 C 211.675781 334.191406 211.230469 333.726562 210.808594 333.222656 C 210.386719 332.722656 209.988281 332.191406 209.617188 331.628906 C 209.246094 331.066406 208.902344 330.476562 208.585938 329.859375 C 208.265625 329.242188 207.976562 328.597656 207.71875 327.929688 C 207.457031 327.265625 207.226562 326.574219 207.023438 325.867188 C 206.824219 325.15625 206.652344 324.425781 206.515625 323.679688 C 206.375 322.933594 206.265625 322.175781 206.191406 321.398438 C 206.113281 320.625 206.070312 319.835938 206.054688 319.039062 C 206.042969 318.242188 206.0625 317.441406 206.113281 316.628906 C 206.164062 315.820312 206.246094 315.003906 206.359375 314.1875 C 206.472656 313.371094 206.617188 312.554688 206.792969 311.742188 C 206.96875 310.925781 207.175781 310.117188 207.414062 309.308594 C 207.648438 308.503906 207.914062 307.707031 208.210938 306.921875 C 208.503906 306.132812 208.828125 305.359375 209.175781 304.59375 C 209.527344 303.832031 209.902344 303.085938 210.304688 302.355469 C 210.707031 301.625 211.132812 300.914062 211.582031 300.222656 C 212.035156 299.53125 212.503906 298.863281 213 298.21875 C 213.492188 297.574219 214.007812 296.953125 214.539062 296.359375 C 215.070312 295.769531 215.621094 295.203125 216.1875 294.667969 C 216.753906 294.132812 217.335938 293.632812 217.929688 293.160156 C 218.527344 292.6875 219.132812 292.25 219.75 291.84375 C 220.367188 291.441406 220.992188 291.074219 221.628906 290.742188 C 222.261719 290.40625 222.902344 290.113281 223.546875 289.855469 C 224.191406 289.597656 224.839844 289.378906 225.488281 289.195312 C 226.140625 289.015625 226.789062 288.875 227.433594 288.773438 C 228.082031 288.671875 228.726562 288.609375 229.367188 288.589844 C 230.003906 288.566406 230.636719 288.585938 231.261719 288.644531 C 231.886719 288.703125 232.503906 288.800781 233.109375 288.9375 C 233.714844 289.078125 234.304688 289.253906 234.882812 289.46875 Z M 234.882812 289.46875 " fill-opacity="1" fill-rule="nonzero"/><path fill="#000000" d="M 469.175781 299.785156 C 469.421875 300.492188 469.632812 301.207031 469.820312 301.929688 C 470.003906 302.652344 470.15625 303.378906 470.28125 304.113281 C 470.402344 304.84375 470.496094 305.578125 470.554688 306.3125 C 470.617188 307.050781 470.648438 307.78125 470.644531 308.511719 C 470.644531 309.242188 470.613281 309.96875 470.546875 310.6875 C 470.484375 311.40625 470.386719 312.113281 470.261719 312.816406 C 470.136719 313.515625 469.980469 314.203125 469.792969 314.878906 C 469.605469 315.554688 469.386719 316.214844 469.140625 316.855469 C 468.894531 317.5 468.621094 318.125 468.316406 318.730469 C 468.015625 319.335938 467.6875 319.917969 467.328125 320.480469 C 466.972656 321.042969 466.589844 321.578125 466.183594 322.09375 C 465.777344 322.605469 465.347656 323.089844 464.894531 323.546875 C 464.441406 324.007812 463.964844 324.4375 463.472656 324.835938 C 462.976562 325.234375 462.460938 325.605469 461.929688 325.941406 C 461.394531 326.28125 460.847656 326.582031 460.28125 326.855469 C 459.71875 327.128906 459.140625 327.367188 458.546875 327.570312 C 457.957031 327.773438 457.355469 327.941406 456.742188 328.074219 C 456.128906 328.207031 455.511719 328.304688 454.882812 328.367188 C 454.253906 328.429688 453.621094 328.453125 452.984375 328.445312 C 452.351562 328.433594 451.710938 328.386719 451.070312 328.304688 C 450.433594 328.222656 449.792969 328.105469 449.160156 327.953125 C 448.523438 327.796875 447.890625 327.609375 447.261719 327.386719 C 446.636719 327.164062 446.015625 326.90625 445.40625 326.617188 C 444.792969 326.324219 444.191406 326.003906 443.601562 325.648438 C 443.011719 325.292969 442.4375 324.90625 441.871094 324.488281 C 441.308594 324.070312 440.761719 323.625 440.230469 323.152344 C 439.699219 322.675781 439.1875 322.175781 438.695312 321.648438 C 438.199219 321.121094 437.730469 320.570312 437.277344 319.996094 C 436.828125 319.421875 436.398438 318.828125 435.992188 318.210938 C 435.589844 317.59375 435.210938 316.957031 434.855469 316.304688 C 434.503906 315.652344 434.175781 314.984375 433.875 314.300781 C 433.574219 313.617188 433.304688 312.921875 433.058594 312.214844 C 432.816406 311.507812 432.601562 310.796875 432.417969 310.070312 C 432.234375 309.347656 432.082031 308.621094 431.957031 307.890625 C 431.832031 307.15625 431.742188 306.421875 431.679688 305.6875 C 431.621094 304.953125 431.589844 304.21875 431.589844 303.488281 C 431.59375 302.757812 431.625 302.035156 431.691406 301.316406 C 431.753906 300.597656 431.847656 299.886719 431.976562 299.1875 C 432.101562 298.484375 432.257812 297.796875 432.445312 297.121094 C 432.632812 296.449219 432.847656 295.789062 433.09375 295.144531 C 433.339844 294.5 433.617188 293.878906 433.917969 293.273438 C 434.222656 292.667969 434.550781 292.082031 434.90625 291.519531 C 435.265625 290.960938 435.644531 290.421875 436.054688 289.910156 C 436.460938 289.398438 436.890625 288.910156 437.34375 288.453125 C 437.796875 287.996094 438.269531 287.566406 438.765625 287.164062 C 439.261719 286.765625 439.777344 286.398438 440.308594 286.058594 C 440.839844 285.722656 441.390625 285.417969 441.953125 285.144531 C 442.519531 284.875 443.097656 284.636719 443.6875 284.433594 C 444.28125 284.230469 444.882812 284.0625 445.496094 283.925781 C 446.105469 283.792969 446.726562 283.695312 447.355469 283.636719 C 447.980469 283.574219 448.613281 283.546875 449.25 283.558594 C 449.886719 283.566406 450.527344 283.613281 451.164062 283.695312 C 451.804688 283.777344 452.441406 283.894531 453.078125 284.050781 C 453.714844 284.203125 454.347656 284.390625 454.972656 284.613281 C 455.601562 284.839844 456.21875 285.09375 456.832031 285.386719 C 457.441406 285.675781 458.042969 286 458.632812 286.355469 C 459.226562 286.710938 459.800781 287.097656 460.363281 287.515625 C 460.929688 287.929688 461.476562 288.375 462.007812 288.851562 C 462.535156 289.324219 463.050781 289.824219 463.542969 290.351562 C 464.035156 290.878906 464.507812 291.429688 464.960938 292.003906 C 465.410156 292.578125 465.839844 293.175781 466.242188 293.792969 C 466.648438 294.410156 467.027344 295.042969 467.382812 295.699219 C 467.734375 296.351562 468.0625 297.019531 468.363281 297.703125 C 468.664062 298.382812 468.933594 299.078125 469.175781 299.785156 Z M 469.175781 299.785156 " fill-opacity="1" fill-rule="nonzero"/><path fill="#ffb9b1" d="M 162.359375 358.527344 C 162.359375 359.148438 162.332031 359.765625 162.277344 360.375 C 162.222656 360.984375 162.140625 361.574219 162.035156 362.148438 C 161.925781 362.722656 161.792969 363.269531 161.636719 363.785156 C 161.484375 364.300781 161.304688 364.78125 161.105469 365.21875 C 160.910156 365.65625 160.691406 366.050781 160.457031 366.394531 C 160.226562 366.742188 159.980469 367.03125 159.71875 367.269531 C 159.460938 367.507812 159.191406 367.6875 158.917969 367.808594 C 158.640625 367.929688 158.363281 367.992188 158.082031 367.992188 C 157.800781 367.992188 157.523438 367.929688 157.25 367.808594 C 156.972656 367.6875 156.707031 367.507812 156.445312 367.269531 C 156.1875 367.03125 155.941406 366.742188 155.707031 366.394531 C 155.472656 366.050781 155.257812 365.65625 155.058594 365.21875 C 154.859375 364.78125 154.683594 364.300781 154.527344 363.785156 C 154.371094 363.269531 154.238281 362.722656 154.132812 362.148438 C 154.023438 361.574219 153.941406 360.984375 153.886719 360.375 C 153.832031 359.765625 153.804688 359.148438 153.804688 358.527344 C 153.804688 357.90625 153.832031 357.289062 153.886719 356.679688 C 153.941406 356.070312 154.023438 355.480469 154.132812 354.90625 C 154.238281 354.332031 154.371094 353.785156 154.527344 353.269531 C 154.683594 352.753906 154.859375 352.273438 155.058594 351.835938 C 155.257812 351.394531 155.472656 351.003906 155.707031 350.660156 C 155.941406 350.3125 156.1875 350.023438 156.445312 349.785156 C 156.707031 349.546875 156.972656 349.367188 157.25 349.246094 C 157.523438 349.125 157.800781 349.0625 158.082031 349.0625 C 158.363281 349.0625 158.640625 349.125 158.917969 349.246094 C 159.191406 349.367188 159.460938 349.546875 159.71875 349.785156 C 159.980469 350.019531 160.226562 350.3125 160.457031 350.660156 C 160.691406 351.003906 160.910156 351.394531 161.105469 351.835938 C 161.304688 352.273438 161.484375 352.753906 161.636719 353.269531 C 161.792969 353.785156 161.925781 354.332031 162.035156 354.90625 C 162.140625 355.480469 162.222656 356.070312 162.277344 356.679688 C 162.332031 357.289062 162.359375 357.90625 162.359375 358.527344 Z M 162.359375 358.527344 " fill-opacity="1" fill-rule="nonzero"/><path fill="#ffb9b1" d="M 190.078125 358.527344 C 190.078125 359.148438 190.050781 359.765625 189.996094 360.375 C 189.941406 360.984375 189.859375 361.574219 189.753906 362.148438 C 189.644531 362.722656 189.511719 363.269531 189.355469 363.785156 C 189.203125 364.300781 189.023438 364.78125 188.824219 365.21875 C 188.625 365.65625 188.410156 366.050781 188.175781 366.394531 C 187.945312 366.742188 187.699219 367.03125 187.4375 367.269531 C 187.179688 367.507812 186.910156 367.6875 186.636719 367.808594 C 186.359375 367.929688 186.082031 367.992188 185.800781 367.992188 C 185.519531 367.992188 185.242188 367.929688 184.96875 367.808594 C 184.691406 367.6875 184.425781 367.507812 184.164062 367.269531 C 183.90625 367.03125 183.660156 366.742188 183.425781 366.394531 C 183.191406 366.050781 182.976562 365.65625 182.777344 365.21875 C 182.578125 364.78125 182.402344 364.300781 182.246094 363.785156 C 182.089844 363.269531 181.957031 362.722656 181.851562 362.148438 C 181.742188 361.574219 181.660156 360.984375 181.605469 360.375 C 181.550781 359.765625 181.523438 359.148438 181.523438 358.527344 C 181.523438 357.90625 181.550781 357.289062 181.605469 356.679688 C 181.660156 356.070312 181.742188 355.480469 181.851562 354.90625 C 181.957031 354.332031 182.089844 353.785156 182.246094 353.269531 C 182.402344 352.753906 182.578125 352.273438 182.777344 351.835938 C 182.976562 351.394531 183.191406 351.003906 183.425781 350.660156 C 183.660156 350.3125 183.90625 350.023438 184.164062 349.785156 C 184.425781 349.546875 184.691406 349.367188 184.96875 349.246094 C 185.242188 349.125 185.519531 349.0625 185.800781 349.0625 C 186.082031 349.0625 186.359375 349.125 186.636719 349.246094 C 186.910156 349.367188 187.179688 349.546875 187.4375 349.785156 C 187.699219 350.019531 187.945312 350.3125 188.175781 350.660156 C 188.410156 351.003906 188.625 351.394531 188.824219 351.835938 C 189.023438 352.273438 189.203125 352.753906 189.355469 353.269531 C 189.511719 353.785156 189.644531 354.332031 189.753906 354.90625 C 189.859375 355.480469 189.941406 356.070312 189.996094 356.679688 C 190.050781 357.289062 190.078125 357.90625 190.078125 358.527344 Z M 190.078125 358.527344 " fill-opacity="1" fill-rule="nonzero"/><path fill="#ffb9b1" d="M 217.828125 358.527344 C 217.828125 359.148438 217.800781 359.765625 217.746094 360.375 C 217.691406 360.984375 217.613281 361.574219 217.503906 362.148438 C 217.394531 362.722656 217.265625 363.269531 217.109375 363.785156 C 216.953125 364.300781 216.773438 364.78125 216.578125 365.21875 C 216.378906 365.65625 216.164062 366.050781 215.929688 366.394531 C 215.695312 366.742188 215.449219 367.03125 215.1875 367.269531 C 214.929688 367.507812 214.664062 367.6875 214.386719 367.808594 C 214.113281 367.929688 213.832031 367.992188 213.550781 367.992188 C 213.273438 367.992188 212.992188 367.929688 212.71875 367.808594 C 212.441406 367.6875 212.175781 367.507812 211.914062 367.269531 C 211.65625 367.03125 211.410156 366.742188 211.175781 366.394531 C 210.941406 366.050781 210.726562 365.65625 210.527344 365.21875 C 210.328125 364.78125 210.152344 364.300781 209.996094 363.785156 C 209.839844 363.269531 209.707031 362.722656 209.601562 362.148438 C 209.492188 361.574219 209.414062 360.984375 209.359375 360.375 C 209.304688 359.765625 209.277344 359.148438 209.277344 358.527344 C 209.277344 357.90625 209.304688 357.289062 209.359375 356.679688 C 209.414062 356.070312 209.492188 355.480469 209.601562 354.90625 C 209.707031 354.332031 209.839844 353.785156 209.996094 353.269531 C 210.152344 352.753906 210.328125 352.273438 210.527344 351.835938 C 210.726562 351.394531 210.941406 351.003906 211.175781 350.660156 C 211.410156 350.3125 211.65625 350.023438 211.914062 349.785156 C 212.175781 349.546875 212.441406 349.367188 212.71875 349.246094 C 212.992188 349.125 213.273438 349.0625 213.550781 349.0625 C 213.832031 349.0625 214.113281 349.125 214.386719 349.246094 C 214.664062 349.367188 214.929688 349.546875 215.1875 349.785156 C 215.449219 350.019531 215.695312 350.3125 215.929688 350.660156 C 216.164062 351.003906 216.378906 351.394531 216.578125 351.835938 C 216.773438 352.273438 216.953125 352.753906 217.109375 353.269531 C 217.265625 353.785156 217.394531 354.332031 217.503906 354.90625 C 217.613281 355.480469 217.691406 356.070312 217.746094 356.679688 C 217.800781 357.289062 217.828125 357.90625 217.828125 358.527344 Z M 217.828125 358.527344 " fill-opacity="1" fill-rule="nonzero"/><path fill="#ffb9b1" d="M 476.113281 350.988281 C 476.113281 351.609375 476.085938 352.226562 476.03125 352.835938 C 475.976562 353.445312 475.894531 354.035156 475.785156 354.609375 C 475.679688 355.183594 475.546875 355.730469 475.390625 356.246094 C 475.234375 356.761719 475.058594 357.242188 474.859375 357.679688 C 474.660156 358.121094 474.445312 358.511719 474.210938 358.859375 C 473.976562 359.203125 473.730469 359.496094 473.472656 359.730469 C 473.214844 359.96875 472.945312 360.148438 472.671875 360.269531 C 472.394531 360.390625 472.117188 360.453125 471.835938 360.453125 C 471.554688 360.453125 471.277344 360.390625 471 360.269531 C 470.726562 360.148438 470.457031 359.96875 470.199219 359.730469 C 469.941406 359.496094 469.691406 359.203125 469.460938 358.859375 C 469.226562 358.511719 469.011719 358.121094 468.8125 357.679688 C 468.613281 357.242188 468.4375 356.761719 468.28125 356.246094 C 468.125 355.730469 467.992188 355.183594 467.882812 354.609375 C 467.777344 354.035156 467.695312 353.445312 467.640625 352.835938 C 467.585938 352.226562 467.558594 351.609375 467.558594 350.988281 C 467.558594 350.367188 467.585938 349.75 467.640625 349.140625 C 467.695312 348.53125 467.777344 347.941406 467.882812 347.367188 C 467.992188 346.792969 468.125 346.246094 468.28125 345.730469 C 468.4375 345.214844 468.613281 344.734375 468.8125 344.296875 C 469.011719 343.859375 469.226562 343.464844 469.460938 343.121094 C 469.691406 342.773438 469.941406 342.484375 470.199219 342.246094 C 470.457031 342.007812 470.726562 341.828125 471 341.707031 C 471.277344 341.585938 471.554688 341.523438 471.835938 341.523438 C 472.117188 341.523438 472.394531 341.585938 472.671875 341.707031 C 472.945312 341.828125 473.214844 342.007812 473.472656 342.246094 C 473.730469 342.484375 473.976562 342.773438 474.210938 343.121094 C 474.445312 343.464844 474.660156 343.859375 474.859375 344.296875 C 475.058594 344.734375 475.234375 345.214844 475.390625 345.730469 C 475.546875 346.246094 475.679688 346.792969 475.785156 347.367188 C 475.894531 347.941406 475.976562 348.53125 476.03125 349.140625 C 476.085938 349.75 476.113281 350.367188 476.113281 350.988281 Z M 476.113281 350.988281 " fill-opacity="1" fill-rule="nonzero"/><path fill="#ffb9b1" d="M 503.863281 350.988281 C 503.863281 351.609375 503.835938 352.226562 503.78125 352.835938 C 503.726562 353.445312 503.644531 354.035156 503.539062 354.609375 C 503.429688 355.183594 503.300781 355.730469 503.144531 356.246094 C 502.988281 356.761719 502.808594 357.242188 502.609375 357.679688 C 502.414062 358.121094 502.195312 358.511719 501.964844 358.859375 C 501.730469 359.203125 501.484375 359.496094 501.222656 359.730469 C 500.964844 359.96875 500.695312 360.148438 500.421875 360.269531 C 500.144531 360.390625 499.867188 360.453125 499.585938 360.453125 C 499.304688 360.453125 499.027344 360.390625 498.753906 360.269531 C 498.476562 360.148438 498.210938 359.96875 497.949219 359.730469 C 497.691406 359.496094 497.445312 359.203125 497.210938 358.859375 C 496.976562 358.511719 496.761719 358.121094 496.5625 357.679688 C 496.363281 357.242188 496.1875 356.761719 496.03125 356.246094 C 495.875 355.730469 495.742188 355.183594 495.636719 354.609375 C 495.527344 354.035156 495.445312 353.445312 495.390625 352.835938 C 495.335938 352.226562 495.308594 351.609375 495.308594 350.988281 C 495.308594 350.367188 495.335938 349.75 495.390625 349.140625 C 495.445312 348.53125 495.527344 347.941406 495.636719 347.367188 C 495.742188 346.792969 495.875 346.246094 496.03125 345.730469 C 496.1875 345.214844 496.363281 344.734375 496.5625 344.296875 C 496.761719 343.859375 496.976562 343.464844 497.210938 343.121094 C 497.445312 342.773438 497.691406 342.484375 497.949219 342.246094 C 498.210938 342.007812 498.476562 341.828125 498.753906 341.707031 C 499.027344 341.585938 499.304688 341.523438 499.585938 341.523438 C 499.867188 341.523438 500.144531 341.585938 500.421875 341.707031 C 500.695312 341.828125 500.964844 342.007812 501.222656 342.246094 C 501.484375 342.484375 501.730469 342.773438 501.964844 343.121094 C 502.195312 343.464844 502.414062 343.859375 502.609375 344.296875 C 502.808594 344.734375 502.988281 345.214844 503.144531 345.730469 C 503.300781 346.246094 503.429688 346.792969 503.539062 347.367188 C 503.644531 347.941406 503.726562 348.53125 503.78125 349.140625 C 503.835938 349.75 503.863281 350.367188 503.863281 350.988281 Z M 503.863281 350.988281 " fill-opacity="1" fill-rule="nonzero"/><path fill="#ffb9b1" d="M 531.617188 350.988281 C 531.617188 351.609375 531.589844 352.226562 531.53125 352.835938 C 531.476562 353.445312 531.398438 354.035156 531.289062 354.609375 C 531.183594 355.183594 531.050781 355.730469 530.894531 356.246094 C 530.738281 356.761719 530.5625 357.242188 530.363281 357.679688 C 530.164062 358.121094 529.949219 358.511719 529.714844 358.859375 C 529.480469 359.203125 529.234375 359.496094 528.976562 359.730469 C 528.714844 359.96875 528.449219 360.148438 528.171875 360.269531 C 527.898438 360.390625 527.621094 360.453125 527.339844 360.453125 C 527.058594 360.453125 526.78125 360.390625 526.503906 360.269531 C 526.230469 360.148438 525.960938 359.96875 525.703125 359.730469 C 525.441406 359.496094 525.195312 359.203125 524.960938 358.859375 C 524.730469 358.511719 524.511719 358.121094 524.3125 357.679688 C 524.117188 357.242188 523.9375 356.761719 523.78125 356.246094 C 523.625 355.730469 523.496094 355.183594 523.386719 354.609375 C 523.28125 354.035156 523.199219 353.445312 523.144531 352.835938 C 523.089844 352.226562 523.0625 351.609375 523.0625 350.988281 C 523.0625 350.367188 523.089844 349.75 523.144531 349.140625 C 523.199219 348.53125 523.28125 347.941406 523.386719 347.367188 C 523.496094 346.792969 523.625 346.246094 523.78125 345.730469 C 523.9375 345.214844 524.117188 344.734375 524.3125 344.296875 C 524.511719 343.859375 524.730469 343.464844 524.960938 343.121094 C 525.195312 342.773438 525.441406 342.484375 525.703125 342.246094 C 525.960938 342.007812 526.230469 341.828125 526.503906 341.707031 C 526.78125 341.585938 527.058594 341.523438 527.339844 341.523438 C 527.621094 341.523438 527.898438 341.585938 528.171875 341.707031 C 528.449219 341.828125 528.714844 342.007812 528.976562 342.246094 C 529.234375 342.484375 529.480469 342.773438 529.714844 343.121094 C 529.949219 343.464844 530.164062 343.859375 530.363281 344.296875 C 530.5625 344.734375 530.738281 345.214844 530.894531 345.730469 C 531.050781 346.246094 531.183594 346.792969 531.289062 347.367188 C 531.398438 347.941406 531.476562 348.53125 531.53125 349.140625 C 531.589844 349.75 531.617188 350.367188 531.617188 350.988281 Z M 531.617188 350.988281 " fill-opacity="1" fill-rule="nonzero"/></svg>