<svg xmlns="http://www.w3.org/2000/svg" xmlns:xlink="http://www.w3.org/1999/xlink" width="1000" zoomAndPan="magnify" viewBox="0 0 750 749.999995" height="1000" preserveAspectRatio="xMidYMid meet" version="1.0"><path fill="#000000" d="M 39.445312 362.980469 C 52.253906 333.3125 68.140625 305.394531 87.105469 279.226562 L 89.050781 276.574219 C 88.316406 276.019531 87.625 275.410156 86.980469 274.75 C 86.335938 274.089844 85.742188 273.382812 85.203125 272.636719 C 84.667969 271.886719 84.1875 271.097656 83.765625 270.277344 C 83.347656 269.453125 82.992188 268.605469 82.699219 267.730469 C 82.410156 266.855469 82.183594 265.960938 82.027344 265.050781 C 81.871094 264.144531 81.785156 263.226562 81.765625 262.304688 C 81.746094 261.382812 81.796875 260.460938 81.917969 259.546875 C 82.039062 258.632812 82.226562 257.730469 82.480469 256.84375 C 93.675781 215.4375 113.238281 161.460938 149.882812 135.925781 C 185.230469 111.21875 224.617188 120.523438 258.875 142.613281 C 260.773438 143.804688 262.398438 145.292969 263.753906 147.078125 C 265.105469 148.863281 266.105469 150.832031 266.742188 152.976562 C 316.996094 139.667969 376.886719 137.695312 428.378906 145.410156 L 428.554688 145.410156 L 430.765625 145.761719 C 431.132812 143.75 431.824219 141.851562 432.832031 140.070312 C 433.84375 138.285156 435.117188 136.71875 436.65625 135.367188 C 465.4375 108.773438 503.140625 88.808594 541.378906 108.570312 C 579.613281 128.328125 601.414062 180.6875 614.167969 219.0625 C 614.453125 219.890625 614.675781 220.734375 614.839844 221.59375 C 615.003906 222.453125 615.105469 223.316406 615.148438 224.191406 C 615.1875 225.066406 615.164062 225.9375 615.082031 226.808594 C 614.996094 227.679688 614.851562 228.539062 614.644531 229.390625 C 614.4375 230.242188 614.171875 231.070312 613.847656 231.882812 C 613.523438 232.695312 613.144531 233.480469 612.707031 234.238281 C 612.269531 234.996094 611.78125 235.722656 611.242188 236.410156 C 610.703125 237.097656 610.117188 237.746094 609.484375 238.351562 C 623.378906 253.839844 635.730469 270.476562 646.546875 288.25 C 657.359375 306.027344 666.453125 324.644531 673.820312 344.101562 C 685.871094 374.03125 693.726562 405.019531 697.386719 437.074219 C 698.625 436.972656 699.863281 436.972656 701.101562 437.074219 C 731.765625 441.195312 744.550781 463.3125 738.511719 492.671875 C 738.511719 492.996094 738.363281 493.4375 738.304688 493.910156 C 740.226562 495.703125 741.914062 497.691406 743.363281 499.882812 C 744.816406 502.078125 745.988281 504.40625 746.882812 506.878906 C 747.78125 509.347656 748.375 511.890625 748.667969 514.5 C 748.960938 517.113281 748.941406 519.722656 748.617188 522.328125 C 748.425781 523.753906 748.144531 525.160156 747.777344 526.546875 C 747.40625 527.933594 746.953125 529.292969 746.410156 530.625 C 745.871094 531.957031 745.25 533.25 744.546875 534.5 C 743.84375 535.753906 743.0625 536.957031 742.207031 538.109375 C 741.351562 539.265625 740.425781 540.359375 739.433594 541.398438 C 738.4375 542.4375 737.382812 543.40625 736.265625 544.3125 C 735.148438 545.214844 733.980469 546.046875 732.757812 546.800781 C 731.539062 547.558594 730.273438 548.234375 728.96875 548.832031 C 726.226562 550.15625 723.074219 557.875 721.808594 560.40625 C 712.058594 581.285156 691.082031 587.558594 669.902344 581.667969 C 669.179688 581.46875 668.472656 581.222656 667.78125 580.933594 C 666.898438 580.578125 666.042969 580.195312 665.160156 579.785156 C 664.273438 579.398438 663.429688 578.9375 662.628906 578.398438 C 642.300781 605.964844 614.492188 627.316406 582.148438 642.953125 C 532.777344 666.746094 475.480469 676.640625 421.160156 679.675781 C 418.855469 679.832031 416.601562 679.5625 414.402344 678.867188 C 412.199219 678.167969 410.199219 677.09375 408.40625 675.640625 C 406.84375 676.773438 405.214844 677.796875 403.515625 678.707031 C 401.8125 679.617188 400.058594 680.410156 398.25 681.078125 C 396.441406 681.75 394.59375 682.292969 392.710938 682.707031 C 390.828125 683.125 388.921875 683.410156 387 683.566406 C 385.078125 683.71875 383.152344 683.742188 381.226562 683.632812 C 379.300781 683.527344 377.390625 683.285156 375.496094 682.914062 C 373.605469 682.542969 371.746094 682.042969 369.921875 681.417969 C 368.097656 680.792969 366.324219 680.042969 364.601562 679.175781 C 361.953125 677.878906 359.449219 676.34375 357.089844 674.574219 C 354.734375 672.804688 352.5625 670.832031 350.578125 668.648438 C 348.59375 666.46875 346.832031 664.121094 345.289062 661.609375 C 343.75 659.09375 342.460938 656.460938 341.417969 653.699219 L 341.210938 653.699219 C 340.5625 656.058594 339.972656 658.414062 339.414062 660.679688 C 334.113281 681.738281 316.851562 686.152344 297.671875 682.382812 C 291.734375 681.234375 286.078125 679.269531 280.703125 676.496094 C 279.8125 677.460938 278.828125 678.324219 277.746094 679.078125 C 276.667969 679.835938 275.523438 680.46875 274.308594 680.976562 C 273.09375 681.484375 271.835938 681.855469 270.542969 682.09375 C 269.246094 682.332031 267.941406 682.429688 266.625 682.382812 C 199.28125 681.355469 125.992188 668.957031 76.238281 619.628906 C 4.535156 548.746094 0 452.5625 39.445312 362.980469 Z M 39.445312 362.980469 " fill-opacity="1" fill-rule="evenodd"/><path fill="#ffffff" d="M 656.382812 350.90625 C 601.148438 209.3125 480.164062 146.585938 322.917969 161.8125 C 206.027344 173.148438 112.351562 243.859375 56.675781 370.253906 C 16.644531 461.132812 28.605469 546.242188 89.433594 606.582031 C 131.410156 648.195312 194.597656 662.800781 266.949219 663.917969 C 259.464844 652.847656 256.875 642.511719 258.464844 632.820312 C 258.539062 632.148438 258.691406 631.496094 258.925781 630.863281 C 259.160156 630.226562 259.46875 629.628906 259.847656 629.070312 C 260.226562 628.511719 260.667969 628.007812 261.171875 627.554688 C 261.675781 627.101562 262.226562 626.71875 262.824219 626.402344 C 263.441406 626.109375 264.085938 625.90625 264.757812 625.785156 C 265.429688 625.664062 266.105469 625.632812 266.785156 625.6875 C 267.464844 625.746094 268.125 625.890625 268.769531 626.121094 C 269.410156 626.351562 270.011719 626.660156 270.570312 627.050781 C 271.652344 627.894531 272.492188 628.9375 273.085938 630.175781 C 273.679688 631.410156 273.972656 632.714844 273.960938 634.085938 C 275.402344 652.347656 285.242188 660.828125 301.445312 664.007812 C 313.226562 666.363281 319.117188 665.039062 321.386719 656.117188 C 322.757812 650.34375 324.425781 644.660156 326.394531 639.066406 C 326.421875 638.457031 326.523438 637.867188 326.699219 637.285156 C 326.878906 636.707031 327.128906 636.15625 327.449219 635.640625 C 327.769531 635.125 328.148438 634.660156 328.589844 634.242188 C 329.03125 633.824219 329.515625 633.46875 330.046875 633.175781 C 330.554688 632.839844 331.105469 632.585938 331.6875 632.410156 C 332.273438 632.234375 332.867188 632.148438 333.480469 632.148438 C 334.089844 632.148438 334.6875 632.234375 335.269531 632.410156 C 335.855469 632.585938 336.402344 632.839844 336.910156 633.175781 C 337.851562 633.96875 338.648438 634.972656 339.855469 634.972656 C 340.472656 634.957031 341.042969 634.789062 341.570312 634.46875 C 342.097656 634.148438 342.507812 633.714844 342.800781 633.175781 C 343.132812 632.628906 343.53125 632.136719 344 631.699219 C 344.46875 631.265625 344.988281 630.902344 345.558594 630.613281 C 346.128906 630.324219 346.726562 630.117188 347.355469 630 C 347.984375 629.878906 348.617188 629.847656 349.253906 629.90625 C 349.910156 629.90625 350.546875 630.007812 351.171875 630.210938 C 351.796875 630.414062 352.371094 630.710938 352.902344 631.09375 C 353.429688 631.480469 353.886719 631.941406 354.269531 632.472656 C 354.652344 633.003906 354.945312 633.582031 355.144531 634.207031 C 357.824219 646.574219 362.539062 657.351562 372.820312 662.183594 C 384.898438 667.894531 395.707031 664.125 403.339844 655.113281 C 408.875 648.546875 409.230469 640.566406 407.816406 630.730469 C 407.199219 626.578125 411.527344 623.222656 415.710938 622.75 C 419.894531 622.277344 424.753906 624.605469 425.167969 628.816406 C 426.523438 643.097656 423.988281 653.878906 420.335938 660.886719 C 484.289062 657.324219 535.222656 644.835938 574.222656 626.019531 C 671.433594 579.136719 708.90625 484.871094 656.707031 350.816406 Z M 389.40625 400.46875 C 389.746094 404.582031 389.410156 408.644531 388.402344 412.648438 C 387.390625 416.652344 385.761719 420.386719 383.511719 423.851562 C 376.707031 434.777344 365.25 442.460938 353.703125 447.703125 C 339.445312 454.152344 322.742188 455.773438 309.042969 447.085938 C 287.273438 433.273438 282 412.425781 290.808594 392.8125 C 289.621094 391.800781 288.558594 390.671875 287.628906 389.425781 C 280.203125 379.5 276.785156 367.601562 280.441406 355.441406 C 280.710938 354.488281 281.058594 353.5625 281.480469 352.664062 C 281.898438 351.765625 282.390625 350.90625 282.949219 350.089844 C 283.507812 349.269531 284.132812 348.5 284.816406 347.78125 C 285.5 347.066406 286.238281 346.40625 287.027344 345.808594 C 287.816406 345.207031 288.652344 344.675781 289.527344 344.210938 C 290.40625 343.75 291.3125 343.355469 292.253906 343.039062 C 293.191406 342.722656 294.152344 342.480469 295.128906 342.320312 C 296.109375 342.15625 297.09375 342.074219 298.085938 342.070312 C 301.71875 342.058594 305.335938 341.796875 308.933594 341.273438 C 312.53125 340.753906 316.074219 339.980469 319.5625 338.960938 C 323.050781 337.9375 326.453125 336.679688 329.761719 335.175781 C 333.070312 333.675781 336.261719 331.949219 339.328125 329.996094 C 340.28125 329.371094 341.285156 328.835938 342.335938 328.394531 C 343.386719 327.953125 344.46875 327.609375 345.585938 327.367188 C 346.699219 327.125 347.828125 326.984375 348.96875 326.949219 C 350.109375 326.910156 351.242188 326.976562 352.371094 327.148438 C 353.5 327.320312 354.601562 327.59375 355.679688 327.964844 C 356.757812 328.339844 357.792969 328.808594 358.785156 329.371094 C 359.777344 329.933594 360.710938 330.582031 361.585938 331.316406 C 362.457031 332.050781 363.257812 332.855469 363.984375 333.738281 C 371.523438 342.867188 380.773438 342.953125 391.671875 339.832031 C 392.382812 339.628906 393.105469 339.464844 393.835938 339.34375 C 394.566406 339.226562 395.300781 339.148438 396.042969 339.117188 C 396.78125 339.085938 397.519531 339.097656 398.257812 339.152344 C 398.996094 339.210938 399.726562 339.308594 400.453125 339.453125 C 401.179688 339.59375 401.894531 339.78125 402.601562 340.007812 C 403.304688 340.234375 403.992188 340.503906 404.664062 340.8125 C 405.339844 341.125 405.988281 341.472656 406.621094 341.859375 C 407.25 342.246094 407.855469 342.667969 408.4375 343.128906 C 409.019531 343.585938 409.570312 344.078125 410.089844 344.605469 C 410.613281 345.128906 411.101562 345.683594 411.558594 346.265625 C 412.015625 346.847656 412.433594 347.457031 412.820312 348.089844 C 413.203125 348.722656 413.546875 349.375 413.855469 350.050781 C 414.160156 350.722656 414.425781 351.414062 414.648438 352.117188 C 414.875 352.824219 415.054688 353.539062 415.195312 354.265625 C 415.332031 354.992188 415.429688 355.726562 415.480469 356.464844 C 415.53125 357.203125 415.539062 357.941406 415.503906 358.679688 C 415.421875 360.546875 415.234375 362.40625 414.949219 364.257812 C 414.664062 366.105469 414.277344 367.933594 413.792969 369.738281 C 413.308594 371.546875 412.726562 373.320312 412.046875 375.066406 C 411.367188 376.808594 410.597656 378.511719 409.734375 380.167969 C 408.871094 381.828125 407.917969 383.4375 406.878906 384.992188 C 405.84375 386.550781 404.722656 388.042969 403.519531 389.480469 C 402.320312 390.914062 401.042969 392.277344 399.691406 393.574219 C 398.34375 394.867188 396.925781 396.085938 395.445312 397.230469 C 393.585938 398.683594 391.523438 399.746094 389.257812 400.410156 Z M 389.40625 400.46875 " fill-opacity="1" fill-rule="evenodd"/><path fill="#ffad3f" d="M 656.382812 350.90625 C 601.148438 209.3125 480.164062 146.585938 322.917969 161.8125 C 206.027344 173.148438 112.351562 243.859375 56.675781 370.253906 C 130.175781 384.359375 210.390625 383.503906 275.992188 334.058594 C 298.644531 316.980469 312.609375 290.859375 340.800781 287.765625 C 368.992188 284.675781 390.316406 303.523438 414.121094 318.921875 C 484.40625 364.394531 574.429688 367.457031 656.382812 350.90625 Z M 656.382812 350.90625 " fill-opacity="1" fill-rule="evenodd"/><path fill="#ffad3f" d="M 100.480469 261.761719 C 131.234375 148.875 180.644531 114.378906 248.714844 158.277344 C 189.179688 177.921875 139.71875 213.96875 100.570312 261.820312 Z M 100.480469 261.761719 " fill-opacity="1" fill-rule="evenodd"/><path fill="#ffb9b1" d="M 217.636719 170.410156 C 202.042969 177.53125 187.132812 185.871094 172.902344 195.425781 C 158.675781 204.980469 145.316406 215.628906 132.824219 227.367188 C 159.398438 177.28125 187.675781 158.296875 217.664062 170.410156 Z M 217.636719 170.410156 " fill-opacity="1" fill-rule="evenodd"/><path fill="#ffad3f" d="M 449.351562 149.0625 C 511.566406 91.929688 560.585938 117.226562 596.40625 224.953125 C 555.785156 185.988281 505.792969 160.929688 449.351562 149.0625 Z M 449.351562 149.0625 " fill-opacity="1" fill-rule="evenodd"/><path fill="#ffb9b1" d="M 560.851562 195.945312 C 539.214844 181.082031 516.011719 169.300781 491.242188 160.605469 C 523.035156 140.460938 546.238281 152.242188 560.851562 195.945312 Z M 560.851562 195.945312 " fill-opacity="1" fill-rule="evenodd"/><path fill="#ffffff" d="M 704.871094 552.484375 C 699.363281 564.265625 688.078125 567.207031 674.96875 563.644531 L 672.996094 562.792969 C 679.644531 551.4375 684.996094 539.5 689.050781 526.980469 C 692.691406 515.480469 695.320312 503.75 696.933594 491.792969 C 698.542969 479.835938 699.117188 467.828125 698.65625 455.773438 C 717.476562 458.304688 724.253906 469.320312 720.21875 489.082031 C 718.363281 498.09375 720.21875 503.804688 723.988281 506.484375 C 725.078125 507.238281 726.042969 508.128906 726.886719 509.148438 C 727.730469 510.167969 728.421875 511.28125 728.960938 512.492188 C 729.496094 513.703125 729.863281 514.964844 730.054688 516.273438 C 730.246094 517.582031 730.253906 518.894531 730.085938 520.207031 C 729.871094 521.5 729.496094 522.742188 728.96875 523.9375 C 728.441406 525.136719 727.773438 526.246094 726.964844 527.277344 C 726.15625 528.304688 725.234375 529.21875 724.195312 530.015625 C 723.160156 530.8125 722.039062 531.472656 720.835938 531.988281 C 712.648438 535.933594 709.054688 543.765625 704.871094 552.453125 Z M 704.871094 552.484375 " fill-opacity="1" fill-rule="evenodd"/><path fill="#ffad3f" d="M 677.0625 555.457031 C 681.875 546.308594 685.871094 536.816406 689.050781 526.980469 C 693.9375 511.84375 696.972656 496.34375 698.152344 480.480469 C 698.746094 481.222656 699.3125 481.976562 699.859375 482.75 C 700.40625 483.523438 700.929688 484.3125 701.429688 485.117188 C 701.929688 485.921875 702.40625 486.738281 702.855469 487.574219 C 703.308594 488.40625 703.734375 489.25 704.136719 490.109375 C 704.535156 490.964844 704.914062 491.835938 705.261719 492.714844 C 705.613281 493.59375 705.933594 494.484375 706.230469 495.382812 C 706.53125 496.28125 706.800781 497.191406 707.042969 498.105469 C 707.285156 499.019531 707.5 499.941406 707.691406 500.871094 C 707.878906 501.796875 708.039062 502.730469 708.171875 503.667969 C 708.304688 504.605469 708.410156 505.546875 708.488281 506.488281 C 708.566406 507.433594 708.617188 508.378906 708.636719 509.324219 C 708.660156 510.273438 708.652344 511.21875 708.617188 512.164062 C 708.585938 513.109375 708.523438 514.054688 708.429688 514.996094 C 708.339844 515.941406 708.222656 516.878906 708.078125 517.816406 C 707.929688 518.75 707.757812 519.679688 707.554688 520.605469 C 707.355469 521.53125 707.125 522.449219 706.871094 523.363281 C 706.613281 524.273438 706.332031 525.175781 706.023438 526.070312 C 705.710938 526.96875 705.375 527.851562 705.015625 528.726562 C 704.652344 529.601562 704.265625 530.464844 703.851562 531.316406 C 703.441406 532.171875 703.003906 533.007812 702.539062 533.835938 C 702.078125 534.660156 701.589844 535.472656 701.078125 536.269531 C 700.570312 537.070312 700.035156 537.851562 699.476562 538.617188 C 698.921875 539.382812 698.339844 540.128906 697.738281 540.863281 C 697.136719 541.59375 696.515625 542.304688 695.871094 543 C 695.226562 543.695312 694.5625 544.371094 693.878906 545.027344 C 693.195312 545.679688 692.492188 546.316406 691.773438 546.929688 C 691.050781 547.542969 690.3125 548.132812 689.554688 548.703125 C 688.800781 549.273438 688.027344 549.820312 687.238281 550.34375 C 686.449219 550.871094 685.644531 551.371094 684.828125 551.847656 C 684.007812 552.324219 683.175781 552.773438 682.332031 553.203125 C 681.484375 553.628906 680.628906 554.03125 679.757812 554.40625 C 678.890625 554.785156 678.011719 555.132812 677.121094 555.457031 Z M 677.0625 555.457031 " fill-opacity="1" fill-rule="evenodd"/><path fill="#000000" d="M 215.191406 295.6875 C 229.917969 287.5 237.078125 289.238281 245.886719 292.300781 C 272.164062 301.519531 277.347656 339.949219 256.519531 320.574219 C 248.832031 313.417969 237.078125 314.417969 227.652344 318.980469 C 226.90625 319.273438 226.140625 319.496094 225.351562 319.644531 C 224.566406 319.796875 223.769531 319.871094 222.96875 319.871094 C 222.167969 319.871094 221.375 319.796875 220.585938 319.648438 C 219.800781 319.5 219.03125 319.277344 218.285156 318.988281 C 217.539062 318.695312 216.828125 318.335938 216.148438 317.910156 C 215.472656 317.484375 214.839844 317 214.25 316.453125 C 213.664062 315.910156 213.132812 315.316406 212.65625 314.671875 C 212.179688 314.027344 211.769531 313.34375 211.417969 312.621094 C 208.328125 306.730469 209.445312 298.898438 215.191406 295.6875 Z M 215.191406 295.6875 " fill-opacity="1" fill-rule="evenodd"/><path fill="#775055" d="M 396.976562 357.882812 C 396.867188 360.277344 396.5 362.628906 395.878906 364.941406 C 395.253906 367.253906 394.390625 369.46875 393.285156 371.59375 C 392.175781 373.71875 390.855469 375.695312 389.316406 377.53125 C 387.777344 379.367188 386.058594 381.015625 384.160156 382.476562 C 373.183594 370.046875 358.964844 366.121094 341.507812 370.695312 C 328.542969 364.039062 315.632812 366.5625 302.769531 378.261719 C 298.261719 372.195312 296.878906 366.484375 298.496094 360.859375 C 303.015625 360.84375 307.507812 360.507812 311.976562 359.855469 C 316.445312 359.203125 320.84375 358.238281 325.175781 356.957031 C 329.507812 355.679688 333.726562 354.101562 337.832031 352.226562 C 341.941406 350.347656 345.894531 348.191406 349.695312 345.75 C 361.144531 359.496094 376.855469 363.546875 396.828125 357.914062 Z M 396.976562 357.882812 " fill-opacity="1" fill-rule="evenodd"/><path fill="#ffb9b1" d="M 368.019531 394.371094 C 359.179688 379.648438 344.777344 381.445312 331.109375 395.609375 C 333.230469 377.761719 328.113281 375.574219 315.761719 389.042969 C 301.679688 404.472656 301.707031 420.167969 319.207031 431.273438 C 326.925781 436.160156 336.882812 434.777344 346.132812 430.652344 C 366.75 421.347656 375.972656 407.535156 368.019531 394.371094 Z M 368.019531 394.371094 " fill-opacity="1" fill-rule="evenodd"/><path fill="#000000" d="M 460.539062 292.964844 C 461.042969 293.539062 461.511719 294.140625 461.949219 294.769531 C 462.386719 295.398438 462.789062 296.046875 463.15625 296.722656 C 463.523438 297.398438 463.851562 298.09375 464.144531 298.808594 C 464.4375 299.523438 464.691406 300.257812 464.90625 301.007812 C 465.121094 301.753906 465.296875 302.519531 465.433594 303.292969 C 465.570312 304.070312 465.667969 304.855469 465.722656 305.648438 C 465.78125 306.445312 465.796875 307.246094 465.773438 308.050781 C 465.75 308.855469 465.683594 309.664062 465.578125 310.476562 C 465.472656 311.285156 465.328125 312.09375 465.144531 312.898438 C 464.960938 313.703125 464.738281 314.503906 464.472656 315.296875 C 464.210938 316.089844 463.914062 316.875 463.574219 317.648438 C 463.238281 318.421875 462.863281 319.183594 462.453125 319.929688 C 462.042969 320.679688 461.601562 321.410156 461.125 322.121094 C 460.644531 322.832031 460.136719 323.527344 459.597656 324.199219 C 459.054688 324.871094 458.484375 325.519531 457.886719 326.140625 C 457.285156 326.765625 456.660156 327.363281 456.007812 327.933594 C 455.355469 328.503906 454.683594 329.046875 453.984375 329.558594 C 453.285156 330.070312 452.570312 330.546875 451.832031 330.996094 C 451.09375 331.445312 450.339844 331.855469 449.570312 332.234375 C 448.800781 332.617188 448.019531 332.957031 447.222656 333.265625 C 446.429688 333.574219 445.625 333.84375 444.8125 334.074219 C 444 334.308594 443.183594 334.5 442.363281 334.65625 C 441.539062 334.8125 440.71875 334.925781 439.894531 335.003906 C 439.070312 335.082031 438.25 335.117188 437.433594 335.113281 C 436.617188 335.113281 435.808594 335.070312 435.003906 334.988281 C 434.203125 334.90625 433.410156 334.785156 432.628906 334.621094 C 431.851562 334.460938 431.085938 334.261719 430.332031 334.023438 C 429.582031 333.785156 428.847656 333.511719 428.132812 333.199219 C 427.417969 332.886719 426.726562 332.539062 426.054688 332.152344 C 425.386719 331.769531 424.738281 331.351562 424.117188 330.898438 C 423.496094 330.445312 422.90625 329.960938 422.339844 329.445312 C 421.773438 328.929688 421.242188 328.386719 420.738281 327.808594 C 420.234375 327.234375 419.761719 326.632812 419.328125 326.007812 C 418.890625 325.378906 418.488281 324.726562 418.121094 324.050781 C 417.753906 323.378906 417.425781 322.683594 417.132812 321.96875 C 416.839844 321.25 416.585938 320.519531 416.371094 319.769531 C 416.152344 319.019531 415.976562 318.257812 415.839844 317.480469 C 415.703125 316.707031 415.609375 315.921875 415.550781 315.125 C 415.496094 314.332031 415.480469 313.53125 415.503906 312.722656 C 415.527344 311.917969 415.59375 311.109375 415.695312 310.300781 C 415.800781 309.492188 415.945312 308.683594 416.132812 307.878906 C 416.316406 307.070312 416.539062 306.273438 416.800781 305.476562 C 417.0625 304.683594 417.363281 303.898438 417.699219 303.125 C 418.039062 302.351562 418.410156 301.589844 418.820312 300.84375 C 419.230469 300.097656 419.675781 299.367188 420.152344 298.65625 C 420.628906 297.941406 421.140625 297.25 421.679688 296.578125 C 422.222656 295.90625 422.792969 295.257812 423.390625 294.632812 C 423.988281 294.007812 424.617188 293.410156 425.265625 292.839844 C 425.917969 292.269531 426.59375 291.730469 427.292969 291.21875 C 427.988281 290.707031 428.707031 290.226562 429.445312 289.78125 C 430.183594 289.332031 430.9375 288.917969 431.707031 288.539062 C 432.476562 288.160156 433.257812 287.816406 434.054688 287.507812 C 434.847656 287.203125 435.652344 286.933594 436.464844 286.699219 C 437.277344 286.46875 438.09375 286.273438 438.914062 286.117188 C 439.734375 285.964844 440.558594 285.847656 441.382812 285.769531 C 442.203125 285.695312 443.023438 285.65625 443.839844 285.660156 C 444.65625 285.664062 445.46875 285.707031 446.269531 285.789062 C 447.074219 285.871094 447.863281 285.992188 448.644531 286.152344 C 449.425781 286.3125 450.191406 286.511719 450.941406 286.75 C 451.695312 286.988281 452.425781 287.265625 453.140625 287.578125 C 453.855469 287.890625 454.550781 288.238281 455.21875 288.621094 C 455.890625 289.007812 456.535156 289.425781 457.15625 289.875 C 457.777344 290.328125 458.371094 290.8125 458.9375 291.328125 C 459.5 291.84375 460.035156 292.390625 460.539062 292.964844 Z M 460.539062 292.964844 " fill-opacity="1" fill-rule="nonzero"/><path fill="#ffffff" d="M 278.859375 243.269531 C 279.875 243.671875 280.847656 244.152344 281.777344 244.71875 C 282.707031 245.28125 283.574219 245.914062 284.382812 246.621094 C 285.1875 247.324219 285.917969 248.085938 286.574219 248.902344 C 287.226562 249.71875 287.792969 250.578125 288.265625 251.476562 C 288.742188 252.378906 289.121094 253.300781 289.398438 254.246094 C 289.675781 255.195312 289.851562 256.144531 289.921875 257.105469 C 289.992188 258.0625 289.957031 259.007812 289.820312 259.9375 C 289.679688 260.871094 289.4375 261.773438 289.09375 262.640625 C 288.75 263.511719 288.308594 264.335938 287.773438 265.109375 C 287.238281 265.886719 286.617188 266.597656 285.910156 267.25 C 285.203125 267.898438 284.425781 268.476562 283.574219 268.976562 C 282.722656 269.476562 281.816406 269.890625 280.855469 270.222656 C 279.890625 270.554688 278.894531 270.796875 277.855469 270.945312 C 276.820312 271.09375 275.765625 271.148438 274.695312 271.113281 C 273.625 271.074219 272.558594 270.941406 271.496094 270.71875 C 270.429688 270.496094 269.390625 270.183594 268.375 269.78125 C 267.359375 269.378906 266.386719 268.894531 265.457031 268.332031 C 264.527344 267.769531 263.65625 267.132812 262.851562 266.429688 C 262.042969 265.726562 261.3125 264.964844 260.660156 264.148438 C 260.003906 263.332031 259.441406 262.472656 258.964844 261.574219 C 258.488281 260.671875 258.113281 259.75 257.835938 258.804688 C 257.554688 257.855469 257.382812 256.902344 257.308594 255.945312 C 257.238281 254.988281 257.273438 254.042969 257.414062 253.113281 C 257.550781 252.179688 257.792969 251.277344 258.136719 250.40625 C 258.480469 249.539062 258.921875 248.714844 259.457031 247.941406 C 259.992188 247.164062 260.613281 246.453125 261.320312 245.800781 C 262.027344 245.152344 262.808594 244.574219 263.660156 244.074219 C 264.507812 243.574219 265.414062 243.160156 266.378906 242.828125 C 267.339844 242.496094 268.339844 242.253906 269.375 242.105469 C 270.410156 241.957031 271.464844 241.898438 272.535156 241.9375 C 273.605469 241.976562 274.671875 242.105469 275.738281 242.332031 C 276.800781 242.554688 277.839844 242.867188 278.859375 243.269531 Z M 278.859375 243.269531 " fill-opacity="1" fill-rule="nonzero"/><path fill="#ffffff" d="M 430 240.84375 C 430.347656 241.714844 430.585938 242.613281 430.726562 243.546875 C 430.867188 244.480469 430.902344 245.425781 430.828125 246.382812 C 430.757812 247.339844 430.582031 248.292969 430.304688 249.238281 C 430.027344 250.1875 429.648438 251.109375 429.175781 252.007812 C 428.699219 252.90625 428.136719 253.765625 427.480469 254.582031 C 426.828125 255.402344 426.097656 256.160156 425.289062 256.867188 C 424.480469 257.570312 423.613281 258.203125 422.683594 258.769531 C 421.753906 259.332031 420.78125 259.8125 419.765625 260.214844 C 418.75 260.617188 417.707031 260.929688 416.644531 261.15625 C 415.582031 261.378906 414.515625 261.511719 413.441406 261.546875 C 412.371094 261.585938 411.320312 261.53125 410.28125 261.378906 C 409.246094 261.230469 408.246094 260.992188 407.285156 260.660156 C 406.324219 260.328125 405.417969 259.910156 404.566406 259.410156 C 403.714844 258.910156 402.9375 258.335938 402.230469 257.683594 C 401.523438 257.035156 400.902344 256.320312 400.367188 255.546875 C 399.828125 254.769531 399.390625 253.949219 399.046875 253.078125 C 398.703125 252.207031 398.460938 251.304688 398.320312 250.375 C 398.179688 249.441406 398.148438 248.496094 398.21875 247.539062 C 398.289062 246.582031 398.464844 245.628906 398.742188 244.683594 C 399.019531 243.734375 399.398438 242.8125 399.871094 241.914062 C 400.347656 241.015625 400.914062 240.15625 401.566406 239.335938 C 402.21875 238.519531 402.949219 237.757812 403.757812 237.054688 C 404.566406 236.351562 405.433594 235.71875 406.363281 235.152344 C 407.292969 234.589844 408.265625 234.105469 409.28125 233.707031 C 410.296875 233.304688 411.339844 232.992188 412.402344 232.765625 C 413.464844 232.542969 414.535156 232.410156 415.605469 232.375 C 416.675781 232.335938 417.726562 232.390625 418.765625 232.539062 C 419.800781 232.691406 420.800781 232.929688 421.761719 233.261719 C 422.722656 233.59375 423.628906 234.011719 424.480469 234.511719 C 425.332031 235.011719 426.109375 235.585938 426.816406 236.238281 C 427.523438 236.886719 428.144531 237.601562 428.683594 238.375 C 429.21875 239.152344 429.65625 239.972656 430 240.84375 Z M 430 240.84375 " fill-opacity="1" fill-rule="nonzero"/></svg>