<svg xmlns="http://www.w3.org/2000/svg" xmlns:xlink="http://www.w3.org/1999/xlink" width="1000" zoomAndPan="magnify" viewBox="0 0 750 749.999995" height="1000" preserveAspectRatio="xMidYMid meet" version="1.0"><path fill="#000000" d="M 692.054688 371.097656 C 698.132812 409.785156 696.75 443.894531 688.648438 473.570312 C 691.175781 475.597656 695.636719 478.914062 696.984375 479.882812 C 697.019531 477.628906 697.253906 475.398438 697.691406 473.1875 C 698.125 470.976562 698.757812 468.824219 699.585938 466.726562 C 700.414062 464.632812 701.421875 462.625 702.613281 460.714844 C 703.804688 458.800781 705.15625 457.011719 706.671875 455.34375 C 714.039062 447.445312 726.015625 446.535156 735.382812 451.261719 C 736.492188 451.808594 737.554688 452.429688 738.574219 453.128906 C 739.59375 453.828125 740.558594 454.597656 741.464844 455.4375 C 742.375 456.273438 743.21875 457.171875 744 458.132812 C 744.777344 459.089844 745.484375 460.101562 746.121094 461.160156 C 746.753906 462.222656 747.308594 463.320312 747.785156 464.460938 C 748.261719 465.601562 748.65625 466.773438 748.964844 467.96875 C 749.273438 469.164062 749.492188 470.378906 749.628906 471.605469 C 749.761719 472.835938 749.808594 474.066406 749.765625 475.304688 C 749.414062 485.195312 743.160156 492.445312 735.089844 497.523438 C 732.34375 499.265625 729.457031 500.722656 726.429688 501.898438 C 727.945312 502.855469 729.550781 503.628906 731.242188 504.21875 C 731.847656 504.390625 732.425781 504.625 732.984375 504.914062 C 733.539062 505.207031 734.0625 505.554688 734.546875 505.953125 C 735.035156 506.351562 735.476562 506.792969 735.871094 507.28125 C 736.265625 507.769531 736.609375 508.292969 736.898438 508.851562 C 737.1875 509.410156 737.417969 509.992188 737.589844 510.597656 C 737.757812 511.203125 737.867188 511.820312 737.910156 512.445312 C 737.957031 513.074219 737.9375 513.699219 737.855469 514.320312 C 737.769531 514.945312 737.625 515.554688 737.417969 516.148438 C 737.210938 516.742188 736.949219 517.308594 736.625 517.847656 C 736.300781 518.386719 735.929688 518.886719 735.503906 519.351562 C 735.078125 519.816406 734.613281 520.230469 734.101562 520.597656 C 733.59375 520.96875 733.050781 521.28125 732.476562 521.539062 C 731.90625 521.796875 731.3125 521.992188 730.699219 522.128906 C 730.082031 522.265625 729.460938 522.339844 728.835938 522.347656 C 728.207031 522.359375 727.582031 522.304688 726.964844 522.1875 C 726.347656 522.070312 725.746094 521.894531 725.167969 521.652344 C 722.808594 520.832031 720.542969 519.808594 718.367188 518.582031 C 716.191406 517.359375 714.144531 515.949219 712.21875 514.359375 C 710.296875 512.769531 708.527344 511.019531 706.914062 509.113281 C 705.304688 507.207031 703.871094 505.175781 702.621094 503.015625 C 695.335938 500.414062 688.601562 496.785156 682.425781 492.125 C 657.679688 554.589844 599.5 594.597656 515.636719 613.035156 C 502.914062 615.832031 490.195312 618.394531 477.476562 620.722656 C 477.863281 622.976562 477.835938 625.226562 477.402344 627.472656 C 476.96875 629.714844 476.152344 631.8125 474.949219 633.757812 C 474.398438 634.667969 473.820312 635.566406 473.21875 636.445312 C 472.613281 637.324219 471.988281 638.1875 471.335938 639.03125 C 470.6875 639.878906 470.011719 640.703125 469.3125 641.511719 C 468.617188 642.316406 467.898438 643.105469 467.15625 643.871094 C 466.414062 644.636719 465.652344 645.382812 464.867188 646.105469 C 464.085938 646.828125 463.28125 647.53125 462.460938 648.210938 C 461.636719 648.890625 460.796875 649.542969 459.9375 650.175781 C 459.078125 650.808594 458.199219 651.414062 457.308594 651.996094 C 456.414062 652.582031 455.503906 653.136719 454.582031 653.667969 C 453.65625 654.199219 452.71875 654.707031 451.765625 655.183594 C 450.8125 655.664062 449.847656 656.117188 448.867188 656.542969 C 447.890625 656.964844 446.898438 657.363281 445.898438 657.734375 C 444.898438 658.101562 443.890625 658.445312 442.871094 658.757812 C 441.851562 659.070312 440.824219 659.355469 439.785156 659.609375 C 438.75 659.863281 437.710938 660.089844 436.660156 660.289062 C 435.613281 660.484375 434.558594 660.652344 433.503906 660.789062 C 432.445312 660.929688 431.382812 661.035156 430.320312 661.113281 C 429.257812 661.195312 428.191406 661.242188 427.125 661.261719 C 426.058594 661.28125 424.992188 661.269531 423.925781 661.226562 C 422.863281 661.1875 421.796875 661.117188 420.734375 661.015625 C 419.675781 660.914062 418.617188 660.785156 417.5625 660.625 C 416.507812 660.464844 415.457031 660.277344 414.414062 660.058594 C 413.371094 659.839844 412.332031 659.589844 411.304688 659.3125 C 410.273438 659.039062 409.25 658.730469 408.238281 658.398438 C 407.226562 658.0625 406.222656 657.703125 405.230469 657.3125 C 404.238281 656.921875 403.257812 656.503906 402.289062 656.058594 C 401.316406 655.613281 400.363281 655.140625 399.417969 654.644531 C 398.476562 654.144531 397.546875 653.621094 396.636719 653.070312 C 395.722656 652.519531 394.824219 651.941406 393.945312 651.339844 C 393.0625 650.738281 392.199219 650.113281 391.351562 649.464844 C 390.507812 648.816406 389.679688 648.144531 388.871094 647.445312 C 388.0625 646.75 387.273438 646.035156 386.507812 645.292969 C 384.828125 643.722656 383.480469 641.90625 382.472656 639.84375 C 381.460938 637.78125 380.847656 635.605469 380.636719 633.316406 C 368.5625 634.238281 356.476562 634.882812 344.382812 635.253906 C 344.417969 636.699219 344.285156 638.125 343.988281 639.539062 C 343.6875 640.949219 343.234375 642.308594 342.621094 643.617188 C 342.003906 644.921875 341.25 646.140625 340.351562 647.273438 C 339.457031 648.40625 338.441406 649.417969 337.308594 650.3125 C 335.882812 651.457031 334.410156 652.535156 332.890625 653.546875 C 331.367188 654.558594 329.804688 655.5 328.203125 656.375 C 326.597656 657.25 324.957031 658.050781 323.28125 658.777344 C 321.605469 659.507812 319.902344 660.160156 318.167969 660.738281 C 316.4375 661.316406 314.679688 661.816406 312.902344 662.238281 C 311.125 662.660156 309.332031 663.003906 307.523438 663.269531 C 305.71875 663.53125 303.902344 663.714844 302.078125 663.816406 C 300.253906 663.921875 298.429688 663.941406 296.601562 663.882812 C 294.777344 663.824219 292.957031 663.6875 291.140625 663.46875 C 289.328125 663.246094 287.527344 662.949219 285.742188 662.570312 C 283.953125 662.191406 282.1875 661.730469 280.441406 661.195312 C 278.695312 660.660156 276.972656 660.050781 275.28125 659.363281 C 273.589844 658.671875 271.929688 657.914062 270.304688 657.078125 C 268.679688 656.242188 267.09375 655.339844 265.550781 654.363281 C 264.003906 653.386719 262.503906 652.347656 261.050781 651.238281 C 259.601562 650.132812 258.199219 648.960938 256.847656 647.730469 C 255.773438 646.761719 254.820312 645.683594 253.996094 644.492188 C 253.171875 643.304688 252.496094 642.035156 251.96875 640.6875 C 251.441406 639.339844 251.074219 637.949219 250.875 636.515625 C 250.671875 635.082031 250.636719 633.644531 250.773438 632.203125 C 243.289062 631.46875 235.832031 630.617188 228.347656 629.617188 C 176.945312 622.808594 122.671875 607.339844 80.078125 576.78125 C 42.5625 550.128906 16.789062 513.40625 10.449219 467.496094 C 0.0585938 392.085938 16.144531 325.214844 50.8125 267.710938 C 45.511719 261.601562 40.964844 254.976562 37.164062 247.835938 C 14.96875 206.066406 29.414062 167.054688 67.984375 142.425781 C 93.347656 126.222656 121.820312 118.648438 151.671875 122.730469 C 154.386719 123.046875 157.058594 123.570312 159.691406 124.296875 C 162.324219 125.027344 164.886719 125.953125 167.375 127.074219 C 169.867188 128.199219 172.253906 129.503906 174.542969 130.996094 C 176.832031 132.488281 178.992188 134.144531 181.027344 135.96875 C 193.085938 127.941406 205.636719 120.773438 218.679688 114.464844 C 231.722656 108.160156 245.132812 102.773438 258.917969 98.308594 C 272.699219 93.84375 286.71875 90.339844 300.980469 87.796875 C 315.246094 85.257812 329.613281 83.699219 344.089844 83.132812 C 358.621094 82.558594 373.136719 82.882812 387.628906 84.113281 C 402.121094 85.339844 416.480469 87.460938 430.710938 90.472656 C 444.9375 93.484375 458.925781 97.363281 472.675781 102.113281 C 486.421875 106.863281 499.824219 112.441406 512.875 118.855469 L 516.957031 120.878906 C 528.257812 112.574219 543.375 109.140625 560.8125 112.601562 C 585.324219 117.417969 609.570312 124.34375 630 139.375 C 647.40625 152.085938 657.445312 170.195312 656.625 191.886719 C 656.113281 199.277344 654.734375 206.5 652.484375 213.558594 C 650.238281 220.617188 647.183594 227.308594 643.328125 233.628906 C 667.984375 273.257812 683.863281 319.285156 692.027344 371.125 Z M 715.800781 485.578125 C 719.21875 484.976562 722.367188 483.710938 725.253906 481.789062 C 727.632812 480.292969 731.125 477.679688 731.300781 474.511719 C 731.328125 473.804688 731.253906 473.113281 731.078125 472.429688 C 730.902344 471.75 730.632812 471.105469 730.269531 470.5 C 729.910156 469.894531 729.46875 469.355469 728.949219 468.878906 C 728.429688 468.402344 727.855469 468.011719 727.222656 467.699219 C 725.371094 466.789062 721.789062 466.117188 720.175781 467.699219 C 719.167969 468.90625 718.308594 470.210938 717.597656 471.613281 C 716.886719 473.015625 716.339844 474.476562 715.960938 476.003906 C 715.582031 477.527344 715.378906 479.078125 715.351562 480.648438 C 715.328125 482.222656 715.476562 483.777344 715.800781 485.3125 Z M 715.800781 485.578125 " fill-opacity="1" fill-rule="evenodd"/><path fill="#ffcfdb" d="M 673.386719 374.03125 C 665.988281 327.066406 652.132812 285.96875 631.761719 251.039062 L 631.613281 251.242188 C 613.355469 275.34375 588.550781 292.515625 556.964844 289.199219 C 535.273438 286.878906 520.421875 269.824219 511.644531 251.214844 C 499.902344 226.46875 496.410156 195.441406 495.96875 168.464844 C 495.773438 162.730469 496.351562 157.074219 497.703125 151.496094 C 499.054688 145.921875 501.128906 140.625 503.921875 135.617188 C 403.621094 86.859375 284.96875 89.5 192.269531 151.203125 C 200.546875 168.289062 199.902344 189.128906 196.847656 207.417969 C 192.710938 232.015625 184.375 258.902344 166.90625 277.425781 C 164.980469 279.515625 162.925781 281.472656 160.75 283.300781 C 158.570312 285.128906 156.289062 286.8125 153.898438 288.355469 C 151.507812 289.894531 149.03125 291.277344 146.46875 292.503906 C 143.902344 293.734375 141.273438 294.792969 138.574219 295.6875 C 135.875 296.582031 133.132812 297.304688 130.339844 297.851562 C 127.550781 298.402344 124.738281 298.769531 121.902344 298.964844 C 119.066406 299.15625 116.230469 299.171875 113.390625 299.003906 C 110.550781 298.839844 107.734375 298.496094 104.941406 297.972656 C 97.65625 296.839844 90.625 294.820312 83.84375 291.917969 C 77.066406 289.015625 70.753906 285.320312 64.902344 280.832031 C 60.867188 287.703125 57.128906 294.734375 53.691406 301.925781 C 50.253906 309.117188 47.125 316.4375 44.308594 323.894531 C 41.492188 331.347656 38.996094 338.910156 36.820312 346.578125 C 34.644531 354.242188 32.796875 361.988281 31.28125 369.8125 C 29.761719 377.636719 28.578125 385.511719 27.726562 393.433594 C 26.875 401.359375 26.363281 409.304688 26.1875 417.273438 C 26.011719 425.242188 26.171875 433.203125 26.671875 441.15625 C 27.171875 449.109375 28.007812 457.027344 29.179688 464.910156 C 39.949219 542.933594 116.097656 595.714844 230.753906 610.890625 C 325.539062 623.425781 420.382812 614.648438 511.644531 594.570312 C 639.890625 566.359375 691.644531 490.246094 673.386719 374.03125 Z M 358.121094 415.128906 C 342.828125 420.761719 318.726562 430.800781 302.613281 425.34375 C 282.066406 418.296875 264.980469 403.855469 262.660156 381.105469 C 260.460938 359.910156 272.113281 339.714844 285.558594 324.277344 C 318.171875 286.878906 378.933594 282.269531 414.949219 317.289062 C 425.253906 327.300781 435.03125 339.832031 439.726562 353.804688 C 441.039062 350.421875 442.617188 347.164062 444.453125 344.03125 C 444.671875 343.660156 444.921875 343.3125 445.210938 342.988281 C 445.496094 342.667969 445.8125 342.375 446.15625 342.117188 C 446.5 341.855469 446.863281 341.632812 447.253906 341.441406 C 447.640625 341.253906 448.042969 341.105469 448.460938 340.996094 C 448.878906 340.886719 449.300781 340.820312 449.734375 340.792969 C 450.164062 340.769531 450.59375 340.785156 451.019531 340.84375 C 451.445312 340.902344 451.863281 341.003906 452.273438 341.144531 C 452.679688 341.285156 453.070312 341.464844 453.441406 341.679688 C 453.8125 341.898438 454.164062 342.148438 454.484375 342.4375 C 454.808594 342.722656 455.101562 343.035156 455.359375 343.378906 C 455.621094 343.722656 455.847656 344.089844 456.035156 344.476562 C 456.226562 344.863281 456.375 345.265625 456.484375 345.683594 C 456.59375 346.101562 456.664062 346.523438 456.691406 346.953125 C 456.714844 347.382812 456.699219 347.8125 456.644531 348.242188 C 456.585938 348.667969 456.488281 349.085938 456.347656 349.492188 C 456.207031 349.902344 456.027344 350.292969 455.8125 350.664062 C 454.464844 352.980469 453.285156 355.378906 452.273438 357.859375 C 451.265625 360.34375 450.429688 362.882812 449.777344 365.480469 C 449.121094 368.078125 448.652344 370.710938 448.367188 373.375 C 448.085938 376.039062 447.988281 378.710938 448.078125 381.386719 C 448.167969 384.066406 448.445312 386.722656 448.910156 389.363281 C 449.371094 392 450.019531 394.59375 450.847656 397.140625 C 451.675781 399.691406 452.675781 402.167969 453.851562 404.574219 C 455.027344 406.984375 456.367188 409.296875 457.867188 411.515625 C 458.109375 411.875 458.316406 412.253906 458.484375 412.648438 C 458.652344 413.046875 458.777344 413.457031 458.867188 413.882812 C 458.953125 414.304688 459 414.730469 459 415.164062 C 459.003906 415.597656 458.964844 416.023438 458.882812 416.449219 C 458.804688 416.875 458.679688 417.285156 458.519531 417.6875 C 458.355469 418.085938 458.15625 418.464844 457.917969 418.828125 C 457.683594 419.1875 457.410156 419.523438 457.109375 419.832031 C 456.804688 420.140625 456.476562 420.414062 456.117188 420.65625 C 455.761719 420.898438 455.382812 421.105469 454.984375 421.273438 C 454.585938 421.441406 454.175781 421.570312 453.753906 421.65625 C 453.332031 421.746094 452.902344 421.789062 452.472656 421.792969 C 452.039062 421.796875 451.609375 421.757812 451.1875 421.675781 C 450.761719 421.597656 450.347656 421.476562 449.949219 421.3125 C 449.546875 421.152344 449.167969 420.953125 448.808594 420.714844 C 448.445312 420.476562 448.109375 420.207031 447.804688 419.902344 C 447.496094 419.601562 447.21875 419.269531 446.976562 418.914062 C 441.804688 411.285156 438.269531 402.957031 436.378906 393.933594 C 434.640625 396.632812 432.691406 399.175781 430.535156 401.554688 C 428.378906 403.933594 426.042969 406.125 423.527344 408.121094 C 421.007812 410.117188 418.347656 411.894531 415.539062 413.457031 C 412.730469 415.015625 409.816406 416.335938 406.789062 417.417969 C 403.570312 418.542969 400.265625 419.308594 396.878906 419.714844 C 393.492188 420.121094 390.097656 420.160156 386.703125 419.832031 C 383.308594 419.503906 379.988281 418.8125 376.742188 417.761719 C 373.496094 416.710938 370.402344 415.324219 367.457031 413.601562 C 365.488281 412.894531 360.089844 414.453125 358.121094 415.15625 Z M 358.121094 415.128906 " fill-opacity="1" fill-rule="evenodd"/><path fill="#ffcfdb" d="M 53.835938 238.765625 C 66.222656 261.839844 85.65625 275.78125 107.90625 279.453125 C 143.980469 285.03125 169.050781 258.902344 178.179688 204.304688 C 184.726562 164.96875 173.453125 144.773438 149.121094 141.488281 C 127.835938 138.550781 103.589844 142.132812 78.171875 158.394531 C 46.203125 178.941406 37.074219 207.621094 53.835938 238.796875 Z M 53.835938 238.765625 " fill-opacity="1" fill-rule="evenodd"/><path fill="#ffcfdb" d="M 558.960938 270.382812 C 536.066406 267.945312 515.957031 234.21875 514.929688 168.140625 C 514.460938 138.785156 534.011719 126.546875 557.261719 131.125 C 579.480469 135.5 601.292969 141.691406 618.902344 154.609375 C 645.324219 173.953125 643.472656 204.21875 616.527344 239.734375 C 599.296875 262.515625 579.890625 272.523438 558.960938 270.292969 Z M 558.960938 270.382812 " fill-opacity="1" fill-rule="evenodd"/><path fill="#ffcfdb" d="M 269.558594 633.816406 C 288.210938 635.109375 306.859375 635.695312 325.507812 635.578125 C 324.519531 636.375 323.496094 637.128906 322.441406 637.835938 C 321.382812 638.542969 320.300781 639.203125 319.183594 639.8125 C 318.070312 640.425781 316.929688 640.984375 315.765625 641.496094 C 314.601562 642.003906 313.414062 642.460938 312.210938 642.867188 C 311.003906 643.269531 309.785156 643.621094 308.546875 643.917969 C 307.3125 644.210938 306.066406 644.453125 304.808594 644.636719 C 303.550781 644.824219 302.285156 644.953125 301.015625 645.023438 C 299.75 645.097656 298.476562 645.113281 297.207031 645.074219 C 295.9375 645.035156 294.671875 644.9375 293.410156 644.785156 C 292.148438 644.632812 290.894531 644.425781 289.648438 644.160156 C 288.40625 643.898438 287.175781 643.578125 285.960938 643.207031 C 284.746094 642.832031 283.550781 642.40625 282.375 641.925781 C 281.195312 641.445312 280.042969 640.917969 278.910156 640.335938 C 277.78125 639.753906 276.679688 639.121094 275.605469 638.441406 C 274.53125 637.761719 273.488281 637.035156 272.480469 636.261719 C 271.46875 635.492188 270.496094 634.675781 269.558594 633.816406 Z M 269.558594 633.816406 " fill-opacity="1" fill-rule="evenodd"/><path fill="#ffcfdb" d="M 458.777344 623.953125 C 439.140625 627.152344 419.414062 629.824219 399.628906 631.671875 C 400.140625 632.167969 400.667969 632.648438 401.210938 633.113281 C 401.75 633.582031 402.300781 634.03125 402.867188 634.464844 C 403.433594 634.898438 404.011719 635.320312 404.601562 635.722656 C 405.191406 636.125 405.789062 636.507812 406.402344 636.878906 C 407.011719 637.246094 407.632812 637.597656 408.261719 637.933594 C 408.894531 638.265625 409.53125 638.582031 410.179688 638.878906 C 410.828125 639.175781 411.484375 639.457031 412.148438 639.71875 C 412.8125 639.980469 413.484375 640.222656 414.160156 640.445312 C 414.839844 640.667969 415.523438 640.875 416.210938 641.058594 C 416.898438 641.246094 417.59375 641.410156 418.292969 641.558594 C 418.988281 641.703125 419.691406 641.828125 420.398438 641.9375 C 421.101562 642.042969 421.808594 642.132812 422.519531 642.199219 C 423.230469 642.265625 423.941406 642.3125 424.65625 642.339844 C 425.367188 642.367188 426.082031 642.375 426.792969 642.363281 C 427.507812 642.351562 428.21875 642.316406 428.933594 642.265625 C 429.644531 642.210938 430.351562 642.140625 431.058594 642.046875 C 431.769531 641.957031 432.472656 641.84375 433.171875 641.710938 C 433.875 641.578125 434.570312 641.429688 435.265625 641.257812 C 435.957031 641.085938 436.644531 640.894531 437.328125 640.6875 C 438.007812 640.476562 438.683594 640.25 439.351562 640 C 440.023438 639.753906 440.683594 639.488281 441.339844 639.203125 C 441.992188 638.917969 442.636719 638.617188 443.277344 638.296875 C 443.914062 637.976562 444.539062 637.636719 445.160156 637.28125 C 445.777344 636.925781 446.386719 636.550781 446.984375 636.160156 C 447.578125 635.773438 448.167969 635.367188 448.742188 634.941406 C 449.316406 634.519531 449.878906 634.082031 450.425781 633.625 C 450.976562 633.171875 451.515625 632.703125 452.039062 632.21875 C 452.5625 631.734375 453.070312 631.234375 453.566406 630.722656 C 454.0625 630.207031 454.542969 629.683594 455.011719 629.140625 C 455.476562 628.601562 455.925781 628.050781 456.363281 627.484375 C 456.796875 626.917969 457.214844 626.339844 457.617188 625.753906 C 458.023438 625.164062 458.40625 624.5625 458.777344 623.953125 Z M 458.777344 623.953125 " fill-opacity="1" fill-rule="evenodd"/><path fill="#000000" d="M 295.859375 552.445312 C 291.164062 559.578125 284.121094 564.1875 274.519531 561.984375 C 262.777344 559.257812 251.476562 546.28125 244.34375 537.125 C 244.035156 536.726562 243.769531 536.304688 243.546875 535.855469 C 243.320312 535.40625 243.140625 534.941406 243.007812 534.457031 C 242.875 533.972656 242.792969 533.480469 242.757812 532.980469 C 242.71875 532.480469 242.734375 531.980469 242.796875 531.484375 C 242.859375 530.988281 242.96875 530.5 243.125 530.023438 C 243.285156 529.546875 243.488281 529.089844 243.734375 528.65625 C 243.984375 528.21875 244.269531 527.8125 244.597656 527.429688 C 244.925781 527.050781 245.289062 526.707031 245.683594 526.398438 C 246.082031 526.09375 246.503906 525.824219 246.949219 525.601562 C 247.398438 525.375 247.863281 525.195312 248.347656 525.0625 C 248.832031 524.929688 249.324219 524.84375 249.824219 524.808594 C 250.324219 524.769531 250.824219 524.785156 251.320312 524.84375 C 251.820312 524.90625 252.308594 525.015625 252.785156 525.175781 C 253.257812 525.332031 253.714844 525.535156 254.152344 525.78125 C 254.589844 526.03125 254.996094 526.316406 255.375 526.644531 C 255.757812 526.972656 256.101562 527.335938 256.410156 527.730469 C 260.664062 533.21875 270.792969 545.34375 277.953125 547.074219 C 282.066406 548.015625 284.296875 542.320312 285.441406 539.355469 C 285.640625 538.839844 285.898438 538.355469 286.203125 537.894531 C 286.511719 537.4375 286.863281 537.015625 287.261719 536.636719 C 287.660156 536.253906 288.09375 535.917969 288.566406 535.628906 C 289.035156 535.339844 289.53125 535.105469 290.054688 534.925781 C 290.574219 534.742188 291.109375 534.621094 291.65625 534.554688 C 292.203125 534.488281 292.753906 534.484375 293.304688 534.535156 C 293.851562 534.589844 294.390625 534.699219 294.914062 534.867188 C 295.441406 535.039062 295.941406 535.261719 296.417969 535.539062 C 300.910156 538.179688 310.800781 543.316406 316.085938 540.117188 C 321.371094 536.917969 323.335938 523.882812 323.777344 518.042969 C 323.835938 517.558594 323.941406 517.082031 324.089844 516.617188 C 324.238281 516.152344 324.429688 515.707031 324.664062 515.277344 C 324.902344 514.851562 325.171875 514.449219 325.484375 514.070312 C 325.796875 513.695312 326.140625 513.351562 326.519531 513.042969 C 326.898438 512.734375 327.300781 512.460938 327.730469 512.230469 C 328.160156 511.996094 328.605469 511.804688 329.070312 511.660156 C 329.539062 511.511719 330.011719 511.410156 330.496094 511.351562 C 330.984375 511.296875 331.46875 511.285156 331.957031 511.324219 C 332.441406 511.359375 332.921875 511.441406 333.394531 511.570312 C 333.863281 511.699219 334.320312 511.871094 334.757812 512.085938 C 335.195312 512.300781 335.609375 512.554688 336 512.847656 C 336.390625 513.144531 336.75 513.472656 337.074219 513.835938 C 337.402344 514.199219 337.691406 514.589844 337.945312 515.007812 C 338.195312 515.425781 338.40625 515.863281 338.574219 516.320312 C 338.742188 516.78125 338.867188 517.25 338.945312 517.730469 C 339.023438 518.214844 339.054688 518.699219 339.042969 519.1875 C 338.132812 531.164062 335.167969 546.429688 324.011719 553.210938 C 315.207031 558.550781 304.871094 556.496094 295.859375 552.445312 Z M 421.554688 551.300781 C 412.367188 555.703125 401.683594 557.40625 394.550781 548.074219 C 386.710938 537.914062 388.414062 518.367188 389.910156 506.476562 C 389.972656 505.980469 390.082031 505.492188 390.238281 505.011719 C 390.398438 504.535156 390.597656 504.078125 390.847656 503.640625 C 391.09375 503.203125 391.382812 502.796875 391.710938 502.414062 C 392.039062 502.035156 392.398438 501.6875 392.796875 501.378906 C 393.191406 501.070312 393.613281 500.804688 394.0625 500.578125 C 394.511719 500.351562 394.976562 500.171875 395.460938 500.039062 C 395.945312 499.902344 396.441406 499.816406 396.941406 499.78125 C 397.441406 499.742188 397.941406 499.757812 398.441406 499.816406 C 398.9375 499.878906 399.425781 499.988281 399.902344 500.148438 C 400.382812 500.304688 400.839844 500.507812 401.273438 500.757812 C 401.710938 501.003906 402.121094 501.292969 402.5 501.621094 C 402.882812 501.949219 403.226562 502.3125 403.535156 502.710938 C 403.84375 503.105469 404.109375 503.527344 404.335938 503.976562 C 404.5625 504.425781 404.738281 504.894531 404.875 505.378906 C 405.007812 505.863281 405.089844 506.355469 405.128906 506.855469 C 405.164062 507.359375 405.152344 507.859375 405.089844 508.355469 C 404.296875 514.695312 402.417969 533.25 406.671875 538.765625 C 408.875 541.703125 417.652344 536.15625 419.53125 534.949219 C 419.945312 534.6875 420.386719 534.464844 420.84375 534.285156 C 421.304688 534.105469 421.777344 533.96875 422.261719 533.882812 C 422.746094 533.792969 423.238281 533.753906 423.730469 533.757812 C 424.222656 533.765625 424.710938 533.816406 425.195312 533.917969 C 425.679688 534.019531 426.148438 534.164062 426.601562 534.355469 C 427.058594 534.546875 427.492188 534.777344 427.902344 535.054688 C 428.3125 535.328125 428.691406 535.640625 429.039062 535.988281 C 429.390625 536.335938 429.703125 536.714844 429.980469 537.125 C 441.722656 554.53125 453.171875 550.507812 466.820312 537.125 C 467.175781 536.769531 467.566406 536.457031 467.984375 536.179688 C 468.40625 535.90625 468.847656 535.671875 469.3125 535.484375 C 469.777344 535.296875 470.257812 535.152344 470.75 535.058594 C 471.242188 534.964844 471.738281 534.917969 472.242188 534.921875 C 472.742188 534.925781 473.238281 534.980469 473.730469 535.082031 C 474.222656 535.183594 474.699219 535.332031 475.164062 535.527344 C 475.625 535.722656 476.0625 535.960938 476.476562 536.246094 C 476.894531 536.527344 477.277344 536.847656 477.628906 537.203125 C 477.980469 537.5625 478.292969 537.953125 478.570312 538.371094 C 478.84375 538.789062 479.078125 539.234375 479.265625 539.699219 C 479.453125 540.164062 479.59375 540.644531 479.6875 541.136719 C 479.78125 541.628906 479.828125 542.128906 479.820312 542.628906 C 479.816406 543.132812 479.765625 543.628906 479.664062 544.117188 C 479.558594 544.609375 479.410156 545.085938 479.214844 545.550781 C 479.019531 546.011719 478.777344 546.449219 478.496094 546.863281 C 478.214844 547.277344 477.890625 547.660156 477.535156 548.015625 C 458.660156 566.59375 438.171875 570.820312 421.554688 551.359375 Z M 421.554688 551.300781 " fill-opacity="1" fill-rule="evenodd"/><path fill="#fc8c8a" d="M 351.605469 397.367188 C 331.058594 404.96875 316.378906 409.988281 308.6875 407.40625 C 274.550781 395.664062 273.171875 367.222656 299.882812 336.664062 C 325.65625 307.132812 373.707031 303.492188 401.828125 330.792969 C 431.417969 359.589844 431.359375 387.328125 399.890625 399.746094 C 398.074219 400.308594 396.214844 400.6875 394.320312 400.882812 C 392.425781 401.078125 390.527344 401.089844 388.632812 400.910156 C 386.734375 400.730469 384.875 400.367188 383.050781 399.820312 C 381.226562 399.273438 379.472656 398.554688 377.789062 397.660156 C 371.214844 393.289062 361.527344 393.699219 351.664062 397.339844 Z M 324.597656 352.835938 C 325.203125 352.738281 325.8125 352.703125 326.425781 352.730469 C 327.039062 352.757812 327.640625 352.84375 328.238281 352.996094 C 328.832031 353.144531 329.40625 353.351562 329.957031 353.621094 C 330.507812 353.886719 331.027344 354.207031 331.515625 354.578125 C 332.003906 354.953125 332.445312 355.371094 332.847656 355.832031 C 333.25 356.296875 333.601562 356.796875 333.898438 357.332031 C 334.199219 357.867188 334.441406 358.425781 334.628906 359.011719 C 334.8125 359.59375 334.9375 360.191406 335 360.804688 C 335.0625 361.414062 335.066406 362.023438 335.003906 362.632812 C 334.941406 363.242188 334.820312 363.839844 334.636719 364.425781 C 334.453125 365.011719 334.214844 365.570312 333.914062 366.109375 C 333.617188 366.644531 333.269531 367.144531 332.871094 367.609375 C 332.46875 368.074219 332.027344 368.496094 331.542969 368.871094 C 331.054688 369.242188 330.539062 369.566406 329.984375 369.835938 C 329.433594 370.101562 328.863281 370.3125 328.269531 370.464844 C 327.675781 370.617188 327.070312 370.707031 326.457031 370.734375 C 325.84375 370.765625 325.234375 370.730469 324.628906 370.636719 C 324.023438 370.539062 323.433594 370.382812 322.859375 370.167969 C 322.285156 369.953125 321.742188 369.679688 321.222656 369.351562 C 320.703125 369.023438 320.222656 368.648438 319.78125 368.222656 C 319.339844 367.796875 318.945312 367.332031 318.601562 366.824219 C 318.253906 366.320312 317.960938 365.78125 317.726562 365.21875 C 317.488281 364.652344 317.3125 364.066406 317.191406 363.464844 C 317.074219 362.863281 317.019531 362.257812 317.027344 361.644531 C 316.988281 361.105469 317.003906 360.570312 317.074219 360.039062 C 317.140625 359.503906 317.261719 358.980469 317.429688 358.472656 C 317.601562 357.960938 317.820312 357.472656 318.082031 357.003906 C 318.347656 356.535156 318.65625 356.097656 319.007812 355.691406 C 319.359375 355.28125 319.746094 354.910156 320.167969 354.578125 C 320.59375 354.246094 321.042969 353.957031 321.523438 353.714844 C 322.003906 353.46875 322.5 353.273438 323.019531 353.125 C 323.535156 352.976562 324.0625 352.882812 324.597656 352.835938 Z M 380.371094 348.84375 C 380.976562 348.746094 381.585938 348.710938 382.199219 348.738281 C 382.8125 348.765625 383.414062 348.851562 384.011719 349.003906 C 384.605469 349.152344 385.179688 349.359375 385.730469 349.628906 C 386.28125 349.894531 386.800781 350.214844 387.289062 350.585938 C 387.777344 350.960938 388.21875 351.378906 388.621094 351.839844 C 389.023438 352.304688 389.375 352.804688 389.671875 353.339844 C 389.972656 353.875 390.214844 354.433594 390.398438 355.019531 C 390.585938 355.601562 390.710938 356.199219 390.773438 356.8125 C 390.835938 357.421875 390.835938 358.03125 390.777344 358.640625 C 390.714844 359.25 390.59375 359.847656 390.410156 360.433594 C 390.226562 361.019531 389.984375 361.578125 389.6875 362.117188 C 389.390625 362.652344 389.042969 363.152344 388.640625 363.617188 C 388.242188 364.082031 387.800781 364.503906 387.3125 364.875 C 386.828125 365.25 386.308594 365.574219 385.757812 365.84375 C 385.207031 366.109375 384.636719 366.320312 384.039062 366.472656 C 383.445312 366.625 382.84375 366.714844 382.230469 366.742188 C 381.617188 366.773438 381.007812 366.738281 380.402344 366.644531 C 379.796875 366.546875 379.207031 366.390625 378.632812 366.175781 C 378.058594 365.960938 377.515625 365.6875 376.996094 365.359375 C 376.476562 365.03125 375.996094 364.65625 375.554688 364.230469 C 375.113281 363.804688 374.71875 363.339844 374.375 362.832031 C 374.027344 362.328125 373.734375 361.789062 373.5 361.226562 C 373.261719 360.660156 373.082031 360.074219 372.964844 359.472656 C 372.847656 358.871094 372.792969 358.265625 372.796875 357.652344 C 372.761719 357.117188 372.777344 356.585938 372.84375 356.054688 C 372.910156 355.523438 373.027344 355 373.195312 354.492188 C 373.359375 353.984375 373.574219 353.496094 373.835938 353.027344 C 374.097656 352.5625 374.402344 352.125 374.746094 351.714844 C 375.09375 351.304688 375.476562 350.933594 375.894531 350.601562 C 376.3125 350.265625 376.757812 349.972656 377.234375 349.726562 C 377.707031 349.476562 378.203125 349.277344 378.714844 349.125 C 379.226562 348.96875 379.75 348.867188 380.285156 348.816406 Z M 380.371094 348.84375 " fill-opacity="1" fill-rule="evenodd"/><path fill="#000000" d="M 251.707031 295.019531 C 252.28125 295.261719 252.84375 295.539062 253.386719 295.847656 C 253.933594 296.152344 254.460938 296.492188 254.96875 296.863281 C 255.476562 297.234375 255.964844 297.632812 256.433594 298.0625 C 256.902344 298.492188 257.347656 298.945312 257.769531 299.429688 C 258.195312 299.914062 258.59375 300.421875 258.964844 300.957031 C 259.339844 301.488281 259.683594 302.046875 260.003906 302.625 C 260.324219 303.203125 260.617188 303.800781 260.882812 304.417969 C 261.144531 305.035156 261.378906 305.667969 261.585938 306.320312 C 261.789062 306.972656 261.964844 307.636719 262.109375 308.3125 C 262.253906 308.992188 262.367188 309.679688 262.449219 310.378906 C 262.53125 311.074219 262.582031 311.78125 262.605469 312.492188 C 262.625 313.207031 262.609375 313.921875 262.566406 314.640625 C 262.523438 315.359375 262.449219 316.078125 262.34375 316.796875 C 262.238281 317.515625 262.101562 318.230469 261.933594 318.945312 C 261.765625 319.65625 261.566406 320.359375 261.339844 321.058594 C 261.113281 321.757812 260.855469 322.445312 260.570312 323.125 C 260.285156 323.800781 259.96875 324.464844 259.628906 325.117188 C 259.289062 325.765625 258.921875 326.402344 258.53125 327.019531 C 258.136719 327.636719 257.722656 328.234375 257.28125 328.8125 C 256.839844 329.390625 256.378906 329.945312 255.894531 330.476562 C 255.410156 331.011719 254.90625 331.519531 254.382812 332.003906 C 253.859375 332.488281 253.320312 332.941406 252.761719 333.371094 C 252.203125 333.800781 251.632812 334.199219 251.046875 334.570312 C 250.460938 334.9375 249.863281 335.277344 249.253906 335.585938 C 248.644531 335.894531 248.027344 336.167969 247.398438 336.410156 C 246.773438 336.652344 246.140625 336.863281 245.503906 337.035156 C 244.867188 337.210938 244.226562 337.351562 243.585938 337.457031 C 242.941406 337.5625 242.300781 337.632812 241.660156 337.667969 C 241.015625 337.703125 240.378906 337.703125 239.746094 337.667969 C 239.113281 337.632812 238.484375 337.5625 237.863281 337.457031 C 237.242188 337.351562 236.632812 337.210938 236.03125 337.035156 C 235.429688 336.859375 234.84375 336.648438 234.265625 336.40625 C 233.691406 336.164062 233.128906 335.890625 232.585938 335.582031 C 232.039062 335.273438 231.511719 334.933594 231.003906 334.566406 C 230.496094 334.195312 230.003906 333.792969 229.539062 333.367188 C 229.070312 332.9375 228.625 332.480469 228.199219 331.996094 C 227.777344 331.511719 227.378906 331.003906 227.007812 330.472656 C 226.632812 329.9375 226.289062 329.382812 225.96875 328.804688 C 225.648438 328.226562 225.355469 327.628906 225.089844 327.011719 C 224.828125 326.390625 224.59375 325.757812 224.386719 325.105469 C 224.183594 324.457031 224.007812 323.792969 223.863281 323.113281 C 223.71875 322.4375 223.605469 321.75 223.523438 321.050781 C 223.4375 320.351562 223.386719 319.648438 223.367188 318.933594 C 223.347656 318.222656 223.359375 317.507812 223.40625 316.789062 C 223.449219 316.070312 223.523438 315.351562 223.628906 314.628906 C 223.734375 313.910156 223.871094 313.195312 224.039062 312.484375 C 224.207031 311.773438 224.40625 311.066406 224.632812 310.367188 C 224.859375 309.671875 225.117188 308.980469 225.402344 308.304688 C 225.6875 307.625 226.003906 306.960938 226.34375 306.3125 C 226.683594 305.660156 227.050781 305.027344 227.441406 304.410156 C 227.835938 303.792969 228.25 303.195312 228.691406 302.617188 C 229.132812 302.039062 229.59375 301.484375 230.078125 300.949219 C 230.5625 300.417969 231.066406 299.90625 231.589844 299.425781 C 232.113281 298.941406 232.652344 298.484375 233.210938 298.054688 C 233.769531 297.628906 234.339844 297.226562 234.925781 296.859375 C 235.511719 296.488281 236.109375 296.148438 236.71875 295.84375 C 237.328125 295.535156 237.945312 295.257812 238.574219 295.015625 C 239.199219 294.773438 239.832031 294.566406 240.46875 294.390625 C 241.105469 294.214844 241.746094 294.078125 242.386719 293.972656 C 243.03125 293.867188 243.671875 293.796875 244.3125 293.761719 C 244.957031 293.726562 245.59375 293.726562 246.226562 293.761719 C 246.859375 293.796875 247.488281 293.867188 248.109375 293.972656 C 248.730469 294.078125 249.339844 294.21875 249.941406 294.394531 C 250.542969 294.570312 251.128906 294.777344 251.707031 295.019531 Z M 251.707031 295.019531 " fill-opacity="1" fill-rule="nonzero"/><path fill="#000000" d="M 486.746094 297.515625 C 487.03125 298.191406 487.285156 298.878906 487.515625 299.578125 C 487.742188 300.277344 487.941406 300.980469 488.109375 301.695312 C 488.273438 302.40625 488.414062 303.121094 488.519531 303.839844 C 488.625 304.558594 488.699219 305.277344 488.742188 305.996094 C 488.785156 306.714844 488.796875 307.433594 488.777344 308.144531 C 488.757812 308.855469 488.707031 309.5625 488.625 310.261719 C 488.542969 310.957031 488.429688 311.648438 488.285156 312.324219 C 488.140625 313.003906 487.964844 313.667969 487.761719 314.316406 C 487.554688 314.96875 487.320312 315.601562 487.054688 316.21875 C 486.792969 316.835938 486.5 317.433594 486.179688 318.015625 C 485.859375 318.59375 485.511719 319.148438 485.140625 319.679688 C 484.765625 320.214844 484.367188 320.722656 483.945312 321.207031 C 483.523438 321.691406 483.078125 322.148438 482.609375 322.574219 C 482.140625 323.003906 481.652344 323.402344 481.144531 323.773438 C 480.636719 324.144531 480.109375 324.484375 479.5625 324.792969 C 479.019531 325.101562 478.457031 325.375 477.882812 325.617188 C 477.304688 325.859375 476.71875 326.070312 476.117188 326.246094 C 475.515625 326.417969 474.902344 326.558594 474.285156 326.664062 C 473.664062 326.769531 473.035156 326.84375 472.402344 326.878906 C 471.769531 326.914062 471.128906 326.914062 470.488281 326.878906 C 469.847656 326.84375 469.207031 326.773438 468.5625 326.667969 C 467.921875 326.5625 467.28125 326.421875 466.644531 326.246094 C 466.003906 326.070312 465.375 325.863281 464.746094 325.621094 C 464.121094 325.378906 463.503906 325.101562 462.894531 324.796875 C 462.285156 324.488281 461.6875 324.148438 461.101562 323.777344 C 460.515625 323.410156 459.945312 323.011719 459.386719 322.582031 C 458.828125 322.152344 458.289062 321.695312 457.765625 321.214844 C 457.242188 320.730469 456.738281 320.222656 456.253906 319.6875 C 455.769531 319.15625 455.308594 318.597656 454.867188 318.019531 C 454.425781 317.441406 454.011719 316.84375 453.617188 316.226562 C 453.226562 315.609375 452.859375 314.976562 452.519531 314.324219 C 452.175781 313.675781 451.863281 313.011719 451.578125 312.332031 C 451.292969 311.65625 451.035156 310.96875 450.808594 310.269531 C 450.582031 309.570312 450.382812 308.867188 450.214844 308.152344 C 450.046875 307.441406 449.910156 306.726562 449.804688 306.007812 C 449.699219 305.289062 449.625 304.570312 449.578125 303.851562 C 449.535156 303.132812 449.523438 302.414062 449.542969 301.703125 C 449.5625 300.992188 449.613281 300.285156 449.695312 299.585938 C 449.78125 298.890625 449.894531 298.203125 450.039062 297.523438 C 450.183594 296.84375 450.355469 296.179688 450.5625 295.53125 C 450.765625 294.878906 451.003906 294.246094 451.265625 293.628906 C 451.53125 293.011719 451.820312 292.414062 452.140625 291.835938 C 452.460938 291.253906 452.808594 290.699219 453.183594 290.167969 C 453.554688 289.632812 453.953125 289.125 454.375 288.640625 C 454.800781 288.15625 455.246094 287.699219 455.710938 287.273438 C 456.179688 286.84375 456.667969 286.445312 457.179688 286.074219 C 457.6875 285.703125 458.214844 285.363281 458.761719 285.054688 C 459.304688 284.75 459.867188 284.472656 460.441406 284.230469 C 461.015625 283.988281 461.605469 283.777344 462.207031 283.605469 C 462.808594 283.429688 463.417969 283.289062 464.039062 283.183594 C 464.660156 283.078125 465.285156 283.007812 465.921875 282.96875 C 466.554688 282.933594 467.191406 282.933594 467.832031 282.96875 C 468.476562 283.003906 469.117188 283.074219 469.757812 283.179688 C 470.402344 283.285156 471.042969 283.425781 471.679688 283.601562 C 472.316406 283.777344 472.949219 283.984375 473.574219 284.226562 C 474.203125 284.46875 474.820312 284.746094 475.429688 285.050781 C 476.039062 285.359375 476.636719 285.699219 477.222656 286.070312 C 477.808594 286.4375 478.378906 286.835938 478.9375 287.265625 C 479.492188 287.695312 480.035156 288.152344 480.558594 288.632812 C 481.082031 289.117188 481.585938 289.625 482.070312 290.160156 C 482.554688 290.691406 483.015625 291.25 483.457031 291.828125 C 483.894531 292.40625 484.3125 293.003906 484.707031 293.621094 C 485.097656 294.238281 485.464844 294.871094 485.804688 295.523438 C 486.144531 296.171875 486.457031 296.835938 486.746094 297.515625 Z M 486.746094 297.515625 " fill-opacity="1" fill-rule="nonzero"/><path fill="#ffbaab" d="M 252.152344 380.429688 C 252.152344 381.773438 252.078125 383.113281 251.925781 384.445312 C 251.777344 385.78125 251.554688 387.109375 251.253906 388.425781 C 250.957031 389.742188 250.585938 391.042969 250.140625 392.324219 C 249.695312 393.609375 249.179688 394.871094 248.59375 396.113281 C 248.007812 397.351562 247.355469 398.5625 246.632812 399.746094 C 245.914062 400.929688 245.128906 402.082031 244.277344 403.195312 C 243.425781 404.3125 242.515625 405.390625 241.546875 406.425781 C 240.574219 407.464844 239.546875 408.457031 238.464844 409.40625 C 237.382812 410.355469 236.25 411.257812 235.066406 412.105469 C 233.882812 412.957031 232.65625 413.757812 231.382812 414.503906 C 230.109375 415.25 228.800781 415.9375 227.449219 416.570312 C 226.101562 417.203125 224.71875 417.777344 223.304688 418.289062 C 221.890625 418.804688 220.449219 419.253906 218.984375 419.644531 C 217.523438 420.035156 216.039062 420.359375 214.539062 420.621094 C 213.035156 420.882812 211.523438 421.082031 210 421.210938 C 208.476562 421.34375 206.953125 421.410156 205.421875 421.410156 C 203.890625 421.410156 202.363281 421.34375 200.839844 421.210938 C 199.316406 421.082031 197.804688 420.882812 196.304688 420.621094 C 194.800781 420.359375 193.320312 420.035156 191.855469 419.644531 C 190.390625 419.253906 188.953125 418.804688 187.539062 418.289062 C 186.125 417.777344 184.742188 417.203125 183.390625 416.570312 C 182.042969 415.9375 180.730469 415.25 179.457031 414.503906 C 178.183594 413.757812 176.957031 412.957031 175.773438 412.105469 C 174.589844 411.257812 173.457031 410.355469 172.375 409.40625 C 171.292969 408.457031 170.265625 407.464844 169.296875 406.425781 C 168.324219 405.390625 167.414062 404.3125 166.566406 403.195312 C 165.714844 402.082031 164.929688 400.929688 164.207031 399.746094 C 163.484375 398.5625 162.832031 397.351562 162.246094 396.113281 C 161.660156 394.871094 161.144531 393.609375 160.699219 392.324219 C 160.257812 391.042969 159.886719 389.742188 159.585938 388.425781 C 159.289062 387.109375 159.0625 385.78125 158.914062 384.445312 C 158.765625 383.113281 158.6875 381.773438 158.6875 380.429688 C 158.6875 379.089844 158.765625 377.75 158.914062 376.414062 C 159.0625 375.078125 159.289062 373.753906 159.585938 372.4375 C 159.886719 371.121094 160.257812 369.820312 160.699219 368.535156 C 161.144531 367.25 161.660156 365.988281 162.246094 364.75 C 162.832031 363.507812 163.484375 362.296875 164.207031 361.113281 C 164.929688 359.929688 165.714844 358.78125 166.566406 357.664062 C 167.414062 356.546875 168.324219 355.472656 169.296875 354.433594 C 170.265625 353.398438 171.292969 352.402344 172.375 351.453125 C 173.457031 350.503906 174.589844 349.605469 175.773438 348.753906 C 176.957031 347.902344 178.183594 347.105469 179.457031 346.359375 C 180.730469 345.613281 182.042969 344.921875 183.390625 344.289062 C 184.742188 343.65625 186.125 343.085938 187.539062 342.570312 C 188.953125 342.058594 190.390625 341.605469 191.855469 341.214844 C 193.320312 340.828125 194.800781 340.5 196.304688 340.238281 C 197.804688 339.976562 199.316406 339.78125 200.839844 339.648438 C 202.363281 339.519531 203.890625 339.453125 205.421875 339.453125 C 206.953125 339.453125 208.476562 339.519531 210 339.648438 C 211.523438 339.78125 213.035156 339.976562 214.539062 340.238281 C 216.039062 340.5 217.523438 340.828125 218.984375 341.214844 C 220.449219 341.605469 221.890625 342.058594 223.304688 342.570312 C 224.71875 343.085938 226.101562 343.65625 227.449219 344.289062 C 228.800781 344.921875 230.109375 345.613281 231.382812 346.359375 C 232.65625 347.105469 233.882812 347.902344 235.066406 348.753906 C 236.25 349.605469 237.382812 350.503906 238.464844 351.453125 C 239.546875 352.402344 240.574219 353.398438 241.546875 354.433594 C 242.515625 355.472656 243.425781 356.546875 244.277344 357.664062 C 245.128906 358.78125 245.914062 359.929688 246.632812 361.113281 C 247.355469 362.296875 248.007812 363.507812 248.59375 364.75 C 249.179688 365.988281 249.695312 367.25 250.140625 368.535156 C 250.585938 369.820312 250.957031 371.121094 251.253906 372.4375 C 251.554688 373.753906 251.777344 375.078125 251.925781 376.414062 C 252.078125 377.75 252.152344 379.089844 252.152344 380.429688 Z M 252.152344 380.429688 " fill-opacity="1" fill-rule="nonzero"/><path fill="#ffbaab" d="M 568.386719 372.125 C 568.386719 373.464844 568.308594 374.804688 568.160156 376.140625 C 568.011719 377.476562 567.785156 378.800781 567.488281 380.117188 C 567.1875 381.433594 566.816406 382.734375 566.375 384.019531 C 565.929688 385.304688 565.414062 386.566406 564.828125 387.804688 C 564.242188 389.046875 563.589844 390.257812 562.867188 391.441406 C 562.144531 392.625 561.359375 393.773438 560.507812 394.890625 C 559.660156 396.003906 558.75 397.082031 557.777344 398.121094 C 556.808594 399.15625 555.78125 400.152344 554.699219 401.097656 C 553.617188 402.046875 552.484375 402.949219 551.300781 403.800781 C 550.117188 404.652344 548.890625 405.449219 547.617188 406.195312 C 546.34375 406.941406 545.03125 407.628906 543.683594 408.261719 C 542.332031 408.894531 540.949219 409.46875 539.535156 409.980469 C 538.121094 410.496094 536.683594 410.949219 535.21875 411.335938 C 533.753906 411.726562 532.273438 412.050781 530.769531 412.3125 C 529.269531 412.578125 527.757812 412.773438 526.234375 412.90625 C 524.710938 413.035156 523.183594 413.101562 521.652344 413.101562 C 520.125 413.101562 518.597656 413.035156 517.074219 412.90625 C 515.550781 412.773438 514.039062 412.578125 512.535156 412.3125 C 511.035156 412.050781 509.550781 411.726562 508.089844 411.335938 C 506.625 410.949219 505.183594 410.496094 503.769531 409.984375 C 502.355469 409.46875 500.972656 408.894531 499.625 408.261719 C 498.273438 407.628906 496.964844 406.941406 495.691406 406.195312 C 494.417969 405.449219 493.191406 404.652344 492.007812 403.800781 C 490.824219 402.949219 489.691406 402.046875 488.609375 401.097656 C 487.527344 400.152344 486.5 399.15625 485.53125 398.121094 C 484.558594 397.082031 483.648438 396.003906 482.796875 394.890625 C 481.945312 393.773438 481.160156 392.625 480.441406 391.441406 C 479.71875 390.257812 479.066406 389.046875 478.480469 387.804688 C 477.894531 386.566406 477.378906 385.304688 476.933594 384.019531 C 476.488281 382.734375 476.117188 381.433594 475.820312 380.117188 C 475.519531 378.800781 475.296875 377.476562 475.148438 376.140625 C 474.996094 374.804688 474.921875 373.464844 474.921875 372.125 C 474.921875 370.78125 474.996094 369.441406 475.148438 368.105469 C 475.296875 366.769531 475.519531 365.445312 475.820312 364.128906 C 476.117188 362.8125 476.488281 361.511719 476.933594 360.226562 C 477.378906 358.945312 477.894531 357.679688 478.480469 356.441406 C 479.066406 355.203125 479.71875 353.988281 480.441406 352.804688 C 481.160156 351.621094 481.945312 350.472656 482.796875 349.355469 C 483.648438 348.242188 484.558594 347.164062 485.53125 346.125 C 486.5 345.089844 487.527344 344.097656 488.609375 343.148438 C 489.691406 342.199219 490.824219 341.296875 492.007812 340.445312 C 493.191406 339.59375 494.417969 338.796875 495.691406 338.050781 C 496.964844 337.304688 498.273438 336.617188 499.625 335.984375 C 500.972656 335.351562 502.355469 334.777344 503.769531 334.265625 C 505.183594 333.75 506.625 333.300781 508.089844 332.910156 C 509.550781 332.519531 511.035156 332.195312 512.535156 331.933594 C 514.039062 331.671875 515.550781 331.472656 517.074219 331.34375 C 518.597656 331.210938 520.125 331.144531 521.652344 331.144531 C 523.183594 331.144531 524.710938 331.210938 526.234375 331.34375 C 527.757812 331.472656 529.269531 331.671875 530.769531 331.933594 C 532.273438 332.195312 533.753906 332.519531 535.21875 332.910156 C 536.683594 333.300781 538.125 333.75 539.535156 334.265625 C 540.949219 334.777344 542.332031 335.351562 543.683594 335.984375 C 545.03125 336.617188 546.34375 337.304688 547.617188 338.050781 C 548.890625 338.796875 550.117188 339.59375 551.300781 340.445312 C 552.484375 341.296875 553.617188 342.199219 554.699219 343.148438 C 555.78125 344.097656 556.808594 345.089844 557.777344 346.125 C 558.75 347.164062 559.660156 348.242188 560.507812 349.355469 C 561.359375 350.472656 562.144531 351.621094 562.867188 352.804688 C 563.589844 353.988281 564.242188 355.203125 564.828125 356.441406 C 565.414062 357.679688 565.929688 358.945312 566.375 360.226562 C 566.816406 361.511719 567.1875 362.8125 567.488281 364.128906 C 567.785156 365.445312 568.011719 366.769531 568.160156 368.105469 C 568.308594 369.441406 568.386719 370.78125 568.386719 372.125 Z M 568.386719 372.125 " fill-opacity="1" fill-rule="nonzero"/></svg>