<svg xmlns="http://www.w3.org/2000/svg" xmlns:xlink="http://www.w3.org/1999/xlink" width="1000" zoomAndPan="magnify" viewBox="0 0 750 749.999995" height="1000" preserveAspectRatio="xMidYMid meet" version="1.0"><defs><clipPath id="caab392c06"><path d="M 43.125 0 L 706.875 0 L 706.875 750 L 43.125 750 Z M 43.125 0 " clip-rule="nonzero"/></clipPath><clipPath id="28c0b24d08"><path d="M 43.125 0 L 706.875 0 L 706.875 750 L 43.125 750 Z M 43.125 0 " clip-rule="nonzero"/></clipPath></defs><g clip-path="url(#caab392c06)"><path stroke-linecap="butt" transform="matrix(0.75, 0, 0, 0.75, 43.125001, 0.00002)" fill="none" stroke-linejoin="miter" d="M 323.901036 576.744756 C 309.026036 650.781213 298.520828 703.927046 292.385411 736.177045 C 286.906245 765.031212 282.156245 793.671836 278.135412 822.104127 C 274.854162 845.37496 273.739578 865.260377 274.79687 881.760377 C 278.687495 942.411417 318.411453 979.203083 374.94791 992.458292 C 394.234368 996.973916 413.661451 999.18225 433.234368 999.093708 C 507.34895 998.739541 583.270824 975.505167 595.015615 891.09371 C 599.661448 857.692669 593.78124 823.348919 586.567699 791.88017 C 579.854157 762.510378 574.078116 734.458295 569.244782 707.703088 C 561.437491 664.442672 556.854157 621.020797 555.484366 577.437465 C 555.463532 576.994756 555.802074 576.614548 556.244782 576.583298 C 591.53124 573.036423 625.765615 567.833298 658.942698 560.963506 C 704.218739 551.583298 745.348946 540.213507 785.916654 523.51559 C 804.807279 515.739549 822.67707 506.281216 839.526028 495.140591 C 847.156236 490.093716 854.447903 484.031216 861.390611 476.958299 C 872.182278 465.984341 878.598944 455.046841 881.682277 440.546842 C 883.088527 433.911425 883.854152 429.312467 883.984361 426.755175 C 885.442694 398.161426 883.937486 369.421843 879.453111 340.546843 C 868.312486 268.781219 835.578112 201.583304 787.145821 147.895804 C 704.984364 56.838514 586.880199 7.26039 465.031242 1.458307 C 352.015619 -3.932318 237.338537 30.057265 148.661455 100.145805 C 124.666664 119.109347 103.843748 139.484346 86.18229 161.270804 C 24.192707 237.755178 -4.161459 325.937468 1.124999 425.822883 C 2.874999 459.041633 21.343749 480.208299 48.473957 497.369757 C 66.385415 508.677049 85.187498 518.07809 104.874998 525.557257 C 123.401039 532.604132 137.265622 537.526007 146.479164 540.32809 C 202.468746 557.395798 263.994787 568.781215 323.041661 575.57809 C 323.583328 575.64059 323.979161 576.130173 323.916661 576.666631 C 323.911453 576.692673 323.906244 576.718715 323.901036 576.744756 " stroke="#848383" stroke-width="2" stroke-opacity="1" stroke-miterlimit="4"/></g><path stroke-linecap="butt" transform="matrix(0.75, 0, 0, 0.75, 43.125001, 0.00002)" fill="none" stroke-linejoin="miter" d="M 327.124994 554.067673 C 319.749994 552.593715 313.687494 551.541632 308.927078 550.92184 C 305.583328 550.489548 303.468745 550.072882 302.588536 549.692673 C 302.333328 549.572882 302.052078 549.499965 301.770828 549.479132 L 290.85937 548.79684 C 290.770828 548.79684 290.682286 548.786423 290.604161 548.76559 C 280.619787 546.223923 265.963537 544.744757 253.098954 541.526007 C 243.583329 539.135382 233.833329 537.82809 224.953121 535.338507 C 214.791663 532.48434 201.572913 528.687465 185.291663 523.937465 C 170.624997 519.651007 154.979164 513.041632 142.86458 507.520799 C 135.645831 504.229132 127.218747 499.578091 117.604164 493.567674 C 103.796873 484.942674 84.135415 467.11455 86.786456 448.812466 C 89.833331 427.968717 105.947914 416.557259 125.083331 406.390592 C 130.067706 403.749967 137.203122 400.640592 146.473955 397.067676 C 153.859372 394.218717 161.23958 391.744759 168.619788 389.661426 C 199.671871 380.901009 228.390621 374.583301 254.786454 370.703093 C 285.531245 366.182259 315.567703 362.890593 344.895827 360.833301 C 361.619785 359.656218 375.843744 358.817676 387.567702 358.322885 C 478.718742 354.479135 568.281241 359.510385 657.239573 375.802051 C 676.963531 379.427051 695.770822 383.916634 713.677072 389.265592 C 738.223946 396.609342 759.390613 403.666634 777.890612 417.197884 C 800.447904 433.687467 807.380195 460.124966 784.437487 480.505174 C 775.583321 488.369758 766.010404 495.255174 755.729154 501.151007 C 750.223946 504.328091 745.489571 505.755174 739.906238 508.531216 C 736.83853 510.062466 732.83853 511.802049 727.911446 513.755174 C 713.822905 519.322882 699.312489 524.312465 684.380197 528.70309 C 672.255197 532.286424 654.963531 536.562465 632.49999 541.54684 C 618.567698 544.635382 605.911448 546.906215 594.520824 548.35934 C 587.369782 549.276007 581.046865 550.23434 575.552074 551.223923 C 570.671866 552.098923 564.307282 553.036423 556.442699 554.010382 C 556.135407 554.04684 555.901032 554.302048 555.895824 554.604132 L 555.880199 554.989548 C 555.859366 555.64059 556.364574 556.177048 557.005199 556.197882 C 557.052074 556.197882 557.109366 556.197882 557.156241 556.192673 C 569.249991 554.994757 578.265615 553.98434 584.203115 553.151007 C 603.817698 550.416632 615.68749 548.588507 619.81249 547.656215 C 630.380198 545.281215 643.416656 544.005173 653.890614 541.604132 C 683.499989 534.776007 704.083322 529.697882 715.640613 526.364549 C 738.239571 519.82809 762.437488 511.281216 788.223946 500.713507 C 803.453112 494.463507 816.557278 485.932258 831.703112 476.161424 C 835.203112 473.895799 838.515611 471.234341 841.635403 468.17705 C 847.072903 462.822883 850.062486 459.796841 850.598945 459.093716 C 857.604153 449.7708 861.770819 439.963508 862.885403 428.604133 C 863.270819 424.755175 863.536444 420.343717 863.687486 415.380175 C 864.755194 380.505176 861.046861 346.005176 852.557278 311.859344 C 851.130195 306.109344 846.484361 292.036427 838.604153 269.630178 C 835.411445 260.526011 831.36457 251.317678 826.473945 242.005178 C 818.812487 227.411428 813.968737 218.463512 811.92707 215.171845 C 782.260404 167.124971 743.885405 127.56768 696.80728 96.499972 C 678.296864 84.276014 659.552073 73.718722 640.567698 64.822889 C 614.036448 52.395806 587.567699 42.895806 561.156241 36.338514 C 533.572908 29.47914 507.958325 25.07289 484.296867 23.109348 C 447.796867 20.093723 410.51041 21.244765 372.442702 26.57289 C 349.937494 29.713515 325.354161 35.624973 306.42187 41.088514 C 285.999995 46.989556 263.005204 55.979139 237.447912 68.062472 C 229.499996 71.807264 220.677079 76.56768 210.979163 82.322889 C 199.911455 88.890597 191.39583 94.177055 185.421871 98.177055 C 150.807289 121.296846 120.489581 149.640596 94.458331 183.213512 C 94.203123 183.546846 94.010415 183.921846 93.880206 184.328096 C 93.416665 185.776012 92.572915 186.958304 91.354165 187.859345 C 90.947915 188.161429 90.593748 188.520804 90.302081 188.927054 C 84.36979 197.140595 80.249998 203.302054 77.921873 207.40622 C 76.58854 209.744762 74.739581 212.666637 72.374998 216.166637 C 70.739582 218.572887 68.942707 221.53122 66.984373 225.041637 C 35.447915 281.458302 20.192707 341.973926 21.234374 406.598925 C 21.473957 422.229134 21.682291 437.635383 29.479165 451.499966 C 32.078124 456.140591 35.937499 460.817675 41.05729 465.5208 C 51.187498 474.833299 62.177082 482.645799 74.020831 488.958299 C 80.442706 492.385382 83.661456 494.098924 83.68229 494.109341 C 108.666664 505.458299 127.958331 513.229132 141.557289 517.427049 C 155.463539 521.713507 167.088538 525.17184 176.442705 527.807257 C 193.468746 532.588507 215.531246 537.619757 242.609371 542.916632 C 247.718745 543.916632 266.23437 547.07809 298.156245 552.401007 C 303.281245 553.260382 308.07812 553.869757 312.541661 554.229132 C 324.395828 555.187465 329.322911 555.697882 327.322911 555.770798 C 327.265619 555.776007 327.218744 555.723923 327.213536 555.661423 C 327.213536 555.645798 327.213536 555.635382 327.218744 555.619757 L 327.510411 554.70309 C 327.598953 554.447882 327.447911 554.161423 327.171869 554.07809 C 327.151036 554.07809 327.140619 554.072882 327.124994 554.067673 " stroke="#771616" stroke-width="2" stroke-opacity="1" stroke-miterlimit="4"/><path stroke-linecap="butt" transform="matrix(0.75, 0, 0, 0.75, 43.125001, 0.00002)" fill="none" stroke-linejoin="miter" d="M 372.124994 379.973926 C 383.04166 399.307259 396.374993 416.5833 412.114576 431.786425 C 412.536451 432.197883 413.130201 432.369758 413.703118 432.249967 C 421.609368 430.697883 429.822909 429.874967 438.343743 429.796842 C 438.906243 429.786425 439.359368 429.322883 439.348951 428.760383 C 439.348951 428.755175 439.348951 428.749967 439.348951 428.744758 L 437.645826 377.520801 C 437.635409 377.177051 437.348951 376.901009 437.005201 376.911426 L 372.630202 379.046843 C 372.296869 379.057259 372.031244 379.338509 372.04166 379.671843 C 372.04166 379.781218 372.07291 379.880176 372.124994 379.973926 " stroke="#7f7665" stroke-width="2" stroke-opacity="1" stroke-miterlimit="4"/><path stroke-linecap="butt" transform="matrix(0.75, 0, 0, 0.75, 43.125001, 0.00002)" fill="none" stroke-linejoin="miter" d="M 514.906241 379.260384 L 452.739576 377.046843 C 452.182284 377.020801 451.713534 377.463509 451.687492 378.026009 C 451.687492 378.052051 451.687492 378.072884 451.687492 378.098926 L 453.395826 429.4583 C 453.411451 429.776008 453.677076 430.031217 453.989576 430.0208 C 461.015617 429.80205 467.749992 430.42705 474.1927 431.890592 C 475.1927 432.11455 476.229159 431.80205 476.937492 431.072883 C 491.812492 415.656217 504.66145 398.739551 515.499991 380.312468 C 515.6927 379.979134 515.578116 379.552051 515.239575 379.354134 C 515.135408 379.296843 515.020825 379.265593 514.906241 379.260384 " stroke="#7f7665" stroke-width="2" stroke-opacity="1" stroke-miterlimit="4"/><path stroke-linecap="butt" transform="matrix(0.75, 0, 0, 0.75, 43.125001, 0.00002)" fill="none" stroke-linejoin="miter" d="M 395.812493 436.359342 C 396.04166 436.30205 396.182285 436.067675 396.124993 435.838508 C 396.10416 435.765592 396.067702 435.703092 396.020827 435.6458 C 380.499993 419.494759 367.151035 401.270801 355.958327 380.963509 C 355.692702 380.489551 355.182286 380.218718 354.651036 380.249968 C 331.026036 381.723926 307.473953 383.958301 283.979162 386.942676 C 283.541662 387.005176 283.239578 387.411426 283.29687 387.848926 C 283.32812 388.046842 283.427078 388.229134 283.57812 388.354134 C 307.723953 407.796842 333.510411 424.822884 360.937494 439.42705 C 364.380202 441.2708 368.067702 443.078092 372.01041 444.848925 C 372.536452 445.0833 373.145827 445.067675 373.661452 444.807258 C 380.656243 441.17705 388.036452 438.359342 395.812493 436.359342 " stroke="#7f7665" stroke-width="2" stroke-opacity="1" stroke-miterlimit="4"/><path stroke-linecap="butt" transform="matrix(0.75, 0, 0, 0.75, 43.125001, 0.00002)" fill="none" stroke-linejoin="miter" d="M 493.869783 435.05205 L 522.1927 444.119758 C 522.34895 444.171842 522.520825 444.156217 522.666658 444.088508 C 554.223949 429.703092 583.442699 411.4583 610.328115 389.364551 C 610.520823 389.197884 610.541657 388.906217 610.369782 388.718717 C 610.302073 388.635384 610.208323 388.583301 610.104157 388.562467 C 584.56249 384.770801 559.005199 382.078093 533.421866 380.484343 C 532.854158 380.453093 532.317699 380.734343 532.020824 381.229134 C 520.671866 400.406217 507.885408 418.11455 493.666658 434.354133 C 493.5052 434.531217 493.520825 434.80205 493.703117 434.963508 C 493.7552 435.005175 493.812492 435.036425 493.869783 435.05205 " stroke="#7f7665" stroke-width="2" stroke-opacity="1" stroke-miterlimit="4"/><path stroke-linecap="butt" transform="matrix(0.75, 0, 0, 0.75, 43.125001, 0.00002)" fill="none" stroke-linejoin="miter" d="M 194.229163 404.005175 C 194.390621 404.265592 194.817705 404.536425 195.52083 404.838509 C 241.635412 424.182259 286.369787 439.541633 329.734369 450.906216 C 335.583327 452.442675 342.458327 454.031216 350.354161 455.67705 C 352.041661 456.0208 353.703119 456.067675 355.322911 455.822883 C 356.140619 455.697883 356.69791 454.932258 356.57291 454.11455 C 356.505202 453.6458 356.213535 453.23955 355.796869 453.0208 C 323.140619 435.5208 291.557286 414.874967 263.562495 390.604134 C 263.166662 390.265592 262.635412 390.109342 262.10937 390.171842 C 239.421871 393.447884 216.848954 397.927051 194.401038 403.604134 C 194.255205 403.640592 194.166663 403.786426 194.203121 403.927051 C 194.203121 403.953092 194.213538 403.979134 194.229163 404.005175 " stroke="#7f7665" stroke-width="2" stroke-opacity="1" stroke-miterlimit="4"/><path stroke-linecap="butt" transform="matrix(0.75, 0, 0, 0.75, 43.125001, 0.00002)" fill="none" stroke-linejoin="miter" d="M 691.968739 404.078092 C 671.578114 399.114551 651.291656 395.020801 631.130198 391.807259 C 630.583323 391.718717 630.036448 391.880176 629.630198 392.234342 C 602.239573 415.729134 572.364574 435.630175 540.010408 451.947883 C 539.432283 452.229133 539.203116 452.932258 539.489574 453.499966 C 539.593741 453.7083 539.760408 453.885383 539.963533 453.994758 C 541.635408 454.921841 543.510408 455.130175 545.588533 454.61455 C 596.322907 442.072883 645.203114 425.140592 692.041655 404.80205 C 692.239572 404.713509 692.322905 404.484342 692.234364 404.291634 C 692.18228 404.182259 692.083322 404.104134 691.968739 404.078092 " stroke="#7f7665" stroke-width="2" stroke-opacity="1" stroke-miterlimit="4"/><path stroke-linecap="butt" transform="matrix(0.75, 0, 0, 0.75, 43.125001, 0.00002)" fill="none" stroke-linejoin="miter" d="M 342.822911 469.286425 C 284.817703 454.86455 228.213537 435.291633 172.999997 410.55205 C 172.104163 410.1458 171.088538 410.088509 170.151038 410.369759 C 149.791664 416.588509 126.473956 424.8333 112.260414 440.2083 C 106.848956 446.067675 106.223956 452.734341 110.374998 460.218716 C 112.083331 463.291633 113.760414 465.609341 116.760414 466.255175 C 173.296872 478.588508 232.046871 481.999966 290.067703 481.203091 C 306.479161 480.979133 325.005203 479.187466 341.557286 477.895799 C 342.161452 477.843716 342.651036 477.374966 342.729161 476.765591 L 343.578119 470.401008 C 343.656244 469.885383 343.322911 469.406216 342.822911 469.286425 " stroke="#7f7665" stroke-width="2" stroke-opacity="1" stroke-miterlimit="4"/><path stroke-linecap="butt" transform="matrix(0.75, 0, 0, 0.75, 43.125001, 0.00002)" fill="none" stroke-linejoin="miter" d="M 776.484362 444.328092 C 772.052071 438.286425 766.302071 433.249967 759.223946 429.234342 C 745.624988 421.526009 730.80728 415.307259 714.765613 410.593717 C 714.328113 410.4583 713.859363 410.48955 713.442697 410.682259 C 662.156239 434.234342 609.458323 453.067675 555.348949 467.187466 C 554.838532 467.317675 554.520824 467.843716 554.651032 468.36455 C 554.661449 468.406216 554.677074 468.453091 554.697907 468.494758 L 557.619782 475.442674 C 557.864574 476.015591 558.427074 476.385383 559.046866 476.390591 C 611.645823 477.218716 663.958322 472.213508 715.999988 461.401008 C 736.333321 457.161425 756.390613 451.791633 776.177071 445.281217 C 776.499987 445.166633 776.682279 444.812467 776.572904 444.48955 C 776.546862 444.437467 776.520821 444.380175 776.484362 444.328092 " stroke="#7f7665" stroke-width="2" stroke-opacity="1" stroke-miterlimit="4"/><path stroke-linecap="butt" transform="matrix(0.75, 0, 0, 0.75, 43.125001, 0.00002)" fill="none" stroke-linejoin="miter" d="M 537.374991 479.927049 C 530.546866 469.359341 512.671866 461.994758 500.7552 458.494758 C 466.781242 448.479133 429.656243 446.973925 396.182285 457.765591 C 384.380202 461.572883 374.343744 466.880175 366.083327 473.677049 C 364.223952 475.208299 363.078119 477.296841 362.656244 479.927049 C 361.04166 489.765591 357.781244 508.296841 352.869786 535.531215 C 350.755202 547.244757 339.911452 602.270797 320.333328 700.604129 C 311.76562 743.640587 305.442703 778.270795 301.364578 804.505169 C 297.713536 828.062461 294.906245 848.807252 294.937495 871.088502 C 294.968745 889.942668 298.588536 907.781209 308.01562 924.286418 C 325.812494 955.427042 359.828119 970.49475 394.60416 975.687458 C 422.380201 979.848917 449.697909 979.640583 476.53645 975.083292 C 522.656241 967.229125 559.156241 948.333292 571.682282 902.765585 C 579.546865 874.135377 576.28124 842.34371 570.020824 813.661419 C 566.093741 795.666628 561.427074 774.00517 556.026032 748.697879 C 537.338533 661.177047 529.6927 571.348923 537.901033 482.083299 C 537.979158 481.317674 537.786449 480.562466 537.374991 479.927049 " stroke="#848383" stroke-width="2" stroke-opacity="1" stroke-miterlimit="4"/><path stroke-linecap="butt" transform="matrix(0.75, 0, 0, 0.75, 43.125001, 0.00002)" fill="none" stroke-linejoin="miter" d="M 774.067696 460.911425 C 704.895822 482.156216 633.067698 492.036424 558.567699 490.552049 C 558.015616 490.536424 557.557282 490.973924 557.531241 491.531216 L 557.239574 500.005174 C 557.218741 500.609341 557.562491 501.161424 558.109366 501.416632 C 578.151032 510.640591 599.583323 517.770799 622.411448 522.822882 C 622.890615 522.932257 623.380198 522.932257 623.848948 522.822882 C 666.166656 513.723924 709.296863 502.088507 747.74478 482.437466 C 757.755196 477.312466 766.755196 470.484341 774.729154 461.953091 C 774.968737 461.692675 774.953112 461.291633 774.692696 461.05205 C 774.526029 460.890591 774.286446 460.838508 774.067696 460.911425 " stroke="#7f7665" stroke-width="2" stroke-opacity="1" stroke-miterlimit="4"/><path stroke-linecap="butt" transform="matrix(0.75, 0, 0, 0.75, 43.125001, 0.00002)" fill="none" stroke-linejoin="miter" d="M 338.296869 492.838507 C 318.874994 494.302049 306.973953 495.114549 302.604161 495.276007 C 250.682287 497.104132 199.218746 494.296841 148.218747 486.843716 C 147.901039 486.802049 147.609372 487.026008 147.562497 487.333299 C 147.52083 487.583299 147.656247 487.828091 147.890622 487.927049 C 157.55208 492.380174 167.229163 496.270799 176.92708 499.609341 C 212.098954 511.713507 248.223954 520.744757 285.291662 526.70309 C 285.833328 526.781215 286.380203 526.73434 286.911453 526.567674 C 303.822911 521.14059 320.213536 514.697882 336.088536 507.229132 C 336.953119 506.817674 337.546869 506.005174 337.677077 505.062466 L 339.156244 493.749966 C 339.218744 493.312466 338.901036 492.906216 338.453119 492.854132 C 338.401036 492.838507 338.354161 492.838507 338.296869 492.838507 " stroke="#7f7665" stroke-width="2" stroke-opacity="1" stroke-miterlimit="4"/><path stroke-linecap="butt" transform="matrix(0.75, 0, 0, 0.75, 43.125001, 0.00002)" fill="none" stroke-linejoin="miter" d="M 557.026032 517.494757 C 556.770824 517.406215 556.494782 517.552049 556.416657 517.807257 C 556.406241 517.843715 556.395824 517.880174 556.395824 517.92184 L 554.979157 533.166632 C 554.963532 533.432257 555.166657 533.666632 555.437491 533.687465 C 555.463532 533.687465 555.499991 533.687465 555.531241 533.682257 L 588.18749 529.020799 C 588.453115 528.973924 588.62499 528.713507 588.572907 528.447882 C 588.541657 528.286424 588.427074 528.151007 588.270824 528.088507 L 557.026032 517.494757 " stroke="#7f7665" stroke-width="2" stroke-opacity="1" stroke-miterlimit="4"/><path stroke-linecap="butt" transform="matrix(0.75, 0, 0, 0.75, 43.125001, 0.00002)" fill="none" stroke-linejoin="miter" d="M 317.447911 532.10934 L 331.385411 533.937465 C 331.927078 534.010382 332.421869 533.635382 332.499994 533.088507 L 333.520828 525.223924 C 333.562494 524.963507 333.385411 524.718715 333.130203 524.682257 C 333.031244 524.666632 332.942703 524.682257 332.859369 524.718715 L 317.333328 531.255174 C 317.104161 531.338507 316.984369 531.598924 317.072911 531.82809 C 317.124994 531.989549 317.270828 532.104132 317.447911 532.10934 " stroke="#7f7665" stroke-width="2" stroke-opacity="1" stroke-miterlimit="4"/><path stroke-linecap="butt" transform="matrix(0.75, 0, 0, 0.75, 43.125001, 0.00002)" fill="none" stroke-linejoin="miter" d="M 617.515615 133.901013 C 617.515615 95.406222 586.307282 64.197889 547.807283 64.197889 C 509.312491 64.197889 478.104159 95.406222 478.104159 133.901013 C 478.104159 172.395804 509.312491 203.604137 547.807283 203.604137 C 586.307282 203.604137 617.515615 172.395804 617.515615 133.901013 " stroke="#771616" stroke-width="2" stroke-opacity="1" stroke-miterlimit="4"/><path stroke-linecap="butt" transform="matrix(0.75, 0, 0, 0.75, 43.125001, 0.00002)" fill="none" stroke-linejoin="miter" d="M 358.88541 120.276013 C 358.88541 97.906222 340.749994 79.770805 318.380203 79.770805 C 296.010411 79.770805 277.874995 97.906222 277.874995 120.276013 C 277.874995 142.645804 296.010411 160.781221 318.380203 160.781221 C 340.749994 160.781221 358.88541 142.645804 358.88541 120.276013 " stroke="#771616" stroke-width="2" stroke-opacity="1" stroke-miterlimit="4"/><path stroke-linecap="butt" transform="matrix(0.75, 0, 0, 0.75, 43.125001, 0.00002)" fill="none" stroke-linejoin="miter" d="M 248.494787 248.015595 C 248.494787 211.755178 219.104163 182.364554 182.843746 182.364554 C 146.58333 182.364554 117.192706 211.755178 117.192706 248.015595 C 117.192706 284.276011 146.58333 313.666635 182.843746 313.666635 C 219.104163 313.666635 248.494787 284.276011 248.494787 248.015595 " stroke="#771616" stroke-width="2" stroke-opacity="1" stroke-miterlimit="4"/><path stroke-linecap="butt" transform="matrix(0.75, 0, 0, 0.75, 43.125001, 0.00002)" fill="none" stroke-linejoin="miter" d="M 713.380197 232.161428 C 689.937489 219.958303 660.999989 229.145803 648.744781 252.682261 C 636.494781 276.218719 645.567698 305.192677 669.010406 317.395802 C 692.453114 329.598927 721.390613 320.411427 733.645821 296.86976 C 745.895821 273.338511 736.822905 244.364553 713.380197 232.161428 " stroke="#771616" stroke-width="2" stroke-opacity="1" stroke-miterlimit="4"/><path stroke-linecap="butt" transform="matrix(0.75, 0, 0, 0.75, 43.125001, 0.00002)" fill="none" stroke-linejoin="miter" d="M 597.776032 133.979138 C 597.776032 106.47393 575.479157 84.177055 547.973949 84.177055 C 520.468741 84.177055 498.171867 106.47393 498.171867 133.979138 C 498.171867 161.484346 520.468741 183.776012 547.973949 183.776012 C 575.473949 183.776012 597.776032 161.479138 597.776032 133.979138 " stroke="#848383" stroke-width="2" stroke-opacity="1" stroke-miterlimit="4"/><path stroke-linecap="butt" transform="matrix(0.75, 0, 0, 0.75, 43.125001, 0.00002)" fill="none" stroke-linejoin="miter" d="M 317.140619 100.13018 C 305.973953 100.812472 297.479161 110.520805 298.17187 121.807263 C 298.85937 133.09893 308.479161 141.703096 319.640619 141.020805 C 330.812494 140.333305 339.307286 130.63018 338.614577 119.338513 C 337.927077 108.041638 328.312494 99.44268 317.140619 100.13018 " stroke="#848383" stroke-width="2" stroke-opacity="1" stroke-miterlimit="4"/><path stroke-linecap="butt" transform="matrix(0.75, 0, 0, 0.75, 43.125001, 0.00002)" fill="none" stroke-linejoin="miter" d="M 228.682287 248.06247 C 228.682287 222.78122 208.187496 202.28122 182.906246 202.28122 C 157.624997 202.28122 137.124997 222.776012 137.124997 248.06247 C 137.124997 273.343719 157.619789 293.838511 182.906246 293.838511 C 208.187496 293.838511 228.682287 273.338511 228.682287 248.06247 " stroke="#848383" stroke-width="2" stroke-opacity="1" stroke-miterlimit="4"/><path stroke-linecap="butt" transform="matrix(0.75, 0, 0, 0.75, 43.125001, 0.00002)" fill="none" stroke-linejoin="miter" d="M 690.067697 246.536428 C 674.697906 247.15622 662.749989 260.244761 663.374989 275.776011 C 663.999989 291.307261 676.963531 303.395802 692.328114 302.77601 C 707.697905 302.156219 719.645822 289.072886 719.020822 273.541636 C 718.395822 258.010386 705.43228 245.921845 690.067697 246.536428 " stroke="#848383" stroke-width="2" stroke-opacity="1" stroke-miterlimit="4"/><g clip-path="url(#28c0b24d08)"><path fill="#080706" d="M 286.050781 432.558594 C 286.132812 432.164062 285.871094 431.773438 285.464844 431.691406 C 285.441406 431.6875 285.425781 431.683594 285.402344 431.679688 C 241.117188 426.582031 194.972656 418.042969 152.980469 405.242188 C 146.070312 403.140625 135.667969 399.449219 121.777344 394.164062 C 107.007812 388.554688 92.90625 381.507812 79.476562 373.023438 C 59.128906 360.15625 45.28125 344.28125 43.96875 319.367188 C 40.003906 244.453125 61.269531 178.316406 107.765625 120.953125 C 121.007812 104.613281 136.628906 89.332031 154.625 75.109375 C 221.125 22.542969 307.136719 -2.949219 391.898438 1.09375 C 483.285156 5.445312 571.863281 42.628906 633.480469 110.921875 C 669.804688 151.1875 694.355469 201.582031 702.710938 255.410156 C 706.074219 277.066406 707.207031 298.621094 706.109375 320.066406 C 706.011719 321.984375 705.4375 325.429688 704.382812 330.410156 C 702.066406 341.289062 697.257812 349.488281 689.164062 357.71875 C 683.957031 363.027344 678.488281 367.570312 672.765625 371.355469 C 660.128906 379.710938 646.726562 386.804688 632.558594 392.636719 C 602.132812 405.164062 571.285156 413.691406 537.328125 420.722656 C 512.445312 425.875 486.769531 429.777344 460.304688 432.4375 C 459.976562 432.464844 459.722656 432.75 459.734375 433.078125 C 460.761719 465.765625 464.199219 498.332031 470.054688 530.777344 C 473.679688 550.839844 478.007812 571.882812 483.046875 593.910156 C 488.457031 617.511719 492.867188 643.273438 489.382812 668.320312 C 480.578125 731.628906 423.636719 749.050781 368.046875 749.320312 C 353.367188 749.386719 338.796875 747.730469 324.332031 744.34375 C 281.929688 734.402344 252.140625 706.808594 249.21875 661.320312 C 248.425781 648.949219 249.261719 634.035156 251.722656 616.578125 C 254.738281 595.253906 258.300781 573.773438 262.410156 552.132812 C 267.019531 527.945312 274.894531 488.089844 286.050781 432.558594 Z M 288.46875 415.550781 C 282.9375 414.445312 278.390625 413.65625 274.820312 413.191406 C 272.3125 412.867188 270.726562 412.554688 270.066406 412.269531 C 269.875 412.179688 269.664062 412.125 269.453125 412.109375 L 261.269531 411.597656 C 261.203125 411.597656 261.136719 411.589844 261.078125 411.574219 C 253.589844 409.667969 242.597656 408.558594 232.949219 406.144531 C 225.8125 404.351562 218.5 403.371094 211.839844 401.503906 C 204.21875 399.363281 194.304688 396.515625 182.09375 392.953125 C 171.09375 389.738281 159.359375 384.78125 150.273438 380.640625 C 144.859375 378.171875 138.539062 374.683594 131.328125 370.175781 C 120.972656 363.707031 106.226562 350.335938 108.214844 336.609375 C 110.5 320.976562 122.585938 312.417969 136.9375 304.792969 C 140.675781 302.8125 146.027344 300.480469 152.980469 297.800781 C 158.519531 295.664062 164.054688 293.808594 169.589844 292.246094 C 192.878906 285.675781 214.417969 280.9375 234.214844 278.027344 C 257.273438 274.636719 279.800781 272.167969 301.796875 270.625 C 314.339844 269.742188 325.007812 269.113281 333.800781 268.742188 C 402.164062 265.859375 469.335938 269.632812 536.054688 281.851562 C 550.847656 284.570312 564.953125 287.9375 578.382812 291.949219 C 596.792969 297.457031 612.667969 302.746094 626.542969 312.898438 C 643.460938 325.265625 648.660156 345.09375 631.453125 360.378906 C 624.8125 366.277344 617.632812 371.441406 609.921875 375.863281 C 605.792969 378.246094 602.242188 379.316406 598.054688 381.398438 C 595.753906 382.546875 592.753906 383.851562 589.058594 385.316406 C 578.492188 389.492188 567.609375 393.234375 556.410156 396.527344 C 547.316406 399.214844 534.347656 402.421875 517.5 406.160156 C 507.050781 408.476562 497.558594 410.179688 489.015625 411.269531 C 483.652344 411.957031 478.910156 412.675781 474.789062 413.417969 C 471.128906 414.074219 466.355469 414.777344 460.457031 415.507812 C 460.226562 415.535156 460.050781 415.726562 460.046875 415.953125 L 460.035156 416.242188 C 460.019531 416.730469 460.398438 417.132812 460.878906 417.148438 C 460.914062 417.148438 460.957031 417.148438 460.992188 417.144531 C 470.0625 416.246094 476.824219 415.488281 481.277344 414.863281 C 495.988281 412.8125 504.890625 411.441406 507.984375 410.742188 C 515.910156 408.960938 525.6875 408.003906 533.542969 406.203125 C 555.75 401.082031 571.1875 397.273438 579.855469 394.773438 C 596.804688 389.871094 614.953125 383.460938 634.292969 375.535156 C 645.714844 370.847656 655.542969 364.449219 666.902344 357.121094 C 669.527344 355.421875 672.011719 353.425781 674.351562 351.132812 C 678.429688 347.117188 680.671875 344.847656 681.074219 344.320312 C 686.328125 337.328125 689.453125 329.972656 690.289062 321.453125 C 690.578125 318.566406 690.777344 315.257812 690.890625 311.535156 C 691.691406 285.378906 688.910156 259.503906 682.542969 233.894531 C 681.472656 229.582031 677.988281 219.027344 672.078125 202.222656 C 669.683594 195.394531 666.648438 188.488281 662.980469 181.503906 C 657.234375 170.558594 653.601562 163.847656 652.070312 161.378906 C 629.820312 125.34375 601.039062 95.675781 565.730469 72.375 C 551.847656 63.207031 537.789062 55.289062 523.550781 48.617188 C 503.652344 39.296875 483.800781 32.171875 463.992188 27.253906 C 443.304688 22.109375 424.09375 18.804688 406.347656 17.332031 C 378.972656 15.070312 351.003906 15.933594 322.457031 19.929688 C 305.578125 22.285156 287.140625 26.71875 272.941406 30.816406 C 257.625 35.242188 240.378906 41.984375 221.210938 51.046875 C 215.25 53.855469 208.632812 57.425781 201.359375 61.742188 C 193.058594 66.667969 186.671875 70.632812 182.191406 73.632812 C 156.230469 90.972656 133.492188 112.230469 113.96875 137.410156 C 113.777344 137.660156 113.632812 137.941406 113.535156 138.242188 C 113.1875 139.332031 112.554688 140.21875 111.640625 140.894531 C 111.335938 141.121094 111.070312 141.390625 110.851562 141.695312 C 106.402344 147.855469 103.3125 152.476562 101.566406 155.554688 C 100.566406 157.308594 99.179688 159.5 97.40625 162.125 C 96.179688 163.929688 94.832031 166.148438 93.363281 168.78125 C 69.710938 211.09375 58.269531 256.480469 59.050781 304.949219 C 59.230469 316.671875 59.386719 328.226562 65.234375 338.625 C 67.183594 342.105469 70.078125 345.613281 73.917969 349.140625 C 81.515625 356.125 89.757812 361.984375 98.640625 366.71875 C 103.457031 369.289062 105.871094 370.574219 105.886719 370.582031 C 124.625 379.09375 139.09375 384.921875 149.292969 388.070312 C 159.722656 391.285156 168.441406 393.878906 175.457031 395.855469 C 188.226562 399.441406 204.773438 403.214844 225.082031 407.1875 C 228.914062 407.9375 242.800781 410.308594 266.742188 414.300781 C 270.585938 414.945312 274.183594 415.402344 277.53125 415.671875 C 286.421875 416.390625 290.117188 416.773438 288.617188 416.828125 C 288.574219 416.832031 288.539062 416.792969 288.535156 416.746094 C 288.535156 416.734375 288.535156 416.726562 288.539062 416.714844 L 288.757812 416.027344 C 288.824219 415.835938 288.710938 415.621094 288.503906 415.558594 C 288.488281 415.558594 288.480469 415.554688 288.46875 415.550781 Z M 322.21875 284.980469 C 330.40625 299.480469 340.40625 312.4375 352.210938 323.839844 C 352.527344 324.148438 352.972656 324.277344 353.402344 324.1875 C 359.332031 323.023438 365.492188 322.40625 371.882812 322.347656 C 372.304688 322.339844 372.644531 321.992188 372.636719 321.570312 C 372.636719 321.566406 372.636719 321.5625 372.636719 321.558594 L 371.359375 283.140625 C 371.351562 282.882812 371.136719 282.675781 370.878906 282.683594 L 322.597656 284.285156 C 322.347656 284.292969 322.148438 284.503906 322.15625 284.753906 C 322.15625 284.835938 322.179688 284.910156 322.21875 284.980469 Z M 429.304688 284.445312 L 382.679688 282.785156 C 382.261719 282.765625 381.910156 283.097656 381.890625 283.519531 C 381.890625 283.539062 381.890625 283.554688 381.890625 283.574219 L 383.171875 322.09375 C 383.183594 322.332031 383.382812 322.523438 383.617188 322.515625 C 388.886719 322.351562 393.9375 322.820312 398.769531 323.917969 C 399.519531 324.085938 400.296875 323.851562 400.828125 323.304688 C 411.984375 311.742188 421.621094 299.054688 429.75 285.234375 C 429.894531 284.984375 429.808594 284.664062 429.554688 284.515625 C 429.476562 284.472656 429.390625 284.449219 429.304688 284.445312 Z M 339.984375 327.269531 C 340.15625 327.226562 340.261719 327.050781 340.21875 326.878906 C 340.203125 326.824219 340.175781 326.777344 340.140625 326.734375 C 328.5 314.621094 318.488281 300.953125 310.09375 285.722656 C 309.894531 285.367188 309.511719 285.164062 309.113281 285.1875 C 291.394531 286.292969 273.730469 287.96875 256.109375 290.207031 C 255.78125 290.253906 255.554688 290.558594 255.597656 290.886719 C 255.621094 291.035156 255.695312 291.171875 255.808594 291.265625 C 273.917969 305.847656 293.257812 318.617188 313.828125 329.570312 C 316.410156 330.953125 319.175781 332.308594 322.132812 333.636719 C 322.527344 333.8125 322.984375 333.800781 323.371094 333.605469 C 328.617188 330.882812 334.152344 328.769531 339.984375 327.269531 Z M 413.527344 326.289062 L 434.769531 333.089844 C 434.886719 333.128906 435.015625 333.117188 435.125 333.066406 C 458.792969 322.277344 480.707031 308.59375 500.871094 292.023438 C 501.015625 291.898438 501.03125 291.679688 500.902344 291.539062 C 500.851562 291.476562 500.78125 291.4375 500.703125 291.421875 C 481.546875 288.578125 462.378906 286.558594 443.191406 285.363281 C 442.765625 285.339844 442.363281 285.550781 442.140625 285.921875 C 433.628906 300.304688 424.039062 313.585938 413.375 325.765625 C 413.253906 325.898438 413.265625 326.101562 413.402344 326.222656 C 413.441406 326.253906 413.484375 326.277344 413.527344 326.289062 Z M 188.796875 303.003906 C 188.917969 303.199219 189.238281 303.402344 189.765625 303.628906 C 224.351562 318.136719 257.902344 329.65625 290.425781 338.179688 C 294.8125 339.332031 299.96875 340.523438 305.890625 341.757812 C 307.15625 342.015625 308.402344 342.050781 309.617188 341.867188 C 310.230469 341.773438 310.648438 341.199219 310.554688 340.585938 C 310.503906 340.234375 310.285156 339.929688 309.972656 339.765625 C 285.480469 326.640625 261.792969 311.15625 240.796875 292.953125 C 240.5 292.699219 240.101562 292.582031 239.707031 292.628906 C 222.691406 295.085938 205.761719 298.445312 188.925781 302.703125 C 188.816406 302.730469 188.75 302.839844 188.777344 302.945312 C 188.777344 302.964844 188.785156 302.984375 188.796875 303.003906 Z M 562.101562 303.058594 C 546.808594 299.335938 531.59375 296.265625 516.472656 293.855469 C 516.0625 293.789062 515.652344 293.910156 515.347656 294.175781 C 494.804688 311.796875 472.398438 326.722656 448.132812 338.960938 C 447.699219 339.171875 447.527344 339.699219 447.742188 340.125 C 447.820312 340.28125 447.945312 340.414062 448.097656 340.496094 C 449.351562 341.191406 450.757812 341.347656 452.316406 340.960938 C 490.367188 331.554688 527.027344 318.855469 562.15625 303.601562 C 562.304688 303.535156 562.367188 303.363281 562.300781 303.21875 C 562.261719 303.136719 562.1875 303.078125 562.101562 303.058594 Z M 300.242188 351.964844 C 256.738281 341.148438 214.285156 326.46875 172.875 307.914062 C 172.203125 307.609375 171.441406 307.566406 170.738281 307.777344 C 155.46875 312.441406 137.980469 318.625 127.320312 330.15625 C 123.261719 334.550781 122.792969 339.550781 125.90625 345.164062 C 127.1875 347.46875 128.445312 349.207031 130.695312 349.691406 C 173.097656 358.941406 217.160156 361.5 260.675781 360.902344 C 272.984375 360.734375 286.878906 359.390625 299.292969 358.421875 C 299.746094 358.382812 300.113281 358.03125 300.171875 357.574219 L 300.808594 352.800781 C 300.867188 352.414062 300.617188 352.054688 300.242188 351.964844 Z M 625.488281 333.246094 C 622.164062 328.714844 617.851562 324.9375 612.542969 321.925781 C 602.34375 316.144531 591.230469 311.480469 579.199219 307.945312 C 578.871094 307.84375 578.519531 307.867188 578.207031 308.011719 C 539.742188 325.675781 500.21875 339.800781 459.636719 350.390625 C 459.253906 350.488281 459.015625 350.882812 459.113281 351.273438 C 459.121094 351.304688 459.132812 351.339844 459.148438 351.371094 L 461.339844 356.582031 C 461.523438 357.011719 461.945312 357.289062 462.410156 357.292969 C 501.859375 357.914062 541.09375 354.160156 580.125 346.050781 C 595.375 342.871094 610.417969 338.84375 625.257812 333.960938 C 625.5 333.875 625.636719 333.609375 625.554688 333.367188 C 625.535156 333.328125 625.515625 333.285156 625.488281 333.246094 Z M 446.15625 359.945312 C 441.035156 352.019531 427.628906 346.496094 418.691406 343.871094 C 393.210938 336.359375 365.367188 335.230469 340.261719 343.324219 C 331.410156 346.179688 323.882812 350.160156 317.6875 355.257812 C 316.292969 356.40625 315.433594 357.972656 315.117188 359.945312 C 313.90625 367.324219 311.460938 381.222656 307.777344 401.648438 C 306.191406 410.433594 298.058594 451.703125 283.375 525.453125 C 276.949219 557.730469 272.207031 583.703125 269.148438 603.378906 C 266.410156 621.046875 264.304688 636.605469 264.328125 653.316406 C 264.351562 667.457031 267.066406 680.835938 274.136719 693.214844 C 287.484375 716.570312 312.996094 727.871094 339.078125 731.765625 C 359.910156 734.886719 380.398438 734.730469 400.527344 731.3125 C 435.117188 725.421875 462.492188 711.25 471.886719 677.074219 C 477.785156 655.601562 475.335938 631.757812 470.640625 610.246094 C 467.695312 596.75 464.195312 580.503906 460.144531 561.523438 C 446.128906 495.882812 440.394531 428.511719 446.550781 361.5625 C 446.609375 360.988281 446.464844 360.421875 446.15625 359.945312 Z M 623.675781 345.683594 C 571.796875 361.617188 517.925781 369.027344 462.050781 367.914062 C 461.636719 367.902344 461.292969 368.230469 461.273438 368.648438 L 461.054688 375.003906 C 461.039062 375.457031 461.296875 375.871094 461.707031 376.0625 C 476.738281 382.980469 492.8125 388.328125 509.933594 392.117188 C 510.292969 392.199219 510.660156 392.199219 511.011719 392.117188 C 542.75 385.292969 575.097656 376.566406 603.933594 361.828125 C 611.441406 357.984375 618.191406 352.863281 624.171875 346.464844 C 624.351562 346.269531 624.339844 345.96875 624.144531 345.789062 C 624.019531 345.667969 623.839844 345.628906 623.675781 345.683594 Z M 296.847656 369.628906 C 282.28125 370.726562 273.355469 371.335938 270.078125 371.457031 C 231.136719 372.828125 192.539062 370.722656 154.289062 365.132812 C 154.050781 365.101562 153.832031 365.269531 153.796875 365.5 C 153.765625 365.6875 153.867188 365.871094 154.042969 365.945312 C 161.289062 369.285156 168.546875 372.203125 175.820312 374.707031 C 202.199219 383.785156 229.292969 390.558594 257.09375 395.027344 C 257.5 395.085938 257.910156 395.050781 258.308594 394.925781 C 270.992188 390.855469 283.285156 386.023438 295.191406 380.421875 C 295.839844 380.113281 296.285156 379.503906 296.382812 378.796875 L 297.492188 370.3125 C 297.539062 369.984375 297.300781 369.679688 296.964844 369.640625 C 296.925781 369.628906 296.890625 369.628906 296.847656 369.628906 Z M 460.894531 388.121094 C 460.703125 388.054688 460.496094 388.164062 460.433594 388.355469 C 460.429688 388.382812 460.421875 388.410156 460.421875 388.441406 L 459.359375 399.875 C 459.347656 400.074219 459.5 400.25 459.703125 400.265625 C 459.722656 400.265625 459.75 400.265625 459.773438 400.261719 L 484.265625 396.765625 C 484.464844 396.730469 484.59375 396.535156 484.554688 396.335938 C 484.53125 396.214844 484.445312 396.113281 484.328125 396.066406 Z M 281.210938 399.082031 L 291.664062 400.453125 C 292.070312 400.507812 292.441406 400.226562 292.5 399.816406 L 293.265625 393.917969 C 293.296875 393.722656 293.164062 393.539062 292.972656 393.511719 C 292.898438 393.5 292.832031 393.511719 292.769531 393.539062 L 281.125 398.441406 C 280.953125 398.503906 280.863281 398.699219 280.929688 398.871094 C 280.96875 398.992188 281.078125 399.078125 281.210938 399.082031 Z M 281.210938 399.082031 " fill-opacity="1" fill-rule="nonzero"/></g><path fill="#e52425" d="M 288.46875 415.550781 C 288.675781 415.597656 288.8125 415.796875 288.765625 415.996094 C 288.761719 416.007812 288.761719 416.019531 288.757812 416.03125 L 288.539062 416.71875 C 288.527344 416.765625 288.550781 416.816406 288.589844 416.828125 C 288.597656 416.832031 288.609375 416.832031 288.617188 416.832031 C 290.113281 416.777344 286.421875 416.394531 277.53125 415.675781 C 274.183594 415.40625 270.585938 414.953125 266.742188 414.304688 C 242.800781 410.308594 228.914062 407.941406 225.082031 407.191406 C 204.769531 403.21875 188.226562 399.441406 175.457031 395.855469 C 168.441406 393.882812 159.722656 391.289062 149.292969 388.074219 C 139.097656 384.925781 124.628906 379.097656 105.886719 370.585938 C 105.871094 370.578125 103.457031 369.292969 98.640625 366.722656 C 89.757812 361.988281 81.515625 356.128906 73.917969 349.144531 C 70.078125 345.613281 67.1875 342.105469 65.234375 338.628906 C 59.390625 328.226562 59.230469 316.671875 59.050781 304.953125 C 58.273438 256.480469 69.710938 211.09375 93.363281 168.792969 C 94.835938 166.15625 96.179688 163.9375 97.40625 162.136719 C 99.179688 159.507812 100.570312 157.320312 101.566406 155.566406 C 103.3125 152.488281 106.40625 147.867188 110.851562 141.707031 C 111.070312 141.402344 111.339844 141.132812 111.640625 140.90625 C 112.554688 140.230469 113.183594 139.347656 113.535156 138.253906 C 113.632812 137.953125 113.777344 137.671875 113.96875 137.421875 C 133.488281 112.238281 156.226562 90.976562 182.191406 73.644531 C 186.675781 70.644531 193.0625 66.679688 201.359375 61.753906 C 208.632812 57.433594 215.25 53.867188 221.210938 51.058594 C 240.378906 41.996094 257.625 35.253906 272.941406 30.828125 C 287.144531 26.734375 305.582031 22.300781 322.457031 19.9375 C 351.007812 15.945312 378.972656 15.082031 406.347656 17.34375 C 424.097656 18.816406 443.308594 22.121094 463.992188 27.265625 C 483.800781 32.1875 503.652344 39.308594 523.550781 48.628906 C 537.792969 55.296875 551.851562 63.21875 565.730469 72.386719 C 601.042969 95.691406 629.820312 125.355469 652.070312 161.386719 C 653.597656 163.859375 657.234375 170.570312 662.980469 181.515625 C 666.648438 188.5 669.679688 195.40625 672.078125 202.234375 C 677.984375 219.039062 681.472656 229.59375 682.542969 233.90625 C 688.910156 259.511719 691.695312 285.390625 690.890625 311.542969 C 690.777344 315.269531 690.582031 318.578125 690.289062 321.464844 C 689.453125 329.980469 686.324219 337.339844 681.074219 344.332031 C 680.671875 344.859375 678.429688 347.128906 674.351562 351.144531 C 672.011719 353.4375 669.527344 355.433594 666.902344 357.132812 C 655.546875 364.460938 645.714844 370.859375 634.292969 375.546875 C 614.953125 383.472656 596.808594 389.886719 579.855469 394.78125 C 571.1875 397.285156 555.75 401.09375 533.542969 406.214844 C 525.683594 408.019531 515.910156 408.976562 507.984375 410.753906 C 504.890625 411.453125 495.988281 412.824219 481.277344 414.871094 C 476.824219 415.496094 470.0625 416.257812 460.992188 417.15625 C 460.519531 417.203125 460.089844 416.851562 460.039062 416.371094 C 460.035156 416.332031 460.035156 416.292969 460.035156 416.253906 L 460.046875 415.964844 C 460.050781 415.738281 460.226562 415.546875 460.457031 415.519531 C 466.351562 414.785156 471.125 414.085938 474.789062 413.429688 C 478.90625 412.6875 483.648438 411.96875 489.015625 411.28125 C 497.558594 410.191406 507.054688 408.488281 517.5 406.167969 C 534.347656 402.4375 547.316406 399.226562 556.410156 396.539062 C 567.609375 393.246094 578.488281 389.503906 589.0625 385.328125 C 592.753906 383.863281 595.753906 382.558594 598.054688 381.410156 C 602.242188 379.328125 605.792969 378.257812 609.921875 375.875 C 617.632812 371.453125 624.808594 366.289062 631.453125 360.390625 C 648.664062 345.105469 643.464844 325.277344 626.542969 312.910156 C 612.667969 302.757812 596.792969 297.46875 578.382812 291.960938 C 564.953125 287.945312 550.847656 284.578125 536.054688 281.863281 C 469.339844 269.644531 402.167969 265.867188 333.800781 268.753906 C 325.007812 269.121094 314.335938 269.75 301.796875 270.636719 C 279.796875 272.175781 257.273438 274.648438 234.214844 278.039062 C 214.417969 280.949219 192.878906 285.6875 169.589844 292.257812 C 164.054688 293.820312 158.519531 295.671875 152.980469 297.8125 C 146.027344 300.492188 140.679688 302.820312 136.9375 304.804688 C 122.589844 312.429688 110.5 320.988281 108.214844 336.621094 C 106.226562 350.347656 120.972656 363.71875 131.328125 370.1875 C 138.539062 374.6875 144.855469 378.179688 150.273438 380.652344 C 159.359375 384.792969 171.089844 389.75 182.09375 392.964844 C 194.300781 396.527344 204.214844 399.375 211.839844 401.511719 C 218.496094 403.386719 225.808594 404.363281 232.949219 406.15625 C 242.597656 408.570312 253.589844 409.683594 261.078125 411.585938 C 261.136719 411.601562 261.203125 411.609375 261.269531 411.609375 L 269.453125 412.121094 C 269.664062 412.136719 269.871094 412.1875 270.066406 412.277344 C 270.726562 412.566406 272.3125 412.878906 274.820312 413.203125 C 278.386719 413.65625 282.9375 414.445312 288.46875 415.550781 Z M 506.261719 100.425781 C 506.261719 71.554688 482.855469 48.148438 453.980469 48.148438 C 425.109375 48.148438 401.703125 71.554688 401.703125 100.425781 C 401.703125 129.296875 425.109375 152.703125 453.980469 152.703125 C 482.855469 152.703125 506.261719 129.296875 506.261719 100.425781 Z M 312.289062 90.207031 C 312.289062 73.429688 298.6875 59.828125 281.910156 59.828125 C 265.132812 59.828125 251.53125 73.429688 251.53125 90.207031 C 251.53125 106.984375 265.132812 120.585938 281.910156 120.585938 C 298.6875 120.585938 312.289062 106.984375 312.289062 90.207031 Z M 229.496094 186.011719 C 229.496094 158.816406 207.453125 136.773438 180.257812 136.773438 C 153.0625 136.773438 131.019531 158.816406 131.019531 186.011719 C 131.019531 213.207031 153.0625 235.25 180.257812 235.25 C 207.453125 235.25 229.496094 213.207031 229.496094 186.011719 Z M 578.160156 174.121094 C 560.578125 164.96875 538.875 171.859375 529.683594 189.511719 C 520.496094 207.164062 527.300781 228.894531 544.882812 238.046875 C 562.464844 247.199219 584.167969 240.308594 593.359375 222.652344 C 602.546875 205.003906 595.742188 183.273438 578.160156 174.121094 Z M 578.160156 174.121094 " fill-opacity="1" fill-rule="nonzero"/><path fill="#080706" d="M 506.261719 100.425781 C 506.261719 129.296875 482.855469 152.703125 453.980469 152.703125 C 425.109375 152.703125 401.703125 129.296875 401.703125 100.425781 C 401.703125 71.554688 425.109375 48.148438 453.980469 48.148438 C 482.855469 48.148438 506.261719 71.554688 506.261719 100.425781 Z M 491.457031 100.484375 C 491.457031 79.855469 474.734375 63.132812 454.105469 63.132812 C 433.476562 63.132812 416.753906 79.855469 416.753906 100.484375 C 416.753906 121.113281 433.476562 137.832031 454.105469 137.832031 C 474.730469 137.832031 491.457031 121.109375 491.457031 100.484375 Z M 491.457031 100.484375 " fill-opacity="1" fill-rule="nonzero"/><path fill="#080706" d="M 312.289062 90.207031 C 312.289062 106.984375 298.6875 120.585938 281.910156 120.585938 C 265.132812 120.585938 251.53125 106.984375 251.53125 90.207031 C 251.53125 73.429688 265.132812 59.828125 281.910156 59.828125 C 298.6875 59.828125 312.289062 73.425781 312.289062 90.207031 Z M 280.980469 75.097656 C 272.605469 75.609375 266.234375 82.890625 266.753906 91.355469 C 267.269531 99.824219 274.484375 106.277344 282.855469 105.765625 C 291.234375 105.25 297.605469 97.972656 297.085938 89.503906 C 296.570312 81.03125 289.359375 74.582031 280.980469 75.097656 Z M 280.980469 75.097656 " fill-opacity="1" fill-rule="nonzero"/><path fill="#f5e4c3" d="M 491.457031 100.484375 C 491.457031 101.707031 491.394531 102.925781 491.277344 104.144531 C 491.15625 105.359375 490.976562 106.570312 490.738281 107.769531 C 490.5 108.96875 490.203125 110.152344 489.847656 111.324219 C 489.492188 112.496094 489.082031 113.644531 488.613281 114.777344 C 488.144531 115.90625 487.621094 117.011719 487.046875 118.089844 C 486.46875 119.167969 485.839844 120.214844 485.160156 121.234375 C 484.480469 122.25 483.753906 123.230469 482.976562 124.175781 C 482.203125 125.121094 481.382812 126.027344 480.515625 126.894531 C 479.652344 127.757812 478.746094 128.578125 477.800781 129.355469 C 476.855469 130.128906 475.875 130.859375 474.855469 131.539062 C 473.839844 132.21875 472.792969 132.84375 471.710938 133.421875 C 470.632812 134 469.527344 134.519531 468.398438 134.988281 C 467.269531 135.457031 466.117188 135.871094 464.949219 136.222656 C 463.777344 136.578125 462.59375 136.875 461.390625 137.113281 C 460.191406 137.355469 458.984375 137.53125 457.765625 137.652344 C 456.550781 137.773438 455.328125 137.832031 454.105469 137.832031 C 452.882812 137.832031 451.664062 137.773438 450.445312 137.652344 C 449.226562 137.53125 448.019531 137.351562 446.820312 137.113281 C 445.621094 136.875 444.433594 136.578125 443.261719 136.222656 C 442.09375 135.871094 440.941406 135.457031 439.8125 134.988281 C 438.683594 134.519531 437.578125 134 436.5 133.421875 C 435.421875 132.84375 434.371094 132.21875 433.355469 131.539062 C 432.339844 130.859375 431.355469 130.128906 430.410156 129.355469 C 429.464844 128.578125 428.558594 127.757812 427.695312 126.894531 C 426.832031 126.027344 426.011719 125.121094 425.234375 124.175781 C 424.457031 123.230469 423.730469 122.25 423.050781 121.234375 C 422.371094 120.214844 421.742188 119.167969 421.164062 118.089844 C 420.589844 117.011719 420.066406 115.90625 419.597656 114.777344 C 419.128906 113.644531 418.71875 112.496094 418.363281 111.324219 C 418.007812 110.152344 417.710938 108.96875 417.472656 107.769531 C 417.234375 106.570312 417.054688 105.359375 416.9375 104.144531 C 416.816406 102.925781 416.753906 101.707031 416.753906 100.484375 C 416.753906 99.257812 416.816406 98.039062 416.9375 96.820312 C 417.054688 95.605469 417.234375 94.394531 417.472656 93.195312 C 417.710938 91.996094 418.007812 90.8125 418.363281 89.640625 C 418.71875 88.46875 419.128906 87.320312 419.597656 86.1875 C 420.066406 85.058594 420.589844 83.953125 421.164062 82.875 C 421.742188 81.796875 422.371094 80.75 423.050781 79.730469 C 423.730469 78.714844 424.457031 77.734375 425.234375 76.789062 C 426.011719 75.84375 426.832031 74.9375 427.695312 74.070312 C 428.558594 73.207031 429.464844 72.386719 430.410156 71.609375 C 431.355469 70.835938 432.339844 70.105469 433.355469 69.425781 C 434.371094 68.746094 435.421875 68.121094 436.5 67.542969 C 437.578125 66.964844 438.683594 66.445312 439.8125 65.976562 C 440.941406 65.507812 442.09375 65.097656 443.261719 64.742188 C 444.433594 64.386719 445.621094 64.089844 446.820312 63.851562 C 448.019531 63.613281 449.226562 63.433594 450.445312 63.3125 C 451.664062 63.191406 452.882812 63.132812 454.105469 63.132812 C 455.328125 63.132812 456.550781 63.191406 457.765625 63.3125 C 458.984375 63.433594 460.191406 63.613281 461.390625 63.851562 C 462.59375 64.089844 463.777344 64.386719 464.949219 64.742188 C 466.117188 65.097656 467.269531 65.507812 468.398438 65.976562 C 469.527344 66.445312 470.632812 66.964844 471.710938 67.542969 C 472.792969 68.121094 473.839844 68.746094 474.855469 69.425781 C 475.875 70.105469 476.855469 70.835938 477.800781 71.609375 C 478.746094 72.386719 479.652344 73.207031 480.515625 74.070312 C 481.382812 74.9375 482.203125 75.84375 482.976562 76.789062 C 483.753906 77.734375 484.480469 78.714844 485.160156 79.730469 C 485.839844 80.75 486.46875 81.796875 487.046875 82.875 C 487.621094 83.953125 488.144531 85.058594 488.613281 86.1875 C 489.082031 87.320312 489.492188 88.46875 489.847656 89.640625 C 490.203125 90.8125 490.5 91.996094 490.738281 93.195312 C 490.976562 94.394531 491.15625 95.605469 491.277344 96.820312 C 491.394531 98.039062 491.457031 99.257812 491.457031 100.484375 Z M 491.457031 100.484375 " fill-opacity="1" fill-rule="nonzero"/><path fill="#f5e4c3" d="M 297.078125 89.507812 C 297.136719 90.515625 297.101562 91.519531 296.96875 92.519531 C 296.835938 93.519531 296.605469 94.496094 296.28125 95.449219 C 295.957031 96.402344 295.542969 97.3125 295.039062 98.183594 C 294.539062 99.054688 293.957031 99.867188 293.296875 100.625 C 292.636719 101.378906 291.910156 102.0625 291.113281 102.671875 C 290.320312 103.28125 289.476562 103.804688 288.578125 104.246094 C 287.683594 104.6875 286.75 105.039062 285.785156 105.292969 C 284.820312 105.550781 283.839844 105.707031 282.84375 105.769531 C 281.847656 105.832031 280.855469 105.792969 279.867188 105.65625 C 278.878906 105.519531 277.914062 105.285156 276.96875 104.957031 C 276.023438 104.628906 275.121094 104.210938 274.261719 103.699219 C 273.398438 103.191406 272.59375 102.601562 271.84375 101.933594 C 271.097656 101.265625 270.421875 100.53125 269.816406 99.726562 C 269.210938 98.921875 268.691406 98.066406 268.253906 97.160156 C 267.816406 96.253906 267.46875 95.3125 267.214844 94.335938 C 266.957031 93.363281 266.800781 92.371094 266.738281 91.363281 C 266.679688 90.355469 266.714844 89.355469 266.847656 88.355469 C 266.980469 87.355469 267.210938 86.378906 267.535156 85.425781 C 267.859375 84.472656 268.273438 83.558594 268.773438 82.6875 C 269.277344 81.816406 269.859375 81.003906 270.519531 80.25 C 271.179688 79.496094 271.90625 78.8125 272.703125 78.203125 C 273.496094 77.59375 274.339844 77.066406 275.238281 76.625 C 276.132812 76.183594 277.066406 75.835938 278.03125 75.578125 C 278.996094 75.324219 279.976562 75.164062 280.972656 75.105469 C 281.96875 75.042969 282.960938 75.082031 283.949219 75.21875 C 284.9375 75.355469 285.902344 75.585938 286.847656 75.917969 C 287.789062 76.246094 288.695312 76.664062 289.554688 77.171875 C 290.417969 77.679688 291.222656 78.269531 291.972656 78.9375 C 292.71875 79.609375 293.394531 80.34375 294 81.148438 C 294.605469 81.949219 295.125 82.804688 295.5625 83.710938 C 296 84.621094 296.347656 85.5625 296.601562 86.535156 C 296.855469 87.511719 297.015625 88.503906 297.078125 89.507812 Z M 297.078125 89.507812 " fill-opacity="1" fill-rule="nonzero"/><path fill="#080706" d="M 229.496094 186.011719 C 229.496094 213.207031 207.453125 235.25 180.257812 235.25 C 153.0625 235.25 131.019531 213.207031 131.019531 186.011719 C 131.019531 158.816406 153.0625 136.773438 180.257812 136.773438 C 207.453125 136.773438 229.496094 158.816406 229.496094 186.011719 Z M 214.636719 186.046875 C 214.636719 167.085938 199.265625 151.710938 180.304688 151.710938 C 161.34375 151.710938 145.96875 167.082031 145.96875 186.046875 C 145.96875 205.007812 161.339844 220.378906 180.304688 220.378906 C 199.265625 220.378906 214.636719 205.003906 214.636719 186.046875 Z M 214.636719 186.046875 " fill-opacity="1" fill-rule="nonzero"/><path fill="#f5e4c3" d="M 204.578125 161.769531 C 205.375 162.5625 206.128906 163.394531 206.839844 164.265625 C 207.554688 165.132812 208.222656 166.035156 208.847656 166.972656 C 209.472656 167.90625 210.050781 168.871094 210.578125 169.863281 C 211.109375 170.851562 211.589844 171.867188 212.019531 172.90625 C 212.449219 173.945312 212.828125 175.003906 213.15625 176.078125 C 213.480469 177.15625 213.753906 178.246094 213.972656 179.347656 C 214.195312 180.449219 214.359375 181.5625 214.46875 182.679688 C 214.578125 183.800781 214.632812 184.921875 214.632812 186.046875 C 214.632812 187.171875 214.578125 188.292969 214.46875 189.410156 C 214.359375 190.53125 214.195312 191.640625 213.972656 192.742188 C 213.753906 193.847656 213.480469 194.9375 213.15625 196.011719 C 212.828125 197.089844 212.449219 198.144531 212.019531 199.183594 C 211.589844 200.222656 211.109375 201.238281 210.578125 202.230469 C 210.050781 203.222656 209.472656 204.183594 208.847656 205.121094 C 208.222656 206.054688 207.554688 206.957031 206.839844 207.828125 C 206.128906 208.695312 205.375 209.527344 204.578125 210.324219 C 203.78125 211.117188 202.949219 211.871094 202.082031 212.585938 C 201.210938 213.296875 200.308594 213.96875 199.375 214.59375 C 198.441406 215.21875 197.476562 215.792969 196.484375 216.324219 C 195.492188 216.855469 194.480469 217.335938 193.441406 217.765625 C 192.402344 218.195312 191.34375 218.574219 190.265625 218.898438 C 189.191406 219.226562 188.101562 219.5 187 219.71875 C 185.894531 219.9375 184.785156 220.101562 183.667969 220.214844 C 182.546875 220.324219 181.425781 220.378906 180.300781 220.378906 C 179.175781 220.378906 178.054688 220.324219 176.9375 220.214844 C 175.816406 220.101562 174.707031 219.9375 173.601562 219.71875 C 172.5 219.5 171.410156 219.226562 170.335938 218.898438 C 169.257812 218.574219 168.203125 218.195312 167.164062 217.765625 C 166.125 217.335938 165.109375 216.855469 164.117188 216.324219 C 163.125 215.792969 162.160156 215.21875 161.226562 214.59375 C 160.292969 213.96875 159.390625 213.296875 158.519531 212.585938 C 157.652344 211.871094 156.820312 211.117188 156.023438 210.324219 C 155.230469 209.527344 154.476562 208.695312 153.761719 207.828125 C 153.046875 206.957031 152.378906 206.054688 151.753906 205.121094 C 151.128906 204.183594 150.550781 203.222656 150.023438 202.230469 C 149.492188 201.238281 149.011719 200.222656 148.582031 199.183594 C 148.152344 198.144531 147.773438 197.089844 147.445312 196.011719 C 147.121094 194.9375 146.847656 193.847656 146.628906 192.742188 C 146.410156 191.640625 146.246094 190.53125 146.132812 189.410156 C 146.023438 188.292969 145.96875 187.171875 145.96875 186.046875 C 145.96875 184.921875 146.023438 183.800781 146.132812 182.679688 C 146.246094 181.5625 146.410156 180.449219 146.628906 179.347656 C 146.847656 178.246094 147.121094 177.15625 147.445312 176.078125 C 147.773438 175.003906 148.152344 173.945312 148.582031 172.90625 C 149.011719 171.867188 149.492188 170.851562 150.023438 169.863281 C 150.550781 168.871094 151.128906 167.90625 151.753906 166.972656 C 152.378906 166.035156 153.046875 165.132812 153.761719 164.265625 C 154.476562 163.394531 155.230469 162.5625 156.023438 161.769531 C 156.820312 160.972656 157.652344 160.21875 158.519531 159.507812 C 159.390625 158.792969 160.292969 158.125 161.226562 157.5 C 162.160156 156.875 163.125 156.296875 164.117188 155.765625 C 165.109375 155.238281 166.125 154.757812 167.164062 154.328125 C 168.203125 153.894531 169.257812 153.519531 170.335938 153.191406 C 171.410156 152.863281 172.5 152.59375 173.601562 152.371094 C 174.707031 152.152344 175.816406 151.988281 176.9375 151.878906 C 178.054688 151.769531 179.175781 151.714844 180.300781 151.714844 C 181.425781 151.714844 182.546875 151.769531 183.667969 151.878906 C 184.785156 151.988281 185.894531 152.152344 187 152.371094 C 188.101562 152.59375 189.191406 152.863281 190.265625 153.191406 C 191.34375 153.519531 192.402344 153.894531 193.441406 154.328125 C 194.480469 154.757812 195.492188 155.238281 196.484375 155.765625 C 197.476562 156.296875 198.441406 156.875 199.375 157.5 C 200.308594 158.125 201.210938 158.792969 202.082031 159.507812 C 202.949219 160.21875 203.78125 160.972656 204.578125 161.769531 Z M 204.578125 161.769531 " fill-opacity="1" fill-rule="nonzero"/><path fill="#080706" d="M 578.160156 174.121094 C 595.742188 183.273438 602.546875 205 593.359375 222.652344 C 584.167969 240.308594 562.464844 247.199219 544.882812 238.046875 C 527.300781 228.894531 520.496094 207.164062 529.683594 189.511719 C 538.875 171.859375 560.578125 164.96875 578.160156 174.121094 Z M 560.675781 184.902344 C 549.148438 185.367188 540.1875 195.183594 540.65625 206.832031 C 541.125 218.480469 550.847656 227.546875 562.371094 227.082031 C 573.898438 226.617188 582.859375 216.804688 582.390625 205.15625 C 581.921875 193.507812 572.199219 184.441406 560.675781 184.902344 Z M 560.675781 184.902344 " fill-opacity="1" fill-rule="nonzero"/><path fill="#f5e4c3" d="M 582.382812 205.171875 C 582.414062 205.863281 582.40625 206.554688 582.367188 207.246094 C 582.328125 207.933594 582.253906 208.621094 582.148438 209.304688 C 582.042969 209.988281 581.902344 210.664062 581.730469 211.332031 C 581.558594 212 581.355469 212.660156 581.121094 213.308594 C 580.882812 213.957031 580.617188 214.59375 580.320312 215.214844 C 580.023438 215.835938 579.695312 216.441406 579.339844 217.03125 C 578.980469 217.621094 578.597656 218.191406 578.183594 218.742188 C 577.773438 219.292969 577.335938 219.824219 576.871094 220.332031 C 576.40625 220.839844 575.921875 221.324219 575.410156 221.78125 C 574.898438 222.242188 574.367188 222.675781 573.816406 223.082031 C 573.261719 223.488281 572.691406 223.867188 572.101562 224.214844 C 571.511719 224.566406 570.90625 224.886719 570.285156 225.175781 C 569.664062 225.464844 569.03125 225.722656 568.386719 225.949219 C 567.738281 226.175781 567.082031 226.371094 566.417969 226.535156 C 565.753906 226.695312 565.082031 226.824219 564.40625 226.917969 C 563.726562 227.011719 563.046875 227.074219 562.363281 227.101562 C 561.679688 227.128906 560.996094 227.121094 560.316406 227.082031 C 559.632812 227.042969 558.953125 226.96875 558.277344 226.859375 C 557.601562 226.753906 556.933594 226.609375 556.269531 226.4375 C 555.609375 226.261719 554.957031 226.054688 554.3125 225.816406 C 553.671875 225.578125 553.042969 225.308594 552.429688 225.007812 C 551.8125 224.703125 551.210938 224.375 550.628906 224.011719 C 550.046875 223.652344 549.480469 223.261719 548.933594 222.84375 C 548.386719 222.429688 547.863281 221.984375 547.359375 221.515625 C 546.859375 221.046875 546.378906 220.554688 545.925781 220.039062 C 545.46875 219.523438 545.039062 218.984375 544.636719 218.425781 C 544.234375 217.867188 543.859375 217.289062 543.515625 216.691406 C 543.167969 216.09375 542.851562 215.484375 542.5625 214.855469 C 542.277344 214.226562 542.019531 213.585938 541.796875 212.933594 C 541.570312 212.28125 541.378906 211.617188 541.21875 210.945312 C 541.054688 210.273438 540.929688 209.597656 540.835938 208.910156 C 540.738281 208.226562 540.679688 207.539062 540.652344 206.847656 C 540.625 206.15625 540.628906 205.46875 540.667969 204.777344 C 540.707031 204.085938 540.78125 203.398438 540.886719 202.71875 C 540.992188 202.035156 541.132812 201.359375 541.304688 200.691406 C 541.476562 200.019531 541.679688 199.363281 541.914062 198.714844 C 542.152344 198.066406 542.417969 197.429688 542.714844 196.808594 C 543.011719 196.183594 543.339844 195.578125 543.699219 194.988281 C 544.054688 194.398438 544.4375 193.828125 544.851562 193.277344 C 545.261719 192.726562 545.699219 192.195312 546.164062 191.6875 C 546.628906 191.179688 547.113281 190.699219 547.625 190.238281 C 548.136719 189.777344 548.667969 189.347656 549.222656 188.9375 C 549.773438 188.53125 550.34375 188.15625 550.933594 187.804688 C 551.523438 187.453125 552.128906 187.136719 552.75 186.84375 C 553.371094 186.554688 554.003906 186.296875 554.652344 186.070312 C 555.296875 185.84375 555.953125 185.648438 556.617188 185.488281 C 557.28125 185.328125 557.953125 185.199219 558.628906 185.101562 C 559.308594 185.007812 559.988281 184.945312 560.671875 184.917969 C 561.355469 184.890625 562.039062 184.898438 562.722656 184.9375 C 563.402344 184.980469 564.082031 185.054688 564.757812 185.160156 C 565.433594 185.269531 566.101562 185.410156 566.765625 185.585938 C 567.425781 185.757812 568.078125 185.964844 568.722656 186.203125 C 569.363281 186.445312 569.992188 186.714844 570.609375 187.015625 C 571.222656 187.316406 571.824219 187.648438 572.40625 188.007812 C 572.992188 188.371094 573.554688 188.757812 574.101562 189.175781 C 574.648438 189.59375 575.171875 190.035156 575.675781 190.503906 C 576.175781 190.972656 576.65625 191.464844 577.109375 191.984375 C 577.566406 192.5 577.996094 193.039062 578.398438 193.597656 C 578.800781 194.15625 579.175781 194.734375 579.523438 195.328125 C 579.867188 195.925781 580.183594 196.539062 580.472656 197.164062 C 580.757812 197.792969 581.015625 198.433594 581.242188 199.085938 C 581.464844 199.738281 581.65625 200.402344 581.820312 201.074219 C 581.980469 201.746094 582.105469 202.425781 582.203125 203.109375 C 582.296875 203.792969 582.355469 204.484375 582.382812 205.171875 Z M 582.382812 205.171875 " fill-opacity="1" fill-rule="nonzero"/><path fill="#f5e4c3" d="M 322.21875 284.980469 C 322.089844 284.761719 322.160156 284.480469 322.378906 284.355469 C 322.445312 284.3125 322.519531 284.289062 322.597656 284.289062 L 370.878906 282.6875 C 371.136719 282.679688 371.351562 282.886719 371.359375 283.144531 L 372.636719 321.5625 C 372.648438 321.984375 372.316406 322.339844 371.894531 322.351562 C 371.890625 322.351562 371.886719 322.351562 371.882812 322.351562 C 365.492188 322.410156 359.332031 323.019531 353.402344 324.1875 C 352.972656 324.277344 352.523438 324.148438 352.210938 323.84375 C 340.402344 312.4375 330.40625 299.480469 322.21875 284.980469 Z M 322.21875 284.980469 " fill-opacity="1" fill-rule="nonzero"/><path fill="#f5e4c3" d="M 429.304688 284.445312 C 429.597656 284.453125 429.828125 284.703125 429.820312 284.992188 C 429.816406 285.078125 429.792969 285.160156 429.75 285.234375 C 421.621094 299.054688 411.980469 311.742188 400.828125 323.304688 C 400.296875 323.851562 399.519531 324.085938 398.769531 323.917969 C 393.9375 322.824219 388.886719 322.355469 383.617188 322.515625 C 383.382812 322.523438 383.183594 322.332031 383.171875 322.09375 L 381.890625 283.574219 C 381.878906 283.152344 382.207031 282.796875 382.625 282.785156 C 382.644531 282.785156 382.664062 282.785156 382.679688 282.785156 Z M 429.304688 284.445312 " fill-opacity="1" fill-rule="nonzero"/><path fill="#f5e4c3" d="M 339.984375 327.269531 C 334.152344 328.769531 328.617188 330.882812 323.378906 333.605469 C 322.992188 333.800781 322.535156 333.8125 322.140625 333.636719 C 319.1875 332.308594 316.417969 330.953125 313.835938 329.570312 C 293.261719 318.621094 273.921875 305.847656 255.816406 291.265625 C 255.5625 291.050781 255.523438 290.671875 255.738281 290.417969 C 255.835938 290.300781 255.96875 290.226562 256.113281 290.207031 C 273.734375 287.964844 291.402344 286.292969 309.117188 285.1875 C 309.515625 285.164062 309.898438 285.367188 310.097656 285.722656 C 318.488281 300.953125 328.503906 314.625 340.144531 326.734375 C 340.265625 326.867188 340.257812 327.066406 340.128906 327.191406 C 340.089844 327.230469 340.042969 327.257812 339.984375 327.269531 Z M 339.984375 327.269531 " fill-opacity="1" fill-rule="nonzero"/><path fill="#f5e4c3" d="M 413.527344 326.289062 C 413.359375 326.238281 413.261719 326.054688 413.316406 325.886719 C 413.332031 325.839844 413.351562 325.800781 413.382812 325.765625 C 424.046875 313.585938 433.636719 300.304688 442.148438 285.921875 C 442.367188 285.550781 442.769531 285.339844 443.199219 285.363281 C 462.382812 286.558594 481.550781 288.578125 500.710938 291.421875 C 500.894531 291.453125 501.023438 291.628906 500.988281 291.820312 C 500.976562 291.898438 500.9375 291.972656 500.875 292.023438 C 480.707031 308.59375 458.792969 322.277344 435.128906 333.066406 C 435.019531 333.117188 434.890625 333.128906 434.773438 333.089844 Z M 413.527344 326.289062 " fill-opacity="1" fill-rule="nonzero"/><path fill="#f5e4c3" d="M 188.796875 303.003906 C 188.738281 302.910156 188.765625 302.785156 188.859375 302.726562 C 188.878906 302.714844 188.898438 302.707031 188.921875 302.699219 C 205.761719 298.441406 222.6875 295.082031 239.703125 292.625 C 240.101562 292.578125 240.5 292.695312 240.792969 292.949219 C 261.789062 311.148438 285.480469 326.632812 309.96875 339.761719 C 310.515625 340.054688 310.726562 340.734375 310.433594 341.28125 C 310.269531 341.59375 309.960938 341.808594 309.613281 341.863281 C 308.398438 342.050781 307.152344 342.015625 305.886719 341.753906 C 299.964844 340.519531 294.808594 339.332031 290.421875 338.179688 C 257.902344 329.652344 224.347656 318.132812 189.761719 303.625 C 189.238281 303.402344 188.917969 303.195312 188.796875 303.003906 Z M 188.796875 303.003906 " fill-opacity="1" fill-rule="nonzero"/><path fill="#f5e4c3" d="M 562.101562 303.058594 C 562.257812 303.097656 562.355469 303.25 562.320312 303.40625 C 562.300781 303.492188 562.238281 303.566406 562.15625 303.605469 C 527.023438 318.855469 490.367188 331.558594 452.316406 340.964844 C 450.757812 341.351562 449.351562 341.195312 448.097656 340.5 C 447.679688 340.265625 447.527344 339.738281 447.761719 339.320312 C 447.847656 339.167969 447.972656 339.042969 448.132812 338.964844 C 472.398438 326.726562 494.804688 311.796875 515.347656 294.179688 C 515.652344 293.910156 516.0625 293.792969 516.472656 293.859375 C 531.59375 296.265625 546.804688 299.332031 562.101562 303.058594 Z M 562.101562 303.058594 " fill-opacity="1" fill-rule="nonzero"/><path fill="#f5e4c3" d="M 300.8125 352.800781 L 300.175781 357.574219 C 300.117188 358.03125 299.75 358.382812 299.296875 358.421875 C 286.882812 359.390625 272.988281 360.738281 260.679688 360.902344 C 217.164062 361.503906 173.101562 358.945312 130.699219 349.691406 C 128.449219 349.203125 127.191406 347.464844 125.910156 345.164062 C 122.792969 339.550781 123.265625 334.550781 127.324219 330.15625 C 137.980469 318.625 155.46875 312.441406 170.742188 307.777344 C 171.445312 307.5625 172.207031 307.609375 172.878906 307.914062 C 214.285156 326.46875 256.738281 341.148438 300.246094 351.964844 C 300.617188 352.054688 300.867188 352.414062 300.8125 352.800781 Z M 300.8125 352.800781 " fill-opacity="1" fill-rule="nonzero"/><path fill="#f5e4c3" d="M 625.488281 333.246094 C 625.640625 333.457031 625.585938 333.75 625.378906 333.898438 C 625.339844 333.925781 625.296875 333.945312 625.257812 333.960938 C 610.421875 338.84375 595.378906 342.871094 580.125 346.050781 C 541.09375 354.160156 501.859375 357.910156 462.410156 357.292969 C 461.949219 357.285156 461.527344 357.011719 461.339844 356.582031 L 459.148438 351.371094 C 458.996094 351.003906 459.171875 350.578125 459.539062 350.425781 C 459.570312 350.410156 459.605469 350.398438 459.636719 350.390625 C 500.21875 339.800781 539.742188 325.675781 578.207031 308.011719 C 578.519531 307.867188 578.871094 307.84375 579.199219 307.945312 C 591.230469 311.484375 602.34375 316.144531 612.542969 321.925781 C 617.847656 324.941406 622.160156 328.714844 625.488281 333.246094 Z M 625.488281 333.246094 " fill-opacity="1" fill-rule="nonzero"/><path fill="#f5e4c3" d="M 446.554688 361.558594 C 440.398438 428.507812 446.132812 495.878906 460.148438 561.519531 C 464.203125 580.503906 467.699219 596.746094 470.644531 610.242188 C 475.339844 631.753906 477.789062 655.597656 471.890625 677.070312 C 462.496094 711.246094 435.121094 725.417969 400.53125 731.308594 C 380.398438 734.726562 359.914062 734.882812 339.082031 731.765625 C 313 727.867188 287.488281 716.570312 274.136719 693.210938 C 267.066406 680.832031 264.355469 667.453125 264.332031 653.3125 C 264.308594 636.601562 266.414062 621.039062 269.152344 603.375 C 272.210938 583.699219 276.953125 557.726562 283.378906 525.449219 C 298.0625 451.699219 306.195312 410.433594 307.78125 401.644531 C 311.460938 381.222656 313.910156 367.320312 315.121094 359.941406 C 315.4375 357.96875 316.292969 356.402344 317.691406 355.253906 C 323.890625 350.15625 331.414062 346.175781 340.265625 343.320312 C 365.367188 335.226562 393.210938 336.351562 418.695312 343.867188 C 427.632812 346.496094 441.039062 352.015625 446.160156 359.941406 C 446.464844 360.421875 446.609375 360.988281 446.554688 361.558594 Z M 446.554688 361.558594 " fill-opacity="1" fill-rule="nonzero"/><path fill="#f5e4c3" d="M 623.675781 345.683594 C 623.925781 345.601562 624.195312 345.738281 624.277344 345.988281 C 624.328125 346.15625 624.292969 346.335938 624.175781 346.460938 C 618.195312 352.859375 611.449219 357.980469 603.9375 361.824219 C 575.101562 376.566406 542.753906 385.289062 511.015625 392.113281 C 510.664062 392.195312 510.292969 392.195312 509.9375 392.113281 C 492.816406 388.328125 476.742188 382.976562 461.710938 376.058594 C 461.300781 375.871094 461.042969 375.453125 461.058594 375 L 461.277344 368.644531 C 461.296875 368.226562 461.644531 367.894531 462.054688 367.910156 C 517.925781 369.03125 571.796875 361.617188 623.675781 345.683594 Z M 623.675781 345.683594 " fill-opacity="1" fill-rule="nonzero"/><path fill="#f5e4c3" d="M 297.496094 370.308594 L 296.382812 378.792969 C 296.289062 379.5 295.839844 380.113281 295.195312 380.417969 C 283.289062 386.019531 270.996094 390.855469 258.3125 394.921875 C 257.914062 395.046875 257.503906 395.078125 257.097656 395.023438 C 229.296875 390.554688 202.203125 383.78125 175.824219 374.703125 C 168.550781 372.203125 161.292969 369.285156 154.046875 365.941406 C 153.832031 365.847656 153.738281 365.597656 153.835938 365.382812 C 153.914062 365.207031 154.101562 365.105469 154.292969 365.128906 C 192.542969 370.71875 231.140625 372.824219 270.082031 371.453125 C 273.359375 371.332031 282.285156 370.726562 296.851562 369.625 C 297.1875 369.605469 297.480469 369.855469 297.503906 370.1875 C 297.5 370.230469 297.5 370.269531 297.496094 370.308594 Z M 297.496094 370.308594 " fill-opacity="1" fill-rule="nonzero"/><path fill="#f5e4c3" d="M 460.894531 388.121094 L 484.328125 396.066406 C 484.515625 396.140625 484.609375 396.355469 484.53125 396.546875 C 484.484375 396.664062 484.382812 396.746094 484.261719 396.769531 L 459.769531 400.265625 C 459.566406 400.292969 459.382812 400.152344 459.359375 399.949219 C 459.355469 399.925781 459.355469 399.898438 459.355469 399.878906 L 460.414062 388.445312 C 460.429688 388.242188 460.605469 388.089844 460.804688 388.105469 C 460.839844 388.105469 460.871094 388.113281 460.894531 388.121094 Z M 460.894531 388.121094 " fill-opacity="1" fill-rule="nonzero"/><path fill="#f5e4c3" d="M 281.210938 399.082031 C 281.027344 399.070312 280.886719 398.90625 280.902344 398.726562 C 280.914062 398.597656 280.996094 398.484375 281.121094 398.441406 L 292.765625 393.539062 C 292.945312 393.457031 293.152344 393.535156 293.238281 393.714844 C 293.265625 393.78125 293.273438 393.851562 293.265625 393.917969 L 292.5 399.816406 C 292.441406 400.222656 292.070312 400.507812 291.664062 400.453125 Z M 281.210938 399.082031 " fill-opacity="1" fill-rule="nonzero"/></svg>