<svg xmlns="http://www.w3.org/2000/svg" xmlns:xlink="http://www.w3.org/1999/xlink" width="1000" zoomAndPan="magnify" viewBox="0 0 750 749.999995" height="1000" preserveAspectRatio="xMidYMid meet" version="1.0"><defs><clipPath id="5e68fcf53a"><path d="M 0 171.5625 L 173 171.5625 L 173 472.3125 L 0 472.3125 Z M 0 171.5625 " clip-rule="nonzero"/></clipPath><clipPath id="5ed9d788be"><path d="M 577 171.5625 L 750 171.5625 L 750 472.3125 L 577 472.3125 Z M 577 171.5625 " clip-rule="nonzero"/></clipPath></defs><g clip-path="url(#5e68fcf53a)"><path fill="#e52425" d="M 50.589844 251.480469 L 51.960938 254.523438 C 66.507812 285.828125 80.558594 309.917969 94.117188 326.792969 C 108.535156 345.078125 132.71875 367.121094 166.667969 392.917969 C 170.03125 395.695312 171.882812 399.308594 172.222656 403.757812 C 171.957031 409.988281 165.347656 417.394531 152.390625 425.976562 C 106.671875 455.238281 80.605469 470.09375 74.191406 470.542969 C 59.5625 476.660156 46.914062 467.566406 36.242188 443.265625 C 8.226562 382.382812 -3.519531 321.65625 1.007812 261.082031 C 2.824219 240.957031 6.066406 221.027344 10.742188 201.296875 C 14.347656 183.332031 18.179688 173.410156 22.242188 171.539062 C 25.910156 171.847656 28.503906 174.941406 30.027344 180.816406 C 31.328125 184.15625 35.96875 201.320312 43.941406 232.308594 C 46.3125 240.492188 48.527344 246.882812 50.589844 251.480469 " fill-opacity="1" fill-rule="nonzero"/></g><g clip-path="url(#5ed9d788be)"><path fill="#e52425" d="M 699.558594 251.480469 L 698.1875 254.523438 C 683.640625 285.828125 669.589844 309.917969 656.03125 326.792969 C 641.613281 345.078125 617.429688 367.121094 583.480469 392.917969 C 580.117188 395.695312 578.265625 399.308594 577.925781 403.757812 C 578.191406 409.988281 584.800781 417.394531 597.757812 425.980469 C 643.476562 455.238281 669.542969 470.09375 675.957031 470.542969 C 690.585938 476.660156 703.234375 467.566406 713.90625 443.265625 C 741.921875 382.382812 753.667969 321.65625 749.140625 261.082031 C 747.324219 240.957031 744.082031 221.027344 739.40625 201.296875 C 735.800781 183.332031 731.96875 173.410156 727.90625 171.539062 C 724.238281 171.847656 721.644531 174.941406 720.121094 180.816406 C 718.820312 184.15625 714.179688 201.320312 706.203125 232.308594 C 703.835938 240.492188 701.621094 246.882812 699.558594 251.480469 " fill-opacity="1" fill-rule="nonzero"/></g></svg>