<svg xmlns="http://www.w3.org/2000/svg" xmlns:xlink="http://www.w3.org/1999/xlink" width="1000" zoomAndPan="magnify" viewBox="0 0 750 749.999995" height="1000" preserveAspectRatio="xMidYMid meet" version="1.0"><defs><clipPath id="e7f1f1e880"><path d="M 40.226562 0 L 709.976562 0 L 709.976562 750 L 40.226562 750 Z M 40.226562 0 " clip-rule="nonzero"/></clipPath></defs><g clip-path="url(#e7f1f1e880)"><path fill="#ff2828" d="M 127.679688 459.042969 C 107.984375 478.355469 93.132812 502.214844 89.089844 529.359375 C 84.753906 558.402344 91.699219 592.597656 123.691406 630.097656 C 183.320312 700 253.410156 692.910156 308.792969 667.316406 C 316.191406 663.902344 323.285156 660.128906 329.992188 656.191406 C 333.730469 670.046875 339.804688 684 349.308594 696.695312 C 373.808594 729.394531 421.628906 758.414062 517.90625 746.527344 C 571.367188 739.929688 601.199219 717.617188 617.160156 690.570312 C 632.9375 663.824219 635.457031 629.847656 627.386719 593.644531 C 618.136719 552.140625 594.5625 507.121094 572.910156 471.996094 C 580.289062 471.082031 587.816406 469.800781 595.34375 468.054688 C 634.242188 459.023438 672.179688 437.984375 693.417969 396.792969 C 705.929688 372.527344 712.910156 340.558594 708.484375 298.199219 C 703.789062 253.355469 687.957031 224.378906 668.101562 205.648438 C 637.523438 176.808594 594.707031 170.523438 552.34375 177.242188 C 543.820312 178.59375 535.351562 180.457031 527.101562 182.652344 C 530.601562 170.71875 533.59375 158.328125 535.625 146.023438 C 543.3125 99.203125 535.425781 54.386719 504.832031 27.390625 C 484.738281 9.667969 453.402344 -2.488281 404.800781 1.574219 C 361.09375 5.226562 329.484375 18.664062 306.417969 36.59375 C 268.226562 66.289062 252.285156 109.355469 248.277344 151.03125 C 246.972656 164.660156 246.972656 178.054688 247.695312 190.511719 C 234.257812 187.164062 219.605469 184.40625 204.589844 183.113281 C 165.582031 179.753906 124.960938 186.527344 93.570312 211.800781 C 72.261719 228.964844 54.488281 254.726562 45.421875 293.527344 C 34.085938 342.078125 42.539062 377.785156 59.1875 404.308594 C 75.433594 430.246094 100.550781 447.898438 127.679688 459.042969 Z M 278.5625 281.035156 C 292.128906 287.742188 308.394531 285.707031 319.890625 275.863281 C 331.371094 266.019531 335.886719 250.265625 331.351562 235.828125 C 331.351562 235.828125 323.265625 209.695312 322.773438 177.574219 C 322.394531 152.535156 325.804688 122.761719 346.3125 101.996094 C 359.914062 88.226562 380.84375 79.402344 411.09375 76.871094 C 431.949219 75.128906 446.21875 76.453125 454.851562 84.058594 C 459.1875 87.890625 460.945312 93.382812 461.996094 99.257812 C 463.902344 109.878906 463.03125 121.761719 461.054688 133.769531 C 453 182.828125 425.402344 233.457031 425.402344 233.457031 C 417.3125 248.386719 420.179688 266.882812 432.417969 278.664062 C 444.640625 290.441406 463.230469 292.613281 477.847656 283.96875 C 477.847656 283.96875 520.0625 258.871094 564.1875 251.871094 C 582.9375 248.894531 602.707031 247.839844 616.25 260.613281 C 625.792969 269.617188 631.066406 284.492188 633.335938 306.050781 C 635.839844 330.074219 633.351562 348.410156 626.246094 362.171875 C 616.125 381.824219 596.8125 390.140625 578.261719 394.453125 C 542.878906 402.664062 507.351562 396.082031 507.351562 396.082031 C 491.828125 393.203125 476.140625 400.273438 468.035156 413.816406 C 459.929688 427.355469 461.089844 444.515625 470.957031 456.835938 C 470.957031 456.835938 517.90625 515.34375 542.84375 576.605469 C 549.441406 592.847656 554.539062 609.238281 556.007812 624.574219 C 556.988281 634.765625 556.679688 644.367188 552.074219 652.1875 C 545.417969 663.472656 530.945312 668.78125 508.640625 671.539062 C 453.402344 678.355469 423.839844 670.15625 409.785156 651.390625 C 391.089844 626.429688 402.078125 590.96875 402.078125 590.96875 C 406.667969 574.226562 399.269531 556.503906 384.125 548.007812 C 368.984375 539.515625 349.996094 542.429688 338.117188 555.082031 C 338.117188 555.082031 312.328125 582.441406 277.09375 598.722656 C 248.496094 611.945312 211.972656 617.167969 181.179688 581.0625 C 167.921875 565.53125 162.027344 552.53125 163.824219 540.503906 C 165.617188 528.5 173.996094 518.953125 182.992188 510.695312 C 208.308594 487.46875 242.964844 475.234375 242.964844 475.234375 C 260.519531 468.984375 270.890625 450.875 267.410156 432.578125 C 263.929688 414.277344 247.625 401.25 229 401.882812 C 229 401.882812 204.773438 402.605469 177.480469 395.925781 C 157.292969 390.984375 133.972656 382.804688 122.421875 362.882812 C 115.078125 350.234375 113.734375 333.234375 119.011719 310.722656 C 123.363281 292.03125 130.710938 278.917969 140.972656 270.648438 C 156.96875 257.769531 178.222656 256.683594 198.117188 258.398438 C 240.136719 262.015625 278.5625 281.035156 278.5625 281.035156 Z M 365.992188 294.746094 C 318.515625 294.746094 279.976562 333.285156 279.976562 380.753906 C 279.976562 428.21875 318.515625 466.757812 365.992188 466.757812 C 413.449219 466.757812 451.984375 428.21875 451.984375 380.753906 C 451.984375 333.285156 413.449219 294.746094 365.992188 294.746094 Z M 365.992188 370.308594 C 371.738281 370.308594 376.4375 374.988281 376.4375 380.753906 C 376.4375 386.515625 371.738281 391.195312 365.992188 391.195312 C 360.222656 391.195312 355.546875 386.515625 355.546875 380.753906 C 355.546875 374.988281 360.222656 370.308594 365.992188 370.308594 Z M 365.992188 370.308594 " fill-opacity="1" fill-rule="evenodd"/></g></svg>