<svg xmlns="http://www.w3.org/2000/svg" xmlns:xlink="http://www.w3.org/1999/xlink" width="1000" zoomAndPan="magnify" viewBox="0 0 750 749.999995" height="1000" preserveAspectRatio="xMidYMid meet" version="1.0"><path fill="#040305" d="M 696.253906 519.234375 C 694.15625 522.757812 689.566406 522.007812 685.890625 521.109375 C 678.03125 519.207031 672.316406 513.433594 665.28125 509.007812 C 664.679688 517.0625 666.148438 524.828125 663.734375 532.207031 C 662.984375 534.515625 663.179688 538.15625 659.910156 538.53125 C 656.699219 538.890625 655.921875 535.625 654.691406 533.359375 C 649.980469 524.769531 649.246094 515.367188 649.378906 504.839844 C 644.925781 509.804688 642.523438 515.308594 638.023438 519.011719 C 636.195312 520.523438 634.726562 522.9375 632.085938 522.832031 C 629.429688 522.730469 626.503906 525.097656 624.074219 522.023438 C 621.613281 518.90625 624.121094 516.714844 625.335938 514.273438 C 629.863281 505.15625 637.125 497.6875 641.191406 488.273438 C 641.773438 485.679688 642.359375 483.070312 642.945312 480.476562 C 634.019531 468.03125 634.261719 461.882812 644.160156 448.746094 C 642.328125 445.777344 642.71875 442.523438 642.886719 439.285156 C 642.015625 432.285156 641.128906 425.28125 640.261719 418.28125 C 639.824219 415.25 639.375 412.222656 638.941406 409.207031 C 638.039062 400.691406 637.140625 392.160156 636.226562 383.644531 C 636.195312 380.179688 636.148438 376.714844 636.105469 373.253906 C 634.589844 366.609375 633.824219 359.878906 633.660156 353.070312 C 633.570312 349.53125 633.480469 345.976562 633.375 342.441406 C 635.023438 340.820312 636.511719 339.035156 638.023438 337.28125 C 636.511719 339.050781 635.023438 340.835938 633.375 342.441406 C 631.335938 340.308594 631.996094 337.550781 631.933594 335.09375 C 631.828125 330.652344 629.804688 328.886719 625.53125 329.394531 C 610.09375 333.066406 594.703125 337.011719 579.195312 340.355469 C 567.644531 342.84375 567.359375 342.5 567.703125 353.835938 C 568.183594 369.339844 567.375 384.84375 567.601562 400.316406 C 567.871094 418.910156 569.804688 437.472656 570.675781 456.050781 C 571.15625 466.394531 570.808594 476.785156 571.140625 487.148438 C 571.230469 490.058594 569.070312 490.148438 567.601562 491.0625 C 554.039062 499.5625 539.023438 504.722656 523.949219 509.730469 C 507.855469 515.082031 491.578125 519.683594 474.988281 523.359375 C 452.445312 528.335938 429.71875 532.070312 406.664062 532.773438 C 380.355469 533.570312 353.953125 534.632812 327.75 531.996094 C 281.609375 527.347656 236.910156 516.492188 194.386719 497.671875 C 177.945312 490.402344 177.75 490.054688 178.605469 472.273438 C 179.21875 459.648438 179.746094 447.023438 180.796875 434.398438 C 181.949219 420.484375 180.511719 406.359375 181.515625 392.414062 C 182.59375 377.40625 181.785156 362.515625 181.394531 347.550781 C 181.289062 343.414062 179.625 342.167969 176.488281 341.464844 C 158.65625 337.417969 140.804688 333.382812 122.941406 329.441406 C 106.546875 325.839844 90.164062 322.167969 73.710938 318.898438 C 53.339844 314.851562 32.804688 311.640625 12.585938 306.796875 C 8.324219 305.808594 4.171875 304.683594 0 302.464844 C 4.019531 298.808594 8.835938 298.714844 13.15625 297.652344 C 36.839844 291.820312 60.523438 286.0625 84.300781 280.632812 C 111.644531 274.382812 138.449219 266.074219 165.703125 259.582031 C 198.824219 251.695312 231.808594 243.253906 264.988281 235.757812 C 285.601562 231.09375 306.226562 226.355469 326.953125 222.15625 C 341.863281 219.128906 356.804688 216.324219 371.386719 211.902344 C 374.414062 210.984375 377.308594 211.539062 380.386719 212.394531 C 405.839844 219.414062 431.820312 224.179688 457.53125 230.105469 C 482.460938 235.847656 507.539062 240.929688 532.363281 247.183594 C 547.816406 251.082031 563.28125 255.007812 578.789062 258.667969 C 594.839844 262.460938 610.933594 266.222656 626.730469 270.902344 C 648.496094 277.351562 670.726562 281.726562 692.789062 286.902344 C 710.609375 291.085938 728.28125 295.835938 746.023438 300.292969 C 747.34375 300.621094 748.605469 300.921875 749.984375 303.15625 C 715.828125 312.871094 680.730469 317.070312 646.558594 325.300781 C 646.546875 326.695312 646.53125 328.074219 646.53125 329.46875 C 646.636719 332.542969 648.628906 335.316406 647.894531 338.511719 C 647.445312 346.414062 651.511719 354.046875 649.304688 362.066406 C 651.390625 364.601562 650.476562 367.601562 650.550781 370.433594 C 651.34375 380.195312 654.253906 389.777344 653.160156 399.71875 C 653.59375 402.417969 654.046875 405.101562 654.496094 407.800781 C 655.785156 418.175781 657.089844 428.535156 658.378906 438.910156 C 658.800781 442.210938 658.304688 445.628906 659.699219 448.792969 C 665.128906 454.566406 670.09375 460.324219 669.496094 469.246094 C 669.195312 473.742188 667.289062 477.085938 665.101562 480.59375 C 665.203125 483.519531 668.144531 484.644531 669.148438 486.996094 C 673.949219 495.019531 680.355469 501.527344 687.871094 507.03125 C 689.460938 508.199219 690.898438 509.578125 692.234375 511.035156 C 694.425781 513.402344 698.175781 516.011719 696.253906 519.234375 Z M 696.253906 519.234375 " fill-opacity="1" fill-rule="nonzero"/><path fill="#323232" d="M 187.636719 469.875 C 187.636719 473.414062 187.828125 476.964844 187.574219 480.476562 C 187.304688 484.132812 188.761719 486.203125 192.121094 487.523438 C 200.714844 490.882812 209.070312 494.960938 217.816406 497.808594 C 248.984375 507.960938 280.261719 517.332031 313.183594 520.839844 C 335.054688 523.164062 356.941406 525.710938 378.824219 525.203125 C 395.609375 524.8125 412.53125 524.125 429.34375 521.902344 C 449.878906 519.207031 470.28125 516.011719 490.246094 510.6875 C 513.226562 504.554688 535.769531 496.984375 557.503906 487.179688 C 560.25 485.949219 561.765625 484.765625 561.886719 481.523438 C 562.425781 465.617188 561.390625 449.753906 560.054688 433.964844 C 558.796875 419.074219 559.183594 404.171875 558.601562 389.296875 C 558.089844 376.328125 558.839844 363.296875 559.171875 350.3125 C 559.273438 346.171875 557.984375 344.734375 553.648438 345.886719 C 540.914062 349.292969 528.136719 352.546875 515.308594 355.605469 C 474.871094 365.261719 434.671875 375.757812 394.769531 387.4375 C 383.144531 390.839844 372.148438 393.148438 359.640625 388.964844 C 338.386719 381.84375 316.425781 376.867188 294.765625 370.957031 C 262.5 362.15625 229.996094 354.328125 197.535156 346.339844 C 191.65625 344.882812 190.09375 345.992188 190.289062 351.886719 C 190.726562 365.246094 191.085938 378.636719 190.726562 391.980469 C 190.019531 417.964844 188.804688 443.917969 187.800781 469.890625 C 187.738281 469.875 187.679688 469.875 187.636719 469.875 Z M 644.144531 316.5 C 663.480469 312.363281 682.828125 308.253906 702.164062 304.160156 C 703.546875 303.859375 705.78125 304.640625 705.75 302.375 C 705.71875 300.53125 703.726562 300.5 702.179688 300.1875 C 694.441406 298.566406 686.640625 297.140625 679.003906 295.101562 C 660.75 290.246094 642.464844 285.492188 624.390625 279.929688 C 608.234375 274.964844 591.628906 271.414062 575.234375 267.257812 C 552.433594 261.488281 529.710938 255.367188 506.804688 250.046875 C 486.523438 245.335938 465.886719 242.097656 445.664062 237.121094 C 422.671875 231.453125 399 228.542969 376.648438 220.28125 C 375.496094 219.847656 374.519531 220.058594 373.484375 220.523438 C 363.523438 225.035156 352.621094 225.90625 342.148438 228.257812 C 300.539062 237.585938 258.808594 246.328125 217.378906 256.492188 C 186.40625 264.09375 155.191406 270.828125 124.621094 279.972656 C 99.089844 287.621094 73.46875 294.726562 47.398438 300.15625 C 45.871094 300.472656 43.890625 300.457031 43.738281 302.285156 C 43.546875 304.550781 45.871094 304.085938 47.203125 304.371094 C 58.980469 306.917969 70.785156 309.300781 82.558594 311.867188 C 102.75 316.261719 122.820312 321.207031 143.101562 325.105469 C 174.839844 331.210938 206.191406 339.035156 237.628906 346.429688 C 258.601562 351.347656 279.421875 356.925781 300.210938 362.589844 C 322.933594 368.785156 345.539062 375.398438 368.203125 381.828125 C 371.683594 382.820312 375.316406 382.921875 378.703125 382.097656 C 388.289062 379.773438 397.785156 377.074219 407.28125 374.453125 C 429.449219 368.320312 451.546875 361.960938 473.773438 356.070312 C 491.386719 351.40625 509.21875 347.597656 526.816406 342.875 C 550.828125 336.425781 575.21875 331.777344 599.429688 326.261719 C 592.109375 325.285156 584.773438 324.328125 577.453125 323.351562 C 574.019531 322.960938 570.585938 322.574219 567.148438 322.183594 C 559.09375 320.96875 551.039062 319.753906 542.984375 318.523438 C 539.460938 319.214844 536.128906 318.570312 532.890625 317.175781 C 523.378906 317.007812 514.019531 315.660156 504.765625 313.457031 C 500.714844 313.199219 496.558594 313.832031 492.703125 311.988281 C 484.273438 310.621094 475.859375 309.257812 467.429688 307.894531 C 463.410156 308.671875 459.75 306.558594 455.851562 306.484375 C 434.863281 303.15625 413.761719 300.515625 392.941406 296.226562 C 383.894531 296.226562 374.851562 296.289062 365.804688 296.210938 C 357 296.136719 350.011719 291.773438 349.753906 286.390625 C 349.5 280.8125 356.578125 274.621094 364.574219 273.707031 C 369.734375 273.121094 374.941406 272.535156 380.128906 272.582031 C 387.554688 272.65625 393.523438 276.164062 398.386719 281.667969 C 409.066406 281.097656 419.085938 285.027344 429.496094 286.347656 C 435.136719 287.066406 440.96875 286.644531 446.429688 288.699219 C 450.300781 289.421875 454.183594 290.140625 458.054688 290.859375 C 466.199219 291.308594 474.121094 293.167969 482.085938 294.773438 C 486.046875 295.359375 490.003906 295.957031 493.964844 296.542969 C 503.070312 296.78125 511.875 299.105469 520.816406 300.5 C 525.34375 299.644531 529.199219 302.089844 533.355469 303.066406 C 540.855469 302.253906 548.113281 303.648438 555.359375 305.359375 C 555.644531 305.121094 555.929688 304.714844 556.230469 304.683594 C 556.84375 304.625 556.980469 305 556.605469 305.507812 L 556.484375 305.390625 C 559.621094 305.6875 562.84375 305.492188 565.695312 307.1875 C 576.839844 308.207031 588.015625 308.882812 599.039062 311.042969 C 601.679688 311.085938 604.335938 311.117188 606.976562 311.160156 C 611.488281 311.730469 615.660156 314.027344 620.371094 313.621094 C 628.109375 312.960938 635.144531 316.261719 642.523438 317.652344 C 643.078125 317.234375 643.558594 316.621094 644.144531 316.5 Z M 644.144531 316.5 " fill-opacity="1" fill-rule="nonzero"/><path fill="#ffb655" d="M 641.160156 488.273438 C 637.09375 497.6875 629.835938 505.15625 625.304688 514.273438 C 624.089844 516.699219 621.585938 518.90625 624.046875 522.023438 C 626.476562 525.097656 629.398438 522.730469 632.054688 522.832031 C 634.695312 522.9375 636.164062 520.523438 637.996094 519.011719 C 642.496094 515.292969 644.894531 509.789062 649.351562 504.839844 C 649.214844 515.367188 649.964844 524.769531 654.660156 533.359375 C 655.90625 535.625 656.683594 538.890625 659.878906 538.53125 C 663.164062 538.15625 662.953125 534.515625 663.703125 532.207031 C 666.121094 524.828125 664.648438 517.046875 665.25 509.007812 C 672.285156 513.433594 678.015625 519.207031 685.859375 521.109375 C 689.550781 522.007812 694.125 522.773438 696.226562 519.234375 C 698.144531 516.011719 694.394531 513.402344 692.234375 511.035156 C 690.898438 509.578125 689.460938 508.199219 687.871094 507.03125 C 680.371094 501.511719 673.949219 495.019531 669.148438 486.996094 C 659.953125 489.875 650.65625 491.257812 641.160156 488.273438 Z M 644.128906 448.746094 C 634.230469 461.882812 633.988281 468.015625 642.914062 480.476562 C 650.308594 481.285156 657.703125 482.394531 665.113281 480.59375 C 667.304688 477.101562 669.210938 473.757812 669.511719 469.246094 C 670.109375 460.324219 665.144531 454.550781 659.699219 448.792969 C 654.523438 448.777344 649.320312 448.761719 644.128906 448.746094 Z M 620.386719 313.589844 C 615.675781 313.996094 611.503906 311.703125 606.988281 311.132812 C 606.824219 316.917969 613.183594 320.488281 612.253906 326.53125 C 616.273438 329.351562 621.449219 326.753906 625.5 329.394531 C 629.789062 328.886719 631.800781 330.667969 631.90625 335.09375 C 631.964844 337.550781 631.304688 340.308594 633.34375 342.441406 C 637.738281 338.121094 640.996094 332.632812 646.53125 329.46875 C 646.546875 328.089844 646.558594 326.695312 646.558594 325.300781 C 645.226562 322.738281 643.875 320.171875 642.539062 317.609375 C 635.160156 316.230469 628.125 312.917969 620.386719 313.589844 Z M 636.195312 383.644531 C 637.09375 392.160156 637.996094 400.691406 638.910156 409.207031 C 643.664062 406.042969 648.421875 402.878906 653.175781 399.71875 C 654.269531 389.777344 651.34375 380.210938 650.566406 370.433594 C 644.671875 373.65625 641.550781 379.863281 636.195312 383.644531 Z M 640.230469 418.292969 C 641.101562 425.296875 641.984375 432.300781 642.855469 439.300781 C 648.089844 441.28125 653.21875 439.40625 658.394531 438.925781 C 657.105469 428.550781 655.800781 418.191406 654.511719 407.8125 C 649.738281 411.292969 644.984375 414.800781 640.230469 418.292969 Z M 649.304688 362.082031 C 651.511719 354.074219 647.445312 346.429688 647.894531 338.527344 C 642.164062 342.425781 639.253906 349.066406 633.644531 353.085938 C 633.808594 359.894531 634.574219 366.625 636.089844 373.265625 C 640.5 369.535156 644.894531 365.800781 649.304688 362.082031 Z M 605.550781 326.394531 C 603.390625 321.269531 601.214844 316.140625 599.054688 311.011719 C 588.046875 308.851562 576.855469 308.179688 565.726562 307.160156 C 569.203125 312.871094 572.804688 318.492188 577.484375 323.335938 C 584.804688 324.3125 592.140625 325.269531 599.460938 326.246094 C 601.484375 326.289062 603.523438 326.351562 605.550781 326.394531 Z M 455.878906 306.46875 C 454.003906 299.855469 448.890625 294.984375 446.445312 288.6875 C 440.984375 286.632812 435.148438 287.050781 429.511719 286.332031 C 419.101562 284.996094 409.078125 281.070312 398.398438 281.652344 C 400.921875 286.960938 399.988281 291.113281 394.320312 293.617188 C 393.121094 294.144531 392.941406 295.101562 392.96875 296.210938 C 413.789062 300.5 434.894531 303.140625 455.878906 306.46875 Z M 504.796875 313.441406 C 514.035156 315.644531 523.394531 316.996094 532.921875 317.160156 C 529.484375 311.175781 523.84375 306.785156 520.84375 300.484375 C 511.90625 299.089844 503.101562 296.765625 493.996094 296.527344 C 497.59375 302.148438 501.195312 307.789062 504.796875 313.441406 Z M 467.460938 307.878906 C 475.890625 309.242188 484.304688 310.605469 492.734375 311.972656 C 489.40625 306.109375 484.46875 301.222656 482.101562 294.757812 C 474.136719 293.167969 466.214844 291.292969 458.070312 290.84375 C 461.203125 296.511719 464.324219 302.195312 467.460938 307.878906 Z M 556.515625 305.359375 C 556.515625 305.359375 556.636719 305.480469 556.636719 305.480469 L 556.019531 305.253906 C 556.019531 305.253906 555.375 305.328125 555.375 305.328125 C 548.144531 303.621094 540.871094 302.242188 533.371094 303.035156 C 536.578125 308.191406 539.789062 313.351562 543 318.507812 C 551.054688 319.722656 559.109375 320.9375 567.164062 322.167969 C 564.269531 316.15625 558.691406 311.835938 556.515625 305.359375 Z M 556.515625 305.359375 " fill-opacity="1" fill-rule="nonzero"/><path fill="#ffcc94" d="M 641.160156 488.273438 C 650.65625 491.257812 659.953125 489.863281 669.179688 486.984375 C 668.175781 484.628906 665.234375 483.503906 665.128906 480.582031 C 657.71875 482.378906 650.324219 481.269531 642.929688 480.460938 C 642.328125 483.085938 641.746094 485.679688 641.160156 488.273438 Z M 646.53125 329.46875 C 640.996094 332.632812 637.753906 338.121094 633.34375 342.441406 C 633.433594 345.976562 633.539062 349.53125 633.628906 353.070312 C 639.238281 349.066406 642.164062 342.410156 647.878906 338.511719 C 648.628906 335.332031 646.636719 332.542969 646.53125 329.46875 Z M 636.195312 383.644531 C 641.550781 379.851562 644.671875 373.65625 650.550781 370.449219 C 650.460938 367.613281 651.390625 364.617188 649.304688 362.082031 C 644.894531 365.816406 640.484375 369.535156 636.089844 373.265625 C 636.121094 376.714844 636.164062 380.179688 636.195312 383.644531 Z M 653.175781 399.730469 C 648.421875 402.894531 643.664062 406.058594 638.910156 409.222656 C 639.34375 412.253906 639.796875 415.265625 640.230469 418.292969 C 644.984375 414.800781 649.738281 411.308594 654.511719 407.8125 C 654.058594 405.113281 653.609375 402.417969 653.175781 399.730469 Z M 644.128906 448.746094 C 649.320312 448.761719 654.511719 448.777344 659.714844 448.792969 C 658.320312 445.628906 658.816406 442.210938 658.394531 438.910156 C 653.21875 439.390625 648.089844 441.265625 642.855469 439.285156 C 642.691406 442.523438 642.300781 445.792969 644.128906 448.746094 Z M 612.269531 326.53125 C 613.199219 320.472656 606.839844 316.917969 607.003906 311.132812 C 604.363281 311.085938 601.710938 311.058594 599.070312 311.011719 C 601.230469 316.140625 603.40625 321.269531 605.566406 326.394531 C 607.785156 326.441406 610.035156 326.484375 612.269531 326.53125 Z M 504.796875 313.441406 C 501.195312 307.804688 497.59375 302.164062 493.980469 296.527344 C 490.019531 295.941406 486.058594 295.34375 482.101562 294.757812 C 484.46875 301.222656 489.40625 306.109375 492.734375 311.972656 C 496.589844 313.800781 500.746094 313.171875 504.796875 313.441406 Z M 446.445312 288.6875 C 448.890625 294.984375 454.019531 299.871094 455.878906 306.46875 C 459.796875 306.542969 463.453125 308.65625 467.460938 307.878906 C 464.324219 302.195312 461.203125 296.511719 458.070312 290.84375 C 454.183594 290.125 450.316406 289.40625 446.445312 288.6875 Z M 520.828125 300.472656 C 523.828125 306.769531 529.46875 311.160156 532.90625 317.144531 C 536.144531 318.539062 539.488281 319.183594 543 318.492188 C 539.789062 313.335938 536.578125 308.179688 533.371094 303.019531 C 529.214844 302.058594 525.359375 299.632812 520.828125 300.472656 Z M 577.484375 323.335938 C 572.804688 318.492188 569.21875 312.871094 565.726562 307.160156 C 562.875 305.464844 559.636719 305.660156 556.515625 305.359375 C 558.691406 311.835938 564.269531 316.15625 567.179688 322.167969 C 570.613281 322.558594 574.050781 322.945312 577.484375 323.335938 Z M 556.246094 304.65625 C 555.929688 304.683594 555.660156 305.089844 555.375 305.328125 C 555.375 305.328125 556.019531 305.253906 556.019531 305.253906 L 556.636719 305.480469 C 557.011719 304.96875 556.875 304.59375 556.246094 304.65625 Z M 556.246094 304.65625 " fill-opacity="1" fill-rule="nonzero"/></svg>