<svg xmlns="http://www.w3.org/2000/svg" xmlns:xlink="http://www.w3.org/1999/xlink" width="1000" zoomAndPan="magnify" viewBox="0 0 750 749.999995" height="1000" preserveAspectRatio="xMidYMid meet" version="1.0"><defs><clipPath id="3cefe9c7ac"><path d="M 101 0 L 649.148438 0 L 649.148438 750 L 101 750 Z M 101 0 " clip-rule="nonzero"/></clipPath><clipPath id="f56ba853be"><path d="M 493 353 L 649.148438 353 L 649.148438 547 L 493 547 Z M 493 353 " clip-rule="nonzero"/></clipPath></defs><g clip-path="url(#3cefe9c7ac)"><path fill="#bea1f7" d="M 649.019531 465.480469 C 648.867188 453.609375 649.042969 441.710938 647.871094 429.871094 C 646.828125 428.347656 645.847656 426.78125 644.859375 425.226562 C 645.847656 426.78125 646.828125 428.347656 647.871094 429.871094 C 647.910156 429.070312 648.03125 428.261719 647.976562 427.464844 C 647.355469 418.675781 646.613281 409.90625 645.753906 401.136719 C 644.847656 391.878906 643.71875 382.644531 642.382812 373.453125 C 640.585938 361.097656 638.609375 348.757812 635.824219 336.570312 C 634.265625 329.777344 633.46875 322.804688 631.027344 316.222656 C 630.992188 315.125 630.890625 314.0625 630.597656 312.960938 C 628.226562 304.0625 626.191406 295.074219 623.589844 286.246094 C 620.875 277.039062 618.390625 267.742188 614.703125 258.835938 C 614.648438 257.933594 614.519531 257.078125 614.210938 256.199219 C 609.777344 243.53125 605.207031 230.917969 600.042969 218.527344 C 596.847656 210.867188 593.890625 203.085938 589.914062 195.765625 C 583.929688 181.523438 576.804688 167.855469 569.121094 154.472656 C 563.617188 144.203125 557.472656 134.320312 551.007812 124.640625 C 546.777344 118.316406 542.90625 111.714844 537.675781 106.105469 C 537.613281 105.363281 537.164062 104.832031 536.734375 104.265625 C 529.507812 94.65625 521.957031 85.316406 513.847656 76.425781 C 506.746094 68.644531 499.460938 61.066406 491.625 54.027344 C 487.820312 50.003906 483.453125 46.605469 479.179688 43.125 C 470.445312 36.015625 461.394531 29.339844 451.59375 23.734375 C 437.554688 15.160156 422.707031 8.46875 406.730469 4.382812 C 397.441406 1.84375 388.011719 0.21875 378.371094 0.09375 C 373.5625 0.0273438 368.761719 -0.015625 363.953125 0.605469 C 358.605469 1.296875 353.28125 1.980469 348.074219 3.394531 C 344.394531 3.953125 340.832031 4.984375 337.3125 6.152344 C 328.875 8.964844 320.457031 11.8125 312.753906 16.382812 C 305.234375 19.375 298.503906 23.785156 291.75 28.128906 C 271.914062 40.882812 254.8125 56.832031 238.777344 73.964844 C 236.261719 76.65625 233.386719 79.125 231.515625 82.402344 C 229.917969 83.507812 228.976562 85.207031 227.742188 86.648438 C 219.566406 96.238281 211.972656 106.28125 204.878906 116.683594 C 203.105469 119.28125 200.757812 121.585938 199.972656 124.792969 C 198.710938 125.082031 198.378906 126.269531 197.792969 127.160156 C 190.105469 138.941406 182.914062 151.027344 176.324219 163.457031 C 173.789062 168.234375 170.671875 172.738281 169.132812 178.011719 C 168.019531 178.960938 167.535156 180.3125 166.960938 181.566406 C 161.515625 193.300781 155.839844 204.925781 151.128906 216.988281 C 148.003906 224.996094 144.785156 232.96875 141.785156 241.015625 C 139.96875 245.871094 137.761719 250.617188 136.921875 255.796875 C 136.574219 256.273438 136.070312 256.703125 135.90625 257.238281 C 132.023438 269.777344 127.761719 282.199219 124.527344 294.929688 C 122.757812 301.914062 120.574219 308.792969 119.417969 315.925781 C 118.828125 318.027344 118.101562 320.09375 117.675781 322.222656 C 115.539062 332.816406 113.089844 343.335938 111.277344 353.996094 C 109.585938 363.960938 108.011719 373.945312 106.738281 383.976562 C 105.957031 390.128906 105.085938 396.277344 104.449219 402.445312 C 103.886719 407.929688 103.589844 413.441406 103.183594 418.941406 C 102.390625 428.332031 101.730469 437.726562 101.871094 447.164062 C 101.890625 448.453125 101.742188 449.753906 101.695312 451.042969 C 101.515625 456.054688 100.917969 461.074219 101.957031 466.0625 C 102.105469 474.578125 101.957031 483.089844 102.335938 491.613281 C 102.769531 501.265625 103.855469 510.789062 105.476562 520.277344 C 109.550781 544.0625 117.191406 566.707031 127.601562 588.429688 C 132.523438 598.703125 138.136719 608.601562 144.402344 618.113281 C 150.53125 627.425781 156.8125 636.625 164.265625 644.960938 C 176.496094 660.261719 190.359375 673.925781 205.582031 686.230469 C 213.441406 693.164062 222.042969 699.136719 230.824219 704.773438 C 257.488281 721.898438 286.0625 734.746094 316.941406 742.261719 C 337.699219 747.316406 358.6875 749.96875 380.097656 749.335938 C 388.851562 749.074219 397.558594 748.570312 406.234375 747.433594 C 421.382812 745.453125 436.21875 742.109375 450.753906 737.449219 C 474.339844 729.898438 496.589844 719.46875 517.453125 706.125 C 525.066406 701.257812 532.609375 696.289062 539.527344 690.441406 C 542.417969 688.753906 544.726562 686.339844 547.289062 684.246094 C 560.585938 673.371094 572.667969 661.285156 583.675781 648.113281 C 586.582031 644.65625 589.667969 641.328125 592.359375 637.707031 C 604.9375 620.808594 616.179688 603.117188 624.976562 583.898438 C 633.742188 564.75 640.210938 544.898438 644.351562 524.273438 C 645.914062 516.515625 647.035156 508.679688 647.5625 500.785156 C 648.023438 493.882812 649.074219 486.988281 648.351562 480.039062 C 648.589844 475.1875 649.09375 470.332031 649.03125 465.480469 Z M 649.019531 465.480469 " fill-opacity="1" fill-rule="nonzero"/></g><path fill="#bea1f7" d="M 648.339844 480.039062 C 649.058594 486.988281 648.015625 493.882812 647.550781 500.785156 C 647.023438 508.679688 645.902344 516.515625 644.339844 524.273438 C 640.195312 544.898438 633.734375 564.75 624.964844 583.898438 C 616.167969 603.117188 604.925781 620.808594 592.351562 637.707031 C 589.65625 641.328125 586.570312 644.65625 583.667969 648.113281 C 579.617188 642.558594 574.308594 638.605469 567.785156 636.613281 C 558.128906 633.667969 548.398438 632.742188 539.902344 639.617188 C 533.578125 644.738281 529.167969 651.527344 527.269531 659.441406 C 525.457031 667.015625 525.324219 674.691406 530.796875 681.246094 C 533.507812 684.496094 536.25 687.71875 539.523438 690.4375 C 532.605469 696.28125 525.054688 701.25 517.449219 706.121094 C 496.585938 719.46875 474.335938 729.894531 450.746094 737.445312 C 436.210938 742.097656 421.375 745.441406 406.230469 747.425781 C 397.550781 748.558594 388.847656 749.070312 380.09375 749.328125 C 358.683594 749.960938 337.691406 747.3125 316.9375 742.257812 C 286.058594 734.738281 257.488281 721.886719 230.816406 704.769531 C 222.035156 699.132812 213.441406 693.160156 205.574219 686.222656 C 211.453125 678.792969 213.203125 670.195312 212.511719 660.988281 C 212.207031 656.960938 211.433594 652.953125 208.710938 649.730469 C 197.832031 636.863281 177.648438 634.71875 164.257812 644.957031 C 156.8125 636.621094 150.527344 627.417969 144.394531 618.109375 C 138.132812 608.59375 132.515625 598.695312 127.59375 588.425781 C 117.191406 566.695312 109.546875 544.054688 105.472656 520.269531 C 103.847656 510.785156 102.765625 501.253906 102.332031 491.609375 C 101.945312 483.085938 102.09375 474.570312 101.953125 466.058594 C 103.0625 466.097656 104.179688 466.230469 105.277344 466.144531 C 107.363281 465.980469 108.546875 466.320312 108.722656 468.933594 C 109.253906 477.035156 110.4375 485.125 112.472656 492.933594 C 116.550781 508.566406 122.691406 523.425781 132.304688 536.585938 C 137.175781 543.257812 143.070312 548.800781 150.949219 551.890625 C 160.585938 555.675781 172.382812 552.46875 177.96875 546.085938 C 181.625 541.90625 184.359375 537.058594 187.03125 532.210938 C 189.492188 527.753906 189.457031 527.640625 194.394531 529.058594 C 206.027344 532.40625 217.15625 532.863281 228.53125 526.984375 C 244.746094 518.597656 251.40625 504.917969 252.777344 487.738281 C 253.464844 479.140625 251.914062 470.761719 249.785156 462.457031 C 246.175781 448.390625 241.757812 434.65625 233.890625 422.285156 C 229.453125 415.308594 223.574219 409.441406 218.753906 402.753906 C 217.910156 401.589844 217.164062 400.535156 217.019531 399.027344 C 215.941406 387.664062 212.105469 377.558594 203.71875 369.445312 C 196.277344 362.242188 185.261719 360.359375 175.757812 364.648438 C 163.246094 370.296875 155.027344 380.285156 148.285156 391.71875 C 147.097656 393.734375 145.824219 394.863281 143.570312 395.296875 C 134.699219 397.007812 126.402344 400.171875 118.875 405.28125 C 113.082031 409.207031 108.175781 414.117188 103.171875 418.929688 C 103.585938 413.429688 103.875 407.917969 104.4375 402.4375 C 105.070312 396.265625 105.945312 390.125 106.726562 383.964844 C 107.996094 373.933594 109.574219 363.957031 111.269531 353.988281 C 113.078125 343.328125 115.53125 332.804688 117.664062 322.210938 C 118.09375 320.082031 118.820312 318.011719 119.414062 315.914062 C 123.625 317.800781 127.929688 318.863281 132.601562 317.816406 C 143.773438 315.320312 151.96875 308.734375 157.988281 299.273438 C 160.289062 295.660156 161.761719 291.648438 161.191406 287.21875 C 159.234375 272.019531 151.496094 261.257812 136.921875 255.785156 C 137.761719 250.605469 139.972656 245.859375 141.785156 241.003906 C 144.785156 232.953125 148.003906 224.976562 151.128906 216.976562 C 158.863281 224.316406 167.839844 228.003906 178.722656 227.457031 C 187.808594 227.007812 196.585938 225.109375 205.449219 223.4375 C 211.339844 222.328125 216.960938 221.9375 223.238281 223.4375 C 232.972656 225.777344 243.207031 225.320312 252.765625 221.019531 C 256.113281 219.511719 259.152344 217.558594 261.453125 214.667969 C 265.4375 209.664062 268.394531 204.082031 270.359375 198.003906 C 273.324219 188.824219 273.3125 179.445312 272.234375 169.972656 C 271.039062 159.46875 269.214844 149.136719 265.195312 139.289062 C 264.835938 138.417969 264.257812 137.554688 264.621094 136.433594 C 266.964844 129.128906 267.175781 121.695312 266.179688 114.121094 C 265.101562 105.921875 262.496094 98.382812 256.449219 92.601562 C 249.554688 86.007812 241.460938 81.8125 231.523438 82.398438 C 233.390625 79.113281 236.269531 76.648438 238.78125 73.960938 C 254.816406 56.824219 271.921875 40.875 291.757812 28.125 C 298.507812 23.785156 305.242188 19.375 312.757812 16.378906 C 315.09375 22.367188 318.699219 27.5625 322.933594 32.332031 C 325.890625 35.65625 327.976562 39.140625 328.894531 43.769531 C 330.21875 50.457031 332.96875 56.851562 337.960938 61.851562 C 346.269531 70.167969 356.136719 73.566406 368.019531 72.359375 C 378.503906 71.300781 387.996094 68.003906 396.714844 62.382812 C 398.980469 60.921875 400.703125 60.851562 403.011719 61.8125 C 414.386719 66.542969 430.394531 62.351562 438.5625 53.078125 C 446.027344 44.601562 448.949219 34.261719 451.601562 23.730469 C 461.398438 29.332031 470.453125 36.011719 479.183594 43.121094 C 483.457031 46.601562 487.824219 50 491.628906 54.019531 C 490.949219 55.011719 490.265625 56 489.578125 56.988281 C 481.585938 68.515625 477.203125 81.117188 479.019531 95.265625 C 479.378906 98.054688 478.679688 99.003906 476.425781 100.175781 C 470.710938 103.140625 465.074219 106.296875 461.332031 111.875 C 458.175781 116.582031 455.714844 121.660156 453.558594 126.859375 C 449.890625 135.695312 447.601562 144.914062 446.503906 154.460938 C 444.929688 168.109375 448.453125 179.734375 460.035156 187.757812 C 469.929688 194.617188 481.109375 199.121094 492.425781 203.0625 C 500.863281 206 509.777344 206.042969 518.609375 206.097656 C 520.398438 206.109375 521.578125 206.503906 522.519531 208.171875 C 525.679688 213.742188 529.988281 218.382812 534.601562 222.785156 C 543.824219 231.578125 556.734375 232.929688 567.277344 225.957031 C 578.398438 218.597656 584.910156 207.730469 589.917969 195.765625 C 593.894531 203.085938 596.855469 210.859375 600.050781 218.527344 C 605.214844 230.910156 609.78125 243.53125 614.214844 256.199219 C 614.523438 257.078125 614.660156 257.9375 614.710938 258.835938 C 612.382812 259.46875 609.964844 259.867188 607.847656 261.101562 C 598.289062 266.675781 593.148438 275.214844 591.691406 285.980469 C 590.964844 291.34375 591.359375 296.695312 594.59375 301.378906 C 597.953125 306.246094 602.105469 310.359375 607.253906 313.292969 C 614.730469 317.546875 622.464844 320.46875 631.03125 316.222656 C 633.472656 322.804688 634.273438 329.777344 635.828125 336.570312 C 638.617188 348.75 640.597656 361.097656 642.386719 373.453125 C 643.726562 382.648438 644.851562 391.878906 645.757812 401.136719 C 646.617188 409.90625 647.359375 418.679688 647.980469 427.464844 C 648.035156 428.261719 647.914062 429.070312 647.875 429.871094 C 645.09375 425.8125 642.773438 421.441406 639.433594 417.761719 C 639.078125 417.367188 638.96875 416.65625 638.929688 416.082031 C 638.214844 405.273438 637.21875 394.488281 635.828125 383.753906 C 634.847656 376.203125 632.070312 369.160156 626.441406 363.960938 C 618.828125 356.941406 609.921875 352.910156 599.09375 353.332031 C 587.71875 353.777344 578.839844 358.761719 571.632812 366.980469 C 564.722656 374.867188 559.007812 383.679688 553.800781 392.785156 C 553.074219 394.050781 552.214844 394.605469 550.703125 394.691406 C 542.597656 395.175781 534.519531 395.820312 526.671875 398.261719 C 517.472656 401.128906 509.492188 405.921875 503.765625 413.632812 C 494.632812 425.933594 492.398438 440.132812 494.929688 454.882812 C 498.519531 475.835938 509.921875 492.8125 524.855469 507.199219 C 533.089844 515.128906 541.949219 522.839844 553.058594 526.996094 C 553.679688 527.226562 554.183594 527.832031 554.675781 528.332031 C 560.855469 534.542969 567.945312 539.492188 576 542.878906 C 590.382812 548.921875 606.671875 547.679688 618.546875 535.300781 C 625.503906 528.046875 629.234375 519.089844 631.617188 509.492188 C 632.054688 507.714844 632.671875 506.171875 633.882812 504.691406 C 639.964844 497.234375 645.039062 489.148438 648.355469 480.046875 Z M 428.667969 262.011719 L 428.519531 261.863281 C 428.867188 260.613281 429.171875 259.347656 429.5625 258.113281 C 432.582031 248.554688 432.984375 239.089844 429.234375 229.558594 C 424.875 218.460938 415.800781 211.855469 404.527344 212.347656 C 397.210938 212.664062 390.371094 214.917969 383.832031 218.234375 C 369.402344 225.5625 357.023438 235.65625 345.378906 246.699219 C 333.332031 258.132812 323.097656 271.074219 314.726562 285.433594 C 313.726562 287.148438 312.554688 288.191406 310.839844 288.90625 C 303.847656 291.816406 297.132812 295.28125 290.886719 299.550781 C 281.285156 306.097656 272.816406 313.726562 268.316406 324.863281 C 264.941406 333.226562 265.335938 341.304688 270.050781 349.105469 C 273.277344 354.445312 277.589844 358.671875 282.796875 362.070312 C 296.414062 370.957031 311.816406 374.515625 327.550781 377 C 329.703125 377.34375 330.175781 377.800781 329.285156 379.796875 C 326.082031 386.984375 325.242188 394.480469 326.753906 402.199219 C 328.683594 412.027344 333.6875 419.914062 341.976562 425.582031 C 348.53125 430.066406 356.03125 430.503906 363.664062 430.4375 C 373.746094 430.351562 382.351562 426.535156 389.601562 419.878906 C 400.390625 409.96875 408.824219 398.21875 415.15625 384.996094 C 415.996094 383.242188 417.125 382.078125 418.882812 381.308594 C 429.703125 376.59375 440.085938 371.035156 450.203125 364.980469 C 457.65625 360.519531 464.613281 355.363281 470.609375 349.066406 C 476.191406 343.203125 480.53125 336.417969 484.457031 329.351562 C 491.101562 317.394531 495.738281 304.9375 492.734375 291.019531 C 490.253906 279.535156 484.855469 269.617188 474.445312 263.378906 C 464.992188 257.722656 454.507812 257.757812 444.003906 259.144531 C 438.859375 259.828125 433.777344 261.03125 428.664062 262 Z M 301.84375 636.851562 C 302.375 644.847656 302.46875 652.941406 305.585938 660.507812 C 307.769531 665.816406 310.585938 670.824219 313.367188 675.851562 C 320.917969 689.492188 332.070312 697.84375 347.867188 698.804688 C 360.058594 699.554688 371.429688 696.710938 381.230469 688.96875 C 382.1875 688.214844 383.128906 687.460938 384.425781 687.40625 C 391.058594 687.140625 397.636719 686.113281 404.292969 686.121094 C 406.976562 686.121094 409.699219 685.679688 412.34375 685.152344 C 422.421875 683.148438 430.675781 677.929688 438.152344 671.003906 C 446.347656 663.40625 450.40625 654.046875 451.601562 643.199219 C 452.464844 635.320312 449.949219 628.101562 447.113281 620.964844 C 446.699219 619.925781 446.121094 618.996094 447.007812 617.910156 C 449.125 615.332031 450.582031 612.335938 452.222656 609.453125 C 458.523438 598.351562 462.019531 586.660156 460.144531 573.683594 C 458.199219 560.210938 451.144531 550.554688 439.210938 544.226562 C 426.394531 537.433594 412.53125 536.757812 398.613281 537.863281 C 386.035156 538.863281 373.824219 542.339844 362.644531 548.164062 C 353.65625 552.84375 344.339844 556.148438 334.707031 559.039062 C 322.085938 562.828125 310.703125 569.042969 301.695312 578.910156 C 296.355469 584.753906 292.785156 591.613281 292.230469 599.664062 C 291.613281 608.574219 295.238281 615.910156 301.277344 622.199219 C 302.332031 623.300781 303.359375 624.179688 302.957031 626.066406 C 302.203125 629.59375 301.695312 633.183594 301.84375 636.835938 Z M 344.230469 481.730469 C 344.199219 495.59375 350.171875 505.609375 363.105469 510.964844 C 372.15625 514.710938 381.378906 515.921875 389.898438 509.753906 C 397.496094 504.257812 402.289062 496.625 404.746094 487.554688 C 406.09375 482.601562 405.890625 477.765625 403.480469 473.152344 C 399.488281 465.496094 393.890625 459.386719 385.800781 456.058594 C 377.660156 452.710938 368.976562 451.054688 360.867188 455.070312 C 350.148438 460.371094 344.308594 469.449219 344.226562 481.730469 Z M 375.625 115.859375 C 362.34375 115.574219 353.058594 122.089844 347.613281 133.957031 C 343.003906 143.996094 342.394531 154.046875 350.242188 163.132812 C 354.804688 168.417969 360.328125 172.320312 366.804688 175 C 373.414062 177.726562 379.710938 177.464844 385.992188 174.058594 C 390.496094 171.617188 394.582031 168.59375 397.613281 164.527344 C 404.476562 155.335938 407.65625 144.996094 403.746094 133.847656 C 400.417969 124.355469 389.203125 115.199219 375.625 115.859375 Z M 375.625 115.859375 " fill-opacity="1" fill-rule="nonzero"/><g clip-path="url(#f56ba853be)"><path fill="#8c52ff" d="M 648.339844 480.039062 C 645.023438 489.140625 639.953125 497.222656 633.863281 504.679688 C 632.65625 506.160156 632.039062 507.703125 631.597656 509.480469 C 629.21875 519.078125 625.488281 528.035156 618.53125 535.289062 C 606.652344 547.671875 590.363281 548.910156 575.984375 542.867188 C 567.925781 539.480469 560.839844 534.53125 554.65625 528.320312 C 554.164062 527.828125 553.65625 527.222656 553.039062 526.984375 C 541.933594 522.820312 533.074219 515.117188 524.839844 507.1875 C 509.902344 492.800781 498.503906 475.832031 494.914062 454.871094 C 492.386719 440.125 494.621094 425.925781 503.75 413.621094 C 509.476562 405.910156 517.449219 401.117188 526.65625 398.25 C 534.503906 395.808594 542.582031 395.167969 550.6875 394.683594 C 552.203125 394.589844 553.0625 394.039062 553.785156 392.773438 C 558.992188 383.667969 564.699219 374.863281 571.617188 366.972656 C 578.820312 358.75 587.707031 353.765625 599.074219 353.320312 C 609.902344 352.898438 618.8125 356.933594 626.425781 363.953125 C 632.054688 369.148438 634.832031 376.191406 635.8125 383.742188 C 637.207031 394.480469 638.199219 405.261719 638.914062 416.070312 C 638.953125 416.644531 639.0625 417.363281 639.417969 417.75 C 642.757812 421.429688 645.078125 425.804688 647.859375 429.863281 C 649.03125 441.707031 648.855469 453.597656 649.011719 465.46875 C 649.074219 470.320312 648.574219 475.175781 648.328125 480.027344 Z M 583.589844 491.015625 C 585.75 491.171875 588.449219 490.679688 590.953125 489.585938 C 613 479.933594 616.113281 449.648438 597.421875 436.796875 C 589.144531 431.105469 580.289062 427.375 570.222656 431.792969 C 561.371094 435.675781 555.136719 442.417969 551.035156 451.105469 C 549.609375 454.125 548.691406 457.308594 549.042969 460.746094 C 550.746094 477.328125 566.078125 491.019531 583.585938 491.015625 Z M 583.589844 491.015625 " fill-opacity="1" fill-rule="nonzero"/></g><path fill="#8c52ff" d="M 103.167969 418.933594 C 108.171875 414.121094 113.082031 409.210938 118.867188 405.285156 C 126.398438 400.175781 134.691406 397.019531 143.566406 395.304688 C 145.820312 394.867188 147.089844 393.742188 148.277344 391.722656 C 155.019531 380.289062 163.242188 370.308594 175.753906 364.65625 C 185.25 360.367188 196.269531 362.246094 203.710938 369.449219 C 212.097656 377.566406 215.9375 387.675781 217.015625 399.03125 C 217.15625 400.539062 217.90625 401.59375 218.746094 402.761719 C 223.570312 409.449219 229.449219 415.308594 233.886719 422.289062 C 241.75 434.65625 246.175781 448.394531 249.78125 462.460938 C 251.90625 470.765625 253.457031 479.144531 252.769531 487.742188 C 251.398438 504.921875 244.742188 518.605469 228.523438 526.992188 C 217.15625 532.871094 206.027344 532.414062 194.390625 529.0625 C 189.453125 527.640625 189.484375 527.753906 187.027344 532.214844 C 184.355469 537.058594 181.621094 541.910156 177.964844 546.089844 C 172.375 552.476562 160.582031 555.679688 150.945312 551.898438 C 143.066406 548.800781 137.167969 543.257812 132.296875 536.59375 C 122.679688 523.425781 116.542969 508.574219 112.464844 492.9375 C 110.433594 485.128906 109.253906 477.039062 108.714844 468.941406 C 108.546875 466.332031 107.359375 465.992188 105.273438 466.152344 C 104.171875 466.238281 103.058594 466.101562 101.945312 466.0625 C 100.90625 461.074219 101.507812 456.054688 101.683594 451.042969 C 101.726562 449.746094 101.875 448.453125 101.859375 447.164062 C 101.714844 437.726562 102.382812 428.328125 103.171875 418.941406 Z M 193.902344 457.160156 C 193.902344 455.851562 194.042969 454.519531 193.878906 453.234375 C 193.019531 446.53125 191.652344 439.976562 185.695312 435.710938 C 176.582031 429.195312 166.535156 426.84375 155.613281 430 C 147.875 432.238281 140.722656 435.855469 137.109375 443.503906 C 126.808594 465.308594 144.933594 489.496094 166.4375 487.261719 C 180.300781 485.824219 190.316406 479.832031 193.074219 466.464844 C 193.707031 463.390625 194.105469 460.300781 193.894531 457.160156 Z M 193.902344 457.160156 " fill-opacity="1" fill-rule="nonzero"/><path fill="#8c52ff" d="M 589.910156 195.769531 C 584.898438 207.738281 578.386719 218.605469 567.265625 225.960938 C 556.726562 232.941406 543.808594 231.589844 534.589844 222.789062 C 529.976562 218.382812 525.664062 213.75 522.507812 208.175781 C 521.5625 206.511719 520.386719 206.117188 518.597656 206.105469 C 509.761719 206.050781 500.851562 206.003906 492.417969 203.070312 C 481.09375 199.125 469.917969 194.621094 460.023438 187.765625 C 448.445312 179.742188 444.917969 168.113281 446.492188 154.464844 C 447.589844 144.917969 449.878906 135.703125 453.546875 126.863281 C 455.703125 121.667969 458.167969 116.585938 461.324219 111.878906 C 465.0625 106.300781 470.699219 103.144531 476.414062 100.179688 C 478.667969 99.011719 479.367188 98.058594 479.007812 95.269531 C 477.195312 81.117188 481.578125 68.523438 489.566406 56.996094 C 490.253906 56.003906 490.9375 55.015625 491.617188 54.027344 C 499.457031 61.066406 506.746094 68.644531 513.839844 76.425781 C 521.953125 85.316406 529.503906 94.65625 536.730469 104.265625 C 537.160156 104.839844 537.609375 105.363281 537.671875 106.105469 C 536.917969 106.769531 536.101562 107.375 535.421875 108.105469 C 524.367188 119.945312 524.488281 140.332031 535.664062 152.074219 C 537.429688 153.925781 539.480469 155.355469 541.855469 156.328125 C 551.253906 160.179688 560.347656 159.777344 569.121094 154.472656 C 576.808594 167.855469 583.929688 181.523438 589.914062 195.765625 Z M 589.910156 195.769531 " fill-opacity="1" fill-rule="nonzero"/><path fill="#8c52ff" d="M 231.511719 82.398438 C 241.449219 81.820312 249.542969 86.007812 256.4375 92.601562 C 262.484375 98.382812 265.09375 105.921875 266.167969 114.121094 C 267.164062 121.695312 266.960938 129.128906 264.613281 136.433594 C 264.25 137.558594 264.832031 138.417969 265.183594 139.289062 C 269.203125 149.136719 271.027344 159.46875 272.222656 169.972656 C 273.300781 179.449219 273.3125 188.824219 270.347656 198.003906 C 268.382812 204.082031 265.425781 209.664062 261.445312 214.667969 C 259.140625 217.566406 256.105469 219.511719 252.753906 221.019531 C 243.195312 225.3125 232.960938 225.773438 223.230469 223.4375 C 216.949219 221.929688 211.328125 222.320312 205.4375 223.4375 C 196.578125 225.109375 187.796875 227.007812 178.710938 227.457031 C 167.828125 228.003906 158.855469 224.316406 151.117188 216.976562 C 155.828125 204.917969 161.503906 193.289062 166.949219 181.554688 C 167.527344 180.308594 168.011719 178.949219 169.121094 178.003906 C 181.753906 182.527344 193.351562 180.269531 204.042969 172.542969 C 206.847656 170.519531 209.144531 167.929688 210.585938 164.726562 C 217.027344 150.457031 212.691406 134.222656 199.960938 124.78125 C 200.746094 121.570312 203.097656 119.269531 204.867188 116.675781 C 211.960938 106.269531 219.554688 96.226562 227.734375 86.636719 C 228.960938 85.195312 229.898438 83.503906 231.503906 82.390625 Z M 231.511719 82.398438 " fill-opacity="1" fill-rule="nonzero"/><path fill="#8c52ff" d="M 451.589844 23.734375 C 448.945312 34.273438 446.023438 44.605469 438.550781 53.085938 C 430.382812 62.355469 414.375 66.546875 403.003906 61.816406 C 400.691406 60.855469 398.972656 60.925781 396.707031 62.390625 C 387.984375 68.011719 378.492188 71.304688 368.011719 72.367188 C 356.125 73.570312 346.261719 70.175781 337.949219 61.855469 C 332.953125 56.851562 330.207031 50.460938 328.882812 43.773438 C 327.964844 39.144531 325.875 35.664062 322.921875 32.335938 C 318.6875 27.566406 315.085938 22.371094 312.746094 16.382812 C 320.453125 11.8125 328.875 8.964844 337.308594 6.152344 C 340.820312 4.980469 344.390625 3.953125 348.070312 3.394531 C 349.140625 11.960938 355.136719 16.738281 361.84375 20.699219 C 379.773438 31.273438 400.824219 23.546875 406.726562 4.382812 C 422.699219 8.46875 437.550781 15.167969 451.589844 23.734375 Z M 451.589844 23.734375 " fill-opacity="1" fill-rule="nonzero"/><path fill="#c1ff72" d="M 539.519531 690.449219 C 536.25 687.726562 533.5 684.503906 530.789062 681.257812 C 525.320312 674.703125 525.449219 667.019531 527.265625 659.453125 C 529.15625 651.539062 533.574219 644.75 539.898438 639.628906 C 548.394531 632.753906 558.128906 633.671875 567.777344 636.625 C 574.300781 638.617188 579.613281 642.570312 583.660156 648.125 C 572.652344 661.300781 560.570312 673.382812 547.273438 684.253906 C 544.710938 686.351562 542.398438 688.765625 539.511719 690.453125 Z M 539.519531 690.449219 " fill-opacity="1" fill-rule="nonzero"/><path fill="#c1ff72" d="M 136.910156 255.789062 C 151.484375 261.261719 159.222656 272.03125 161.179688 287.226562 C 161.75 291.652344 160.277344 295.667969 157.980469 299.28125 C 151.957031 308.738281 143.769531 315.332031 132.589844 317.824219 C 127.917969 318.867188 123.621094 317.808594 119.402344 315.921875 C 120.554688 308.789062 122.734375 301.902344 124.511719 294.925781 C 127.742188 282.191406 132.003906 269.765625 135.886719 257.230469 C 136.054688 256.699219 136.558594 256.269531 136.90625 255.789062 Z M 136.910156 255.789062 " fill-opacity="1" fill-rule="nonzero"/><path fill="#c1ff72" d="M 631.027344 316.222656 C 622.457031 320.464844 614.726562 317.542969 607.246094 313.292969 C 602.101562 310.359375 597.949219 306.253906 594.589844 301.378906 C 591.355469 296.695312 590.957031 291.34375 591.683594 285.980469 C 593.140625 275.214844 598.285156 266.679688 607.839844 261.101562 C 609.957031 259.871094 612.375 259.476562 614.703125 258.835938 C 618.382812 267.742188 620.875 277.039062 623.589844 286.246094 C 626.191406 295.074219 628.226562 304.0625 630.597656 312.960938 C 630.890625 314.0625 630.992188 315.125 631.027344 316.222656 Z M 631.027344 316.222656 " fill-opacity="1" fill-rule="nonzero"/><path fill="#c1ff72" d="M 199.964844 124.785156 C 212.699219 134.222656 217.03125 150.457031 210.589844 164.734375 C 209.144531 167.933594 206.847656 170.523438 204.046875 172.546875 C 193.355469 180.273438 181.757812 182.535156 169.125 178.007812 C 170.671875 172.734375 173.789062 168.230469 176.320312 163.453125 C 182.90625 151.023438 190.101562 138.941406 197.789062 127.15625 C 198.371094 126.265625 198.707031 125.082031 199.964844 124.785156 Z M 199.964844 124.785156 " fill-opacity="1" fill-rule="nonzero"/><path fill="#c1ff72" d="M 164.257812 644.960938 C 177.648438 634.71875 197.832031 636.867188 208.710938 649.734375 C 211.433594 652.957031 212.207031 656.96875 212.511719 660.992188 C 213.203125 670.199219 211.453125 678.800781 205.574219 686.230469 C 190.355469 673.925781 176.488281 660.261719 164.257812 644.960938 Z M 164.257812 644.960938 " fill-opacity="1" fill-rule="nonzero"/><path fill="#c1ff72" d="M 569.117188 154.476562 C 560.347656 159.785156 551.246094 160.183594 541.847656 156.335938 C 539.472656 155.363281 537.421875 153.933594 535.65625 152.078125 C 524.476562 140.335938 524.363281 119.953125 535.414062 108.113281 C 536.097656 107.378906 536.910156 106.773438 537.664062 106.109375 C 542.898438 111.71875 546.765625 118.324219 550.996094 124.648438 C 557.46875 134.320312 563.609375 144.210938 569.109375 154.476562 Z M 569.117188 154.476562 " fill-opacity="1" fill-rule="nonzero"/><path fill="#c1ff72" d="M 406.726562 4.382812 C 400.824219 23.546875 379.773438 31.273438 361.84375 20.699219 C 355.128906 16.738281 349.136719 11.960938 348.070312 3.394531 C 353.277344 1.980469 358.601562 1.296875 363.945312 0.605469 C 368.757812 -0.0234375 373.558594 0.0273438 378.367188 0.09375 C 388.003906 0.21875 397.441406 1.84375 406.726562 4.382812 Z M 406.726562 4.382812 " fill-opacity="1" fill-rule="nonzero"/><path fill="#8c52ff" d="M 428.667969 262.011719 C 433.78125 261.042969 438.859375 259.839844 444.011719 259.15625 C 454.515625 257.765625 464.996094 257.730469 474.449219 263.390625 C 484.859375 269.628906 490.265625 279.546875 492.742188 291.03125 C 495.742188 304.945312 491.105469 317.40625 484.464844 329.359375 C 480.539062 336.425781 476.199219 343.214844 470.617188 349.074219 C 464.617188 355.371094 457.660156 360.53125 450.207031 364.992188 C 440.089844 371.046875 429.707031 376.605469 418.890625 381.320312 C 417.125 382.089844 415.996094 383.253906 415.160156 385.007812 C 408.832031 398.230469 400.390625 409.980469 389.605469 419.890625 C 382.359375 426.546875 373.75 430.367188 363.671875 430.449219 C 356.039062 430.515625 348.535156 430.074219 341.980469 425.59375 C 333.695312 419.929688 328.683594 412.042969 326.757812 402.210938 C 325.246094 394.488281 326.089844 386.992188 329.289062 379.804688 C 330.179688 377.808594 329.707031 377.355469 327.558594 377.011719 C 311.824219 374.523438 296.417969 370.96875 282.804688 362.082031 C 277.59375 358.683594 273.285156 354.453125 270.054688 349.113281 C 265.335938 341.316406 264.945312 333.234375 268.324219 324.875 C 272.816406 313.738281 281.289062 306.113281 290.894531 299.558594 C 297.140625 295.296875 303.855469 291.832031 310.84375 288.917969 C 312.558594 288.203125 313.730469 287.160156 314.730469 285.441406 C 323.109375 271.089844 333.335938 258.144531 345.386719 246.710938 C 357.027344 235.667969 369.40625 225.570312 383.835938 218.246094 C 390.375 214.929688 397.21875 212.675781 404.53125 212.355469 C 415.804688 211.867188 424.878906 218.472656 429.238281 229.570312 C 432.988281 239.105469 432.589844 248.570312 429.570312 258.121094 C 429.179688 259.359375 428.871094 260.621094 428.523438 261.871094 C 428.441406 262 428.367188 262.121094 428.28125 262.246094 C 428.414062 262.171875 428.542969 262.097656 428.671875 262.023438 Z M 404.378906 323.238281 C 404.292969 306.207031 390.816406 292.621094 374.542969 292.195312 C 358.722656 291.785156 342.640625 305.164062 343.339844 322.570312 C 344.132812 342.328125 355.910156 353.921875 371.445312 353.671875 C 388.941406 353.394531 404.886719 343.769531 404.378906 323.246094 Z M 404.378906 323.238281 " fill-opacity="1" fill-rule="nonzero"/><path fill="#8c52ff" d="M 301.84375 636.851562 C 301.699219 633.199219 302.203125 629.613281 302.957031 626.082031 C 303.359375 624.195312 302.332031 623.316406 301.277344 622.21875 C 295.238281 615.925781 291.613281 608.589844 292.230469 599.679688 C 292.785156 591.636719 296.359375 584.777344 301.695312 578.925781 C 310.703125 569.0625 322.085938 562.847656 334.707031 559.058594 C 344.339844 556.164062 353.65625 552.859375 362.644531 548.179688 C 373.824219 542.355469 386.042969 538.878906 398.613281 537.878906 C 412.53125 536.769531 426.394531 537.449219 439.210938 544.242188 C 451.144531 550.566406 458.199219 560.230469 460.144531 573.703125 C 462.019531 586.675781 458.523438 598.367188 452.222656 609.46875 C 450.589844 612.347656 449.125 615.34375 447.007812 617.929688 C 446.121094 619.011719 446.695312 619.933594 447.113281 620.980469 C 449.949219 628.117188 452.46875 635.339844 451.601562 643.214844 C 450.40625 654.0625 446.355469 663.425781 438.152344 671.019531 C 430.675781 677.949219 422.421875 683.167969 412.34375 685.167969 C 409.699219 685.695312 406.976562 686.136719 404.292969 686.136719 C 397.636719 686.136719 391.058594 687.160156 384.425781 687.421875 C 383.128906 687.472656 382.1875 688.230469 381.230469 688.984375 C 371.425781 696.726562 360.058594 699.566406 347.867188 698.824219 C 332.070312 697.855469 320.917969 689.5 313.367188 675.867188 C 310.585938 670.84375 307.769531 665.832031 305.585938 660.527344 C 302.46875 652.957031 302.375 644.863281 301.84375 636.867188 Z M 368.714844 597.117188 C 352 596.355469 339.78125 611.664062 340.410156 627.855469 C 341.15625 647.171875 355.597656 658.269531 373.449219 658.605469 C 388.265625 658.882812 402.484375 642.582031 402.621094 625.691406 C 402.738281 611.082031 386.300781 597.226562 368.714844 597.125 Z M 368.714844 597.117188 " fill-opacity="1" fill-rule="nonzero"/><path fill="#c1ff72" d="M 344.230469 481.730469 C 344.3125 469.445312 350.152344 460.371094 360.871094 455.070312 C 368.984375 451.054688 377.667969 452.710938 385.804688 456.058594 C 393.894531 459.386719 399.492188 465.496094 403.484375 473.152344 C 405.894531 477.765625 406.097656 482.605469 404.75 487.554688 C 402.289062 496.617188 397.503906 504.257812 389.902344 509.753906 C 381.382812 515.921875 372.15625 514.714844 363.109375 510.964844 C 350.175781 505.609375 344.203125 495.59375 344.238281 481.730469 Z M 344.230469 481.730469 " fill-opacity="1" fill-rule="nonzero"/><path fill="#c1ff72" d="M 375.625 115.859375 C 389.210938 115.199219 400.417969 124.355469 403.746094 133.847656 C 407.65625 145 404.476562 155.339844 397.613281 164.527344 C 394.582031 168.585938 390.503906 171.617188 385.992188 174.058594 C 379.710938 177.464844 373.410156 177.726562 366.804688 175 C 360.328125 172.320312 354.804688 168.417969 350.242188 163.132812 C 342.394531 154.046875 343.003906 143.996094 347.613281 133.957031 C 353.0625 122.089844 362.34375 115.574219 375.625 115.859375 Z M 375.625 115.859375 " fill-opacity="1" fill-rule="nonzero"/><path fill="#c1ff72" d="M 583.589844 491.015625 C 566.085938 491.015625 550.746094 477.328125 549.046875 460.746094 C 548.695312 457.308594 549.609375 454.125 551.039062 451.105469 C 555.140625 442.417969 561.378906 435.667969 570.226562 431.792969 C 580.296875 427.375 589.148438 431.109375 597.425781 436.796875 C 616.117188 449.648438 613.003906 479.933594 590.957031 489.585938 C 588.457031 490.679688 585.757812 491.179688 583.59375 491.015625 Z M 583.589844 491.015625 " fill-opacity="1" fill-rule="nonzero"/><path fill="#c1ff72" d="M 193.902344 457.160156 C 194.109375 460.300781 193.714844 463.390625 193.082031 466.464844 C 190.320312 479.832031 180.304688 485.824219 166.441406 487.261719 C 144.941406 489.496094 126.808594 465.308594 137.113281 443.503906 C 140.726562 435.855469 147.882812 432.238281 155.621094 430 C 166.535156 426.84375 176.582031 429.195312 185.703125 435.710938 C 191.65625 439.976562 193.027344 446.53125 193.882812 453.234375 C 194.050781 454.519531 193.90625 455.851562 193.90625 457.160156 Z M 193.902344 457.160156 " fill-opacity="1" fill-rule="nonzero"/><path fill="#c1ff72" d="M 404.378906 323.238281 C 404.886719 343.757812 388.941406 353.386719 371.445312 353.667969 C 355.910156 353.914062 344.132812 342.324219 343.339844 322.5625 C 342.640625 305.160156 358.722656 291.777344 374.542969 292.191406 C 390.816406 292.613281 404.292969 306.203125 404.378906 323.234375 Z M 404.378906 323.238281 " fill-opacity="1" fill-rule="nonzero"/><path fill="#bea1f7" d="M 428.667969 262.011719 C 428.535156 262.085938 428.410156 262.160156 428.277344 262.234375 C 428.359375 262.109375 428.4375 261.988281 428.519531 261.863281 C 428.519531 261.863281 428.667969 262.011719 428.667969 262.011719 Z M 428.667969 262.011719 " fill-opacity="1" fill-rule="nonzero"/><path fill="#c1ff72" d="M 368.714844 597.117188 C 386.300781 597.226562 402.738281 611.074219 402.621094 625.6875 C 402.484375 642.582031 388.269531 658.882812 373.449219 658.601562 C 355.597656 658.269531 341.15625 647.167969 340.410156 627.847656 C 339.78125 611.660156 352 596.347656 368.714844 597.113281 Z M 368.714844 597.117188 " fill-opacity="1" fill-rule="nonzero"/></svg>