<svg xmlns="http://www.w3.org/2000/svg" xmlns:xlink="http://www.w3.org/1999/xlink" width="1000" zoomAndPan="magnify" viewBox="0 0 750 749.999995" height="1000" preserveAspectRatio="xMidYMid meet" version="1.0"><defs><clipPath id="735ba3b699"><path d="M 101 0 L 649.148438 0 L 649.148438 750 L 101 750 Z M 101 0 " clip-rule="nonzero"/></clipPath><clipPath id="4c45c138be"><path d="M 493 353 L 649.148438 353 L 649.148438 547 L 493 547 Z M 493 353 " clip-rule="nonzero"/></clipPath></defs><g clip-path="url(#735ba3b699)"><path fill="#8bd2fb" d="M 649.066406 465.480469 C 648.914062 453.609375 649.089844 441.710938 647.917969 429.871094 C 646.875 428.347656 645.894531 426.78125 644.902344 425.226562 C 645.894531 426.78125 646.875 428.347656 647.917969 429.871094 C 647.957031 429.070312 648.078125 428.261719 648.023438 427.464844 C 647.402344 418.675781 646.660156 409.90625 645.800781 401.136719 C 644.894531 391.878906 643.765625 382.644531 642.429688 373.453125 C 640.632812 361.097656 638.65625 348.757812 635.867188 336.570312 C 634.3125 329.777344 633.515625 322.804688 631.070312 316.222656 C 631.039062 315.125 630.933594 314.0625 630.644531 312.960938 C 628.273438 304.0625 626.238281 295.074219 623.636719 286.246094 C 620.917969 277.039062 618.433594 267.742188 614.75 258.835938 C 614.695312 257.933594 614.5625 257.078125 614.253906 256.199219 C 609.820312 243.53125 605.25 230.917969 600.085938 218.527344 C 596.890625 210.867188 593.933594 203.085938 589.957031 195.765625 C 583.972656 181.523438 576.84375 167.855469 569.160156 154.472656 C 563.65625 144.203125 557.511719 134.320312 551.042969 124.640625 C 546.816406 118.316406 542.941406 111.714844 537.714844 106.105469 C 537.652344 105.363281 537.203125 104.832031 536.773438 104.265625 C 529.546875 94.65625 521.996094 85.316406 513.882812 76.425781 C 506.78125 68.644531 499.496094 61.066406 491.65625 54.027344 C 487.851562 50.003906 483.484375 46.605469 479.210938 43.125 C 470.476562 36.015625 461.425781 29.339844 451.625 23.734375 C 437.582031 15.160156 422.734375 8.46875 406.757812 4.382812 C 397.46875 1.84375 388.035156 0.21875 378.394531 0.09375 C 373.585938 0.0273438 368.785156 -0.015625 363.972656 0.605469 C 358.628906 1.296875 353.304688 1.980469 348.097656 3.394531 C 344.417969 3.953125 340.851562 4.984375 337.332031 6.152344 C 328.894531 8.964844 320.476562 11.8125 312.769531 16.382812 C 305.253906 19.375 298.519531 23.785156 291.765625 28.128906 C 271.929688 40.882812 254.824219 56.832031 238.789062 73.964844 C 236.273438 76.65625 233.398438 79.125 231.527344 82.402344 C 229.925781 83.507812 228.988281 85.207031 227.753906 86.648438 C 219.578125 96.238281 211.980469 106.28125 204.886719 116.683594 C 203.117188 119.28125 200.765625 121.585938 199.980469 124.792969 C 198.722656 125.082031 198.386719 126.269531 197.800781 127.160156 C 190.113281 138.941406 182.921875 151.027344 176.332031 163.457031 C 173.796875 168.234375 170.675781 172.738281 169.136719 178.011719 C 168.027344 178.960938 167.542969 180.3125 166.964844 181.566406 C 161.519531 193.300781 155.84375 204.925781 151.132812 216.988281 C 148.007812 224.996094 144.789062 232.96875 141.789062 241.015625 C 139.972656 245.871094 137.765625 250.617188 136.925781 255.796875 C 136.578125 256.273438 136.074219 256.703125 135.90625 257.238281 C 132.023438 269.777344 127.761719 282.199219 124.527344 294.929688 C 122.757812 301.914062 120.574219 308.792969 119.417969 315.925781 C 118.832031 318.027344 118.105469 320.09375 117.675781 322.222656 C 115.542969 332.816406 113.089844 343.335938 111.28125 353.996094 C 109.585938 363.960938 108.011719 373.945312 106.738281 383.976562 C 105.957031 390.128906 105.085938 396.277344 104.449219 402.445312 C 103.886719 407.929688 103.589844 413.441406 103.183594 418.941406 C 102.390625 428.332031 101.730469 437.726562 101.871094 447.164062 C 101.890625 448.453125 101.742188 449.753906 101.695312 451.042969 C 101.515625 456.054688 100.917969 461.074219 101.957031 466.0625 C 102.105469 474.578125 101.957031 483.089844 102.335938 491.613281 C 102.773438 501.265625 103.855469 510.789062 105.476562 520.277344 C 109.554688 544.0625 117.191406 566.707031 127.601562 588.429688 C 132.527344 598.703125 138.140625 608.601562 144.40625 618.113281 C 150.539062 627.425781 156.816406 636.625 164.269531 644.960938 C 176.503906 660.261719 190.367188 673.925781 205.589844 686.230469 C 213.449219 693.164062 222.050781 699.136719 230.835938 704.773438 C 257.503906 721.898438 286.082031 734.746094 316.960938 742.261719 C 337.71875 747.316406 358.710938 749.96875 380.121094 749.335938 C 388.878906 749.074219 397.582031 748.570312 406.261719 747.433594 C 421.410156 745.453125 436.246094 742.109375 450.78125 737.449219 C 474.371094 729.898438 496.625 719.46875 517.488281 706.125 C 525.101562 701.257812 532.648438 696.289062 539.566406 690.441406 C 542.453125 688.753906 544.765625 686.339844 547.328125 684.246094 C 560.625 673.371094 572.707031 661.285156 583.71875 648.113281 C 586.621094 644.65625 589.707031 641.328125 592.402344 637.707031 C 604.980469 620.808594 616.222656 603.117188 625.023438 583.898438 C 633.789062 564.75 640.257812 544.898438 644.398438 524.273438 C 645.960938 516.515625 647.082031 508.679688 647.609375 500.785156 C 648.070312 493.882812 649.121094 486.988281 648.398438 480.039062 C 648.636719 475.1875 649.140625 470.332031 649.078125 465.480469 Z M 649.066406 465.480469 " fill-opacity="1" fill-rule="nonzero"/></g><path fill="#8bd2fb" d="M 648.386719 480.039062 C 649.105469 486.988281 648.0625 493.882812 647.597656 500.785156 C 647.070312 508.679688 645.949219 516.515625 644.386719 524.273438 C 640.242188 544.898438 633.777344 564.75 625.011719 583.898438 C 616.210938 603.117188 604.96875 620.808594 592.390625 637.707031 C 589.695312 641.328125 586.613281 644.65625 583.707031 648.113281 C 579.660156 642.558594 574.347656 638.605469 567.824219 636.613281 C 558.167969 633.667969 548.4375 632.742188 539.941406 639.617188 C 533.617188 644.738281 529.203125 651.527344 527.308594 659.441406 C 525.492188 667.015625 525.359375 674.691406 530.832031 681.246094 C 533.542969 684.496094 536.289062 687.71875 539.5625 690.4375 C 532.640625 696.28125 525.089844 701.25 517.484375 706.121094 C 496.617188 719.46875 474.367188 729.894531 450.777344 737.445312 C 436.242188 742.097656 421.402344 745.441406 406.257812 747.425781 C 397.578125 748.558594 388.871094 749.070312 380.117188 749.328125 C 358.707031 749.960938 337.710938 747.3125 316.957031 742.257812 C 286.074219 734.738281 257.503906 721.886719 230.828125 704.769531 C 222.046875 699.132812 213.449219 693.160156 205.585938 686.222656 C 211.464844 678.792969 213.214844 670.195312 212.519531 660.988281 C 212.21875 656.960938 211.441406 652.953125 208.71875 649.730469 C 197.839844 636.863281 177.65625 634.71875 164.265625 644.957031 C 156.816406 636.621094 150.53125 627.417969 144.398438 618.109375 C 138.136719 608.59375 132.519531 598.695312 127.597656 588.425781 C 117.191406 566.695312 109.546875 544.054688 105.472656 520.269531 C 103.847656 510.785156 102.765625 501.253906 102.332031 491.609375 C 101.945312 483.085938 102.09375 474.570312 101.953125 466.058594 C 103.0625 466.097656 104.179688 466.230469 105.28125 466.144531 C 107.363281 465.980469 108.546875 466.320312 108.722656 468.933594 C 109.253906 477.035156 110.4375 485.125 112.472656 492.933594 C 116.554688 508.566406 122.691406 523.425781 132.304688 536.585938 C 137.179688 543.257812 143.074219 548.800781 150.957031 551.890625 C 160.589844 555.675781 172.386719 552.46875 177.976562 546.085938 C 181.632812 541.90625 184.367188 537.058594 187.039062 532.210938 C 189.496094 527.753906 189.464844 527.640625 194.402344 529.058594 C 206.035156 532.40625 217.167969 532.863281 228.542969 526.984375 C 244.761719 518.597656 251.421875 504.917969 252.789062 487.738281 C 253.476562 479.140625 251.925781 470.761719 249.796875 462.457031 C 246.191406 448.390625 241.769531 434.65625 233.902344 422.285156 C 229.464844 415.308594 223.585938 409.441406 218.761719 402.753906 C 217.921875 401.589844 217.171875 400.535156 217.03125 399.027344 C 215.953125 387.664062 212.113281 377.558594 203.726562 369.445312 C 196.285156 362.242188 185.269531 360.359375 175.765625 364.648438 C 163.253906 370.296875 155.03125 380.285156 148.289062 391.71875 C 147.101562 393.734375 145.828125 394.863281 143.574219 395.296875 C 134.703125 397.007812 126.402344 400.171875 118.875 405.28125 C 113.082031 409.207031 108.179688 414.117188 103.171875 418.929688 C 103.585938 413.429688 103.878906 407.917969 104.4375 402.4375 C 105.070312 396.265625 105.945312 390.125 106.726562 383.964844 C 107.996094 373.933594 109.574219 363.957031 111.269531 353.988281 C 113.078125 343.328125 115.53125 332.804688 117.664062 322.210938 C 118.09375 320.082031 118.820312 318.011719 119.414062 315.914062 C 123.625 317.800781 127.933594 318.863281 132.601562 317.816406 C 143.777344 315.320312 151.972656 308.734375 157.996094 299.273438 C 160.292969 295.660156 161.769531 291.648438 161.195312 287.21875 C 159.238281 272.019531 151.5 261.257812 136.925781 255.785156 C 137.765625 250.605469 139.976562 245.859375 141.789062 241.003906 C 144.789062 232.953125 148.007812 224.976562 151.132812 216.976562 C 158.871094 224.316406 167.84375 228.003906 178.730469 227.457031 C 187.816406 227.007812 196.59375 225.109375 205.457031 223.4375 C 211.347656 222.328125 216.96875 221.9375 223.25 223.4375 C 232.984375 225.777344 243.21875 225.320312 252.777344 221.019531 C 256.128906 219.511719 259.164062 217.558594 261.46875 214.667969 C 265.449219 209.664062 268.410156 204.082031 270.371094 198.003906 C 273.335938 188.824219 273.324219 179.445312 272.25 169.972656 C 271.054688 159.46875 269.230469 149.136719 265.207031 139.289062 C 264.851562 138.417969 264.273438 137.554688 264.636719 136.433594 C 266.980469 129.128906 267.1875 121.695312 266.191406 114.121094 C 265.113281 105.921875 262.507812 98.382812 256.464844 92.601562 C 249.566406 86.007812 241.472656 81.8125 231.53125 82.398438 C 233.402344 79.113281 236.28125 76.648438 238.792969 73.960938 C 254.832031 56.824219 271.933594 40.875 291.773438 28.125 C 298.527344 23.785156 305.257812 19.375 312.777344 16.378906 C 315.113281 22.367188 318.714844 27.5625 322.949219 32.332031 C 325.910156 35.65625 327.996094 39.140625 328.914062 43.769531 C 330.238281 50.457031 332.988281 56.851562 337.980469 61.851562 C 346.292969 70.167969 356.160156 73.566406 368.042969 72.359375 C 378.527344 71.300781 388.019531 68.003906 396.742188 62.382812 C 399.007812 60.921875 400.730469 60.851562 403.039062 61.8125 C 414.414062 66.542969 430.421875 62.351562 438.589844 53.078125 C 446.058594 44.601562 448.980469 34.261719 451.628906 23.730469 C 461.429688 29.332031 470.484375 36.011719 479.21875 43.121094 C 483.492188 46.601562 487.855469 50 491.664062 54.019531 C 490.980469 55.011719 490.300781 56 489.613281 56.988281 C 481.621094 68.515625 477.238281 81.117188 479.050781 95.265625 C 479.410156 98.054688 478.710938 99.003906 476.457031 100.175781 C 470.742188 103.140625 465.105469 106.296875 461.363281 111.875 C 458.207031 116.582031 455.742188 121.660156 453.585938 126.859375 C 449.917969 135.695312 447.632812 144.914062 446.53125 154.460938 C 444.957031 168.109375 448.484375 179.734375 460.066406 187.757812 C 469.960938 194.617188 481.140625 199.121094 492.460938 203.0625 C 500.898438 206 509.8125 206.042969 518.644531 206.097656 C 520.433594 206.109375 521.613281 206.503906 522.554688 208.171875 C 525.71875 213.742188 530.023438 218.382812 534.636719 222.785156 C 543.863281 231.578125 556.773438 232.929688 567.320312 225.957031 C 578.4375 218.597656 584.949219 207.730469 589.960938 195.765625 C 593.9375 203.085938 596.894531 210.859375 600.089844 218.527344 C 605.257812 230.910156 609.828125 243.53125 614.257812 256.199219 C 614.566406 257.078125 614.703125 257.9375 614.753906 258.835938 C 612.429688 259.46875 610.007812 259.867188 607.890625 261.101562 C 598.332031 266.675781 593.191406 275.214844 591.730469 285.980469 C 591.007812 291.34375 591.402344 296.695312 594.636719 301.378906 C 597.996094 306.246094 602.148438 310.359375 607.296875 313.292969 C 614.777344 317.546875 622.507812 320.46875 631.078125 316.222656 C 633.519531 322.804688 634.316406 329.777344 635.875 336.570312 C 638.660156 348.75 640.640625 361.097656 642.433594 373.453125 C 643.769531 382.648438 644.898438 391.878906 645.804688 401.136719 C 646.664062 409.90625 647.40625 418.679688 648.027344 427.464844 C 648.082031 428.261719 647.960938 429.070312 647.921875 429.871094 C 645.140625 425.8125 642.820312 421.441406 639.480469 417.761719 C 639.125 417.367188 639.015625 416.65625 638.976562 416.082031 C 638.261719 405.273438 637.265625 394.488281 635.875 383.753906 C 634.894531 376.203125 632.117188 369.160156 626.484375 363.960938 C 618.875 356.941406 609.964844 352.910156 599.136719 353.332031 C 587.761719 353.777344 578.878906 358.761719 571.675781 366.980469 C 564.761719 374.867188 559.046875 383.679688 553.839844 392.785156 C 553.113281 394.050781 552.253906 394.605469 550.742188 394.691406 C 542.636719 395.175781 534.554688 395.820312 526.707031 398.261719 C 517.507812 401.128906 509.527344 405.921875 503.800781 413.632812 C 494.664062 425.933594 492.433594 440.132812 494.964844 454.882812 C 498.554688 475.835938 509.957031 492.8125 524.894531 507.199219 C 533.125 515.128906 541.984375 522.839844 553.097656 526.996094 C 553.71875 527.226562 554.222656 527.832031 554.710938 528.332031 C 560.894531 534.542969 567.984375 539.492188 576.042969 542.878906 C 590.421875 548.921875 606.714844 547.679688 618.59375 535.300781 C 625.550781 528.046875 629.277344 519.089844 631.660156 509.492188 C 632.101562 507.714844 632.714844 506.171875 633.925781 504.691406 C 640.007812 497.234375 645.085938 489.148438 648.402344 480.046875 Z M 428.695312 262.011719 L 428.546875 261.863281 C 428.894531 260.613281 429.203125 259.347656 429.59375 258.113281 C 432.613281 248.554688 433.011719 239.089844 429.261719 229.558594 C 424.902344 218.460938 415.828125 211.855469 404.550781 212.347656 C 397.238281 212.664062 390.394531 214.917969 383.855469 218.234375 C 369.425781 225.5625 357.042969 235.65625 345.402344 246.699219 C 333.351562 258.132812 323.117188 271.074219 314.746094 285.433594 C 313.746094 287.148438 312.574219 288.191406 310.855469 288.90625 C 303.867188 291.816406 297.152344 295.28125 290.902344 299.550781 C 281.300781 306.097656 272.832031 313.726562 268.332031 324.863281 C 264.957031 333.226562 265.351562 341.304688 270.066406 349.105469 C 273.292969 354.445312 277.605469 358.671875 282.8125 362.070312 C 296.429688 370.957031 311.835938 374.515625 327.570312 377 C 329.722656 377.34375 330.195312 377.800781 329.304688 379.796875 C 326.101562 386.984375 325.261719 394.480469 326.773438 402.199219 C 328.703125 412.027344 333.707031 419.914062 341.996094 425.582031 C 348.550781 430.066406 356.054688 430.503906 363.6875 430.4375 C 373.769531 430.351562 382.375 426.535156 389.625 419.878906 C 400.414062 409.96875 408.851562 398.21875 415.183594 384.996094 C 416.023438 383.242188 417.152344 382.078125 418.910156 381.308594 C 429.730469 376.59375 440.113281 371.035156 450.234375 364.980469 C 457.683594 360.519531 464.640625 355.363281 470.644531 349.066406 C 476.226562 343.203125 480.5625 336.417969 484.492188 329.351562 C 491.136719 317.394531 495.769531 304.9375 492.769531 291.019531 C 490.289062 279.535156 484.886719 269.617188 474.476562 263.378906 C 465.023438 257.722656 454.539062 257.757812 444.035156 259.144531 C 438.886719 259.828125 433.804688 261.03125 428.691406 262 Z M 301.859375 636.851562 C 302.394531 644.847656 302.484375 652.941406 305.605469 660.507812 C 307.789062 665.816406 310.605469 670.824219 313.386719 675.851562 C 320.9375 689.492188 332.089844 697.84375 347.886719 698.804688 C 360.082031 699.554688 371.453125 696.710938 381.253906 688.96875 C 382.210938 688.214844 383.152344 687.460938 384.449219 687.40625 C 391.082031 687.140625 397.660156 686.113281 404.320312 686.121094 C 407.003906 686.121094 409.726562 685.679688 412.371094 685.152344 C 422.449219 683.148438 430.703125 677.929688 438.183594 671.003906 C 446.378906 663.40625 450.4375 654.046875 451.628906 643.199219 C 452.492188 635.320312 449.980469 628.101562 447.140625 620.964844 C 446.730469 619.925781 446.152344 618.996094 447.039062 617.910156 C 449.15625 615.332031 450.613281 612.335938 452.25 609.453125 C 458.554688 598.351562 462.050781 586.660156 460.175781 573.683594 C 458.230469 560.210938 451.171875 550.554688 439.238281 544.226562 C 426.425781 537.433594 412.558594 536.757812 398.640625 537.863281 C 386.0625 538.863281 373.847656 542.339844 362.664062 548.164062 C 353.679688 552.84375 344.363281 556.148438 334.726562 559.039062 C 322.105469 562.828125 310.71875 569.042969 301.710938 578.910156 C 296.371094 584.753906 292.800781 591.613281 292.246094 599.664062 C 291.628906 608.574219 295.253906 615.910156 301.292969 622.199219 C 302.347656 623.300781 303.378906 624.179688 302.976562 626.066406 C 302.222656 629.59375 301.710938 633.183594 301.859375 636.835938 Z M 344.25 481.730469 C 344.21875 495.59375 350.191406 505.609375 363.128906 510.964844 C 372.179688 514.710938 381.402344 515.921875 389.921875 509.753906 C 397.523438 504.257812 402.3125 496.625 404.773438 487.554688 C 406.117188 482.601562 405.914062 477.765625 403.507812 473.152344 C 399.515625 465.496094 393.914062 459.386719 385.824219 456.058594 C 377.683594 452.710938 369 451.054688 360.886719 455.070312 C 350.167969 460.371094 344.328125 469.449219 344.246094 481.730469 Z M 375.648438 115.859375 C 362.367188 115.574219 353.078125 122.089844 347.632812 133.957031 C 343.023438 143.996094 342.414062 154.046875 350.261719 163.132812 C 354.828125 168.417969 360.347656 172.320312 366.828125 175 C 373.4375 177.726562 379.738281 177.464844 386.015625 174.058594 C 390.523438 171.617188 394.609375 168.59375 397.636719 164.527344 C 404.503906 155.335938 407.679688 144.996094 403.769531 133.847656 C 400.441406 124.355469 389.230469 115.199219 375.648438 115.859375 Z M 375.648438 115.859375 " fill-opacity="1" fill-rule="nonzero"/><g clip-path="url(#4c45c138be)"><path fill="#447afb" d="M 648.386719 480.039062 C 645.070312 489.140625 640 497.222656 633.910156 504.679688 C 632.699219 506.160156 632.085938 507.703125 631.644531 509.480469 C 629.261719 519.078125 625.535156 528.035156 618.578125 535.289062 C 606.695312 547.671875 590.40625 548.910156 576.023438 542.867188 C 567.96875 539.480469 560.878906 534.53125 554.695312 528.320312 C 554.203125 527.828125 553.695312 527.222656 553.078125 526.984375 C 541.96875 522.820312 533.109375 515.117188 524.875 507.1875 C 509.9375 492.800781 498.539062 475.832031 494.945312 454.871094 C 492.421875 440.125 494.65625 425.925781 503.785156 413.621094 C 509.511719 405.910156 517.484375 401.117188 526.691406 398.25 C 534.539062 395.808594 542.617188 395.167969 550.726562 394.683594 C 552.242188 394.589844 553.101562 394.039062 553.820312 392.773438 C 559.03125 383.667969 564.738281 374.863281 571.65625 366.972656 C 578.863281 358.75 587.75 353.765625 599.117188 353.320312 C 609.949219 352.898438 618.855469 356.933594 626.46875 363.953125 C 632.101562 369.148438 634.878906 376.191406 635.855469 383.742188 C 637.253906 394.480469 638.242188 405.261719 638.960938 416.070312 C 638.996094 416.644531 639.109375 417.363281 639.464844 417.75 C 642.804688 421.429688 645.125 425.804688 647.90625 429.863281 C 649.078125 441.707031 648.902344 453.597656 649.058594 465.46875 C 649.121094 470.320312 648.621094 475.175781 648.375 480.027344 Z M 583.632812 491.015625 C 585.792969 491.171875 588.492188 490.679688 590.996094 489.585938 C 613.042969 479.933594 616.15625 449.648438 597.464844 436.796875 C 589.1875 431.105469 580.332031 427.375 570.261719 431.792969 C 561.410156 435.675781 555.175781 442.417969 551.070312 451.105469 C 549.648438 454.125 548.730469 457.308594 549.082031 460.746094 C 550.785156 477.328125 566.121094 491.019531 583.625 491.015625 Z M 583.632812 491.015625 " fill-opacity="1" fill-rule="nonzero"/></g><path fill="#447afb" d="M 103.167969 418.933594 C 108.171875 414.121094 113.082031 409.210938 118.871094 405.285156 C 126.398438 400.175781 134.691406 397.019531 143.570312 395.304688 C 145.824219 394.867188 147.09375 393.742188 148.28125 391.722656 C 155.023438 380.289062 163.246094 370.308594 175.757812 364.65625 C 185.257812 360.367188 196.277344 362.246094 203.71875 369.449219 C 212.109375 377.566406 215.945312 387.675781 217.023438 399.03125 C 217.167969 400.539062 217.914062 401.59375 218.757812 402.761719 C 223.582031 409.449219 229.460938 415.308594 233.898438 422.289062 C 241.761719 434.65625 246.191406 448.394531 249.792969 462.460938 C 251.921875 470.765625 253.472656 479.144531 252.785156 487.742188 C 251.410156 504.921875 244.753906 518.605469 228.535156 526.992188 C 217.167969 532.871094 206.035156 532.414062 194.398438 529.0625 C 189.460938 527.640625 189.492188 527.753906 187.035156 532.214844 C 184.359375 537.058594 181.628906 541.910156 177.96875 546.089844 C 172.382812 552.476562 160.585938 555.679688 150.949219 551.898438 C 143.070312 548.800781 137.171875 543.257812 132.300781 536.59375 C 122.679688 523.425781 116.542969 508.574219 112.46875 492.9375 C 110.433594 485.128906 109.253906 477.039062 108.714844 468.941406 C 108.546875 466.332031 107.359375 465.992188 105.273438 466.152344 C 104.175781 466.238281 103.058594 466.101562 101.945312 466.0625 C 100.90625 461.074219 101.507812 456.054688 101.683594 451.042969 C 101.726562 449.746094 101.875 448.453125 101.859375 447.164062 C 101.714844 437.726562 102.382812 428.328125 103.171875 418.941406 Z M 193.910156 457.160156 C 193.910156 455.851562 194.050781 454.519531 193.886719 453.234375 C 193.027344 446.53125 191.660156 439.976562 185.703125 435.710938 C 176.589844 429.195312 166.542969 426.84375 155.621094 430 C 147.882812 432.238281 140.726562 435.855469 137.113281 443.503906 C 126.8125 465.308594 144.9375 489.496094 166.441406 487.261719 C 180.308594 485.824219 190.324219 479.832031 193.082031 466.464844 C 193.714844 463.390625 194.113281 460.300781 193.902344 457.160156 Z M 193.910156 457.160156 " fill-opacity="1" fill-rule="nonzero"/><path fill="#447afb" d="M 589.949219 195.769531 C 584.941406 207.738281 578.429688 218.605469 567.308594 225.960938 C 556.765625 232.941406 543.84375 231.589844 534.628906 222.789062 C 530.011719 218.382812 525.703125 213.75 522.542969 208.175781 C 521.597656 206.511719 520.421875 206.117188 518.632812 206.105469 C 509.796875 206.050781 500.886719 206.003906 492.449219 203.070312 C 481.125 199.125 469.949219 194.621094 460.054688 187.765625 C 448.472656 179.742188 444.949219 168.113281 446.519531 154.464844 C 447.621094 144.917969 449.910156 135.703125 453.578125 126.863281 C 455.734375 121.667969 458.195312 116.585938 461.355469 111.878906 C 465.09375 106.300781 470.730469 103.144531 476.445312 100.179688 C 478.699219 99.011719 479.398438 98.058594 479.042969 95.269531 C 477.226562 81.117188 481.609375 68.523438 489.601562 56.996094 C 490.289062 56.003906 490.96875 55.015625 491.652344 54.027344 C 499.488281 61.066406 506.78125 68.644531 513.875 76.425781 C 521.988281 85.316406 529.539062 94.65625 536.765625 104.265625 C 537.195312 104.839844 537.648438 105.363281 537.707031 106.105469 C 536.953125 106.769531 536.140625 107.375 535.457031 108.105469 C 524.402344 119.945312 524.523438 140.332031 535.699219 152.074219 C 537.464844 153.925781 539.515625 155.355469 541.894531 156.328125 C 551.292969 160.179688 560.390625 159.777344 569.160156 154.472656 C 576.851562 167.855469 583.972656 181.523438 589.957031 195.765625 Z M 589.949219 195.769531 " fill-opacity="1" fill-rule="nonzero"/><path fill="#447afb" d="M 231.523438 82.398438 C 241.460938 81.820312 249.554688 86.007812 256.453125 92.601562 C 262.496094 98.382812 265.109375 105.921875 266.183594 114.121094 C 267.175781 121.695312 266.972656 129.128906 264.625 136.433594 C 264.261719 137.558594 264.84375 138.417969 265.199219 139.289062 C 269.21875 149.136719 271.042969 159.46875 272.238281 169.972656 C 273.316406 179.449219 273.324219 188.824219 270.363281 198.003906 C 268.398438 204.082031 265.4375 209.664062 261.457031 214.667969 C 259.152344 217.566406 256.117188 219.511719 252.769531 221.019531 C 243.210938 225.3125 232.972656 225.773438 223.238281 223.4375 C 216.957031 221.929688 211.335938 222.320312 205.449219 223.4375 C 196.585938 225.109375 187.804688 227.007812 178.71875 227.457031 C 167.835938 228.003906 158.859375 224.316406 151.121094 216.976562 C 155.832031 204.917969 161.507812 193.289062 166.953125 181.554688 C 167.53125 180.308594 168.015625 178.949219 169.125 178.003906 C 181.761719 182.527344 193.359375 180.269531 204.050781 172.542969 C 206.855469 170.519531 209.15625 167.929688 210.59375 164.726562 C 217.035156 150.457031 212.703125 134.222656 199.96875 124.78125 C 200.757812 121.570312 203.105469 119.269531 204.875 116.675781 C 211.96875 106.269531 219.566406 96.226562 227.742188 86.636719 C 228.96875 85.195312 229.910156 83.503906 231.515625 82.390625 Z M 231.523438 82.398438 " fill-opacity="1" fill-rule="nonzero"/><path fill="#447afb" d="M 451.617188 23.734375 C 448.972656 34.273438 446.054688 44.605469 438.578125 53.085938 C 430.410156 62.355469 414.402344 66.546875 403.027344 61.816406 C 400.71875 60.855469 398.996094 60.925781 396.730469 62.390625 C 388.007812 68.011719 378.515625 71.304688 368.03125 72.367188 C 356.148438 73.570312 346.28125 70.175781 337.972656 61.855469 C 332.972656 56.851562 330.226562 50.460938 328.902344 43.773438 C 327.984375 39.144531 325.894531 35.664062 322.941406 32.335938 C 318.703125 27.566406 315.101562 22.371094 312.765625 16.382812 C 320.46875 11.8125 328.894531 8.964844 337.328125 6.152344 C 340.839844 4.980469 344.410156 3.953125 348.089844 3.394531 C 349.164062 11.960938 355.15625 16.738281 361.867188 20.699219 C 379.796875 31.273438 400.851562 23.546875 406.75 4.382812 C 422.726562 8.46875 437.578125 15.167969 451.617188 23.734375 Z M 451.617188 23.734375 " fill-opacity="1" fill-rule="nonzero"/><path fill="#faf19e" d="M 539.554688 690.449219 C 536.289062 687.726562 533.539062 684.503906 530.828125 681.257812 C 525.355469 674.703125 525.488281 667.019531 527.300781 659.453125 C 529.195312 651.539062 533.609375 644.75 539.933594 639.628906 C 548.433594 632.753906 558.167969 633.671875 567.820312 636.625 C 574.339844 638.617188 579.65625 642.570312 583.703125 648.125 C 572.691406 661.300781 560.609375 673.382812 547.308594 684.253906 C 544.746094 686.351562 542.4375 688.765625 539.550781 690.453125 Z M 539.554688 690.449219 " fill-opacity="1" fill-rule="nonzero"/><path fill="#faf19e" d="M 136.914062 255.789062 C 151.488281 261.261719 159.226562 272.03125 161.183594 287.226562 C 161.757812 291.652344 160.28125 295.667969 157.984375 299.28125 C 151.960938 308.738281 143.773438 315.332031 132.589844 317.824219 C 127.921875 318.867188 123.621094 317.808594 119.402344 315.921875 C 120.558594 308.789062 122.734375 301.902344 124.511719 294.925781 C 127.746094 282.191406 132.007812 269.765625 135.890625 257.230469 C 136.054688 256.699219 136.5625 256.269531 136.910156 255.789062 Z M 136.914062 255.789062 " fill-opacity="1" fill-rule="nonzero"/><path fill="#faf19e" d="M 631.070312 316.222656 C 622.503906 320.464844 614.769531 317.542969 607.292969 313.292969 C 602.144531 310.359375 597.992188 306.253906 594.628906 301.378906 C 591.398438 296.695312 591 291.34375 591.726562 285.980469 C 593.183594 275.214844 598.328125 266.679688 607.886719 261.101562 C 610.003906 259.871094 612.417969 259.476562 614.75 258.835938 C 618.429688 267.742188 620.917969 277.039062 623.636719 286.246094 C 626.238281 295.074219 628.273438 304.0625 630.644531 312.960938 C 630.933594 314.0625 631.039062 315.125 631.070312 316.222656 Z M 631.070312 316.222656 " fill-opacity="1" fill-rule="nonzero"/><path fill="#faf19e" d="M 199.976562 124.785156 C 212.707031 134.222656 217.042969 150.457031 210.601562 164.734375 C 209.15625 167.933594 206.855469 170.523438 204.054688 172.546875 C 193.363281 180.273438 181.765625 182.535156 169.132812 178.007812 C 170.675781 172.734375 173.796875 168.230469 176.324219 163.453125 C 182.914062 151.023438 190.109375 138.941406 197.796875 127.15625 C 198.378906 126.265625 198.714844 125.082031 199.976562 124.785156 Z M 199.976562 124.785156 " fill-opacity="1" fill-rule="nonzero"/><path fill="#faf19e" d="M 164.265625 644.960938 C 177.65625 634.71875 197.839844 636.867188 208.71875 649.734375 C 211.441406 652.957031 212.21875 656.96875 212.519531 660.992188 C 213.214844 670.199219 211.464844 678.800781 205.585938 686.230469 C 190.363281 673.925781 176.496094 660.261719 164.265625 644.960938 Z M 164.265625 644.960938 " fill-opacity="1" fill-rule="nonzero"/><path fill="#faf19e" d="M 569.15625 154.476562 C 560.390625 159.785156 551.285156 160.183594 541.886719 156.335938 C 539.511719 155.363281 537.460938 153.933594 535.695312 152.078125 C 524.511719 140.335938 524.398438 119.953125 535.453125 108.113281 C 536.132812 107.378906 536.949219 106.773438 537.703125 106.109375 C 542.9375 111.71875 546.804688 118.324219 551.035156 124.648438 C 557.507812 134.320312 563.648438 144.210938 569.148438 154.476562 Z M 569.15625 154.476562 " fill-opacity="1" fill-rule="nonzero"/><path fill="#faf19e" d="M 406.75 4.382812 C 400.851562 23.546875 379.796875 31.273438 361.867188 20.699219 C 355.152344 16.738281 349.15625 11.960938 348.089844 3.394531 C 353.300781 1.980469 358.621094 1.296875 363.96875 0.605469 C 368.78125 -0.0234375 373.582031 0.0273438 378.390625 0.09375 C 388.03125 0.21875 397.46875 1.84375 406.75 4.382812 Z M 406.75 4.382812 " fill-opacity="1" fill-rule="nonzero"/><path fill="#447afb" d="M 428.695312 262.011719 C 433.8125 261.042969 438.886719 259.839844 444.039062 259.15625 C 454.542969 257.765625 465.027344 257.730469 474.480469 263.390625 C 484.894531 269.628906 490.300781 279.546875 492.773438 291.03125 C 495.777344 304.945312 491.140625 317.40625 484.496094 329.359375 C 480.570312 336.425781 476.230469 343.214844 470.648438 349.074219 C 464.648438 355.371094 457.691406 360.53125 450.238281 364.992188 C 440.117188 371.046875 429.734375 376.605469 418.917969 381.320312 C 417.152344 382.089844 416.023438 383.253906 415.1875 385.007812 C 408.859375 398.230469 400.414062 409.980469 389.628906 419.890625 C 382.382812 426.546875 373.773438 430.367188 363.695312 430.449219 C 356.058594 430.515625 348.558594 430.074219 342.003906 425.59375 C 333.714844 419.929688 328.703125 412.042969 326.777344 402.210938 C 325.265625 394.488281 326.109375 386.992188 329.308594 379.804688 C 330.199219 377.808594 329.726562 377.355469 327.578125 377.011719 C 311.839844 374.523438 296.4375 370.96875 282.820312 362.082031 C 277.609375 358.683594 273.296875 354.453125 270.070312 349.113281 C 265.351562 341.316406 264.960938 333.234375 268.335938 324.875 C 272.832031 313.738281 281.304688 306.113281 290.910156 299.558594 C 297.15625 295.296875 303.871094 291.832031 310.863281 288.917969 C 312.578125 288.203125 313.75 287.160156 314.75 285.441406 C 323.125 271.089844 333.355469 258.144531 345.40625 246.710938 C 357.050781 235.667969 369.429688 225.570312 383.859375 218.246094 C 390.402344 214.929688 397.242188 212.675781 404.558594 212.355469 C 415.832031 211.867188 424.90625 218.472656 429.269531 229.570312 C 433.019531 239.105469 432.617188 248.570312 429.597656 258.121094 C 429.207031 259.359375 428.898438 260.621094 428.550781 261.871094 C 428.46875 262 428.394531 262.121094 428.3125 262.246094 C 428.441406 262.171875 428.570312 262.097656 428.703125 262.023438 Z M 404.402344 323.238281 C 404.320312 306.207031 390.839844 292.621094 374.566406 292.195312 C 358.742188 291.785156 342.664062 305.164062 343.359375 322.570312 C 344.152344 342.328125 355.933594 353.921875 371.46875 353.671875 C 388.964844 353.394531 404.914062 343.769531 404.402344 323.246094 Z M 404.402344 323.238281 " fill-opacity="1" fill-rule="nonzero"/><path fill="#447afb" d="M 301.859375 636.851562 C 301.714844 633.199219 302.222656 629.613281 302.976562 626.082031 C 303.378906 624.195312 302.347656 623.316406 301.292969 622.21875 C 295.253906 615.925781 291.628906 608.589844 292.246094 599.679688 C 292.800781 591.636719 296.375 584.777344 301.710938 578.925781 C 310.71875 569.0625 322.105469 562.847656 334.726562 559.058594 C 344.363281 556.164062 353.679688 552.859375 362.664062 548.179688 C 373.847656 542.355469 386.066406 538.878906 398.640625 537.878906 C 412.558594 536.769531 426.425781 537.449219 439.238281 544.242188 C 451.171875 550.566406 458.230469 560.230469 460.175781 573.703125 C 462.050781 586.675781 458.554688 598.367188 452.25 609.46875 C 450.617188 612.347656 449.15625 615.34375 447.039062 617.929688 C 446.152344 619.011719 446.722656 619.933594 447.140625 620.980469 C 449.980469 628.117188 452.5 635.339844 451.628906 643.214844 C 450.4375 654.0625 446.382812 663.425781 438.183594 671.019531 C 430.703125 677.949219 422.449219 683.167969 412.371094 685.167969 C 409.726562 685.695312 407.003906 686.136719 404.320312 686.136719 C 397.660156 686.136719 391.082031 687.160156 384.449219 687.421875 C 383.152344 687.472656 382.210938 688.230469 381.253906 688.984375 C 371.449219 696.726562 360.082031 699.566406 347.886719 698.824219 C 332.089844 697.855469 320.9375 689.5 313.386719 675.867188 C 310.605469 670.84375 307.789062 665.832031 305.605469 660.527344 C 302.484375 652.957031 302.394531 644.863281 301.859375 636.867188 Z M 368.738281 597.117188 C 352.023438 596.355469 339.800781 611.664062 340.429688 627.855469 C 341.175781 647.171875 355.621094 658.269531 373.472656 658.605469 C 388.289062 658.882812 402.511719 642.582031 402.648438 625.691406 C 402.765625 611.082031 386.324219 597.226562 368.738281 597.125 Z M 368.738281 597.117188 " fill-opacity="1" fill-rule="nonzero"/><path fill="#faf19e" d="M 344.25 481.730469 C 344.335938 469.445312 350.175781 460.371094 360.894531 455.070312 C 369.007812 451.054688 377.691406 452.710938 385.832031 456.058594 C 393.921875 459.386719 399.519531 465.496094 403.511719 473.152344 C 405.921875 477.765625 406.125 482.605469 404.777344 487.554688 C 402.3125 496.617188 397.527344 504.257812 389.925781 509.753906 C 381.410156 515.921875 372.179688 514.714844 363.132812 510.964844 C 350.195312 505.609375 344.222656 495.59375 344.257812 481.730469 Z M 344.25 481.730469 " fill-opacity="1" fill-rule="nonzero"/><path fill="#faf19e" d="M 375.648438 115.859375 C 389.234375 115.199219 400.441406 124.355469 403.769531 133.847656 C 407.679688 145 404.503906 155.339844 397.636719 164.527344 C 394.609375 168.585938 390.527344 171.617188 386.015625 174.058594 C 379.738281 177.464844 373.433594 177.726562 366.828125 175 C 360.347656 172.320312 354.828125 168.417969 350.261719 163.132812 C 342.414062 154.046875 343.023438 143.996094 347.632812 133.957031 C 353.085938 122.089844 362.367188 115.574219 375.648438 115.859375 Z M 375.648438 115.859375 " fill-opacity="1" fill-rule="nonzero"/><path fill="#faf19e" d="M 583.632812 491.015625 C 566.125 491.015625 550.785156 477.328125 549.085938 460.746094 C 548.734375 457.308594 549.648438 454.125 551.078125 451.105469 C 555.179688 442.417969 561.417969 435.667969 570.265625 431.792969 C 580.335938 427.375 589.191406 431.109375 597.46875 436.796875 C 616.164062 449.648438 613.050781 479.933594 591 489.585938 C 588.5 490.679688 585.796875 491.179688 583.636719 491.015625 Z M 583.632812 491.015625 " fill-opacity="1" fill-rule="nonzero"/><path fill="#faf19e" d="M 193.910156 457.160156 C 194.117188 460.300781 193.722656 463.390625 193.089844 466.464844 C 190.328125 479.832031 180.3125 485.824219 166.449219 487.261719 C 144.945312 489.496094 126.8125 465.308594 137.117188 443.503906 C 140.730469 435.855469 147.886719 432.238281 155.625 430 C 166.542969 426.84375 176.589844 429.195312 185.707031 435.710938 C 191.664062 439.976562 193.035156 446.53125 193.890625 453.234375 C 194.058594 454.519531 193.914062 455.851562 193.914062 457.160156 Z M 193.910156 457.160156 " fill-opacity="1" fill-rule="nonzero"/><path fill="#faf19e" d="M 404.402344 323.238281 C 404.914062 343.757812 388.964844 353.386719 371.46875 353.667969 C 355.933594 353.914062 344.152344 342.324219 343.359375 322.5625 C 342.664062 305.160156 358.742188 291.777344 374.566406 292.191406 C 390.839844 292.613281 404.320312 306.203125 404.402344 323.234375 Z M 404.402344 323.238281 " fill-opacity="1" fill-rule="nonzero"/><path fill="#8bd2fb" d="M 428.695312 262.011719 C 428.5625 262.085938 428.4375 262.160156 428.304688 262.234375 C 428.386719 262.109375 428.464844 261.988281 428.546875 261.863281 C 428.546875 261.863281 428.695312 262.011719 428.695312 262.011719 Z M 428.695312 262.011719 " fill-opacity="1" fill-rule="nonzero"/><path fill="#faf19e" d="M 368.738281 597.117188 C 386.324219 597.226562 402.765625 611.074219 402.648438 625.6875 C 402.511719 642.582031 388.292969 658.882812 373.472656 658.601562 C 355.621094 658.269531 341.175781 647.167969 340.429688 627.847656 C 339.800781 611.660156 352.023438 596.347656 368.738281 597.113281 Z M 368.738281 597.117188 " fill-opacity="1" fill-rule="nonzero"/></svg>