<svg xmlns="http://www.w3.org/2000/svg" xmlns:xlink="http://www.w3.org/1999/xlink" width="800" zoomAndPan="magnify" viewBox="0 0 600 599.999999" height="800" preserveAspectRatio="xMidYMid meet" version="1.0"><path fill="#599b5b" d="M 442.667969 331.777344 C 423.828125 294.050781 380.355469 337.527344 349.171875 387.59375 C 331.425781 416.101562 317.941406 463.691406 309.613281 499.480469 C 296.328125 393.394531 310.753906 289.34375 310.953125 288.101562 C 311.792969 282.054688 307.582031 276.402344 301.53125 275.5625 C 295.433594 274.667969 289.832031 278.929688 288.992188 284.980469 C 288.246094 289.984375 274.914062 386.15625 286.066406 489.765625 C 275.257812 455.808594 258.949219 411.339844 238.921875 378.671875 C 201.890625 318.191406 138.4375 310.808594 143.046875 358.992188 C 145.675781 386.40625 171.851562 541.816406 286.660156 589.109375 C 293.15625 591.785156 299.945312 594.808594 307.828125 594.808594 C 307.828125 594.808594 335.390625 599.964844 373.066406 557.332031 C 410.890625 514.550781 461.554688 369.5 442.667969 331.777344 Z M 442.667969 331.777344 " fill-opacity="1" fill-rule="nonzero"/><path fill="#ff2828" d="M 299.996094 321.613281 C 299.996094 321.613281 487.28125 321.613281 490.257812 139.136719 C 490.257812 139.136719 494.867188 71.566406 445.691406 58.628906 C 395.273438 45.394531 380.652344 98.980469 380.652344 98.980469 C 380.652344 98.980469 374.207031 1.324219 299.996094 0.0351562 C 225.785156 1.324219 219.390625 98.980469 219.390625 98.980469 C 219.390625 98.980469 204.765625 45.34375 154.351562 58.628906 C 105.125 71.566406 109.734375 139.136719 109.734375 139.136719 C 112.710938 321.613281 299.996094 321.613281 299.996094 321.613281 Z M 299.996094 321.613281 " fill-opacity="1" fill-rule="nonzero"/></svg>