<svg xmlns="http://www.w3.org/2000/svg" xmlns:xlink="http://www.w3.org/1999/xlink" width="800" zoomAndPan="magnify" viewBox="0 0 600 599.999999" height="800" preserveAspectRatio="xMidYMid meet" version="1.0"><defs><g/><clipPath id="0c300e9e84"><path d="M 0.601562 48 L 570.601562 48 L 570.601562 316.160156 L 0.601562 316.160156 Z M 0.601562 48 " clip-rule="nonzero"/></clipPath><clipPath id="81a57777c5"><rect x="0" width="571" y="0" height="269"/></clipPath><clipPath id="6dc2e5030a"><path d="M 217 0.078125 L 290 0.078125 L 290 57 L 217 57 Z M 217 0.078125 " clip-rule="nonzero"/></clipPath><clipPath id="d23f434bed"><path d="M 241 54 L 266 54 L 266 62.953125 L 241 62.953125 Z M 241 54 " clip-rule="nonzero"/></clipPath><clipPath id="206ad6c357"><rect x="0" width="571" y="0" height="317"/></clipPath></defs><g transform="matrix(1, 0, 0, 1, 15, 136)"><g clip-path="url(#206ad6c357)"><g clip-path="url(#0c300e9e84)"><g transform="matrix(1, 0, 0, 1, 0, 48)"><g clip-path="url(#81a57777c5)"><g fill="#2e6417" fill-opacity="1"><g transform="translate(8.174562, 116.894083)"><g><path d="M 52.359375 11.015625 C 46.960938 11.015625 42.335938 10.675781 38.484375 10 C 34.628906 9.332031 31.328125 8.273438 28.578125 6.828125 C 25.890625 5.390625 23.679688 3.539062 21.953125 1.28125 C 20.234375 -0.96875 18.890625 -3.648438 17.921875 -6.765625 C 16.898438 -9.921875 16.164062 -13.519531 15.71875 -17.5625 C 15.28125 -21.613281 14.96875 -26.171875 14.78125 -31.234375 L 14.78125 -31.09375 C 14.726562 -31.832031 14.691406 -32.628906 14.671875 -33.484375 C 14.648438 -34.347656 14.640625 -35.25 14.640625 -36.1875 L 14.640625 -41.90625 C 14.640625 -43.25 14.640625 -44.515625 14.640625 -45.703125 C 14.640625 -46.890625 14.640625 -47.992188 14.640625 -49.015625 C 14.640625 -50.035156 14.640625 -51.019531 14.640625 -51.96875 C 14.640625 -52.925781 14.660156 -53.867188 14.703125 -54.796875 C 14.753906 -55.722656 14.78125 -56.660156 14.78125 -57.609375 C 14.78125 -58.566406 14.800781 -59.535156 14.84375 -60.515625 L 15.0625 -67.0625 L -3.34375 -65.609375 L -5.859375 -104.578125 C -0.648438 -105.597656 4.71875 -106.515625 10.25 -107.328125 C 15.78125 -108.140625 21.359375 -108.847656 26.984375 -109.453125 C 32.554688 -110.015625 38.097656 -110.445312 43.609375 -110.75 C 49.117188 -111.050781 54.425781 -111.203125 59.53125 -111.203125 C 60.738281 -111.203125 61.890625 -111.203125 62.984375 -111.203125 C 64.078125 -111.203125 65.085938 -111.222656 66.015625 -111.265625 C 67.921875 -111.265625 69.734375 -111.253906 71.453125 -111.234375 C 73.179688 -111.210938 74.878906 -111.15625 76.546875 -111.0625 C 77.378906 -111.007812 78.25 -110.925781 79.15625 -110.8125 C 80.070312 -110.695312 81.039062 -110.59375 82.0625 -110.5 L 81.984375 -110.5 C 84.960938 -110.175781 87.585938 -109.363281 89.859375 -108.0625 C 92.140625 -106.757812 94.046875 -105.085938 95.578125 -103.046875 C 97.117188 -101.046875 98.28125 -98.71875 99.0625 -96.0625 C 99.851562 -93.414062 100.25 -90.628906 100.25 -87.703125 C 100.25 -86.359375 100.109375 -84.894531 99.828125 -83.3125 C 99.554688 -81.726562 99.09375 -80.125 98.4375 -78.5 C 97.789062 -76.875 96.929688 -75.316406 95.859375 -73.828125 C 94.796875 -72.335938 93.445312 -71.035156 91.8125 -69.921875 C 90.1875 -68.765625 88.269531 -67.859375 86.0625 -67.203125 C 83.851562 -66.554688 81.285156 -66.253906 78.359375 -66.296875 L 77.109375 -66.296875 C 76.640625 -66.296875 76.171875 -66.304688 75.703125 -66.328125 C 75.242188 -66.359375 74.828125 -66.394531 74.453125 -66.4375 C 74.265625 -66.488281 74.085938 -66.515625 73.921875 -66.515625 C 73.765625 -66.515625 73.640625 -66.535156 73.546875 -66.578125 C 73.546875 -62.117188 73.582031 -57.390625 73.65625 -52.390625 C 73.726562 -47.390625 73.898438 -42.335938 74.171875 -37.234375 C 74.453125 -32.160156 74.847656 -27.113281 75.359375 -22.09375 C 75.867188 -17.082031 76.546875 -12.367188 77.390625 -7.953125 C 77.804688 -5.765625 77.710938 -3.785156 77.109375 -2.015625 C 76.503906 -0.253906 75.523438 1.320312 74.171875 2.71875 C 72.878906 4.113281 71.300781 5.332031 69.4375 6.375 C 67.582031 7.425781 65.65625 8.300781 63.65625 9 C 61.65625 9.695312 59.664062 10.207031 57.6875 10.53125 C 55.71875 10.851562 53.941406 11.015625 52.359375 11.015625 Z M 52.359375 1.25 C 54.304688 1.25 56.195312 1.015625 58.03125 0.546875 C 59.875 0.0859375 61.515625 -0.507812 62.953125 -1.25 C 64.390625 -1.945312 65.550781 -2.710938 66.4375 -3.546875 C 67.320312 -4.390625 67.765625 -5.179688 67.765625 -5.921875 L 67.765625 -6.203125 C 66.929688 -11.035156 66.242188 -16.191406 65.703125 -21.671875 C 65.171875 -27.160156 64.765625 -32.648438 64.484375 -38.140625 C 64.203125 -43.671875 64.003906 -49.082031 63.890625 -54.375 C 63.773438 -59.675781 63.71875 -64.601562 63.71875 -69.15625 L 63.71875 -77.171875 C 64.507812 -77.128906 65.226562 -77.09375 65.875 -77.0625 C 66.53125 -77.039062 67.113281 -77.03125 67.625 -77.03125 L 70.421875 -77.03125 C 71.203125 -77.03125 71.976562 -77.003906 72.75 -76.953125 C 73.519531 -76.910156 74.460938 -76.820312 75.578125 -76.6875 C 76.640625 -76.550781 77.566406 -76.484375 78.359375 -76.484375 C 80.585938 -76.484375 82.46875 -76.863281 84 -77.625 C 85.539062 -78.394531 86.800781 -79.335938 87.78125 -80.453125 C 88.707031 -81.566406 89.390625 -82.773438 89.828125 -84.078125 C 90.273438 -85.378906 90.5 -86.585938 90.5 -87.703125 C 90.5 -91.140625 89.679688 -94.085938 88.046875 -96.546875 C 86.421875 -99.015625 84.050781 -100.4375 80.9375 -100.8125 C 79.03125 -101.039062 77.296875 -101.203125 75.734375 -101.296875 C 74.179688 -101.390625 72.59375 -101.460938 70.96875 -101.515625 L 65.8125 -101.515625 C 64.925781 -101.460938 63.957031 -101.4375 62.90625 -101.4375 C 61.863281 -101.4375 60.738281 -101.4375 59.53125 -101.4375 C 54.75 -101.4375 49.925781 -101.332031 45.0625 -101.125 C 40.207031 -100.914062 35.4375 -100.601562 30.75 -100.1875 C 21.125 -99.34375 12.382812 -98.179688 4.53125 -96.703125 L 5.15625 -86.515625 C 5.25 -84.890625 5.34375 -83.21875 5.4375 -81.5 C 5.53125 -79.78125 5.625 -78.015625 5.71875 -76.203125 L 10.8125 -76.625 C 11.59375 -76.664062 12.390625 -76.71875 13.203125 -76.78125 C 14.023438 -76.851562 14.828125 -76.914062 15.609375 -76.96875 C 18.679688 -77.195312 21.867188 -77.335938 25.171875 -77.390625 C 25.078125 -74.878906 24.992188 -72.144531 24.921875 -69.1875 C 24.847656 -66.238281 24.769531 -63.1875 24.6875 -60.03125 C 24.632812 -56.914062 24.570312 -53.773438 24.5 -50.609375 C 24.4375 -47.453125 24.40625 -44.457031 24.40625 -41.625 C 24.40625 -36.414062 24.472656 -31.742188 24.609375 -27.609375 C 24.742188 -23.472656 25.113281 -19.820312 25.71875 -16.65625 C 26.320312 -13.457031 27.21875 -10.726562 28.40625 -8.46875 C 29.59375 -6.21875 31.234375 -4.367188 33.328125 -2.921875 C 37.328125 -0.140625 43.671875 1.25 52.359375 1.25 Z M 52.359375 1.25 "/></g></g></g><g fill="#2e6417" fill-opacity="1"><g transform="translate(105.416866, 116.894083)"><g><path d="M 68.734375 8.921875 L 37.296875 8.296875 L 37.4375 8.296875 C 32.226562 8.296875 27.679688 7.96875 23.796875 7.3125 C 19.921875 6.664062 16.613281 5.644531 13.875 4.25 C 11.082031 2.851562 8.816406 1.066406 7.078125 -1.109375 C 5.335938 -3.296875 3.929688 -5.878906 2.859375 -8.859375 C 1.835938 -11.878906 1.113281 -15.328125 0.6875 -19.203125 C 0.269531 -23.085938 0.0625 -27.46875 0.0625 -32.34375 L 0.0625 -34.515625 L 0.765625 -75.15625 C -0.578125 -75.0625 -1.785156 -75.003906 -2.859375 -74.984375 C -3.929688 -74.960938 -4.675781 -74.953125 -5.09375 -74.953125 L -4.109375 -109.390625 L 7.25 -109.59375 C 8.78125 -109.59375 10.359375 -109.601562 11.984375 -109.625 C 13.617188 -109.65625 15.203125 -109.691406 16.734375 -109.734375 C 18.265625 -109.785156 19.691406 -109.820312 21.015625 -109.84375 C 22.335938 -109.863281 23.488281 -109.875 24.46875 -109.875 C 32.789062 -109.96875 40.945312 -110.109375 48.9375 -110.296875 C 52.332031 -110.390625 55.875 -110.492188 59.5625 -110.609375 C 63.257812 -110.722656 66.898438 -110.875 70.484375 -111.0625 C 74.066406 -111.195312 77.539062 -111.378906 80.90625 -111.609375 C 84.28125 -111.847656 87.359375 -112.109375 90.140625 -112.390625 C 91.628906 -112.523438 93.300781 -112.019531 95.15625 -110.875 C 97.019531 -109.738281 98.789062 -108.171875 100.46875 -106.171875 C 102.09375 -104.179688 103.460938 -101.882812 104.578125 -99.28125 C 105.691406 -96.675781 106.25 -93.957031 106.25 -91.125 C 106.25 -82.289062 105.015625 -75.617188 102.546875 -71.109375 C 101.296875 -68.835938 99.691406 -66.96875 97.734375 -65.5 C 95.785156 -64.03125 93.460938 -62.925781 90.765625 -62.1875 C 91.515625 -60.789062 92.109375 -59.328125 92.546875 -57.796875 C 92.992188 -56.265625 93.21875 -54.707031 93.21875 -53.125 C 93.21875 -50.707031 93.109375 -48.535156 92.890625 -46.609375 C 92.679688 -44.679688 92.394531 -42.925781 92.03125 -41.34375 C 93.46875 -40.644531 94.882812 -39.65625 96.28125 -38.375 C 97.675781 -37.101562 98.929688 -35.601562 100.046875 -33.875 C 101.160156 -32.15625 102.066406 -30.257812 102.765625 -28.1875 C 103.460938 -26.125 103.8125 -23.976562 103.8125 -21.75 C 103.8125 -15.382812 103.207031 -10.203125 102 -6.203125 C 100.789062 -2.203125 98.859375 0.910156 96.203125 3.140625 C 93.554688 5.367188 90.140625 6.890625 85.953125 7.703125 C 81.773438 8.515625 76.734375 8.921875 70.828125 8.921875 Z M 70.828125 -0.84375 C 75.015625 -0.84375 78.570312 -1.117188 81.5 -1.671875 C 84.425781 -2.234375 86.820312 -3.28125 88.6875 -4.8125 C 90.539062 -6.34375 91.894531 -8.46875 92.75 -11.1875 C 93.613281 -13.90625 94.046875 -17.425781 94.046875 -21.75 C 94.046875 -23.1875 93.859375 -24.566406 93.484375 -25.890625 C 93.117188 -27.222656 92.679688 -28.398438 92.171875 -29.421875 C 91.609375 -30.441406 91.015625 -31.242188 90.390625 -31.828125 C 89.765625 -32.410156 89.171875 -32.703125 88.609375 -32.703125 L 88.46875 -32.703125 C 85.3125 -32.421875 82.082031 -32.1875 78.78125 -32 C 75.476562 -31.8125 72.175781 -31.671875 68.875 -31.578125 C 65.625 -31.441406 62.441406 -31.335938 59.328125 -31.265625 C 56.210938 -31.191406 53.332031 -31.15625 50.6875 -31.15625 L 50.46875 -38.6875 L 66.65625 -38.546875 C 69.675781 -38.546875 72.253906 -38.695312 74.390625 -39 C 76.523438 -39.300781 78.269531 -39.96875 79.625 -41 C 80.96875 -41.96875 81.941406 -43.414062 82.546875 -45.34375 C 83.148438 -47.28125 83.453125 -49.875 83.453125 -53.125 C 83.453125 -54.238281 83.3125 -55.34375 83.03125 -56.4375 C 82.75 -57.53125 82.425781 -58.519531 82.0625 -59.40625 C 81.644531 -60.238281 81.203125 -60.921875 80.734375 -61.453125 C 80.265625 -61.984375 79.847656 -62.273438 79.484375 -62.328125 C 77.578125 -62.191406 75.484375 -62.050781 73.203125 -61.90625 C 70.921875 -61.769531 68.503906 -61.65625 65.953125 -61.5625 C 63.398438 -61.46875 60.773438 -61.382812 58.078125 -61.3125 C 55.378906 -61.25 52.707031 -61.191406 50.0625 -61.140625 C 50.007812 -61.972656 49.984375 -62.796875 49.984375 -63.609375 C 49.984375 -64.429688 49.984375 -65.234375 49.984375 -66.015625 L 49.984375 -70.625 L 73.765625 -70.203125 C 77.847656 -70.203125 81.332031 -70.476562 84.21875 -71.03125 C 87.101562 -71.59375 89.453125 -72.640625 91.265625 -74.171875 C 93.078125 -75.710938 94.398438 -77.84375 95.234375 -80.5625 C 96.066406 -83.28125 96.484375 -86.800781 96.484375 -91.125 C 96.484375 -92.5625 96.296875 -93.976562 95.921875 -95.375 C 95.554688 -96.769531 95.09375 -98 94.53125 -99.0625 C 93.976562 -100.132812 93.382812 -100.992188 92.75 -101.640625 C 92.125 -102.296875 91.554688 -102.644531 91.046875 -102.6875 C 87.890625 -102.414062 84.332031 -102.160156 80.375 -101.921875 C 76.425781 -101.691406 72.316406 -101.484375 68.046875 -101.296875 C 63.816406 -101.109375 59.570312 -100.945312 55.3125 -100.8125 C 51.0625 -100.675781 47.148438 -100.5625 43.578125 -100.46875 C 39.953125 -100.375 36.78125 -100.289062 34.0625 -100.21875 C 31.34375 -100.144531 29.378906 -100.109375 28.171875 -100.109375 L 25.453125 -100.109375 C 24.941406 -100.109375 24.394531 -100.109375 23.8125 -100.109375 C 23.226562 -100.109375 22.632812 -100.109375 22.03125 -100.109375 C 20.820312 -100.066406 19.578125 -100.03125 18.296875 -100 C 17.023438 -99.976562 15.757812 -99.96875 14.5 -99.96875 C 13.0625 -99.925781 11.585938 -99.90625 10.078125 -99.90625 C 8.566406 -99.90625 7.019531 -99.878906 5.4375 -99.828125 L 4.875 -85.0625 L 10.671875 -85.0625 L 9.828125 -32.34375 C 9.828125 -26.769531 10.1875 -22.03125 10.90625 -18.125 C 11.625 -14.21875 13.03125 -11.035156 15.125 -8.578125 C 17.21875 -6.066406 20.15625 -4.238281 23.9375 -3.09375 C 27.726562 -1.957031 32.691406 -1.390625 38.828125 -1.390625 Z M 70.828125 -0.84375 "/></g></g></g><g fill="#2e6417" fill-opacity="1"><g transform="translate(208.654036, 116.894083)"><g><path d="M 73.484375 14.921875 C 69.765625 14.921875 66.859375 14.242188 64.765625 12.890625 C 63.691406 12.203125 62.703125 11.296875 61.796875 10.171875 C 60.890625 9.054688 59.953125 7.710938 58.984375 6.140625 L 1.046875 11.296875 L 1.046875 -21.46875 L -5.375 -21.96875 L -5.375 -55.90625 L 0.5625 -55.90625 L 0.5625 -105 C 4.882812 -105.601562 9.238281 -106.21875 13.625 -106.84375 C 18.019531 -107.46875 22.65625 -108.015625 27.53125 -108.484375 C 32.414062 -108.992188 37.644531 -109.398438 43.21875 -109.703125 C 48.800781 -110.003906 54.914062 -110.15625 61.5625 -110.15625 C 70.90625 -110.15625 79.1875 -109.128906 86.40625 -107.078125 C 93.632812 -105.035156 99.710938 -101.945312 104.640625 -97.8125 C 109.523438 -93.675781 113.234375 -88.445312 115.765625 -82.125 C 118.296875 -75.800781 119.5625 -68.363281 119.5625 -59.8125 C 119.5625 -52.65625 118.492188 -46.378906 116.359375 -40.984375 C 114.222656 -35.597656 110.597656 -31.023438 105.484375 -27.265625 C 105.941406 -26.378906 106.390625 -25.515625 106.828125 -24.671875 C 107.273438 -23.835938 107.707031 -23.003906 108.125 -22.171875 C 108.5 -21.285156 108.894531 -20.421875 109.3125 -19.578125 C 109.726562 -18.742188 110.125 -17.9375 110.5 -17.15625 L 110.5 -17.21875 C 111.570312 -14.894531 112.347656 -12.789062 112.828125 -10.90625 C 113.316406 -9.03125 113.5625 -7.226562 113.5625 -5.5 C 113.5625 -2.851562 113.164062 -0.613281 112.375 1.21875 C 111.59375 3.050781 110.4375 4.617188 108.90625 5.921875 C 107.363281 7.222656 105.453125 8.328125 103.171875 9.234375 C 100.898438 10.140625 98.300781 10.941406 95.375 11.640625 C 90.03125 12.941406 85.601562 13.8125 82.09375 14.25 C 78.582031 14.695312 75.710938 14.921875 73.484375 14.921875 Z M 73.484375 5.15625 C 73.941406 5.15625 75.007812 5.085938 76.6875 4.953125 C 78.363281 4.804688 80.328125 4.582031 82.578125 4.28125 C 84.835938 3.976562 87.21875 3.550781 89.71875 3 C 92.1875 2.488281 94.46875 1.835938 96.5625 1.046875 C 98.65625 0.253906 100.394531 -0.675781 101.78125 -1.75 C 103.132812 -2.8125 103.8125 -4.0625 103.8125 -5.5 C 103.8125 -6.851562 103.4375 -8.550781 102.6875 -10.59375 C 101.945312 -12.644531 100.992188 -14.851562 99.828125 -17.21875 C 98.671875 -19.539062 97.421875 -21.910156 96.078125 -24.328125 C 95.421875 -25.535156 94.78125 -26.707031 94.15625 -27.84375 C 93.53125 -28.988281 92.914062 -30.070312 92.3125 -31.09375 C 95.507812 -32.4375 98.222656 -34.050781 100.453125 -35.9375 C 102.691406 -37.820312 104.507812 -39.945312 105.90625 -42.3125 C 107.25 -44.6875 108.234375 -47.335938 108.859375 -50.265625 C 109.492188 -53.191406 109.8125 -56.375 109.8125 -59.8125 C 109.8125 -66.507812 108.75 -72.390625 106.625 -77.453125 C 104.507812 -82.523438 101.382812 -86.753906 97.25 -90.140625 C 88.9375 -96.972656 77.039062 -100.390625 61.5625 -100.390625 C 55.289062 -100.390625 49.515625 -100.238281 44.234375 -99.9375 C 38.960938 -99.632812 34.1875 -99.273438 29.90625 -98.859375 C 25.582031 -98.441406 21.78125 -97.988281 18.5 -97.5 C 15.226562 -97.007812 12.429688 -96.578125 10.109375 -96.203125 L 10.109375 -45.390625 L 5.09375 -45.734375 L 4.59375 -31.03125 L 7.671875 -30.8125 C 8.128906 -30.769531 8.601562 -30.722656 9.09375 -30.671875 C 9.582031 -30.628906 10.0625 -30.582031 10.53125 -30.53125 L 10.734375 0.625 L 31.71875 -1.25 C 35.113281 -1.582031 38.566406 -1.910156 42.078125 -2.234375 C 45.585938 -2.554688 49.15625 -2.878906 52.78125 -3.203125 C 52.40625 -6.179688 52.054688 -9.5625 51.734375 -13.34375 C 51.410156 -17.132812 51.109375 -21.144531 50.828125 -25.375 L 55.21875 -25.375 C 55.914062 -23.332031 56.679688 -21.191406 57.515625 -18.953125 C 58.347656 -16.722656 59.207031 -14.519531 60.09375 -12.34375 C 60.925781 -10.15625 61.773438 -8.0625 62.640625 -6.0625 C 63.503906 -4.0625 64.304688 -2.296875 65.046875 -0.765625 C 65.421875 -0.0234375 65.769531 0.644531 66.09375 1.25 C 66.414062 1.851562 66.738281 2.390625 67.0625 2.859375 C 67.625 3.742188 68.09375 4.234375 68.46875 4.328125 C 68.5625 4.367188 68.976562 4.503906 69.71875 4.734375 C 70.414062 5.015625 71.671875 5.15625 73.484375 5.15625 Z M 49.703125 -45.171875 C 49.429688 -50.984375 49.1875 -56.492188 48.96875 -61.703125 C 48.757812 -66.910156 48.609375 -71.554688 48.515625 -75.640625 L 50.40625 -75.640625 C 53.195312 -75.640625 55.707031 -75.40625 57.9375 -74.9375 C 60.164062 -74.476562 62.046875 -73.710938 63.578125 -72.640625 C 65.117188 -71.578125 66.296875 -70.125 67.109375 -68.28125 C 67.921875 -66.445312 68.328125 -64.179688 68.328125 -61.484375 C 68.328125 -59.441406 68.09375 -57.441406 67.625 -55.484375 C 67.15625 -53.535156 66.296875 -51.796875 65.046875 -50.265625 C 63.785156 -48.734375 62.039062 -47.5 59.8125 -46.5625 C 57.582031 -45.632812 54.703125 -45.171875 51.171875 -45.171875 Z M 49.703125 -45.171875 "/></g></g></g><g fill="#2e6417" fill-opacity="1"><g transform="translate(325.27509, 116.894083)"><g><path d="M 73.484375 14.921875 C 69.765625 14.921875 66.859375 14.242188 64.765625 12.890625 C 63.691406 12.203125 62.703125 11.296875 61.796875 10.171875 C 60.890625 9.054688 59.953125 7.710938 58.984375 6.140625 L 1.046875 11.296875 L 1.046875 -21.46875 L -5.375 -21.96875 L -5.375 -55.90625 L 0.5625 -55.90625 L 0.5625 -105 C 4.882812 -105.601562 9.238281 -106.21875 13.625 -106.84375 C 18.019531 -107.46875 22.65625 -108.015625 27.53125 -108.484375 C 32.414062 -108.992188 37.644531 -109.398438 43.21875 -109.703125 C 48.800781 -110.003906 54.914062 -110.15625 61.5625 -110.15625 C 70.90625 -110.15625 79.1875 -109.128906 86.40625 -107.078125 C 93.632812 -105.035156 99.710938 -101.945312 104.640625 -97.8125 C 109.523438 -93.675781 113.234375 -88.445312 115.765625 -82.125 C 118.296875 -75.800781 119.5625 -68.363281 119.5625 -59.8125 C 119.5625 -52.65625 118.492188 -46.378906 116.359375 -40.984375 C 114.222656 -35.597656 110.597656 -31.023438 105.484375 -27.265625 C 105.941406 -26.378906 106.390625 -25.515625 106.828125 -24.671875 C 107.273438 -23.835938 107.707031 -23.003906 108.125 -22.171875 C 108.5 -21.285156 108.894531 -20.421875 109.3125 -19.578125 C 109.726562 -18.742188 110.125 -17.9375 110.5 -17.15625 L 110.5 -17.21875 C 111.570312 -14.894531 112.347656 -12.789062 112.828125 -10.90625 C 113.316406 -9.03125 113.5625 -7.226562 113.5625 -5.5 C 113.5625 -2.851562 113.164062 -0.613281 112.375 1.21875 C 111.59375 3.050781 110.4375 4.617188 108.90625 5.921875 C 107.363281 7.222656 105.453125 8.328125 103.171875 9.234375 C 100.898438 10.140625 98.300781 10.941406 95.375 11.640625 C 90.03125 12.941406 85.601562 13.8125 82.09375 14.25 C 78.582031 14.695312 75.710938 14.921875 73.484375 14.921875 Z M 73.484375 5.15625 C 73.941406 5.15625 75.007812 5.085938 76.6875 4.953125 C 78.363281 4.804688 80.328125 4.582031 82.578125 4.28125 C 84.835938 3.976562 87.21875 3.550781 89.71875 3 C 92.1875 2.488281 94.46875 1.835938 96.5625 1.046875 C 98.65625 0.253906 100.394531 -0.675781 101.78125 -1.75 C 103.132812 -2.8125 103.8125 -4.0625 103.8125 -5.5 C 103.8125 -6.851562 103.4375 -8.550781 102.6875 -10.59375 C 101.945312 -12.644531 100.992188 -14.851562 99.828125 -17.21875 C 98.671875 -19.539062 97.421875 -21.910156 96.078125 -24.328125 C 95.421875 -25.535156 94.78125 -26.707031 94.15625 -27.84375 C 93.53125 -28.988281 92.914062 -30.070312 92.3125 -31.09375 C 95.507812 -32.4375 98.222656 -34.050781 100.453125 -35.9375 C 102.691406 -37.820312 104.507812 -39.945312 105.90625 -42.3125 C 107.25 -44.6875 108.234375 -47.335938 108.859375 -50.265625 C 109.492188 -53.191406 109.8125 -56.375 109.8125 -59.8125 C 109.8125 -66.507812 108.75 -72.390625 106.625 -77.453125 C 104.507812 -82.523438 101.382812 -86.753906 97.25 -90.140625 C 88.9375 -96.972656 77.039062 -100.390625 61.5625 -100.390625 C 55.289062 -100.390625 49.515625 -100.238281 44.234375 -99.9375 C 38.960938 -99.632812 34.1875 -99.273438 29.90625 -98.859375 C 25.582031 -98.441406 21.78125 -97.988281 18.5 -97.5 C 15.226562 -97.007812 12.429688 -96.578125 10.109375 -96.203125 L 10.109375 -45.390625 L 5.09375 -45.734375 L 4.59375 -31.03125 L 7.671875 -30.8125 C 8.128906 -30.769531 8.601562 -30.722656 9.09375 -30.671875 C 9.582031 -30.628906 10.0625 -30.582031 10.53125 -30.53125 L 10.734375 0.625 L 31.71875 -1.25 C 35.113281 -1.582031 38.566406 -1.910156 42.078125 -2.234375 C 45.585938 -2.554688 49.15625 -2.878906 52.78125 -3.203125 C 52.40625 -6.179688 52.054688 -9.5625 51.734375 -13.34375 C 51.410156 -17.132812 51.109375 -21.144531 50.828125 -25.375 L 55.21875 -25.375 C 55.914062 -23.332031 56.679688 -21.191406 57.515625 -18.953125 C 58.347656 -16.722656 59.207031 -14.519531 60.09375 -12.34375 C 60.925781 -10.15625 61.773438 -8.0625 62.640625 -6.0625 C 63.503906 -4.0625 64.304688 -2.296875 65.046875 -0.765625 C 65.421875 -0.0234375 65.769531 0.644531 66.09375 1.25 C 66.414062 1.851562 66.738281 2.390625 67.0625 2.859375 C 67.625 3.742188 68.09375 4.234375 68.46875 4.328125 C 68.5625 4.367188 68.976562 4.503906 69.71875 4.734375 C 70.414062 5.015625 71.671875 5.15625 73.484375 5.15625 Z M 49.703125 -45.171875 C 49.429688 -50.984375 49.1875 -56.492188 48.96875 -61.703125 C 48.757812 -66.910156 48.609375 -71.554688 48.515625 -75.640625 L 50.40625 -75.640625 C 53.195312 -75.640625 55.707031 -75.40625 57.9375 -74.9375 C 60.164062 -74.476562 62.046875 -73.710938 63.578125 -72.640625 C 65.117188 -71.578125 66.296875 -70.125 67.109375 -68.28125 C 67.921875 -66.445312 68.328125 -64.179688 68.328125 -61.484375 C 68.328125 -59.441406 68.09375 -57.441406 67.625 -55.484375 C 67.15625 -53.535156 66.296875 -51.796875 65.046875 -50.265625 C 63.785156 -48.734375 62.039062 -47.5 59.8125 -46.5625 C 57.582031 -45.632812 54.703125 -45.171875 51.171875 -45.171875 Z M 49.703125 -45.171875 "/></g></g></g><g fill="#2e6417" fill-opacity="1"><g transform="translate(441.896144, 116.894083)"><g><path d="M 45.9375 10.59375 L -10.390625 5.640625 L -4.875 -11.578125 C -5.207031 -11.578125 -5.488281 -11.578125 -5.71875 -11.578125 C -5.945312 -11.578125 -6.15625 -11.597656 -6.34375 -11.640625 L -7.25 -11.640625 C -7.570312 -11.640625 -7.78125 -11.664062 -7.875 -11.71875 L -3 -45.671875 L -1.46875 -45.671875 C -1.09375 -45.671875 -0.660156 -45.671875 -0.171875 -45.671875 C 0.316406 -45.671875 0.816406 -45.671875 1.328125 -45.671875 L 4.59375 -45.671875 C 5.195312 -45.617188 5.765625 -45.59375 6.296875 -45.59375 C 6.835938 -45.59375 7.363281 -45.59375 7.875 -45.59375 C 8.476562 -47.21875 9.054688 -48.773438 9.609375 -50.265625 C 10.171875 -51.753906 10.707031 -53.171875 11.21875 -54.515625 C 12.25 -57.253906 13.257812 -59.898438 14.25 -62.453125 C 15.25 -65.015625 16.265625 -67.625 17.296875 -70.28125 C 17.804688 -71.582031 18.347656 -72.941406 18.921875 -74.359375 C 19.503906 -75.773438 20.097656 -77.226562 20.703125 -78.71875 L 14.296875 -79.546875 L 22.375 -114.125 C 22.519531 -114.03125 23.03125 -113.890625 23.90625 -113.703125 C 24.75 -113.523438 25.820312 -113.269531 27.125 -112.9375 C 28.425781 -112.613281 29.910156 -112.289062 31.578125 -111.96875 C 33.203125 -111.644531 34.851562 -111.34375 36.53125 -111.0625 C 38.207031 -110.78125 39.859375 -110.546875 41.484375 -110.359375 C 42.273438 -110.265625 43.039062 -110.191406 43.78125 -110.140625 C 44.519531 -110.097656 45.191406 -110.054688 45.796875 -110.015625 C 47.660156 -110.148438 49.640625 -110.40625 51.734375 -110.78125 C 53.828125 -111.15625 55.867188 -111.550781 57.859375 -111.96875 C 60.742188 -112.519531 63.601562 -113.050781 66.4375 -113.5625 C 69.269531 -114.082031 72.035156 -114.34375 74.734375 -114.34375 C 77.335938 -114.34375 79.8125 -114.082031 82.15625 -113.5625 C 84.507812 -113.050781 86.660156 -112.171875 88.609375 -110.921875 C 90.515625 -109.660156 92.210938 -107.972656 93.703125 -105.859375 C 95.191406 -103.742188 96.375 -101.085938 97.25 -97.890625 L 97.1875 -97.953125 C 98.769531 -92.378906 100.582031 -86.429688 102.625 -80.109375 C 104.664062 -73.785156 106.847656 -67.273438 109.171875 -60.578125 C 111.492188 -53.890625 113.929688 -47.09375 116.484375 -40.1875 C 119.046875 -33.289062 121.628906 -26.492188 124.234375 -19.796875 L 124.171875 -19.875 C 125.984375 -15.363281 126.890625 -11.410156 126.890625 -8.015625 C 126.890625 -4.992188 126.375 -2.4375 125.34375 -0.34375 C 124.320312 1.738281 122.953125 3.457031 121.234375 4.8125 C 119.515625 6.207031 117.539062 7.265625 115.3125 7.984375 C 113.082031 8.703125 110.757812 9.25 108.34375 9.625 C 105.925781 9.945312 103.492188 10.15625 101.046875 10.25 C 98.609375 10.34375 96.347656 10.390625 94.265625 10.390625 C 89.890625 10.390625 86.050781 10.269531 82.75 10.03125 C 79.445312 9.800781 76.5 9.457031 73.90625 9 C 71.300781 8.488281 68.953125 7.847656 66.859375 7.078125 C 64.765625 6.304688 62.765625 5.316406 60.859375 4.109375 L 58.765625 -10.671875 L 50.546875 -10.671875 C 49.617188 -6.953125 48.757812 -3.113281 47.96875 0.84375 C 47.78125 1.769531 47.59375 2.6875 47.40625 3.59375 C 47.21875 4.5 47.03125 5.367188 46.84375 6.203125 Z M 94.265625 0.625 L 98.4375 0.625 C 100.019531 0.625 101.660156 0.566406 103.359375 0.453125 C 105.054688 0.335938 106.738281 0.117188 108.40625 -0.203125 C 111.84375 -0.804688 114.351562 -2.109375 115.9375 -4.109375 C 116.726562 -5.179688 117.125 -6.484375 117.125 -8.015625 C 117.125 -9.085938 116.945312 -10.296875 116.59375 -11.640625 C 116.25 -12.992188 115.753906 -14.53125 115.109375 -16.25 C 112.503906 -22.894531 109.921875 -29.675781 107.359375 -36.59375 C 104.804688 -43.519531 102.367188 -50.351562 100.046875 -57.09375 C 97.671875 -63.882812 95.445312 -70.5 93.375 -76.9375 C 91.3125 -83.375 89.46875 -89.492188 87.84375 -95.296875 C 87.332031 -97.109375 86.65625 -98.609375 85.8125 -99.796875 C 84.976562 -100.984375 84.003906 -101.925781 82.890625 -102.625 C 81.773438 -103.320312 80.53125 -103.820312 79.15625 -104.125 C 77.789062 -104.425781 76.34375 -104.578125 74.8125 -104.578125 C 72.570312 -104.578125 70.195312 -104.351562 67.6875 -103.90625 C 65.1875 -103.46875 62.632812 -102.992188 60.03125 -102.484375 C 57.46875 -101.972656 54.894531 -101.484375 52.3125 -101.015625 C 49.738281 -100.554688 47.289062 -100.300781 44.96875 -100.25 L 28.578125 -102.140625 L 25.9375 -87.984375 L 34.65625 -86.875 C 33.207031 -83.382812 31.65625 -79.546875 30 -75.359375 C 28.351562 -71.179688 26.648438 -66.882812 24.890625 -62.46875 C 23.171875 -58.007812 21.425781 -53.5 19.65625 -48.9375 C 17.894531 -44.382812 16.203125 -39.972656 14.578125 -35.703125 C 13.503906 -35.742188 12.515625 -35.765625 11.609375 -35.765625 C 10.703125 -35.765625 9.878906 -35.785156 9.140625 -35.828125 C 8.390625 -35.878906 7.703125 -35.90625 7.078125 -35.90625 C 6.453125 -35.90625 5.90625 -35.90625 5.4375 -35.90625 L 3.421875 -21.046875 C 3.742188 -21.003906 4.113281 -20.984375 4.53125 -20.984375 C 4.945312 -20.984375 5.390625 -20.984375 5.859375 -20.984375 C 6.316406 -20.984375 6.8125 -20.984375 7.34375 -20.984375 C 7.882812 -20.984375 8.457031 -20.960938 9.0625 -20.921875 C 8.039062 -18.222656 7.132812 -15.78125 6.34375 -13.59375 L 4.1875 -7.953125 C 3.851562 -7.015625 3.523438 -6.140625 3.203125 -5.328125 C 2.878906 -4.515625 2.601562 -3.738281 2.375 -3 C 3.90625 -2.851562 5.425781 -2.710938 6.9375 -2.578125 C 8.445312 -2.441406 9.945312 -2.328125 11.4375 -2.234375 C 12.925781 -2.085938 14.398438 -1.945312 15.859375 -1.8125 C 17.328125 -1.675781 18.78125 -1.5625 20.21875 -1.46875 C 21.707031 -1.320312 23.179688 -1.179688 24.640625 -1.046875 C 26.109375 -0.910156 27.585938 -0.796875 29.078125 -0.703125 L 38.203125 0.140625 C 38.898438 -3.066406 39.675781 -6.425781 40.53125 -9.9375 C 41.394531 -13.445312 42.289062 -16.988281 43.21875 -20.5625 C 47.269531 -20.519531 51.234375 -20.484375 55.109375 -20.453125 C 58.992188 -20.429688 62.675781 -20.421875 66.15625 -20.421875 L 69.71875 -3.0625 C 69.851562 -3.019531 70.082031 -2.925781 70.40625 -2.78125 C 70.738281 -2.644531 71.160156 -2.460938 71.671875 -2.234375 C 72.648438 -1.816406 74.101562 -1.394531 76.03125 -0.96875 C 77.957031 -0.550781 80.40625 -0.179688 83.375 0.140625 C 84.863281 0.328125 86.515625 0.453125 88.328125 0.515625 C 90.140625 0.585938 92.117188 0.625 94.265625 0.625 Z M 63.234375 -34.65625 C 61.972656 -34.65625 60.703125 -34.65625 59.421875 -34.65625 C 58.148438 -34.65625 56.84375 -34.675781 55.5 -34.71875 C 54.144531 -34.757812 52.78125 -34.78125 51.40625 -34.78125 C 50.039062 -34.78125 48.640625 -34.804688 47.203125 -34.859375 C 47.710938 -36.671875 48.234375 -38.503906 48.765625 -40.359375 C 49.296875 -42.222656 49.863281 -44.109375 50.46875 -46.015625 C 51.03125 -47.921875 51.566406 -49.722656 52.078125 -51.421875 C 52.585938 -53.117188 53.078125 -54.753906 53.546875 -56.328125 L 56.75 -66.921875 Z M 63.234375 -34.65625 "/></g></g></g><g fill="#4ca626" fill-opacity="1"><g transform="translate(55.751477, 224.939722)"><g><path d="M 59.75 11.578125 C 50.632812 11.578125 42.695312 10.972656 35.9375 9.765625 C 29.175781 8.554688 23.398438 6.765625 18.609375 4.390625 C 13.828125 2.066406 9.898438 -0.800781 6.828125 -4.21875 C 3.765625 -7.632812 1.347656 -11.550781 -0.421875 -15.96875 C -2.179688 -20.382812 -3.398438 -25.273438 -4.078125 -30.640625 C -4.753906 -36.003906 -5.09375 -41.78125 -5.09375 -47.96875 C -5.09375 -54.425781 -4.640625 -60.5 -3.734375 -66.1875 C -2.828125 -71.882812 -1.375 -77.128906 0.625 -81.921875 C 2.625 -86.703125 5.226562 -90.988281 8.4375 -94.78125 C 11.644531 -98.570312 15.570312 -101.789062 20.21875 -104.4375 C 24.820312 -107.082031 30.191406 -109.101562 36.328125 -110.5 C 42.460938 -111.894531 49.457031 -112.59375 57.3125 -112.59375 C 61.164062 -112.59375 65.195312 -112.414062 69.40625 -112.0625 C 73.613281 -111.71875 77.878906 -111.128906 82.203125 -110.296875 C 86.472656 -109.410156 90.734375 -108.222656 94.984375 -106.734375 C 99.242188 -105.242188 103.347656 -103.382812 107.296875 -101.15625 C 108.597656 -100.363281 109.945312 -99.015625 111.34375 -97.109375 C 112.738281 -95.210938 113.992188 -92.9375 115.109375 -90.28125 C 116.222656 -87.632812 117.140625 -84.726562 117.859375 -81.5625 C 118.578125 -78.40625 118.9375 -75.15625 118.9375 -71.8125 C 118.9375 -68.601562 118.5625 -65.359375 117.8125 -62.078125 C 117.070312 -58.804688 115.84375 -55.632812 114.125 -52.5625 C 112.40625 -49.5 110.113281 -46.609375 107.25 -43.890625 C 104.394531 -41.171875 100.878906 -38.785156 96.703125 -36.734375 C 98.179688 -36.085938 99.65625 -35.3125 101.125 -34.40625 C 102.59375 -33.5 103.90625 -32.441406 105.0625 -31.234375 C 106.226562 -29.972656 107.171875 -28.597656 107.890625 -27.109375 C 108.609375 -25.628906 108.96875 -24.03125 108.96875 -22.3125 C 108.96875 -18.875 108.734375 -16.023438 108.265625 -13.765625 C 107.804688 -11.515625 107.226562 -9.671875 106.53125 -8.234375 C 105.832031 -6.785156 105.0625 -5.644531 104.21875 -4.8125 C 103.382812 -3.976562 102.597656 -3.257812 101.859375 -2.65625 L 102.34375 -3.140625 L 101.234375 -2.09375 L 101.578125 -2.515625 C 100.179688 -0.929688 98.425781 0.484375 96.3125 1.734375 C 94.195312 2.992188 91.863281 4.160156 89.3125 5.234375 C 86.75 6.253906 84.082031 7.171875 81.3125 7.984375 C 78.550781 8.796875 75.847656 9.457031 73.203125 9.96875 C 70.554688 10.53125 68.066406 10.9375 65.734375 11.1875 C 63.410156 11.445312 61.414062 11.578125 59.75 11.578125 Z M 59.75 1.8125 C 61.1875 1.8125 62.890625 1.707031 64.859375 1.5 C 66.835938 1.289062 68.921875 0.976562 71.109375 0.5625 C 73.296875 0.1875 75.539062 -0.300781 77.84375 -0.90625 C 80.144531 -1.507812 82.335938 -2.207031 84.421875 -3 C 86.515625 -3.789062 88.410156 -4.6875 90.109375 -5.6875 C 91.804688 -6.6875 93.191406 -7.765625 94.265625 -8.921875 L 95.515625 -10.109375 L 96.625 -11.21875 C 97.039062 -11.644531 97.4375 -12.285156 97.8125 -13.140625 C 98.1875 -14.003906 98.515625 -15.15625 98.796875 -16.59375 C 98.878906 -17.332031 98.957031 -18.164062 99.03125 -19.09375 C 99.101562 -20.03125 99.140625 -21.078125 99.140625 -22.234375 C 99.140625 -23.171875 98.789062 -24.019531 98.09375 -24.78125 C 97.394531 -25.550781 96.535156 -26.210938 95.515625 -26.765625 C 94.492188 -27.328125 93.410156 -27.78125 92.265625 -28.125 C 91.128906 -28.476562 90.144531 -28.703125 89.3125 -28.796875 L 89.171875 -28.796875 C 89.023438 -28.835938 88.835938 -28.859375 88.609375 -28.859375 L 88.046875 -28.859375 C 86.609375 -28.859375 85.085938 -28.394531 83.484375 -27.46875 C 81.878906 -26.539062 80.054688 -25.472656 78.015625 -24.265625 C 75.921875 -23.054688 73.515625 -21.894531 70.796875 -20.78125 C 68.078125 -19.664062 64.882812 -18.921875 61.21875 -18.546875 C 60.84375 -18.492188 60.476562 -18.457031 60.125 -18.4375 C 59.78125 -18.414062 59.421875 -18.40625 59.046875 -18.40625 C 56.171875 -18.40625 53.894531 -19.085938 52.21875 -20.453125 C 50.539062 -21.828125 49.285156 -23.65625 48.453125 -25.9375 C 47.566406 -28.164062 46.992188 -30.742188 46.734375 -33.671875 C 46.484375 -36.597656 46.359375 -39.617188 46.359375 -42.734375 C 46.359375 -53.003906 47.519531 -61 49.84375 -66.71875 C 50.957031 -69.507812 52.351562 -71.660156 54.03125 -73.171875 C 55.707031 -74.679688 57.632812 -75.4375 59.8125 -75.4375 C 62.320312 -75.4375 64.25 -74.96875 65.59375 -74.03125 C 66.945312 -73.101562 67.625 -72.0625 67.625 -70.90625 C 67.625 -69.375 66.9375 -67.640625 65.5625 -65.703125 C 64.195312 -63.773438 62.488281 -61.601562 60.4375 -59.1875 C 62.945312 -57.9375 65.429688 -56.679688 67.890625 -55.421875 C 70.359375 -54.171875 72.800781 -52.914062 75.21875 -51.65625 C 77.632812 -50.40625 80.0625 -49.148438 82.5 -47.890625 C 84.945312 -46.640625 87.445312 -45.382812 90 -44.125 C 93.71875 -45.382812 96.820312 -47.015625 99.3125 -49.015625 C 101.800781 -51.015625 103.765625 -53.269531 105.203125 -55.78125 C 106.691406 -58.238281 107.722656 -60.835938 108.296875 -63.578125 C 108.878906 -66.328125 109.171875 -69.070312 109.171875 -71.8125 C 109.171875 -74.269531 108.960938 -76.660156 108.546875 -78.984375 C 108.128906 -81.304688 107.597656 -83.398438 106.953125 -85.265625 C 106.253906 -87.171875 105.492188 -88.773438 104.671875 -90.078125 C 103.859375 -91.378906 103.082031 -92.285156 102.34375 -92.796875 C 98.945312 -94.609375 95.332031 -96.148438 91.5 -97.421875 C 87.664062 -98.703125 83.773438 -99.738281 79.828125 -100.53125 C 75.878906 -101.320312 71.984375 -101.898438 68.140625 -102.265625 C 64.304688 -102.640625 60.695312 -102.828125 57.3125 -102.828125 C 47.363281 -102.828125 39.03125 -101.523438 32.3125 -98.921875 C 25.59375 -96.328125 20.191406 -92.613281 16.109375 -87.78125 C 12.015625 -82.988281 9.082031 -77.210938 7.3125 -70.453125 C 5.550781 -63.691406 4.671875 -56.195312 4.671875 -47.96875 C 4.671875 -42.757812 4.945312 -37.9375 5.5 -33.5 C 6.0625 -29.0625 7.109375 -24.984375 8.640625 -21.265625 C 10.128906 -17.585938 12.175781 -14.304688 14.78125 -11.421875 C 17.382812 -8.546875 20.726562 -6.132812 24.8125 -4.1875 C 28.90625 -2.226562 33.8125 -0.738281 39.53125 0.28125 C 45.25 1.300781 51.988281 1.8125 59.75 1.8125 Z M 59.75 1.8125 "/></g></g></g><g fill="#4ca626" fill-opacity="1"><g transform="translate(167.980927, 224.939722)"><g><path d="M 54.03125 11.21875 C 46.457031 11.21875 39.726562 10.425781 33.84375 8.84375 C 27.96875 7.269531 22.820312 5.066406 18.40625 2.234375 C 13.988281 -0.597656 10.269531 -4.015625 7.25 -8.015625 C 4.226562 -12.015625 1.789062 -16.429688 -0.0625 -21.265625 C -1.925781 -26.097656 -3.273438 -31.28125 -4.109375 -36.8125 C -4.953125 -42.34375 -5.394531 -48.082031 -5.4375 -54.03125 C -5.15625 -63.5625 -3.445312 -72.066406 -0.3125 -79.546875 C 2.820312 -87.023438 7.203125 -93.300781 12.828125 -98.375 C 18.453125 -103.488281 25.179688 -107.367188 33.015625 -110.015625 C 40.847656 -112.660156 49.597656 -113.984375 59.265625 -113.984375 C 71.015625 -113.984375 81.445312 -111.773438 90.5625 -107.359375 C 99.675781 -102.941406 107.691406 -96.296875 114.609375 -87.421875 L 111.203125 -85.1875 C 113.242188 -82.957031 115.019531 -80.367188 116.53125 -77.421875 C 118.039062 -74.472656 119.304688 -71.320312 120.328125 -67.96875 C 121.347656 -64.582031 122.140625 -61.039062 122.703125 -57.34375 C 123.265625 -53.644531 123.632812 -49.9375 123.8125 -46.21875 C 123.90625 -41.53125 123.5 -36.875 122.59375 -32.25 C 121.6875 -27.625 120.144531 -23.171875 117.96875 -18.890625 C 115.820312 -14.660156 112.957031 -10.695312 109.375 -7 C 105.800781 -3.3125 101.410156 -0.117188 96.203125 2.578125 C 91.003906 5.273438 84.929688 7.390625 77.984375 8.921875 C 71.035156 10.453125 63.050781 11.21875 54.03125 11.21875 Z M 54.03125 1.46875 C 61.65625 1.46875 68.429688 0.875 74.359375 -0.3125 C 80.285156 -1.5 85.476562 -3.160156 89.9375 -5.296875 C 94.351562 -7.390625 98.101562 -9.863281 101.1875 -12.71875 C 104.28125 -15.582031 106.78125 -18.707031 108.6875 -22.09375 C 110.59375 -25.445312 111.960938 -28.992188 112.796875 -32.734375 C 113.640625 -36.472656 114.0625 -40.25 114.0625 -44.0625 C 114.0625 -49.082031 113.664062 -53.960938 112.875 -58.703125 C 112.082031 -63.441406 110.847656 -67.648438 109.171875 -71.328125 C 107.503906 -75.035156 105.332031 -77.992188 102.65625 -80.203125 C 99.988281 -82.410156 96.769531 -83.515625 93 -83.515625 C 92.207031 -83.515625 91.347656 -83.445312 90.421875 -83.3125 L 100.328125 -89.796875 C 96.191406 -94.585938 90.726562 -98.191406 83.9375 -100.609375 C 77.15625 -103.023438 68.929688 -104.234375 59.265625 -104.234375 C 50.710938 -104.234375 43.039062 -103.113281 36.25 -100.875 C 29.46875 -98.644531 23.707031 -95.320312 18.96875 -90.90625 C 14.226562 -86.539062 10.601562 -81.09375 8.09375 -74.5625 C 5.582031 -68.03125 4.328125 -60.515625 4.328125 -52.015625 C 4.328125 -44.390625 5.128906 -37.3125 6.734375 -30.78125 C 8.335938 -24.25 11.039062 -18.585938 14.84375 -13.796875 C 18.707031 -9.015625 23.8125 -5.273438 30.15625 -2.578125 C 36.5 0.117188 44.457031 1.46875 54.03125 1.46875 Z M 59.46875 -18.96875 C 56.675781 -18.96875 54.421875 -19.675781 52.703125 -21.09375 C 50.984375 -22.507812 49.660156 -24.472656 48.734375 -26.984375 C 47.753906 -29.441406 47.085938 -32.378906 46.734375 -35.796875 C 46.390625 -39.210938 46.21875 -42.921875 46.21875 -46.921875 C 46.21875 -52.171875 46.585938 -56.722656 47.328125 -60.578125 C 48.078125 -64.441406 49.082031 -67.648438 50.34375 -70.203125 C 51.59375 -72.710938 53.019531 -74.582031 54.625 -75.8125 C 56.226562 -77.050781 57.890625 -77.671875 59.609375 -77.671875 C 61.703125 -77.671875 63.335938 -77.492188 64.515625 -77.140625 C 65.703125 -76.796875 66.597656 -76.296875 67.203125 -75.640625 C 67.859375 -74.992188 68.300781 -74.15625 68.53125 -73.125 C 68.757812 -72.101562 68.992188 -70.941406 69.234375 -69.640625 L 69.296875 -69.515625 L 73.203125 -72.09375 C 72.972656 -71.300781 72.820312 -70.507812 72.75 -69.71875 C 72.675781 -68.925781 72.640625 -68.085938 72.640625 -67.203125 C 72.640625 -66.046875 72.6875 -64.800781 72.78125 -63.46875 C 72.875 -62.144531 73.015625 -60.742188 73.203125 -59.265625 C 73.390625 -57.773438 73.539062 -56.179688 73.65625 -54.484375 C 73.769531 -52.785156 73.851562 -51.007812 73.90625 -49.15625 L 73.90625 -47.265625 C 73.90625 -43.734375 73.679688 -40.269531 73.234375 -36.875 C 72.796875 -33.488281 72.019531 -30.46875 70.90625 -27.8125 C 69.789062 -25.164062 68.300781 -23.03125 66.4375 -21.40625 C 64.582031 -19.78125 62.257812 -18.96875 59.46875 -18.96875 Z M 59.46875 -18.96875 "/></g></g></g><g fill="#4ca626" fill-opacity="1"><g transform="translate(289.132969, 224.939722)"><g><path d="M 109.3125 -92.859375 C 114.707031 -87.472656 118.765625 -81.128906 121.484375 -73.828125 C 124.203125 -66.535156 125.5625 -58.632812 125.5625 -50.125 C 125.5625 -44.40625 125.15625 -38.976562 124.34375 -33.84375 C 123.53125 -28.707031 122.144531 -23.929688 120.1875 -19.515625 C 118.238281 -15.148438 115.625 -11.203125 112.34375 -7.671875 C 109.070312 -4.140625 104.945312 -1.140625 99.96875 1.328125 C 95.039062 3.835938 89.160156 5.753906 82.328125 7.078125 C 75.503906 8.398438 67.601562 9.0625 58.625 9.0625 C 58.019531 9.0625 56.820312 9.035156 55.03125 8.984375 C 53.25 8.941406 51.3125 8.875 49.21875 8.78125 C 48.476562 8.738281 47.710938 8.71875 46.921875 8.71875 C 46.128906 8.71875 45.335938 8.691406 44.546875 8.640625 C 43.753906 8.597656 42.972656 8.578125 42.203125 8.578125 C 41.441406 8.578125 40.738281 8.550781 40.09375 8.5 C 39.4375 8.457031 38.828125 8.4375 38.265625 8.4375 C 37.710938 8.4375 37.203125 8.4375 36.734375 8.4375 L 35.140625 8.4375 C 31.097656 8.300781 27.4375 8.054688 24.15625 7.703125 C 20.875 7.359375 17.957031 6.765625 15.40625 5.921875 C 12.851562 5.128906 10.644531 4.023438 8.78125 2.609375 C 6.925781 1.191406 5.394531 -0.648438 4.1875 -2.921875 C 1.769531 -7.203125 0.5625 -13.875 0.5625 -22.9375 L 0.5625 -73.90625 C -0.882812 -73.8125 -2.1875 -73.75 -3.34375 -73.71875 C -4.507812 -73.695312 -5.300781 -73.6875 -5.71875 -73.6875 L -4.46875 -108 L 29.140625 -108.90625 C 34.066406 -109.269531 39.238281 -109.566406 44.65625 -109.796875 C 50.070312 -110.035156 55.453125 -110.15625 60.796875 -110.15625 C 71.523438 -110.15625 80.929688 -108.617188 89.015625 -105.546875 C 97.109375 -102.484375 103.875 -98.253906 109.3125 -92.859375 Z M 111.203125 -24.609375 C 112.867188 -28.234375 114.050781 -32.195312 114.75 -36.5 C 115.445312 -40.800781 115.796875 -45.34375 115.796875 -50.125 C 115.796875 -57.238281 114.644531 -63.863281 112.34375 -70 C 110.050781 -76.132812 106.601562 -81.457031 102 -85.96875 C 97.394531 -90.425781 91.648438 -93.941406 84.765625 -96.515625 C 77.890625 -99.097656 69.898438 -100.390625 60.796875 -100.390625 C 58.054688 -100.390625 55.441406 -100.363281 52.953125 -100.3125 C 50.460938 -100.269531 48.035156 -100.203125 45.671875 -100.109375 C 43.296875 -100.015625 40.945312 -99.898438 38.625 -99.765625 C 36.300781 -99.628906 33.882812 -99.46875 31.375 -99.28125 L 26.90625 -99.0625 C 25.050781 -99.019531 23.21875 -98.972656 21.40625 -98.921875 C 19.59375 -98.878906 17.800781 -98.835938 16.03125 -98.796875 C 14.269531 -98.742188 12.457031 -98.679688 10.59375 -98.609375 C 8.738281 -98.546875 6.859375 -98.488281 4.953125 -98.4375 L 4.46875 -83.796875 L 10.3125 -84.015625 L 10.3125 -22.9375 C 10.3125 -18.238281 10.773438 -14.503906 11.703125 -11.734375 C 12.640625 -8.972656 14.109375 -6.851562 16.109375 -5.375 C 18.109375 -3.882812 20.640625 -2.882812 23.703125 -2.375 C 26.773438 -1.863281 30.445312 -1.515625 34.71875 -1.328125 L 34.78125 -1.328125 C 35.4375 -1.328125 36.507812 -1.3125 38 -1.28125 C 39.488281 -1.257812 41.226562 -1.203125 43.21875 -1.109375 L 49.21875 -0.90625 C 50.195312 -0.863281 51.140625 -0.84375 52.046875 -0.84375 C 52.953125 -0.84375 53.847656 -0.816406 54.734375 -0.765625 C 55.609375 -0.722656 56.359375 -0.703125 56.984375 -0.703125 C 57.617188 -0.703125 58.164062 -0.703125 58.625 -0.703125 C 66.300781 -0.703125 73.039062 -1.257812 78.84375 -2.375 C 84.65625 -3.488281 89.675781 -5.09375 93.90625 -7.1875 C 98.132812 -9.226562 101.65625 -11.722656 104.46875 -14.671875 C 107.28125 -17.628906 109.523438 -20.941406 111.203125 -24.609375 Z M 56.546875 -75.71875 C 59.421875 -75.71875 61.890625 -75.085938 63.953125 -73.828125 C 66.023438 -72.578125 67.710938 -70.789062 69.015625 -68.46875 C 70.316406 -66.144531 71.269531 -63.316406 71.875 -59.984375 C 72.476562 -56.660156 72.78125 -52.929688 72.78125 -48.796875 C 72.78125 -45.503906 72.601562 -42.179688 72.25 -38.828125 C 71.90625 -35.484375 71.203125 -32.441406 70.140625 -29.703125 C 69.023438 -27.003906 67.441406 -24.78125 65.390625 -23.03125 C 63.347656 -21.289062 60.628906 -20.421875 57.234375 -20.421875 C 56.441406 -20.421875 55.566406 -20.429688 54.609375 -20.453125 C 53.660156 -20.484375 52.75 -20.546875 51.875 -20.640625 C 51.59375 -24.910156 51.332031 -29.40625 51.09375 -34.125 C 50.863281 -38.84375 50.632812 -43.597656 50.40625 -48.390625 C 50.21875 -53.128906 50.019531 -57.796875 49.8125 -62.390625 C 49.601562 -66.992188 49.429688 -71.316406 49.296875 -75.359375 C 50.316406 -75.453125 51.429688 -75.535156 52.640625 -75.609375 C 53.847656 -75.679688 55.148438 -75.71875 56.546875 -75.71875 Z M 56.546875 -75.71875 "/></g></g></g><g fill="#4ca626" fill-opacity="1"><g transform="translate(410.982089, 224.939722)"><g><path d="M 68.734375 8.921875 L 37.296875 8.296875 L 37.4375 8.296875 C 32.226562 8.296875 27.679688 7.96875 23.796875 7.3125 C 19.921875 6.664062 16.613281 5.644531 13.875 4.25 C 11.082031 2.851562 8.816406 1.066406 7.078125 -1.109375 C 5.335938 -3.296875 3.929688 -5.878906 2.859375 -8.859375 C 1.835938 -11.878906 1.113281 -15.328125 0.6875 -19.203125 C 0.269531 -23.085938 0.0625 -27.46875 0.0625 -32.34375 L 0.0625 -34.515625 L 0.765625 -75.15625 C -0.578125 -75.0625 -1.785156 -75.003906 -2.859375 -74.984375 C -3.929688 -74.960938 -4.675781 -74.953125 -5.09375 -74.953125 L -4.109375 -109.390625 L 7.25 -109.59375 C 8.78125 -109.59375 10.359375 -109.601562 11.984375 -109.625 C 13.617188 -109.65625 15.203125 -109.691406 16.734375 -109.734375 C 18.265625 -109.785156 19.691406 -109.820312 21.015625 -109.84375 C 22.335938 -109.863281 23.488281 -109.875 24.46875 -109.875 C 32.789062 -109.96875 40.945312 -110.109375 48.9375 -110.296875 C 52.332031 -110.390625 55.875 -110.492188 59.5625 -110.609375 C 63.257812 -110.722656 66.898438 -110.875 70.484375 -111.0625 C 74.066406 -111.195312 77.539062 -111.378906 80.90625 -111.609375 C 84.28125 -111.847656 87.359375 -112.109375 90.140625 -112.390625 C 91.628906 -112.523438 93.300781 -112.019531 95.15625 -110.875 C 97.019531 -109.738281 98.789062 -108.171875 100.46875 -106.171875 C 102.09375 -104.179688 103.460938 -101.882812 104.578125 -99.28125 C 105.691406 -96.675781 106.25 -93.957031 106.25 -91.125 C 106.25 -82.289062 105.015625 -75.617188 102.546875 -71.109375 C 101.296875 -68.835938 99.691406 -66.96875 97.734375 -65.5 C 95.785156 -64.03125 93.460938 -62.925781 90.765625 -62.1875 C 91.515625 -60.789062 92.109375 -59.328125 92.546875 -57.796875 C 92.992188 -56.265625 93.21875 -54.707031 93.21875 -53.125 C 93.21875 -50.707031 93.109375 -48.535156 92.890625 -46.609375 C 92.679688 -44.679688 92.394531 -42.925781 92.03125 -41.34375 C 93.46875 -40.644531 94.882812 -39.65625 96.28125 -38.375 C 97.675781 -37.101562 98.929688 -35.601562 100.046875 -33.875 C 101.160156 -32.15625 102.066406 -30.257812 102.765625 -28.1875 C 103.460938 -26.125 103.8125 -23.976562 103.8125 -21.75 C 103.8125 -15.382812 103.207031 -10.203125 102 -6.203125 C 100.789062 -2.203125 98.859375 0.910156 96.203125 3.140625 C 93.554688 5.367188 90.140625 6.890625 85.953125 7.703125 C 81.773438 8.515625 76.734375 8.921875 70.828125 8.921875 Z M 70.828125 -0.84375 C 75.015625 -0.84375 78.570312 -1.117188 81.5 -1.671875 C 84.425781 -2.234375 86.820312 -3.28125 88.6875 -4.8125 C 90.539062 -6.34375 91.894531 -8.46875 92.75 -11.1875 C 93.613281 -13.90625 94.046875 -17.425781 94.046875 -21.75 C 94.046875 -23.1875 93.859375 -24.566406 93.484375 -25.890625 C 93.117188 -27.222656 92.679688 -28.398438 92.171875 -29.421875 C 91.609375 -30.441406 91.015625 -31.242188 90.390625 -31.828125 C 89.765625 -32.410156 89.171875 -32.703125 88.609375 -32.703125 L 88.46875 -32.703125 C 85.3125 -32.421875 82.082031 -32.1875 78.78125 -32 C 75.476562 -31.8125 72.175781 -31.671875 68.875 -31.578125 C 65.625 -31.441406 62.441406 -31.335938 59.328125 -31.265625 C 56.210938 -31.191406 53.332031 -31.15625 50.6875 -31.15625 L 50.46875 -38.6875 L 66.65625 -38.546875 C 69.675781 -38.546875 72.253906 -38.695312 74.390625 -39 C 76.523438 -39.300781 78.269531 -39.96875 79.625 -41 C 80.96875 -41.96875 81.941406 -43.414062 82.546875 -45.34375 C 83.148438 -47.28125 83.453125 -49.875 83.453125 -53.125 C 83.453125 -54.238281 83.3125 -55.34375 83.03125 -56.4375 C 82.75 -57.53125 82.425781 -58.519531 82.0625 -59.40625 C 81.644531 -60.238281 81.203125 -60.921875 80.734375 -61.453125 C 80.265625 -61.984375 79.847656 -62.273438 79.484375 -62.328125 C 77.578125 -62.191406 75.484375 -62.050781 73.203125 -61.90625 C 70.921875 -61.769531 68.503906 -61.65625 65.953125 -61.5625 C 63.398438 -61.46875 60.773438 -61.382812 58.078125 -61.3125 C 55.378906 -61.25 52.707031 -61.191406 50.0625 -61.140625 C 50.007812 -61.972656 49.984375 -62.796875 49.984375 -63.609375 C 49.984375 -64.429688 49.984375 -65.234375 49.984375 -66.015625 L 49.984375 -70.625 L 73.765625 -70.203125 C 77.847656 -70.203125 81.332031 -70.476562 84.21875 -71.03125 C 87.101562 -71.59375 89.453125 -72.640625 91.265625 -74.171875 C 93.078125 -75.710938 94.398438 -77.84375 95.234375 -80.5625 C 96.066406 -83.28125 96.484375 -86.800781 96.484375 -91.125 C 96.484375 -92.5625 96.296875 -93.976562 95.921875 -95.375 C 95.554688 -96.769531 95.09375 -98 94.53125 -99.0625 C 93.976562 -100.132812 93.382812 -100.992188 92.75 -101.640625 C 92.125 -102.296875 91.554688 -102.644531 91.046875 -102.6875 C 87.890625 -102.414062 84.332031 -102.160156 80.375 -101.921875 C 76.425781 -101.691406 72.316406 -101.484375 68.046875 -101.296875 C 63.816406 -101.109375 59.570312 -100.945312 55.3125 -100.8125 C 51.0625 -100.675781 47.148438 -100.5625 43.578125 -100.46875 C 39.953125 -100.375 36.78125 -100.289062 34.0625 -100.21875 C 31.34375 -100.144531 29.378906 -100.109375 28.171875 -100.109375 L 25.453125 -100.109375 C 24.941406 -100.109375 24.394531 -100.109375 23.8125 -100.109375 C 23.226562 -100.109375 22.632812 -100.109375 22.03125 -100.109375 C 20.820312 -100.066406 19.578125 -100.03125 18.296875 -100 C 17.023438 -99.976562 15.757812 -99.96875 14.5 -99.96875 C 13.0625 -99.925781 11.585938 -99.90625 10.078125 -99.90625 C 8.566406 -99.90625 7.019531 -99.878906 5.4375 -99.828125 L 4.875 -85.0625 L 10.671875 -85.0625 L 9.828125 -32.34375 C 9.828125 -26.769531 10.1875 -22.03125 10.90625 -18.125 C 11.625 -14.21875 13.03125 -11.035156 15.125 -8.578125 C 17.21875 -6.066406 20.15625 -4.238281 23.9375 -3.09375 C 27.726562 -1.957031 32.691406 -1.390625 38.828125 -1.390625 Z M 70.828125 -0.84375 "/></g></g></g></g></g></g><g clip-path="url(#6dc2e5030a)"><path fill="#74cc00" d="M 281.363281 34.746094 C 270.871094 43.152344 256.296875 36.910156 256.296875 36.910156 C 256.296875 36.910156 255.714844 41.628906 255.839844 43.945312 C 255.960938 46.261719 256.609375 56.867188 256.609375 56.867188 C 254.277344 55.894531 251.214844 56.867188 251.214844 56.867188 C 250.667969 52.785156 251.640625 36.519531 251.640625 36.519531 L 251.632812 36.523438 C 237.992188 43.21875 225.628906 37.675781 219.871094 27.808594 C 214.113281 17.9375 216.792969 3.316406 231.355469 0.453125 C 243.238281 -1.882812 250.476562 9.984375 252.734375 14.425781 C 253.242188 15.425781 253.5 16.050781 253.5 16.050781 C 254.234375 13.875 256.011719 9.582031 260.164062 5.867188 C 262.164062 4.078125 266.851562 -0.113281 273.703125 0.15625 C 274.238281 0.179688 281.328125 0.640625 285.828125 5.980469 C 292.753906 14.195312 289.054688 28.585938 281.363281 34.746094 Z M 281.363281 34.746094 " fill-opacity="1" fill-rule="nonzero"/></g><path fill="#9aba6e" d="M 253.5 33.277344 L 252.722656 34.34375 C 251.859375 31.667969 250.867188 27.4375 251.214844 22.25 C 251.394531 19.578125 251.902344 16.96875 252.734375 14.425781 C 253.242188 15.425781 253.5 16.050781 253.5 16.050781 C 253.5 16.050781 251.171875 24.03125 253.5 33.277344 Z M 253.5 33.277344 " fill-opacity="1" fill-rule="nonzero"/><g clip-path="url(#d23f434bed)"><path fill="#2e6417" d="M 260.355469 61.984375 C 252.585938 63.171875 245.703125 61.757812 243.1875 61.4375 C 240.675781 61.117188 241.46875 59.976562 243.402344 58.101562 C 245.335938 56.226562 247.195312 56.578125 247.195312 56.578125 L 247.203125 56.574219 C 248.632812 55.433594 251.070312 54.617188 251.070312 54.617188 C 251.308594 54.578125 251.542969 54.542969 251.769531 54.511719 C 253.472656 54.289062 254.855469 54.351562 255.964844 54.558594 C 258.878906 55.09375 259.898438 56.625 259.898438 56.625 C 260.058594 56.613281 260.214844 56.609375 260.367188 56.609375 C 263.332031 56.628906 264.707031 58.988281 265.257812 60.265625 C 265.835938 61.605469 260.355469 61.984375 260.355469 61.984375 Z M 260.355469 61.984375 " fill-opacity="1" fill-rule="nonzero"/></g><path fill="#2e6417" d="M 251.445312 56.804688 C 249.074219 57.171875 247.15625 59.785156 247.15625 59.785156 C 247.097656 58.597656 249.121094 57.347656 249.121094 57.347656 C 248.492188 56.804688 247.34375 56.597656 247.203125 56.574219 C 248.632812 55.433594 251.070312 54.617188 251.070312 54.617188 C 251.308594 54.578125 251.542969 54.542969 251.769531 54.511719 C 252.070312 55.285156 251.445312 56.804688 251.445312 56.804688 Z M 251.445312 56.804688 " fill-opacity="1" fill-rule="nonzero"/><path fill="#2e6417" d="M 260.59375 59.785156 C 260.59375 59.785156 258.675781 57.171875 256.304688 56.800781 C 256.304688 56.800781 255.703125 55.34375 255.964844 54.558594 C 258.878906 55.09375 259.898438 56.625 259.898438 56.625 C 260.058594 56.613281 260.214844 56.605469 260.367188 56.609375 C 259.988281 56.6875 259.136719 56.910156 258.628906 57.347656 C 258.628906 57.347656 260.652344 58.597656 260.59375 59.785156 Z M 260.59375 59.785156 " fill-opacity="1" fill-rule="nonzero"/><path fill="#c0db97" d="M 256.332031 35.851562 C 256.300781 36.203125 256.289062 36.554688 256.296875 36.910156 C 256.296875 36.910156 255.714844 41.628906 255.839844 43.945312 C 255.960938 46.261719 256.609375 56.867188 256.609375 56.867188 C 254.277344 55.894531 251.214844 56.867188 251.214844 56.867188 C 250.667969 52.785156 251.640625 36.519531 251.640625 36.519531 L 251.632812 36.523438 C 251.632812 36.519531 251.632812 36.515625 251.636719 36.511719 C 252.609375 30.40625 233.664062 17.75 233.664062 17.75 C 248.527344 22.011719 253.492188 33.285156 253.492188 33.285156 C 257.839844 22.816406 273.976562 17.773438 274.054688 17.75 C 265.03125 23.675781 259.207031 29.09375 257.988281 31.136719 C 256.542969 33.558594 256.332031 35.851562 256.332031 35.851562 Z M 256.332031 35.851562 " fill-opacity="1" fill-rule="nonzero"/></g></g></svg>