<svg xmlns="http://www.w3.org/2000/svg" xmlns:xlink="http://www.w3.org/1999/xlink" width="800" zoomAndPan="magnify" viewBox="0 0 600 599.999999" height="800" preserveAspectRatio="xMidYMid meet" version="1.0"><defs><g/><clipPath id="7b7939aee6"><path d="M 4 110 L 596 110 L 596 489 L 4 489 Z M 4 110 " clip-rule="nonzero"/></clipPath><clipPath id="40b928cc70"><path d="M -52.308594 300.660156 L 300.890625 -52.542969 L 652.5 299.066406 L 299.300781 652.265625 Z M -52.308594 300.660156 " clip-rule="nonzero"/></clipPath><clipPath id="fbc8760b9f"><path d="M -52.308594 300.660156 L 300.890625 -52.542969 L 652.5 299.066406 L 299.300781 652.265625 Z M -52.308594 300.660156 " clip-rule="nonzero"/></clipPath><clipPath id="c627fd011a"><path d="M -52.308594 300.660156 L 300.890625 -52.542969 L 652.5 299.066406 L 299.300781 652.265625 Z M -52.308594 300.660156 " clip-rule="nonzero"/></clipPath><clipPath id="60f2cf869c"><path d="M 4 110 L 596 110 L 596 306 L 4 306 Z M 4 110 " clip-rule="nonzero"/></clipPath><clipPath id="592706b027"><path d="M -52.308594 300.660156 L 300.890625 -52.542969 L 652.5 299.066406 L 299.300781 652.265625 Z M -52.308594 300.660156 " clip-rule="nonzero"/></clipPath><clipPath id="b1cef7bc3b"><path d="M -52.308594 300.660156 L 300.890625 -52.542969 L 652.5 299.066406 L 299.300781 652.265625 Z M -52.308594 300.660156 " clip-rule="nonzero"/></clipPath><clipPath id="dd2c848663"><path d="M -52.308594 300.660156 L 300.890625 -52.542969 L 652.5 299.066406 L 299.300781 652.265625 Z M -52.308594 300.660156 " clip-rule="nonzero"/></clipPath></defs><g clip-path="url(#7b7939aee6)"><g clip-path="url(#40b928cc70)"><g clip-path="url(#fbc8760b9f)"><g clip-path="url(#c627fd011a)"><path fill="#379f3d" d="M 296.203125 488.632812 C 459.535156 491.90625 595.691406 305.59375 595.691406 305.59375 C 595.691406 305.59375 467.164062 114.070312 303.9375 110.722656 C 140.773438 107.550781 4.511719 293.855469 4.511719 293.855469 C 4.511719 293.855469 132.960938 485.460938 296.203125 488.632812 " fill-opacity="1" fill-rule="nonzero"/></g></g></g></g><g clip-path="url(#60f2cf869c)"><g clip-path="url(#592706b027)"><g clip-path="url(#b1cef7bc3b)"><g clip-path="url(#dd2c848663)"><path fill="#3b8a3c" d="M 595.691406 305.59375 L 4.511719 293.855469 C 4.511719 293.855469 23.742188 267.5625 56.414062 234.890625 C 110.695312 180.609375 202.078125 108.742188 303.9375 110.722656 C 395.230469 112.589844 475.679688 173.335938 528.847656 226.503906 C 570.730469 268.398438 595.691406 305.59375 595.691406 305.59375 " fill-opacity="1" fill-rule="nonzero"/></g></g></g></g><g fill="#497636" fill-opacity="1"><g transform="translate(125.375539, 337.125006)"><g><path d="M 26.558594 3.707031 C 24.164062 3.707031 21.742188 3.429688 19.296875 2.878906 C 16.761719 2.308594 14.429688 1.402344 12.292969 0.160156 C 10.003906 -1.171875 8.15625 -2.917969 6.75 -5.082031 C 5.273438 -7.347656 4.539062 -10.011719 4.539062 -13.070312 L 4.539062 -13.863281 C 4.539062 -14.285156 4.578125 -14.746094 4.664062 -15.25 L 7.742188 -14.738281 L 4.628906 -14.976562 C 4.753906 -16.613281 5.105469 -18.507812 5.683594 -20.664062 C 6.21875 -22.664062 6.824219 -24.789062 7.5 -27.039062 L 10.492188 -26.144531 L 10.492188 -23.019531 C 9.929688 -23.019531 9.382812 -23.035156 8.851562 -23.066406 C 8.4375 -23.089844 8.070312 -23.105469 7.742188 -23.105469 L 7.652344 -23.105469 C 5.03125 -23.183594 2.972656 -23.859375 1.46875 -25.140625 C -0.203125 -26.570312 -1.039062 -28.289062 -1.039062 -30.304688 C -1.039062 -31.746094 -0.65625 -33.070312 0.117188 -34.277344 C 0.8125 -35.367188 1.804688 -36.3125 3.089844 -37.117188 L 4.003906 -37.6875 L 5.078125 -37.574219 C 8.152344 -37.242188 10.808594 -36.996094 13.050781 -36.832031 L 12.820312 -33.71875 L 9.847656 -34.667969 C 10.660156 -37.214844 11.351562 -39.613281 11.917969 -41.851562 C 12.4375 -43.90625 12.695312 -45.441406 12.695312 -46.457031 C 12.695312 -46.605469 12.691406 -46.710938 12.679688 -46.777344 C 12.691406 -46.699219 12.734375 -46.597656 12.804688 -46.46875 C 12.976562 -46.144531 13.234375 -45.878906 13.574219 -45.671875 C 13.941406 -45.445312 14.328125 -45.332031 14.738281 -45.332031 C 14.941406 -45.332031 15.113281 -45.359375 15.25 -45.410156 C 15.222656 -45.402344 15.160156 -45.367188 15.070312 -45.308594 C 14.699219 -45.070312 14.226562 -44.675781 13.652344 -44.125 C 12.417969 -42.9375 10.929688 -40.855469 9.1875 -37.886719 L 7.90625 -35.703125 L 2.871094 -37.378906 L 2.871094 -39.628906 C 2.871094 -44.730469 4.046875 -49.132812 6.398438 -52.835938 C 8.757812 -56.550781 12.09375 -59.382812 16.40625 -61.332031 C 20.5625 -63.210938 25.417969 -64.148438 30.972656 -64.148438 C 36.15625 -64.148438 40.660156 -63.363281 44.480469 -61.792969 C 48.363281 -60.195312 51.558594 -58 54.066406 -55.203125 C 56.546875 -52.441406 58.382812 -49.289062 59.574219 -45.746094 C 60.738281 -42.289062 61.320312 -38.667969 61.320312 -34.886719 C 61.320312 -30.367188 60.523438 -25.847656 58.9375 -21.320312 C 57.351562 -16.800781 55.074219 -12.667969 52.109375 -8.925781 C 49.09375 -5.117188 45.4375 -2.070312 41.136719 0.21875 C 36.765625 2.542969 31.90625 3.707031 26.558594 3.707031 Z M 26.558594 -2.539062 C 30.867188 -2.539062 34.75 -3.457031 38.207031 -5.296875 C 41.734375 -7.171875 44.738281 -9.675781 47.214844 -12.804688 C 49.746094 -16 51.6875 -19.527344 53.042969 -23.390625 C 54.398438 -27.246094 55.074219 -31.078125 55.074219 -34.886719 C 55.074219 -37.984375 54.601562 -40.941406 53.65625 -43.753906 C 52.738281 -46.484375 51.328125 -48.910156 49.421875 -51.03125 C 47.546875 -53.121094 45.109375 -54.78125 42.105469 -56.015625 C 39.046875 -57.277344 35.332031 -57.90625 30.972656 -57.90625 C 26.3125 -57.90625 22.316406 -57.152344 18.976562 -55.644531 C 15.796875 -54.207031 13.363281 -52.15625 11.667969 -49.488281 C 9.96875 -46.808594 9.117188 -43.523438 9.117188 -39.628906 L 5.996094 -39.628906 L 6.980469 -42.59375 L 7.480469 -42.425781 L 6.492188 -39.464844 L 3.800781 -41.042969 C 5.832031 -44.511719 7.675781 -47.039062 9.324219 -48.625 C 10.195312 -49.460938 10.984375 -50.105469 11.699219 -50.5625 C 12.753906 -51.238281 13.765625 -51.578125 14.738281 -51.578125 C 15.507812 -51.578125 16.210938 -51.382812 16.847656 -50.988281 C 17.457031 -50.613281 17.9375 -50.097656 18.292969 -49.445312 C 18.726562 -48.648438 18.941406 -47.652344 18.941406 -46.457031 C 18.941406 -44.921875 18.617188 -42.875 17.972656 -40.320312 C 17.375 -37.957031 16.648438 -35.4375 15.796875 -32.769531 L 15.046875 -30.425781 L 12.59375 -30.605469 C 10.28125 -30.773438 7.554688 -31.027344 4.414062 -31.363281 L 4.746094 -34.46875 L 6.402344 -31.820312 C 5.601562 -31.320312 5.203125 -30.816406 5.203125 -30.304688 C 5.203125 -30.210938 5.308594 -30.074219 5.523438 -29.890625 C 5.910156 -29.5625 6.679688 -29.382812 7.835938 -29.347656 L 7.742188 -26.226562 L 7.742188 -29.347656 C 8.191406 -29.347656 8.683594 -29.332031 9.214844 -29.300781 C 9.628906 -29.277344 10.050781 -29.265625 10.492188 -29.265625 L 14.6875 -29.265625 L 13.480469 -25.246094 C 12.824219 -23.054688 12.234375 -20.988281 11.714844 -19.050781 C 11.238281 -17.265625 10.953125 -15.746094 10.855469 -14.496094 L 10.84375 -14.359375 L 10.824219 -14.222656 C 10.796875 -14.058594 10.78125 -13.941406 10.78125 -13.863281 L 10.78125 -13.070312 C 10.78125 -11.246094 11.183594 -9.71875 11.984375 -8.488281 C 12.851562 -7.15625 14 -6.070312 15.433594 -5.238281 C 17.015625 -4.316406 18.761719 -3.640625 20.667969 -3.210938 C 22.660156 -2.765625 24.625 -2.539062 26.558594 -2.539062 Z M 27.972656 -13.53125 C 29.519531 -13.53125 30.921875 -13.984375 32.179688 -14.894531 C 33.648438 -15.957031 34.941406 -17.390625 36.054688 -19.203125 C 37.230469 -21.113281 38.140625 -23.246094 38.785156 -25.59375 C 39.429688 -27.960938 39.753906 -30.335938 39.753906 -32.71875 C 39.753906 -35.492188 39.285156 -38.082031 38.34375 -40.496094 C 37.484375 -42.695312 36.113281 -44.480469 34.222656 -45.839844 C 32.382812 -47.167969 29.882812 -47.832031 26.726562 -47.832031 L 26.726562 -50.953125 L 29.746094 -51.75 C 30.058594 -50.558594 30.292969 -49.339844 30.449219 -48.09375 C 30.601562 -46.855469 30.679688 -45.589844 30.679688 -44.292969 C 30.679688 -42.441406 30.5625 -40.574219 30.324219 -38.695312 C 30.09375 -36.878906 29.804688 -35.078125 29.457031 -33.292969 L 26.394531 -33.886719 L 26.210938 -37.003906 C 27.101562 -37.054688 28.035156 -37.132812 29.011719 -37.238281 C 30.050781 -37.351562 31.160156 -37.464844 32.339844 -37.578125 L 33.410156 -37.679688 L 34.3125 -37.101562 C 35.394531 -36.414062 36.246094 -35.476562 36.863281 -34.285156 C 37.460938 -33.140625 37.757812 -31.925781 37.757812 -30.640625 C 37.757812 -28.742188 37.082031 -27.027344 35.726562 -25.492188 C 34.320312 -23.898438 32.210938 -23.019531 29.402344 -22.859375 C 28.519531 -22.800781 27.667969 -22.769531 26.851562 -22.769531 L 24.5625 -22.769531 L 24.5625 -25.894531 L 27.621094 -25.261719 C 27.234375 -23.386719 26.875 -21.605469 26.542969 -19.921875 C 26.25 -18.425781 26.101562 -17.113281 26.101562 -15.984375 C 26.101562 -14.9375 26.265625 -14.1875 26.59375 -13.734375 C 26.582031 -13.746094 26.574219 -13.753906 26.570312 -13.761719 C 26.59375 -13.742188 26.636719 -13.722656 26.699219 -13.699219 C 26.992188 -13.585938 27.414062 -13.53125 27.972656 -13.53125 Z M 27.972656 -7.285156 C 25.023438 -7.285156 22.875 -8.214844 21.53125 -10.078125 C 20.414062 -11.621094 19.855469 -13.589844 19.855469 -15.984375 C 19.855469 -17.519531 20.042969 -19.234375 20.414062 -21.125 C 20.75 -22.828125 21.113281 -24.625 21.503906 -26.523438 L 22.015625 -29.015625 L 26.851562 -29.015625 C 27.53125 -29.015625 28.261719 -29.042969 29.046875 -29.09375 C 29.695312 -29.128906 30.21875 -29.222656 30.613281 -29.375 C 30.824219 -29.453125 30.96875 -29.539062 31.046875 -29.625 C 31.355469 -29.976562 31.511719 -30.316406 31.511719 -30.640625 C 31.511719 -30.90625 31.449219 -31.164062 31.324219 -31.40625 C 31.222656 -31.601562 31.101562 -31.746094 30.960938 -31.835938 L 32.636719 -34.46875 L 32.933594 -31.359375 C 31.78125 -31.25 30.699219 -31.140625 29.683594 -31.03125 C 28.605469 -30.914062 27.570312 -30.828125 26.574219 -30.769531 L 22.5625 -30.53125 L 23.328125 -34.480469 C 23.648438 -36.132812 23.914062 -37.800781 24.128906 -39.484375 C 24.332031 -41.101562 24.4375 -42.703125 24.4375 -44.292969 C 24.4375 -45.328125 24.375 -46.335938 24.25 -47.320312 C 24.128906 -48.292969 23.949219 -49.238281 23.707031 -50.160156 L 22.675781 -54.074219 L 26.726562 -54.074219 C 31.226562 -54.074219 34.945312 -53.019531 37.875 -50.90625 C 40.761719 -48.824219 42.855469 -46.109375 44.164062 -42.761719 C 45.386719 -39.625 46 -36.277344 46 -32.71875 C 46 -29.777344 45.601562 -26.851562 44.808594 -23.945312 C 44.007812 -21.019531 42.863281 -18.347656 41.375 -15.929688 C 39.824219 -13.414062 37.980469 -11.378906 35.839844 -9.832031 C 33.492188 -8.132812 30.867188 -7.285156 27.972656 -7.285156 Z M 27.972656 -7.285156 "/></g></g></g><g fill="#497636" fill-opacity="1"><g transform="translate(184.98257, 337.125006)"><g><path d="M 7.742188 3.457031 C 5.425781 3.457031 3.347656 2.882812 1.507812 1.730469 C 0.332031 0.996094 -0.554688 0.0078125 -1.148438 -1.230469 C -1.6875 -2.351562 -1.957031 -3.632812 -1.957031 -5.078125 C -1.957031 -8.542969 -1.226562 -12.046875 0.234375 -15.59375 C 1.605469 -18.917969 3.292969 -22.191406 5.300781 -25.417969 C 7.226562 -28.515625 9.152344 -31.546875 11.078125 -34.507812 C 12.925781 -37.34375 14.472656 -40.035156 15.71875 -42.585938 C 16.8125 -44.816406 17.359375 -46.828125 17.359375 -48.621094 C 17.359375 -48.914062 17.34375 -49.148438 17.316406 -49.328125 C 17.308594 -49.371094 17.300781 -49.40625 17.296875 -49.425781 C 17.304688 -49.398438 17.316406 -49.363281 17.339844 -49.320312 C 17.46875 -49.054688 17.675781 -48.824219 17.964844 -48.625 C 18.328125 -48.375 18.726562 -48.246094 19.148438 -48.246094 C 19.5 -48.246094 19.769531 -48.3125 19.960938 -48.449219 C 19.859375 -48.375 19.707031 -48.214844 19.507812 -47.960938 C 19.0625 -47.40625 18.71875 -46.445312 18.476562 -45.082031 L 17.933594 -41.992188 L 11.363281 -43.1875 L 11.363281 -45.792969 C 11.363281 -49.597656 12.296875 -52.863281 14.15625 -55.589844 C 15.972656 -58.242188 18.300781 -60.246094 21.136719 -61.597656 C 23.894531 -62.910156 26.726562 -63.566406 29.640625 -63.566406 C 33.089844 -63.566406 36.308594 -62.59375 39.296875 -60.644531 C 42.429688 -58.601562 44.574219 -55.449219 45.726562 -51.183594 C 46.152344 -49.652344 46.476562 -47.945312 46.6875 -46.058594 C 46.890625 -44.269531 47.019531 -42.710938 47.078125 -41.394531 L 47.164062 -39.519531 L 47.457031 -28.054688 C 47.535156 -25.03125 47.683594 -22.503906 47.898438 -20.476562 C 48.101562 -18.53125 48.378906 -16.914062 48.722656 -15.632812 C 49.003906 -14.632812 49.347656 -13.859375 49.757812 -13.308594 C 49.785156 -13.265625 49.8125 -13.238281 49.832031 -13.21875 C 49.824219 -13.226562 49.8125 -13.234375 49.792969 -13.242188 C 49.75 -13.269531 49.71875 -13.28125 49.703125 -13.28125 C 49.917969 -13.28125 50.085938 -13.328125 50.210938 -13.429688 C 50.410156 -13.585938 50.5625 -13.726562 50.667969 -13.847656 L 50.679688 -13.839844 L 52.234375 -17.335938 L 57.238281 -13.761719 L 57.238281 -12.15625 C 57.238281 -9.085938 56.621094 -6.378906 55.378906 -4.035156 C 54.117188 -1.648438 52.441406 0.191406 50.351562 1.488281 C 48.238281 2.800781 45.996094 3.457031 43.625 3.457031 C 41.308594 3.457031 39.074219 2.78125 36.929688 1.4375 C 34.847656 0.128906 33.0625 -1.835938 31.582031 -4.460938 C 30.152344 -6.992188 29.222656 -10.191406 28.785156 -14.054688 L 31.886719 -14.402344 L 31.6875 -11.289062 C 29.980469 -11.398438 28.316406 -11.492188 26.691406 -11.578125 C 25.105469 -11.65625 23.675781 -11.699219 22.394531 -11.699219 C 21.542969 -11.699219 20.734375 -11.683594 19.964844 -11.65625 C 19.199219 -11.632812 18.445312 -11.589844 17.707031 -11.539062 L 17.484375 -14.652344 L 20.484375 -13.78125 C 20.015625 -12.171875 19.636719 -10.546875 19.351562 -8.914062 C 19.078125 -7.34375 18.941406 -5.8125 18.941406 -4.328125 C 18.941406 -2.988281 18.519531 -1.765625 17.679688 -0.660156 C 16.996094 0.238281 16.046875 1.023438 14.824219 1.695312 C 12.691406 2.867188 10.332031 3.457031 7.742188 3.457031 Z M 7.742188 -2.789062 C 9.261719 -2.789062 10.621094 -3.117188 11.816406 -3.777344 C 12.261719 -4.023438 12.558594 -4.242188 12.707031 -4.4375 L 12.714844 -4.441406 C 12.703125 -4.402344 12.695312 -4.363281 12.695312 -4.328125 C 12.695312 -6.175781 12.863281 -8.0625 13.199219 -9.988281 C 13.527344 -11.847656 13.953125 -13.695312 14.484375 -15.523438 L 15.09375 -17.613281 L 17.261719 -17.769531 C 18.078125 -17.824219 18.90625 -17.871094 19.75 -17.898438 C 20.589844 -17.925781 21.472656 -17.941406 22.394531 -17.941406 C 23.78125 -17.941406 25.320312 -17.898438 27.007812 -17.8125 C 28.660156 -17.730469 30.355469 -17.632812 32.089844 -17.519531 L 34.695312 -17.351562 L 34.992188 -14.753906 C 35.332031 -11.734375 36.007812 -9.324219 37.023438 -7.527344 C 37.984375 -5.824219 39.058594 -4.597656 40.25 -3.851562 C 41.378906 -3.144531 42.503906 -2.789062 43.625 -2.789062 C 44.808594 -2.789062 45.953125 -3.132812 47.058594 -3.820312 C 48.191406 -4.519531 49.125 -5.566406 49.859375 -6.957031 C 50.617188 -8.386719 50.996094 -10.121094 50.996094 -12.15625 L 54.117188 -12.15625 L 52.300781 -9.613281 L 51.71875 -10.03125 L 53.535156 -12.570312 L 56.386719 -11.304688 C 55.960938 -10.339844 55.199219 -9.421875 54.113281 -8.550781 C 52.847656 -7.539062 51.378906 -7.035156 49.703125 -7.035156 C 47.65625 -7.035156 46.003906 -7.886719 44.742188 -9.585938 C 43.875 -10.757812 43.191406 -12.230469 42.691406 -14.007812 C 42.261719 -15.609375 41.925781 -17.546875 41.6875 -19.820312 C 41.457031 -22.011719 41.296875 -24.703125 41.214844 -27.894531 L 40.925781 -39.242188 L 40.839844 -41.117188 C 40.789062 -42.292969 40.667969 -43.707031 40.484375 -45.359375 C 40.308594 -46.914062 40.046875 -48.3125 39.695312 -49.558594 C 38.960938 -52.285156 37.691406 -54.238281 35.886719 -55.414062 C 33.933594 -56.6875 31.851562 -57.324219 29.640625 -57.324219 C 27.667969 -57.324219 25.730469 -56.867188 23.820312 -55.960938 C 21.996094 -55.09375 20.496094 -53.792969 19.3125 -52.0625 C 18.175781 -50.402344 17.609375 -48.3125 17.609375 -45.792969 L 14.488281 -45.792969 L 15.046875 -48.863281 L 15.960938 -48.695312 L 15.402344 -45.625 L 12.328125 -46.167969 C 12.753906 -48.578125 13.519531 -50.476562 14.628906 -51.863281 C 16.03125 -53.617188 17.539062 -54.492188 19.148438 -54.492188 C 20.019531 -54.492188 20.800781 -54.25 21.5 -53.769531 C 22.121094 -53.34375 22.605469 -52.769531 22.957031 -52.046875 C 23.386719 -51.15625 23.605469 -50.015625 23.605469 -48.621094 C 23.605469 -45.863281 22.84375 -42.9375 21.328125 -39.839844 C 19.96875 -37.0625 18.296875 -34.148438 16.3125 -31.101562 C 14.410156 -28.175781 12.507812 -25.183594 10.601562 -22.121094 C 8.777344 -19.1875 7.246094 -16.21875 6.007812 -13.214844 C 4.863281 -10.429688 4.289062 -7.71875 4.289062 -5.078125 C 4.289062 -4.289062 4.464844 -3.785156 4.820312 -3.5625 C 5.644531 -3.046875 6.621094 -2.789062 7.742188 -2.789062 Z M 19.390625 -25.402344 C 20.960938 -25.84375 22.621094 -26.140625 24.367188 -26.296875 C 26.011719 -26.445312 27.769531 -26.519531 29.640625 -26.519531 L 31.472656 -26.519531 L 31.472656 -23.394531 L 28.351562 -23.3125 C 28.238281 -27.398438 28.085938 -31.601562 27.894531 -35.910156 C 27.710938 -39.953125 27.054688 -43.699219 25.921875 -47.148438 L 28.890625 -48.121094 L 31.992188 -47.777344 C 31.519531 -43.496094 30.339844 -39.03125 28.453125 -34.378906 L 23.125 -21.222656 L 20.230469 -22.394531 Z M 21.074219 -19.390625 L 14.949219 -17.675781 L 22.667969 -36.722656 C 24.335938 -40.84375 25.375 -44.757812 25.785156 -48.46875 L 31.855469 -49.097656 C 33.167969 -45.105469 33.925781 -40.804688 34.132812 -36.191406 C 34.328125 -31.84375 34.480469 -27.605469 34.59375 -23.480469 L 34.679688 -20.273438 L 29.640625 -20.273438 C 27.957031 -20.273438 26.382812 -20.207031 24.921875 -20.078125 C 23.558594 -19.957031 22.277344 -19.726562 21.074219 -19.390625 Z M 30.390625 -60.152344 C 26.394531 -60.152344 23.207031 -60.914062 20.835938 -62.4375 C 18.28125 -64.078125 16.695312 -66.128906 16.078125 -68.597656 C 15.464844 -71.050781 15.753906 -73.371094 16.953125 -75.554688 C 18.167969 -77.78125 20.132812 -79.292969 22.847656 -80.09375 L 22.949219 -80.121094 L 23.050781 -80.144531 C 24.417969 -80.449219 25.539062 -80.160156 26.414062 -79.285156 C 26.847656 -78.851562 27.132812 -78.339844 27.277344 -77.746094 C 27.382812 -77.316406 27.398438 -76.878906 27.328125 -76.4375 C 27.257812 -75.996094 27.101562 -75.558594 26.855469 -75.132812 L 24.144531 -76.679688 L 27.199219 -76.035156 C 27.242188 -76.234375 27.195312 -76.464844 27.0625 -76.71875 C 27 -76.84375 26.925781 -76.945312 26.84375 -77.023438 L 26.847656 -77.027344 C 27.511719 -76.679688 28.46875 -76.464844 29.71875 -76.382812 C 31.195312 -76.285156 32.703125 -76.347656 34.234375 -76.566406 C 35.640625 -76.765625 36.785156 -77.09375 37.667969 -77.546875 C 37.800781 -77.613281 37.90625 -77.675781 37.984375 -77.734375 L 37.988281 -77.730469 C 37.835938 -77.535156 37.757812 -77.296875 37.757812 -77.011719 C 37.757812 -77.472656 37.832031 -77.910156 37.988281 -78.316406 C 38.242188 -79 38.671875 -79.542969 39.273438 -79.945312 C 40.203125 -80.5625 41.234375 -80.6875 42.367188 -80.308594 C 43.738281 -79.878906 44.882812 -79.246094 45.804688 -78.414062 C 46.851562 -77.46875 47.546875 -76.320312 47.898438 -74.964844 C 48.503906 -72.632812 48.085938 -70.246094 46.648438 -67.808594 C 45.347656 -65.601562 43.277344 -63.761719 40.441406 -62.292969 C 37.6875 -60.867188 34.335938 -60.152344 30.390625 -60.152344 Z M 30.390625 -66.398438 C 33.324219 -66.398438 35.714844 -66.878906 37.570312 -67.839844 C 39.34375 -68.757812 40.574219 -69.804688 41.269531 -70.980469 C 41.832031 -71.929688 42.023438 -72.738281 41.851562 -73.398438 C 41.753906 -73.78125 41.265625 -74.109375 40.390625 -74.382812 C 40.628906 -74.304688 40.886719 -74.265625 41.160156 -74.265625 C 41.726562 -74.265625 42.253906 -74.425781 42.734375 -74.75 C 43.253906 -75.09375 43.621094 -75.550781 43.835938 -76.125 C 43.945312 -76.421875 44 -76.71875 44 -77.011719 C 44 -75.839844 43.625 -74.785156 42.875 -73.839844 C 42.296875 -73.113281 41.507812 -72.496094 40.511719 -71.984375 C 39.007812 -71.214844 37.210938 -70.683594 35.117188 -70.382812 C 33.15625 -70.101562 31.21875 -70.027344 29.308594 -70.152344 C 27.175781 -70.289062 25.386719 -70.742188 23.9375 -71.503906 C 22.832031 -72.085938 22.027344 -72.867188 21.515625 -73.851562 C 20.96875 -74.914062 20.824219 -76.070312 21.089844 -77.324219 L 21.191406 -77.804688 L 21.433594 -78.230469 C 21.300781 -77.996094 21.207031 -77.722656 21.160156 -77.410156 C 21.101562 -77.035156 21.117188 -76.65625 21.207031 -76.277344 C 21.339844 -75.734375 21.601562 -75.265625 22 -74.867188 C 22.539062 -74.328125 23.171875 -74.046875 23.898438 -74.011719 C 24.09375 -74.003906 24.261719 -74.015625 24.40625 -74.046875 L 23.726562 -77.097656 L 24.609375 -74.101562 C 23.546875 -73.789062 22.820312 -73.273438 22.429688 -72.558594 C 22.015625 -71.800781 21.917969 -70.984375 22.136719 -70.109375 C 22.351562 -69.246094 23.042969 -68.441406 24.207031 -67.695312 C 25.554688 -66.828125 27.613281 -66.398438 30.390625 -66.398438 Z M 30.390625 -66.398438 "/></g></g></g><g fill="#497636" fill-opacity="1"><g transform="translate(240.760098, 337.125006)"><g><path d="M 10.988281 3.457031 C 8.085938 3.457031 5.480469 2.324219 3.179688 0.0625 C 0.867188 -2.214844 -0.292969 -5.59375 -0.292969 -10.074219 C -0.292969 -13.894531 0.078125 -17.589844 0.8125 -21.15625 C 1.523438 -24.597656 2.351562 -27.914062 3.289062 -31.105469 C 4.195312 -34.167969 4.988281 -37.082031 5.667969 -39.839844 C 6.300781 -42.394531 6.617188 -44.796875 6.617188 -47.039062 L 9.742188 -47.039062 L 8.582031 -44.140625 C 8.121094 -44.324219 7.730469 -44.417969 7.410156 -44.417969 C 7.21875 -44.417969 7.089844 -44.386719 7.023438 -44.324219 C 6.726562 -44.054688 6.472656 -43.628906 6.261719 -43.046875 L 5.246094 -40.292969 L -0.65625 -42.0625 L -0.625 -44.421875 C -0.5625 -48.753906 0.105469 -52.277344 1.378906 -54.988281 C 2.738281 -57.878906 4.558594 -59.988281 6.839844 -61.3125 C 9.046875 -62.59375 11.34375 -63.234375 13.738281 -63.234375 C 17.257812 -63.234375 20.402344 -62.09375 23.171875 -59.816406 C 25.667969 -57.765625 27.882812 -55.015625 29.820312 -51.570312 C 31.667969 -48.285156 33.273438 -44.59375 34.640625 -40.492188 C 35.980469 -36.476562 37.132812 -32.296875 38.097656 -27.945312 C 39.0625 -23.613281 39.828125 -19.347656 40.394531 -15.15625 L 37.300781 -14.738281 L 34.210938 -15.199219 C 34.539062 -17.382812 34.878906 -20.0625 35.238281 -23.242188 C 35.59375 -26.429688 35.910156 -29.777344 36.183594 -33.296875 C 36.457031 -36.769531 36.589844 -40.074219 36.589844 -43.210938 C 36.589844 -45.453125 36.511719 -47.484375 36.351562 -49.308594 C 36.203125 -51.03125 35.960938 -52.492188 35.625 -53.691406 L 35.507812 -54.105469 L 35.507812 -56.394531 L 36.308594 -57.285156 C 37.976562 -59.148438 39.695312 -60.578125 41.464844 -61.582031 C 43.414062 -62.683594 45.300781 -63.234375 47.125 -63.234375 C 50.042969 -63.234375 52.4375 -62.007812 54.308594 -59.550781 C 55.984375 -57.351562 56.824219 -54.40625 56.824219 -50.703125 C 56.824219 -48.285156 56.5 -45.386719 55.851562 -42 C 55.234375 -38.769531 54.503906 -35.332031 53.664062 -31.683594 C 52.839844 -28.121094 52.113281 -24.628906 51.484375 -21.207031 C 50.878906 -17.902344 50.546875 -14.949219 50.496094 -12.34375 C 50.496094 -11.738281 50.542969 -11.054688 50.636719 -10.296875 C 50.585938 -10.71875 50.355469 -11.085938 49.953125 -11.390625 C 49.773438 -11.527344 49.589844 -11.621094 49.402344 -11.671875 C 49.359375 -11.683594 49.316406 -11.691406 49.28125 -11.695312 L 49.289062 -11.699219 L 51.726562 -11.699219 L 52.316406 -9.332031 C 52.433594 -8.863281 52.492188 -8.441406 52.492188 -8.074219 L 52.492188 -7.660156 C 52.414062 -4.710938 51.246094 -2.125 48.980469 0.101562 C 46.707031 2.339844 43.757812 3.457031 40.128906 3.457031 C 37.277344 3.457031 34.828125 2.695312 32.777344 1.175781 C 30.902344 -0.210938 29.359375 -2.039062 28.136719 -4.308594 C 27.035156 -6.359375 26.109375 -8.667969 25.355469 -11.234375 C 24.644531 -13.636719 23.980469 -16.113281 23.359375 -18.65625 C 22.265625 -22.917969 21.128906 -26.984375 19.949219 -30.851562 C 18.835938 -34.511719 17.34375 -37.867188 15.484375 -40.917969 L 18.148438 -42.542969 L 21.269531 -42.699219 C 21.386719 -40.320312 21.300781 -37.730469 21.003906 -34.933594 L 20.128906 -26.925781 C 19.835938 -24.34375 19.691406 -21.863281 19.691406 -19.480469 C 19.691406 -17.476562 19.863281 -15.648438 20.207031 -14 C 20.507812 -12.554688 21.039062 -11.28125 21.800781 -10.1875 L 22.355469 -9.382812 L 22.355469 -8.410156 C 22.355469 -4.765625 21.152344 -1.855469 18.746094 0.320312 C 16.429688 2.410156 13.84375 3.457031 10.988281 3.457031 Z M 10.988281 -2.789062 C 12.242188 -2.789062 13.433594 -3.296875 14.558594 -4.316406 C 15.59375 -5.25 16.109375 -6.613281 16.109375 -8.410156 L 19.234375 -8.410156 L 16.664062 -6.632812 C 15.425781 -8.421875 14.570312 -10.453125 14.09375 -12.722656 C 13.664062 -14.792969 13.445312 -17.046875 13.445312 -19.480469 C 13.445312 -22.097656 13.605469 -24.804688 13.921875 -27.605469 L 14.796875 -35.585938 C 15.054688 -38.0625 15.132812 -40.328125 15.03125 -42.386719 L 20.816406 -44.171875 C 22.949219 -40.671875 24.652344 -36.839844 25.925781 -32.671875 C 27.132812 -28.714844 28.296875 -24.539062 29.425781 -20.140625 C 30.023438 -17.691406 30.664062 -15.308594 31.34375 -12.996094 C 31.976562 -10.84375 32.742188 -8.933594 33.640625 -7.265625 C 34.417969 -5.816406 35.371094 -4.675781 36.492188 -3.839844 C 37.441406 -3.140625 38.652344 -2.789062 40.128906 -2.789062 C 42.054688 -2.789062 43.542969 -3.308594 44.601562 -4.347656 C 45.667969 -5.398438 46.21875 -6.554688 46.25 -7.824219 L 49.371094 -7.742188 L 46.25 -7.742188 L 46.25 -8.074219 C 46.25 -7.960938 46.257812 -7.859375 46.269531 -7.769531 C 46.269531 -7.773438 46.265625 -7.789062 46.257812 -7.816406 L 49.289062 -8.574219 L 49.289062 -5.453125 C 48.058594 -5.453125 47.019531 -5.777344 46.167969 -6.425781 C 45.179688 -7.175781 44.605469 -8.207031 44.441406 -9.519531 C 44.316406 -10.535156 44.25 -11.519531 44.25 -12.46875 C 44.3125 -15.410156 44.675781 -18.703125 45.34375 -22.335938 C 45.988281 -25.851562 46.734375 -29.4375 47.578125 -33.089844 C 48.402344 -36.660156 49.117188 -40.019531 49.71875 -43.171875 C 50.292969 -46.171875 50.578125 -48.679688 50.578125 -50.703125 C 50.578125 -52.996094 50.167969 -54.683594 49.34375 -55.761719 C 48.722656 -56.582031 47.980469 -56.988281 47.125 -56.988281 C 46.394531 -56.988281 45.535156 -56.707031 44.539062 -56.144531 C 43.367188 -55.480469 42.171875 -54.472656 40.957031 -53.117188 L 38.632812 -55.199219 L 41.753906 -55.199219 L 41.753906 -54.535156 L 38.632812 -54.535156 L 41.636719 -55.375 C 42.078125 -53.800781 42.390625 -51.957031 42.574219 -49.851562 C 42.75 -47.84375 42.835938 -45.632812 42.835938 -43.210938 C 42.835938 -39.910156 42.695312 -36.441406 42.410156 -32.808594 C 42.128906 -29.222656 41.808594 -25.800781 41.441406 -22.546875 C 41.078125 -19.289062 40.726562 -16.53125 40.386719 -14.273438 L 34.207031 -14.320312 C 33.660156 -18.339844 32.929688 -22.429688 32.003906 -26.589844 C 31.082031 -30.730469 29.988281 -34.707031 28.71875 -38.519531 C 27.476562 -42.242188 26.03125 -45.570312 24.378906 -48.507812 C 22.820312 -51.277344 21.097656 -53.4375 19.207031 -54.996094 C 17.589844 -56.324219 15.765625 -56.988281 13.738281 -56.988281 C 12.464844 -56.988281 11.210938 -56.628906 9.976562 -55.914062 C 8.820312 -55.242188 7.835938 -54.046875 7.03125 -52.332031 C 6.140625 -50.433594 5.667969 -47.769531 5.621094 -44.332031 L 2.496094 -44.375 L 3.394531 -47.367188 L 4.226562 -47.117188 L 3.332031 -44.125 L 0.402344 -45.207031 C 0.964844 -46.734375 1.765625 -47.972656 2.800781 -48.925781 C 4.066406 -50.082031 5.601562 -50.664062 7.410156 -50.664062 C 8.53125 -50.664062 9.695312 -50.421875 10.902344 -49.941406 L 12.863281 -49.15625 L 12.863281 -47.039062 C 12.863281 -44.289062 12.484375 -41.386719 11.730469 -38.339844 C 11.027344 -35.492188 10.210938 -32.492188 9.28125 -29.339844 C 8.390625 -26.3125 7.605469 -23.164062 6.929688 -19.890625 C 6.277344 -16.742188 5.953125 -13.46875 5.953125 -10.074219 C 5.953125 -7.339844 6.488281 -5.445312 7.558594 -4.390625 C 8.644531 -3.324219 9.789062 -2.789062 10.988281 -2.789062 Z M 10.988281 -2.789062 "/></g></g></g><g fill="#497636" fill-opacity="1"><g transform="translate(298.618883, 337.125006)"><g><path d="M 35.382812 15.777344 C 34.914062 15.777344 34.460938 15.761719 34.019531 15.726562 C 33.59375 15.695312 33.152344 15.644531 32.695312 15.578125 L 30.367188 15.246094 L 30.042969 12.921875 C 29.703125 10.464844 29.445312 8.019531 29.273438 5.589844 C 29.101562 3.183594 28.988281 0.90625 28.933594 -1.25 L 32.054688 -1.332031 L 33.355469 1.507812 C 30.277344 2.917969 27.097656 3.621094 23.8125 3.621094 C 19.667969 3.621094 15.773438 2.496094 12.136719 0.238281 C 8.488281 -2.019531 5.558594 -5.417969 3.351562 -9.957031 C 1.199219 -14.386719 0.125 -19.863281 0.125 -26.394531 C 0.125 -32.703125 1.125 -38.191406 3.125 -42.859375 C 5.125 -47.53125 7.753906 -51.402344 11.011719 -54.472656 C 14.25 -57.527344 17.78125 -59.796875 21.601562 -61.273438 C 25.40625 -62.746094 29.113281 -63.484375 32.71875 -63.484375 C 36.015625 -63.484375 39.042969 -62.921875 41.808594 -61.796875 C 44.691406 -60.625 47.007812 -58.953125 48.757812 -56.789062 C 50.640625 -54.46875 51.578125 -51.71875 51.578125 -48.539062 C 51.578125 -45.945312 50.863281 -43.503906 49.4375 -41.222656 C 48.007812 -38.929688 45.878906 -37.113281 43.054688 -35.769531 C 40.351562 -34.484375 37.019531 -33.84375 33.054688 -33.84375 L 28.671875 -33.84375 L 30.101562 -37.984375 C 30.601562 -39.4375 30.949219 -40.71875 31.144531 -41.832031 C 31.332031 -42.929688 31.429688 -43.863281 31.429688 -44.625 C 31.429688 -45.363281 31.367188 -45.941406 31.238281 -46.351562 C 31.203125 -46.464844 31.171875 -46.542969 31.140625 -46.59375 C 31.148438 -46.582031 31.171875 -46.558594 31.207031 -46.527344 C 30.898438 -46.785156 30.542969 -46.914062 30.140625 -46.914062 C 28.796875 -46.914062 27.519531 -46.238281 26.308594 -44.878906 C 24.769531 -43.15625 23.542969 -40.855469 22.625 -37.972656 C 21.667969 -34.980469 21.1875 -31.757812 21.1875 -28.308594 C 21.1875 -23.574219 22.058594 -19.945312 23.800781 -17.425781 C 25.289062 -15.273438 27.066406 -14.195312 29.140625 -14.195312 C 29.984375 -14.195312 30.894531 -14.378906 31.875 -14.746094 L 32.96875 -11.824219 L 29.847656 -11.824219 L 29.847656 -11.90625 C 29.847656 -16.378906 30.265625 -19.996094 31.105469 -22.761719 C 32.027344 -25.796875 33.304688 -28.035156 34.941406 -29.480469 C 36.722656 -31.058594 38.648438 -31.847656 40.714844 -31.847656 C 42.796875 -31.847656 44.746094 -31.164062 46.550781 -29.800781 C 48.144531 -28.597656 49.460938 -27.070312 50.507812 -25.226562 C 51.609375 -23.277344 52.160156 -21.167969 52.160156 -18.898438 C 52.160156 -16.816406 51.605469 -14.75 50.492188 -12.703125 C 49.367188 -10.640625 47.546875 -8.824219 45.027344 -7.253906 L 43.378906 -9.90625 L 46.40625 -9.148438 C 46.324219 -8.828125 46.265625 -8.507812 46.226562 -8.1875 C 46.1875 -7.871094 46.167969 -7.558594 46.167969 -7.242188 C 46.167969 -6.085938 46.429688 -4.726562 46.960938 -3.164062 C 47.578125 -1.339844 48.566406 1.234375 49.929688 4.5625 L 50.324219 5.523438 L 50.0625 6.53125 C 49.570312 8.421875 48.488281 10.105469 46.820312 11.582031 C 45.335938 12.890625 43.59375 13.917969 41.59375 14.664062 C 39.605469 15.40625 37.535156 15.777344 35.382812 15.777344 Z M 35.382812 9.53125 C 36.785156 9.53125 38.128906 9.292969 39.414062 8.8125 C 40.691406 8.339844 41.777344 7.699219 42.683594 6.902344 C 43.402344 6.265625 43.847656 5.617188 44.019531 4.957031 L 47.039062 5.746094 L 44.152344 6.929688 C 42.738281 3.484375 41.703125 0.785156 41.042969 -1.164062 C 40.296875 -3.375 39.921875 -5.402344 39.921875 -7.242188 C 39.921875 -7.816406 39.957031 -8.390625 40.027344 -8.960938 C 40.101562 -9.53125 40.207031 -10.097656 40.347656 -10.664062 L 40.65625 -11.890625 L 41.730469 -12.558594 C 43.316406 -13.546875 44.40625 -14.589844 45.003906 -15.6875 C 45.613281 -16.804688 45.917969 -17.875 45.917969 -18.898438 C 45.917969 -20.070312 45.636719 -21.15625 45.074219 -22.148438 C 44.453125 -23.246094 43.691406 -24.132812 42.785156 -24.816406 C 42.09375 -25.339844 41.402344 -25.601562 40.714844 -25.601562 C 40.222656 -25.601562 39.679688 -25.335938 39.074219 -24.800781 C 38.324219 -24.136719 37.660156 -22.855469 37.082031 -20.949219 C 36.421875 -18.773438 36.09375 -15.761719 36.09375 -11.90625 L 36.09375 -9.660156 L 34.066406 -8.898438 C 32.378906 -8.265625 30.738281 -7.949219 29.140625 -7.949219 C 27 -7.949219 25.027344 -8.472656 23.226562 -9.515625 C 21.503906 -10.511719 19.980469 -11.96875 18.660156 -13.878906 C 16.183594 -17.464844 14.945312 -22.273438 14.945312 -28.308594 C 14.945312 -32.40625 15.519531 -36.261719 16.675781 -39.871094 C 17.863281 -43.597656 19.523438 -46.652344 21.648438 -49.035156 C 24.101562 -51.785156 26.929688 -53.160156 30.140625 -53.160156 C 32.066406 -53.160156 33.765625 -52.539062 35.234375 -51.300781 C 36.859375 -49.925781 37.675781 -47.703125 37.675781 -44.625 C 37.675781 -43.503906 37.546875 -42.214844 37.296875 -40.761719 C 37.042969 -39.320312 36.613281 -37.714844 36.003906 -35.949219 L 33.054688 -36.964844 L 33.054688 -40.089844 C 36.082031 -40.089844 38.519531 -40.527344 40.371094 -41.410156 C 42.097656 -42.230469 43.355469 -43.273438 44.144531 -44.53125 C 44.9375 -45.800781 45.332031 -47.136719 45.332031 -48.539062 C 45.332031 -50.246094 44.859375 -51.683594 43.90625 -52.859375 C 42.828125 -54.191406 41.34375 -55.242188 39.453125 -56.011719 C 37.441406 -56.832031 35.199219 -57.238281 32.71875 -57.238281 C 29.890625 -57.238281 26.933594 -56.644531 23.855469 -55.453125 C 20.796875 -54.265625 17.941406 -52.425781 15.296875 -49.929688 C 12.671875 -47.453125 10.527344 -44.273438 8.863281 -40.398438 C 7.199219 -36.519531 6.371094 -31.847656 6.371094 -26.394531 C 6.371094 -20.820312 7.234375 -16.253906 8.96875 -12.6875 C 10.648438 -9.234375 12.800781 -6.695312 15.421875 -5.070312 C 18.054688 -3.4375 20.851562 -2.621094 23.8125 -2.621094 C 26.1875 -2.621094 28.5 -3.140625 30.753906 -4.171875 L 35.050781 -6.140625 L 35.175781 -1.414062 C 35.230469 0.648438 35.339844 2.835938 35.5 5.148438 C 35.664062 7.4375 35.90625 9.742188 36.230469 12.058594 L 33.136719 12.488281 L 33.578125 9.398438 C 33.898438 9.445312 34.207031 9.476562 34.5 9.5 C 34.78125 9.523438 35.074219 9.53125 35.382812 9.53125 Z M 35.382812 9.53125 "/></g></g></g><g fill="#497636" fill-opacity="1"><g transform="translate(350.317166, 337.125006)"><g/></g></g><g fill="#497636" fill-opacity="1"><g transform="translate(365.302173, 337.125006)"><g><path d="M 40.046875 3.707031 C 37.175781 3.707031 34.753906 3.019531 32.773438 1.652344 C 30.910156 0.359375 29.414062 -1.355469 28.289062 -3.503906 C 27.289062 -5.414062 26.492188 -7.527344 25.90625 -9.847656 C 25.367188 -11.972656 24.871094 -14.109375 24.417969 -16.257812 C 23.878906 -19.121094 23.226562 -21.769531 22.457031 -24.203125 C 21.898438 -25.972656 21.089844 -27.15625 20.03125 -27.75 L 21.5625 -30.472656 L 24.574219 -29.648438 C 23.472656 -25.621094 22.425781 -21.585938 21.433594 -17.53125 C 20.492188 -13.695312 20.023438 -9.90625 20.023438 -6.160156 C 20.023438 -5.597656 20.035156 -5.015625 20.0625 -4.421875 C 20.089844 -3.835938 20.125 -3.257812 20.175781 -2.695312 L 20.316406 -1.183594 L 19.210938 -0.144531 C 16.664062 2.257812 13.703125 3.457031 10.324219 3.457031 C 7.382812 3.457031 4.765625 2.363281 2.46875 0.179688 C 0.128906 -2.042969 -1.039062 -5.40625 -1.039062 -9.90625 C -1.039062 -12.945312 -0.550781 -16.03125 0.433594 -19.167969 C 1.351562 -22.085938 2.421875 -25.03125 3.648438 -28 C 4.808594 -30.800781 5.816406 -33.585938 6.675781 -36.351562 C 7.46875 -38.910156 7.867188 -41.417969 7.867188 -43.875 C 7.867188 -44.613281 7.828125 -45.21875 7.746094 -45.6875 C 7.699219 -45.957031 7.664062 -46.113281 7.636719 -46.15625 C 7.667969 -46.109375 7.742188 -46.042969 7.867188 -45.964844 C 8.089844 -45.820312 8.324219 -45.75 8.574219 -45.75 C 8.625 -45.75 8.671875 -45.753906 8.707031 -45.761719 C 8.703125 -45.761719 8.6875 -45.753906 8.660156 -45.742188 C 8.496094 -45.667969 8.296875 -45.527344 8.054688 -45.324219 C 7.453125 -44.816406 6.832031 -43.9375 6.1875 -42.691406 L 5.011719 -40.421875 L -0.386719 -41.964844 L -0.289062 -44.414062 C -0.160156 -47.683594 0.582031 -50.707031 1.941406 -53.488281 C 3.335938 -56.347656 5.230469 -58.636719 7.628906 -60.359375 C 10.144531 -62.164062 12.902344 -63.066406 15.902344 -63.066406 C 19.085938 -63.066406 21.871094 -61.894531 24.253906 -59.546875 C 26.652344 -57.1875 27.851562 -53.433594 27.851562 -48.289062 C 27.851562 -46.226562 27.65625 -44.042969 27.265625 -41.734375 C 26.894531 -39.539062 26.453125 -37.308594 25.941406 -35.03125 L 22.894531 -35.71875 L 20.851562 -38.078125 C 23.15625 -40.074219 25.167969 -42.289062 26.878906 -44.71875 C 28.601562 -47.160156 29.929688 -49.535156 30.867188 -51.839844 C 31.742188 -53.988281 32.179688 -55.800781 32.179688 -57.28125 C 32.179688 -57.925781 32.078125 -58.417969 31.875 -58.753906 L 29.039062 -63.484375 L 34.550781 -63.484375 C 37.636719 -63.484375 40.421875 -63.03125 42.902344 -62.128906 C 45.507812 -61.183594 47.617188 -59.847656 49.234375 -58.128906 C 51.074219 -56.167969 51.996094 -53.886719 51.996094 -51.285156 C 51.996094 -48.066406 50.363281 -44.742188 47.097656 -41.308594 C 44.113281 -38.171875 39.238281 -35.132812 32.464844 -32.1875 L 31.222656 -35.050781 L 32.5 -37.902344 C 34.617188 -36.953125 36.351562 -35.542969 37.703125 -33.679688 C 38.871094 -32.070312 39.847656 -30.339844 40.632812 -28.484375 C 41.363281 -26.761719 41.992188 -25.078125 42.519531 -23.433594 L 39.546875 -22.480469 L 42.496094 -23.503906 C 43.398438 -20.90625 44.277344 -18.734375 45.136719 -16.992188 C 45.359375 -16.535156 45.585938 -16.230469 45.8125 -16.070312 C 45.929688 -15.984375 46.089844 -15.945312 46.292969 -15.945312 C 46.644531 -15.945312 46.960938 -16.0625 47.242188 -16.296875 C 47.726562 -16.703125 48.066406 -17.128906 48.257812 -17.570312 L 49.578125 -20.582031 L 54.742188 -18 L 54.742188 -16.070312 C 54.742188 -12.714844 54.238281 -9.609375 53.234375 -6.75 C 52.167969 -3.714844 50.570312 -1.253906 48.445312 0.628906 C 46.132812 2.679688 43.335938 3.707031 40.046875 3.707031 Z M 40.046875 -2.539062 C 41.753906 -2.539062 43.171875 -3.039062 44.300781 -4.042969 C 45.621094 -5.210938 46.632812 -6.804688 47.34375 -8.820312 C 48.113281 -11.011719 48.496094 -13.425781 48.496094 -16.070312 L 51.621094 -16.070312 L 50.222656 -13.277344 L 49.722656 -13.527344 L 51.121094 -16.320312 L 53.980469 -15.066406 C 53.398438 -13.730469 52.488281 -12.546875 51.253906 -11.511719 C 49.8125 -10.304688 48.160156 -9.699219 46.292969 -9.699219 C 44.769531 -9.699219 43.410156 -10.121094 42.210938 -10.96875 C 41.121094 -11.738281 40.226562 -12.824219 39.535156 -14.230469 C 38.5625 -16.207031 37.582031 -18.613281 36.597656 -21.457031 L 36.585938 -21.488281 L 36.574219 -21.523438 C 36.105469 -22.988281 35.539062 -24.496094 34.882812 -26.046875 C 34.28125 -27.46875 33.535156 -28.789062 32.648438 -30.011719 C 31.949219 -30.976562 31.046875 -31.707031 29.945312 -32.203125 L 23.492188 -35.09375 L 29.976562 -37.914062 C 35.972656 -40.523438 40.171875 -43.085938 42.570312 -45.613281 C 44.691406 -47.839844 45.75 -49.730469 45.75 -51.285156 C 45.75 -52.238281 45.394531 -53.09375 44.679688 -53.855469 C 43.742188 -54.851562 42.441406 -55.652344 40.769531 -56.261719 C 38.976562 -56.914062 36.90625 -57.238281 34.550781 -57.238281 L 34.550781 -60.363281 L 37.230469 -61.96875 C 38.027344 -60.640625 38.421875 -59.078125 38.421875 -57.28125 C 38.421875 -54.988281 37.832031 -52.386719 36.652344 -49.484375 C 35.535156 -46.738281 33.980469 -43.949219 31.984375 -41.121094 C 29.976562 -38.277344 27.628906 -35.6875 24.941406 -33.359375 L 17.765625 -27.140625 L 19.847656 -36.402344 C 20.335938 -38.566406 20.757812 -40.691406 21.109375 -42.773438 C 21.4375 -44.738281 21.605469 -46.578125 21.605469 -48.289062 C 21.605469 -51.691406 21.027344 -53.960938 19.871094 -55.097656 C 18.703125 -56.246094 17.378906 -56.824219 15.902344 -56.824219 C 14.242188 -56.824219 12.699219 -56.3125 11.269531 -55.285156 C 9.726562 -54.175781 8.488281 -52.664062 7.550781 -50.75 C 6.578125 -48.757812 6.042969 -46.5625 5.949219 -44.171875 L 2.832031 -44.292969 L 3.6875 -47.296875 L 4.269531 -47.128906 L 3.414062 -44.125 L 0.640625 -45.5625 C 1.660156 -47.535156 2.785156 -49.042969 4.015625 -50.085938 C 5.515625 -51.359375 7.035156 -51.996094 8.574219 -51.996094 C 9.546875 -51.996094 10.4375 -51.734375 11.242188 -51.21875 C 11.949219 -50.765625 12.535156 -50.136719 13.011719 -49.339844 C 13.746094 -48.101562 14.113281 -46.277344 14.113281 -43.875 C 14.113281 -40.785156 13.621094 -37.660156 12.640625 -34.5 C 11.722656 -31.550781 10.652344 -28.589844 9.421875 -25.617188 C 8.261719 -22.8125 7.253906 -20.042969 6.394531 -17.296875 C 5.601562 -14.773438 5.203125 -12.308594 5.203125 -9.90625 C 5.203125 -7.191406 5.726562 -5.339844 6.773438 -4.34375 C 7.863281 -3.308594 9.046875 -2.789062 10.324219 -2.789062 C 12.050781 -2.789062 13.585938 -3.421875 14.925781 -4.6875 L 17.066406 -2.414062 L 13.957031 -2.132812 C 13.898438 -2.792969 13.851562 -3.464844 13.824219 -4.152344 C 13.792969 -4.835938 13.777344 -5.503906 13.777344 -6.160156 C 13.777344 -10.410156 14.308594 -14.695312 15.367188 -19.019531 C 16.371094 -23.125 17.433594 -27.21875 18.550781 -31.296875 L 19.609375 -35.152344 L 23.09375 -33.195312 C 25.589844 -31.792969 27.359375 -29.421875 28.414062 -26.082031 C 29.253906 -23.410156 29.960938 -20.566406 30.53125 -17.542969 C 30.964844 -15.476562 31.441406 -13.421875 31.957031 -11.382812 C 32.425781 -9.539062 33.046875 -7.878906 33.820312 -6.40625 C 34.46875 -5.164062 35.308594 -4.191406 36.328125 -3.484375 C 37.238281 -2.855469 38.476562 -2.539062 40.046875 -2.539062 Z M 40.046875 -2.539062 "/></g></g></g><g fill="#497636" fill-opacity="1"><g transform="translate(417.749688, 337.125006)"><g><path d="M 24.476562 3.457031 C 22.492188 3.457031 20.660156 3.089844 18.988281 2.363281 C 17.195312 1.585938 15.824219 0.550781 14.882812 -0.734375 L 13.960938 -1.992188 L 14.410156 -3.484375 C 15.253906 -6.269531 15.898438 -9.300781 16.347656 -12.578125 C 16.800781 -15.878906 17.027344 -19.152344 17.027344 -22.394531 C 17.027344 -26.398438 16.660156 -30.136719 15.925781 -33.617188 C 15.238281 -36.894531 14.222656 -39.5 12.878906 -41.429688 C 12.363281 -42.171875 11.804688 -42.710938 11.207031 -43.042969 C 10.660156 -43.347656 10.03125 -43.5 9.324219 -43.5 C 8.054688 -43.5 6.488281 -42.894531 4.617188 -41.675781 L 3.257812 -40.792969 L -1.167969 -42.5625 L -1.035156 -44.808594 C -0.71875 -50.226562 0.6875 -54.550781 3.195312 -57.777344 C 5.929688 -61.304688 9.414062 -63.066406 13.652344 -63.066406 C 16.636719 -63.066406 19.355469 -62.214844 21.804688 -60.511719 C 24.046875 -58.949219 26.015625 -56.894531 27.707031 -54.34375 C 29.300781 -51.9375 30.675781 -49.242188 31.839844 -46.261719 C 32.976562 -43.34375 33.898438 -40.367188 34.597656 -37.335938 L 31.554688 -36.632812 L 28.5 -37.285156 C 29.789062 -43.308594 31.480469 -48.195312 33.574219 -51.9375 C 35.746094 -55.8125 38.132812 -58.679688 40.734375 -60.53125 C 43.496094 -62.5 46.234375 -63.484375 48.957031 -63.484375 C 52.503906 -63.484375 55.519531 -62.078125 58 -59.261719 C 60.378906 -56.5625 61.570312 -53.15625 61.570312 -49.039062 C 61.570312 -46.886719 61.1875 -44.601562 60.425781 -42.1875 L 59.277344 -38.550781 L 55.9375 -40.394531 C 54.800781 -41.023438 53.582031 -41.335938 52.285156 -41.335938 C 50.46875 -41.335938 48.613281 -40.773438 46.71875 -39.652344 C 44.679688 -38.441406 42.796875 -36.707031 41.070312 -34.445312 C 39.320312 -32.152344 37.945312 -29.433594 36.945312 -26.28125 L 33.96875 -27.226562 L 37.085938 -27.40625 C 37.257812 -24.457031 37.339844 -21.902344 37.339844 -19.730469 C 37.339844 -16.710938 37.164062 -13.867188 36.816406 -11.207031 C 36.464844 -8.550781 35.828125 -5.46875 34.90625 -1.957031 L 34.691406 -1.136719 L 34.09375 -0.539062 C 32.726562 0.828125 31.183594 1.839844 29.464844 2.5 C 27.800781 3.136719 26.140625 3.457031 24.476562 3.457031 Z M 24.476562 -2.789062 C 25.371094 -2.789062 26.289062 -2.96875 27.234375 -3.332031 C 28.121094 -3.671875 28.9375 -4.214844 29.679688 -4.957031 L 31.886719 -2.746094 L 28.867188 -3.539062 C 29.722656 -6.800781 30.308594 -9.625 30.625 -12.023438 C 30.9375 -14.414062 31.097656 -16.984375 31.097656 -19.730469 C 31.097656 -21.78125 31.015625 -24.21875 30.851562 -27.046875 L 30.820312 -27.621094 L 30.992188 -28.171875 C 32.210938 -32.011719 33.917969 -35.367188 36.109375 -38.238281 C 38.324219 -41.140625 40.796875 -43.402344 43.53125 -45.023438 C 46.410156 -46.730469 49.328125 -47.582031 52.285156 -47.582031 C 54.652344 -47.582031 56.875 -47.007812 58.957031 -45.859375 L 57.449219 -43.128906 L 54.46875 -44.066406 C 55.039062 -45.871094 55.324219 -47.527344 55.324219 -49.039062 C 55.324219 -51.582031 54.65625 -53.613281 53.316406 -55.132812 C 52.078125 -56.539062 50.625 -57.238281 48.957031 -57.238281 C 47.566406 -57.238281 46.035156 -56.640625 44.355469 -55.445312 C 42.515625 -54.136719 40.738281 -51.949219 39.023438 -48.886719 C 37.234375 -45.691406 35.761719 -41.390625 34.609375 -35.980469 L 28.511719 -35.929688 C 27.878906 -38.671875 27.050781 -41.355469 26.023438 -43.992188 C 25.023438 -46.558594 23.847656 -48.859375 22.5 -50.894531 C 21.25 -52.78125 19.828125 -54.277344 18.242188 -55.382812 C 16.863281 -56.34375 15.332031 -56.824219 13.652344 -56.824219 C 11.453125 -56.824219 9.613281 -55.867188 8.128906 -53.953125 C 6.414062 -51.742188 5.4375 -48.574219 5.199219 -44.445312 L 2.082031 -44.625 L 3.242188 -47.523438 L 4.074219 -47.191406 L 2.914062 -44.292969 L 1.210938 -46.910156 C 4.113281 -48.800781 6.820312 -49.746094 9.324219 -49.746094 C 11.113281 -49.746094 12.757812 -49.332031 14.25 -48.496094 C 15.6875 -47.695312 16.941406 -46.527344 18.007812 -44.992188 C 19.832031 -42.371094 21.175781 -39.007812 22.039062 -34.902344 C 22.859375 -31 23.269531 -26.832031 23.269531 -22.394531 C 23.269531 -18.867188 23.023438 -15.3125 22.535156 -11.730469 C 22.039062 -8.128906 21.324219 -4.777344 20.390625 -1.679688 L 17.402344 -2.582031 L 19.917969 -4.425781 C 20.195312 -4.046875 20.714844 -3.695312 21.476562 -3.363281 C 22.355469 -2.980469 23.355469 -2.789062 24.476562 -2.789062 Z M 28.972656 -60.238281 C 27.339844 -60.238281 26.046875 -60.75 25.097656 -61.78125 C 24.210938 -62.742188 23.769531 -63.878906 23.769531 -65.191406 C 23.769531 -65.863281 23.851562 -66.441406 24.011719 -66.925781 L 24.363281 -67.980469 L 25.300781 -68.574219 C 26.25 -69.179688 27.273438 -70.136719 28.371094 -71.445312 C 29.5 -72.789062 30.425781 -74.226562 31.140625 -75.757812 C 31.722656 -76.992188 31.964844 -78.011719 31.867188 -78.804688 L 31.457031 -82.238281 L 34.914062 -82.300781 C 38.832031 -82.367188 41.796875 -81.667969 43.804688 -80.199219 C 46.101562 -78.523438 47.25 -76.40625 47.25 -73.847656 C 47.25 -71.75 46.460938 -69.683594 44.890625 -67.652344 C 43.488281 -65.839844 41.574219 -64.261719 39.144531 -62.917969 C 36.730469 -61.578125 33.875 -60.722656 30.582031 -60.339844 L 30.222656 -63.441406 L 30.980469 -60.414062 C 30.507812 -60.296875 30.046875 -60.238281 29.597656 -60.238281 Z M 28.972656 -66.480469 L 29.597656 -66.480469 C 29.535156 -66.480469 29.492188 -66.476562 29.464844 -66.472656 L 29.664062 -66.519531 L 29.863281 -66.542969 C 32.339844 -66.828125 34.425781 -67.441406 36.121094 -68.378906 C 37.796875 -69.308594 39.074219 -70.339844 39.949219 -71.472656 C 40.652344 -72.378906 41.003906 -73.171875 41.003906 -73.847656 C 41.003906 -74.292969 40.710938 -74.726562 40.121094 -75.160156 C 39.242188 -75.800781 37.542969 -76.097656 35.023438 -76.054688 L 34.96875 -79.179688 L 38.066406 -79.550781 C 38.304688 -77.570312 37.882812 -75.421875 36.796875 -73.105469 C 35.847656 -71.085938 34.632812 -69.191406 33.15625 -67.429688 C 31.644531 -65.628906 30.144531 -64.253906 28.652344 -63.304688 L 26.976562 -65.941406 L 29.9375 -64.953125 C 29.980469 -65.078125 30.003906 -65.1875 30.015625 -65.28125 C 30.015625 -65.273438 30.015625 -65.242188 30.015625 -65.191406 C 30.015625 -65.503906 29.90625 -65.78125 29.6875 -66.019531 C 29.496094 -66.226562 29.28125 -66.367188 29.046875 -66.449219 C 28.996094 -66.464844 28.953125 -66.476562 28.914062 -66.484375 C 28.921875 -66.480469 28.941406 -66.480469 28.972656 -66.480469 Z M 28.972656 -66.480469 "/></g></g></g><g fill="#bfecac" fill-opacity="1"><g transform="translate(125.375539, 337.125006)"><g><path d="M 26.5625 0.578125 C 24.394531 0.578125 22.203125 0.328125 19.984375 -0.171875 C 17.765625 -0.671875 15.722656 -1.457031 13.859375 -2.53125 C 12.003906 -3.613281 10.503906 -5.03125 9.359375 -6.78125 C 8.222656 -8.53125 7.65625 -10.625 7.65625 -13.0625 C 7.65625 -13.34375 7.65625 -13.609375 7.65625 -13.859375 C 7.65625 -14.109375 7.6875 -14.398438 7.75 -14.734375 C 7.851562 -16.179688 8.164062 -17.890625 8.6875 -19.859375 C 9.21875 -21.828125 9.816406 -23.921875 10.484375 -26.140625 C 9.984375 -26.140625 9.5 -26.148438 9.03125 -26.171875 C 8.5625 -26.203125 8.132812 -26.21875 7.75 -26.21875 C 5.851562 -26.28125 4.429688 -26.710938 3.484375 -27.515625 C 2.546875 -28.316406 2.078125 -29.242188 2.078125 -30.296875 C 2.078125 -31.960938 2.96875 -33.351562 4.75 -34.46875 C 7.851562 -34.132812 10.546875 -33.882812 12.828125 -33.71875 C 13.648438 -36.320312 14.351562 -38.773438 14.9375 -41.078125 C 15.519531 -43.378906 15.8125 -45.171875 15.8125 -46.453125 C 15.8125 -47.785156 15.453125 -48.453125 14.734375 -48.453125 C 14.015625 -48.453125 12.929688 -47.753906 11.484375 -46.359375 C 10.046875 -44.972656 8.382812 -42.671875 6.5 -39.453125 L 6 -39.625 C 6 -44.125 7.007812 -47.96875 9.03125 -51.15625 C 11.0625 -54.34375 13.945312 -56.78125 17.6875 -58.46875 C 21.4375 -60.164062 25.863281 -61.015625 30.96875 -61.015625 C 35.738281 -61.015625 39.84375 -60.304688 43.28125 -58.890625 C 46.726562 -57.484375 49.546875 -55.554688 51.734375 -53.109375 C 53.929688 -50.671875 55.554688 -47.882812 56.609375 -44.75 C 57.660156 -41.613281 58.1875 -38.320312 58.1875 -34.875 C 58.1875 -30.71875 57.453125 -26.539062 55.984375 -22.34375 C 54.515625 -18.15625 52.40625 -14.328125 49.65625 -10.859375 C 46.90625 -7.390625 43.570312 -4.613281 39.65625 -2.53125 C 35.75 -0.457031 31.382812 0.578125 26.5625 0.578125 Z M 27.96875 -10.40625 C 30.1875 -10.40625 32.195312 -11.054688 34 -12.359375 C 35.8125 -13.660156 37.378906 -15.394531 38.703125 -17.5625 C 40.035156 -19.726562 41.0625 -22.128906 41.78125 -24.765625 C 42.507812 -27.398438 42.875 -30.050781 42.875 -32.71875 C 42.875 -35.882812 42.332031 -38.851562 41.25 -41.625 C 40.164062 -44.394531 38.429688 -46.640625 36.046875 -48.359375 C 33.660156 -50.085938 30.550781 -50.953125 26.71875 -50.953125 C 27 -49.898438 27.207031 -48.816406 27.34375 -47.703125 C 27.488281 -46.585938 27.5625 -45.445312 27.5625 -44.28125 C 27.5625 -42.5625 27.445312 -40.828125 27.21875 -39.078125 C 27 -37.335938 26.722656 -35.601562 26.390625 -33.875 C 27.335938 -33.9375 28.320312 -34.019531 29.34375 -34.125 C 30.375 -34.238281 31.472656 -34.351562 32.640625 -34.46875 C 33.242188 -34.070312 33.722656 -33.523438 34.078125 -32.828125 C 34.441406 -32.140625 34.625 -31.410156 34.625 -30.640625 C 34.625 -29.523438 34.207031 -28.492188 33.375 -27.546875 C 32.550781 -26.609375 31.164062 -26.082031 29.21875 -25.96875 C 28.382812 -25.914062 27.59375 -25.890625 26.84375 -25.890625 C 26.09375 -25.890625 25.332031 -25.890625 24.5625 -25.890625 C 24.164062 -24.003906 23.800781 -22.210938 23.46875 -20.515625 C 23.144531 -18.828125 22.984375 -17.316406 22.984375 -15.984375 C 22.984375 -14.265625 23.34375 -12.90625 24.0625 -11.90625 C 24.78125 -10.90625 26.082031 -10.40625 27.96875 -10.40625 Z M 27.96875 -10.40625 "/></g></g></g><g fill="#bfecac" fill-opacity="1"><g transform="translate(184.98257, 337.125006)"><g><path d="M 7.75 0.328125 C 6.019531 0.328125 4.488281 -0.0859375 3.15625 -0.921875 C 1.832031 -1.753906 1.171875 -3.140625 1.171875 -5.078125 C 1.171875 -8.128906 1.820312 -11.234375 3.125 -14.390625 C 4.425781 -17.554688 6.035156 -20.679688 7.953125 -23.765625 C 9.867188 -26.847656 11.78125 -29.859375 13.6875 -32.796875 C 15.601562 -35.742188 17.210938 -38.546875 18.515625 -41.203125 C 19.828125 -43.867188 20.484375 -46.34375 20.484375 -48.625 C 20.484375 -50.445312 20.035156 -51.359375 19.140625 -51.359375 C 18.535156 -51.359375 17.84375 -50.875 17.0625 -49.90625 C 16.289062 -48.9375 15.738281 -47.507812 15.40625 -45.625 L 14.484375 -45.78125 C 14.484375 -48.945312 15.234375 -51.625 16.734375 -53.8125 C 18.234375 -56.007812 20.144531 -57.660156 22.46875 -58.765625 C 24.800781 -59.878906 27.191406 -60.4375 29.640625 -60.4375 C 32.460938 -60.4375 35.109375 -59.628906 37.578125 -58.015625 C 40.054688 -56.410156 41.765625 -53.859375 42.703125 -50.359375 C 43.097656 -48.972656 43.390625 -47.421875 43.578125 -45.703125 C 43.773438 -43.984375 43.898438 -42.5 43.953125 -41.25 C 44.015625 -40 44.046875 -39.375 44.046875 -39.375 C 44.148438 -34.882812 44.242188 -31.082031 44.328125 -27.96875 C 44.410156 -24.863281 44.5625 -22.253906 44.78125 -20.140625 C 45.007812 -18.035156 45.316406 -16.257812 45.703125 -14.8125 C 46.085938 -13.425781 46.597656 -12.300781 47.234375 -11.4375 C 47.878906 -10.582031 48.703125 -10.15625 49.703125 -10.15625 C 50.640625 -10.15625 51.457031 -10.429688 52.15625 -10.984375 C 52.851562 -11.546875 53.3125 -12.078125 53.53125 -12.578125 L 54.109375 -12.15625 C 54.109375 -9.601562 53.609375 -7.378906 52.609375 -5.484375 C 51.609375 -3.597656 50.300781 -2.15625 48.6875 -1.15625 C 47.082031 -0.164062 45.394531 0.328125 43.625 0.328125 C 41.90625 0.328125 40.222656 -0.179688 38.578125 -1.203125 C 36.941406 -2.234375 35.515625 -3.828125 34.296875 -5.984375 C 33.078125 -8.148438 32.273438 -10.957031 31.890625 -14.40625 C 30.160156 -14.507812 28.476562 -14.601562 26.84375 -14.6875 C 25.207031 -14.769531 23.722656 -14.8125 22.390625 -14.8125 C 21.503906 -14.8125 20.65625 -14.796875 19.84375 -14.765625 C 19.039062 -14.742188 18.253906 -14.707031 17.484375 -14.65625 C 16.984375 -12.9375 16.578125 -11.203125 16.265625 -9.453125 C 15.960938 -7.703125 15.8125 -5.992188 15.8125 -4.328125 C 15.8125 -3.054688 14.976562 -1.960938 13.3125 -1.046875 C 11.65625 -0.128906 9.800781 0.328125 7.75 0.328125 Z M 20.234375 -22.390625 C 21.617188 -22.785156 23.085938 -23.050781 24.640625 -23.1875 C 26.191406 -23.320312 27.859375 -23.390625 29.640625 -23.390625 L 31.46875 -23.390625 C 31.351562 -27.492188 31.195312 -31.710938 31 -36.046875 C 30.8125 -40.378906 30.109375 -44.40625 28.890625 -48.125 C 28.441406 -44.125 27.328125 -39.929688 25.546875 -35.546875 C 23.773438 -31.160156 22.003906 -26.773438 20.234375 -22.390625 Z M 30.390625 -63.265625 C 27.003906 -63.265625 24.378906 -63.859375 22.515625 -65.046875 C 20.660156 -66.242188 19.523438 -67.675781 19.109375 -69.34375 C 18.691406 -71.007812 18.882812 -72.578125 19.6875 -74.046875 C 20.488281 -75.515625 21.832031 -76.53125 23.71875 -77.09375 C 24.21875 -77.195312 24.359375 -77.054688 24.140625 -76.671875 C 23.921875 -75.617188 24.335938 -74.8125 25.390625 -74.25 C 26.441406 -73.695312 27.8125 -73.363281 29.5 -73.25 C 31.195312 -73.144531 32.921875 -73.21875 34.671875 -73.46875 C 36.421875 -73.71875 37.890625 -74.144531 39.078125 -74.75 C 40.273438 -75.363281 40.875 -76.113281 40.875 -77 C 40.875 -77.332031 41.039062 -77.445312 41.375 -77.34375 C 43.3125 -76.726562 44.472656 -75.671875 44.859375 -74.171875 C 45.253906 -72.671875 44.953125 -71.070312 43.953125 -69.375 C 42.953125 -67.6875 41.300781 -66.242188 39 -65.046875 C 36.695312 -63.859375 33.828125 -63.265625 30.390625 -63.265625 Z M 30.390625 -63.265625 "/></g></g></g><g fill="#bfecac" fill-opacity="1"><g transform="translate(240.760098, 337.125006)"><g><path d="M 10.984375 0.328125 C 8.929688 0.328125 7.054688 -0.5 5.359375 -2.15625 C 3.671875 -3.820312 2.828125 -6.460938 2.828125 -10.078125 C 2.828125 -13.679688 3.171875 -17.160156 3.859375 -20.515625 C 4.554688 -23.878906 5.363281 -27.113281 6.28125 -30.21875 C 7.195312 -33.320312 8 -36.273438 8.6875 -39.078125 C 9.382812 -41.890625 9.734375 -44.539062 9.734375 -47.03125 C 8.898438 -47.363281 8.125 -47.53125 7.40625 -47.53125 C 6.40625 -47.53125 5.570312 -47.222656 4.90625 -46.609375 C 4.238281 -46.003906 3.710938 -45.175781 3.328125 -44.125 L 2.5 -44.375 C 2.550781 -48.257812 3.117188 -51.351562 4.203125 -53.65625 C 5.285156 -55.957031 6.6875 -57.609375 8.40625 -58.609375 C 10.125 -59.609375 11.898438 -60.109375 13.734375 -60.109375 C 16.515625 -60.109375 19 -59.203125 21.1875 -57.390625 C 23.375 -55.585938 25.34375 -53.132812 27.09375 -50.03125 C 28.84375 -46.925781 30.367188 -43.414062 31.671875 -39.5 C 32.984375 -35.59375 34.109375 -31.515625 35.046875 -27.265625 C 35.992188 -23.015625 36.742188 -18.835938 37.296875 -14.734375 C 37.628906 -16.953125 37.972656 -19.671875 38.328125 -22.890625 C 38.691406 -26.109375 39.007812 -29.492188 39.28125 -33.046875 C 39.5625 -36.597656 39.703125 -39.984375 39.703125 -43.203125 C 39.703125 -45.535156 39.617188 -47.660156 39.453125 -49.578125 C 39.285156 -51.492188 39.007812 -53.144531 38.625 -54.53125 L 38.625 -55.1875 C 40.070312 -56.800781 41.53125 -58.023438 43 -58.859375 C 44.46875 -59.691406 45.84375 -60.109375 47.125 -60.109375 C 49.007812 -60.109375 50.578125 -59.285156 51.828125 -57.640625 C 53.078125 -56.003906 53.703125 -53.691406 53.703125 -50.703125 C 53.703125 -48.484375 53.394531 -45.773438 52.78125 -42.578125 C 52.164062 -39.390625 51.441406 -35.988281 50.609375 -32.375 C 49.785156 -28.769531 49.050781 -25.234375 48.40625 -21.765625 C 47.769531 -18.296875 47.425781 -15.175781 47.375 -12.40625 C 47.375 -11.625 47.425781 -10.789062 47.53125 -9.90625 C 47.644531 -9.019531 48.226562 -8.578125 49.28125 -8.578125 C 49.34375 -8.347656 49.375 -8.175781 49.375 -8.0625 C 49.375 -7.957031 49.375 -7.851562 49.375 -7.75 C 49.3125 -5.632812 48.445312 -3.757812 46.78125 -2.125 C 45.113281 -0.488281 42.894531 0.328125 40.125 0.328125 C 37.957031 0.328125 36.125 -0.222656 34.625 -1.328125 C 33.132812 -2.441406 31.890625 -3.925781 30.890625 -5.78125 C 29.890625 -7.644531 29.039062 -9.753906 28.34375 -12.109375 C 27.65625 -14.472656 27.003906 -16.898438 26.390625 -19.390625 C 25.273438 -23.722656 24.117188 -27.84375 22.921875 -31.75 C 21.734375 -35.664062 20.144531 -39.265625 18.15625 -42.546875 C 18.257812 -40.316406 18.171875 -37.882812 17.890625 -35.25 C 17.617188 -32.613281 17.328125 -29.953125 17.015625 -27.265625 C 16.710938 -24.578125 16.5625 -21.984375 16.5625 -19.484375 C 16.5625 -17.265625 16.753906 -15.222656 17.140625 -13.359375 C 17.535156 -11.503906 18.234375 -9.851562 19.234375 -8.40625 C 19.234375 -5.6875 18.367188 -3.550781 16.640625 -2 C 14.921875 -0.445312 13.035156 0.328125 10.984375 0.328125 Z M 10.984375 0.328125 "/></g></g></g><g fill="#bfecac" fill-opacity="1"><g transform="translate(298.618883, 337.125006)"><g><path d="M 35.375 12.65625 C 34.988281 12.65625 34.613281 12.640625 34.25 12.609375 C 33.894531 12.585938 33.523438 12.546875 33.140625 12.484375 C 32.804688 10.097656 32.554688 7.722656 32.390625 5.359375 C 32.222656 3.003906 32.109375 0.773438 32.046875 -1.328125 C 29.390625 -0.109375 26.644531 0.5 23.8125 0.5 C 20.257812 0.5 16.914062 -0.46875 13.78125 -2.40625 C 10.644531 -4.351562 8.101562 -7.320312 6.15625 -11.3125 C 4.21875 -15.3125 3.25 -20.335938 3.25 -26.390625 C 3.25 -32.273438 4.160156 -37.351562 5.984375 -41.625 C 7.816406 -45.894531 10.203125 -49.414062 13.140625 -52.1875 C 16.085938 -54.96875 19.28125 -57.023438 22.71875 -58.359375 C 26.164062 -59.691406 29.5 -60.359375 32.71875 -60.359375 C 35.601562 -60.359375 38.238281 -59.867188 40.625 -58.890625 C 43.007812 -57.921875 44.910156 -56.5625 46.328125 -54.8125 C 47.742188 -53.070312 48.453125 -50.976562 48.453125 -48.53125 C 48.453125 -46.53125 47.894531 -44.640625 46.78125 -42.859375 C 45.675781 -41.085938 43.984375 -39.660156 41.703125 -38.578125 C 39.429688 -37.503906 36.546875 -36.96875 33.046875 -36.96875 C 33.597656 -38.570312 33.984375 -40.007812 34.203125 -41.28125 C 34.429688 -42.5625 34.546875 -43.675781 34.546875 -44.625 C 34.546875 -46.726562 34.101562 -48.15625 33.21875 -48.90625 C 32.332031 -49.65625 31.304688 -50.03125 30.140625 -50.03125 C 27.859375 -50.03125 25.800781 -49.003906 23.96875 -46.953125 C 22.144531 -44.898438 20.703125 -42.222656 19.640625 -38.921875 C 18.585938 -35.617188 18.0625 -32.082031 18.0625 -28.3125 C 18.0625 -22.925781 19.113281 -18.707031 21.21875 -15.65625 C 23.332031 -12.601562 25.972656 -11.078125 29.140625 -11.078125 C 30.359375 -11.078125 31.632812 -11.328125 32.96875 -11.828125 L 32.96875 -11.90625 C 32.96875 -16.070312 33.34375 -19.390625 34.09375 -21.859375 C 34.84375 -24.328125 35.8125 -26.085938 37 -27.140625 C 38.195312 -28.191406 39.429688 -28.71875 40.703125 -28.71875 C 42.097656 -28.71875 43.414062 -28.242188 44.65625 -27.296875 C 45.90625 -26.359375 46.945312 -25.15625 47.78125 -23.6875 C 48.613281 -22.21875 49.03125 -20.617188 49.03125 -18.890625 C 49.03125 -17.335938 48.597656 -15.769531 47.734375 -14.1875 C 46.878906 -12.613281 45.425781 -11.1875 43.375 -9.90625 C 43.257812 -9.457031 43.175781 -9.007812 43.125 -8.5625 C 43.070312 -8.125 43.046875 -7.6875 43.046875 -7.25 C 43.046875 -5.75 43.363281 -4.050781 44 -2.15625 C 44.632812 -0.269531 45.644531 2.363281 47.03125 5.75 C 46.695312 7.019531 45.929688 8.179688 44.734375 9.234375 C 43.546875 10.296875 42.132812 11.128906 40.5 11.734375 C 38.863281 12.347656 37.15625 12.65625 35.375 12.65625 Z M 35.375 12.65625 "/></g></g></g><g fill="#bfecac" fill-opacity="1"><g transform="translate(350.317166, 337.125006)"><g/></g></g><g fill="#bfecac" fill-opacity="1"><g transform="translate(365.302173, 337.125006)"><g><path d="M 40.046875 0.578125 C 37.828125 0.578125 35.992188 0.078125 34.546875 -0.921875 C 33.109375 -1.921875 31.941406 -3.265625 31.046875 -4.953125 C 30.160156 -6.648438 29.453125 -8.535156 28.921875 -10.609375 C 28.398438 -12.691406 27.914062 -14.789062 27.46875 -16.90625 C 26.914062 -19.84375 26.234375 -22.585938 25.421875 -25.140625 C 24.617188 -27.691406 23.332031 -29.46875 21.5625 -30.46875 C 20.445312 -26.414062 19.390625 -22.347656 18.390625 -18.265625 C 17.398438 -14.191406 16.90625 -10.15625 16.90625 -6.15625 C 16.90625 -5.550781 16.914062 -4.925781 16.9375 -4.28125 C 16.96875 -3.644531 17.007812 -3.023438 17.0625 -2.421875 C 15.125 -0.585938 12.878906 0.328125 10.328125 0.328125 C 8.210938 0.328125 6.304688 -0.472656 4.609375 -2.078125 C 2.921875 -3.691406 2.078125 -6.300781 2.078125 -9.90625 C 2.078125 -12.625 2.519531 -15.398438 3.40625 -18.234375 C 4.300781 -21.066406 5.34375 -23.925781 6.53125 -26.8125 C 7.726562 -29.695312 8.769531 -32.566406 9.65625 -35.421875 C 10.539062 -38.273438 10.984375 -41.09375 10.984375 -43.875 C 10.984375 -45.707031 10.757812 -47 10.3125 -47.75 C 9.875 -48.5 9.296875 -48.875 8.578125 -48.875 C 7.796875 -48.875 6.945312 -48.484375 6.03125 -47.703125 C 5.113281 -46.921875 4.238281 -45.726562 3.40625 -44.125 L 2.828125 -44.28125 C 2.941406 -47.113281 3.582031 -49.722656 4.75 -52.109375 C 5.914062 -54.492188 7.484375 -56.394531 9.453125 -57.8125 C 11.421875 -59.226562 13.570312 -59.9375 15.90625 -59.9375 C 18.226562 -59.9375 20.273438 -59.0625 22.046875 -57.3125 C 23.828125 -55.5625 24.71875 -52.550781 24.71875 -48.28125 C 24.71875 -46.394531 24.535156 -44.382812 24.171875 -42.25 C 23.816406 -40.113281 23.390625 -37.9375 22.890625 -35.71875 C 25.390625 -37.882812 27.566406 -40.285156 29.421875 -42.921875 C 31.285156 -45.554688 32.726562 -48.132812 33.75 -50.65625 C 34.78125 -53.1875 35.296875 -55.394531 35.296875 -57.28125 C 35.296875 -58.5 35.046875 -59.523438 34.546875 -60.359375 C 37.265625 -60.359375 39.691406 -59.96875 41.828125 -59.1875 C 43.960938 -58.414062 45.671875 -57.347656 46.953125 -55.984375 C 48.234375 -54.628906 48.875 -53.0625 48.875 -51.28125 C 48.875 -48.894531 47.523438 -46.285156 44.828125 -43.453125 C 42.140625 -40.617188 37.601562 -37.816406 31.21875 -35.046875 C 32.832031 -34.328125 34.148438 -33.257812 35.171875 -31.84375 C 36.203125 -30.425781 37.0625 -28.898438 37.75 -27.265625 C 38.445312 -25.628906 39.046875 -24.035156 39.546875 -22.484375 C 40.484375 -19.753906 41.410156 -17.460938 42.328125 -15.609375 C 43.242188 -13.753906 44.5625 -12.828125 46.28125 -12.828125 C 47.394531 -12.828125 48.378906 -13.1875 49.234375 -13.90625 C 50.097656 -14.625 50.722656 -15.425781 51.109375 -16.3125 L 51.609375 -16.0625 C 51.609375 -13.070312 51.164062 -10.3125 50.28125 -7.78125 C 49.394531 -5.257812 48.09375 -3.234375 46.375 -1.703125 C 44.65625 -0.179688 42.546875 0.578125 40.046875 0.578125 Z M 40.046875 0.578125 "/></g></g></g><g fill="#bfecac" fill-opacity="1"><g transform="translate(417.749688, 337.125006)"><g><path d="M 24.46875 0.328125 C 22.914062 0.328125 21.5 0.0507812 20.21875 -0.5 C 18.945312 -1.050781 18.007812 -1.742188 17.40625 -2.578125 C 18.289062 -5.523438 18.96875 -8.71875 19.4375 -12.15625 C 19.90625 -15.59375 20.140625 -19.003906 20.140625 -22.390625 C 20.140625 -26.609375 19.75 -30.5625 18.96875 -34.25 C 18.195312 -37.945312 17.019531 -40.929688 15.4375 -43.203125 C 13.851562 -45.484375 11.816406 -46.625 9.328125 -46.625 C 7.441406 -46.625 5.300781 -45.84375 2.90625 -44.28125 L 2.078125 -44.625 C 2.359375 -49.394531 3.550781 -53.140625 5.65625 -55.859375 C 7.769531 -58.578125 10.4375 -59.9375 13.65625 -59.9375 C 15.988281 -59.9375 18.109375 -59.269531 20.015625 -57.9375 C 21.929688 -56.601562 23.625 -54.828125 25.09375 -52.609375 C 26.570312 -50.390625 27.847656 -47.890625 28.921875 -45.109375 C 30.003906 -42.335938 30.878906 -39.507812 31.546875 -36.625 C 32.773438 -42.34375 34.359375 -46.9375 36.296875 -50.40625 C 38.234375 -53.875 40.3125 -56.398438 42.53125 -57.984375 C 44.757812 -59.566406 46.898438 -60.359375 48.953125 -60.359375 C 51.554688 -60.359375 53.785156 -59.300781 55.640625 -57.1875 C 57.503906 -55.082031 58.4375 -52.363281 58.4375 -49.03125 C 58.4375 -47.195312 58.101562 -45.226562 57.4375 -43.125 C 55.832031 -44.007812 54.113281 -44.453125 52.28125 -44.453125 C 49.894531 -44.453125 47.507812 -43.742188 45.125 -42.328125 C 42.738281 -40.910156 40.554688 -38.910156 38.578125 -36.328125 C 36.609375 -33.753906 35.070312 -30.71875 33.96875 -27.21875 C 34.132812 -24.332031 34.21875 -21.835938 34.21875 -19.734375 C 34.21875 -16.847656 34.050781 -14.140625 33.71875 -11.609375 C 33.382812 -9.085938 32.773438 -6.132812 31.890625 -2.75 C 30.828125 -1.695312 29.644531 -0.921875 28.34375 -0.421875 C 27.039062 0.078125 25.75 0.328125 24.46875 0.328125 Z M 28.96875 -63.359375 C 28.25 -63.359375 27.722656 -63.535156 27.390625 -63.890625 C 27.054688 -64.253906 26.890625 -64.6875 26.890625 -65.1875 C 26.890625 -65.519531 26.921875 -65.769531 26.984375 -65.9375 C 28.203125 -66.707031 29.460938 -67.867188 30.765625 -69.421875 C 32.066406 -70.984375 33.132812 -72.648438 33.96875 -74.421875 C 34.800781 -76.203125 35.132812 -77.785156 34.96875 -79.171875 C 38.1875 -79.222656 40.515625 -78.722656 41.953125 -77.671875 C 43.398438 -76.617188 44.125 -75.34375 44.125 -73.84375 C 44.125 -72.457031 43.554688 -71.023438 42.421875 -69.546875 C 41.285156 -68.078125 39.6875 -66.773438 37.625 -65.640625 C 35.570312 -64.503906 33.101562 -63.769531 30.21875 -63.4375 C 30 -63.382812 29.789062 -63.359375 29.59375 -63.359375 C 29.40625 -63.359375 29.195312 -63.359375 28.96875 -63.359375 Z M 28.96875 -63.359375 "/></g></g></g></svg>