<svg xmlns="http://www.w3.org/2000/svg" xmlns:xlink="http://www.w3.org/1999/xlink" width="800" zoomAndPan="magnify" viewBox="0 0 600 599.999999" height="800" preserveAspectRatio="xMidYMid meet" version="1.0"><defs><g/><clipPath id="2ce4136291"><path d="M 0.519531 136 L 582.519531 136 L 582.519531 562 L 0.519531 562 Z M 0.519531 136 " clip-rule="nonzero"/></clipPath><clipPath id="f3885917b8"><rect x="0" width="583" y="0" height="426"/></clipPath><clipPath id="db600f8245"><path d="M 415 32 L 442.542969 32 L 442.542969 56 L 415 56 Z M 415 32 " clip-rule="nonzero"/></clipPath><clipPath id="a99b7471d3"><path d="M 322 0.625 L 346 0.625 L 346 28 L 322 28 Z M 322 0.625 " clip-rule="nonzero"/></clipPath><clipPath id="3088ab20d4"><path d="M 274.335938 58 L 292 58 L 292 88 L 274.335938 88 Z M 274.335938 58 " clip-rule="nonzero"/></clipPath><clipPath id="f92cd3bddf"><path d="M 444.78125 0.625 L 563 0.625 L 563 157.804688 L 444.78125 157.804688 Z M 444.78125 0.625 " clip-rule="nonzero"/></clipPath><clipPath id="6421e18b41"><path d="M 90 84 L 111 84 L 111 157.804688 L 90 157.804688 Z M 90 84 " clip-rule="nonzero"/></clipPath><clipPath id="dc15dc8e65"><path d="M 17 29 L 44 29 L 44 157.804688 L 17 157.804688 Z M 17 29 " clip-rule="nonzero"/></clipPath><clipPath id="967251d266"><path d="M 0.78125 49 L 1 49 L 1 157.804688 L 0.78125 157.804688 Z M 0.78125 49 " clip-rule="nonzero"/></clipPath><clipPath id="eda90894c2"><path d="M 0.78125 10 L 28 10 L 28 33 L 0.78125 33 Z M 0.78125 10 " clip-rule="nonzero"/></clipPath><clipPath id="69d7d68089"><path d="M 47 0.625 L 71 0.625 L 71 28 L 47 28 Z M 47 0.625 " clip-rule="nonzero"/></clipPath><clipPath id="af448d14ec"><path d="M 101 58 L 118.363281 58 L 118.363281 88 L 101 88 Z M 101 58 " clip-rule="nonzero"/></clipPath><clipPath id="ab3cc927f9"><rect x="0" width="119" y="0" height="158"/></clipPath><clipPath id="b5b960c7a5"><rect x="0" width="583" y="0" height="562"/></clipPath></defs><g transform="matrix(1, 0, 0, 1, 5, 38)"><g clip-path="url(#b5b960c7a5)"><g clip-path="url(#2ce4136291)"><g transform="matrix(1, 0, 0, 1, 0, 136)"><g clip-path="url(#f3885917b8)"><g fill="#2e6417" fill-opacity="1"><g transform="translate(17.309892, 314.208351)"><g><path d="M 145.015625 30.515625 C 130.078125 30.515625 117.265625 29.578125 106.578125 27.703125 C 95.898438 25.835938 86.765625 22.910156 79.171875 18.921875 C 71.703125 14.929688 65.582031 9.8125 60.8125 3.5625 C 56.050781 -2.675781 52.320312 -10.109375 49.625 -18.734375 C 46.789062 -27.484375 44.757812 -37.457031 43.53125 -48.65625 C 42.3125 -59.851562 41.445312 -72.46875 40.9375 -86.5 L 40.9375 -86.125 C 40.8125 -88.175781 40.710938 -90.394531 40.640625 -92.78125 C 40.578125 -95.164062 40.546875 -97.644531 40.546875 -100.21875 L 40.546875 -116.046875 C 40.546875 -119.773438 40.546875 -123.28125 40.546875 -126.5625 C 40.546875 -129.851562 40.546875 -132.914062 40.546875 -135.75 C 40.546875 -138.570312 40.546875 -141.300781 40.546875 -143.9375 C 40.546875 -146.582031 40.613281 -149.191406 40.75 -151.765625 C 40.875 -154.335938 40.9375 -156.941406 40.9375 -159.578125 C 40.9375 -162.222656 41 -164.898438 41.125 -167.609375 L 41.703125 -185.75 L -9.265625 -181.703125 L -16.21875 -289.640625 C -1.800781 -292.472656 13.0625 -295.015625 28.375 -297.265625 C 43.695312 -299.515625 59.148438 -301.476562 74.734375 -303.15625 C 90.171875 -304.695312 105.515625 -305.882812 120.765625 -306.71875 C 136.023438 -307.5625 150.738281 -307.984375 164.90625 -307.984375 C 168.25 -307.984375 171.429688 -307.984375 174.453125 -307.984375 C 177.484375 -307.984375 180.285156 -308.046875 182.859375 -308.171875 C 188.140625 -308.171875 193.160156 -308.140625 197.921875 -308.078125 C 202.679688 -308.015625 207.378906 -307.851562 212.015625 -307.59375 C 214.328125 -307.46875 216.738281 -307.242188 219.25 -306.921875 C 221.757812 -306.597656 224.429688 -306.304688 227.265625 -306.046875 L 227.078125 -306.046875 C 235.316406 -305.148438 242.585938 -302.898438 248.890625 -299.296875 C 255.203125 -295.691406 260.484375 -291.054688 264.734375 -285.390625 C 268.984375 -279.859375 272.203125 -273.421875 274.390625 -266.078125 C 276.578125 -258.742188 277.671875 -251.019531 277.671875 -242.90625 C 277.671875 -239.175781 277.28125 -235.125 276.5 -230.75 C 275.726562 -226.375 274.441406 -221.929688 272.640625 -217.421875 C 270.835938 -212.910156 268.457031 -208.597656 265.5 -204.484375 C 262.539062 -200.367188 258.804688 -196.765625 254.296875 -193.671875 C 249.796875 -190.453125 244.488281 -187.941406 238.375 -186.140625 C 232.257812 -184.335938 225.144531 -183.5 217.03125 -183.625 L 213.5625 -183.625 C 212.269531 -183.625 210.976562 -183.65625 209.6875 -183.71875 C 208.40625 -183.789062 207.25 -183.890625 206.21875 -184.015625 C 205.707031 -184.140625 205.222656 -184.203125 204.765625 -184.203125 C 204.316406 -184.203125 203.96875 -184.269531 203.71875 -184.40625 C 203.71875 -172.039062 203.8125 -158.9375 204 -145.09375 C 204.195312 -131.257812 204.679688 -117.265625 205.453125 -103.109375 C 206.222656 -89.078125 207.316406 -75.109375 208.734375 -61.203125 C 210.148438 -47.304688 212.015625 -34.242188 214.328125 -22.015625 C 215.492188 -15.960938 215.238281 -10.488281 213.5625 -5.59375 C 211.882812 -0.707031 209.179688 3.664062 205.453125 7.53125 C 201.847656 11.394531 197.46875 14.773438 192.3125 17.671875 C 187.164062 20.566406 181.828125 22.976562 176.296875 24.90625 C 170.753906 26.84375 165.25 28.257812 159.78125 29.15625 C 154.3125 30.0625 149.390625 30.515625 145.015625 30.515625 Z M 145.015625 3.46875 C 150.421875 3.46875 155.664062 2.820312 160.75 1.53125 C 165.832031 0.25 170.367188 -1.414062 174.359375 -3.46875 C 178.347656 -5.40625 181.566406 -7.53125 184.015625 -9.84375 C 186.460938 -12.164062 187.6875 -14.351562 187.6875 -16.40625 L 187.6875 -17.1875 C 185.363281 -30.570312 183.460938 -44.859375 181.984375 -60.046875 C 180.503906 -75.242188 179.378906 -90.4375 178.609375 -105.625 C 177.835938 -120.9375 177.289062 -135.929688 176.96875 -150.609375 C 176.644531 -165.285156 176.484375 -178.929688 176.484375 -191.546875 L 176.484375 -213.75 C 178.671875 -213.625 180.664062 -213.523438 182.46875 -213.453125 C 184.269531 -213.390625 185.878906 -213.359375 187.296875 -213.359375 L 195.015625 -213.359375 C 197.210938 -213.359375 199.367188 -213.296875 201.484375 -213.171875 C 203.609375 -213.046875 206.21875 -212.789062 209.3125 -212.40625 C 212.269531 -212.019531 214.84375 -211.828125 217.03125 -211.828125 C 223.207031 -211.828125 228.421875 -212.882812 232.671875 -215 C 236.921875 -217.125 240.398438 -219.734375 243.109375 -222.828125 C 245.679688 -225.921875 247.578125 -229.269531 248.796875 -232.875 C 250.023438 -236.476562 250.640625 -239.820312 250.640625 -242.90625 C 250.640625 -252.4375 248.382812 -260.613281 243.875 -267.4375 C 239.375 -274.257812 232.8125 -278.1875 224.1875 -279.21875 C 218.90625 -279.851562 214.109375 -280.300781 209.796875 -280.5625 C 205.484375 -280.820312 201.070312 -281.015625 196.5625 -281.140625 L 182.28125 -281.140625 C 179.832031 -281.015625 177.160156 -280.953125 174.265625 -280.953125 C 171.367188 -280.953125 168.25 -280.953125 164.90625 -280.953125 C 151.644531 -280.953125 138.285156 -280.660156 124.828125 -280.078125 C 111.378906 -279.503906 98.15625 -278.632812 85.15625 -277.46875 C 58.507812 -275.15625 34.304688 -271.9375 12.546875 -267.8125 L 14.28125 -239.625 C 14.539062 -235.125 14.800781 -230.488281 15.0625 -225.71875 C 15.320312 -220.957031 15.578125 -216.066406 15.828125 -211.046875 L 29.921875 -212.203125 C 32.117188 -212.335938 34.34375 -212.5 36.59375 -212.6875 C 38.84375 -212.882812 41.0625 -213.046875 43.25 -213.171875 C 51.75 -213.816406 60.566406 -214.203125 69.703125 -214.328125 C 69.441406 -207.378906 69.210938 -199.816406 69.015625 -191.640625 C 68.828125 -183.460938 68.609375 -175 68.359375 -166.25 C 68.222656 -157.625 68.054688 -148.9375 67.859375 -140.1875 C 67.671875 -131.4375 67.578125 -123.132812 67.578125 -115.28125 C 67.578125 -100.863281 67.769531 -87.925781 68.15625 -76.46875 C 68.539062 -65.007812 69.570312 -54.90625 71.25 -46.15625 C 72.925781 -37.269531 75.40625 -29.703125 78.6875 -23.453125 C 81.96875 -17.210938 86.503906 -12.097656 92.296875 -8.109375 C 103.367188 -0.390625 120.941406 3.46875 145.015625 3.46875 Z M 145.015625 3.46875 "/></g></g></g><g fill="#4ca626" fill-opacity="1"><g transform="translate(286.671504, 314.208351)"><g><path d="M 190.390625 24.71875 L 103.296875 22.984375 L 103.6875 22.984375 C 89.269531 22.984375 76.6875 22.082031 65.9375 20.28125 C 55.1875 18.476562 46.015625 15.644531 38.421875 11.78125 C 30.703125 7.914062 24.425781 2.957031 19.59375 -3.09375 C 14.769531 -9.144531 10.878906 -16.285156 7.921875 -24.515625 C 5.085938 -32.890625 3.085938 -42.445312 1.921875 -53.1875 C 0.765625 -63.9375 0.1875 -76.070312 0.1875 -89.59375 L 0.1875 -95.578125 L 2.125 -208.15625 C -1.601562 -207.894531 -4.945312 -207.734375 -7.90625 -207.671875 C -10.875 -207.609375 -12.9375 -207.578125 -14.09375 -207.578125 L -11.390625 -302.96875 L 20.078125 -303.546875 C 24.328125 -303.546875 28.703125 -303.578125 33.203125 -303.640625 C 37.710938 -303.703125 42.09375 -303.796875 46.34375 -303.921875 C 50.59375 -304.054688 54.550781 -304.15625 58.21875 -304.21875 C 61.882812 -304.28125 65.070312 -304.3125 67.78125 -304.3125 C 90.820312 -304.570312 113.410156 -304.957031 135.546875 -305.46875 C 144.941406 -305.726562 154.753906 -306.019531 164.984375 -306.34375 C 175.222656 -306.664062 185.300781 -307.082031 195.21875 -307.59375 C 205.125 -307.976562 214.742188 -308.492188 224.078125 -309.140625 C 233.410156 -309.785156 241.941406 -310.492188 249.671875 -311.265625 C 253.785156 -311.648438 258.414062 -310.265625 263.5625 -307.109375 C 268.71875 -303.953125 273.613281 -299.609375 278.25 -294.078125 C 282.75 -288.546875 286.539062 -282.175781 289.625 -274.96875 C 292.71875 -267.757812 294.265625 -260.226562 294.265625 -252.375 C 294.265625 -227.914062 290.851562 -209.441406 284.03125 -196.953125 C 280.5625 -190.648438 276.125 -185.46875 270.71875 -181.40625 C 265.3125 -177.351562 258.875 -174.296875 251.40625 -172.234375 C 253.46875 -168.378906 255.109375 -164.328125 256.328125 -160.078125 C 257.554688 -155.828125 258.171875 -151.515625 258.171875 -147.140625 C 258.171875 -140.441406 257.878906 -134.421875 257.296875 -129.078125 C 256.710938 -123.734375 255.90625 -118.875 254.875 -114.5 C 258.875 -112.570312 262.800781 -109.835938 266.65625 -106.296875 C 270.519531 -102.753906 274 -98.601562 277.09375 -93.84375 C 280.175781 -89.082031 282.679688 -83.835938 284.609375 -78.109375 C 286.546875 -72.378906 287.515625 -66.425781 287.515625 -60.25 C 287.515625 -42.613281 285.835938 -28.257812 282.484375 -17.1875 C 279.140625 -6.113281 273.800781 2.507812 266.46875 8.6875 C 259.132812 14.863281 249.671875 19.078125 238.078125 21.328125 C 226.492188 23.585938 212.53125 24.71875 196.1875 24.71875 Z M 196.1875 -2.3125 C 207.769531 -2.3125 217.613281 -3.082031 225.71875 -4.625 C 233.832031 -6.175781 240.460938 -9.078125 245.609375 -13.328125 C 250.765625 -17.578125 254.53125 -23.460938 256.90625 -30.984375 C 259.289062 -38.515625 260.484375 -48.269531 260.484375 -60.25 C 260.484375 -64.238281 259.96875 -68.066406 258.9375 -71.734375 C 257.90625 -75.398438 256.679688 -78.648438 255.265625 -81.484375 C 253.722656 -84.316406 252.082031 -86.535156 250.34375 -88.140625 C 248.601562 -89.753906 246.960938 -90.5625 245.421875 -90.5625 L 245.03125 -90.5625 C 236.28125 -89.789062 227.332031 -89.144531 218.1875 -88.625 C 209.050781 -88.113281 199.914062 -87.726562 190.78125 -87.46875 C 181.769531 -87.082031 172.953125 -86.789062 164.328125 -86.59375 C 155.703125 -86.40625 147.71875 -86.3125 140.375 -86.3125 L 139.796875 -107.171875 L 184.59375 -106.78125 C 192.957031 -106.78125 200.097656 -107.195312 206.015625 -108.03125 C 211.941406 -108.875 216.773438 -110.707031 220.515625 -113.53125 C 224.242188 -116.238281 226.941406 -120.265625 228.609375 -125.609375 C 230.285156 -130.953125 231.125 -138.128906 231.125 -147.140625 C 231.125 -150.222656 230.738281 -153.273438 229.96875 -156.296875 C 229.195312 -159.328125 228.296875 -162.066406 227.265625 -164.515625 C 226.109375 -166.828125 224.882812 -168.722656 223.59375 -170.203125 C 222.3125 -171.691406 221.15625 -172.5 220.125 -172.625 C 214.84375 -172.238281 209.046875 -171.851562 202.734375 -171.46875 C 196.429688 -171.082031 189.742188 -170.757812 182.671875 -170.5 C 175.585938 -170.238281 168.3125 -170.007812 160.84375 -169.8125 C 153.375 -169.625 145.972656 -169.46875 138.640625 -169.34375 C 138.515625 -171.65625 138.453125 -173.9375 138.453125 -176.1875 C 138.453125 -178.445312 138.453125 -180.671875 138.453125 -182.859375 L 138.453125 -195.609375 L 204.296875 -194.4375 C 215.617188 -194.4375 225.269531 -195.207031 233.25 -196.75 C 241.238281 -198.300781 247.742188 -201.203125 252.765625 -205.453125 C 257.773438 -209.703125 261.4375 -215.59375 263.75 -223.125 C 266.070312 -230.65625 267.234375 -240.40625 267.234375 -252.375 C 267.234375 -256.363281 266.71875 -260.285156 265.6875 -264.140625 C 264.664062 -268.003906 263.378906 -271.421875 261.828125 -274.390625 C 260.285156 -277.347656 258.644531 -279.726562 256.90625 -281.53125 C 255.164062 -283.332031 253.585938 -284.296875 252.171875 -284.421875 C 243.421875 -283.648438 233.570312 -282.941406 222.625 -282.296875 C 211.6875 -281.648438 200.296875 -281.070312 188.453125 -280.5625 C 176.742188 -280.050781 165 -279.597656 153.21875 -279.203125 C 141.4375 -278.816406 130.59375 -278.5 120.6875 -278.25 C 110.644531 -277.988281 101.859375 -277.757812 94.328125 -277.5625 C 86.796875 -277.375 81.359375 -277.28125 78.015625 -277.28125 L 70.484375 -277.28125 C 69.066406 -277.28125 67.550781 -277.28125 65.9375 -277.28125 C 64.332031 -277.28125 62.691406 -277.28125 61.015625 -277.28125 C 57.671875 -277.15625 54.226562 -277.054688 50.6875 -276.984375 C 47.144531 -276.921875 43.632812 -276.890625 40.15625 -276.890625 C 36.164062 -276.765625 32.078125 -276.703125 27.890625 -276.703125 C 23.710938 -276.703125 19.4375 -276.640625 15.0625 -276.515625 L 13.515625 -235.578125 L 29.546875 -235.578125 L 27.21875 -89.59375 C 27.21875 -74.144531 28.21875 -61.015625 30.21875 -50.203125 C 32.21875 -39.390625 36.113281 -30.570312 41.90625 -23.75 C 47.695312 -16.800781 55.835938 -11.75 66.328125 -8.59375 C 76.816406 -5.4375 90.554688 -3.859375 107.546875 -3.859375 Z M 196.1875 -2.3125 "/></g></g></g></g></g></g><path fill="#74cc00" d="M 187.289062 98.582031 C 164.699219 116.679688 133.324219 103.238281 133.324219 103.238281 C 133.324219 103.238281 132.078125 113.402344 132.339844 118.386719 C 132.601562 123.367188 133.996094 146.203125 133.996094 146.203125 C 128.980469 144.101562 122.390625 146.203125 122.390625 146.203125 C 121.210938 137.414062 123.308594 102.398438 123.308594 102.398438 L 123.285156 102.410156 C 93.917969 116.820312 67.304688 104.886719 54.914062 83.644531 C 42.523438 62.402344 48.292969 30.925781 79.636719 24.761719 C 105.214844 19.734375 120.796875 45.277344 125.660156 54.839844 C 126.753906 56.992188 127.304688 58.335938 127.304688 58.335938 C 128.886719 53.652344 132.714844 44.410156 141.648438 36.417969 C 145.957031 32.566406 156.046875 23.539062 170.796875 24.125 C 171.949219 24.171875 187.210938 25.164062 196.898438 36.65625 C 211.804688 54.339844 203.84375 85.320312 187.289062 98.582031 Z M 187.289062 98.582031 " fill-opacity="1" fill-rule="nonzero"/><path fill="#9aba6e" d="M 127.308594 95.417969 L 125.632812 97.714844 C 123.773438 91.957031 121.640625 82.847656 122.386719 71.679688 C 122.777344 65.929688 123.867188 60.316406 125.660156 54.839844 C 126.753906 56.996094 127.304688 58.335938 127.304688 58.335938 C 127.304688 58.335938 122.289062 75.515625 127.308594 95.417969 Z M 127.308594 95.417969 " fill-opacity="1" fill-rule="nonzero"/><path fill="#2e6417" d="M 142.058594 157.21875 C 125.339844 159.777344 110.519531 156.726562 105.109375 156.039062 C 99.699219 155.351562 101.40625 152.890625 105.570312 148.859375 C 109.734375 144.824219 113.734375 145.578125 113.734375 145.578125 L 113.746094 145.570312 C 116.832031 143.117188 122.074219 141.355469 122.074219 141.355469 C 122.589844 141.269531 123.089844 141.195312 123.578125 141.132812 C 127.25 140.65625 130.226562 140.785156 132.613281 141.230469 C 138.882812 142.386719 141.074219 145.679688 141.074219 145.679688 C 141.421875 145.652344 141.761719 145.640625 142.089844 145.644531 C 148.46875 145.683594 151.433594 150.769531 152.617188 153.515625 C 153.863281 156.398438 142.058594 157.21875 142.058594 157.21875 Z M 142.058594 157.21875 " fill-opacity="1" fill-rule="nonzero"/><path fill="#2e6417" d="M 122.878906 146.0625 C 117.78125 146.855469 113.652344 152.480469 113.652344 152.480469 C 113.519531 149.925781 117.882812 147.238281 117.882812 147.238281 C 116.53125 146.070312 114.050781 145.621094 113.75 145.570312 C 116.832031 143.117188 122.078125 141.355469 122.078125 141.355469 C 122.589844 141.269531 123.089844 141.195312 123.578125 141.132812 C 124.230469 142.796875 122.878906 146.0625 122.878906 146.0625 Z M 122.878906 146.0625 " fill-opacity="1" fill-rule="nonzero"/><path fill="#2e6417" d="M 142.574219 152.480469 C 142.574219 152.480469 138.445312 146.855469 133.34375 146.0625 C 133.34375 146.0625 132.046875 142.917969 132.613281 141.226562 C 138.882812 142.386719 141.078125 145.679688 141.078125 145.679688 C 141.421875 145.652344 141.761719 145.640625 142.089844 145.644531 C 141.269531 145.816406 139.441406 146.289062 138.34375 147.234375 C 138.347656 147.234375 142.707031 149.925781 142.574219 152.480469 Z M 142.574219 152.480469 " fill-opacity="1" fill-rule="nonzero"/><path fill="#c0db97" d="M 133.40625 100.957031 C 133.335938 101.714844 133.308594 102.476562 133.324219 103.238281 C 133.324219 103.238281 132.078125 113.402344 132.339844 118.382812 C 132.601562 123.367188 133.996094 146.203125 133.996094 146.203125 C 128.980469 144.101562 122.390625 146.203125 122.390625 146.203125 C 121.210938 137.414062 123.308594 102.398438 123.308594 102.398438 L 123.285156 102.410156 C 123.285156 102.402344 123.289062 102.390625 123.289062 102.382812 C 125.390625 89.238281 84.605469 61.992188 84.605469 61.992188 C 116.601562 71.171875 127.292969 95.433594 127.292969 95.433594 C 136.644531 72.898438 171.382812 62.046875 171.550781 61.992188 C 152.128906 74.75 139.589844 86.410156 136.964844 90.8125 C 133.851562 96.023438 133.40625 100.957031 133.40625 100.957031 Z M 133.40625 100.957031 " fill-opacity="1" fill-rule="nonzero"/><path fill="#4ca626" d="M 290.605469 84.800781 C 289.964844 84.800781 289.347656 85.152344 289.039062 85.765625 C 285.878906 92.023438 283.796875 97.230469 282.796875 101.394531 C 281.710938 105.78125 281.5 110.601562 282.164062 115.863281 C 282.652344 119.996094 283.9375 124.1875 286.019531 128.445312 C 287.421875 131.566406 290.789062 137.007812 296.117188 144.769531 C 296.785156 145.886719 297.3125 146.933594 297.691406 147.910156 C 297.699219 147.929688 297.710938 147.953125 297.71875 147.972656 C 298.699219 150.230469 299.078125 153.554688 298.851562 157.945312 C 298.800781 158.910156 299.546875 159.738281 300.515625 159.785156 C 300.546875 159.789062 300.574219 159.789062 300.605469 159.789062 C 301.535156 159.789062 302.308594 159.0625 302.355469 158.125 C 302.609375 153.207031 302.140625 149.367188 300.953125 146.609375 C 300.496094 145.441406 299.875 144.210938 299.097656 142.914062 C 299.078125 142.886719 299.058594 142.855469 299.039062 142.828125 C 293.796875 135.191406 290.519531 129.910156 289.207031 126.980469 C 289.199219 126.960938 289.191406 126.945312 289.183594 126.925781 C 287.265625 123.015625 286.089844 119.1875 285.648438 115.445312 C 285.648438 115.4375 285.648438 115.433594 285.648438 115.429688 C 285.035156 110.59375 285.21875 106.195312 286.207031 102.230469 L 286.207031 102.21875 C 287.144531 98.320312 289.132812 93.363281 292.171875 87.347656 C 292.609375 86.480469 292.261719 85.425781 291.398438 84.988281 C 291.144531 84.859375 290.875 84.800781 290.605469 84.800781 Z M 290.605469 84.800781 " fill-opacity="1" fill-rule="nonzero"/><path fill="#4ca626" d="M 310.847656 77.667969 C 310.90625 77.824219 310.941406 77.96875 310.949219 78.101562 C 310.933594 77.957031 310.898438 77.808594 310.847656 77.667969 Z M 324.597656 24.066406 C 324.484375 24.066406 324.367188 24.078125 324.253906 24.101562 C 323.304688 24.289062 322.6875 25.210938 322.875 26.164062 C 323.75 30.570312 322.992188 37.933594 320.605469 48.25 C 319.636719 52.027344 318.464844 55.417969 317.09375 58.417969 C 311.027344 69.664062 307.832031 76.078125 307.5 77.65625 C 307.46875 77.792969 307.453125 77.921875 307.445312 78.046875 L 307.441406 78.046875 C 305.957031 82.992188 305.230469 88.65625 305.265625 95.039062 C 305.265625 95.050781 305.265625 95.066406 305.265625 95.082031 C 305.476562 102.085938 307.414062 111.195312 311.082031 122.417969 C 311.089844 122.4375 311.09375 122.453125 311.101562 122.472656 C 312.027344 125.027344 313.011719 127.34375 314.050781 129.429688 C 314.058594 129.449219 314.070312 129.46875 314.082031 129.488281 C 320.457031 141.121094 323.902344 147.75 324.421875 149.378906 C 324.660156 150.121094 325.351562 150.597656 326.09375 150.597656 C 326.273438 150.597656 326.453125 150.570312 326.628906 150.511719 C 327.550781 150.21875 328.0625 149.230469 327.765625 148.308594 C 327.175781 146.46875 323.648438 139.644531 317.179688 127.839844 C 316.207031 125.890625 315.285156 123.714844 314.414062 121.3125 C 310.859375 110.433594 308.980469 101.667969 308.777344 95.007812 C 308.742188 88.867188 309.445312 83.464844 310.882812 78.804688 C 310.933594 78.628906 310.960938 78.449219 310.960938 78.269531 C 311.363281 76.800781 314.445312 70.71875 320.210938 60.03125 C 320.230469 59.996094 320.246094 59.964844 320.261719 59.929688 C 321.734375 56.714844 322.988281 53.101562 324.011719 49.082031 C 324.015625 49.070312 324.019531 49.058594 324.023438 49.046875 C 326.527344 38.234375 327.289062 30.378906 326.316406 25.480469 C 326.152344 24.644531 325.417969 24.066406 324.597656 24.066406 Z M 324.597656 24.066406 " fill-opacity="1" fill-rule="nonzero"/><path fill="#4ca626" d="M 368.050781 29.675781 C 367.207031 29.675781 366.464844 30.285156 366.324219 31.144531 C 365.417969 36.613281 365.230469 41.246094 365.761719 45.042969 C 365.792969 46.761719 367.425781 54.882812 370.660156 69.402344 C 371.121094 71.984375 371.464844 74.792969 371.691406 77.828125 C 371.691406 77.851562 371.695312 77.875 371.699219 77.898438 C 372.277344 83.003906 372.082031 89.597656 371.113281 97.675781 C 370.136719 104.839844 368.257812 112.136719 365.476562 119.570312 L 365.476562 119.574219 C 364.644531 121.8125 363.476562 124.628906 361.964844 128.03125 C 355.738281 141.332031 351.671875 150.230469 349.769531 154.730469 C 349.394531 155.621094 349.8125 156.652344 350.703125 157.027344 C 350.925781 157.125 351.160156 157.167969 351.386719 157.167969 C 352.070312 157.167969 352.71875 156.765625 353.003906 156.097656 C 354.890625 151.636719 358.941406 142.765625 365.160156 129.484375 C 365.164062 129.476562 365.167969 129.464844 365.175781 129.453125 C 366.710938 125.988281 367.90625 123.105469 368.765625 120.800781 C 371.640625 113.113281 373.585938 105.554688 374.59375 98.121094 C 374.59375 98.113281 374.59375 98.101562 374.597656 98.09375 C 375.597656 89.773438 375.792969 82.929688 375.191406 77.558594 C 374.953125 74.386719 374.589844 71.441406 374.105469 68.726562 C 374.101562 68.703125 374.09375 68.679688 374.089844 68.652344 C 370.878906 54.238281 369.269531 46.363281 369.269531 45.027344 C 369.277344 44.910156 369.273438 44.789062 369.253906 44.671875 C 368.753906 41.210938 368.929688 36.894531 369.785156 31.714844 C 369.941406 30.761719 369.296875 29.855469 368.339844 29.699219 C 368.242188 29.683594 368.148438 29.675781 368.050781 29.675781 Z M 368.050781 29.675781 " fill-opacity="1" fill-rule="nonzero"/><path fill="#4ca626" d="M 419.582031 49.601562 C 418.894531 49.601562 418.242188 50.007812 417.960938 50.683594 C 415.726562 56.0625 414.246094 59.296875 413.515625 60.394531 C 413.433594 60.519531 413.363281 60.65625 413.316406 60.800781 C 412.832031 61.855469 409.210938 67.175781 402.457031 76.757812 C 402.441406 76.78125 402.429688 76.800781 402.414062 76.820312 C 401.230469 78.664062 400.136719 80.648438 399.136719 82.777344 C 399.132812 82.789062 399.128906 82.796875 399.125 82.808594 C 396.53125 88.628906 394.527344 95.867188 393.121094 104.519531 L 393.121094 104.53125 C 392.011719 111.59375 391.859375 118.507812 392.660156 125.28125 L 392.660156 125.296875 C 393.515625 132.117188 395.65625 141.277344 399.089844 152.78125 L 399.085938 152.78125 C 399.464844 154.464844 399.695312 156.140625 399.777344 157.800781 C 399.824219 158.742188 400.601562 159.472656 401.527344 159.472656 C 401.558594 159.472656 401.585938 159.46875 401.617188 159.46875 C 402.585938 159.421875 403.332031 158.597656 403.28125 157.628906 C 403.191406 155.738281 402.925781 153.839844 402.492188 151.929688 C 402.484375 151.894531 402.476562 151.855469 402.464844 151.816406 C 399.082031 140.488281 396.976562 131.507812 396.144531 124.871094 C 395.382812 118.421875 395.53125 111.824219 396.585938 105.085938 C 397.941406 96.746094 399.851562 89.808594 402.316406 84.269531 C 403.238281 82.300781 404.246094 80.46875 405.332031 78.769531 C 412.273438 68.925781 416.007812 63.394531 416.542969 62.175781 C 417.417969 60.78125 418.972656 57.398438 421.203125 52.03125 C 421.574219 51.136719 421.152344 50.109375 420.257812 49.734375 C 420.035156 49.644531 419.808594 49.601562 419.582031 49.601562 Z M 419.582031 49.601562 " fill-opacity="1" fill-rule="nonzero"/><g clip-path="url(#db600f8245)"><path fill="#8ab354" d="M 438.355469 32.714844 L 437.726562 32.746094 C 436.964844 32.8125 436.15625 33.003906 435.300781 33.316406 C 433.773438 33.945312 432.632812 34.523438 431.875 35.054688 C 428.183594 37.617188 425.023438 40.445312 422.390625 43.539062 C 419.796875 46.542969 417.652344 49.988281 415.957031 53.882812 L 416 54.191406 L 418.277344 55.085938 L 418.847656 55.253906 C 421.691406 54.824219 424.238281 54.277344 426.492188 53.609375 C 428.96875 52.824219 430.699219 52.15625 431.679688 51.605469 C 434.859375 49.875 437.8125 47.449219 440.542969 44.324219 C 442.777344 41.621094 443.792969 39.050781 443.59375 36.617188 L 443.433594 35.855469 C 443.292969 35.375 443.082031 34.949219 442.796875 34.578125 C 442.515625 34.210938 442.164062 33.894531 441.738281 33.632812 C 440.894531 33.109375 439.765625 32.804688 438.355469 32.714844 Z M 438.355469 32.714844 " fill-opacity="1" fill-rule="nonzero"/></g><path fill="#689f4f" d="M 407.722656 25.195312 L 407.648438 25.199219 C 406.027344 25.480469 405.15625 25.730469 405.027344 25.949219 C 404.414062 26.285156 403.902344 26.96875 403.492188 28.003906 C 403.113281 29.125 402.96875 30.488281 403.058594 32.09375 C 403.175781 33.890625 403.480469 35.378906 403.960938 36.566406 C 404.570312 38.269531 405.257812 39.863281 406.027344 41.34375 L 409.234375 47.269531 C 409.578125 47.851562 410 48.492188 410.496094 49.1875 C 412.285156 51.3125 413.714844 52.753906 414.777344 53.507812 C 415.273438 53.875 415.589844 54.066406 415.722656 54.082031 L 418.09375 55.011719 L 417.996094 54.867188 C 418.160156 54.878906 418.410156 54.835938 418.746094 54.738281 C 419.054688 54.242188 419.28125 53.761719 419.417969 53.292969 C 419.742188 52.40625 419.917969 50.925781 419.949219 48.847656 C 419.984375 47.523438 419.816406 45.402344 419.4375 42.484375 C 419.316406 41.4375 418.949219 39.996094 418.34375 38.152344 C 417.019531 34.90625 416.117188 32.886719 415.628906 32.085938 C 414.953125 30.8125 414.316406 29.816406 413.714844 29.09375 C 412.324219 27.484375 411.308594 26.488281 410.660156 26.105469 C 409.902344 25.574219 408.921875 25.269531 407.722656 25.195312 Z M 407.722656 25.195312 " fill-opacity="1" fill-rule="nonzero"/><path fill="#fefefe" d="M 438.160156 37.714844 L 438.152344 37.722656 C 435.761719 40.402344 433.515625 42.605469 431.410156 44.332031 C 428.367188 46.800781 425.507812 48.816406 422.839844 50.375 C 426.289062 48.628906 429.101562 46.855469 431.273438 45.046875 C 433.832031 42.964844 436.128906 40.519531 438.160156 37.714844 " fill-opacity="1" fill-rule="nonzero"/><path fill="#fefefe" d="M 407.6875 30.039062 L 407.6875 30.042969 C 407.941406 32.199219 408.371094 33.96875 408.972656 35.347656 C 409.304688 36.101562 409.535156 36.589844 409.671875 36.8125 C 410.628906 38.4375 411.601562 40.027344 412.597656 41.570312 C 412.789062 41.882812 412.925781 42.125 413.003906 42.289062 C 413.539062 43.339844 413.914062 44.15625 414.121094 44.734375 C 414.296875 45.164062 414.652344 46.230469 415.179688 47.9375 C 414.976562 46.277344 414.4375 44.398438 413.570312 42.296875 C 413.351562 41.769531 412.9375 40.960938 412.332031 39.878906 C 412.257812 39.699219 411.539062 38.515625 410.175781 36.332031 C 409.894531 35.859375 409.601562 35.308594 409.292969 34.683594 C 408.980469 34.128906 408.445312 32.578125 407.6875 30.039062 " fill-opacity="1" fill-rule="nonzero"/><path fill="#8ab354" d="M 387.617188 10.421875 L 386.984375 10.449219 C 386.226562 10.519531 385.417969 10.707031 384.5625 11.019531 C 383.035156 11.648438 381.890625 12.226562 381.136719 12.757812 C 377.445312 15.320312 374.28125 18.152344 371.648438 21.242188 C 369.054688 24.246094 366.910156 27.691406 365.21875 31.585938 L 365.257812 31.894531 L 367.535156 32.789062 L 368.109375 32.957031 C 370.953125 32.527344 373.5 31.980469 375.75 31.3125 C 378.226562 30.527344 379.957031 29.859375 380.941406 29.308594 C 384.117188 27.578125 387.074219 25.152344 389.804688 22.03125 C 392.035156 19.324219 393.054688 16.753906 392.855469 14.324219 L 392.695312 13.5625 C 392.550781 13.082031 392.339844 12.65625 392.058594 12.285156 C 391.777344 11.914062 391.421875 11.597656 391 11.335938 C 390.152344 10.8125 389.027344 10.507812 387.617188 10.421875 Z M 387.617188 10.421875 " fill-opacity="1" fill-rule="nonzero"/><path fill="#689f4f" d="M 356.980469 2.898438 L 356.90625 2.902344 C 355.289062 3.1875 354.414062 3.4375 354.285156 3.652344 C 353.671875 3.988281 353.164062 4.671875 352.753906 5.710938 C 352.375 6.828125 352.230469 8.191406 352.320312 9.800781 C 352.4375 11.59375 352.738281 13.082031 353.222656 14.269531 C 353.828125 15.972656 354.515625 17.566406 355.285156 19.046875 L 358.492188 24.976562 C 358.839844 25.554688 359.261719 26.195312 359.753906 26.890625 C 361.546875 29.015625 362.972656 30.457031 364.039062 31.210938 C 364.53125 31.578125 364.847656 31.769531 364.980469 31.785156 L 367.351562 32.714844 L 367.257812 32.574219 C 367.417969 32.585938 367.667969 32.539062 368.003906 32.441406 C 368.316406 31.945312 368.539062 31.464844 368.679688 30.996094 C 369 30.109375 369.175781 28.628906 369.210938 26.550781 C 369.246094 25.226562 369.074219 23.105469 368.695312 20.1875 C 368.574219 19.144531 368.210938 17.699219 367.605469 15.855469 C 366.28125 12.609375 365.375 10.589844 364.890625 9.789062 C 364.210938 8.515625 363.574219 7.519531 362.972656 6.796875 C 361.585938 5.1875 360.566406 4.191406 359.921875 3.808594 C 359.160156 3.277344 358.183594 2.976562 356.980469 2.898438 Z M 356.980469 2.898438 " fill-opacity="1" fill-rule="nonzero"/><path fill="#fefefe" d="M 387.421875 15.417969 L 387.414062 15.425781 C 385.019531 18.105469 382.773438 20.3125 380.671875 22.039062 C 377.625 24.503906 374.769531 26.519531 372.101562 28.078125 C 375.550781 26.332031 378.359375 24.558594 380.53125 22.75 C 383.089844 20.667969 385.386719 18.222656 387.421875 15.417969 " fill-opacity="1" fill-rule="nonzero"/><path fill="#fefefe" d="M 356.949219 7.742188 L 356.949219 7.746094 C 357.199219 9.902344 357.628906 11.671875 358.234375 13.050781 C 358.5625 13.804688 358.796875 14.292969 358.933594 14.515625 C 359.886719 16.144531 360.863281 17.730469 361.855469 19.273438 C 362.046875 19.585938 362.183594 19.828125 362.265625 19.992188 C 362.800781 21.046875 363.171875 21.863281 363.382812 22.441406 C 363.558594 22.867188 363.910156 23.933594 364.441406 25.640625 C 364.234375 23.980469 363.695312 22.101562 362.828125 20 C 362.609375 19.472656 362.195312 18.664062 361.59375 17.582031 C 361.515625 17.402344 360.796875 16.21875 359.4375 14.035156 C 359.152344 13.5625 358.859375 13.011719 358.554688 12.386719 C 358.238281 11.832031 357.703125 10.28125 356.949219 7.742188 " fill-opacity="1" fill-rule="nonzero"/><g clip-path="url(#a99b7471d3)"><path fill="#8ab354" d="M 338.695312 0.839844 L 338.09375 1.03125 C 337.378906 1.292969 336.644531 1.6875 335.902344 2.207031 C 334.585938 3.210938 333.632812 4.066406 333.039062 4.773438 C 330.140625 8.207031 327.816406 11.757812 326.074219 15.425781 C 324.34375 18.996094 323.167969 22.882812 322.539062 27.082031 L 322.65625 27.367188 L 325.089844 27.640625 L 325.683594 27.65625 C 328.320312 26.507812 330.640625 25.320312 332.640625 24.089844 C 334.832031 22.691406 336.328125 21.597656 337.136719 20.8125 C 339.757812 18.320312 341.984375 15.210938 343.8125 11.488281 C 345.269531 8.292969 345.585938 5.550781 344.765625 3.253906 L 344.414062 2.558594 C 344.152344 2.132812 343.835938 1.773438 343.46875 1.488281 C 343.101562 1.203125 342.675781 0.988281 342.199219 0.847656 C 341.246094 0.558594 340.078125 0.558594 338.695312 0.839844 Z M 338.695312 0.839844 " fill-opacity="1" fill-rule="nonzero"/></g><path fill="#689f4f" d="M 307.15625 1.5 L 307.085938 1.527344 C 305.597656 2.21875 304.816406 2.6875 304.75 2.929688 C 304.246094 3.410156 303.929688 4.203125 303.800781 5.3125 C 303.722656 6.492188 303.9375 7.84375 304.441406 9.375 C 305.019531 11.078125 305.695312 12.4375 306.46875 13.457031 C 307.496094 14.949219 308.574219 16.308594 309.699219 17.539062 L 314.332031 22.433594 C 314.816406 22.90625 315.386719 23.414062 316.046875 23.960938 C 318.328125 25.550781 320.078125 26.570312 321.300781 27.023438 C 321.875 27.25 322.230469 27.355469 322.363281 27.335938 L 324.894531 27.621094 L 324.761719 27.507812 C 324.921875 27.476562 325.152344 27.367188 325.453125 27.1875 C 325.621094 26.628906 325.714844 26.101562 325.730469 25.613281 C 325.808594 24.675781 325.597656 23.199219 325.089844 21.183594 C 324.78125 19.898438 324.070312 17.890625 322.949219 15.167969 C 322.558594 14.191406 321.835938 12.890625 320.773438 11.265625 C 318.652344 8.476562 317.257812 6.757812 316.578125 6.113281 C 315.597656 5.058594 314.722656 4.261719 313.957031 3.71875 C 312.195312 2.523438 310.957031 1.824219 310.234375 1.621094 C 309.363281 1.304688 308.335938 1.265625 307.15625 1.5 Z M 307.15625 1.5 " fill-opacity="1" fill-rule="nonzero"/><path fill="#fefefe" d="M 339.800781 5.714844 L 339.792969 5.726562 C 338.179688 8.933594 336.578125 11.644531 334.992188 13.859375 C 332.691406 17.03125 330.453125 19.714844 328.277344 21.910156 C 331.160156 19.332031 333.414062 16.890625 335.042969 14.582031 C 336.976562 11.910156 338.5625 8.953125 339.800781 5.714844 " fill-opacity="1" fill-rule="nonzero"/><path fill="#fefefe" d="M 308.378906 6.191406 L 308.378906 6.195312 C 309.183594 8.210938 310.054688 9.808594 310.996094 10.984375 C 311.507812 11.628906 311.859375 12.039062 312.050781 12.21875 C 313.394531 13.542969 314.746094 14.824219 316.105469 16.058594 C 316.371094 16.3125 316.5625 16.507812 316.6875 16.644531 C 317.476562 17.523438 318.046875 18.21875 318.398438 18.722656 C 318.679688 19.089844 319.296875 20.027344 320.25 21.539062 C 319.621094 19.988281 318.613281 18.3125 317.234375 16.507812 C 316.882812 16.054688 316.277344 15.382812 315.410156 14.492188 C 315.292969 14.339844 314.292969 13.382812 312.414062 11.625 C 312.015625 11.242188 311.589844 10.785156 311.132812 10.261719 C 310.683594 9.804688 309.765625 8.449219 308.378906 6.191406 " fill-opacity="1" fill-rule="nonzero"/><path fill="#8ab354" d="M 309.703125 65.707031 L 309.074219 65.734375 C 308.3125 65.804688 307.503906 65.992188 306.648438 66.304688 C 305.121094 66.933594 303.980469 67.511719 303.222656 68.042969 C 299.53125 70.609375 296.371094 73.4375 293.738281 76.527344 C 291.144531 79.53125 289 82.976562 287.304688 86.871094 L 287.347656 87.179688 L 289.625 88.074219 L 290.195312 88.242188 C 293.039062 87.8125 295.585938 87.265625 297.839844 86.597656 C 300.316406 85.8125 302.046875 85.144531 303.027344 84.59375 C 306.207031 82.863281 309.160156 80.4375 311.890625 77.316406 C 314.125 74.609375 315.140625 72.039062 314.941406 69.609375 L 314.78125 68.847656 C 314.640625 68.367188 314.429688 67.941406 314.144531 67.570312 C 313.863281 67.199219 313.511719 66.882812 313.085938 66.621094 C 312.242188 66.097656 311.113281 65.792969 309.703125 65.707031 Z M 309.703125 65.707031 " fill-opacity="1" fill-rule="nonzero"/><g clip-path="url(#3088ab20d4)"><path fill="#689f4f" d="M 279.070312 58.183594 L 278.996094 58.1875 C 277.375 58.472656 276.503906 58.722656 276.375 58.9375 C 275.761719 59.273438 275.25 59.957031 274.839844 60.996094 C 274.460938 62.113281 274.316406 63.476562 274.40625 65.085938 C 274.523438 66.878906 274.824219 68.371094 275.308594 69.554688 C 275.917969 71.261719 276.605469 72.851562 277.375 74.332031 L 280.582031 80.261719 C 280.925781 80.839844 281.347656 81.480469 281.84375 82.175781 C 283.632812 84.300781 285.0625 85.742188 286.125 86.496094 C 286.621094 86.863281 286.9375 87.054688 287.070312 87.070312 L 289.441406 88 L 289.34375 87.859375 C 289.507812 87.871094 289.757812 87.828125 290.09375 87.726562 C 290.402344 87.230469 290.625 86.75 290.765625 86.28125 C 291.089844 85.394531 291.265625 83.914062 291.296875 81.835938 C 291.332031 80.511719 291.164062 78.390625 290.785156 75.472656 C 290.664062 74.429688 290.296875 72.984375 289.691406 71.140625 C 288.367188 67.894531 287.464844 65.875 286.976562 65.074219 C 286.300781 63.800781 285.664062 62.804688 285.0625 62.082031 C 283.671875 60.472656 282.65625 59.476562 282.007812 59.09375 C 281.25 58.566406 280.269531 58.261719 279.070312 58.183594 Z M 279.070312 58.183594 " fill-opacity="1" fill-rule="nonzero"/></g><path fill="#fefefe" d="M 309.507812 70.703125 L 309.5 70.710938 C 307.109375 73.390625 304.863281 75.597656 302.757812 77.324219 C 299.714844 79.789062 296.855469 81.804688 294.1875 83.363281 C 297.636719 81.617188 300.449219 79.84375 302.621094 78.035156 C 305.179688 75.953125 307.476562 73.507812 309.507812 70.703125 " fill-opacity="1" fill-rule="nonzero"/><path fill="#fefefe" d="M 279.035156 63.027344 L 279.035156 63.03125 C 279.289062 65.1875 279.71875 66.957031 280.320312 68.335938 C 280.648438 69.09375 280.882812 69.578125 281.019531 69.800781 C 281.976562 71.429688 282.949219 73.015625 283.945312 74.558594 C 284.136719 74.875 284.273438 75.113281 284.351562 75.277344 C 284.886719 76.332031 285.261719 77.148438 285.46875 77.726562 C 285.644531 78.152344 286 79.21875 286.527344 80.925781 C 286.324219 79.265625 285.785156 77.386719 284.917969 75.285156 C 284.699219 74.757812 284.285156 73.949219 283.679688 72.867188 C 283.605469 72.6875 282.886719 71.503906 281.523438 69.320312 C 281.242188 68.847656 280.949219 68.300781 280.640625 67.671875 C 280.328125 67.117188 279.792969 65.566406 279.035156 63.027344 " fill-opacity="1" fill-rule="nonzero"/><g clip-path="url(#f92cd3bddf)"><g transform="matrix(1, 0, 0, 1, 444, -0.000000000000035527)"><g clip-path="url(#ab3cc927f9)"><g clip-path="url(#6421e18b41)"><path fill="#4ca626" d="M 102.09375 84.800781 C 102.734375 84.800781 103.351562 85.152344 103.660156 85.765625 C 106.820312 92.023438 108.902344 97.230469 109.902344 101.394531 C 110.992188 105.78125 111.203125 110.601562 110.535156 115.863281 C 110.050781 119.996094 108.765625 124.1875 106.683594 128.445312 C 105.277344 131.566406 101.910156 137.007812 96.582031 144.769531 C 95.914062 145.886719 95.390625 146.933594 95.007812 147.910156 C 95 147.929688 94.992188 147.953125 94.980469 147.972656 C 94 150.230469 93.621094 153.554688 93.847656 157.945312 C 93.898438 158.910156 93.152344 159.738281 92.1875 159.785156 C 92.15625 159.789062 92.125 159.789062 92.09375 159.789062 C 91.167969 159.789062 90.390625 159.0625 90.34375 158.125 C 90.089844 153.207031 90.558594 149.367188 91.75 146.609375 C 92.207031 145.441406 92.824219 144.210938 93.601562 142.914062 C 93.621094 142.886719 93.640625 142.855469 93.660156 142.828125 C 98.902344 135.191406 102.179688 129.910156 103.492188 126.980469 C 103.5 126.960938 103.507812 126.945312 103.519531 126.925781 C 105.433594 123.015625 106.613281 119.1875 107.050781 115.445312 C 107.050781 115.4375 107.054688 115.433594 107.054688 115.429688 C 107.667969 110.59375 107.480469 106.195312 106.496094 102.230469 L 106.492188 102.21875 C 105.554688 98.320312 103.566406 93.363281 100.527344 87.347656 C 100.089844 86.480469 100.4375 85.425781 101.304688 84.988281 C 101.558594 84.859375 101.828125 84.800781 102.09375 84.800781 Z M 102.09375 84.800781 " fill-opacity="1" fill-rule="nonzero"/></g><path fill="#4ca626" d="M 81.851562 77.667969 C 81.792969 77.824219 81.757812 77.96875 81.75 78.101562 C 81.765625 77.957031 81.800781 77.808594 81.851562 77.667969 Z M 68.101562 24.066406 C 68.214844 24.066406 68.332031 24.078125 68.445312 24.101562 C 69.398438 24.289062 70.015625 25.210938 69.824219 26.164062 C 68.949219 30.570312 69.707031 37.933594 72.097656 48.25 C 73.0625 52.027344 74.234375 55.417969 75.605469 58.417969 C 81.671875 69.664062 84.871094 76.078125 85.203125 77.65625 C 85.230469 77.792969 85.25 77.921875 85.257812 78.046875 C 86.742188 82.992188 87.46875 88.65625 87.433594 95.039062 C 87.433594 95.050781 87.433594 95.066406 87.433594 95.082031 C 87.222656 102.085938 85.285156 111.195312 81.617188 122.417969 C 81.613281 122.4375 81.605469 122.453125 81.597656 122.472656 C 80.671875 125.027344 79.691406 127.34375 78.652344 129.429688 C 78.640625 129.449219 78.628906 129.46875 78.621094 129.488281 C 72.246094 141.121094 68.796875 147.75 68.277344 149.378906 C 68.039062 150.121094 67.347656 150.597656 66.605469 150.597656 C 66.429688 150.597656 66.25 150.570312 66.070312 150.511719 C 65.148438 150.21875 64.640625 149.230469 64.933594 148.308594 C 65.523438 146.46875 69.050781 139.644531 75.523438 127.839844 C 76.492188 125.890625 77.414062 123.714844 78.285156 121.3125 L 78.289062 121.3125 C 81.839844 110.433594 83.71875 101.667969 83.925781 95.007812 C 83.957031 88.867188 83.257812 83.464844 81.820312 78.804688 C 81.765625 78.628906 81.738281 78.449219 81.742188 78.269531 C 81.339844 76.800781 78.253906 70.71875 72.488281 60.03125 C 72.46875 59.996094 72.453125 59.964844 72.4375 59.929688 C 70.964844 56.714844 69.714844 53.101562 68.6875 49.082031 C 68.683594 49.070312 68.679688 49.058594 68.679688 49.046875 C 66.175781 38.234375 65.410156 30.378906 66.382812 25.480469 C 66.550781 24.644531 67.28125 24.066406 68.101562 24.066406 Z M 68.101562 24.066406 " fill-opacity="1" fill-rule="nonzero"/><g clip-path="url(#dc15dc8e65)"><path fill="#4ca626" d="M 24.648438 29.675781 C 25.492188 29.675781 26.234375 30.285156 26.378906 31.144531 C 27.28125 36.613281 27.46875 41.246094 26.9375 45.042969 C 26.910156 46.761719 25.277344 54.882812 22.039062 69.402344 C 21.582031 71.984375 21.238281 74.792969 21.007812 77.828125 C 21.007812 77.851562 21.003906 77.875 21.003906 77.898438 C 20.421875 83.003906 20.617188 89.597656 21.589844 97.675781 C 22.5625 104.839844 24.441406 112.136719 27.222656 119.570312 L 27.222656 119.574219 C 28.054688 121.8125 29.226562 124.628906 30.734375 128.03125 C 36.960938 141.332031 41.027344 150.230469 42.929688 154.730469 C 43.304688 155.621094 42.890625 156.652344 41.996094 157.027344 C 41.773438 157.125 41.542969 157.167969 41.3125 157.167969 C 40.628906 157.167969 39.980469 156.765625 39.695312 156.097656 C 37.808594 151.636719 33.757812 142.765625 27.542969 129.484375 C 27.535156 129.476562 27.53125 129.464844 27.527344 129.453125 C 25.988281 125.988281 24.792969 123.105469 23.9375 120.800781 C 21.058594 113.113281 19.117188 105.554688 18.109375 98.121094 C 18.105469 98.113281 18.105469 98.101562 18.105469 98.09375 C 17.105469 89.773438 16.90625 82.929688 17.507812 77.558594 L 17.511719 77.558594 C 17.75 74.386719 18.109375 71.441406 18.597656 68.726562 C 18.601562 68.703125 18.605469 68.679688 18.609375 68.652344 C 21.824219 54.238281 23.429688 46.363281 23.429688 45.027344 C 23.421875 44.910156 23.429688 44.789062 23.445312 44.671875 C 23.949219 41.210938 23.769531 36.894531 22.914062 31.714844 C 22.757812 30.761719 23.40625 29.855469 24.359375 29.699219 C 24.457031 29.683594 24.554688 29.675781 24.648438 29.675781 Z M 24.648438 29.675781 " fill-opacity="1" fill-rule="nonzero"/></g><g clip-path="url(#967251d266)"><path fill="#4ca626" d="M -26.882812 49.601562 C -26.195312 49.601562 -25.542969 50.007812 -25.261719 50.683594 C -23.027344 56.0625 -21.542969 59.296875 -20.816406 60.394531 C -20.730469 60.519531 -20.664062 60.65625 -20.617188 60.800781 L -20.613281 60.800781 C -20.128906 61.855469 -16.511719 67.175781 -9.757812 76.757812 C -9.742188 76.78125 -9.726562 76.800781 -9.714844 76.820312 C -8.527344 78.664062 -7.4375 80.648438 -6.4375 82.777344 C -6.433594 82.789062 -6.429688 82.796875 -6.421875 82.808594 C -3.828125 88.628906 -1.828125 95.867188 -0.421875 104.519531 L -0.421875 104.53125 C 0.6875 111.59375 0.839844 118.507812 0.0429688 125.28125 L 0.0390625 125.296875 C -0.816406 132.117188 -2.957031 141.277344 -6.386719 152.78125 C -6.765625 154.464844 -6.996094 156.140625 -7.078125 157.800781 C -7.125 158.742188 -7.898438 159.472656 -8.828125 159.472656 C -8.859375 159.472656 -8.886719 159.46875 -8.917969 159.46875 C -9.882812 159.421875 -10.628906 158.597656 -10.582031 157.628906 C -10.488281 155.738281 -10.226562 153.839844 -9.792969 151.929688 C -9.785156 151.894531 -9.773438 151.855469 -9.761719 151.816406 C -6.382812 140.488281 -4.277344 131.507812 -3.441406 124.871094 C -2.683594 118.421875 -2.828125 111.824219 -3.886719 105.085938 C -5.242188 96.746094 -7.152344 89.808594 -9.613281 84.269531 C -10.539062 82.300781 -11.542969 80.46875 -12.632812 78.769531 C -19.570312 68.925781 -23.308594 63.394531 -23.84375 62.175781 C -24.71875 60.78125 -26.269531 57.398438 -28.503906 52.03125 C -28.875 51.136719 -28.449219 50.109375 -27.554688 49.734375 C -27.335938 49.644531 -27.105469 49.601562 -26.882812 49.601562 Z M -26.882812 49.601562 " fill-opacity="1" fill-rule="nonzero"/></g><g clip-path="url(#eda90894c2)"><path fill="#8ab354" d="M 5.082031 10.421875 L 5.714844 10.449219 C 6.476562 10.519531 7.285156 10.707031 8.136719 11.019531 C 9.667969 11.648438 10.808594 12.226562 11.566406 12.757812 C 15.257812 15.320312 18.417969 18.152344 21.050781 21.242188 C 23.644531 24.246094 25.789062 27.691406 27.480469 31.585938 L 27.441406 31.894531 L 25.164062 32.789062 L 24.59375 32.957031 C 21.75 32.527344 19.203125 31.980469 16.949219 31.3125 C 14.472656 30.527344 12.742188 29.859375 11.761719 29.308594 C 8.582031 27.578125 5.628906 25.152344 2.898438 22.03125 C 0.664062 19.324219 -0.351562 16.753906 -0.152344 14.324219 L 0.0078125 13.5625 C 0.148438 13.082031 0.359375 12.65625 0.640625 12.285156 C 0.925781 11.914062 1.277344 11.597656 1.699219 11.335938 C 2.546875 10.8125 3.675781 10.507812 5.082031 10.421875 Z M 5.082031 10.421875 " fill-opacity="1" fill-rule="nonzero"/></g><path fill="#689f4f" d="M 35.71875 2.898438 L 35.792969 2.902344 C 37.414062 3.1875 38.285156 3.4375 38.414062 3.652344 C 39.027344 3.988281 39.539062 4.671875 39.949219 5.710938 C 40.328125 6.828125 40.472656 8.191406 40.382812 9.800781 C 40.261719 11.59375 39.960938 13.082031 39.480469 14.269531 C 38.871094 15.972656 38.183594 17.566406 37.414062 19.046875 L 34.207031 24.976562 C 33.859375 25.554688 33.441406 26.195312 32.945312 26.890625 C 31.15625 29.015625 29.726562 30.457031 28.664062 31.210938 C 28.167969 31.578125 27.851562 31.769531 27.71875 31.785156 L 25.347656 32.714844 L 25.445312 32.574219 C 25.28125 32.585938 25.03125 32.539062 24.695312 32.441406 C 24.386719 31.945312 24.160156 31.464844 24.023438 30.996094 C 23.699219 30.109375 23.523438 28.628906 23.492188 26.550781 C 23.457031 25.226562 23.625 23.105469 24.003906 20.1875 C 24.125 19.144531 24.488281 17.699219 25.09375 15.855469 C 26.421875 12.609375 27.324219 10.589844 27.8125 9.789062 C 28.488281 8.515625 29.125 7.519531 29.726562 6.796875 C 31.117188 5.1875 32.132812 4.191406 32.78125 3.808594 C 33.539062 3.277344 34.519531 2.976562 35.71875 2.898438 Z M 35.71875 2.898438 " fill-opacity="1" fill-rule="nonzero"/><path fill="#fefefe" d="M 5.28125 15.417969 L 5.289062 15.425781 C 7.679688 18.105469 9.925781 20.3125 12.03125 22.039062 C 15.074219 24.503906 17.929688 26.519531 20.601562 28.078125 C 17.148438 26.332031 14.339844 24.558594 12.167969 22.75 C 9.609375 20.667969 7.3125 18.222656 5.28125 15.417969 " fill-opacity="1" fill-rule="nonzero"/><path fill="#fefefe" d="M 35.753906 7.742188 L 35.753906 7.746094 C 35.5 9.902344 35.070312 11.671875 34.46875 13.050781 C 34.136719 13.804688 33.90625 14.292969 33.769531 14.515625 C 32.8125 16.144531 31.835938 17.730469 30.84375 19.273438 C 30.652344 19.585938 30.515625 19.828125 30.433594 19.992188 C 29.902344 21.046875 29.527344 21.863281 29.316406 22.441406 C 29.144531 22.867188 28.789062 23.933594 28.257812 25.640625 C 28.464844 23.980469 29.003906 22.101562 29.871094 20 C 30.089844 19.472656 30.503906 18.664062 31.109375 17.582031 C 31.183594 17.402344 31.902344 16.21875 33.261719 14.035156 C 33.546875 13.5625 33.839844 13.011719 34.144531 12.386719 C 34.460938 11.832031 34.996094 10.28125 35.753906 7.742188 " fill-opacity="1" fill-rule="nonzero"/><g clip-path="url(#69d7d68089)"><path fill="#8ab354" d="M 54.003906 0.839844 L 54.605469 1.03125 C 55.324219 1.292969 56.054688 1.6875 56.800781 2.207031 C 58.113281 3.210938 59.066406 4.066406 59.660156 4.773438 C 62.5625 8.207031 64.882812 11.757812 66.625 15.425781 C 68.355469 18.996094 69.535156 22.882812 70.160156 27.082031 L 70.042969 27.367188 L 67.609375 27.640625 L 67.015625 27.65625 C 64.378906 26.507812 62.0625 25.320312 60.058594 24.089844 C 57.871094 22.691406 56.371094 21.597656 55.566406 20.8125 C 52.941406 18.320312 50.714844 15.210938 48.886719 11.488281 C 47.429688 8.292969 47.113281 5.550781 47.9375 3.253906 L 48.289062 2.558594 C 48.546875 2.132812 48.863281 1.773438 49.230469 1.488281 C 49.601562 1.203125 50.023438 0.988281 50.5 0.847656 C 51.453125 0.558594 52.621094 0.558594 54.003906 0.839844 Z M 54.003906 0.839844 " fill-opacity="1" fill-rule="nonzero"/></g><path fill="#689f4f" d="M 85.542969 1.5 L 85.613281 1.527344 C 87.105469 2.21875 87.882812 2.6875 87.949219 2.929688 C 88.457031 3.410156 88.773438 4.203125 88.898438 5.3125 C 88.976562 6.492188 88.765625 7.84375 88.261719 9.375 C 87.679688 11.078125 87.003906 12.4375 86.230469 13.457031 C 85.203125 14.949219 84.125 16.308594 83 17.539062 L 78.367188 22.433594 C 77.882812 22.90625 77.3125 23.414062 76.652344 23.960938 C 74.375 25.550781 72.625 26.570312 71.398438 27.023438 C 70.824219 27.25 70.472656 27.355469 70.335938 27.335938 L 67.808594 27.621094 L 67.9375 27.507812 C 67.777344 27.476562 67.546875 27.367188 67.246094 27.1875 C 67.078125 26.628906 66.984375 26.101562 66.972656 25.613281 C 66.890625 24.675781 67.101562 23.199219 67.609375 21.183594 C 67.917969 19.898438 68.632812 17.890625 69.75 15.167969 C 70.140625 14.191406 70.867188 12.890625 71.925781 11.265625 C 74.046875 8.476562 75.445312 6.757812 76.121094 6.113281 C 77.101562 5.058594 77.976562 4.261719 78.746094 3.71875 C 80.503906 2.523438 81.746094 1.824219 82.46875 1.621094 C 83.339844 1.304688 84.363281 1.265625 85.542969 1.5 Z M 85.542969 1.5 " fill-opacity="1" fill-rule="nonzero"/><path fill="#fefefe" d="M 52.902344 5.714844 L 52.90625 5.726562 C 54.523438 8.933594 56.121094 11.644531 57.707031 13.859375 C 60.007812 17.03125 62.246094 19.714844 64.421875 21.910156 C 61.539062 19.332031 59.285156 16.890625 57.65625 14.582031 C 55.722656 11.910156 54.136719 8.953125 52.902344 5.714844 " fill-opacity="1" fill-rule="nonzero"/><path fill="#fefefe" d="M 84.320312 6.191406 L 84.320312 6.195312 C 83.519531 8.210938 82.644531 9.808594 81.707031 10.984375 C 81.191406 11.628906 80.839844 12.039062 80.652344 12.21875 C 79.308594 13.542969 77.953125 14.824219 76.59375 16.058594 C 76.328125 16.3125 76.136719 16.507812 76.015625 16.644531 C 75.226562 17.523438 74.65625 18.21875 74.300781 18.722656 C 74.023438 19.089844 73.40625 20.027344 72.449219 21.539062 C 73.082031 19.988281 74.085938 18.3125 75.46875 16.507812 C 75.816406 16.054688 76.421875 15.382812 77.289062 14.492188 C 77.410156 14.339844 78.410156 13.382812 80.289062 11.625 C 80.683594 11.242188 81.109375 10.785156 81.566406 10.261719 C 82.015625 9.804688 82.933594 8.449219 84.320312 6.191406 " fill-opacity="1" fill-rule="nonzero"/><path fill="#8ab354" d="M 82.996094 65.707031 L 83.625 65.734375 C 84.386719 65.804688 85.195312 65.992188 86.050781 66.304688 C 87.578125 66.933594 88.722656 67.511719 89.476562 68.042969 C 93.167969 70.609375 96.328125 73.4375 98.964844 76.527344 C 101.558594 79.53125 103.699219 82.976562 105.394531 86.871094 L 105.355469 87.179688 L 103.074219 88.074219 L 102.503906 88.242188 C 99.660156 87.8125 97.113281 87.265625 94.863281 86.597656 C 92.386719 85.8125 90.65625 85.144531 89.671875 84.59375 C 86.492188 82.863281 83.539062 80.4375 80.808594 77.316406 C 78.574219 74.609375 77.558594 72.039062 77.757812 69.609375 L 77.917969 68.847656 C 78.058594 68.367188 78.273438 67.941406 78.554688 67.570312 C 78.835938 67.199219 79.191406 66.882812 79.613281 66.621094 C 80.460938 66.097656 81.585938 65.792969 82.996094 65.707031 Z M 82.996094 65.707031 " fill-opacity="1" fill-rule="nonzero"/><g clip-path="url(#af448d14ec)"><path fill="#689f4f" d="M 113.632812 58.183594 L 113.707031 58.1875 C 115.324219 58.472656 116.199219 58.722656 116.328125 58.9375 C 116.9375 59.273438 117.449219 59.957031 117.859375 60.996094 C 118.238281 62.113281 118.382812 63.476562 118.292969 65.085938 C 118.175781 66.878906 117.875 68.371094 117.390625 69.554688 C 116.785156 71.261719 116.09375 72.851562 115.328125 74.332031 L 112.117188 80.261719 C 111.773438 80.839844 111.351562 81.480469 110.855469 82.175781 C 109.066406 84.300781 107.640625 85.742188 106.574219 86.496094 C 106.078125 86.863281 105.765625 87.054688 105.628906 87.070312 L 103.257812 88 L 103.355469 87.859375 C 103.191406 87.871094 102.941406 87.828125 102.605469 87.726562 C 102.296875 87.230469 102.074219 86.75 101.933594 86.28125 C 101.613281 85.394531 101.433594 83.914062 101.402344 81.835938 C 101.367188 80.511719 101.539062 78.390625 101.914062 75.472656 C 102.039062 74.429688 102.402344 72.984375 103.007812 71.140625 C 104.332031 67.894531 105.238281 65.875 105.722656 65.074219 C 106.398438 63.800781 107.039062 62.804688 107.636719 62.082031 C 109.027344 60.472656 110.046875 59.476562 110.691406 59.09375 C 111.449219 58.566406 112.429688 58.261719 113.632812 58.183594 Z M 113.632812 58.183594 " fill-opacity="1" fill-rule="nonzero"/></g><path fill="#fefefe" d="M 83.191406 70.703125 L 83.199219 70.710938 C 85.589844 73.390625 87.839844 75.597656 89.941406 77.324219 C 92.988281 79.789062 95.84375 81.804688 98.511719 83.363281 C 95.0625 81.617188 92.25 79.84375 90.082031 78.035156 C 87.519531 75.953125 85.226562 73.507812 83.191406 70.703125 " fill-opacity="1" fill-rule="nonzero"/><path fill="#fefefe" d="M 113.664062 63.027344 L 113.664062 63.03125 C 113.410156 65.1875 112.984375 66.957031 112.378906 68.335938 C 112.050781 69.09375 111.816406 69.578125 111.679688 69.800781 C 110.722656 71.429688 109.75 73.015625 108.753906 74.558594 C 108.566406 74.875 108.429688 75.113281 108.347656 75.277344 C 107.8125 76.332031 107.441406 77.148438 107.230469 77.726562 C 107.054688 78.152344 106.703125 79.21875 106.171875 80.925781 C 106.378906 79.265625 106.914062 77.386719 107.78125 75.285156 C 108.003906 74.757812 108.414062 73.949219 109.019531 72.867188 C 109.097656 72.6875 109.816406 71.503906 111.175781 69.320312 C 111.457031 68.847656 111.753906 68.300781 112.058594 67.671875 C 112.375 67.117188 112.910156 65.566406 113.664062 63.027344 " fill-opacity="1" fill-rule="nonzero"/></g></g></g></g></g></svg>