<svg xmlns="http://www.w3.org/2000/svg" xmlns:xlink="http://www.w3.org/1999/xlink" width="800" zoomAndPan="magnify" viewBox="0 0 600 599.999999" height="800" preserveAspectRatio="xMidYMid meet" version="1.0"><defs><clipPath id="dd795fbaee"><path d="M 66.011719 76.210938 L 600 76.210938 L 600 497.996094 L 66.011719 497.996094 Z M 66.011719 76.210938 " clip-rule="nonzero"/></clipPath></defs><path fill="#2f6d30" d="M 597.988281 3.433594 C 597.894531 4.222656 597.777344 5.363281 597.621094 6.847656 C 588.765625 91.851562 569.601562 171.902344 542.207031 238.332031 C 517.96875 297.101562 494.253906 346.648438 458.480469 380.921875 C 413.675781 423.839844 318.179688 451.699219 285.046875 449.859375 C 226.160156 449.859375 174.070312 424.039062 131.191406 378.929688 C 96.167969 342.097656 67.046875 290.378906 44.625 225.210938 C 6.972656 115.765625 1.078125 7.050781 0.84375 2.480469 L 30.976562 0.945312 C 30.976562 0.953125 30.976562 0.953125 30.976562 0.953125 C 31.046875 2.257812 36.988281 110.597656 73.335938 215.9375 C 120.558594 352.804688 194.234375 419.496094 292.179688 416.570312 C 499.261719 410.367188 557.746094 98.484375 567.613281 3.722656 C 567.78125 2.109375 567.910156 0.859375 568.015625 0 L 597.988281 3.433594 " fill-opacity="1" fill-rule="nonzero"/><path fill="#224b22" d="M 572.546875 149.339844 C 572.359375 145.125 571.609375 141 570.796875 136.902344 C 570.355469 134.863281 569.851562 132.84375 569.324219 130.828125 C 568.785156 128.820312 568.253906 126.808594 567.628906 124.828125 C 567.011719 122.839844 566.390625 120.859375 565.703125 118.898438 C 565.035156 117.015625 564.378906 115.160156 563.632812 113.265625 C 563.082031 111.203125 562.410156 109.179688 561.964844 107.089844 L 561.21875 103.964844 L 560.578125 100.8125 C 560.140625 98.710938 559.847656 96.582031 559.5 94.46875 C 559.21875 92.335938 558.910156 90.207031 558.730469 88.0625 C 558.492188 85.925781 558.375 83.773438 558.207031 81.621094 C 558.121094 79.46875 557.996094 77.316406 557.980469 75.15625 C 557.914062 72.996094 557.933594 70.832031 557.960938 68.664062 C 558.027344 66.5 558.039062 64.335938 558.179688 62.167969 C 558.277344 60 558.445312 57.835938 558.578125 55.664062 C 558.765625 53.5 558.941406 51.328125 559.199219 49.164062 C 559.425781 46.992188 559.738281 44.839844 560.011719 42.671875 C 560.292969 40.503906 560.621094 38.34375 560.972656 36.183594 C 561.710938 31.875 562.46875 27.546875 563.417969 23.253906 C 564.320312 18.945312 565.34375 14.65625 566.507812 10.382812 C 565.484375 12.347656 564.570312 14.375 563.699219 16.421875 C 562.835938 18.46875 562.007812 20.53125 561.238281 22.621094 C 559.738281 26.808594 558.320312 31.042969 557.175781 35.355469 C 556.59375 37.503906 556.027344 39.667969 555.519531 41.84375 C 554.984375 44.015625 554.566406 46.207031 554.148438 48.40625 C 553.726562 50.601562 553.375 52.816406 553.019531 55.03125 C 552.703125 57.25 552.382812 59.46875 552.179688 61.703125 C 551.929688 63.941406 551.773438 66.179688 551.621094 68.425781 C 551.511719 70.671875 551.402344 72.917969 551.386719 75.175781 C 551.316406 77.429688 551.421875 79.683594 551.457031 81.9375 C 551.578125 84.195312 551.648438 86.449219 551.890625 88.703125 C 552.058594 90.960938 552.367188 93.199219 552.648438 95.445312 C 552.992188 97.6875 553.347656 99.929688 553.8125 102.148438 L 554.519531 105.476562 C 554.777344 106.585938 555.070312 107.679688 555.359375 108.777344 C 555.886719 110.988281 556.652344 113.136719 557.289062 115.316406 L 557.328125 115.445312 L 557.394531 115.59375 C 558.179688 117.394531 558.984375 119.285156 559.75 121.152344 L 562.023438 126.78125 L 564.230469 132.449219 C 564.945312 134.34375 565.621094 136.246094 566.269531 138.164062 C 567.648438 141.96875 568.816406 145.832031 569.796875 149.734375 C 570.25 151.691406 570.640625 153.664062 570.859375 155.65625 C 571.03125 157.644531 571.109375 159.679688 570.441406 161.644531 C 571.65625 159.933594 572.152344 157.761719 572.40625 155.679688 C 572.671875 153.566406 572.667969 151.445312 572.546875 149.339844 Z M 560.75 185.761719 C 560.253906 186.460938 559.695312 187.242188 559.089844 188.085938 C 558.457031 188.902344 557.769531 189.789062 557.03125 190.730469 C 555.515625 192.589844 553.726562 194.613281 551.75 196.804688 C 549.734375 198.964844 547.519531 201.277344 545.132812 203.691406 C 542.769531 206.121094 540.207031 208.632812 537.582031 211.257812 C 534.945312 213.875 532.214844 216.585938 529.441406 219.335938 C 526.664062 222.09375 523.875 224.945312 521.085938 227.804688 C 518.320312 230.6875 515.554688 233.574219 512.910156 236.511719 C 510.246094 239.417969 507.707031 242.382812 505.300781 245.292969 C 502.90625 248.21875 500.660156 251.117188 498.652344 253.96875 C 496.609375 256.78125 494.875 259.617188 493.347656 262.265625 C 492.585938 263.585938 491.914062 264.902344 491.273438 266.136719 C 490.707031 267.421875 490.148438 268.625 489.675781 269.777344 C 489.257812 270.964844 488.800781 272.03125 488.511719 273.074219 C 488.234375 274.136719 487.960938 275.078125 487.765625 275.953125 C 487.429688 277.75 487.265625 279.113281 487.28125 280.058594 C 487.261719 281.003906 487.25 281.5 487.25 281.5 C 487.25 281.5 487.394531 281.019531 487.671875 280.121094 C 487.824219 279.679688 487.925781 279.09375 488.203125 278.476562 C 488.472656 277.859375 488.761719 277.148438 489.070312 276.371094 C 489.433594 275.597656 489.894531 274.753906 490.351562 273.84375 C 490.851562 272.945312 491.441406 271.988281 492.03125 270.96875 C 492.671875 269.96875 493.402344 268.921875 494.144531 267.824219 C 494.96875 266.761719 495.738281 265.597656 496.652344 264.453125 C 497.574219 263.308594 498.488281 262.097656 499.539062 260.902344 C 500.558594 259.6875 501.601562 258.433594 502.734375 257.183594 C 504.945312 254.640625 507.386719 252.035156 509.90625 249.335938 C 512.46875 246.667969 515.121094 243.90625 517.8125 241.101562 C 520.539062 238.304688 523.300781 235.460938 526.066406 232.613281 C 528.820312 229.746094 531.589844 226.894531 534.273438 224.015625 C 536.96875 221.160156 539.574219 218.28125 542.0625 215.46875 C 544.542969 212.636719 546.898438 209.859375 549.046875 207.136719 C 551.21875 204.445312 553.140625 201.769531 554.871094 199.273438 C 555.71875 198.015625 556.527344 196.792969 557.269531 195.628906 C 557.960938 194.417969 558.644531 193.292969 559.242188 192.210938 C 559.804688 191.09375 560.382812 190.097656 560.816406 189.109375 C 561.238281 188.121094 561.628906 187.214844 561.976562 186.394531 C 562.59375 184.71875 563.003906 183.390625 563.1875 182.457031 C 563.394531 181.535156 563.507812 181.042969 563.507812 181.042969 C 563.507812 181.042969 563.265625 181.488281 562.820312 182.316406 C 562.429688 183.164062 561.652344 184.300781 560.75 185.761719 Z M 493.285156 337.429688 C 491.777344 338.328125 490.21875 338.734375 488.640625 338.917969 C 487.058594 339.085938 485.460938 339.042969 483.859375 338.898438 C 482.257812 338.742188 480.648438 338.492188 479.035156 338.1875 C 477.425781 337.863281 475.8125 337.519531 474.191406 337.144531 C 470.953125 336.402344 467.648438 335.710938 464.355469 334.855469 C 462.710938 334.433594 461.074219 333.960938 459.40625 333.550781 C 457.753906 333.117188 456.03125 332.765625 454.40625 332.3125 L 450.886719 331.324219 L 452.375 334.15625 C 453.917969 337.09375 455.246094 340.097656 456.105469 343.265625 C 456.988281 346.425781 457.203125 349.808594 457.925781 353.023438 C 458.285156 354.632812 458.777344 356.191406 459.367188 357.71875 C 459.9375 359.253906 460.566406 360.769531 461.246094 362.269531 C 461.925781 363.769531 462.644531 365.253906 463.472656 366.703125 C 464.273438 368.160156 465.148438 369.59375 466.1875 370.96875 L 466.359375 371.199219 L 466.710938 371.082031 L 466.710938 370.789062 C 466.703125 369.0625 466.511719 367.394531 466.261719 365.753906 C 466.035156 364.105469 465.703125 362.484375 465.324219 360.882812 C 464.953125 359.28125 464.523438 357.695312 464.035156 356.132812 C 463.574219 354.5625 463.011719 353.023438 462.320312 351.53125 C 460.933594 348.542969 459.039062 345.730469 457.8125 342.6875 C 457.007812 340.734375 456.410156 338.707031 455.929688 336.644531 C 456.5625 337.007812 457.195312 337.367188 457.851562 337.683594 C 459.4375 338.496094 461.078125 339.175781 462.730469 339.824219 C 466.046875 341.121094 469.441406 342.300781 473.003906 342.945312 C 474.792969 343.261719 476.605469 343.480469 478.449219 343.535156 C 480.289062 343.601562 482.152344 343.558594 484.023438 343.265625 C 485.886719 342.988281 487.765625 342.507812 489.503906 341.625 C 491.226562 340.777344 492.824219 339.472656 493.691406 337.808594 L 493.824219 337.554688 L 493.53125 337.285156 Z M 436.886719 361.285156 C 436.746094 360.570312 436.578125 359.871094 436.414062 359.207031 C 436.214844 358.535156 436.023438 357.890625 435.8125 357.285156 C 435.558594 356.671875 435.359375 356.09375 435.085938 355.550781 C 434.789062 355.023438 434.554688 354.511719 434.253906 354.0625 C 433.691406 353.144531 433.023438 352.445312 432.460938 351.9375 C 431.855469 351.4375 431.34375 351.140625 430.960938 351.007812 C 430.59375 350.867188 430.402344 350.785156 430.402344 350.785156 C 430.402344 350.785156 430.527344 350.953125 430.765625 351.261719 C 430.875 351.417969 431.042969 351.570312 431.167969 351.8125 C 431.285156 352.0625 431.429688 352.328125 431.589844 352.613281 C 431.859375 353.234375 432.097656 354 432.296875 354.890625 C 432.480469 355.789062 432.585938 356.828125 432.671875 357.960938 C 432.730469 359.101562 432.753906 360.347656 432.726562 361.667969 C 432.699219 362.996094 432.644531 364.390625 432.550781 365.847656 C 432.375 368.757812 432.109375 371.882812 431.816406 375.015625 C 431.257812 381.296875 430.671875 387.648438 430.472656 392.492188 C 430.375 394.914062 430.335938 396.953125 430.347656 398.394531 C 430.355469 399.828125 430.402344 400.667969 430.402344 400.667969 C 430.402344 400.667969 430.820312 399.941406 431.421875 398.625 C 432.027344 397.3125 432.816406 395.410156 433.621094 393.085938 C 434.410156 390.761719 435.199219 388.011719 435.855469 385.019531 C 436.515625 382.03125 437.039062 378.792969 437.339844 375.519531 C 437.46875 373.878906 437.589844 372.234375 437.601562 370.605469 C 437.644531 368.976562 437.585938 367.363281 437.46875 365.796875 C 437.363281 364.234375 437.152344 362.71875 436.886719 361.285156 Z M 352.691406 405.109375 C 351.429688 405.769531 349.765625 406.464844 348.089844 407.53125 C 347.226562 408.042969 346.304688 408.597656 345.34375 409.171875 C 344.40625 409.78125 343.445312 410.464844 342.433594 411.15625 C 340.425781 412.5625 338.28125 414.132812 336.125 415.898438 C 333.953125 417.652344 331.738281 419.566406 329.488281 421.585938 C 325.003906 425.628906 320.472656 430.140625 316.019531 434.648438 C 313.804688 436.878906 311.589844 439.113281 309.410156 441.3125 C 308.3125 442.382812 307.234375 443.453125 306.207031 444.402344 C 305.679688 444.890625 305.1875 445.375 304.570312 445.867188 L 303.703125 446.605469 L 303.277344 446.96875 L 303.058594 447.15625 L 303.011719 447.199219 L 302.941406 447.242188 C 301 448.769531 298.640625 449.75 296.222656 450.382812 C 293.804688 451.039062 291.300781 451.230469 288.972656 451.300781 C 288.386719 451.300781 287.8125 451.308594 287.25 451.3125 C 286.6875 451.285156 286.132812 451.257812 285.59375 451.238281 C 284.507812 451.226562 283.484375 451.085938 282.503906 451.03125 C 280.570312 450.789062 278.855469 450.59375 277.457031 450.339844 C 274.644531 449.863281 273.03125 449.484375 273.03125 449.484375 C 273.03125 449.484375 273.367188 449.707031 274.042969 450.085938 C 274.722656 450.441406 275.707031 451.011719 277.035156 451.578125 C 278.351562 452.179688 279.984375 452.84375 281.929688 453.472656 C 283.886719 454.050781 286.121094 454.734375 288.691406 455.054688 C 291.242188 455.398438 294.113281 455.664062 297.203125 455.226562 C 300.269531 454.816406 303.621094 453.878906 306.617188 451.898438 L 306.761719 451.8125 L 306.964844 451.671875 L 307.195312 451.503906 L 307.65625 451.171875 L 308.582031 450.5 C 309.191406 450.078125 309.828125 449.539062 310.46875 449.011719 C 311.097656 448.488281 311.773438 447.953125 312.375 447.425781 C 312.964844 446.898438 313.5625 446.359375 314.15625 445.820312 C 316.539062 443.671875 318.808594 441.402344 321.078125 439.140625 C 323.300781 436.851562 325.523438 434.578125 327.652344 432.296875 C 328.738281 431.171875 329.792969 430.050781 330.828125 428.925781 C 331.867188 427.816406 332.894531 426.722656 333.910156 425.640625 C 335.933594 423.496094 337.894531 421.425781 339.757812 419.460938 C 340.671875 418.457031 341.605469 417.539062 342.488281 416.625 C 343.371094 415.714844 344.203125 414.800781 345.0625 413.992188 C 345.898438 413.164062 346.722656 412.390625 347.476562 411.617188 C 348.261719 410.882812 349.007812 410.183594 349.707031 409.523438 C 350.402344 408.847656 351.089844 408.265625 351.722656 407.71875 C 352.351562 407.167969 352.929688 406.660156 353.457031 406.199219 C 355.65625 404.445312 356.917969 403.4375 356.917969 403.4375 C 356.917969 403.4375 356.527344 403.578125 355.804688 403.84375 C 355.101562 404.140625 353.992188 404.488281 352.691406 405.109375 Z M 198.457031 390.882812 C 196.410156 388.953125 194.050781 386.863281 191.214844 384.769531 C 190.492188 384.234375 189.75 383.699219 189.027344 383.214844 L 188.476562 382.84375 C 188.238281 382.675781 188.011719 382.566406 187.773438 382.425781 C 187.289062 382.140625 186.835938 381.933594 186.359375 381.726562 C 184.472656 380.933594 182.589844 380.414062 180.65625 379.921875 C 176.792969 378.945312 172.753906 378.257812 168.582031 377.625 C 164.410156 377.007812 160.117188 376.445312 155.761719 375.902344 C 151.429688 375.359375 147.027344 374.800781 142.621094 374.242188 C 138.234375 373.648438 133.863281 373.039062 129.613281 372.28125 C 127.480469 371.9375 125.382812 371.515625 123.324219 371.085938 C 121.359375 370.660156 119.117188 370.195312 117.410156 369.632812 C 113.789062 368.519531 110.582031 366.582031 108.046875 364.078125 C 105.488281 361.597656 103.503906 358.660156 102.082031 355.6875 C 100.632812 352.726562 99.625 349.78125 98.914062 347.109375 C 98.234375 344.429688 97.746094 342.027344 97.464844 340.027344 C 96.878906 336.027344 96.824219 333.675781 96.824219 333.675781 C 96.824219 333.675781 96.363281 335.980469 96.261719 340.109375 C 96.238281 342.171875 96.265625 344.699219 96.625 347.585938 C 97.015625 350.453125 97.570312 353.746094 98.832031 357.171875 C 100.074219 360.582031 101.886719 364.238281 104.703125 367.480469 C 107.5 370.722656 111.285156 373.46875 115.585938 375.164062 C 117.832031 376.023438 119.746094 376.546875 121.960938 377.1875 C 124.101562 377.753906 126.265625 378.285156 128.453125 378.757812 C 132.835938 379.699219 137.292969 380.457031 141.757812 381.078125 C 146.21875 381.726562 150.683594 382.210938 155.0625 382.660156 C 159.429688 383.070312 163.730469 383.472656 167.890625 383.859375 C 172.027344 384.238281 176.011719 384.609375 179.683594 385.136719 C 181.511719 385.414062 183.28125 385.746094 184.796875 386.222656 C 185.160156 386.351562 185.550781 386.453125 185.859375 386.59375 C 186.015625 386.660156 186.199219 386.71875 186.335938 386.789062 L 186.933594 387.09375 C 187.734375 387.488281 188.449219 387.882812 189.140625 388.265625 C 191.980469 389.878906 194.578125 391.578125 196.867188 393.066406 C 199.140625 394.621094 201.117188 395.96875 202.746094 397.085938 C 206.003906 399.363281 207.867188 400.667969 207.867188 400.667969 C 207.867188 400.667969 206.402344 398.882812 203.621094 395.972656 C 202.234375 394.523438 200.519531 392.777344 198.457031 390.882812 Z M 103.105469 278.691406 C 100.792969 274.152344 97.90625 269.148438 94.628906 263.699219 C 92.988281 260.976562 91.300781 258.109375 89.625 255.0625 C 87.957031 252.007812 86.273438 248.792969 84.828125 245.242188 C 84.113281 243.460938 83.441406 241.601562 82.980469 239.585938 C 82.863281 239.089844 82.757812 238.570312 82.660156 238.054688 C 82.574219 237.519531 82.476562 236.890625 82.433594 236.464844 L 82.277344 235.066406 C 82.234375 234.628906 82.167969 234.199219 82.09375 233.773438 C 81.546875 230.320312 80.390625 227.054688 78.480469 224.019531 C 74.652344 217.945312 68.574219 212.535156 62.269531 207.289062 C 55.890625 202.082031 49.25 196.832031 42.566406 191.628906 C 39.230469 189.015625 35.855469 186.449219 32.558594 183.804688 C 30.90625 182.484375 29.253906 181.167969 27.613281 179.859375 C 25.992188 178.582031 24.210938 177.101562 22.625 175.636719 C 19.410156 172.632812 16.550781 169.320312 14.082031 165.8125 C 11.644531 162.277344 9.59375 158.5625 7.945312 154.773438 C 4.636719 147.191406 2.742188 139.425781 1.824219 132.035156 C 0.898438 124.636719 0.820312 117.613281 1.152344 111.1875 C 1.902344 98.316406 4.203125 87.847656 6.09375 80.652344 C 8.042969 73.460938 9.585938 69.5 9.585938 69.5 C 9.585938 69.5 8.457031 73.601562 7.210938 80.898438 C 6.566406 84.539062 5.902344 88.984375 5.402344 94.097656 C 4.871094 99.203125 4.5 104.984375 4.5625 111.269531 C 4.59375 117.546875 5.019531 124.34375 6.289062 131.359375 C 7.550781 138.359375 9.550781 145.621094 12.902344 152.492188 C 16.238281 159.355469 20.875 165.800781 26.789062 171.074219 C 28.304688 172.394531 29.761719 173.578125 31.488281 174.84375 C 33.175781 176.101562 34.859375 177.363281 36.554688 178.625 C 39.945312 181.136719 43.296875 183.734375 46.683594 186.292969 C 53.414062 191.460938 60.226562 196.554688 66.667969 202.042969 C 69.902344 204.773438 73.0625 207.582031 76.058594 210.605469 C 79.039062 213.628906 81.882812 216.914062 84.058594 220.710938 C 86.277344 224.480469 87.632812 228.78125 88.132812 232.90625 C 88.203125 233.421875 88.261719 233.933594 88.300781 234.449219 L 88.414062 235.878906 C 88.449219 236.398438 88.5 236.703125 88.546875 237.101562 C 88.613281 237.507812 88.671875 237.914062 88.761719 238.324219 C 89.09375 239.96875 89.5625 241.632812 90.121094 243.261719 C 92.398438 249.820312 95.730469 255.878906 98.515625 261.582031 C 101.347656 267.28125 103.972656 272.570312 105.835938 277.484375 C 107.75 282.375 108.976562 286.855469 109.394531 290.636719 C 109.867188 294.417969 109.5 297.429688 109 299.375 C 108.757812 300.355469 108.507812 301.078125 108.324219 301.5625 C 108.132812 302.042969 108.03125 302.285156 108.03125 302.285156 C 108.03125 302.285156 108.09375 302.03125 108.214844 301.527344 C 108.328125 301.03125 108.46875 300.285156 108.570312 299.304688 C 108.777344 297.34375 108.695312 294.445312 107.851562 290.910156 C 106.996094 287.378906 105.398438 283.238281 103.105469 278.691406 " fill-opacity="1" fill-rule="nonzero"/><g clip-path="url(#dd795fbaee)"><path fill="#4fbc37" d="M 334.898438 455.042969 C 334.898438 455.042969 318.957031 448.808594 320.339844 462.664062 C 321.726562 476.519531 330.644531 472.578125 360.550781 478.597656 C 387.214844 483.96875 394.519531 497.996094 394.519531 497.996094 C 394.519531 497.996094 365.402344 438.414062 349.457031 435.644531 C 333.515625 432.871094 325.195312 440.492188 334.898438 455.042969 Z M 483.941406 248.859375 C 483.941406 248.859375 500.9375 250.9375 496.148438 237.855469 C 491.355469 224.78125 483.707031 230.816406 453.238281 232.414062 C 426.074219 233.839844 415.503906 222.066406 415.503906 222.066406 C 415.503906 222.066406 458.535156 272.542969 474.667969 271.265625 C 490.804688 269.984375 496.960938 260.539062 483.941406 248.859375 Z M 578.609375 99.886719 C 578.609375 99.886719 561.488281 100.175781 568.042969 112.464844 C 574.601562 124.757812 581.34375 117.714844 611.296875 111.917969 C 637.996094 106.742188 650.097656 116.941406 650.097656 116.941406 C 650.097656 116.941406 600.488281 72.910156 584.6875 76.410156 C 568.886719 79.90625 564.09375 90.117188 578.609375 99.886719 Z M 103.9375 245.910156 C 103.9375 245.910156 97.695312 261.84375 111.5625 260.457031 C 125.425781 259.070312 121.476562 250.164062 127.507812 220.273438 C 132.878906 193.628906 146.917969 186.324219 146.917969 186.324219 C 146.917969 186.324219 87.296875 215.425781 84.523438 231.359375 C 81.75 247.292969 89.378906 255.609375 103.9375 245.910156 Z M 128.828125 401.832031 C 126.054688 417.765625 66.433594 446.863281 66.433594 446.863281 C 66.433594 446.863281 80.472656 439.5625 85.847656 412.917969 C 91.875 383.023438 87.925781 374.117188 101.789062 372.734375 C 115.65625 371.347656 109.417969 387.28125 109.417969 387.28125 C 123.976562 377.582031 131.601562 385.894531 128.828125 401.832031 " fill-opacity="1" fill-rule="nonzero"/></g><path fill="#224b22" d="M 592.886719 89.785156 C 593.277344 90.105469 593.664062 90.425781 594.050781 90.738281 C 594.402344 91.085938 594.8125 91.367188 595.132812 91.703125 C 595.457031 92.035156 595.820312 92.324219 596.09375 92.644531 C 596.375 92.960938 596.667969 93.25 596.867188 93.550781 C 597.09375 93.851562 597.304688 94.121094 597.429688 94.390625 C 597.558594 94.65625 597.738281 94.882812 597.769531 95.101562 C 597.90625 95.535156 597.988281 95.78125 597.988281 95.78125 C 597.988281 95.78125 598.015625 95.535156 598.042969 95.050781 C 598.078125 94.804688 597.992188 94.53125 597.929688 94.203125 C 597.875 93.859375 597.734375 93.515625 597.554688 93.148438 C 597.230469 92.390625 596.671875 91.609375 596.015625 90.851562 C 595.359375 90.089844 594.558594 89.386719 593.746094 88.703125 C 592.90625 88.070312 592.050781 87.453125 591.203125 86.953125 C 590.363281 86.445312 589.550781 86.011719 588.835938 85.6875 C 587.410156 85.015625 586.386719 84.742188 586.386719 84.742188 C 586.386719 84.742188 587.191406 85.429688 588.421875 86.363281 C 589.648438 87.3125 591.296875 88.523438 592.886719 89.785156 Z M 620.113281 101.851562 C 619.585938 101.574219 618.957031 101.21875 618.214844 100.84375 C 617.457031 100.507812 616.597656 100.140625 615.648438 99.753906 C 614.710938 99.332031 613.640625 99.050781 612.53125 98.679688 C 611.417969 98.285156 610.222656 97.984375 608.972656 97.703125 C 607.726562 97.390625 606.425781 97.164062 605.097656 96.957031 C 603.777344 96.714844 602.414062 96.617188 601.058594 96.453125 C 599.699219 96.320312 598.335938 96.296875 596.996094 96.214844 C 595.652344 96.199219 594.332031 96.183594 593.058594 96.230469 C 590.507812 96.300781 588.136719 96.546875 586.117188 96.789062 C 584.089844 97.027344 582.425781 97.378906 581.261719 97.617188 C 580.105469 97.859375 579.453125 98.054688 579.453125 98.054688 C 579.453125 98.054688 580.125 97.992188 581.304688 97.882812 C 582.480469 97.757812 584.164062 97.675781 586.179688 97.5625 C 588.199219 97.445312 590.558594 97.429688 593.070312 97.445312 C 594.332031 97.4375 595.625 97.53125 596.949219 97.546875 C 598.265625 97.644531 599.605469 97.683594 600.933594 97.832031 C 601.929688 97.941406 602.925781 98.027344 603.914062 98.152344 C 603.988281 98.542969 604.089844 99.050781 604.085938 99.664062 C 604.089844 99.988281 604.066406 100.339844 604.003906 100.695312 C 603.957031 101.054688 603.832031 101.40625 603.703125 101.761719 C 603.542969 102.109375 603.367188 102.460938 603.121094 102.78125 L 602.753906 103.261719 C 602.613281 103.414062 602.445312 103.550781 602.292969 103.695312 C 602.023438 104.011719 601.65625 104.246094 601.3125 104.496094 C 600.984375 104.761719 600.605469 104.96875 600.246094 105.179688 C 599.894531 105.390625 599.546875 105.601562 599.183594 105.757812 C 598.832031 105.921875 598.507812 106.09375 598.199219 106.257812 C 597.574219 106.542969 597.039062 106.769531 596.671875 106.960938 C 596.304688 107.148438 596.09375 107.257812 596.09375 107.257812 C 596.09375 107.257812 596.324219 107.253906 596.742188 107.226562 C 597.152344 107.1875 597.75 107.148438 598.453125 107.015625 C 599.140625 106.820312 599.980469 106.683594 600.796875 106.261719 C 601.214844 106.066406 601.664062 105.914062 602.058594 105.605469 C 602.464844 105.332031 602.894531 105.070312 603.253906 104.695312 C 603.429688 104.511719 603.621094 104.34375 603.78125 104.152344 L 604.230469 103.523438 C 604.394531 103.324219 604.496094 103.085938 604.589844 102.851562 C 604.683594 102.613281 604.8125 102.398438 604.855469 102.152344 C 604.910156 101.910156 604.96875 101.675781 605.007812 101.449219 C 605.027344 101.21875 605.027344 100.984375 605.035156 100.761719 C 605.039062 100.324219 604.96875 99.914062 604.871094 99.554688 C 604.730469 98.964844 604.503906 98.542969 604.296875 98.203125 C 604.496094 98.230469 604.703125 98.246094 604.902344 98.285156 C 606.203125 98.476562 607.5 98.625 608.722656 98.898438 C 609.953125 99.144531 611.148438 99.34375 612.257812 99.652344 C 613.371094 99.945312 614.453125 100.144531 615.394531 100.496094 C 616.34375 100.816406 617.230469 101.082031 618.015625 101.320312 C 618.789062 101.601562 619.445312 101.878906 620 102.09375 C 621.109375 102.515625 621.742188 102.753906 621.742188 102.753906 C 621.742188 102.753906 621.148438 102.425781 620.113281 101.851562 Z M 375.039062 475.152344 C 374.378906 474.453125 373.5 473.839844 372.585938 473.105469 C 371.679688 472.351562 370.601562 471.691406 369.507812 470.917969 C 368.410156 470.140625 367.191406 469.433594 365.945312 468.671875 C 363.4375 467.179688 360.679688 465.738281 357.902344 464.34375 C 355.6875 463.269531 353.472656 462.253906 351.3125 461.300781 C 351.300781 461.234375 351.292969 461.175781 351.285156 461.105469 C 351.191406 460.535156 351.136719 459.679688 350.878906 458.71875 C 350.648438 457.75 350.378906 456.613281 349.984375 455.4375 C 349.617188 454.246094 349.175781 452.996094 348.699219 451.761719 C 347.757812 449.289062 346.640625 446.890625 345.726562 445.125 C 345.28125 444.238281 344.84375 443.53125 344.566406 443.019531 C 344.277344 442.519531 344.089844 442.238281 344.089844 442.238281 C 344.089844 442.238281 344.160156 442.566406 344.320312 443.125 C 344.488281 443.683594 344.691406 444.484375 344.996094 445.429688 C 345.585938 447.324219 346.480469 449.804688 347.40625 452.261719 C 347.902344 453.480469 348.359375 454.707031 348.835938 455.847656 C 349.308594 456.984375 349.746094 458.046875 350.121094 458.960938 C 350.527344 459.867188 350.8125 460.628906 351.023438 461.171875 C 351.023438 461.171875 351.023438 461.171875 351.023438 461.175781 C 350.558594 460.964844 350.070312 460.742188 349.609375 460.546875 C 346.933594 459.394531 344.398438 458.425781 342.226562 457.585938 C 340.0625 456.742188 338.210938 456.148438 336.929688 455.699219 C 335.648438 455.265625 334.898438 455.042969 334.898438 455.042969 C 334.898438 455.042969 337.710938 456.347656 341.929688 458.308594 C 344.046875 459.253906 346.484375 460.433594 349.113281 461.65625 C 350.480469 462.300781 351.90625 462.976562 353.34375 463.664062 C 352.820312 463.785156 352.152344 463.941406 351.355469 464.136719 C 350.445312 464.351562 349.386719 464.613281 348.25 464.886719 C 347.113281 465.144531 345.910156 465.457031 344.699219 465.695312 C 343.496094 465.976562 342.28125 466.183594 341.144531 466.382812 C 340.007812 466.566406 338.941406 466.691406 338.015625 466.777344 C 337.554688 466.820312 337.132812 466.816406 336.753906 466.84375 C 336.375 466.871094 336.046875 466.851562 335.773438 466.84375 C 335.21875 466.832031 334.898438 466.828125 334.898438 466.828125 C 334.898438 466.828125 335.203125 466.933594 335.730469 467.113281 C 335.996094 467.199219 336.320312 467.320312 336.703125 467.367188 C 337.089844 467.433594 337.527344 467.539062 338.003906 467.574219 C 338.960938 467.671875 340.09375 467.6875 341.285156 467.59375 C 341.882812 467.523438 342.503906 467.507812 343.121094 467.382812 C 343.738281 467.28125 344.371094 467.183594 344.992188 467.046875 C 347.480469 466.5 349.882812 465.664062 351.609375 464.886719 C 352.507812 464.488281 353.226562 464.113281 353.710938 463.84375 C 354.902344 464.417969 356.097656 464.992188 357.289062 465.582031 C 358.671875 466.273438 360.046875 466.96875 361.40625 467.648438 C 362.734375 468.378906 364.082031 469.023438 365.34375 469.734375 C 366.585938 470.464844 367.847656 471.074219 368.96875 471.773438 C 370.089844 472.464844 371.203125 473.054688 372.128906 473.738281 C 373.058594 474.414062 374 474.933594 374.703125 475.546875 C 375.417969 476.140625 376.113281 476.605469 376.578125 477.089844 C 377.519531 478.058594 378.0625 478.609375 378.0625 478.609375 C 378.0625 478.609375 377.589844 477.992188 376.773438 476.898438 C 376.34375 476.363281 375.707031 475.832031 375.039062 475.152344 Z M 134.589844 194.585938 C 133.746094 195.484375 132.789062 196.5 131.769531 197.632812 C 130.722656 198.742188 129.699219 200.035156 128.566406 201.363281 C 127.425781 202.6875 126.289062 204.132812 125.152344 205.660156 C 123.980469 207.164062 122.847656 208.773438 121.691406 210.40625 C 120.515625 212.019531 119.410156 213.722656 118.273438 215.40625 C 117.15625 217.109375 116.132812 218.859375 115.078125 220.554688 C 114.957031 220.753906 114.84375 220.949219 114.730469 221.152344 C 114.636719 221.144531 114.558594 221.144531 114.453125 221.140625 C 113.824219 221.144531 112.925781 221.128906 111.855469 221.210938 C 110.777344 221.28125 109.523438 221.433594 108.199219 221.664062 C 107.539062 221.804688 106.84375 221.902344 106.160156 222.097656 C 105.472656 222.269531 104.773438 222.449219 104.082031 222.671875 C 103.394531 222.886719 102.710938 223.148438 102.050781 223.414062 C 101.375 223.644531 100.757812 224.003906 100.140625 224.289062 C 99.523438 224.570312 98.972656 224.976562 98.4375 225.296875 C 97.90625 225.628906 97.464844 226.039062 97.035156 226.375 C 96.601562 226.710938 96.289062 227.125 95.984375 227.441406 C 95.671875 227.753906 95.460938 228.085938 95.292969 228.355469 C 94.945312 228.890625 94.773438 229.195312 94.773438 229.195312 C 94.773438 229.195312 95.046875 228.957031 95.496094 228.527344 C 95.714844 228.3125 95.972656 228.046875 96.335938 227.820312 C 96.699219 227.585938 97.058594 227.273438 97.511719 227.011719 C 97.972656 226.761719 98.433594 226.449219 98.96875 226.183594 C 99.515625 225.941406 100.058594 225.632812 100.664062 225.394531 C 101.867188 224.894531 103.160156 224.386719 104.503906 223.992188 C 105.824219 223.542969 107.183594 223.207031 108.457031 222.855469 C 109.738281 222.53125 110.9375 222.238281 111.972656 221.996094 C 113.078125 221.734375 113.976562 221.523438 114.589844 221.382812 C 113.75 222.824219 112.921875 224.242188 112.121094 225.621094 C 110.246094 228.933594 108.640625 232.105469 107.300781 234.828125 C 105.945312 237.554688 104.949219 239.890625 104.234375 241.511719 C 103.535156 243.140625 103.175781 244.089844 103.175781 244.089844 C 103.175781 244.089844 103.652344 243.195312 104.476562 241.625 C 105.289062 240.050781 106.523438 237.84375 107.988281 235.191406 C 108.71875 233.859375 109.519531 232.429688 110.398438 230.929688 C 110.601562 230.578125 110.820312 230.210938 111.03125 229.855469 C 111.171875 230.21875 111.371094 230.699219 111.617188 231.273438 C 111.871094 231.878906 112.167969 232.585938 112.492188 233.34375 C 112.8125 234.097656 113.148438 234.894531 113.460938 235.699219 C 113.796875 236.5 114.074219 237.3125 114.34375 238.074219 C 114.601562 238.839844 114.804688 239.566406 114.984375 240.191406 C 115.121094 240.824219 115.273438 241.363281 115.316406 241.746094 C 115.394531 242.136719 115.441406 242.359375 115.441406 242.359375 C 115.441406 242.359375 115.503906 242.144531 115.589844 241.75 C 115.625 241.554688 115.710938 241.3125 115.714844 241.035156 C 115.738281 240.761719 115.765625 240.441406 115.773438 240.09375 C 115.769531 239.40625 115.699219 238.601562 115.527344 237.757812 C 115.351562 236.914062 115.078125 236.039062 114.75 235.191406 C 114.394531 234.351562 114.019531 233.523438 113.582031 232.796875 C 113.164062 232.0625 112.710938 231.414062 112.296875 230.871094 C 111.859375 230.296875 111.464844 229.871094 111.183594 229.589844 C 111.828125 228.496094 112.476562 227.378906 113.160156 226.222656 C 114.132812 224.605469 115.148438 222.925781 116.175781 221.226562 C 117.253906 219.558594 118.300781 217.832031 119.4375 216.164062 C 120.542969 214.476562 121.609375 212.765625 122.757812 211.144531 C 123.878906 209.503906 124.976562 207.890625 126.113281 206.378906 C 127.242188 204.859375 128.285156 203.355469 129.359375 201.996094 C 130.421875 200.621094 131.378906 199.285156 132.363281 198.136719 C 133.335938 196.976562 134.207031 195.894531 134.976562 194.933594 C 135.789062 194 136.492188 193.195312 137.070312 192.527344 C 138.230469 191.1875 138.890625 190.417969 138.890625 190.417969 C 138.890625 190.417969 138.160156 191.117188 136.875 192.339844 C 136.242188 192.960938 135.472656 193.71875 134.589844 194.585938 Z M 574.125 97.210938 C 573.640625 97.011719 573.121094 96.792969 572.5625 96.582031 C 572.007812 96.367188 571.421875 96.113281 570.78125 95.964844 C 570.148438 95.804688 569.5 95.585938 568.820312 95.457031 C 568.128906 95.355469 567.429688 95.253906 566.730469 95.15625 C 566.011719 95.148438 565.300781 95.09375 564.597656 95.144531 C 563.886719 95.230469 563.1875 95.277344 562.535156 95.492188 C 561.863281 95.632812 561.261719 95.929688 560.699219 96.199219 C 560.15625 96.523438 559.652344 96.84375 559.273438 97.25 C 558.855469 97.601562 558.574219 98.027344 558.335938 98.390625 C 558.109375 98.765625 557.945312 99.105469 557.839844 99.398438 C 557.632812 99.976562 557.617188 100.328125 557.617188 100.328125 C 557.617188 100.328125 557.75 100.003906 558.078125 99.515625 C 558.238281 99.269531 558.460938 98.992188 558.742188 98.707031 C 559.039062 98.429688 559.359375 98.121094 559.773438 97.859375 C 560.15625 97.5625 560.648438 97.367188 561.140625 97.128906 C 561.667969 96.957031 562.207031 96.769531 562.808594 96.675781 C 563.390625 96.511719 564.035156 96.550781 564.667969 96.480469 C 565.300781 96.449219 565.960938 96.519531 566.617188 96.53125 C 567.273438 96.617188 567.933594 96.699219 568.582031 96.777344 C 569.226562 96.902344 569.867188 97.027344 570.480469 97.152344 C 571.71875 97.382812 572.847656 97.757812 573.851562 97.957031 C 574.828125 98.261719 575.664062 98.46875 576.242188 98.636719 C 576.820312 98.792969 577.167969 98.863281 577.167969 98.863281 C 577.167969 98.863281 576.875 98.679688 576.34375 98.386719 C 575.808594 98.109375 575.0625 97.660156 574.125 97.210938 Z M 500.71875 246.335938 C 500.296875 245.996094 499.851562 245.691406 499.386719 245.40625 C 498.933594 245.105469 498.441406 244.867188 497.945312 244.625 C 497.449219 244.402344 496.9375 244.191406 496.402344 244.050781 C 495.878906 243.894531 495.332031 243.78125 494.785156 243.707031 C 494.238281 243.625 493.683594 243.609375 493.125 243.597656 C 490.898438 243.617188 488.722656 244.296875 486.773438 245.316406 C 485.792969 245.828125 484.882812 246.449219 484.011719 247.125 C 483.238281 247.738281 482.515625 248.386719 481.816406 249.125 C 478.226562 248.796875 474.628906 248.3125 471.050781 247.828125 C 469.621094 247.640625 468.203125 247.421875 466.777344 247.203125 C 467.015625 246.78125 467.367188 246.167969 467.84375 245.464844 C 468.289062 244.789062 468.847656 244.035156 469.492188 243.277344 C 469.808594 242.886719 470.160156 242.519531 470.523438 242.144531 C 470.867188 241.75 471.277344 241.410156 471.664062 241.054688 C 472.441406 240.339844 473.304688 239.722656 474.117188 239.140625 C 474.542969 238.878906 474.949219 238.617188 475.339844 238.375 C 475.722656 238.113281 476.128906 237.945312 476.476562 237.734375 C 476.839844 237.550781 477.160156 237.335938 477.464844 237.210938 C 477.765625 237.0625 478.027344 236.933594 478.25 236.832031 C 478.679688 236.605469 478.929688 236.46875 478.929688 236.46875 C 478.929688 236.46875 478.648438 236.507812 478.167969 236.566406 C 477.679688 236.640625 476.976562 236.722656 476.175781 237 C 475.773438 237.132812 475.3125 237.230469 474.878906 237.449219 C 474.433594 237.648438 473.953125 237.839844 473.488281 238.097656 C 473.03125 238.378906 472.539062 238.632812 472.078125 238.964844 C 471.640625 239.316406 471.164062 239.636719 470.742188 240.023438 C 470.328125 240.417969 469.902344 240.804688 469.542969 241.238281 C 469.15625 241.648438 468.835938 242.101562 468.527344 242.535156 C 468.195312 242.964844 467.96875 243.433594 467.714844 243.847656 C 467.496094 244.285156 467.285156 244.695312 467.140625 245.097656 C 466.789062 245.957031 466.613281 246.683594 466.535156 247.167969 C 464.367188 246.832031 462.210938 246.472656 460.0625 246.054688 C 456.425781 245.339844 452.78125 244.621094 449.207031 243.625 C 445.636719 242.648438 442.089844 241.523438 438.722656 239.933594 C 439.523438 240.398438 440.335938 240.863281 441.175781 241.273438 C 442.015625 241.679688 442.863281 242.074219 443.726562 242.433594 C 445.449219 243.164062 447.203125 243.824219 448.984375 244.382812 C 452.550781 245.507812 456.167969 246.488281 459.824219 247.234375 C 459.867188 247.246094 459.910156 247.25 459.953125 247.261719 C 459.867188 247.640625 459.769531 248.191406 459.746094 248.875 C 459.714844 249.546875 459.773438 250.335938 459.9375 251.167969 C 460.109375 252.003906 460.402344 252.878906 460.832031 253.695312 C 461.042969 254.109375 461.289062 254.5 461.566406 254.859375 C 461.808594 255.246094 462.144531 255.546875 462.449219 255.855469 C 462.726562 256.1875 463.089844 256.414062 463.398438 256.652344 C 463.699219 256.902344 464.03125 257.074219 464.339844 257.222656 C 464.929688 257.554688 465.476562 257.703125 465.855469 257.804688 C 466.234375 257.902344 466.453125 257.945312 466.453125 257.945312 C 466.453125 257.945312 466.277344 257.804688 465.980469 257.554688 C 465.828125 257.441406 465.652344 257.300781 465.4375 257.140625 C 465.234375 256.992188 465.03125 256.765625 464.792969 256.566406 C 464.554688 256.359375 464.308594 256.132812 464.074219 255.867188 C 463.835938 255.601562 463.570312 255.347656 463.347656 255.035156 C 463.109375 254.742188 462.871094 254.429688 462.667969 254.09375 C 462.433594 253.765625 462.234375 253.421875 462.058594 253.054688 C 461.660156 252.347656 461.378906 251.582031 461.117188 250.855469 C 460.875 250.125 460.679688 249.421875 460.539062 248.796875 C 460.402344 248.199219 460.300781 247.6875 460.234375 247.316406 C 463.753906 248.035156 467.300781 248.652344 470.859375 249.175781 C 474.554688 249.71875 478.265625 250.097656 481.996094 250.402344 L 482.308594 250.429688 L 482.523438 250.183594 C 483.175781 249.4375 483.960938 248.710938 484.765625 248.066406 C 485.566406 247.414062 486.433594 246.839844 487.320312 246.3125 C 489.101562 245.273438 491.09375 244.566406 493.152344 244.453125 C 495.207031 244.355469 497.28125 244.863281 499.132812 245.847656 C 499.597656 246.085938 500.054688 246.351562 500.488281 246.660156 C 500.941406 246.929688 501.34375 247.28125 501.765625 247.601562 C 502.578125 248.273438 503.355469 249.003906 504.097656 249.777344 C 503.433594 248.945312 502.746094 248.121094 501.949219 247.386719 C 501.542969 247.035156 501.164062 246.648438 500.71875 246.335938 Z M 331.527344 454.015625 C 331.164062 453.710938 330.789062 453.320312 330.351562 452.949219 C 329.90625 452.570312 329.46875 452.125 329.023438 451.636719 C 328.5625 451.160156 328.085938 450.664062 327.644531 450.09375 C 327.175781 449.550781 326.722656 448.96875 326.292969 448.347656 C 325.832031 447.753906 325.417969 447.109375 325.03125 446.449219 C 324.199219 445.164062 323.53125 443.785156 322.902344 442.484375 C 322.636719 441.8125 322.3125 441.191406 322.085938 440.570312 C 321.84375 439.953125 321.613281 439.367188 321.417969 438.816406 C 321.035156 437.71875 320.714844 436.792969 320.542969 436.125 C 320.363281 435.464844 320.253906 435.082031 320.253906 435.082031 C 320.253906 435.082031 320.191406 436.675781 320.65625 439.027344 C 320.867188 440.203125 321.269531 441.542969 321.777344 442.949219 C 322.070312 443.644531 322.335938 444.375 322.699219 445.078125 C 323.066406 445.777344 323.414062 446.5 323.851562 447.171875 C 324.269531 447.859375 324.722656 448.527344 325.214844 449.144531 C 325.671875 449.796875 326.21875 450.355469 326.734375 450.90625 C 327.21875 451.480469 327.789062 451.945312 328.3125 452.390625 C 328.574219 452.613281 328.828125 452.835938 329.078125 453.039062 C 329.347656 453.222656 329.601562 453.398438 329.851562 453.566406 C 330.351562 453.902344 330.804688 454.210938 331.234375 454.441406 C 331.667969 454.660156 332.046875 454.847656 332.359375 455 C 332.984375 455.300781 333.347656 455.453125 333.347656 455.453125 C 333.347656 455.453125 333.042969 455.195312 332.5 454.773438 C 332.230469 454.5625 331.898438 454.308594 331.527344 454.015625 Z M 98.550781 255.921875 C 98.558594 255.5 98.566406 255.078125 98.65625 254.660156 C 98.773438 253.820312 98.808594 252.960938 99.019531 252.191406 C 99.109375 251.808594 99.175781 251.421875 99.246094 251.0625 C 99.292969 250.6875 99.378906 250.351562 99.496094 250.050781 C 99.890625 248.820312 100.058594 247.898438 100.058594 247.898438 C 100.058594 247.898438 99.484375 248.578125 98.757812 249.75 C 98.664062 249.898438 98.566406 250.050781 98.472656 250.207031 C 98.394531 250.375 98.335938 250.550781 98.257812 250.730469 C 98.125 251.097656 97.96875 251.484375 97.835938 251.894531 C 97.707031 252.300781 97.523438 252.71875 97.484375 253.167969 C 97.421875 253.609375 97.351562 254.066406 97.28125 254.519531 C 97.148438 255.421875 97.230469 256.34375 97.246094 257.195312 C 97.289062 257.621094 97.371094 258.027344 97.4375 258.410156 C 97.492188 258.796875 97.566406 259.152344 97.675781 259.484375 C 97.851562 260.136719 98.054688 260.667969 98.226562 261.03125 C 98.382812 261.394531 98.515625 261.582031 98.515625 261.582031 C 98.515625 261.582031 98.503906 261.355469 98.492188 260.960938 C 98.472656 260.570312 98.472656 260.019531 98.460938 259.363281 C 98.425781 258.714844 98.488281 257.953125 98.464844 257.15625 C 98.492188 256.753906 98.542969 256.339844 98.550781 255.921875 Z M 123.527344 394.351562 C 124.011719 394.183594 124.515625 394.15625 125.015625 394.085938 C 124.53125 394.230469 124.035156 394.351562 123.589844 394.578125 C 123.128906 394.761719 122.6875 394.984375 122.242188 395.222656 C 121.34375 395.664062 120.5 396.21875 119.625 396.714844 C 117.898438 397.722656 116.21875 398.835938 114.539062 399.941406 C 111.210938 402.113281 107.90625 404.347656 104.617188 406.582031 C 103.621094 409.066406 102.484375 411.546875 101.253906 413.980469 C 99.980469 416.417969 98.59375 418.800781 97.101562 421.0625 C 96.398438 422.226562 95.558594 423.28125 94.789062 424.363281 C 94.03125 425.457031 93.191406 426.46875 92.355469 427.453125 C 90.769531 429.496094 88.933594 431.214844 87.265625 432.882812 C 85.472656 434.429688 83.847656 435.972656 82.136719 437.136719 C 81.308594 437.75 80.511719 438.332031 79.757812 438.890625 C 78.953125 439.375 78.1875 439.832031 77.46875 440.261719 C 76.753906 440.695312 76.082031 441.09375 75.464844 441.46875 C 74.835938 441.824219 74.21875 442.078125 73.679688 442.355469 C 71.519531 443.382812 70.285156 443.96875 70.285156 443.96875 C 70.285156 443.96875 71.476562 443.296875 73.558594 442.117188 C 74.070312 441.820312 74.660156 441.527344 75.269531 441.132812 C 75.859375 440.730469 76.503906 440.292969 77.191406 439.828125 C 77.875 439.363281 78.605469 438.863281 79.375 438.34375 C 80.097656 437.765625 80.863281 437.152344 81.660156 436.519531 C 83.304688 435.3125 84.847656 433.734375 86.5625 432.15625 C 88.148438 430.453125 89.871094 428.699219 91.429688 426.691406 C 92.238281 425.71875 93.050781 424.714844 93.78125 423.628906 C 94.527344 422.554688 95.335938 421.511719 96.011719 420.359375 C 97.457031 418.125 98.796875 415.757812 100.023438 413.347656 C 101.277344 410.945312 102.429688 408.488281 103.453125 406.019531 C 103.300781 403.238281 103.027344 400.429688 102.601562 397.664062 C 102.398438 396.25 102.066406 394.871094 101.710938 393.5 C 101.535156 392.808594 101.296875 392.140625 101.050781 391.476562 L 100.605469 390.507812 L 100.058594 389.582031 L 100.757812 390.414062 L 101.332031 391.339844 C 101.667969 391.984375 101.996094 392.640625 102.257812 393.316406 C 102.808594 394.660156 103.1875 396.070312 103.523438 397.480469 C 103.847656 398.886719 104.152344 400.308594 104.34375 401.746094 C 104.414062 402.269531 104.476562 402.789062 104.542969 403.3125 C 105.144531 401.753906 105.722656 400.203125 106.277344 398.679688 C 107.09375 396.257812 108.035156 393.945312 108.675781 391.742188 C 109.320312 389.515625 109.65625 387.339844 110.046875 385.3125 C 110.417969 383.292969 111.097656 381.382812 112.238281 380.070312 C 113.359375 378.75 114.699219 378.046875 115.742188 377.46875 C 116.835938 376.953125 117.714844 376.613281 118.328125 376.425781 C 118.933594 376.21875 119.253906 376.105469 119.253906 376.105469 C 119.253906 376.105469 118.9375 376.238281 118.351562 376.496094 C 118.0625 376.628906 117.691406 376.777344 117.277344 376.976562 C 116.863281 377.1875 116.398438 377.429688 115.867188 377.707031 C 114.871094 378.335938 113.613281 379.097656 112.640625 380.398438 C 111.648438 381.683594 111.128906 383.453125 110.808594 385.453125 C 110.496094 387.453125 110.234375 389.691406 109.648438 392 C 109.054688 394.328125 108.21875 396.644531 107.414062 399.074219 C 106.804688 400.808594 106.160156 402.589844 105.480469 404.375 C 108.234375 402.476562 111.035156 400.644531 113.917969 398.941406 C 115.679688 397.933594 117.449219 396.953125 119.273438 396.054688 C 120.183594 395.605469 121.117188 395.199219 122.070312 394.84375 C 122.539062 394.652344 123.027344 394.484375 123.527344 394.351562 " fill-opacity="1" fill-rule="nonzero"/></svg>