<svg xmlns="http://www.w3.org/2000/svg" xmlns:xlink="http://www.w3.org/1999/xlink" width="800" zoomAndPan="magnify" viewBox="0 0 600 599.999999" height="800" preserveAspectRatio="xMidYMid meet" version="1.0"><defs><clipPath id="0b3f0955ff"><path d="M 4.039062 51 L 555.347656 51 L 555.347656 525.75 L 4.039062 525.75 Z M 4.039062 51 " clip-rule="nonzero"/></clipPath><clipPath id="e8f778002d"><path d="M 0.5 0 L 599.464844 0 L 599.464844 501.667969 L 0.5 501.667969 Z M 0.5 0 " clip-rule="nonzero"/></clipPath></defs><g clip-path="url(#0b3f0955ff)"><path fill="#4ca538" d="M 340.03125 110.539062 C 291.96875 66.820312 287.109375 175.347656 356.558594 170.921875 C 356.558594 170.921875 367.820312 135.820312 340.03125 110.539062 Z M 227.03125 254.378906 C 227.03125 254.378906 198.066406 275.511719 214.300781 316.488281 C 242.371094 387.347656 300.96875 300.511719 227.03125 254.378906 Z M 481.949219 209.667969 C 495.234375 255.722656 552.410156 255.101562 552.410156 255.101562 C 573.675781 187.171875 458.867188 129.640625 481.949219 209.667969 Z M 271.609375 510.558594 C 288.136719 555.414062 344.804688 491.671875 295.222656 440.917969 C 295.222656 440.917969 255.082031 465.703125 271.609375 510.558594 Z M 408.636719 332.074219 C 377.550781 368.5625 409.613281 415.902344 409.613281 415.902344 C 478.003906 396.15625 462.652344 268.675781 408.636719 332.074219 Z M 92.175781 364.191406 C 73.078125 453.605469 164.183594 388.980469 137.03125 329.957031 C 137.03125 329.957031 97.355469 339.921875 92.175781 364.191406 Z M 108.984375 51.507812 C 78.890625 51.953125 80.742188 90.605469 80.742188 90.605469 C 115.828125 120.25 202.652344 50.140625 108.984375 51.507812 Z M 67.382812 197.363281 C 80.371094 283.53125 -23.71875 295.433594 11.898438 228.050781 C 32.492188 189.089844 67.382812 197.363281 67.382812 197.363281 " fill-opacity="1" fill-rule="nonzero"/></g><g clip-path="url(#e8f778002d)"><path fill="#2f6d30" d="M 592.351562 145.988281 C 586.480469 188.347656 577.160156 227.285156 564.648438 261.726562 C 548.878906 305.140625 527.9375 341.53125 502.417969 369.890625 C 459.753906 417.304688 404.078125 442.789062 336.941406 445.632812 C 333.066406 445.792969 329.222656 445.878906 325.421875 445.878906 C 315.3125 445.878906 305.46875 445.28125 295.875 444.128906 C 296.035156 454.472656 296.191406 487.003906 292.25 501.277344 L 291.113281 500.960938 C 295.027344 486.761719 294.851562 454.113281 294.691406 443.980469 C 247.757812 438.085938 207.078125 418.328125 173.382812 384.949219 C 158.960938 370.664062 145.816406 353.8125 134 334.582031 C 126.863281 343.605469 111.082031 365.472656 109.289062 384.316406 L 108.113281 384.203125 C 109.957031 364.832031 126.273438 342.417969 133.339844 333.507812 C 122.980469 316.5 113.65625 297.648438 105.453125 277.019531 C 98.972656 260.722656 93.179688 243.292969 88.089844 224.875 C 78.929688 219.097656 70.441406 212.613281 62.628906 205.4375 C 52.890625 219.628906 32.167969 248.796875 22.246094 255.109375 L 21.613281 254.113281 C 31.257812 247.976562 52.078125 218.671875 61.753906 204.605469 C 55.773438 199.027344 50.183594 193.046875 45.011719 186.636719 C -11.886719 116.089844 1.746094 3.984375 2.351562 0.00390625 L 21.03125 2.839844 C 20.890625 3.738281 8.121094 110.9375 59.8125 174.902344 C 66.144531 182.734375 73.199219 189.875 80.945312 196.332031 C 78.0625 183.535156 75.492188 170.328125 73.246094 156.734375 C 60.757812 81.074219 62.578125 2.539062 62.660156 0.00390625 L 81.539062 0.621094 C 81.527344 1.023438 80.726562 46.136719 83.785156 85.976562 C 91.15625 78.652344 108.585938 66.847656 130.058594 71.292969 L 129.816406 72.453125 C 107.335938 67.800781 90.285156 81.066406 83.914062 87.652344 C 85.46875 107.320312 87.964844 129.988281 91.945312 154.03125 C 94.941406 172.132812 98.980469 192.035156 104.390625 212.578125 C 132.289062 228.519531 166.742188 237.835938 207.457031 240.363281 C 263.078125 243.816406 305.820312 230.628906 334.519531 201.164062 C 343.265625 192.183594 350.382812 182.066406 356.167969 171.273438 L 356.15625 171.277344 C 354.765625 169.699219 321.992188 132.476562 317.292969 118.289062 L 318.3125 117.953125 C 322.730469 131.300781 353.625 166.765625 356.695312 170.261719 C 386.566406 113.488281 379.925781 38.421875 377.46875 10.699219 C 376.511719 -0.109375 395.609375 0.144531 395.613281 0.00390625 C 395.574219 1.066406 395.9375 5.113281 396.28125 9.027344 C 399.414062 44.347656 408.933594 151.839844 348.050781 214.339844 C 319.519531 243.632812 279.589844 258.859375 229.140625 259.746094 C 233.148438 274.417969 243.371094 313.683594 241.59375 326.210938 L 240.421875 326.042969 C 242.15625 313.816406 231.8125 274.09375 227.910156 259.757812 C 226.75 259.777344 225.59375 259.789062 224.425781 259.789062 C 218.519531 259.789062 212.472656 259.601562 206.285156 259.214844 C 170.226562 256.976562 138.589844 249.691406 111.5625 237.457031 C 126.867188 286.070312 150.4375 335.648438 186.703125 371.5625 C 226.25 410.714844 276.53125 429.289062 336.144531 426.761719 C 362.757812 425.636719 387.394531 420.65625 409.960938 411.894531 C 410.863281 397.433594 415.054688 350.621094 431.765625 335.425781 L 432.558594 336.296875 C 416.59375 350.8125 412.210938 396.546875 411.191406 411.425781 C 440.566406 399.796875 466.378906 381.703125 488.382812 357.253906 C 515.566406 327.042969 534.667969 289.613281 548.078125 251.703125 C 535.390625 242.003906 500.847656 213.835938 497.507812 192.226562 L 498.675781 192.046875 C 501.875 212.761719 535.707031 240.636719 548.488281 250.503906 C 561.625 213.023438 569.242188 175.152344 573.640625 143.394531 C 583.347656 73.3125 579.972656 4.113281 579.9375 3.554688 L 598.789062 2.367188 C 598.9375 4.722656 602.320312 74.039062 592.351562 145.988281 " fill-opacity="1" fill-rule="nonzero"/></g></svg>