<svg xmlns="http://www.w3.org/2000/svg" xmlns:xlink="http://www.w3.org/1999/xlink" width="1000" zoomAndPan="magnify" viewBox="0 0 750 749.999995" height="1000" preserveAspectRatio="xMidYMid meet" version="1.0"><defs><clipPath id="d13020e8f4"><path d="M 0 371 L 367 371 L 367 718.5 L 0 718.5 Z M 0 371 " clip-rule="nonzero"/></clipPath><clipPath id="bb02c3ea34"><path d="M 5 449 L 367 449 L 367 718.5 L 5 718.5 Z M 5 449 " clip-rule="nonzero"/></clipPath></defs><path fill="#4d8940" d="M 211.757812 434.285156 C 211.246094 434.285156 210.730469 434.25 210.210938 434.1875 C 203.449219 433.339844 198.652344 427.179688 199.492188 420.417969 C 199.832031 417.707031 208.160156 353.058594 242.605469 268.921875 C 274.441406 191.167969 335.574219 81.796875 446.035156 2.324219 C 451.574219 -1.652344 459.285156 -0.402344 463.265625 5.132812 C 467.246094 10.664062 465.988281 18.378906 460.457031 22.359375 C 354.988281 98.242188 296.359375 203.023438 265.746094 277.5625 C 232.382812 358.792969 224.074219 422.835938 223.992188 423.472656 C 223.207031 429.714844 217.890625 434.285156 211.757812 434.285156 Z M 211.757812 434.285156 " fill-opacity="1" fill-rule="nonzero"/><g clip-path="url(#d13020e8f4)"><path fill="#cc4542" d="M 316.851562 658.261719 C 258.179688 720.585938 198.78125 727.191406 138.667969 711.0625 C 85.257812 696.746094 23.765625 671.425781 5.535156 589.96875 C 3.230469 579.683594 1.628906 568.515625 0.804688 556.359375 L 0.804688 556.234375 C -6.5 447.8125 48.96875 389.683594 97.355469 374.523438 C 145.746094 359.382812 197.074219 398.960938 197.074219 398.960938 C 197.074219 398.960938 208.328125 409.71875 242.417969 408.996094 C 276.53125 408.257812 299.222656 417.308594 299.222656 417.308594 C 319.855469 423.230469 335.203125 434.523438 346.007812 449.292969 C 386.636719 504.789062 363.183594 609.039062 316.851562 658.261719 Z M 316.851562 658.261719 " fill-opacity="1" fill-rule="nonzero"/></g><g clip-path="url(#bb02c3ea34)"><path fill="#b53535" d="M 316.851562 658.261719 C 258.179688 720.585938 198.78125 727.191406 138.667969 711.0625 C 85.257812 696.746094 23.765625 671.425781 5.535156 589.96875 C 35.078125 625.863281 81.265625 648.449219 128.152344 650.28125 C 189.875 652.667969 250.585938 621.769531 290.191406 574.359375 C 319.816406 538.875 338.148438 495.019531 346.003906 449.292969 C 386.636719 504.789062 363.183594 609.039062 316.851562 658.261719 Z M 316.851562 658.261719 " fill-opacity="1" fill-rule="nonzero"/></g><path fill="#4d8940" d="M 533.425781 446.015625 C 530.046875 446.015625 526.679688 444.632812 524.246094 441.925781 C 471.855469 383.683594 437.738281 296.628906 422.835938 183.183594 C 411.824219 99.363281 415.894531 33.363281 416.074219 30.59375 C 416.511719 23.792969 422.421875 18.679688 429.183594 19.074219 C 435.984375 19.511719 441.144531 25.378906 440.710938 32.179688 C 440.542969 34.792969 425.328125 295.035156 542.601562 425.421875 C 547.160156 430.488281 546.746094 438.289062 541.675781 442.847656 C 539.316406 444.96875 536.367188 446.015625 533.425781 446.015625 Z M 533.425781 446.015625 " fill-opacity="1" fill-rule="nonzero"/><path fill="#e28383" d="M 286.046875 482.46875 C 281.28125 473.5625 279.65625 461.207031 287.105469 454.390625 C 291.070312 450.757812 296.886719 449.597656 302.195312 450.464844 C 307.503906 451.335938 312.359375 454.03125 316.636719 457.289062 C 334.296875 470.742188 342.808594 493.960938 341.957031 516.140625 C 341.109375 538.320312 331.886719 559.492188 319.550781 577.945312 C 316.269531 582.859375 311.703125 588.148438 305.808594 587.742188 C 300.042969 587.34375 296.058594 581.304688 295.644531 575.542969 C 295.226562 569.78125 297.382812 564.195312 299.03125 558.65625 C 303.300781 544.332031 304.019531 529.421875 302.117188 514.644531 C 300.507812 502.117188 291.816406 493.261719 286.046875 482.46875 Z M 286.046875 482.46875 " fill-opacity="1" fill-rule="nonzero"/><path fill="#cc4542" d="M 749.347656 545.066406 C 741.386719 630.285156 698.59375 671.980469 641.253906 696.210938 C 583.894531 720.464844 509.894531 740.003906 437.394531 658.917969 C 433.503906 654.578125 429.863281 650.238281 426.425781 645.917969 C 365.816406 569.398438 374.4375 495.617188 401.757812 456.164062 C 430.625 414.46875 495.449219 414.160156 495.449219 414.160156 C 495.449219 414.160156 510.921875 415.722656 537.378906 394.1875 C 563.816406 372.652344 587.3125 365.84375 587.3125 365.84375 C 666.128906 334.082031 731.429688 420.167969 746.589844 499.050781 C 749.675781 515.035156 750.683594 530.707031 749.347656 545.066406 Z M 749.347656 545.066406 " fill-opacity="1" fill-rule="nonzero"/><path fill="#e28383" d="M 616.960938 425.335938 C 607.730469 421.238281 598.851562 412.492188 600.535156 402.535156 C 601.429688 397.234375 605.304688 392.742188 610.023438 390.167969 C 614.746094 387.589844 620.234375 386.730469 625.613281 386.671875 C 647.8125 386.429688 668.796875 399.511719 681.765625 417.527344 C 694.734375 435.546875 700.472656 457.914062 702.09375 480.050781 C 702.523438 485.941406 702.171875 492.921875 697.273438 496.222656 C 692.480469 499.453125 685.625 497.136719 681.753906 492.847656 C 677.886719 488.558594 676.148438 482.828125 674.046875 477.449219 C 668.605469 463.527344 660.007812 451.324219 649.421875 440.835938 C 640.449219 431.945312 628.152344 430.300781 616.960938 425.335938 Z M 616.960938 425.335938 " fill-opacity="1" fill-rule="nonzero"/><path fill="#b53535" d="M 749.347656 545.066406 C 741.386719 630.285156 698.59375 671.980469 641.253906 696.210938 C 583.894531 720.464844 509.894531 740.003906 437.394531 658.917969 C 433.503906 654.578125 429.863281 650.238281 426.425781 645.917969 C 443.296875 646.144531 463.707031 652.851562 479.464844 654.394531 C 500.945312 656.472656 522.566406 657.4375 544.128906 656.347656 C 593.628906 653.839844 643.992188 639.667969 681.847656 607.679688 C 714.558594 580.015625 735.972656 540.5625 746.589844 499.050781 C 749.675781 515.035156 750.683594 530.707031 749.347656 545.066406 Z M 749.347656 545.066406 " fill-opacity="1" fill-rule="nonzero"/></svg>