<svg width="856" height="720" viewBox="0 0 856 720" fill="none" xmlns="http://www.w3.org/2000/svg">
<g filter="url(#filter0_d_37_208)">
<path d="M755.067 468.185C756.585 675.067 621.146 598.771 441.263 600.091C261.381 601.411 101.53 679.873 100.012 472.991C98.494 266.109 243.087 97.3276 422.97 96.0078C602.853 94.688 753.549 261.303 755.067 468.185Z" fill="#FF8282" fill-opacity="0.69" shape-rendering="crispEdges"/>
</g>
<ellipse cx="536.763" cy="308.591" rx="28.5" ry="39" fill="black"/>
<ellipse cx="543.763" cy="287.591" rx="7.5" ry="8" fill="#FFFBFB"/>
<ellipse cx="316.763" cy="308.591" rx="28.5" ry="39" fill="black"/>
<ellipse cx="323.763" cy="287.591" rx="7.5" ry="8" fill="#FFFBFB"/>
<path d="M747.549 266.069H748.204" stroke="black" stroke-width="2" stroke-linecap="round"/>
<g filter="url(#filter1_f_37_208)">
<ellipse cx="249.263" cy="400.591" rx="67" ry="30" fill="#FF8375"/>
</g>
<g filter="url(#filter2_f_37_208)">
<ellipse cx="603.263" cy="400.591" rx="67" ry="30" fill="#FF8375"/>
</g>
<g filter="url(#filter3_f_37_208)">
<ellipse cx="426.263" cy="390.091" rx="110" ry="81.5" fill="#FFC4C4"/>
</g>
<path d="M364.263 411.591C364.263 411.591 364.578 469.591 427.705 469.591C488.578 469.591 488.263 411.591 488.263 411.591" stroke="#252525" stroke-width="5" stroke-linecap="round"/>
<defs>
<filter id="filter0_d_37_208" x="0" y="0" width="855.079" height="719.768" filterUnits="userSpaceOnUse" color-interpolation-filters="sRGB">
<feFlood flood-opacity="0" result="BackgroundImageFix"/>
<feColorMatrix in="SourceAlpha" type="matrix" values="0 0 0 0 0 0 0 0 0 0 0 0 0 0 0 0 0 0 127 0" result="hardAlpha"/>
<feOffset dy="4"/>
<feGaussianBlur stdDeviation="50"/>
<feComposite in2="hardAlpha" operator="out"/>
<feColorMatrix type="matrix" values="0 0 0 0 1 0 0 0 0 0.509804 0 0 0 0 0.509804 0 0 0 1 0"/>
<feBlend mode="normal" in2="BackgroundImageFix" result="effect1_dropShadow_37_208"/>
<feBlend mode="normal" in="SourceGraphic" in2="effect1_dropShadow_37_208" result="shape"/>
</filter>
<filter id="filter1_f_37_208" x="153.263" y="341.591" width="192" height="118" filterUnits="userSpaceOnUse" color-interpolation-filters="sRGB">
<feFlood flood-opacity="0" result="BackgroundImageFix"/>
<feBlend mode="normal" in="SourceGraphic" in2="BackgroundImageFix" result="shape"/>
<feGaussianBlur stdDeviation="14.5" result="effect1_foregroundBlur_37_208"/>
</filter>
<filter id="filter2_f_37_208" x="507.263" y="341.591" width="192" height="118" filterUnits="userSpaceOnUse" color-interpolation-filters="sRGB">
<feFlood flood-opacity="0" result="BackgroundImageFix"/>
<feBlend mode="normal" in="SourceGraphic" in2="BackgroundImageFix" result="shape"/>
<feGaussianBlur stdDeviation="14.5" result="effect1_foregroundBlur_37_208"/>
</filter>
<filter id="filter3_f_37_208" x="216.263" y="208.591" width="420" height="363" filterUnits="userSpaceOnUse" color-interpolation-filters="sRGB">
<feFlood flood-opacity="0" result="BackgroundImageFix"/>
<feBlend mode="normal" in="SourceGraphic" in2="BackgroundImageFix" result="shape"/>
<feGaussianBlur stdDeviation="50" result="effect1_foregroundBlur_37_208"/>
</filter>
</defs>
</svg>
