<svg width="856" height="734" viewBox="0 0 856 734" fill="none" xmlns="http://www.w3.org/2000/svg">
<g filter="url(#filter0_d_69_2119)">
<path d="M755.067 468.185C756.585 675.067 621.646 619.771 441.763 621.091C261.88 622.411 101.53 679.873 100.012 472.991C98.4939 266.109 243.087 97.3275 422.97 96.0077C602.853 94.6879 753.549 261.302 755.067 468.185Z" fill="#F1FF54" fill-opacity="0.73" shape-rendering="crispEdges"/>
</g>
<g filter="url(#filter1_f_69_2119)">
<ellipse cx="246.263" cy="443.591" rx="67" ry="30" fill="#FFFA6E"/>
</g>
<g filter="url(#filter2_f_69_2119)">
<ellipse cx="620.263" cy="443.591" rx="67" ry="30" fill="#FFFA6E"/>
</g>
<g filter="url(#filter3_f_69_2119)">
<ellipse cx="437.263" cy="370.091" rx="110" ry="81.5" fill="#FFF700"/>
</g>
<g filter="url(#filter4_f_69_2119)">
<path d="M219.146 244.787C213.529 228.603 252.934 185.377 288.424 167.01C323.915 148.643 358.991 156.47 364.608 172.654C370.225 188.838 332.899 190.635 297.408 209.002C261.917 227.369 224.763 260.971 219.146 244.787Z" fill="white" fill-opacity="0.5"/>
</g>
<g filter="url(#filter5_f_69_2119)">
<path d="M166.763 481.591C166.763 494.294 156.466 504.591 143.763 504.591C131.061 504.591 126.264 495.794 126.264 483.091C126.264 470.389 131.061 458.591 143.763 458.591C156.466 458.591 166.763 468.889 166.763 481.591Z" fill="#C3BC00"/>
</g>
<g filter="url(#filter6_f_69_2119)">
<path d="M664.274 613.097C651.572 613.101 641.271 602.806 641.268 590.103C641.265 577.401 650.061 572.601 662.763 572.598C675.466 572.595 687.265 577.389 687.268 590.091C687.271 602.794 676.977 613.094 664.274 613.097Z" fill="#C3BC00"/>
</g>
<g filter="url(#filter7_f_69_2119)">
<path d="M576.274 215.097C563.572 215.101 553.271 204.806 553.268 192.103C553.265 179.401 562.061 174.601 574.763 174.598C587.466 174.595 599.265 179.389 599.268 192.091C599.271 204.794 588.977 215.094 576.274 215.097Z" fill="#C3BC00"/>
</g>
<defs>
<filter id="filter0_d_69_2119" x="0" y="0" width="855.079" height="733.393" filterUnits="userSpaceOnUse" color-interpolation-filters="sRGB">
<feFlood flood-opacity="0" result="BackgroundImageFix"/>
<feColorMatrix in="SourceAlpha" type="matrix" values="0 0 0 0 0 0 0 0 0 0 0 0 0 0 0 0 0 0 127 0" result="hardAlpha"/>
<feOffset dy="4"/>
<feGaussianBlur stdDeviation="50"/>
<feComposite in2="hardAlpha" operator="out"/>
<feColorMatrix type="matrix" values="0 0 0 0 1 0 0 0 0 0.966667 0 0 0 0 0 0 0 0 1 0"/>
<feBlend mode="normal" in2="BackgroundImageFix" result="effect1_dropShadow_69_2119"/>
<feBlend mode="normal" in="SourceGraphic" in2="effect1_dropShadow_69_2119" result="shape"/>
</filter>
<filter id="filter1_f_69_2119" x="150.263" y="384.591" width="192" height="118" filterUnits="userSpaceOnUse" color-interpolation-filters="sRGB">
<feFlood flood-opacity="0" result="BackgroundImageFix"/>
<feBlend mode="normal" in="SourceGraphic" in2="BackgroundImageFix" result="shape"/>
<feGaussianBlur stdDeviation="14.5" result="effect1_foregroundBlur_69_2119"/>
</filter>
<filter id="filter2_f_69_2119" x="524.263" y="384.591" width="192" height="118" filterUnits="userSpaceOnUse" color-interpolation-filters="sRGB">
<feFlood flood-opacity="0" result="BackgroundImageFix"/>
<feBlend mode="normal" in="SourceGraphic" in2="BackgroundImageFix" result="shape"/>
<feGaussianBlur stdDeviation="14.5" result="effect1_foregroundBlur_69_2119"/>
</filter>
<filter id="filter3_f_69_2119" x="227.263" y="188.591" width="420" height="363" filterUnits="userSpaceOnUse" color-interpolation-filters="sRGB">
<feFlood flood-opacity="0" result="BackgroundImageFix"/>
<feBlend mode="normal" in="SourceGraphic" in2="BackgroundImageFix" result="shape"/>
<feGaussianBlur stdDeviation="50" result="effect1_foregroundBlur_69_2119"/>
</filter>
<filter id="filter4_f_69_2119" x="168.608" y="106.398" width="246.564" height="192.67" filterUnits="userSpaceOnUse" color-interpolation-filters="sRGB">
<feFlood flood-opacity="0" result="BackgroundImageFix"/>
<feBlend mode="normal" in="SourceGraphic" in2="BackgroundImageFix" result="shape"/>
<feGaussianBlur stdDeviation="25" result="effect1_foregroundBlur_69_2119"/>
</filter>
<filter id="filter5_f_69_2119" x="76.2636" y="408.591" width="140.5" height="146" filterUnits="userSpaceOnUse" color-interpolation-filters="sRGB">
<feFlood flood-opacity="0" result="BackgroundImageFix"/>
<feBlend mode="normal" in="SourceGraphic" in2="BackgroundImageFix" result="shape"/>
<feGaussianBlur stdDeviation="25" result="effect1_foregroundBlur_69_2119"/>
</filter>
<filter id="filter6_f_69_2119" x="591.268" y="522.598" width="146" height="140.5" filterUnits="userSpaceOnUse" color-interpolation-filters="sRGB">
<feFlood flood-opacity="0" result="BackgroundImageFix"/>
<feBlend mode="normal" in="SourceGraphic" in2="BackgroundImageFix" result="shape"/>
<feGaussianBlur stdDeviation="25" result="effect1_foregroundBlur_69_2119"/>
</filter>
<filter id="filter7_f_69_2119" x="503.268" y="124.598" width="146" height="140.5" filterUnits="userSpaceOnUse" color-interpolation-filters="sRGB">
<feFlood flood-opacity="0" result="BackgroundImageFix"/>
<feBlend mode="normal" in="SourceGraphic" in2="BackgroundImageFix" result="shape"/>
<feGaussianBlur stdDeviation="25" result="effect1_foregroundBlur_69_2119"/>
</filter>
</defs>
</svg>
