<svg xmlns="http://www.w3.org/2000/svg" xmlns:xlink="http://www.w3.org/1999/xlink" width="1000" zoomAndPan="magnify" viewBox="0 0 750 749.999995" height="1000" preserveAspectRatio="xMidYMid meet" version="1.0"><defs><clipPath id="2afc46e3be"><path d="M 239 252 L 564 252 L 564 451 L 239 451 Z M 239 252 " clip-rule="nonzero"/></clipPath><clipPath id="991e47d715"><path d="M 459.667969 128.730469 C 445.234375 124.414062 183.964844 582.808594 164.242188 622.089844 C 144.527344 661.375 228.941406 719.15625 382.457031 734.34375 C 535.96875 749.535156 605.753906 697.832031 600.691406 667.949219 C 595.640625 638.070312 474.101562 133.035156 459.667969 128.730469 Z M 459.667969 128.730469 " clip-rule="nonzero"/></clipPath><clipPath id="5cd03ddf04"><path d="M 161 429 L 601 429 L 601 679 L 161 679 Z M 161 429 " clip-rule="nonzero"/></clipPath><clipPath id="ee202c48e8"><path d="M 459.667969 128.730469 C 445.234375 124.414062 183.964844 582.808594 164.242188 622.089844 C 144.527344 661.375 228.941406 719.15625 382.457031 734.34375 C 535.96875 749.535156 605.753906 697.832031 600.691406 667.949219 C 595.640625 638.070312 474.101562 133.035156 459.667969 128.730469 Z M 459.667969 128.730469 " clip-rule="nonzero"/></clipPath><clipPath id="d6c6ba7c36"><path d="M 294 202 L 540 202 L 540 360 L 294 360 Z M 294 202 " clip-rule="nonzero"/></clipPath><clipPath id="24c339bc82"><path d="M 459.667969 128.730469 C 445.234375 124.414062 183.964844 582.808594 164.242188 622.089844 C 144.527344 661.375 228.941406 719.15625 382.457031 734.34375 C 535.96875 749.535156 605.753906 697.832031 600.691406 667.949219 C 595.640625 638.070312 474.101562 133.035156 459.667969 128.730469 Z M 459.667969 128.730469 " clip-rule="nonzero"/></clipPath><clipPath id="c6f3ee732a"><path d="M 161 498 L 601 498 L 601 737.785156 L 161 737.785156 Z M 161 498 " clip-rule="nonzero"/></clipPath><clipPath id="cc98a28fd0"><path d="M 459.667969 128.730469 C 445.234375 124.414062 183.964844 582.808594 164.242188 622.089844 C 144.527344 661.375 228.941406 719.15625 382.457031 734.34375 C 535.96875 749.535156 605.753906 697.832031 600.691406 667.949219 C 595.640625 638.070312 474.101562 133.035156 459.667969 128.730469 Z M 459.667969 128.730469 " clip-rule="nonzero"/></clipPath><clipPath id="d58b2d67b5"><path d="M 440 128.367188 L 601 128.367188 L 601 737.785156 L 440 737.785156 Z M 440 128.367188 " clip-rule="nonzero"/></clipPath><clipPath id="66ce6a97f2"><path d="M 459.667969 128.730469 C 445.234375 124.414062 183.964844 582.808594 164.242188 622.089844 C 144.527344 661.375 228.941406 719.15625 382.457031 734.34375 C 535.96875 749.535156 605.753906 697.832031 600.691406 667.949219 C 595.640625 638.070312 474.101562 133.035156 459.667969 128.730469 Z M 459.667969 128.730469 " clip-rule="nonzero"/></clipPath></defs><path fill="#ff6021" d="M 431.441406 208.964844 C 454.421875 210.550781 462.214844 223.363281 461.640625 239.140625 C 461.070312 254.921875 445.632812 266.863281 427.117188 265.9375 C 408.601562 265.011719 393.40625 253.5625 394.160156 236.90625 C 394.910156 220.25 408.464844 207.378906 431.441406 208.964844 Z M 431.441406 208.964844 " fill-opacity="1" fill-rule="nonzero"/><path fill="#ff868e" d="M 459.667969 128.730469 C 445.234375 124.414062 183.964844 582.808594 164.242188 622.089844 C 144.527344 661.375 228.941406 719.15625 382.457031 734.34375 C 535.96875 749.535156 605.753906 697.832031 600.691406 667.949219 C 595.640625 638.070312 474.101562 133.035156 459.667969 128.730469 Z M 459.667969 128.730469 " fill-opacity="1" fill-rule="nonzero"/><g clip-path="url(#2afc46e3be)"><g clip-path="url(#991e47d715)"><path fill="#85d4ff" d="M 239.546875 447.734375 C 239.546875 447.734375 297.117188 461.609375 401.21875 423.011719 C 505.320312 384.414062 563.636719 325.824219 563.636719 325.824219 L 527.480469 252.398438 L 303.164062 331.960938 Z M 239.546875 447.734375 " fill-opacity="1" fill-rule="nonzero"/></g></g><g clip-path="url(#5cd03ddf04)"><g clip-path="url(#ee202c48e8)"><path fill="#ffd026" d="M 608.394531 560.34375 L 561.492188 429.359375 C 561.492188 429.359375 483.902344 493.410156 362.921875 530.429688 C 241.941406 567.441406 191.371094 536.535156 191.371094 536.535156 L 134.472656 625.273438 L 279.808594 678.023438 Z M 608.394531 560.34375 " fill-opacity="1" fill-rule="nonzero"/></g></g><g clip-path="url(#d6c6ba7c36)"><g clip-path="url(#24c339bc82)"><path fill="#ffd026" d="M 510.558594 202.785156 C 510.558594 202.785156 466.730469 231.613281 412.667969 243.726562 C 358.613281 255.839844 330.242188 255.441406 330.242188 255.441406 L 294.410156 359.507812 C 294.410156 359.507812 344.222656 357.527344 425.53125 323.878906 C 506.839844 290.230469 539.921875 259.867188 539.921875 259.867188 Z M 510.558594 202.785156 " fill-opacity="1" fill-rule="nonzero"/></g></g><g clip-path="url(#c6f3ee732a)"><g clip-path="url(#cc98a28fd0)"><path fill="#85d4ff" d="M 616.195312 583.535156 C 616.195312 583.535156 579.265625 630.9375 477.898438 682.691406 C 376.527344 734.445312 297.261719 753.167969 297.261719 753.167969 L 131.992188 677.375 L 150.417969 609.292969 C 150.417969 609.292969 223.324219 678.984375 376.402344 626.210938 C 529.480469 573.4375 594.027344 498.011719 594.027344 498.011719 L 634.179688 562.386719 L 659.65625 669.046875 " fill-opacity="1" fill-rule="nonzero"/></g></g><g clip-path="url(#d58b2d67b5)"><g clip-path="url(#66ce6a97f2)"><path fill="#290f2d" d="M 644.566406 641.894531 L 494.320312 95.695312 L 440.714844 119.085938 C 440.714844 119.085938 505.640625 418.59375 521.5 570.984375 C 537.359375 723.378906 531.320312 775.429688 531.320312 775.429688 L 651.363281 745.253906 L 649.855469 636.621094 " fill-opacity="0.127" fill-rule="nonzero"/></g></g><path fill="#b951ff" d="M 512.84375 179.757812 C 512.761719 187.671875 503.632812 192.046875 497.398438 187.167969 L 458.902344 157.027344 C 456.429688 155.085938 453.15625 154.488281 450.152344 155.433594 L 403.480469 170.03125 C 395.921875 172.390625 388.929688 165.074219 391.652344 157.640625 L 408.449219 111.746094 C 409.527344 108.796875 409.089844 105.5 407.265625 102.9375 L 378.949219 63.09375 C 374.359375 56.644531 379.175781 47.734375 387.089844 48.023438 L 435.964844 49.800781 C 439.109375 49.917969 442.105469 48.476562 443.976562 45.957031 L 473.15625 6.738281 C 477.878906 0.390625 487.84375 2.203125 490.011719 9.8125 L 503.421875 56.8125 C 504.285156 59.839844 506.578125 62.242188 509.5625 63.246094 L 555.910156 78.847656 C 563.414062 81.375 564.757812 91.40625 558.1875 95.8125 L 517.59375 123.082031 C 514.988281 124.835938 513.402344 127.761719 513.367188 130.902344 Z M 512.84375 179.757812 " fill-opacity="1" fill-rule="nonzero"/><path fill="#ddacff" d="M 474.3125 14.035156 C 474.3125 14.035156 452.464844 51.015625 443.765625 55.785156 C 435.070312 60.554688 386.507812 52.210938 386.507812 52.210938 C 386.507812 52.210938 432.261719 68.359375 443.808594 62.671875 C 455.359375 56.972656 474.3125 14.035156 474.3125 14.035156 Z M 474.3125 14.035156 " fill-opacity="1" fill-rule="nonzero"/><path fill="#ddacff" d="M 384.492188 64.828125 C 384.492188 64.828125 413.980469 96.066406 416.148438 105.734375 C 418.316406 115.402344 396.824219 159.714844 396.824219 159.714844 C 396.824219 159.714844 425.050781 120.265625 422.78125 107.605469 C 420.519531 94.945312 384.492188 64.828125 384.492188 64.828125 Z M 384.492188 64.828125 " fill-opacity="1" fill-rule="nonzero"/><path fill="#ddacff" d="M 405.984375 164.949219 C 405.984375 164.949219 445.015625 146.976562 454.878906 148.007812 C 464.746094 149.035156 499.914062 183.519531 499.914062 183.519531 C 499.914062 183.519531 471.503906 144.214844 458.765625 142.324219 C 446.035156 140.429688 405.984375 164.949219 405.984375 164.949219 Z M 405.984375 164.949219 " fill-opacity="1" fill-rule="nonzero"/><path fill="#ddacff" d="M 509.824219 176.226562 C 509.824219 176.226562 504.664062 133.601562 508.660156 124.53125 C 512.660156 115.460938 556.289062 92.570312 556.289062 92.570312 C 556.289062 92.570312 510.136719 107.554688 504.433594 119.085938 C 498.742188 130.617188 509.824219 176.226562 509.824219 176.226562 Z M 509.824219 176.226562 " fill-opacity="1" fill-rule="nonzero"/><path fill="#ddacff" d="M 549.648438 81.25 C 549.648438 81.25 507.675781 72.054688 500.429688 65.285156 C 493.183594 58.515625 485.953125 9.8125 485.953125 9.8125 C 485.953125 9.8125 484.882812 58.289062 493.898438 67.476562 C 502.910156 76.65625 549.648438 81.25 549.648438 81.25 Z M 549.648438 81.25 " fill-opacity="1" fill-rule="nonzero"/></svg>