<svg xmlns="http://www.w3.org/2000/svg" xmlns:xlink="http://www.w3.org/1999/xlink" width="1000" zoomAndPan="magnify" viewBox="0 0 750 749.999995" height="1000" preserveAspectRatio="xMidYMid meet" version="1.0"><defs><clipPath id="f0903a1f22"><path d="M 422 201 L 745 201 L 745 573.78125 L 422 573.78125 Z M 422 201 " clip-rule="nonzero"/></clipPath><clipPath id="7bd70c6d00"><path d="M 28 201 L 351 201 L 351 573.78125 L 28 573.78125 Z M 28 201 " clip-rule="nonzero"/></clipPath></defs><path fill="#5e17eb" d="M 430.859375 343.058594 C 430.859375 343.058594 505.421875 256.523438 652.621094 214.78125 C 678.941406 207.324219 705.941406 224.550781 710.628906 251.496094 C 720.742188 309.957031 735.316406 413.550781 733.5625 516.75 C 733.167969 541.773438 713.117188 561.996094 688.09375 562.503906 C 628.726562 563.574219 519.992188 550.921875 430.859375 459.078125 " fill-opacity="1" fill-rule="nonzero"/><g clip-path="url(#f0903a1f22)"><path fill="#2c0a71" d="M 681.539062 573.855469 C 620.59375 573.855469 511.972656 558.945312 422.726562 466.929688 L 438.9375 451.171875 C 525.640625 540.53125 632.058594 552.109375 687.867188 551.207031 C 706.789062 550.867188 721.929688 535.671875 722.210938 516.582031 C 723.960938 412.476562 708.652344 307.019531 699.390625 253.417969 C 697.695312 243.644531 691.933594 235.003906 683.519531 229.691406 C 675.046875 224.382812 665.160156 222.914062 655.613281 225.625 C 513.835938 265.898438 440.125 349.609375 439.390625 350.457031 L 422.273438 335.714844 C 425.382812 332.101562 500.789062 246.128906 649.515625 203.9375 C 665.046875 199.53125 681.878906 201.957031 695.605469 210.601562 C 709.445312 219.300781 718.933594 233.535156 721.703125 249.574219 C 731.078125 303.96875 746.613281 411.011719 744.804688 516.917969 C 744.296875 548.210938 719.441406 573.179688 688.261719 573.742188 C 686.117188 573.855469 683.855469 573.855469 681.539062 573.855469 Z M 681.539062 573.855469 " fill-opacity="1" fill-rule="nonzero"/></g><path fill="#5e17eb" d="M 342.179688 343.058594 C 342.179688 343.058594 267.617188 256.523438 120.417969 214.78125 C 94.152344 207.324219 67.097656 224.550781 62.464844 251.496094 C 52.355469 310.015625 37.78125 413.609375 39.476562 516.75 C 39.871094 541.773438 59.921875 561.996094 84.945312 562.503906 C 144.3125 563.574219 253.046875 550.921875 342.179688 459.078125 " fill-opacity="1" fill-rule="nonzero"/><g clip-path="url(#7bd70c6d00)"><path fill="#2c0a71" d="M 91.496094 573.855469 C 89.183594 573.855469 86.921875 573.855469 84.777344 573.800781 C 53.597656 573.234375 28.742188 548.269531 28.234375 516.976562 C 26.425781 411.011719 41.902344 303.96875 51.335938 249.574219 C 54.105469 233.535156 63.652344 219.300781 77.433594 210.601562 C 91.160156 201.957031 107.992188 199.53125 123.523438 203.9375 C 272.25 246.074219 347.601562 332.042969 350.765625 335.714844 L 333.648438 350.457031 C 332.914062 349.609375 259.203125 265.898438 117.367188 225.683594 C 107.820312 222.972656 97.9375 224.441406 89.464844 229.75 C 81.046875 235.058594 75.230469 243.699219 73.59375 253.472656 C 64.328125 307.019531 49.078125 412.476562 50.773438 516.582031 C 51.109375 535.671875 66.191406 550.867188 85.113281 551.207031 C 140.808594 552.167969 247.339844 540.585938 334.042969 451.171875 L 350.257812 466.929688 C 261.066406 558.945312 152.445312 573.855469 91.496094 573.855469 Z M 91.496094 573.855469 " fill-opacity="1" fill-rule="nonzero"/></g><path fill="#5e17eb" d="M 342.179688 343.058594 L 430.804688 343.058594 L 430.804688 459.023438 L 342.179688 459.023438 Z M 342.179688 343.058594 " fill-opacity="1" fill-rule="nonzero"/><path fill="#2c0a71" d="M 442.15625 470.375 L 330.882812 470.375 L 330.882812 331.761719 L 442.15625 331.761719 Z M 353.476562 447.78125 L 419.5625 447.78125 L 419.5625 354.355469 L 353.476562 354.355469 Z M 353.476562 447.78125 " fill-opacity="1" fill-rule="nonzero"/><path fill="#5e17eb" d="M 430.859375 387.285156 L 538.972656 355.484375 " fill-opacity="1" fill-rule="nonzero"/><path fill="#2c0a71" d="M 430.859375 398.582031 C 426.003906 398.582031 421.484375 395.421875 420.015625 390.449219 C 418.265625 384.460938 421.652344 378.191406 427.640625 376.441406 L 535.808594 344.640625 C 541.796875 342.890625 548.066406 346.277344 549.816406 352.265625 C 551.570312 358.253906 548.179688 364.523438 542.191406 366.273438 L 434.023438 398.074219 C 432.949219 398.46875 431.875 398.582031 430.859375 398.582031 Z M 430.859375 398.582031 " fill-opacity="1" fill-rule="nonzero"/><path fill="#5e17eb" d="M 438.148438 418.863281 L 545.808594 452.46875 " fill-opacity="1" fill-rule="nonzero"/><path fill="#2c0a71" d="M 545.808594 463.765625 C 544.675781 463.765625 543.546875 463.597656 542.417969 463.257812 L 434.8125 429.707031 C 428.882812 427.84375 425.550781 421.515625 427.414062 415.585938 C 429.277344 409.597656 435.605469 406.320312 441.535156 408.1875 L 549.140625 441.738281 C 555.070312 443.601562 558.402344 449.929688 556.539062 455.859375 C 555.070312 460.660156 550.609375 463.765625 545.808594 463.765625 Z M 545.808594 463.765625 " fill-opacity="1" fill-rule="nonzero"/><path fill="#5e17eb" d="M 339.523438 387.285156 L 231.410156 355.484375 " fill-opacity="1" fill-rule="nonzero"/><path fill="#2c0a71" d="M 339.523438 398.582031 C 338.449219 398.582031 337.378906 398.414062 336.304688 398.132812 L 228.136719 366.332031 C 222.148438 364.578125 218.703125 358.308594 220.511719 352.320312 C 222.261719 346.335938 228.53125 342.890625 234.519531 344.695312 L 342.6875 376.496094 C 348.675781 378.25 352.121094 384.519531 350.3125 390.503906 C 348.898438 395.421875 344.4375 398.582031 339.523438 398.582031 Z M 339.523438 398.582031 " fill-opacity="1" fill-rule="nonzero"/><path fill="#5e17eb" d="M 332.179688 418.863281 L 224.578125 452.46875 " fill-opacity="1" fill-rule="nonzero"/><path fill="#2c0a71" d="M 224.578125 463.765625 C 219.777344 463.765625 215.3125 460.660156 213.789062 455.800781 C 211.925781 449.871094 215.257812 443.488281 221.1875 441.679688 L 328.792969 408.128906 C 334.722656 406.265625 341.105469 409.597656 342.914062 415.527344 C 344.777344 421.460938 341.445312 427.84375 335.511719 429.648438 L 227.910156 463.203125 C 226.835938 463.597656 225.707031 463.765625 224.578125 463.765625 Z M 224.578125 463.765625 " fill-opacity="1" fill-rule="nonzero"/></svg>