<svg xmlns="http://www.w3.org/2000/svg" xmlns:xlink="http://www.w3.org/1999/xlink" width="1000" zoomAndPan="magnify" viewBox="0 0 750 749.999995" height="1000" preserveAspectRatio="xMidYMid meet" version="1.0"><defs><clipPath id="69eef782ea"><path d="M 0 209.316406 L 321 209.316406 L 321 531 L 0 531 Z M 0 209.316406 " clip-rule="nonzero"/></clipPath></defs><g clip-path="url(#69eef782ea)"><path fill="#000000" d="M 143.078125 210.539062 C 138.5 210.996094 133.921875 211.761719 129.34375 212.675781 C 127.816406 212.984375 126.136719 213.289062 124.609375 213.59375 C 122.015625 214.050781 119.421875 214.816406 116.828125 215.578125 C 108.125 218.023438 99.425781 221.382812 91.183594 225.199219 C 91.03125 225.351562 90.878906 225.351562 90.574219 225.503906 C 87.980469 226.726562 85.539062 227.945312 83.09375 229.320312 C 73.9375 234.359375 65.390625 240.46875 57.453125 247.035156 C 51.5 251.921875 46.007812 257.417969 40.816406 263.066406 C 40.054688 263.984375 39.136719 264.898438 38.375 265.816406 C 33.492188 271.617188 28.910156 277.726562 24.945312 284.136719 C 21.738281 289.023438 18.992188 294.214844 16.394531 299.5625 C 14.105469 304.292969 12.121094 309.027344 10.292969 313.914062 C 9.070312 317.425781 7.847656 320.9375 6.78125 324.449219 C 3.421875 335.597656 1.589844 347.046875 0.675781 358.652344 C 0.371094 361.707031 0.371094 364.609375 0.21875 367.664062 C 0.21875 367.96875 0.21875 368.121094 0.21875 368.425781 C 0.0664062 378.046875 0.980469 387.664062 2.507812 397.132812 C 2.964844 400.339844 3.726562 403.699219 4.492188 406.90625 C 5.710938 412.097656 7.238281 417.136719 8.917969 422.175781 C 9.527344 424.007812 10.292969 425.839844 10.902344 427.671875 C 12.121094 430.574219 13.34375 433.625 14.566406 436.375 C 14.871094 437.136719 15.175781 437.902344 15.632812 438.664062 C 18.074219 443.855469 20.824219 449.046875 23.875 453.933594 C 24.636719 455.15625 25.402344 456.226562 26.011719 457.445312 C 30.894531 464.929688 36.390625 471.953125 42.34375 478.367188 C 47.378906 483.863281 52.722656 488.902344 58.371094 493.636719 C 61.574219 496.382812 64.933594 498.828125 68.441406 501.269531 C 69.96875 502.339844 71.496094 503.40625 73.175781 504.476562 C 76.53125 506.765625 80.042969 508.753906 83.707031 510.738281 C 83.707031 510.738281 83.859375 510.738281 83.859375 510.890625 C 90.878906 514.707031 98.054688 517.914062 105.53125 520.664062 C 116.0625 524.632812 127.054688 527.226562 138.347656 528.753906 C 150.40625 530.433594 162.308594 530.742188 174.367188 529.671875 C 186.882812 528.601562 199.09375 526.007812 211 522.191406 C 233.4375 514.859375 253.886719 502.339844 270.984375 486.152344 C 279.53125 478.214844 286.855469 469.050781 293.417969 459.585938 C 300.289062 449.660156 305.628906 438.816406 310.054688 427.671875 C 314.480469 416.523438 317.382812 404.765625 319.0625 392.855469 C 320.738281 380.488281 321.199219 368.121094 320.128906 355.601562 C 317.992188 331.78125 310.515625 308.570312 298.304688 287.957031 C 292.808594 278.183594 285.789062 269.023438 278.003906 260.625 C 270.21875 252.226562 261.519531 244.894531 252.210938 238.175781 C 243.355469 231.917969 233.742188 226.574219 223.667969 222.296875 C 213.136719 217.867188 202.300781 214.355469 191.003906 212.21875 C 181.695312 210.386719 172.382812 209.472656 162.921875 209.316406 C 162.617188 209.316406 162.308594 209.316406 161.851562 209.316406 C 161.546875 209.316406 161.394531 209.316406 161.089844 209.316406 C 155.136719 209.472656 149.183594 209.777344 143.078125 210.539062 Z M 179.40625 229.777344 C 191.769531 231.613281 203.824219 234.816406 215.273438 239.550781 C 226.566406 244.4375 237.097656 250.546875 246.867188 258.027344 C 256.332031 265.511719 264.878906 274.0625 272.355469 283.527344 C 279.835938 293.300781 285.941406 303.835938 290.824219 315.136719 C 295.554688 326.742188 298.914062 338.804688 300.59375 351.324219 C 302.121094 363.84375 302.121094 376.519531 300.59375 389.191406 C 298.761719 401.5625 295.402344 413.625 290.671875 425.226562 C 285.789062 436.375 279.683594 446.910156 272.355469 456.53125 C 264.878906 465.996094 256.332031 474.546875 246.867188 482.03125 C 237.097656 489.359375 226.566406 495.621094 215.425781 500.507812 C 203.824219 505.242188 191.769531 508.601562 179.253906 510.277344 C 166.738281 511.804688 154.222656 511.804688 141.707031 510.277344 C 130.105469 508.597656 118.8125 505.546875 107.820312 501.269531 C 107.058594 500.964844 106.296875 500.660156 105.683594 500.355469 C 103.089844 499.285156 100.496094 498.0625 98.054688 496.691406 C 97.902344 496.535156 97.746094 496.535156 97.59375 496.382812 C 97.441406 496.382812 97.441406 496.230469 97.289062 496.230469 C 97.136719 496.230469 97.136719 496.078125 96.984375 496.078125 C 89.046875 491.957031 81.417969 487.222656 74.242188 481.726562 C 67.375 476.226562 60.964844 470.273438 55.164062 463.707031 C 55.164062 463.707031 55.164062 463.707031 55.164062 463.554688 C 55.011719 463.402344 55.011719 463.402344 54.859375 463.25 C 54.707031 463.097656 54.707031 463.097656 54.554688 462.945312 C 54.554688 462.945312 54.554688 462.792969 54.402344 462.792969 C 52.417969 460.652344 50.585938 458.363281 48.753906 456.074219 C 41.734375 446.757812 35.78125 436.679688 30.894531 425.992188 C 30.894531 425.992188 30.894531 425.839844 30.894531 425.839844 C 30.894531 425.839844 30.894531 425.6875 30.742188 425.6875 C 30.589844 425.382812 30.4375 424.921875 30.285156 424.617188 C 29.675781 423.242188 29.21875 422.023438 28.757812 420.648438 C 28.757812 420.496094 28.605469 420.34375 28.605469 420.1875 C 28.605469 420.1875 28.605469 420.1875 28.605469 420.035156 C 25.097656 410.722656 22.652344 401.253906 20.976562 391.484375 C 20.976562 391.484375 20.976562 391.332031 20.976562 391.332031 C 20.976562 391.175781 20.976562 391.023438 20.976562 391.023438 C 20.976562 390.871094 20.976562 390.871094 20.976562 390.71875 C 20.976562 390.71875 20.976562 390.566406 20.976562 390.566406 C 20.824219 389.957031 20.824219 389.191406 20.667969 388.582031 C 19.144531 375.90625 19.144531 363.234375 20.667969 350.714844 C 21.738281 343.996094 23.113281 337.277344 24.945312 330.863281 C 24.945312 330.710938 25.097656 330.558594 25.097656 330.40625 C 25.097656 330.253906 25.097656 330.101562 25.25 330.101562 C 25.25 330.101562 25.25 329.945312 25.25 329.945312 C 26.773438 324.90625 28.453125 320.023438 30.4375 315.136719 C 35.324219 303.988281 41.425781 293.453125 48.90625 283.679688 C 51.347656 280.472656 53.941406 277.574219 56.691406 274.519531 C 56.84375 274.367188 56.84375 274.214844 56.996094 274.214844 C 56.996094 274.214844 56.996094 274.0625 57.148438 274.0625 C 57.300781 273.90625 57.300781 273.90625 57.453125 273.753906 C 57.453125 273.753906 57.605469 273.601562 57.605469 273.601562 C 57.605469 273.601562 57.757812 273.449219 57.757812 273.449219 C 57.910156 273.296875 57.910156 273.296875 58.0625 273.144531 C 58.0625 273.144531 58.214844 272.992188 58.214844 272.992188 C 58.371094 272.839844 58.371094 272.839844 58.523438 272.6875 C 58.523438 272.6875 58.523438 272.6875 58.675781 272.535156 C 58.828125 272.382812 58.980469 272.226562 58.980469 272.226562 C 63.558594 267.496094 68.441406 263.066406 73.480469 258.945312 C 73.632812 258.792969 73.785156 258.636719 73.9375 258.636719 C 74.089844 258.484375 74.242188 258.484375 74.394531 258.332031 C 84.164062 251.003906 94.695312 244.742188 105.835938 239.855469 C 107.210938 239.398438 108.433594 238.789062 109.804688 238.332031 C 109.957031 238.332031 109.957031 238.332031 110.109375 238.175781 C 110.261719 238.175781 110.261719 238.175781 110.417969 238.023438 C 118.964844 234.816406 127.664062 232.527344 136.515625 230.847656 C 136.515625 230.847656 136.667969 230.847656 136.667969 230.847656 C 136.667969 230.847656 136.667969 230.847656 136.820312 230.847656 C 138.5 230.542969 140.027344 230.238281 141.707031 230.085938 C 143.535156 229.777344 145.519531 229.625 147.351562 229.472656 C 157.882812 228.253906 168.722656 228.40625 179.40625 229.777344 Z M 290.519531 425.839844 C 290.367188 426.144531 290.367188 426.296875 290.214844 426.601562 C 290.367188 426.296875 290.519531 425.992188 290.519531 425.839844 Z M 290.519531 425.839844 " fill-opacity="1" fill-rule="nonzero"/></g><path fill="#000000" d="M 550.144531 222.601562 C 538.695312 225.351562 527.554688 229.777344 516.871094 234.972656 C 513.054688 236.804688 509.390625 238.941406 505.726562 241.078125 C 504.964844 241.535156 504.046875 242.148438 503.285156 242.605469 C 496.875 246.574219 490.769531 251.15625 484.96875 256.042969 C 481.613281 258.945312 478.253906 261.996094 475.050781 265.203125 C 467.113281 273.144531 459.9375 282.152344 453.832031 291.621094 C 450.78125 296.355469 448.035156 301.242188 445.4375 306.277344 C 444.980469 307.042969 444.675781 307.957031 444.21875 308.722656 C 442.082031 313.304688 440.097656 317.882812 438.265625 322.617188 C 438.265625 322.769531 438.265625 322.769531 438.113281 322.921875 C 433.992188 333.613281 431.398438 344.910156 429.871094 356.210938 C 428.191406 368.425781 427.886719 380.640625 428.953125 393.011719 C 431.089844 416.675781 438.570312 439.582031 450.476562 460.042969 C 456.277344 469.96875 463.296875 479.128906 470.929688 487.527344 C 478.710938 496.078125 487.71875 503.5625 497.027344 510.277344 C 506.644531 517.152344 517.023438 522.496094 527.859375 527.074219 C 538.695312 531.503906 549.835938 534.710938 561.4375 536.695312 C 585.859375 540.816406 610.890625 539.292969 634.699219 532.265625 C 657.898438 525.394531 679.113281 512.875 697.125 496.6875 C 714.371094 480.960938 727.804688 461.265625 736.808594 439.734375 C 745.96875 417.746094 749.933594 393.621094 748.714844 369.648438 C 747.492188 345.675781 740.625 322.3125 729.175781 301.242188 C 723.683594 291.164062 716.96875 281.847656 709.488281 273.144531 C 702.007812 264.289062 693.308594 256.652344 684.152344 249.628906 C 675.300781 242.910156 665.53125 237.261719 655.457031 232.527344 C 644.621094 227.640625 633.480469 223.824219 621.878906 221.382812 C 611.042969 219.089844 600.054688 218.023438 589.0625 218.023438 C 576.089844 218.023438 562.964844 219.546875 550.144531 222.601562 Z M 607.835938 238.175781 C 620.199219 240.011719 632.257812 243.214844 643.859375 247.949219 C 655 252.835938 665.378906 258.945312 675.148438 266.121094 C 684.761719 273.601562 693.308594 282.304688 700.941406 291.773438 C 708.265625 301.394531 714.371094 311.929688 719.257812 323.074219 C 723.988281 334.679688 727.347656 346.894531 729.175781 359.265625 C 730.703125 371.9375 730.703125 384.613281 729.175781 397.132812 C 727.347656 409.5 724.140625 421.5625 719.410156 433.167969 C 714.523438 444.316406 708.417969 454.851562 701.09375 464.625 C 693.460938 474.242188 684.914062 482.792969 675.453125 490.277344 C 665.683594 497.605469 655 503.867188 643.859375 508.753906 C 632.257812 513.484375 620.351562 516.691406 607.988281 518.523438 C 595.472656 520.050781 582.804688 520.050781 570.136719 518.523438 C 557.925781 516.691406 545.867188 513.484375 534.421875 508.753906 C 523.128906 503.867188 512.597656 497.757812 502.828125 490.277344 C 493.210938 482.640625 484.664062 474.089844 477.03125 464.472656 C 469.707031 454.699219 463.601562 444.316406 458.71875 433.015625 C 453.984375 421.410156 450.78125 409.347656 448.949219 396.980469 C 447.421875 384.304688 447.421875 371.632812 448.949219 359.113281 C 450.628906 347.355469 453.679688 335.902344 458.105469 324.90625 C 458.105469 324.90625 458.105469 324.90625 458.105469 324.753906 C 458.105469 324.753906 458.105469 324.601562 458.105469 324.601562 C 458.257812 324.144531 458.414062 323.6875 458.71875 323.226562 C 459.632812 321.089844 460.550781 318.953125 461.617188 316.96875 C 461.617188 316.96875 461.617188 316.816406 461.617188 316.816406 C 461.617188 316.664062 461.769531 316.511719 461.769531 316.355469 C 466.042969 307.652344 471.082031 299.40625 477.03125 291.621094 C 484.511719 282.152344 493.210938 273.449219 502.675781 265.96875 C 502.980469 265.664062 503.285156 265.511719 503.589844 265.203125 C 503.589844 265.203125 503.742188 265.203125 503.742188 265.050781 C 503.894531 265.050781 503.894531 264.898438 504.046875 264.898438 C 513.054688 258.332031 522.667969 252.683594 532.894531 248.101562 C 533.046875 248.101562 533.199219 247.949219 533.351562 247.949219 C 533.351562 247.949219 533.507812 247.949219 533.507812 247.796875 C 533.660156 247.796875 533.660156 247.644531 533.8125 247.644531 C 533.964844 247.644531 534.117188 247.492188 534.117188 247.492188 C 534.574219 247.339844 535.03125 247.1875 535.492188 246.882812 C 546.632812 242.453125 558.230469 239.398438 570.136719 237.566406 C 582.652344 236.652344 595.320312 236.652344 607.835938 238.175781 Z M 607.835938 238.175781 " fill-opacity="1" fill-rule="nonzero"/><path fill="#000000" d="M 369.125 316.203125 C 363.933594 316.511719 358.59375 317.273438 353.554688 318.648438 C 351.722656 319.105469 350.046875 319.5625 348.214844 320.175781 C 343.480469 321.703125 338.75 323.992188 334.476562 326.433594 C 332.644531 327.503906 330.8125 328.726562 329.132812 329.945312 C 329.132812 329.945312 328.980469 330.101562 328.980469 330.101562 C 328.828125 330.253906 328.675781 330.40625 328.371094 330.558594 C 326.84375 331.777344 325.320312 332.847656 323.792969 334.222656 C 318.296875 338.652344 313.871094 343.996094 309.75 349.644531 C 307.15625 353.460938 304.867188 357.433594 303.035156 361.707031 C 303.035156 361.707031 303.035156 361.859375 302.882812 361.859375 C 302.882812 361.859375 302.882812 362.011719 302.882812 362.011719 C 302.882812 362.164062 302.730469 362.316406 302.730469 362.316406 C 302.273438 363.082031 301.964844 363.84375 301.8125 364.609375 C 301.8125 364.761719 301.660156 364.761719 301.660156 364.914062 C 300.746094 367.203125 301.507812 370.257812 302.578125 372.242188 C 303.796875 374.382812 305.933594 375.90625 308.222656 376.671875 C 310.667969 377.28125 313.414062 376.976562 315.550781 375.753906 C 316.160156 375.296875 316.773438 374.6875 317.535156 374.226562 C 318.601562 373.007812 319.519531 371.785156 319.976562 370.257812 C 321.960938 365.832031 324.402344 361.707031 327.304688 357.738281 C 330.355469 353.921875 333.867188 350.40625 337.683594 347.355469 C 341.648438 344.453125 345.925781 342.011719 350.351562 339.871094 C 355.082031 338.039062 359.8125 336.664062 364.851562 335.902344 C 370.039062 335.292969 375.078125 335.292969 380.265625 335.902344 C 383.316406 336.359375 386.371094 337.125 389.269531 338.039062 C 389.421875 338.039062 389.421875 338.039062 389.574219 338.039062 C 389.574219 338.039062 389.730469 338.039062 389.730469 338.039062 C 391.40625 338.496094 393.238281 339.109375 394.917969 339.871094 C 399.496094 341.855469 403.769531 344.453125 407.738281 347.355469 C 408.042969 347.660156 408.503906 347.964844 408.808594 348.269531 C 412.164062 351.171875 415.21875 354.226562 417.964844 357.585938 C 420.40625 360.945312 422.695312 364.609375 424.527344 368.273438 C 424.527344 368.273438 424.527344 368.425781 424.679688 368.425781 C 424.984375 369.035156 425.292969 369.648438 425.597656 370.410156 C 426.816406 373.617188 427.886719 376.671875 428.648438 380.03125 C 429.105469 381.710938 429.414062 383.390625 429.71875 385.222656 C 429.871094 386.597656 430.023438 388.125 430.023438 389.496094 C 430.023438 389.496094 430.023438 389.652344 430.023438 389.652344 C 430.023438 389.804688 430.023438 389.957031 430.023438 390.109375 C 430.023438 390.109375 430.023438 390.261719 430.023438 390.261719 C 430.023438 390.414062 430.023438 390.566406 430.023438 390.71875 C 430.023438 390.71875 430.023438 390.871094 430.023438 390.871094 C 430.023438 391.023438 430.023438 391.175781 430.023438 391.332031 C 430.023438 391.332031 430.023438 391.484375 430.023438 391.484375 C 430.023438 391.636719 430.023438 391.789062 430.023438 391.941406 C 430.023438 391.941406 430.023438 391.941406 430.023438 392.09375 C 430.023438 392.246094 430.023438 392.398438 430.023438 392.703125 C 430.023438 392.855469 430.023438 393.164062 430.023438 393.316406 C 430.023438 398.507812 434.449219 402.933594 439.640625 402.933594 C 444.828125 402.933594 449.101562 398.660156 449.253906 393.316406 C 449.253906 385.984375 448.339844 378.503906 446.203125 371.328125 C 446.203125 371.328125 446.203125 371.175781 446.203125 371.175781 C 445.742188 369.648438 445.285156 367.96875 444.675781 366.441406 C 443.453125 363.234375 442.082031 360.027344 440.402344 357.125 C 439.179688 354.835938 437.808594 352.394531 436.28125 350.253906 C 433.992188 346.894531 431.398438 343.535156 428.496094 340.636719 C 428.191406 340.332031 427.886719 339.871094 427.582031 339.566406 C 426.664062 338.652344 425.75 337.734375 424.679688 336.816406 C 421.628906 333.917969 418.269531 331.320312 414.761719 329.03125 C 412.46875 327.503906 410.179688 326.128906 407.738281 325.0625 C 406.671875 324.449219 405.601562 323.992188 404.382812 323.535156 C 403.921875 323.382812 403.464844 323.074219 403.007812 322.921875 C 399.039062 321.242188 394.917969 319.867188 390.644531 318.800781 C 389.269531 318.496094 387.898438 318.191406 386.371094 317.882812 C 383.164062 317.273438 379.808594 316.96875 376.449219 316.816406 C 376.296875 316.816406 375.992188 316.816406 375.839844 316.816406 C 374.921875 316.816406 373.855469 316.816406 372.941406 316.816406 C 371.566406 316.050781 370.34375 316.050781 369.125 316.203125 Z M 369.125 316.203125 " fill-opacity="1" fill-rule="nonzero"/></svg>