<svg xmlns="http://www.w3.org/2000/svg" xmlns:xlink="http://www.w3.org/1999/xlink" width="1000" zoomAndPan="magnify" viewBox="0 0 750 749.999995" height="1000" preserveAspectRatio="xMidYMid meet" version="1.0"><path fill="#b174e7" d="M 421.75 293.851562 C 562.273438 50.457031 187.542969 50.457031 328.070312 293.851562 C 187.546875 50.457031 0.179688 374.984375 281.226562 374.984375 C 0.179688 374.984375 187.546875 699.511719 328.070312 456.117188 C 187.546875 699.511719 562.277344 699.511719 421.75 456.117188 C 562.273438 699.511719 749.640625 374.984375 468.59375 374.984375 C 749.640625 374.984375 562.277344 50.457031 421.75 293.851562 Z M 421.75 293.851562 " fill-opacity="1" fill-rule="nonzero"/><path fill="#6b1fad" d="M 443.117188 374.984375 C 443.117188 376.101562 443.089844 377.21875 443.035156 378.332031 C 442.980469 379.445312 442.898438 380.558594 442.789062 381.671875 C 442.679688 382.78125 442.542969 383.890625 442.378906 384.992188 C 442.214844 386.097656 442.023438 387.195312 441.804688 388.292969 C 441.589844 389.386719 441.34375 390.476562 441.074219 391.558594 C 440.800781 392.640625 440.503906 393.714844 440.179688 394.785156 C 439.855469 395.851562 439.507812 396.910156 439.128906 397.964844 C 438.753906 399.015625 438.351562 400.054688 437.925781 401.085938 C 437.496094 402.117188 437.046875 403.136719 436.570312 404.148438 C 436.089844 405.15625 435.589844 406.152344 435.0625 407.136719 C 434.535156 408.121094 433.988281 409.09375 433.414062 410.050781 C 432.839844 411.007812 432.242188 411.949219 431.621094 412.878906 C 431.003906 413.804688 430.359375 414.71875 429.695312 415.617188 C 429.03125 416.511719 428.34375 417.390625 427.636719 418.253906 C 426.925781 419.117188 426.199219 419.960938 425.449219 420.789062 C 424.699219 421.617188 423.929688 422.425781 423.140625 423.214844 C 422.351562 424.003906 421.542969 424.773438 420.714844 425.523438 C 419.886719 426.273438 419.042969 427 418.179688 427.710938 C 417.316406 428.417969 416.4375 429.105469 415.542969 429.769531 C 414.644531 430.433594 413.730469 431.078125 412.804688 431.695312 C 411.875 432.316406 410.933594 432.914062 409.976562 433.488281 C 409.019531 434.0625 408.046875 434.613281 407.0625 435.136719 C 406.078125 435.664062 405.082031 436.164062 404.074219 436.644531 C 403.0625 437.121094 402.042969 437.570312 401.011719 438 C 399.980469 438.425781 398.941406 438.828125 397.890625 439.203125 C 396.835938 439.582031 395.777344 439.929688 394.710938 440.253906 C 393.640625 440.578125 392.566406 440.875 391.484375 441.148438 C 390.402344 441.417969 389.3125 441.664062 388.21875 441.878906 C 387.121094 442.097656 386.023438 442.289062 384.917969 442.453125 C 383.816406 442.617188 382.707031 442.753906 381.597656 442.863281 C 380.484375 442.972656 379.371094 443.054688 378.257812 443.109375 C 377.144531 443.164062 376.027344 443.191406 374.910156 443.191406 C 373.792969 443.191406 372.679688 443.164062 371.5625 443.109375 C 370.449219 443.054688 369.335938 442.972656 368.226562 442.863281 C 367.113281 442.753906 366.007812 442.617188 364.902344 442.453125 C 363.796875 442.289062 362.699219 442.097656 361.605469 441.878906 C 360.507812 441.664062 359.421875 441.417969 358.339844 441.148438 C 357.253906 440.875 356.179688 440.578125 355.113281 440.253906 C 354.042969 439.929688 352.984375 439.582031 351.933594 439.203125 C 350.882812 438.828125 349.839844 438.425781 348.808594 438 C 347.777344 437.570312 346.757812 437.121094 345.75 436.644531 C 344.738281 436.164062 343.742188 435.664062 342.757812 435.136719 C 341.773438 434.613281 340.804688 434.0625 339.847656 433.488281 C 338.886719 432.914062 337.945312 432.316406 337.015625 431.695312 C 336.089844 431.078125 335.175781 430.433594 334.28125 429.769531 C 333.382812 429.105469 332.503906 428.417969 331.640625 427.710938 C 330.777344 427 329.933594 426.273438 329.105469 425.523438 C 328.277344 424.773438 327.472656 424.003906 326.683594 423.214844 C 325.890625 422.425781 325.121094 421.617188 324.375 420.789062 C 323.625 419.960938 322.894531 419.117188 322.1875 418.253906 C 321.476562 417.390625 320.792969 416.511719 320.128906 415.617188 C 319.460938 414.71875 318.820312 413.804688 318.199219 412.878906 C 317.578125 411.949219 316.980469 411.007812 316.410156 410.050781 C 315.835938 409.09375 315.285156 408.121094 314.757812 407.136719 C 314.230469 406.152344 313.730469 405.15625 313.253906 404.148438 C 312.777344 403.136719 312.324219 402.117188 311.894531 401.085938 C 311.46875 400.054688 311.066406 399.015625 310.691406 397.964844 C 310.316406 396.910156 309.964844 395.851562 309.640625 394.785156 C 309.316406 393.714844 309.019531 392.640625 308.75 391.558594 C 308.476562 390.476562 308.234375 389.386719 308.015625 388.292969 C 307.796875 387.195312 307.605469 386.097656 307.441406 384.992188 C 307.277344 383.890625 307.140625 382.78125 307.03125 381.671875 C 306.921875 380.558594 306.839844 379.445312 306.785156 378.332031 C 306.730469 377.21875 306.703125 376.101562 306.703125 374.984375 C 306.703125 373.867188 306.730469 372.753906 306.785156 371.636719 C 306.839844 370.523438 306.921875 369.410156 307.03125 368.300781 C 307.140625 367.1875 307.277344 366.082031 307.441406 364.976562 C 307.605469 363.871094 307.796875 362.773438 308.015625 361.679688 C 308.234375 360.582031 308.476562 359.496094 308.75 358.414062 C 309.019531 357.328125 309.316406 356.253906 309.640625 355.1875 C 309.964844 354.117188 310.316406 353.058594 310.691406 352.007812 C 311.066406 350.957031 311.46875 349.914062 311.894531 348.882812 C 312.324219 347.851562 312.777344 346.832031 313.253906 345.824219 C 313.730469 344.8125 314.230469 343.816406 314.757812 342.832031 C 315.285156 341.847656 315.835938 340.878906 316.410156 339.921875 C 316.980469 338.960938 317.578125 338.019531 318.199219 337.089844 C 318.820312 336.164062 319.460938 335.25 320.128906 334.355469 C 320.792969 333.457031 321.476562 332.578125 322.1875 331.714844 C 322.894531 330.851562 323.625 330.007812 324.375 329.179688 C 325.121094 328.355469 325.890625 327.546875 326.683594 326.757812 C 327.472656 325.964844 328.277344 325.195312 329.105469 324.449219 C 329.933594 323.699219 330.777344 322.96875 331.640625 322.261719 C 332.503906 321.554688 333.382812 320.867188 334.28125 320.203125 C 335.175781 319.535156 336.089844 318.894531 337.015625 318.273438 C 337.945312 317.652344 338.886719 317.054688 339.847656 316.484375 C 340.804688 315.910156 341.773438 315.359375 342.757812 314.832031 C 343.742188 314.304688 344.738281 313.804688 345.75 313.328125 C 346.757812 312.851562 347.777344 312.398438 348.808594 311.972656 C 349.839844 311.542969 350.882812 311.140625 351.933594 310.765625 C 352.984375 310.390625 354.042969 310.039062 355.113281 309.714844 C 356.179688 309.390625 357.253906 309.09375 358.339844 308.824219 C 359.421875 308.550781 360.507812 308.308594 361.605469 308.089844 C 362.699219 307.871094 363.796875 307.679688 364.902344 307.515625 C 366.007812 307.351562 367.113281 307.214844 368.226562 307.105469 C 369.335938 306.996094 370.449219 306.914062 371.5625 306.859375 C 372.679688 306.804688 373.792969 306.777344 374.910156 306.777344 C 376.027344 306.777344 377.144531 306.804688 378.257812 306.859375 C 379.371094 306.914062 380.484375 306.996094 381.597656 307.105469 C 382.707031 307.214844 383.816406 307.351562 384.917969 307.515625 C 386.023438 307.679688 387.121094 307.871094 388.21875 308.089844 C 389.3125 308.308594 390.402344 308.550781 391.484375 308.824219 C 392.566406 309.09375 393.640625 309.390625 394.710938 309.714844 C 395.777344 310.039062 396.835938 310.390625 397.890625 310.765625 C 398.941406 311.140625 399.980469 311.542969 401.011719 311.972656 C 402.042969 312.398438 403.0625 312.851562 404.074219 313.328125 C 405.082031 313.804688 406.078125 314.304688 407.0625 314.832031 C 408.046875 315.359375 409.019531 315.910156 409.976562 316.484375 C 410.933594 317.054688 411.875 317.652344 412.804688 318.273438 C 413.730469 318.894531 414.644531 319.535156 415.542969 320.203125 C 416.4375 320.867188 417.316406 321.554688 418.179688 322.261719 C 419.042969 322.96875 419.886719 323.699219 420.714844 324.449219 C 421.542969 325.195312 422.351562 325.964844 423.140625 326.757812 C 423.929688 327.546875 424.699219 328.355469 425.449219 329.179688 C 426.199219 330.007812 426.925781 330.851562 427.636719 331.714844 C 428.34375 332.578125 429.03125 333.457031 429.695312 334.355469 C 430.359375 335.25 431.003906 336.164062 431.621094 337.089844 C 432.242188 338.019531 432.839844 338.960938 433.414062 339.921875 C 433.988281 340.878906 434.535156 341.847656 435.0625 342.832031 C 435.589844 343.816406 436.089844 344.8125 436.570312 345.824219 C 437.046875 346.832031 437.496094 347.851562 437.925781 348.882812 C 438.351562 349.914062 438.753906 350.957031 439.128906 352.007812 C 439.507812 353.058594 439.855469 354.117188 440.179688 355.1875 C 440.503906 356.253906 440.800781 357.328125 441.074219 358.414062 C 441.34375 359.496094 441.589844 360.582031 441.804688 361.679688 C 442.023438 362.773438 442.214844 363.871094 442.378906 364.976562 C 442.542969 366.082031 442.679688 367.1875 442.789062 368.300781 C 442.898438 369.410156 442.980469 370.523438 443.035156 371.636719 C 443.089844 372.753906 443.117188 373.867188 443.117188 374.984375 Z M 443.117188 374.984375 " fill-opacity="1" fill-rule="nonzero"/></svg>